<svg width="182" height="10" viewBox="0 0 182 10" fill="none" xmlns="http://www.w3.org/2000/svg">
<path d="M3.83238 10C3.07504 10 2.48304 9.89333 2.05638 9.68C1.62971 9.46667 1.33104 9.14667 1.16038 8.72C0.989711 8.29333 0.904378 7.76533 0.904378 7.136V3.568C0.904378 2.544 1.13371 1.792 1.59238 1.312C2.05104 0.821333 2.79771 0.575999 3.83238 0.575999H8.64838C9.38438 0.575999 9.94438 0.618666 10.3284 0.704C10.723 0.778666 10.9204 0.858666 10.9204 0.943999L10.6004 2.272C10.419 2.24 9.88038 2.208 8.98438 2.176C8.09905 2.13333 6.80838 2.112 5.11238 2.112H4.29638C3.44304 2.112 3.01638 2.49067 3.01638 3.248V7.328C3.01638 7.69067 3.10704 7.97333 3.28838 8.176C3.48038 8.368 3.81638 8.464 4.29638 8.464H4.95238C6.72305 8.464 8.09371 8.448 9.06438 8.416C10.0457 8.37333 10.6537 8.33067 10.8884 8.288L11.5444 9.344C11.5444 9.39733 11.4537 9.47733 11.2724 9.584C11.1017 9.69067 10.7817 9.78667 10.3124 9.872C9.84305 9.95733 9.16571 10 8.28038 10H3.83238ZM14.0225 10V2.832H15.3345L15.9425 3.152C16.2198 3.00267 16.5185 2.88533 16.8385 2.8C17.1585 2.71467 17.5638 2.672 18.0545 2.672C18.8332 2.672 19.4625 2.75733 19.9425 2.928C20.4332 3.09867 20.7585 3.22667 20.9185 3.312L20.3585 4.704C20.2305 4.64 20.0172 4.56 19.7185 4.464C19.4305 4.35733 19.0892 4.26133 18.6945 4.176C18.2998 4.09067 17.8678 4.048 17.3985 4.048H17.2225C16.7105 4.048 16.3745 4.14933 16.2145 4.352C16.0652 4.55467 15.9852 4.89067 15.9745 5.36V10H14.0225ZM25.1901 10C24.6568 10 24.2461 9.93067 23.9581 9.792C23.6701 9.65333 23.4621 9.47733 23.3341 9.264C23.2168 9.05067 23.1421 8.82667 23.1101 8.592C23.0888 8.35733 23.0781 8.144 23.0781 7.952V4.88C23.0781 4.72 23.0888 4.528 23.1101 4.304C23.1421 4.06933 23.2168 3.84 23.3341 3.616C23.4621 3.392 23.6701 3.20533 23.9581 3.056C24.2568 2.90667 24.6675 2.832 25.1901 2.832H28.6301C29.3341 2.832 29.8835 2.90133 30.2781 3.04C30.6835 3.168 30.9661 3.38133 31.1261 3.68C31.2968 3.97867 31.3821 4.37867 31.3821 4.88V7.248H28.5821C27.6221 7.248 26.8381 7.22667 26.2301 7.184C25.6328 7.14133 25.2328 7.11467 25.0301 7.104V7.984C25.0195 8.41067 25.2755 8.624 25.7981 8.624H26.6141C27.1901 8.624 27.7501 8.61867 28.2941 8.608C28.8488 8.58667 29.3555 8.56533 29.8141 8.544C30.2728 8.512 30.6408 8.48533 30.9181 8.464L31.5581 9.504C31.5581 9.83467 30.5075 10 28.4061 10H25.1901ZM25.0301 5.872H29.4301V4.848C29.4301 4.63467 29.4035 4.48533 29.3501 4.4C29.3075 4.31467 29.1688 4.26133 28.9341 4.24C28.6995 4.21867 28.2995 4.208 27.7341 4.208H25.7981C25.2861 4.208 25.0301 4.42133 25.0301 4.848V5.872ZM36.424 10C35.6133 10 35.0267 9.81333 34.664 9.44C34.3013 9.056 34.12 8.53333 34.12 7.872C34.12 7.17867 34.3067 6.64533 34.68 6.272C35.064 5.89867 35.6453 5.712 36.424 5.712H37.24C38.04 5.712 38.76 5.73333 39.4 5.776C40.04 5.81867 40.568 5.86133 40.984 5.904V4.848C40.984 4.752 40.9733 4.656 40.952 4.56C40.9307 4.45333 40.8667 4.368 40.76 4.304C40.6533 4.24 40.472 4.208 40.216 4.208H39.416C38.2533 4.208 37.2827 4.22933 36.504 4.272C35.7253 4.304 35.1973 4.336 34.92 4.368L34.744 3.152C34.744 3.00267 35.1493 2.912 35.96 2.88C36.7707 2.848 38.1253 2.832 40.024 2.832H40.824C41.3573 2.832 41.768 2.90667 42.056 3.056C42.344 3.20533 42.5467 3.392 42.664 3.616C42.792 3.84 42.8667 4.06933 42.888 4.304C42.92 4.528 42.936 4.72 42.936 4.88V10H41.624L41 9.68C40.552 9.75467 40.0133 9.82933 39.384 9.904C38.7547 9.968 38.0347 10 37.224 10H36.424ZM36.84 8.624H40.504C40.7387 8.624 40.8773 8.60267 40.92 8.56C40.9627 8.51733 40.984 8.384 40.984 8.16V6.928H36.84C36.552 6.928 36.3493 6.99733 36.232 7.136C36.1253 7.27467 36.072 7.49333 36.072 7.792C36.072 8.09067 36.136 8.304 36.264 8.432C36.392 8.56 36.584 8.624 36.84 8.624ZM48.7659 10C47.9552 10 47.4005 9.82933 47.1019 9.488C46.8032 9.14667 46.6539 8.63467 46.6539 7.952V4.208H45.3419V2.832H46.0139C46.2165 2.832 46.3605 2.8 46.4459 2.736C46.5419 2.672 46.6112 2.544 46.6539 2.352L46.9739 0.639999H48.6059V2.832H51.9339V4.208H48.6059V7.968C48.6059 8.23467 48.6699 8.41067 48.7979 8.496C48.9259 8.58133 49.1179 8.624 49.3739 8.624H51.6299L51.7899 9.84C51.5659 9.872 51.2245 9.90933 50.7659 9.952C50.3072 9.984 49.8059 10 49.2619 10H48.7659ZM56.3683 10C55.8349 10 55.4243 9.93067 55.1363 9.792C54.8483 9.65333 54.6403 9.47733 54.5123 9.264C54.3949 9.05067 54.3203 8.82667 54.2883 8.592C54.2669 8.35733 54.2563 8.144 54.2563 7.952V4.88C54.2563 4.72 54.2669 4.528 54.2883 4.304C54.3203 4.06933 54.3949 3.84 54.5123 3.616C54.6403 3.392 54.8483 3.20533 55.1363 3.056C55.4349 2.90667 55.8456 2.832 56.3683 2.832H59.8083C60.5123 2.832 61.0616 2.90133 61.4563 3.04C61.8616 3.168 62.1443 3.38133 62.3043 3.68C62.4749 3.97867 62.5603 4.37867 62.5603 4.88V7.248H59.7603C58.8003 7.248 58.0163 7.22667 57.4083 7.184C56.8109 7.14133 56.4109 7.11467 56.2083 7.104V7.984C56.1976 8.41067 56.4536 8.624 56.9763 8.624H57.7923C58.3683 8.624 58.9283 8.61867 59.4723 8.608C60.0269 8.58667 60.5336 8.56533 60.9923 8.544C61.4509 8.512 61.8189 8.48533 62.0963 8.464L62.7363 9.504C62.7363 9.83467 61.6856 10 59.5843 10H56.3683ZM56.2083 5.872H60.6083V4.848C60.6083 4.63467 60.5816 4.48533 60.5283 4.4C60.4856 4.31467 60.3469 4.26133 60.1123 4.24C59.8776 4.21867 59.4776 4.208 58.9123 4.208H56.9763C56.4643 4.208 56.2083 4.42133 56.2083 4.848V5.872ZM72.3178 10C71.5071 10 70.9204 9.81333 70.5578 9.44C70.1951 9.056 70.0138 8.53333 70.0138 7.872C70.0138 7.17867 70.2004 6.64533 70.5738 6.272C70.9578 5.89867 71.5391 5.712 72.3178 5.712H73.1338C73.9338 5.712 74.6538 5.73333 75.2938 5.776C75.9338 5.81867 76.4618 5.86133 76.8778 5.904V4.848C76.8778 4.752 76.8671 4.656 76.8458 4.56C76.8244 4.45333 76.7604 4.368 76.6538 4.304C76.5471 4.24 76.3658 4.208 76.1098 4.208H75.3098C74.1471 4.208 73.1764 4.22933 72.3978 4.272C71.6191 4.304 71.0911 4.336 70.8138 4.368L70.6378 3.152C70.6378 3.00267 71.0431 2.912 71.8538 2.88C72.6644 2.848 74.0191 2.832 75.9178 2.832H76.7178C77.2511 2.832 77.6618 2.90667 77.9498 3.056C78.2378 3.20533 78.4404 3.392 78.5578 3.616C78.6858 3.84 78.7604 4.06933 78.7818 4.304C78.8138 4.528 78.8298 4.72 78.8298 4.88V10H77.5178L76.8938 9.68C76.4458 9.75467 75.9071 9.82933 75.2778 9.904C74.6484 9.968 73.9284 10 73.1178 10H72.3178ZM72.7338 8.624H76.3978C76.6324 8.624 76.7711 8.60267 76.8138 8.56C76.8564 8.51733 76.8778 8.384 76.8778 8.16V6.928H72.7338C72.4458 6.928 72.2431 6.99733 72.1258 7.136C72.0191 7.27467 71.9658 7.49333 71.9658 7.792C71.9658 8.09067 72.0298 8.304 72.1578 8.432C72.2858 8.56 72.4778 8.624 72.7338 8.624ZM81.8756 10V2.832H83.1876L83.8276 3.152C84.2756 3.06667 84.8143 2.992 85.4436 2.928C86.073 2.864 86.793 2.832 87.6036 2.832H88.4036C88.937 2.832 89.3476 2.90667 89.6356 3.056C89.9236 3.20533 90.1263 3.392 90.2436 3.616C90.3716 3.84 90.4463 4.06933 90.4676 4.304C90.4996 4.528 90.5156 4.72 90.5156 4.88V10H88.5636V4.848C88.5636 4.42133 88.3076 4.208 87.7956 4.208H84.3076C84.105 4.208 83.9716 4.22933 83.9076 4.272C83.8543 4.304 83.8276 4.4 83.8276 4.56V10H81.8756ZM100.34 10C99.529 10 98.9423 9.81333 98.5796 9.44C98.217 9.056 98.0356 8.53333 98.0356 7.872C98.0356 7.17867 98.2223 6.64533 98.5956 6.272C98.9796 5.89867 99.561 5.712 100.34 5.712H101.156C101.956 5.712 102.676 5.73333 103.316 5.776C103.956 5.81867 104.484 5.86133 104.9 5.904V4.848C104.9 4.752 104.889 4.656 104.868 4.56C104.846 4.45333 104.782 4.368 104.676 4.304C104.569 4.24 104.388 4.208 104.132 4.208H103.332C102.169 4.208 101.198 4.22933 100.42 4.272C99.641 4.304 99.113 4.336 98.8356 4.368L98.6596 3.152C98.6596 3.00267 99.065 2.912 99.8756 2.88C100.686 2.848 102.041 2.832 103.94 2.832H104.74C105.273 2.832 105.684 2.90667 105.972 3.056C106.26 3.20533 106.462 3.392 106.58 3.616C106.708 3.84 106.782 4.06933 106.804 4.304C106.836 4.528 106.852 4.72 106.852 4.88V10H105.54L104.916 9.68C104.468 9.75467 103.929 9.82933 103.3 9.904C102.67 9.968 101.95 10 101.14 10H100.34ZM100.756 8.624H104.42C104.654 8.624 104.793 8.60267 104.836 8.56C104.878 8.51733 104.9 8.384 104.9 8.16V6.928H100.756C100.468 6.928 100.265 6.99733 100.148 7.136C100.041 7.27467 99.9876 7.49333 99.9876 7.792C99.9876 8.09067 100.052 8.304 100.18 8.432C100.308 8.56 100.5 8.624 100.756 8.624ZM111.85 10C111.316 10 110.906 9.93067 110.618 9.792C110.33 9.65333 110.122 9.47733 109.993 9.264C109.876 9.05067 109.802 8.82667 109.77 8.592C109.748 8.35733 109.738 8.144 109.738 7.952V4.88C109.738 4.72 109.748 4.528 109.77 4.304C109.802 4.06933 109.876 3.84 109.993 3.616C110.122 3.392 110.33 3.20533 110.618 3.056C110.916 2.90667 111.327 2.832 111.85 2.832H114.074C115.407 2.832 116.351 2.86933 116.906 2.944C117.471 3.008 117.753 3.07733 117.753 3.152L117.434 4.368C117.135 4.34667 116.756 4.32533 116.298 4.304C115.839 4.272 115.343 4.25067 114.81 4.24C114.287 4.21867 113.775 4.208 113.274 4.208H112.458C111.946 4.208 111.69 4.42133 111.69 4.848V7.984C111.679 8.41067 111.935 8.624 112.458 8.624H113.274C113.85 8.624 114.41 8.61867 114.954 8.608C115.508 8.58667 116.015 8.56533 116.474 8.544C116.932 8.512 117.3 8.48533 117.578 8.464L118.218 9.504C118.218 9.83467 117.167 10 115.066 10H111.85ZM122.487 10C121.954 10 121.543 9.93067 121.255 9.792C120.967 9.65333 120.759 9.47733 120.631 9.264C120.514 9.05067 120.439 8.82667 120.407 8.592C120.386 8.35733 120.375 8.144 120.375 7.952V4.88C120.375 4.72 120.386 4.528 120.407 4.304C120.439 4.06933 120.514 3.84 120.631 3.616C120.759 3.392 120.967 3.20533 121.255 3.056C121.554 2.90667 121.964 2.832 122.487 2.832H124.711C126.044 2.832 126.988 2.86933 127.543 2.944C128.108 3.008 128.391 3.07733 128.391 3.152L128.071 4.368C127.772 4.34667 127.394 4.32533 126.935 4.304C126.476 4.272 125.98 4.25067 125.447 4.24C124.924 4.21867 124.412 4.208 123.911 4.208H123.095C122.583 4.208 122.327 4.42133 122.327 4.848V7.984C122.316 8.41067 122.572 8.624 123.095 8.624H123.911C124.487 8.624 125.047 8.61867 125.591 8.608C126.146 8.58667 126.652 8.56533 127.111 8.544C127.57 8.512 127.938 8.48533 128.215 8.464L128.855 9.504C128.855 9.83467 127.804 10 125.703 10H122.487ZM133.125 10C132.41 10 131.877 9.856 131.525 9.568C131.183 9.28 131.013 8.81067 131.013 8.16V4.88C131.013 4.72 131.023 4.528 131.045 4.304C131.077 4.06933 131.151 3.84 131.269 3.616C131.397 3.392 131.605 3.20533 131.893 3.056C132.191 2.90667 132.602 2.832 133.125 2.832H137.541C138.074 2.832 138.485 2.90667 138.773 3.056C139.061 3.20533 139.263 3.392 139.381 3.616C139.509 3.84 139.583 4.06933 139.605 4.304C139.637 4.528 139.653 4.72 139.653 4.88V7.952C139.653 8.144 139.637 8.35733 139.605 8.592C139.583 8.82667 139.509 9.05067 139.381 9.264C139.253 9.47733 139.045 9.65333 138.757 9.792C138.469 9.93067 138.063 10 137.541 10H133.125ZM133.733 8.624H136.933C137.455 8.624 137.717 8.41067 137.717 7.984V4.848C137.717 4.42133 137.455 4.208 136.933 4.208H133.733C133.221 4.208 132.965 4.42133 132.965 4.848V7.984C132.965 8.41067 133.221 8.624 133.733 8.624ZM144.719 10C144.196 10 143.786 9.93067 143.487 9.792C143.199 9.65333 142.991 9.47733 142.863 9.264C142.746 9.05067 142.671 8.82667 142.639 8.592C142.618 8.35733 142.607 8.144 142.607 7.952V2.832H144.559V7.984C144.548 8.21867 144.623 8.384 144.783 8.48C144.954 8.576 145.135 8.624 145.327 8.624H148.495C148.73 8.624 148.868 8.60267 148.911 8.56C148.954 8.51733 148.975 8.37867 148.975 8.144V2.832H150.927V10H149.615L149.007 9.68C148.58 9.76533 148.074 9.84 147.487 9.904C146.911 9.968 146.26 10 145.535 10H144.719ZM154.041 10V2.832H155.353L155.993 3.152C156.441 3.06667 156.98 2.992 157.609 2.928C158.239 2.864 158.959 2.832 159.769 2.832H160.569C161.103 2.832 161.513 2.90667 161.801 3.056C162.089 3.20533 162.292 3.392 162.409 3.616C162.537 3.84 162.612 4.06933 162.633 4.304C162.665 4.528 162.681 4.72 162.681 4.88V10H160.729V4.848C160.729 4.42133 160.473 4.208 159.961 4.208H156.473C156.271 4.208 156.137 4.22933 156.073 4.272C156.02 4.304 155.993 4.4 155.993 4.56V10H154.041ZM168.51 10C167.699 10 167.144 9.82933 166.846 9.488C166.547 9.14667 166.398 8.63467 166.398 7.952V4.208H165.086V2.832H165.758C165.96 2.832 166.104 2.8 166.19 2.736C166.286 2.672 166.355 2.544 166.398 2.352L166.718 0.639999H168.35V2.832H171.678V4.208H168.35V7.968C168.35 8.23467 168.414 8.41067 168.542 8.496C168.67 8.58133 168.862 8.624 169.118 8.624H171.374L171.534 9.84C171.31 9.872 170.968 9.90933 170.51 9.952C170.051 9.984 169.55 10 169.006 10H168.51ZM176.48 6.64C176.448 6.55467 176.411 6.43733 176.368 6.288C176.336 6.128 176.32 5.95733 176.32 5.776C176.32 5.34933 176.448 5.02933 176.704 4.816C176.96 4.60267 177.365 4.496 177.92 4.496H178.912C179.253 4.496 179.488 4.416 179.616 4.256C179.755 4.096 179.824 3.85067 179.824 3.52V2.784C179.813 2.50667 179.739 2.304 179.6 2.176C179.461 2.048 179.221 1.984 178.88 1.984H177.52C176.869 1.984 176.315 2.02133 175.856 2.096C175.397 2.17067 175.045 2.24 174.8 2.304L174.48 0.912C174.725 0.762666 175.109 0.645333 175.632 0.559999C176.155 0.474666 176.837 0.431999 177.68 0.431999H179.168C180.139 0.431999 180.843 0.650666 181.28 1.088C181.717 1.52533 181.936 2.07467 181.936 2.736V3.744C181.936 4.42667 181.728 4.95467 181.312 5.328C180.907 5.70133 180.357 5.888 179.664 5.888H178.464C178.187 5.888 177.995 5.94667 177.888 6.064C177.781 6.18133 177.707 6.37333 177.664 6.64H176.48ZM177.088 10C176.693 10 176.405 9.92 176.224 9.76C176.043 9.6 175.952 9.33333 175.952 8.96C175.952 8.576 176.037 8.30933 176.208 8.16C176.389 8 176.683 7.92 177.088 7.92C177.493 7.92 177.787 8 177.968 8.16C178.149 8.30933 178.24 8.576 178.24 8.96C178.24 9.32267 178.149 9.58933 177.968 9.76C177.787 9.92 177.493 10 177.088 10Z" fill="white"/>
</svg>
