<!-- <svg width="23" height="23" viewBox="0 0 23 23" fill="none" xmlns="http://www.w3.org/2000/svg"> -->
<svg width="auto" height="auto" viewBox="0 0 23 23" fill="none" xmlns="http://www.w3.org/2000/svg">
<path d="M1.62232 22.3881C1.1897 22.3881 0.811162 22.226 0.486697 21.902C0.162232 21.5779 0 21.1998 0 20.7677V4.56403C0 4.13193 0.162232 3.75385 0.486697 3.42978C0.811162 3.1057 1.1897 2.94367 1.62232 2.94367H12.573L10.9507 4.56403H1.62232V20.7677H17.8456V11.3696L19.4679 9.7492V20.7677C19.4679 21.1998 19.3056 21.5779 18.9812 21.902C18.6567 22.226 18.2782 22.3881 17.8456 22.3881H1.62232ZM14.655 3.15971L15.8176 4.29397L8.11162 11.9637V14.2862H10.4099L18.143 6.56248L19.2786 7.69674L11.0859 15.9066H6.48929V11.3156L14.655 3.15971ZM19.2786 7.69674L14.655 3.15971L17.3589 0.459104C17.6653 0.153035 18.0466 0 18.5029 0C18.9591 0 19.3439 0.162037 19.6571 0.48611L21.9284 2.78163C22.2348 3.1057 22.3881 3.48804 22.3881 3.92863C22.3881 4.36923 22.2258 4.74306 21.9014 5.05014L19.2786 7.69674Z" fill="#E6E1E5"/>
</svg>
