<svg width="91" height="91" viewBox="0 0 91 91" fill="none" xmlns="http://www.w3.org/2000/svg">
<g filter="url(#filter0_f_1465_74)">
<path d="M86 45.5C86 53.5101 83.6247 61.3404 79.1745 68.0006C74.7243 74.6608 68.3991 79.8518 60.9987 82.9171C53.5983 85.9825 45.4551 86.7845 37.5988 85.2218C29.7426 83.6591 22.5262 79.8018 16.8622 74.1378C11.1981 68.4738 7.3409 61.2574 5.7782 53.4012C4.21549 45.5449 5.01753 37.4017 8.08288 30.0013C11.1482 22.6009 16.3392 16.2757 22.9994 11.8255C29.6596 7.37528 37.4899 5 45.5 5V6.94102C37.8738 6.94102 30.4188 9.20246 24.0778 13.4394C17.7368 17.6763 12.7946 23.6984 9.87614 30.7441C6.95771 37.7898 6.19411 45.5428 7.68192 53.0225C9.16972 60.5022 12.8421 67.3727 18.2347 72.7653C23.6273 78.1579 30.4978 81.8303 37.9775 83.3181C45.4572 84.8059 53.2102 84.0423 60.2559 81.1239C67.3016 78.2054 73.3237 73.2632 77.5606 66.9222C81.7975 60.5812 84.059 53.1262 84.059 45.5H86Z" fill="#D9D9D9"/>
</g>
<defs>
<filter id="filter0_f_1465_74" x="0" y="0" width="91" height="91" filterUnits="userSpaceOnUse" color-interpolation-filters="sRGB">
<feFlood flood-opacity="0" result="BackgroundImageFix"/>
<feBlend mode="normal" in="SourceGraphic" in2="BackgroundImageFix" result="shape"/>
<feGaussianBlur stdDeviation="2.5" result="effect1_foregroundBlur_1465_74"/>
</filter>
</defs>
</svg>
