<svg width="auto" height="auto" viewBox="0 0 16 246" fill="none" xmlns="http://www.w3.org/2000/svg">
<path d="M15 0L1 14V91L8 84V78.5L15 71.5V0Z" fill="white"/>
<path d="M15 180.5L1 194.5V212.5L8.5 205V199.5L15 193V180.5Z" stroke="white" stroke-width="2"/>
<path d="M15 149.5L1 163.5V181.5L8.5 174V168.5L15 162V149.5Z" stroke="white" stroke-width="2"/>
<path d="M15 120.5L1 134.5V152.5L8.5 145V139.5L15 133V120.5Z" fill="white"/>
<path d="M15 90.5L1 104.5V122.5L8.5 115V109.5L15 103V90.5Z" fill="white"/>
<path d="M15 211.5L1 225.5V243.5L8.5 236V230.5L15 224V211.5Z" stroke="white" stroke-width="2"/>
</svg>
