<svg width="177" height="57" viewBox="0 0 177 57" fill="none" xmlns="http://www.w3.org/2000/svg">
<g clip-path="url(#clip0_3264_38)">
<path d="M16.6444 91V23.8H60.3244V37.384H30.2284V50.296H57.0124V63.88H30.2284V77.416H60.3244V91H16.6444ZM17.9404 89.704H59.0284V78.712H28.9324V62.584H55.7164V51.592H28.9324V36.088H59.0284V25.096H17.9404V89.704ZM62.7544 91V23.8H106.434V37.384H76.3384V50.296H103.122V63.88H76.3384V77.416H106.434V91H62.7544ZM64.0504 89.704H105.138V78.712H75.0424V62.584H101.826V51.592H75.0424V36.088H105.138V25.096H64.0504V89.704ZM118.752 91L108.864 81.112V69.016H122.448V74.488L125.376 77.416H143.808L146.736 74.488V67.096L143.808 64.168H119.04L109.152 54.28V33.688L119.04 23.8H149.52L159.408 33.688V45.784H145.824V40.312L142.896 37.384H125.664L122.688 40.312V47.656L125.664 50.584H150.432L160.32 60.472V81.112L150.432 91H118.752ZM119.28 89.704H149.904L159.024 80.584V61L149.904 51.784H125.088L121.44 48.232V39.784L125.088 36.088H143.424L147.12 39.784V44.488H158.112V34.216L148.992 25.096H119.568L110.448 34.216V53.752L119.568 62.92H144.336L148.032 66.376V75.016L144.336 78.712H124.848L121.152 75.016V70.312H110.16V80.584L119.28 89.704Z" fill="white"/>
</g>
<defs>
<clipPath id="clip0_3264_38">
<rect width="177" height="57" fill="white"/>
</clipPath>
</defs>
</svg>
