<svg width="145" height="68" viewBox="0 0 145 68" fill="none" xmlns="http://www.w3.org/2000/svg">
<path d="M0.644374 68V0.799995H44.3244V14.384H14.2284V27.296H41.0124V40.88H14.2284V54.416H44.3244V68H0.644374ZM7.60438 61.184H38.0844H7.60438V34.064H34.7244H7.60438V7.568H38.0844H7.60438V61.184ZM46.7544 68V0.799995H90.4344V14.384H60.3384V27.296H87.1224V40.88H60.3384V54.416H90.4344V68H46.7544ZM53.7144 61.184H84.1944H53.7144V34.064H80.8344H53.7144V7.568H84.1944H53.7144V61.184ZM102.752 68L92.8644 58.112V46.016H106.448V51.488L109.376 54.416H127.808L130.736 51.488V44.096L127.808 41.168H103.04L93.1524 31.28V10.688L103.04 0.799995H133.52L143.408 10.688V22.784H129.824V17.312L126.896 14.384H109.664L106.688 17.312V24.656L109.664 27.584H134.432L144.32 37.472V58.112L134.432 68H102.752ZM105.92 61.184H130.352L137.264 54.56V40.16L131.792 34.448H106.784L100.016 27.44V13.856L106.592 7.568H130.496L136.544 13.856V16.544V13.856L130.496 7.568H106.592L100.016 13.856V27.44L106.784 34.448H131.792L137.264 40.16V54.56L130.352 61.184H105.92L99.9684 55.52V52.256V55.52L105.92 61.184Z" fill="white"/>
</svg>
