<svg width="177" height="57" viewBox="0 0 177 57" fill="none" xmlns="http://www.w3.org/2000/svg">
<g clip-path="url(#clip0_3264_42)">
<path d="M16.6444 34V-33.2H60.3244V-19.616H30.2284V-6.704H57.0124V6.88H30.2284V20.416H60.3244V34H16.6444ZM17.9404 32.704H59.0284V21.712H28.9324V5.584H55.7164V-5.408H28.9324V-20.912H59.0284V-31.904H17.9404V32.704ZM62.7544 34V-33.2H106.434V-19.616H76.3384V-6.704H103.122V6.88H76.3384V20.416H106.434V34H62.7544ZM64.0504 32.704H105.138V21.712H75.0424V5.584H101.826V-5.408H75.0424V-20.912H105.138V-31.904H64.0504V32.704ZM118.752 34L108.864 24.112V12.016H122.448V17.488L125.376 20.416H143.808L146.736 17.488V10.096L143.808 7.168H119.04L109.152 -2.72V-23.312L119.04 -33.2H149.52L159.408 -23.312V-11.216H145.824V-16.688L142.896 -19.616H125.664L122.688 -16.688V-9.344L125.664 -6.416H150.432L160.32 3.472V24.112L150.432 34H118.752ZM119.28 32.704H149.904L159.024 23.584V4L149.904 -5.216H125.088L121.44 -8.768V-17.216L125.088 -20.912H143.424L147.12 -17.216V-12.512H158.112V-22.784L148.992 -31.904H119.568L110.448 -22.784V-3.248L119.568 5.92H144.336L148.032 9.376V18.016L144.336 21.712H124.848L121.152 18.016V13.312H110.16V23.584L119.28 32.704Z" fill="white"/>
</g>
<defs>
<clipPath id="clip0_3264_42">
<rect width="177" height="57" fill="white"/>
</clipPath>
</defs>
</svg>
