<svg width="200" height="118" viewBox="0 0 200 118" fill="none" xmlns="http://www.w3.org/2000/svg">
<path d="M0 76V0.479996H11.52V76H0ZM15.36 76V0.479996H19.2V76H15.36ZM23.04 76V0.479996H34.56V76H23.04ZM46.08 76V0.479996H49.92V76H46.08ZM53.76 76V0.479996H57.6V76H53.76ZM21.632 87.136H39.808V90.08H24.704V99.808H37.248V102.88H24.704V113.888H39.68V116.832H21.632V87.136ZM71.1 76V0.479996H82.62V76H71.1ZM86.46 76V0.479996H90.3V76H86.46ZM94.14 76V0.479996H105.66V76H94.14ZM117.18 76V0.479996H121.02V76H117.18ZM124.86 76V0.479996H128.7V76H124.86ZM92.732 87.136H110.908V90.08H95.804V99.808H108.348V102.88H95.804V113.888H110.78V116.832H92.732V87.136ZM142.2 76V0.479996H146.04V76H142.2ZM149.88 76V0.479996H161.4V76H149.88ZM165.24 76V0.479996H169.08V76H165.24ZM172.92 76V0.479996H184.44V76H172.92ZM195.96 76V0.479996H199.8V76H195.96ZM172.792 117.344C168.952 117.344 165.837 116.064 163.448 113.504L165.24 110.56L165.368 110.176L165.752 110.304C165.752 110.389 165.795 110.56 165.88 110.816C165.88 110.987 165.965 111.2 166.136 111.456C166.221 111.627 166.392 111.797 166.648 111.968C168.44 113.504 170.659 114.272 173.304 114.272C175.011 114.272 176.461 113.803 177.656 112.864C178.851 111.84 179.448 110.645 179.448 109.28C179.448 108.341 179.235 107.531 178.808 106.848C178.467 106.251 177.827 105.653 176.888 105.056C175.949 104.459 174.499 103.733 172.536 102.88C169.635 101.771 167.544 100.491 166.264 99.04C165.069 97.5893 164.472 95.968 164.472 94.176C164.472 91.9573 165.283 90.1653 166.904 88.8C168.525 87.4347 170.701 86.752 173.432 86.752C175.053 86.752 176.589 87.0933 178.04 87.776C179.405 88.4587 180.643 89.3547 181.752 90.464L179.576 93.408L179.32 93.152C179.32 93.0667 179.277 92.9387 179.192 92.768C179.192 92.512 179.107 92.2987 178.936 92.128C178.851 91.872 178.68 91.6587 178.424 91.488C177.741 90.8053 176.931 90.2933 175.992 89.952C175.139 89.696 174.115 89.568 172.92 89.568C171.384 89.568 170.189 89.9947 169.336 90.848C168.397 91.7013 167.928 92.7253 167.928 93.92C167.928 94.8587 168.099 95.6693 168.44 96.352C168.867 97.0347 169.592 97.6747 170.616 98.272C171.64 98.9547 173.176 99.68 175.224 100.448C178.04 101.643 180.003 102.837 181.112 104.032C182.136 105.312 182.648 106.891 182.648 108.768C182.648 110.219 182.307 111.584 181.624 112.864C180.856 114.144 179.747 115.211 178.296 116.064C176.76 116.917 174.925 117.344 172.792 117.344Z" fill="url(#paint0_linear_957_188)"/>
<defs>
<linearGradient id="paint0_linear_957_188" x1="103" y1="-26" x2="103" y2="144.5" gradientUnits="userSpaceOnUse">
<stop stop-color="#080101"/>
<stop offset="0.380208" stop-color="#080101" stop-opacity="0.6"/>
<stop offset="0.578125" stop-color="#080101"/>
<stop offset="0.729167" stop-color="#080101" stop-opacity="0.641975"/>
<stop offset="1" stop-color="#080101" stop-opacity="0"/>
</linearGradient>
</defs>
</svg>
