<!-- <svg width="38" height="271" viewBox="0 0 38 271" fill="none" xmlns="http://www.w3.org/2000/svg"> -->
<svg width="auto" height="auto" viewBox="0 0 38 271" fill="none" xmlns="http://www.w3.org/2000/svg">
<g filter="url(#filter0_d_3911_52)">
<mask id="path-1-outside-1_3911_52" maskUnits="userSpaceOnUse" x="6" y="10" width="27" height="250" fill="black">
<rect fill="white" x="6" y="10" width="27" height="250"/>
<path d="M22.8618 28.8906C23.978 28.8906 24.9229 28.8599 25.6963 28.7983C26.4697 28.7368 27.1069 28.6138 27.6079 28.4292C28.1089 28.2358 28.4956 27.959 28.7681 27.5986C29.0405 27.2383 29.2383 26.7637 29.3613 26.1748C29.4932 25.5771 29.5679 24.8477 29.5854 23.9863C29.6118 23.1162 29.625 22.0791 29.625 20.875C29.625 19.6709 29.6118 18.6382 29.5854 17.7769C29.5679 16.9067 29.4932 16.1772 29.3613 15.5884C29.2383 14.9907 29.0405 14.5117 28.7681 14.1514C28.4956 13.791 28.1089 13.5186 27.6079 13.334C27.1069 13.1406 26.4697 13.0132 25.6963 12.9517C24.9316 12.8901 23.9868 12.8594 22.8618 12.8594H10.2188V28.8906H22.8618ZM7.6875 31V10.75H22.8618C24.4087 10.75 25.7095 10.8423 26.7642 11.0269C27.8276 11.2026 28.7021 11.4751 29.3877 11.8442C30.082 12.2134 30.6138 12.6748 30.9829 13.2285C31.3608 13.7822 31.6333 14.437 31.8003 15.1929C31.9761 15.9399 32.0771 16.7881 32.1035 17.7373C32.1387 18.6777 32.1562 19.7236 32.1562 20.875C32.1562 22.0264 32.1387 23.0767 32.1035 24.0259C32.0771 24.9663 31.9761 25.8145 31.8003 26.5703C31.6333 27.3174 31.3608 27.9678 30.9829 28.5215C30.6138 29.0752 30.082 29.5366 29.3877 29.9058C28.7021 30.2749 27.8276 30.5518 26.7642 30.7363C25.7095 30.9121 24.4087 31 22.8618 31H7.6875ZM10.2188 69V48.75H30.4688V50.8594H12.75V57.6094H29.625V59.7188H12.75V66.8906H30.4688V69H10.2188ZM29.2031 86.75H32.1562L21.1875 107H17.8125L6.84375 86.75H9.79688L19.5 105.312L29.2031 86.75ZM8.10938 145V124.75H24.9976C26.2632 124.75 27.2827 124.855 28.0562 125.066C28.8296 125.269 29.4229 125.572 29.8359 125.976C30.2578 126.372 30.5391 126.868 30.6797 127.466C30.8203 128.063 30.8906 128.749 30.8906 129.522C30.8906 130.085 30.8423 130.582 30.7456 131.012C30.6489 131.443 30.5215 131.816 30.3633 132.133C30.2051 132.449 30.0249 132.717 29.8228 132.937C29.6206 133.148 29.4141 133.324 29.2031 133.464C28.7109 133.798 28.1484 133.987 27.5156 134.031C28.3066 134.075 29.0098 134.269 29.625 134.611C29.8887 134.761 30.1436 134.95 30.3896 135.178C30.6445 135.398 30.8687 135.675 31.062 136.009C31.2642 136.334 31.4268 136.721 31.5498 137.169C31.6729 137.608 31.7344 138.118 31.7344 138.698C31.7344 139.401 31.6992 140.047 31.6289 140.636C31.5674 141.216 31.4355 141.739 31.2334 142.205C31.0312 142.671 30.7412 143.08 30.3633 143.431C29.9854 143.783 29.48 144.077 28.8472 144.314C28.2231 144.543 27.4541 144.714 26.54 144.829C25.6348 144.943 24.5493 145 23.2837 145H8.10938ZM22.4399 142.891C23.4243 142.891 24.2769 142.877 24.9976 142.851C25.7183 142.816 26.3291 142.75 26.8301 142.653C27.3311 142.548 27.7354 142.403 28.043 142.218C28.3506 142.025 28.5879 141.774 28.7549 141.467C28.9307 141.15 29.0493 140.768 29.1108 140.32C29.1724 139.872 29.2031 139.331 29.2031 138.698C29.2031 138.206 29.1724 137.78 29.1108 137.419C29.0493 137.05 28.9307 136.743 28.7549 136.497C28.5879 136.242 28.3506 136.04 28.043 135.89C27.7354 135.732 27.3311 135.609 26.8301 135.521C26.3291 135.433 25.7183 135.376 24.9976 135.35C24.2769 135.314 23.4243 135.297 22.4399 135.297H10.6406V142.891H22.4399ZM22.4399 133.188C23.3013 133.188 24.0439 133.17 24.668 133.135C25.292 133.1 25.8237 133.034 26.2632 132.937C26.7026 132.84 27.0586 132.708 27.3311 132.542C27.6035 132.366 27.8145 132.142 27.9639 131.869C28.1221 131.597 28.2275 131.271 28.2803 130.894C28.333 130.507 28.3594 130.05 28.3594 129.522C28.3594 128.96 28.2979 128.503 28.1748 128.151C28.0518 127.8 27.832 127.532 27.5156 127.347C27.1992 127.154 26.7686 127.026 26.2236 126.965C25.6875 126.895 24.9976 126.859 24.1538 126.859H10.6406V133.188H22.4399ZM18.2344 162.75H20.7656V183H18.2344V162.75ZM30.8906 200.75V202.859H20.7656V221H18.2344V202.859H8.10938V200.75H30.8906ZM21.7148 247.609C23.1035 247.609 24.2944 247.667 25.2876 247.781C26.2808 247.895 27.1157 248.066 27.7925 248.295C28.478 248.515 29.0229 248.792 29.4272 249.125C29.8315 249.459 30.1436 249.842 30.3633 250.272C30.583 250.694 30.7236 251.169 30.7852 251.696C30.8555 252.224 30.8906 252.795 30.8906 253.41C30.8906 254.025 30.8335 254.605 30.7192 255.15C30.6138 255.687 30.4204 256.179 30.1392 256.627C29.8579 257.075 29.4756 257.475 28.9922 257.827C28.5088 258.178 27.8936 258.477 27.1465 258.723C26.3994 258.969 25.4985 259.154 24.4438 259.277C23.3979 259.409 22.1719 259.475 20.7656 259.475H17.3906C16.125 259.475 15.0176 259.426 14.0684 259.33C13.1191 259.233 12.3018 259.088 11.6162 258.895C10.9307 258.692 10.3638 258.442 9.91553 258.143C9.46729 257.835 9.10693 257.479 8.83447 257.075C8.5708 256.662 8.38623 256.196 8.28076 255.678C8.17529 255.15 8.12256 254.57 8.12256 253.938H10.6538C10.6538 254.729 10.7681 255.348 10.9966 255.796C11.2251 256.245 11.603 256.583 12.1304 256.812C12.6577 257.031 13.3477 257.172 14.2002 257.233C15.0615 257.286 16.125 257.312 17.3906 257.312H20.7656C22.2422 257.312 23.4683 257.242 24.4438 257.102C25.4194 256.961 26.1973 256.737 26.7773 256.429C27.3574 256.122 27.7661 255.722 28.0034 255.229C28.2407 254.729 28.3594 254.122 28.3594 253.41C28.3594 252.698 28.2759 252.105 28.1089 251.63C27.9507 251.156 27.6299 250.778 27.1465 250.497C26.6719 250.215 25.9995 250.018 25.1294 249.903C24.2593 249.78 23.1211 249.719 21.7148 249.719H18.2344C16.6875 249.719 15.3604 249.662 14.2529 249.547C13.1543 249.433 12.2314 249.271 11.4844 249.06C10.7373 248.84 10.1396 248.572 9.69141 248.255C9.24316 247.93 8.90039 247.561 8.66309 247.148C8.43457 246.735 8.28516 246.278 8.21484 245.777C8.14453 245.267 8.10938 244.718 8.10938 244.129C8.10938 243.514 8.16211 242.942 8.26758 242.415C8.38184 241.888 8.58838 241.413 8.88721 240.991C9.18604 240.561 9.59473 240.178 10.1133 239.844C10.6318 239.51 11.2954 239.233 12.104 239.014C12.9214 238.785 13.9014 238.614 15.0439 238.5C16.1865 238.385 17.5312 238.328 19.0781 238.328H21.6094C22.875 238.328 23.9824 238.376 24.9316 238.473C25.8809 238.561 26.6982 238.706 27.3838 238.908C28.0693 239.102 28.6362 239.348 29.0845 239.646C29.5415 239.937 29.9019 240.288 30.1655 240.701C30.438 241.105 30.627 241.567 30.7324 242.085C30.8379 242.604 30.8906 243.18 30.8906 243.812H28.3594C28.3594 243.021 28.2451 242.402 28.0166 241.954C27.7881 241.505 27.4102 241.171 26.8828 240.952C26.3555 240.723 25.6611 240.583 24.7998 240.53C23.9385 240.468 22.875 240.438 21.6094 240.438H19.0781C17.3906 240.438 16.002 240.499 14.9121 240.622C13.8223 240.736 12.9609 240.934 12.3281 241.215C11.6953 241.497 11.2559 241.875 11.0098 242.349C10.7637 242.824 10.6406 243.417 10.6406 244.129C10.6406 244.568 10.6714 244.959 10.7329 245.302C10.7944 245.645 10.9175 245.948 11.1021 246.212C11.2954 246.467 11.5635 246.682 11.9062 246.858C12.249 247.034 12.7017 247.179 13.2642 247.293C13.8267 247.407 14.5122 247.491 15.3208 247.543C16.1382 247.587 17.1094 247.609 18.2344 247.609H21.7148Z"/>
</mask>
<path d="M27.6079 28.4292L27.7808 28.8984L27.7879 28.8957L27.6079 28.4292ZM29.3613 26.1748L28.873 26.0671L28.8719 26.0725L29.3613 26.1748ZM29.5854 23.9863L29.0857 23.9712L29.0856 23.9761L29.5854 23.9863ZM29.5854 17.7769L29.0855 17.787L29.0857 17.7922L29.5854 17.7769ZM29.3613 15.5884L28.8715 15.6892L28.8734 15.6976L29.3613 15.5884ZM27.6079 13.334L27.4279 13.8005L27.4351 13.8032L27.6079 13.334ZM25.6963 12.9517L25.6562 13.45L25.6566 13.4501L25.6963 12.9517ZM10.2188 12.8594V12.3594H9.71875V12.8594H10.2188ZM10.2188 28.8906H9.71875V29.3906H10.2188V28.8906ZM7.6875 31H7.1875V31.5H7.6875V31ZM7.6875 10.75V10.25H7.1875V10.75H7.6875ZM26.7642 11.0269L26.678 11.5194L26.6826 11.5202L26.7642 11.0269ZM29.3877 11.8442L29.1506 12.2845L29.153 12.2857L29.3877 11.8442ZM30.9829 13.2285L30.5669 13.5059L30.5699 13.5104L30.9829 13.2285ZM31.8003 15.1929L31.312 15.3007L31.3136 15.3074L31.8003 15.1929ZM32.1035 17.7373L31.6037 17.7512L31.6039 17.756L32.1035 17.7373ZM32.1035 24.0259L31.6038 24.0074L31.6037 24.0119L32.1035 24.0259ZM31.8003 26.5703L31.3133 26.4571L31.3123 26.4612L31.8003 26.5703ZM30.9829 28.5215L30.5699 28.2396L30.5669 28.2441L30.9829 28.5215ZM29.3877 29.9058L29.153 29.4643L29.1506 29.4655L29.3877 29.9058ZM26.7642 30.7363L26.8464 31.2295L26.8497 31.229L26.7642 30.7363ZM22.8618 29.3906C23.9861 29.3906 24.945 29.3597 25.7359 29.2968L25.6566 28.2999C24.9007 28.36 23.97 28.3906 22.8618 28.3906V29.3906ZM25.7359 29.2968C26.5363 29.2331 27.2224 29.1041 27.7808 28.8984L27.4351 27.96C26.9915 28.1234 26.4032 28.2405 25.6566 28.2999L25.7359 29.2968ZM27.7879 28.8957C28.3592 28.6752 28.8285 28.3478 29.1669 27.9002L28.3692 27.2971C28.1628 27.5702 27.8585 27.7965 27.4279 27.9627L27.7879 28.8957ZM29.1669 27.9002C29.4961 27.4648 29.7174 26.9154 29.8508 26.2771L28.8719 26.0725C28.7592 26.6119 28.5849 27.0118 28.3692 27.2971L29.1669 27.9002ZM29.8496 26.2825C29.9907 25.6428 30.0673 24.8785 30.0853 23.9965L29.0856 23.9761C29.0684 24.8168 28.9956 25.5115 28.8731 26.0671L29.8496 26.2825ZM30.0852 24.0015C30.1118 23.1248 30.125 22.0824 30.125 20.875H29.125C29.125 22.0758 29.1118 23.1076 29.0857 23.9712L30.0852 24.0015ZM30.125 20.875C30.125 19.6676 30.1118 18.6295 30.0852 17.7616L29.0857 17.7922C29.1118 18.6468 29.125 19.6742 29.125 20.875H30.125ZM30.0853 17.7668C30.0674 16.8765 29.9908 16.1114 29.8492 15.4791L28.8734 15.6976C28.9955 16.2431 29.0684 16.9369 29.0856 17.787L30.0853 17.7668ZM29.8511 15.4876C29.718 14.8413 29.4971 14.2865 29.1669 13.8498L28.3692 14.4529C28.584 14.737 28.7586 15.1402 28.8716 15.6892L29.8511 15.4876ZM29.1669 13.8498C28.8269 13.4001 28.355 13.0764 27.7808 12.8648L27.4351 13.8032C27.8628 13.9607 28.1643 14.1819 28.3692 14.4529L29.1669 13.8498ZM27.7879 12.8675C27.2268 12.651 26.5381 12.517 25.7359 12.4532L25.6566 13.4501C26.4014 13.5093 26.987 13.6303 27.4279 13.8004L27.7879 12.8675ZM25.7364 12.4533C24.9538 12.3903 23.9947 12.3594 22.8618 12.3594V13.3594C23.979 13.3594 24.9095 13.39 25.6562 13.45L25.7364 12.4533ZM22.8618 12.3594H10.2188V13.3594H22.8618V12.3594ZM9.71875 12.8594V28.8906H10.7188V12.8594H9.71875ZM10.2188 29.3906H22.8618V28.3906H10.2188V29.3906ZM8.1875 31V10.75H7.1875V31H8.1875ZM7.6875 11.25H22.8618V10.25H7.6875V11.25ZM22.8618 11.25C24.3913 11.25 25.6612 11.3414 26.678 11.5194L26.8503 10.5343C25.7577 10.3431 24.4261 10.25 22.8618 10.25V11.25ZM26.6826 11.5202C27.711 11.6901 28.5283 11.9494 29.1506 12.2845L29.6247 11.404C28.876 11.0008 27.9442 10.7151 26.8457 10.5335L26.6826 11.5202ZM29.153 12.2857C29.7875 12.6231 30.2513 13.0325 30.5669 13.5059L31.3989 12.9512C30.9762 12.3171 30.3766 11.8037 29.6224 11.4028L29.153 12.2857ZM30.5699 13.5104C30.9068 14.0039 31.1567 14.5976 31.3121 15.3007L32.2885 15.085C32.1099 14.2764 31.8149 13.5605 31.3959 12.9466L30.5699 13.5104ZM31.3136 15.3074C31.48 16.0148 31.5781 16.8282 31.6037 17.7512L32.6033 17.7234C32.5762 16.7479 32.4721 15.8651 32.287 15.0784L31.3136 15.3074ZM31.6039 17.756C31.6387 18.689 31.6562 19.7285 31.6562 20.875H32.6562C32.6562 19.7187 32.6386 18.6665 32.6032 17.7186L31.6039 17.756ZM31.6562 20.875C31.6562 22.0214 31.6387 23.0654 31.6039 24.0074L32.6032 24.0444C32.6386 23.0879 32.6562 22.0313 32.6562 20.875H31.6562ZM31.6037 24.0119C31.5781 24.9256 31.4801 25.7398 31.3133 26.4571L32.2873 26.6836C32.472 25.8891 32.5762 25.007 32.6033 24.0399L31.6037 24.0119ZM31.3123 26.4612C31.1572 27.1552 30.9074 27.7451 30.5699 28.2396L31.3959 28.8034C31.8142 28.1904 32.1094 27.4796 32.2883 26.6794L31.3123 26.4612ZM30.5669 28.2441C30.2513 28.7175 29.7875 29.1269 29.153 29.4643L29.6224 30.3472C30.3766 29.9463 30.9762 29.4329 31.3989 28.7988L30.5669 28.2441ZM29.1506 29.4655C28.5268 29.8014 27.708 30.065 26.6787 30.2437L26.8497 31.229C27.9472 31.0385 28.8775 30.7484 29.6247 30.346L29.1506 29.4655ZM26.682 30.2431C25.6635 30.4129 24.3922 30.5 22.8618 30.5V31.5C24.4252 31.5 25.7554 31.4113 26.8464 31.2295L26.682 30.2431ZM22.8618 30.5H7.6875V31.5H22.8618V30.5ZM10.2188 69H9.71875V69.5H10.2188V69ZM10.2188 48.75V48.25H9.71875V48.75H10.2188ZM30.4688 48.75H30.9688V48.25H30.4688V48.75ZM30.4688 50.8594V51.3594H30.9688V50.8594H30.4688ZM12.75 50.8594V50.3594H12.25V50.8594H12.75ZM12.75 57.6094H12.25V58.1094H12.75V57.6094ZM29.625 57.6094H30.125V57.1094H29.625V57.6094ZM29.625 59.7188V60.2188H30.125V59.7188H29.625ZM12.75 59.7188V59.2188H12.25V59.7188H12.75ZM12.75 66.8906H12.25V67.3906H12.75V66.8906ZM30.4688 66.8906H30.9688V66.3906H30.4688V66.8906ZM30.4688 69V69.5H30.9688V69H30.4688ZM10.7188 69V48.75H9.71875V69H10.7188ZM10.2188 49.25H30.4688V48.25H10.2188V49.25ZM29.9688 48.75V50.8594H30.9688V48.75H29.9688ZM30.4688 50.3594H12.75V51.3594H30.4688V50.3594ZM12.25 50.8594V57.6094H13.25V50.8594H12.25ZM12.75 58.1094H29.625V57.1094H12.75V58.1094ZM29.125 57.6094V59.7188H30.125V57.6094H29.125ZM29.625 59.2188H12.75V60.2188H29.625V59.2188ZM12.25 59.7188V66.8906H13.25V59.7188H12.25ZM12.75 67.3906H30.4688V66.3906H12.75V67.3906ZM29.9688 66.8906V69H30.9688V66.8906H29.9688ZM30.4688 68.5H10.2188V69.5H30.4688V68.5ZM29.2031 86.75V86.25H28.9003L28.76 86.5184L29.2031 86.75ZM32.1562 86.75L32.5959 86.9881L32.9957 86.25H32.1562V86.75ZM21.1875 107V107.5H21.4853L21.6271 107.238L21.1875 107ZM17.8125 107L17.3729 107.238L17.5147 107.5H17.8125V107ZM6.84375 86.75V86.25H6.00428L6.4041 86.9881L6.84375 86.75ZM9.79688 86.75L10.24 86.5184L10.0997 86.25H9.79688V86.75ZM19.5 105.312L19.0569 105.544L19.5 106.392L19.9431 105.544L19.5 105.312ZM29.2031 87.25H32.1562V86.25H29.2031V87.25ZM31.7166 86.5119L20.7479 106.762L21.6271 107.238L32.5959 86.9881L31.7166 86.5119ZM21.1875 106.5H17.8125V107.5H21.1875V106.5ZM18.2521 106.762L7.2834 86.5119L6.4041 86.9881L17.3729 107.238L18.2521 106.762ZM6.84375 87.25H9.79688V86.25H6.84375V87.25ZM9.35376 86.9816L19.0569 105.544L19.9431 105.081L10.24 86.5184L9.35376 86.9816ZM19.9431 105.544L29.6462 86.9816L28.76 86.5184L19.0569 105.081L19.9431 105.544ZM8.10938 145H7.60938V145.5H8.10938V145ZM8.10938 124.75V124.25H7.60938V124.75H8.10938ZM28.0562 125.066L27.9246 125.549L27.9297 125.55L28.0562 125.066ZM29.8359 125.976L29.4861 126.333L29.494 126.341L29.8359 125.976ZM29.8228 132.937L30.1838 133.283L30.1907 133.276L29.8228 132.937ZM29.2031 133.464L28.9258 133.048L28.9224 133.051L29.2031 133.464ZM27.5156 134.031L27.481 133.532L27.4879 134.53L27.5156 134.031ZM29.625 134.611L29.8715 134.176L29.8684 134.175L29.625 134.611ZM30.3896 135.178L30.0494 135.545L30.0562 135.551L30.0632 135.557L30.3896 135.178ZM31.062 136.009L30.6293 136.259L30.6332 136.266L30.6374 136.273L31.062 136.009ZM31.5498 137.169L31.0676 137.301L31.0683 137.304L31.5498 137.169ZM31.6289 140.636L31.1324 140.577L31.1317 140.583L31.6289 140.636ZM28.8472 144.314L29.0191 144.784L29.0227 144.783L28.8472 144.314ZM26.54 144.829L26.478 144.332L26.4774 144.333L26.54 144.829ZM24.9976 142.851L25.0158 143.351L25.0219 143.35L24.9976 142.851ZM26.8301 142.653L26.9248 143.144L26.9331 143.143L26.8301 142.653ZM28.043 142.218L28.3003 142.647L28.3091 142.642L28.043 142.218ZM28.7549 141.467L28.3178 141.224L28.3155 141.228L28.7549 141.467ZM29.1108 137.419L28.6176 137.502L28.618 137.504L29.1108 137.419ZM28.7549 136.497L28.3367 136.771L28.3422 136.779L28.348 136.787L28.7549 136.497ZM28.043 135.89L27.8142 136.335L27.8245 136.34L28.043 135.89ZM24.9976 135.35L24.9732 135.849L24.9793 135.849L24.9976 135.35ZM10.6406 135.297V134.797H10.1406V135.297H10.6406ZM10.6406 142.891H10.1406V143.391H10.6406V142.891ZM27.3311 132.542L27.5924 132.968L27.6021 132.962L27.3311 132.542ZM27.9639 131.869L27.5313 131.618L27.5255 131.629L27.9639 131.869ZM28.2803 130.894L28.7755 130.963L28.7757 130.961L28.2803 130.894ZM27.5156 127.347L27.2548 127.774L27.2637 127.779L27.5156 127.347ZM26.2236 126.965L26.1586 127.461L26.1675 127.462L26.2236 126.965ZM10.6406 126.859V126.359H10.1406V126.859H10.6406ZM10.6406 133.188H10.1406V133.688H10.6406V133.188ZM8.60938 145V124.75H7.60938V145H8.60938ZM8.10938 125.25H24.9976V124.25H8.10938V125.25ZM24.9976 125.25C26.2412 125.25 27.2113 125.354 27.9246 125.549L28.1877 124.584C27.3541 124.357 26.2852 124.25 24.9976 124.25V125.25ZM27.9297 125.55C28.6497 125.738 29.1546 126.009 29.4862 126.333L30.1857 125.619C29.6911 125.135 29.0094 124.799 28.1826 124.583L27.9297 125.55ZM29.494 126.341C29.8395 126.665 30.0734 127.072 30.193 127.58L31.1664 127.351C31.0047 126.664 30.6761 126.078 30.1779 125.611L29.494 126.341ZM30.193 127.58C30.3228 128.132 30.3906 128.778 30.3906 129.522H31.3906C31.3906 128.72 31.3178 127.995 31.1664 127.351L30.193 127.58ZM30.3906 129.522C30.3906 130.058 30.3445 130.516 30.2577 130.903L31.2335 131.122C31.3401 130.647 31.3906 130.112 31.3906 129.522H30.3906ZM30.2577 130.903C30.1679 131.303 30.0523 131.637 29.9161 131.909L30.8105 132.356C30.9906 131.996 31.13 131.583 31.2335 131.122L30.2577 130.903ZM29.9161 131.909C29.775 132.191 29.6201 132.419 29.4548 132.598L30.1907 133.276C30.4297 133.016 30.6351 132.707 30.8105 132.356L29.9161 131.909ZM29.4618 132.591C29.2811 132.78 29.1022 132.931 28.9258 133.048L29.4805 133.88C29.726 133.717 29.9601 133.516 30.1837 133.283L29.4618 132.591ZM28.9224 133.051C28.5081 133.332 28.0318 133.494 27.481 133.532L27.5503 134.53C28.2651 134.48 28.9137 134.265 29.4839 133.878L28.9224 133.051ZM27.4879 134.53C28.2127 134.571 28.8405 134.747 29.3816 135.048L29.8684 134.175C29.1791 133.791 28.4005 133.58 27.5434 133.532L27.4879 134.53ZM29.3785 135.046C29.605 135.175 29.8288 135.34 30.0494 135.545L30.7299 134.812C30.4583 134.56 30.1724 134.347 29.8715 134.176L29.3785 135.046ZM30.0632 135.557C30.27 135.735 30.4599 135.967 30.6293 136.259L31.4947 135.758C31.2774 135.383 31.019 135.061 30.7161 134.8L30.0632 135.557ZM30.6374 136.273C30.8094 136.549 30.9547 136.89 31.0676 137.301L32.032 137.037C31.8988 136.551 31.719 136.119 31.4867 135.745L30.6374 136.273ZM31.0683 137.304C31.1763 137.689 31.2344 138.152 31.2344 138.698H32.2344C32.2344 138.084 32.1694 137.527 32.0313 137.034L31.0683 137.304ZM31.2344 138.698C31.2344 139.385 31.2 140.011 31.1324 140.577L32.1254 140.696C32.1984 140.084 32.2344 139.418 32.2344 138.698H31.2344ZM31.1317 140.583C31.0747 141.12 30.9539 141.593 30.7747 142.006L31.6921 142.404C31.9172 141.885 32.06 141.312 32.1261 140.689L31.1317 140.583ZM30.7747 142.006C30.6005 142.408 30.351 142.76 30.0227 143.065L30.7038 143.797C31.1314 143.4 31.462 142.934 31.6921 142.404L30.7747 142.006ZM30.0227 143.065C29.7049 143.361 29.2613 143.625 28.6716 143.846L29.0227 144.783C29.6987 144.529 30.2658 144.205 30.7038 143.797L30.0227 143.065ZM28.6752 143.845C28.0974 144.057 27.3678 144.221 26.478 144.332L26.6021 145.325C27.5404 145.207 28.3489 145.029 29.0191 144.784L28.6752 143.845ZM26.4774 144.333C25.5991 144.443 24.5357 144.5 23.2837 144.5V145.5C24.5629 145.5 25.6704 145.442 26.6026 145.325L26.4774 144.333ZM23.2837 144.5H8.10938V145.5H23.2837V144.5ZM22.4399 143.391C23.4284 143.391 24.2873 143.377 25.0158 143.351L24.9793 142.351C24.2664 142.377 23.4202 142.391 22.4399 142.391V143.391ZM25.0219 143.35C25.7574 143.315 26.3933 143.247 26.9248 143.144L26.7353 142.162C26.2649 142.253 25.6791 142.317 24.9732 142.352L25.0219 143.35ZM26.9331 143.143C27.4672 143.03 27.9293 142.87 28.3002 142.647L27.7857 141.79C27.5414 141.936 27.1949 142.066 26.7271 142.164L26.9331 143.143ZM28.3091 142.642C28.6865 142.404 28.9848 142.091 29.1943 141.705L28.3155 141.228C28.191 141.457 28.0147 141.645 27.7769 141.795L28.3091 142.642ZM29.192 141.71C29.4043 141.327 29.5383 140.883 29.6062 140.388L28.6155 140.252C28.5604 140.653 28.457 140.973 28.3178 141.224L29.192 141.71ZM29.6062 140.388C29.6718 139.91 29.7031 139.346 29.7031 138.698H28.7031C28.7031 139.317 28.673 139.833 28.6155 140.252L29.6062 140.388ZM29.7031 138.698C29.7031 138.187 29.6713 137.731 29.6037 137.335L28.618 137.504C28.6734 137.828 28.7031 138.225 28.7031 138.698H29.7031ZM29.604 137.337C29.5329 136.91 29.3911 136.527 29.1617 136.206L28.348 136.787C28.4703 136.958 28.5657 137.19 28.6176 137.502L29.604 137.337ZM29.1731 136.223C28.9508 135.883 28.6401 135.624 28.2614 135.44L27.8245 136.34C28.0611 136.455 28.225 136.6 28.3367 136.771L29.1731 136.223ZM28.2716 135.445C27.9036 135.256 27.446 135.121 26.9165 135.029L26.7437 136.013C27.2161 136.096 27.5671 136.208 27.8143 136.335L28.2716 135.445ZM26.9165 135.029C26.3859 134.935 25.7508 134.877 25.0158 134.85L24.9793 135.849C25.6857 135.875 26.2724 135.931 26.7437 136.013L26.9165 135.029ZM25.0219 134.85C24.2908 134.815 23.4297 134.797 22.4399 134.797V135.797C23.4189 135.797 24.2629 135.814 24.9732 135.849L25.0219 134.85ZM22.4399 134.797H10.6406V135.797H22.4399V134.797ZM10.1406 135.297V142.891H11.1406V135.297H10.1406ZM10.6406 143.391H22.4399V142.391H10.6406V143.391ZM22.4399 133.688C23.3074 133.688 24.06 133.67 24.6961 133.634L24.6398 132.636C24.0279 132.67 23.2951 132.688 22.4399 132.688V133.688ZM24.6961 133.634C25.3374 133.598 25.8972 133.529 26.3706 133.425L26.1558 132.449C25.7502 132.538 25.2466 132.601 24.6398 132.636L24.6961 133.634ZM26.3706 133.425C26.844 133.321 27.2574 133.173 27.5923 132.968L27.0698 132.115C26.8598 132.244 26.5612 132.359 26.1558 132.449L26.3706 133.425ZM27.6021 132.962C27.9413 132.743 28.2111 132.458 28.4023 132.11L27.5255 131.629C27.4178 131.825 27.2657 131.989 27.06 132.121L27.6021 132.962ZM28.3963 132.12C28.5931 131.781 28.7156 131.392 28.7755 130.963L27.7851 130.824C27.7394 131.151 27.6511 131.412 27.5315 131.618L28.3963 132.12ZM28.7757 130.961C28.8323 130.546 28.8594 130.065 28.8594 129.522H27.8594C27.8594 130.034 27.8337 130.468 27.7849 130.826L28.7757 130.961ZM28.8594 129.522C28.8594 128.929 28.7953 128.411 28.6467 127.986L27.7029 128.317C27.8004 128.595 27.8594 128.99 27.8594 129.522H28.8594ZM28.6467 127.986C28.4851 127.524 28.1886 127.161 27.7676 126.915L27.2637 127.779C27.4755 127.903 27.6184 128.075 27.7029 128.317L28.6467 127.986ZM27.7764 126.921C27.3752 126.675 26.8653 126.534 26.2797 126.468L26.1675 127.462C26.6718 127.519 27.0233 127.632 27.2549 127.774L27.7764 126.921ZM26.2887 126.469C25.7225 126.395 25.0087 126.359 24.1538 126.359V127.359C24.9864 127.359 25.6525 127.394 26.1586 127.461L26.2887 126.469ZM24.1538 126.359H10.6406V127.359H24.1538V126.359ZM10.1406 126.859V133.188H11.1406V126.859H10.1406ZM10.6406 133.688H22.4399V132.688H10.6406V133.688ZM18.2344 162.75V162.25H17.7344V162.75H18.2344ZM20.7656 162.75H21.2656V162.25H20.7656V162.75ZM20.7656 183V183.5H21.2656V183H20.7656ZM18.2344 183H17.7344V183.5H18.2344V183ZM18.2344 163.25H20.7656V162.25H18.2344V163.25ZM20.2656 162.75V183H21.2656V162.75H20.2656ZM20.7656 182.5H18.2344V183.5H20.7656V182.5ZM18.7344 183V162.75H17.7344V183H18.7344ZM30.8906 200.75H31.3906V200.25H30.8906V200.75ZM30.8906 202.859V203.359H31.3906V202.859H30.8906ZM20.7656 202.859V202.359H20.2656V202.859H20.7656ZM20.7656 221V221.5H21.2656V221H20.7656ZM18.2344 221H17.7344V221.5H18.2344V221ZM18.2344 202.859H18.7344V202.359H18.2344V202.859ZM8.10938 202.859H7.60938V203.359H8.10938V202.859ZM8.10938 200.75V200.25H7.60938V200.75H8.10938ZM30.3906 200.75V202.859H31.3906V200.75H30.3906ZM30.8906 202.359H20.7656V203.359H30.8906V202.359ZM20.2656 202.859V221H21.2656V202.859H20.2656ZM20.7656 220.5H18.2344V221.5H20.7656V220.5ZM18.7344 221V202.859H17.7344V221H18.7344ZM18.2344 202.359H8.10938V203.359H18.2344V202.359ZM8.60938 202.859V200.75H7.60938V202.859H8.60938ZM8.10938 201.25H30.8906V200.25H8.10938V201.25ZM27.7925 248.295L27.6325 248.769L27.6399 248.771L27.7925 248.295ZM30.3633 250.272L29.9179 250.5L29.9198 250.503L30.3633 250.272ZM30.7852 251.696L30.2885 251.754L30.2895 251.762L30.7852 251.696ZM30.7192 255.15L30.2298 255.048L30.2286 255.054L30.7192 255.15ZM24.4438 259.277L24.3859 258.78L24.3813 258.781L24.4438 259.277ZM11.6162 258.895L11.4748 259.374L11.4805 259.376L11.6162 258.895ZM9.91553 258.143L9.63258 258.555L9.63818 258.559L9.91553 258.143ZM8.83447 257.075L8.41288 257.344L8.41984 257.355L8.83447 257.075ZM8.28076 255.678L7.79047 255.776L7.79079 255.777L8.28076 255.678ZM8.12256 253.938V253.438H7.62256V253.938H8.12256ZM10.6538 253.938H11.1538V253.438H10.6538V253.938ZM12.1304 256.812L11.9315 257.27L11.9381 257.273L12.1304 256.812ZM14.2002 257.233L14.1642 257.732L14.1696 257.732L14.2002 257.233ZM28.0034 255.229L28.4538 255.447L28.4553 255.444L28.0034 255.229ZM28.1089 251.63L27.6345 251.789L27.6372 251.796L28.1089 251.63ZM27.1465 250.497L26.8916 250.927L26.895 250.929L27.1465 250.497ZM25.1294 249.903L25.0594 250.398L25.0643 250.399L25.1294 249.903ZM14.2529 249.547L14.2012 250.045L14.2016 250.045L14.2529 249.547ZM11.4844 249.06L11.3433 249.539L11.3485 249.541L11.4844 249.06ZM9.69141 248.255L9.39777 248.66L9.40306 248.664L9.69141 248.255ZM8.66309 247.148L8.22551 247.39L8.22953 247.397L8.66309 247.148ZM8.21484 245.777L7.71953 245.845L7.7197 245.846L8.21484 245.777ZM8.26758 242.415L7.77885 242.309L7.77729 242.317L8.26758 242.415ZM8.88721 240.991L9.29524 241.28L9.298 241.276L8.88721 240.991ZM12.104 239.014L12.2351 239.496L12.2386 239.495L12.104 239.014ZM24.9316 238.473L24.881 238.971L24.8855 238.971L24.9316 238.473ZM27.3838 238.908L27.2424 239.388L27.2481 239.389L27.3838 238.908ZM29.0845 239.646L28.8071 240.063L28.8166 240.069L29.0845 239.646ZM30.1655 240.701L29.7439 240.97L29.7509 240.981L30.1655 240.701ZM30.8906 243.812V244.312H31.3906V243.812H30.8906ZM28.3594 243.812H27.8594V244.312H28.3594V243.812ZM26.8828 240.952L26.684 241.41L26.6905 241.413L26.8828 240.952ZM24.7998 240.53L24.7642 241.029L24.7692 241.029L24.7998 240.53ZM14.9121 240.622L14.9642 241.119L14.9682 241.119L14.9121 240.622ZM11.1021 246.212L10.6924 246.499L10.6979 246.506L10.7037 246.514L11.1021 246.212ZM15.3208 247.543L15.2883 248.042L15.294 248.043L15.3208 247.543ZM21.7148 248.109C23.0912 248.109 24.2619 248.166 25.2305 248.277L25.3447 247.284C24.3269 247.167 23.1159 247.109 21.7148 247.109V248.109ZM25.2305 248.277C26.2014 248.389 26.9994 248.555 27.6325 248.769L27.9524 247.821C27.232 247.578 26.3602 247.401 25.3447 247.284L25.2305 248.277ZM27.6399 248.771C28.286 248.978 28.7681 249.23 29.1088 249.511L29.7457 248.74C29.2778 248.354 28.6701 248.051 27.9451 247.819L27.6399 248.771ZM29.1088 249.511C29.4649 249.805 29.7318 250.135 29.9179 250.5L30.8087 250.045C30.5553 249.549 30.1982 249.114 29.7457 248.74L29.1088 249.511ZM29.9198 250.503C30.1084 250.865 30.2332 251.28 30.2885 251.754L31.2818 251.638C31.214 251.058 31.0576 250.523 30.8067 250.041L29.9198 250.503ZM30.2895 251.762C30.3565 252.265 30.3906 252.814 30.3906 253.41H31.3906C31.3906 252.776 31.3544 252.183 31.2808 251.63L30.2895 251.762ZM30.3906 253.41C30.3906 253.994 30.3364 254.54 30.2299 255.048L31.2086 255.253C31.3306 254.671 31.3906 254.056 31.3906 253.41H30.3906ZM30.2286 255.054C30.1346 255.532 29.9633 255.966 29.7156 256.361L30.5627 256.893C30.8775 256.391 31.0929 255.841 31.2098 255.247L30.2286 255.054ZM29.7156 256.361C29.4724 256.749 29.1366 257.103 28.6981 257.422L29.2863 258.231C29.8146 257.847 30.2434 257.402 30.5627 256.893L29.7156 256.361ZM28.6981 257.422C28.2675 257.735 27.7025 258.014 26.99 258.248L27.3029 259.198C28.0846 258.941 28.7501 258.621 29.2863 258.231L28.6981 257.422ZM26.99 258.248C26.2839 258.481 25.4179 258.66 24.3859 258.78L24.5018 259.773C25.5792 259.648 26.5149 259.458 27.3029 259.198L26.99 258.248ZM24.3813 258.781C23.3617 258.909 22.1574 258.975 20.7656 258.975V259.975C22.1863 259.975 23.4342 259.908 24.5064 259.773L24.3813 258.781ZM20.7656 258.975H17.3906V259.975H20.7656V258.975ZM17.3906 258.975C16.1368 258.975 15.047 258.927 14.119 258.832L14.0177 259.827C14.9881 259.926 16.1132 259.975 17.3906 259.975V258.975ZM14.119 258.832C13.1896 258.737 12.4021 258.597 11.7519 258.413L11.4805 259.376C12.2014 259.579 13.0487 259.728 14.0177 259.827L14.119 258.832ZM11.7576 258.415C11.1056 258.223 10.5881 257.991 10.1929 257.727L9.63818 258.559C10.1394 258.893 10.7557 259.162 11.4748 259.374L11.7576 258.415ZM10.1984 257.731C9.79612 257.455 9.48259 257.142 9.24911 256.796L8.41984 257.355C8.73128 257.817 9.13845 258.216 9.63261 258.555L10.1984 257.731ZM9.25593 256.806C9.02786 256.449 8.86494 256.041 8.77073 255.578L7.79079 255.777C7.90752 256.351 8.11375 256.875 8.41301 257.344L9.25593 256.806ZM8.77105 255.58C8.67305 255.09 8.62256 254.543 8.62256 253.938H7.62256C7.62256 254.598 7.67753 255.211 7.79047 255.776L8.77105 255.58ZM8.12256 254.438H10.6538V253.438H8.12256V254.438ZM10.1538 253.938C10.1538 254.767 10.272 255.476 10.5511 256.023L11.442 255.569C11.2641 255.22 11.1538 254.69 11.1538 253.938H10.1538ZM10.5511 256.023C10.8399 256.59 11.3136 257.003 11.9316 257.27L12.3292 256.353C11.8924 256.163 11.6103 255.899 11.442 255.569L10.5511 256.023ZM11.9381 257.273C12.5333 257.521 13.2819 257.668 14.1642 257.732L14.2362 256.735C13.4135 256.675 12.7821 256.541 12.3227 256.35L11.9381 257.273ZM14.1696 257.732C15.0446 257.786 16.119 257.812 17.3906 257.812V256.812C16.131 256.812 15.0784 256.786 14.2308 256.734L14.1696 257.732ZM17.3906 257.812H20.7656V256.812H17.3906V257.812ZM20.7656 257.812C22.2556 257.812 23.5075 257.742 24.5152 257.596L24.3725 256.607C23.4291 256.743 22.2288 256.812 20.7656 256.812V257.812ZM24.5152 257.596C25.5221 257.451 26.3619 257.215 27.0116 256.871L26.5431 255.987C26.0326 256.258 25.3168 256.471 24.3725 256.607L24.5152 257.596ZM27.0116 256.871C27.6663 256.524 28.1615 256.053 28.4538 255.447L27.553 255.012C27.3707 255.39 27.0485 255.719 26.5431 255.987L27.0116 256.871ZM28.4553 255.444C28.732 254.859 28.8594 254.176 28.8594 253.41H27.8594C27.8594 254.068 27.7495 254.598 27.5515 255.015L28.4553 255.444ZM28.8594 253.41C28.8594 252.663 28.7723 252.009 28.5805 251.464L27.6372 251.796C27.7794 252.201 27.8594 252.733 27.8594 253.41H28.8594ZM28.5832 251.472C28.3819 250.868 27.9732 250.399 27.3979 250.064L26.895 250.929C27.2866 251.157 27.5194 251.443 27.6345 251.788L28.5832 251.472ZM27.4014 250.066C26.8444 249.736 26.0966 249.526 25.1945 249.408L25.0643 250.399C25.9025 250.509 26.4994 250.694 26.8916 250.927L27.4014 250.066ZM25.1994 249.408C24.2966 249.281 23.1324 249.219 21.7148 249.219V250.219C23.1098 250.219 24.222 250.28 25.0594 250.398L25.1994 249.408ZM21.7148 249.219H18.2344V250.219H21.7148V249.219ZM18.2344 249.219C16.6986 249.219 15.3895 249.162 14.3042 249.05L14.2016 250.045C15.3312 250.161 16.6764 250.219 18.2344 250.219V249.219ZM14.3047 249.05C13.2236 248.938 12.331 248.779 11.6202 248.578L11.3485 249.541C12.1319 249.762 13.085 249.929 14.2012 250.045L14.3047 249.05ZM11.6255 248.58C10.9108 248.37 10.3687 248.121 9.97975 247.847L9.40306 248.664C9.91064 249.022 10.5638 249.31 11.3433 249.539L11.6255 248.58ZM9.98502 247.851C9.58468 247.56 9.29355 247.242 9.09664 246.899L8.22953 247.397C8.50724 247.88 8.90165 248.3 9.39779 248.66L9.98502 247.851ZM9.1006 246.906C8.90375 246.55 8.77242 246.152 8.70999 245.707L7.7197 245.846C7.79789 246.404 7.96539 246.92 8.22557 247.39L9.1006 246.906ZM8.71015 245.709C8.64337 245.224 8.60938 244.698 8.60938 244.129H7.60938C7.60938 244.737 7.64569 245.31 7.71953 245.845L8.71015 245.709ZM8.60938 244.129C8.60938 243.542 8.6597 243.004 8.75787 242.513L7.77729 242.317C7.66452 242.881 7.60938 243.485 7.60938 244.129H8.60938ZM8.75624 242.521C8.85686 242.056 9.03704 241.645 9.29522 241.28L8.47919 240.702C8.13972 241.181 7.90681 241.719 7.77892 242.309L8.75624 242.521ZM9.298 241.276C9.55347 240.908 9.91099 240.569 10.384 240.265L9.84254 239.424C9.27847 239.787 8.8186 240.213 8.47641 240.706L9.298 241.276ZM10.384 240.265C10.8472 239.966 11.4595 239.707 12.2351 239.496L11.9729 238.531C11.1313 238.76 10.4165 239.054 9.84254 239.424L10.384 240.265ZM12.2386 239.495C13.0205 239.277 13.9705 239.109 15.0937 238.997L14.9942 238.002C13.8322 238.118 12.8223 238.294 11.9694 238.532L12.2386 239.495ZM15.0937 238.997C16.2152 238.885 17.5426 238.828 19.0781 238.828V237.828C17.5199 237.828 16.1578 237.886 14.9942 238.002L15.0937 238.997ZM19.0781 238.828H21.6094V237.828H19.0781V238.828ZM21.6094 238.828C22.8632 238.828 23.953 238.876 24.881 238.971L24.9823 237.976C24.0119 237.877 22.8868 237.828 21.6094 237.828V238.828ZM24.8855 238.971C25.8124 239.057 26.5962 239.197 27.2424 239.388L27.5252 238.429C26.8002 238.215 25.9493 238.065 24.9777 237.975L24.8855 238.971ZM27.2481 239.389C27.8985 239.573 28.4138 239.8 28.8071 240.063L29.3618 239.23C28.8586 238.895 28.2402 238.63 27.5195 238.427L27.2481 239.389ZM28.8166 240.069C29.2183 240.324 29.5237 240.625 29.7441 240.97L30.587 240.432C30.28 239.951 29.8647 239.549 29.3524 239.224L28.8166 240.069ZM29.7509 240.981C29.9837 241.326 30.1489 241.725 30.2425 242.185L31.2224 241.986C31.105 241.408 30.8923 240.885 30.5802 240.422L29.7509 240.981ZM30.2425 242.185C30.3401 242.665 30.3906 243.207 30.3906 243.812H31.3906C31.3906 243.152 31.3357 242.543 31.2224 241.986L30.2425 242.185ZM30.8906 243.312H28.3594V244.312H30.8906V243.312ZM28.8594 243.812C28.8594 242.983 28.7412 242.274 28.4621 241.727L27.5711 242.181C27.749 242.53 27.8594 243.06 27.8594 243.812H28.8594ZM28.4621 241.727C28.1724 241.158 27.6962 240.749 27.0751 240.49L26.6905 241.413C27.1241 241.594 27.4038 241.852 27.5711 242.181L28.4621 241.727ZM27.0816 240.493C26.4813 240.233 25.7235 240.085 24.8304 240.031L24.7692 241.029C25.5987 241.08 26.2296 241.214 26.684 241.41L27.0816 240.493ZM24.8354 240.031C23.9582 239.968 22.882 239.938 21.6094 239.938V240.938C22.868 240.938 23.9188 240.968 24.7642 241.029L24.8354 240.031ZM21.6094 239.938H19.0781V240.938H21.6094V239.938ZM19.0781 239.938C17.3807 239.938 15.9716 239.999 14.856 240.125L14.9682 241.119C16.0323 240.999 17.4006 240.938 19.0781 240.938V239.938ZM14.86 240.125C13.7446 240.242 12.8253 240.447 12.1251 240.758L12.5312 241.672C13.0966 241.421 13.8999 241.231 14.9642 241.119L14.86 240.125ZM12.1251 240.758C11.4195 241.072 10.8779 241.517 10.5659 242.119L11.4536 242.579C11.6338 242.232 11.9711 241.921 12.5312 241.672L12.1251 240.758ZM10.5659 242.119C10.2727 242.684 10.1406 243.362 10.1406 244.129H11.1406C11.1406 243.472 11.2546 242.963 11.4536 242.579L10.5659 242.119ZM10.1406 244.129C10.1406 244.591 10.1729 245.012 10.2408 245.391L11.225 245.214C11.1699 244.907 11.1406 244.546 11.1406 244.129H10.1406ZM10.2408 245.391C10.314 245.799 10.463 246.171 10.6924 246.499L11.5117 245.925C11.372 245.726 11.2748 245.491 11.225 245.214L10.2408 245.391ZM10.7037 246.514C10.9507 246.84 11.282 247.1 11.6781 247.303L12.1344 246.413C11.8449 246.265 11.6401 246.094 11.5004 245.91L10.7037 246.514ZM11.6781 247.303C12.0761 247.507 12.577 247.664 13.1646 247.783L13.3637 246.803C12.8263 246.694 12.422 246.56 12.1344 246.413L11.6781 247.303ZM13.1646 247.783C13.7562 247.903 14.4655 247.989 15.2883 248.042L15.3533 247.045C14.5589 246.993 13.8972 246.911 13.3637 246.803L13.1646 247.783ZM15.294 248.043C16.1229 248.087 17.1035 248.109 18.2344 248.109V247.109C17.1153 247.109 16.1535 247.088 15.3476 247.044L15.294 248.043ZM18.2344 248.109H21.7148V247.109H18.2344V248.109Z" fill="black" mask="url(#path-1-outside-1_3911_52)"/>
</g>
<g filter="url(#filter1_d_3911_52)">
<path d="M21.8618 28.8906C22.978 28.8906 23.9229 28.8599 24.6963 28.7983C25.4697 28.7368 26.1069 28.6138 26.6079 28.4292C27.1089 28.2358 27.4956 27.959 27.7681 27.5986C28.0405 27.2383 28.2383 26.7637 28.3613 26.1748C28.4932 25.5771 28.5679 24.8477 28.5854 23.9863C28.6118 23.1162 28.625 22.0791 28.625 20.875C28.625 19.6709 28.6118 18.6382 28.5854 17.7769C28.5679 16.9067 28.4932 16.1772 28.3613 15.5884C28.2383 14.9907 28.0405 14.5117 27.7681 14.1514C27.4956 13.791 27.1089 13.5186 26.6079 13.334C26.1069 13.1406 25.4697 13.0132 24.6963 12.9517C23.9316 12.8901 22.9868 12.8594 21.8618 12.8594H9.21875V28.8906H21.8618ZM6.6875 31V10.75H21.8618C23.4087 10.75 24.7095 10.8423 25.7642 11.0269C26.8276 11.2026 27.7021 11.4751 28.3877 11.8442C29.082 12.2134 29.6138 12.6748 29.9829 13.2285C30.3608 13.7822 30.6333 14.437 30.8003 15.1929C30.9761 15.9399 31.0771 16.7881 31.1035 17.7373C31.1387 18.6777 31.1562 19.7236 31.1562 20.875C31.1562 22.0264 31.1387 23.0767 31.1035 24.0259C31.0771 24.9663 30.9761 25.8145 30.8003 26.5703C30.6333 27.3174 30.3608 27.9678 29.9829 28.5215C29.6138 29.0752 29.082 29.5366 28.3877 29.9058C27.7021 30.2749 26.8276 30.5518 25.7642 30.7363C24.7095 30.9121 23.4087 31 21.8618 31H6.6875ZM9.21875 69V48.75H29.4688V50.8594H11.75V57.6094H28.625V59.7188H11.75V66.8906H29.4688V69H9.21875ZM28.2031 86.75H31.1562L20.1875 107H16.8125L5.84375 86.75H8.79688L18.5 105.312L28.2031 86.75ZM7.10938 145V124.75H23.9976C25.2632 124.75 26.2827 124.855 27.0562 125.066C27.8296 125.269 28.4229 125.572 28.8359 125.976C29.2578 126.372 29.5391 126.868 29.6797 127.466C29.8203 128.063 29.8906 128.749 29.8906 129.522C29.8906 130.085 29.8423 130.582 29.7456 131.012C29.6489 131.443 29.5215 131.816 29.3633 132.133C29.2051 132.449 29.0249 132.717 28.8228 132.937C28.6206 133.148 28.4141 133.324 28.2031 133.464C27.7109 133.798 27.1484 133.987 26.5156 134.031C27.3066 134.075 28.0098 134.269 28.625 134.611C28.8887 134.761 29.1436 134.95 29.3896 135.178C29.6445 135.398 29.8687 135.675 30.062 136.009C30.2642 136.334 30.4268 136.721 30.5498 137.169C30.6729 137.608 30.7344 138.118 30.7344 138.698C30.7344 139.401 30.6992 140.047 30.6289 140.636C30.5674 141.216 30.4355 141.739 30.2334 142.205C30.0312 142.671 29.7412 143.08 29.3633 143.431C28.9854 143.783 28.48 144.077 27.8472 144.314C27.2231 144.543 26.4541 144.714 25.54 144.829C24.6348 144.943 23.5493 145 22.2837 145H7.10938ZM21.4399 142.891C22.4243 142.891 23.2769 142.877 23.9976 142.851C24.7183 142.816 25.3291 142.75 25.8301 142.653C26.3311 142.548 26.7354 142.403 27.043 142.218C27.3506 142.025 27.5879 141.774 27.7549 141.467C27.9307 141.15 28.0493 140.768 28.1108 140.32C28.1724 139.872 28.2031 139.331 28.2031 138.698C28.2031 138.206 28.1724 137.78 28.1108 137.419C28.0493 137.05 27.9307 136.743 27.7549 136.497C27.5879 136.242 27.3506 136.04 27.043 135.89C26.7354 135.732 26.3311 135.609 25.8301 135.521C25.3291 135.433 24.7183 135.376 23.9976 135.35C23.2769 135.314 22.4243 135.297 21.4399 135.297H9.64062V142.891H21.4399ZM21.4399 133.188C22.3013 133.188 23.0439 133.17 23.668 133.135C24.292 133.1 24.8237 133.034 25.2632 132.937C25.7026 132.84 26.0586 132.708 26.3311 132.542C26.6035 132.366 26.8145 132.142 26.9639 131.869C27.1221 131.597 27.2275 131.271 27.2803 130.894C27.333 130.507 27.3594 130.05 27.3594 129.522C27.3594 128.96 27.2979 128.503 27.1748 128.151C27.0518 127.8 26.832 127.532 26.5156 127.347C26.1992 127.154 25.7686 127.026 25.2236 126.965C24.6875 126.895 23.9976 126.859 23.1538 126.859H9.64062V133.188H21.4399ZM17.2344 162.75H19.7656V183H17.2344V162.75ZM29.8906 200.75V202.859H19.7656V221H17.2344V202.859H7.10938V200.75H29.8906ZM20.7148 247.609C22.1035 247.609 23.2944 247.667 24.2876 247.781C25.2808 247.895 26.1157 248.066 26.7925 248.295C27.478 248.515 28.0229 248.792 28.4272 249.125C28.8315 249.459 29.1436 249.842 29.3633 250.272C29.583 250.694 29.7236 251.169 29.7852 251.696C29.8555 252.224 29.8906 252.795 29.8906 253.41C29.8906 254.025 29.8335 254.605 29.7192 255.15C29.6138 255.687 29.4204 256.179 29.1392 256.627C28.8579 257.075 28.4756 257.475 27.9922 257.827C27.5088 258.178 26.8936 258.477 26.1465 258.723C25.3994 258.969 24.4985 259.154 23.4438 259.277C22.3979 259.409 21.1719 259.475 19.7656 259.475H16.3906C15.125 259.475 14.0176 259.426 13.0684 259.33C12.1191 259.233 11.3018 259.088 10.6162 258.895C9.93066 258.692 9.36377 258.442 8.91553 258.143C8.46729 257.835 8.10693 257.479 7.83447 257.075C7.5708 256.662 7.38623 256.196 7.28076 255.678C7.17529 255.15 7.12256 254.57 7.12256 253.938H9.65381C9.65381 254.729 9.76807 255.348 9.99658 255.796C10.2251 256.245 10.603 256.583 11.1304 256.812C11.6577 257.031 12.3477 257.172 13.2002 257.233C14.0615 257.286 15.125 257.312 16.3906 257.312H19.7656C21.2422 257.312 22.4683 257.242 23.4438 257.102C24.4194 256.961 25.1973 256.737 25.7773 256.429C26.3574 256.122 26.7661 255.722 27.0034 255.229C27.2407 254.729 27.3594 254.122 27.3594 253.41C27.3594 252.698 27.2759 252.105 27.1089 251.63C26.9507 251.156 26.6299 250.778 26.1465 250.497C25.6719 250.215 24.9995 250.018 24.1294 249.903C23.2593 249.78 22.1211 249.719 20.7148 249.719H17.2344C15.6875 249.719 14.3604 249.662 13.2529 249.547C12.1543 249.433 11.2314 249.271 10.4844 249.06C9.7373 248.84 9.13965 248.572 8.69141 248.255C8.24316 247.93 7.90039 247.561 7.66309 247.148C7.43457 246.735 7.28516 246.278 7.21484 245.777C7.14453 245.267 7.10938 244.718 7.10938 244.129C7.10938 243.514 7.16211 242.942 7.26758 242.415C7.38184 241.888 7.58838 241.413 7.88721 240.991C8.18604 240.561 8.59473 240.178 9.11328 239.844C9.63184 239.51 10.2954 239.233 11.104 239.014C11.9214 238.785 12.9014 238.614 14.0439 238.5C15.1865 238.385 16.5312 238.328 18.0781 238.328H20.6094C21.875 238.328 22.9824 238.376 23.9316 238.473C24.8809 238.561 25.6982 238.706 26.3838 238.908C27.0693 239.102 27.6362 239.348 28.0845 239.646C28.5415 239.937 28.9019 240.288 29.1655 240.701C29.438 241.105 29.627 241.567 29.7324 242.085C29.8379 242.604 29.8906 243.18 29.8906 243.812H27.3594C27.3594 243.021 27.2451 242.402 27.0166 241.954C26.7881 241.505 26.4102 241.171 25.8828 240.952C25.3555 240.723 24.6611 240.583 23.7998 240.53C22.9385 240.468 21.875 240.438 20.6094 240.438H18.0781C16.3906 240.438 15.002 240.499 13.9121 240.622C12.8223 240.736 11.9609 240.934 11.3281 241.215C10.6953 241.497 10.2559 241.875 10.0098 242.349C9.76367 242.824 9.64062 243.417 9.64062 244.129C9.64062 244.568 9.67139 244.959 9.73291 245.302C9.79443 245.645 9.91748 245.948 10.1021 246.212C10.2954 246.467 10.5635 246.682 10.9062 246.858C11.249 247.034 11.7017 247.179 12.2642 247.293C12.8267 247.407 13.5122 247.491 14.3208 247.543C15.1382 247.587 16.1094 247.609 17.2344 247.609H20.7148Z" fill="black"/>
</g>
<defs>
<filter id="filter0_d_3911_52" x="1.4899" y="10.75" width="36.0202" height="259.432" filterUnits="userSpaceOnUse" color-interpolation-filters="sRGB">
<feFlood flood-opacity="0" result="BackgroundImageFix"/>
<feColorMatrix in="SourceAlpha" type="matrix" values="0 0 0 0 0 0 0 0 0 0 0 0 0 0 0 0 0 0 127 0" result="hardAlpha"/>
<feOffset dy="5.35385"/>
<feGaussianBlur stdDeviation="2.67692"/>
<feComposite in2="hardAlpha" operator="out"/>
<feColorMatrix type="matrix" values="0 0 0 0 0 0 0 0 0 0 0 0 0 0 0 0 0 0 0.25 0"/>
<feBlend mode="normal" in2="BackgroundImageFix" result="effect1_dropShadow_3911_52"/>
<feBlend mode="normal" in="SourceGraphic" in2="effect1_dropShadow_3911_52" result="shape"/>
</filter>
<filter id="filter1_d_3911_52" x="0.489904" y="10.75" width="36.0202" height="259.432" filterUnits="userSpaceOnUse" color-interpolation-filters="sRGB">
<feFlood flood-opacity="0" result="BackgroundImageFix"/>
<feColorMatrix in="SourceAlpha" type="matrix" values="0 0 0 0 0 0 0 0 0 0 0 0 0 0 0 0 0 0 127 0" result="hardAlpha"/>
<feOffset dy="5.35385"/>
<feGaussianBlur stdDeviation="2.67692"/>
<feComposite in2="hardAlpha" operator="out"/>
<feColorMatrix type="matrix" values="0 0 0 0 0 0 0 0 0 0 0 0 0 0 0 0 0 0 0.25 0"/>
<feBlend mode="normal" in2="BackgroundImageFix" result="effect1_dropShadow_3911_52"/>
<feBlend mode="normal" in="SourceGraphic" in2="effect1_dropShadow_3911_52" result="shape"/>
</filter>
</defs>
</svg>
