<svg width="858" height="110" viewBox="0 0 858 110" fill="none" xmlns="http://www.w3.org/2000/svg">
<mask id="path-1-outside-1_3452_38" maskUnits="userSpaceOnUse" x="-1" y="-1" width="860" height="112" fill="black">
<rect fill="white" x="-1" y="-1" width="860" height="112"/>
<path d="M0.70166 107V2.75H104.952V13.6094H13.7329V48.3594H100.608V59.2188H13.7329V96.1406H104.952V107H0.70166ZM242.649 2.75H257.852L201.383 107H184.008L127.539 2.75H142.742L192.695 98.3125L242.649 2.75ZM289.127 107V2.75H393.377V13.6094H302.158V48.3594H389.033V59.2188H302.158V96.1406H393.377V107H289.127ZM437.683 107H424.652V2.75H447.524L543.087 93.9688V2.75H556.118V107H538.743L437.683 13.6094V107ZM709.086 2.75V13.6094H656.961V107H643.93V13.6094H591.805V2.75H709.086ZM810.404 48.3594C817.553 48.3594 823.684 48.6535 828.797 49.2417C833.91 49.8299 838.208 50.7122 841.692 51.8887C845.222 53.0199 848.027 54.4451 850.108 56.1646C852.19 57.884 853.796 59.8522 854.927 62.0693C856.058 64.2412 856.782 66.6846 857.099 69.3994C857.461 72.1143 857.642 75.0553 857.642 78.2227C857.642 81.39 857.348 84.3763 856.76 87.1816C856.217 89.9417 855.221 92.4756 853.773 94.7832C852.326 97.0908 850.357 99.1496 847.869 100.959C845.38 102.769 842.213 104.308 838.367 105.575C834.521 106.842 829.883 107.792 824.453 108.425C819.069 109.104 812.757 109.443 805.517 109.443H788.142C781.626 109.443 775.925 109.194 771.039 108.697C766.152 108.199 761.944 107.452 758.415 106.457C754.885 105.416 751.967 104.127 749.659 102.588C747.352 101.005 745.496 99.1722 744.094 97.0908C742.736 94.9642 741.786 92.5661 741.243 89.8965C740.7 87.1816 740.429 84.1953 740.429 80.9375H753.46C753.46 85.0098 754.048 88.1997 755.225 90.5073C756.401 92.8149 758.347 94.557 761.062 95.7334C763.776 96.8646 767.328 97.5885 771.717 97.9053C776.152 98.1768 781.626 98.3125 788.142 98.3125H805.517C813.119 98.3125 819.431 97.9505 824.453 97.2266C829.476 96.5026 833.48 95.3488 836.466 93.7651C839.453 92.1815 841.557 90.1227 842.778 87.5889C844 85.0098 844.611 81.8877 844.611 78.2227C844.611 74.5576 844.181 71.5034 843.321 69.0601C842.507 66.6167 840.855 64.6711 838.367 63.2231C835.923 61.7752 832.462 60.7572 827.982 60.1689C823.503 59.5355 817.643 59.2188 810.404 59.2188H792.486C784.522 59.2188 777.69 58.9246 771.989 58.3364C766.333 57.7482 761.582 56.9111 757.736 55.8252C753.89 54.694 750.813 53.314 748.505 51.6851C746.198 50.0109 744.433 48.1105 743.211 45.9839C742.035 43.8573 741.266 41.5044 740.904 38.9253C740.542 36.3009 740.361 33.473 740.361 30.4414C740.361 27.2741 740.632 24.333 741.175 21.6182C741.764 18.9033 742.827 16.46 744.365 14.2881C745.904 12.071 748.008 10.1027 750.677 8.3833C753.347 6.6639 756.763 5.23861 760.926 4.10742C765.134 2.93099 770.179 2.04867 776.061 1.46045C781.943 0.872233 788.866 0.578125 796.83 0.578125H809.861C816.376 0.578125 822.078 0.826986 826.964 1.32471C831.851 1.77718 836.059 2.52376 839.588 3.56445C843.118 4.5599 846.036 5.82682 848.344 7.36523C850.697 8.8584 852.552 10.6683 853.909 12.7949C855.312 14.8763 856.285 17.2518 856.828 19.9214C857.371 22.591 857.642 25.5547 857.642 28.8125H844.611C844.611 24.7402 844.023 21.5503 842.846 19.2427C841.67 16.9351 839.724 15.2157 837.009 14.0845C834.294 12.908 830.72 12.1841 826.286 11.9126C821.851 11.5959 816.376 11.4375 809.861 11.4375H796.83C788.142 11.4375 780.993 11.7542 775.382 12.3877C769.772 12.9759 765.337 13.994 762.08 15.4419C758.822 16.8898 756.559 18.8354 755.292 21.2788C754.026 23.7222 753.392 26.7764 753.392 30.4414C753.392 32.7038 753.55 34.7173 753.867 36.4819C754.184 38.2466 754.817 39.8076 755.768 41.165C756.763 42.4772 758.143 43.5858 759.908 44.4907C761.672 45.3957 764.003 46.1423 766.898 46.7305C769.794 47.3187 773.324 47.7485 777.486 48.02C781.694 48.2463 786.694 48.3594 792.486 48.3594H810.404Z"/>
</mask>
<path d="M0.70166 107H-0.29834V108H0.70166V107ZM0.70166 2.75V1.75H-0.29834V2.75H0.70166ZM104.952 2.75H105.952V1.75H104.952V2.75ZM104.952 13.6094V14.6094H105.952V13.6094H104.952ZM13.7329 13.6094V12.6094H12.7329V13.6094H13.7329ZM13.7329 48.3594H12.7329V49.3594H13.7329V48.3594ZM100.608 48.3594H101.608V47.3594H100.608V48.3594ZM100.608 59.2188V60.2188H101.608V59.2188H100.608ZM13.7329 59.2188V58.2188H12.7329V59.2188H13.7329ZM13.7329 96.1406H12.7329V97.1406H13.7329V96.1406ZM104.952 96.1406H105.952V95.1406H104.952V96.1406ZM104.952 107V108H105.952V107H104.952ZM1.70166 107V2.75H-0.29834V107H1.70166ZM0.70166 3.75H104.952V1.75H0.70166V3.75ZM103.952 2.75V13.6094H105.952V2.75H103.952ZM104.952 12.6094H13.7329V14.6094H104.952V12.6094ZM12.7329 13.6094V48.3594H14.7329V13.6094H12.7329ZM13.7329 49.3594H100.608V47.3594H13.7329V49.3594ZM99.6079 48.3594V59.2188H101.608V48.3594H99.6079ZM100.608 58.2188H13.7329V60.2188H100.608V58.2188ZM12.7329 59.2188V96.1406H14.7329V59.2188H12.7329ZM13.7329 97.1406H104.952V95.1406H13.7329V97.1406ZM103.952 96.1406V107H105.952V96.1406H103.952ZM104.952 106H0.70166V108H104.952V106ZM242.649 2.75V1.75H242.043L241.762 2.28675L242.649 2.75ZM257.852 2.75L258.731 3.22628L259.531 1.75H257.852V2.75ZM201.383 107V108H201.979L202.262 107.476L201.383 107ZM184.008 107L183.129 107.476L183.412 108H184.008V107ZM127.539 2.75V1.75H125.86L126.66 3.22628L127.539 2.75ZM142.742 2.75L143.629 2.28675L143.348 1.75H142.742V2.75ZM192.695 98.3125L191.809 98.7758L192.695 100.471L193.582 98.7758L192.695 98.3125ZM242.649 3.75H257.852V1.75H242.649V3.75ZM256.972 2.27372L200.504 106.524L202.262 107.476L258.731 3.22628L256.972 2.27372ZM201.383 106H184.008V108H201.383V106ZM184.887 106.524L128.418 2.27372L126.66 3.22628L183.129 107.476L184.887 106.524ZM127.539 3.75H142.742V1.75H127.539V3.75ZM141.856 3.21325L191.809 98.7758L193.582 97.8492L143.629 2.28675L141.856 3.21325ZM193.582 98.7758L243.535 3.21325L241.762 2.28675L191.809 97.8492L193.582 98.7758ZM289.127 107H288.127V108H289.127V107ZM289.127 2.75V1.75H288.127V2.75H289.127ZM393.377 2.75H394.377V1.75H393.377V2.75ZM393.377 13.6094V14.6094H394.377V13.6094H393.377ZM302.158 13.6094V12.6094H301.158V13.6094H302.158ZM302.158 48.3594H301.158V49.3594H302.158V48.3594ZM389.033 48.3594H390.033V47.3594H389.033V48.3594ZM389.033 59.2188V60.2188H390.033V59.2188H389.033ZM302.158 59.2188V58.2188H301.158V59.2188H302.158ZM302.158 96.1406H301.158V97.1406H302.158V96.1406ZM393.377 96.1406H394.377V95.1406H393.377V96.1406ZM393.377 107V108H394.377V107H393.377ZM290.127 107V2.75H288.127V107H290.127ZM289.127 3.75H393.377V1.75H289.127V3.75ZM392.377 2.75V13.6094H394.377V2.75H392.377ZM393.377 12.6094H302.158V14.6094H393.377V12.6094ZM301.158 13.6094V48.3594H303.158V13.6094H301.158ZM302.158 49.3594H389.033V47.3594H302.158V49.3594ZM388.033 48.3594V59.2188H390.033V48.3594H388.033ZM389.033 58.2188H302.158V60.2188H389.033V58.2188ZM301.158 59.2188V96.1406H303.158V59.2188H301.158ZM302.158 97.1406H393.377V95.1406H302.158V97.1406ZM392.377 96.1406V107H394.377V96.1406H392.377ZM393.377 106H289.127V108H393.377V106ZM437.683 107V108H438.683V107H437.683ZM424.652 107H423.652V108H424.652V107ZM424.652 2.75V1.75H423.652V2.75H424.652ZM447.524 2.75L448.215 2.02664L447.925 1.75H447.524V2.75ZM543.087 93.9688L542.396 94.6921L544.087 96.3057V93.9688H543.087ZM543.087 2.75V1.75H542.087V2.75H543.087ZM556.118 2.75H557.118V1.75H556.118V2.75ZM556.118 107V108H557.118V107H556.118ZM538.743 107L538.064 107.734L538.352 108H538.743V107ZM437.683 13.6094L438.362 12.875L436.683 11.3237V13.6094H437.683ZM437.683 106H424.652V108H437.683V106ZM425.652 107V2.75H423.652V107H425.652ZM424.652 3.75H447.524V1.75H424.652V3.75ZM446.834 3.47336L542.396 94.6921L543.777 93.2454L448.215 2.02664L446.834 3.47336ZM544.087 93.9688V2.75H542.087V93.9688H544.087ZM543.087 3.75H556.118V1.75H543.087V3.75ZM555.118 2.75V107H557.118V2.75H555.118ZM556.118 106H538.743V108H556.118V106ZM539.422 106.266L438.362 12.875L437.004 14.3438L538.064 107.734L539.422 106.266ZM436.683 13.6094V107H438.683V13.6094H436.683ZM709.086 2.75H710.086V1.75H709.086V2.75ZM709.086 13.6094V14.6094H710.086V13.6094H709.086ZM656.961 13.6094V12.6094H655.961V13.6094H656.961ZM656.961 107V108H657.961V107H656.961ZM643.93 107H642.93V108H643.93V107ZM643.93 13.6094H644.93V12.6094H643.93V13.6094ZM591.805 13.6094H590.805V14.6094H591.805V13.6094ZM591.805 2.75V1.75H590.805V2.75H591.805ZM708.086 2.75V13.6094H710.086V2.75H708.086ZM709.086 12.6094H656.961V14.6094H709.086V12.6094ZM655.961 13.6094V107H657.961V13.6094H655.961ZM656.961 106H643.93V108H656.961V106ZM644.93 107V13.6094H642.93V107H644.93ZM643.93 12.6094H591.805V14.6094H643.93V12.6094ZM592.805 13.6094V2.75H590.805V13.6094H592.805ZM591.805 3.75H709.086V1.75H591.805V3.75ZM841.692 51.8887L841.372 52.8361L841.38 52.8386L841.387 52.841L841.692 51.8887ZM854.927 62.0693L854.036 62.5238L854.04 62.5313L854.927 62.0693ZM857.099 69.3994L856.106 69.5153L856.107 69.5234L856.108 69.5316L857.099 69.3994ZM856.76 87.1816L855.781 86.9764L855.779 86.9886L856.76 87.1816ZM824.453 108.425L824.337 107.432L824.328 107.433L824.453 108.425ZM758.415 106.457L758.132 107.416L758.143 107.419L758.415 106.457ZM749.659 102.588L749.093 103.413L749.104 103.42L749.659 102.588ZM744.094 97.0908L743.251 97.6289L743.258 97.6394L743.264 97.6497L744.094 97.0908ZM741.243 89.8965L740.263 90.0926L740.263 90.0958L741.243 89.8965ZM740.429 80.9375V79.9375H739.429V80.9375H740.429ZM753.46 80.9375H754.46V79.9375H753.46V80.9375ZM761.062 95.7334L760.664 96.651L760.677 96.6565L761.062 95.7334ZM771.717 97.9053L771.645 98.9027L771.656 98.9034L771.717 97.9053ZM842.778 87.5889L843.679 88.0232L843.682 88.017L842.778 87.5889ZM843.321 69.0601L842.373 69.3763L842.375 69.3841L842.378 69.392L843.321 69.0601ZM838.367 63.2231L837.857 64.0835L837.864 64.0875L838.367 63.2231ZM827.982 60.1689L827.842 61.1591L827.852 61.1604L827.982 60.1689ZM771.989 58.3364L771.885 59.3311L771.886 59.3311L771.989 58.3364ZM757.736 55.8252L757.454 56.7846L757.464 56.7876L757.736 55.8252ZM748.505 51.6851L747.918 52.4945L747.929 52.502L748.505 51.6851ZM743.211 45.9839L742.336 46.4679L742.34 46.475L742.344 46.482L743.211 45.9839ZM740.904 38.9253L739.913 39.0619L739.914 39.0643L740.904 38.9253ZM741.175 21.6182L740.198 21.4064L740.196 21.4142L740.195 21.422L741.175 21.6182ZM744.365 14.2881L745.181 14.8661L745.187 14.8582L744.365 14.2881ZM760.926 4.10742L761.188 5.07245L761.195 5.07049L760.926 4.10742ZM826.964 1.32471L826.863 2.3196L826.872 2.32045L826.964 1.32471ZM839.588 3.56445L839.306 4.52369L839.317 4.5269L839.588 3.56445ZM848.344 7.36523L847.789 8.19728L847.798 8.20353L847.808 8.20956L848.344 7.36523ZM853.909 12.7949L853.066 13.333L853.073 13.3435L853.08 13.3538L853.909 12.7949ZM857.642 28.8125V29.8125H858.642V28.8125H857.642ZM844.611 28.8125H843.611V29.8125H844.611V28.8125ZM837.009 14.0845L836.612 15.0021L836.625 15.0075L837.009 14.0845ZM826.286 11.9126L826.214 12.9101L826.225 12.9107L826.286 11.9126ZM775.382 12.3877L775.487 13.3823L775.495 13.3814L775.382 12.3877ZM755.768 41.165L754.948 41.7385L754.959 41.7542L754.971 41.7694L755.768 41.165ZM777.486 48.02L777.421 49.018L777.433 49.0186L777.486 48.02ZM810.404 49.3594C817.528 49.3594 823.619 49.6526 828.683 50.2351L828.911 48.2483C823.749 47.6544 817.578 47.3594 810.404 47.3594V49.3594ZM828.683 50.2351C833.751 50.8182 837.976 51.6892 841.372 52.8361L842.012 50.9412C838.441 49.7353 834.069 48.8416 828.911 48.2483L828.683 50.2351ZM841.387 52.841C844.838 53.9468 847.517 55.3212 849.471 56.9355L850.745 55.3936C848.537 53.5691 845.606 52.0929 841.998 50.9364L841.387 52.841ZM849.471 56.9355C851.457 58.5753 852.973 60.4384 854.036 62.5238L855.818 61.6149C854.62 59.266 852.923 57.1926 850.745 55.3936L849.471 56.9355ZM854.04 62.5313C855.109 64.5834 855.802 66.9073 856.106 69.5153L858.092 69.2835C857.763 66.4618 857.008 63.899 855.814 61.6074L854.04 62.5313ZM856.108 69.5316C856.463 72.1965 856.642 75.0929 856.642 78.2227H858.642C858.642 75.0178 858.459 72.0321 858.09 69.2673L856.108 69.5316ZM856.642 78.2227C856.642 81.3281 856.354 84.2452 855.781 86.9764L857.738 87.3869C858.342 84.5074 858.642 81.4518 858.642 78.2227H856.642ZM855.779 86.9886C855.258 89.6326 854.307 92.0511 852.926 94.2517L854.62 95.3147C856.136 92.9 857.175 90.2509 857.741 87.3747L855.779 86.9886ZM852.926 94.2517C851.555 96.4381 849.679 98.4062 847.28 100.151L848.457 101.768C851.035 99.8929 853.097 97.7435 854.62 95.3147L852.926 94.2517ZM847.28 100.151C844.897 101.884 841.831 103.381 838.054 104.625L838.68 106.525C842.595 105.235 845.863 103.655 848.457 101.768L847.28 100.151ZM838.054 104.625C834.29 105.865 829.722 106.804 824.337 107.432L824.569 109.419C830.044 108.78 834.752 107.818 838.68 106.525L838.054 104.625ZM824.328 107.433C818.996 108.105 812.728 108.443 805.517 108.443V110.443C812.786 110.443 819.141 110.103 824.578 109.417L824.328 107.433ZM805.517 108.443H788.142V110.443H805.517V108.443ZM788.142 108.443C781.65 108.443 775.984 108.195 771.14 107.702L770.937 109.692C775.866 110.194 781.603 110.443 788.142 110.443V108.443ZM771.14 107.702C766.293 107.208 762.145 106.47 758.686 105.495L758.143 107.419C761.743 108.435 766.011 109.19 770.937 109.692L771.14 107.702ZM758.697 105.498C755.235 104.477 752.416 103.224 750.214 101.756L749.104 103.42C751.518 105.029 754.535 106.356 758.132 107.416L758.697 105.498ZM750.225 101.764C748.009 100.243 746.248 98.4977 744.923 96.532L743.264 97.6497C744.745 99.8467 746.694 101.766 749.093 103.413L750.225 101.764ZM744.937 96.5528C743.65 94.5377 742.744 92.2561 742.223 89.6972L740.263 90.0958C740.829 92.8761 741.822 95.3907 743.251 97.6289L744.937 96.5528ZM742.224 89.7004C741.696 87.0602 741.429 84.1407 741.429 80.9375H739.429C739.429 84.25 739.705 87.3031 740.263 90.0926L742.224 89.7004ZM740.429 81.9375H753.46V79.9375H740.429V81.9375ZM752.46 80.9375C752.46 85.0864 753.056 88.4553 754.334 90.9615L756.116 90.0531C755.04 87.9441 754.46 84.9332 754.46 80.9375H752.46ZM754.334 90.9615C755.631 93.5054 757.768 95.396 760.664 96.651L761.459 94.8158C758.925 93.7179 757.172 92.1245 756.116 90.0531L754.334 90.9615ZM760.677 96.6565C763.528 97.8443 767.197 98.5816 771.645 98.9027L771.789 96.9079C767.46 96.5954 764.025 95.8849 761.446 94.8103L760.677 96.6565ZM771.656 98.9034C776.118 99.1766 781.615 99.3125 788.142 99.3125V97.3125C781.638 97.3125 776.185 97.177 771.778 96.9071L771.656 98.9034ZM788.142 99.3125H805.517V97.3125H788.142V99.3125ZM805.517 99.3125C813.145 99.3125 819.509 98.9496 824.596 98.2163L824.31 96.2368C819.352 96.9515 813.092 97.3125 805.517 97.3125V99.3125ZM824.596 98.2163C829.681 97.4834 833.809 96.3061 836.935 94.6486L835.998 92.8817C833.151 94.3915 829.27 95.5219 824.31 96.2368L824.596 98.2163ZM836.935 94.6486C840.07 92.9857 842.347 90.7852 843.679 88.0232L841.878 87.1546C840.766 89.4602 838.835 91.3772 835.998 92.8817L836.935 94.6486ZM843.682 88.017C844.982 85.2716 845.611 81.9952 845.611 78.2227H843.611C843.611 81.7802 843.018 84.7479 841.875 87.1608L843.682 88.017ZM845.611 78.2227C845.611 74.4877 845.174 71.3124 844.265 68.7281L842.378 69.392C843.188 71.6945 843.611 74.6276 843.611 78.2227H845.611ZM844.27 68.7438C843.369 66.042 841.542 63.9136 838.87 62.3588L837.864 64.0875C840.169 65.4285 841.644 67.1914 842.373 69.3763L844.27 68.7438ZM838.877 62.3629C836.268 60.8173 832.656 59.7741 828.113 59.1775L827.852 61.1604C832.268 61.7403 835.578 62.7332 837.857 64.0834L838.877 62.3629ZM828.122 59.1788C823.578 58.5361 817.666 58.2188 810.404 58.2188V60.2188C817.621 60.2188 823.428 60.5349 827.842 61.1591L828.122 59.1788ZM810.404 58.2188H792.486V60.2188H810.404V58.2188ZM792.486 58.2188C784.544 58.2188 777.748 57.9254 772.091 57.3417L771.886 59.3311C777.632 59.9239 784.5 60.2188 792.486 60.2188V58.2188ZM772.092 57.3418C766.471 56.7572 761.781 55.9282 758.008 54.8628L757.464 56.7876C761.383 57.894 766.194 58.7392 771.885 59.3311L772.092 57.3418ZM758.018 54.8658C754.237 53.7537 751.271 52.4132 749.082 50.8681L747.929 52.502C750.355 54.2147 753.543 55.6343 757.454 56.7846L758.018 54.8658ZM749.093 50.8756C746.881 49.271 745.219 47.4717 744.079 45.4858L742.344 46.482C743.647 48.7493 745.515 50.7508 747.918 52.4945L749.093 50.8756ZM744.086 45.4998C742.973 43.4877 742.24 41.253 741.894 38.7863L739.914 39.0643C740.291 41.7558 741.097 44.2269 742.336 46.4679L744.086 45.4998ZM741.894 38.7887C741.539 36.2155 741.361 33.4337 741.361 30.4414H739.361C739.361 33.5123 739.544 36.3864 739.913 39.0619L741.894 38.7887ZM741.361 30.4414C741.361 27.3307 741.628 24.4561 742.156 21.8143L740.195 21.422C739.637 24.2099 739.361 27.2174 739.361 30.4414H741.361ZM742.153 21.8299C742.714 19.2409 743.724 16.9232 745.181 14.8661L743.549 13.7101C741.93 15.9967 740.813 18.5657 740.198 21.4064L742.153 21.8299ZM745.187 14.8582C746.639 12.766 748.64 10.8848 751.219 9.22402L750.136 7.54259C747.375 9.32062 745.169 11.3759 743.544 13.718L745.187 14.8582ZM751.219 9.22402C753.778 7.57597 757.091 6.18568 761.188 5.07243L760.664 3.14242C756.435 4.29153 752.916 5.75183 750.136 7.54259L751.219 9.22402ZM761.195 5.07049C765.332 3.91393 770.317 3.03982 776.161 2.45549L775.962 0.465412C770.041 1.05751 764.936 1.94805 760.657 3.14435L761.195 5.07049ZM776.161 2.45549C782.001 1.87148 788.889 1.57812 796.83 1.57812V-0.421875C788.843 -0.421875 781.886 -0.127018 775.962 0.465412L776.161 2.45549ZM796.83 1.57812H809.861V-0.421875H796.83V1.57812ZM809.861 1.57812C816.353 1.57812 822.019 1.82616 826.863 2.31956L827.066 0.329854C822.136 -0.172193 816.4 -0.421875 809.861 -0.421875V1.57812ZM826.872 2.32045C831.714 2.76879 835.855 3.50618 839.306 4.52362L839.871 2.60528C836.263 1.54134 831.988 0.785574 827.057 0.328966L826.872 2.32045ZM839.317 4.5269C842.776 5.50254 845.591 6.73214 847.789 8.19728L848.898 6.53318C846.481 4.92151 843.459 3.61726 839.86 2.602L839.317 4.5269ZM847.808 8.20956C850.05 9.6326 851.795 11.3421 853.066 13.333L854.752 12.2569C853.308 9.99453 851.343 8.08419 848.88 6.5209L847.808 8.20956ZM853.08 13.3538C854.403 15.3174 855.329 17.5686 855.848 20.1207L857.808 19.7221C857.241 16.935 856.221 14.4352 854.738 12.2361L853.08 13.3538ZM855.848 20.1207C856.375 22.7134 856.642 25.6091 856.642 28.8125H858.642C858.642 25.5003 858.366 22.4685 857.808 19.7221L855.848 20.1207ZM857.642 27.8125H844.611V29.8125H857.642V27.8125ZM845.611 28.8125C845.611 24.6636 845.015 21.2947 843.737 18.7885L841.955 19.6969C843.03 21.8059 843.611 24.8168 843.611 28.8125H845.611ZM843.737 18.7885C842.438 16.2409 840.296 14.3707 837.394 13.1614L836.625 15.0075C839.152 16.0606 840.901 17.6292 841.955 19.6969L843.737 18.7885ZM837.407 13.1669C834.546 11.9272 830.845 11.1898 826.347 10.9145L826.225 12.9107C830.595 13.1783 834.043 13.8888 836.612 15.002L837.407 13.1669ZM826.357 10.9151C821.891 10.5961 816.39 10.4375 809.861 10.4375V12.4375C816.363 12.4375 821.812 12.5956 826.214 12.9101L826.357 10.9151ZM809.861 10.4375H796.83V12.4375H809.861V10.4375ZM796.83 10.4375C788.122 10.4375 780.932 10.7547 775.27 11.394L775.495 13.3814C781.054 12.7537 788.162 12.4375 796.83 12.4375V10.4375ZM775.278 11.3931C769.616 11.9867 765.066 13.0203 761.673 14.5281L762.486 16.3557C765.609 14.9677 769.927 13.9651 775.487 13.3822L775.278 11.3931ZM761.673 14.5281C758.27 16.0406 755.804 18.1208 754.405 20.8185L756.18 21.7391C757.315 19.5501 759.373 17.739 762.486 16.3557L761.673 14.5281ZM754.405 20.8185C753.044 23.4433 752.392 26.6671 752.392 30.4414H754.392C754.392 26.8856 755.007 24.001 756.18 21.7391L754.405 20.8185ZM752.392 30.4414C752.392 32.7484 752.553 34.8228 752.883 36.6586L754.851 36.3053C754.547 34.6117 754.392 32.6591 754.392 30.4414H752.392ZM752.883 36.6586C753.223 38.554 753.908 40.2528 754.948 41.7385L756.587 40.5916C755.726 39.3624 755.145 37.9391 754.851 36.3053L752.883 36.6586ZM754.971 41.7694C756.074 43.223 757.58 44.4209 759.451 45.3805L760.364 43.6009C758.706 42.7506 757.452 41.7315 756.564 40.5607L754.971 41.7694ZM759.451 45.3805C761.326 46.3421 763.753 47.112 766.699 47.7105L767.097 45.7505C764.252 45.1725 762.018 44.4492 760.364 43.6009L759.451 45.3805ZM766.699 47.7105C769.653 48.3105 773.23 48.7446 777.421 49.0179L777.551 47.0221C773.417 46.7525 769.935 46.3269 767.097 45.7505L766.699 47.7105ZM777.433 49.0186C781.664 49.2461 786.682 49.3594 792.486 49.3594V47.3594C786.706 47.3594 781.725 47.2465 777.54 47.0215L777.433 49.0186ZM792.486 49.3594H810.404V47.3594H792.486V49.3594Z" fill="white" mask="url(#path-1-outside-1_3452_38)"/>
</svg>
