<!-- <svg width="39" height="232" viewBox="0 0 39 232" fill="none" xmlns="http://www.w3.org/2000/svg"> -->
<svg width="auto" height="auto" viewBox="0 0 39 232" fill="none" xmlns="http://www.w3.org/2000/svg">
<g filter="url(#filter0_d_3911_192)">
<mask id="path-1-outside-1_3911_192" maskUnits="userSpaceOnUse" x="5" y="10" width="30" height="212" fill="black">
<rect fill="white" x="5" y="10" width="30" height="212"/>
<path d="M21.5952 20.3213L33.5 31H29.9141L19.8286 21.9561L10.0859 31H6.5L18.0093 20.3213L7.34375 10.75H10.9297L19.7627 18.6865L28.3188 10.75H31.9048L21.5952 20.3213ZM14.9375 60.1406H25.0625V62.25H14.9375V60.1406ZM18.7344 86.75H21.2656V107H18.7344V86.75ZM23.8101 124.328C25.3569 124.328 26.6577 124.425 27.7124 124.618C28.7759 124.803 29.6504 125.088 30.3359 125.475C31.0215 125.853 31.5488 126.332 31.918 126.912C32.2871 127.492 32.5552 128.173 32.7222 128.956C32.8979 129.738 32.999 130.621 33.0254 131.605C33.0605 132.59 33.0781 133.68 33.0781 134.875C33.0781 136.07 33.0605 137.16 33.0254 138.145C32.999 139.129 32.8979 140.012 32.7222 140.794C32.5552 141.577 32.2871 142.258 31.918 142.838C31.5488 143.418 31.0215 143.901 30.3359 144.288C29.6504 144.666 28.7759 144.947 27.7124 145.132C26.6577 145.325 25.3569 145.422 23.8101 145.422H16.1899C14.6431 145.422 13.3379 145.325 12.2744 145.132C11.2197 144.947 10.3496 144.666 9.66406 144.288C8.97852 143.901 8.44678 143.418 8.06885 142.838C7.69971 142.258 7.42725 141.577 7.25146 140.794C7.08447 140.012 6.98779 139.129 6.96143 138.145C6.93506 137.16 6.92188 136.07 6.92188 134.875C6.92188 133.68 6.93506 132.59 6.96143 131.605C6.98779 130.621 7.08447 129.738 7.25146 128.956C7.42725 128.173 7.69971 127.492 8.06885 126.912C8.44678 126.332 8.97852 125.853 9.66406 125.475C10.3496 125.088 11.2197 124.803 12.2744 124.618C13.3379 124.425 14.6431 124.328 16.1899 124.328H23.8101ZM23.8101 143.312C24.9263 143.312 25.8667 143.282 26.6313 143.22C27.4048 143.15 28.042 143.014 28.543 142.812C29.0439 142.609 29.4307 142.319 29.7031 141.941C29.9756 141.563 30.1733 141.062 30.2964 140.438C30.4194 139.814 30.4897 139.05 30.5073 138.145C30.5337 137.23 30.5469 136.141 30.5469 134.875C30.5469 133.609 30.5337 132.524 30.5073 131.619C30.4897 130.705 30.4194 129.936 30.2964 129.312C30.1733 128.688 29.9756 128.187 29.7031 127.809C29.4307 127.431 29.0439 127.141 28.543 126.938C28.0508 126.736 27.418 126.604 26.6445 126.543C25.8799 126.473 24.9351 126.438 23.8101 126.438H16.1899C15.0649 126.438 14.1157 126.473 13.3423 126.543C12.5776 126.604 11.9448 126.736 11.4438 126.938C10.9429 127.141 10.5562 127.431 10.2837 127.809C10.0112 128.187 9.81348 128.688 9.69043 129.312C9.56738 129.936 9.49707 130.705 9.47949 131.619C9.46191 132.524 9.45312 133.609 9.45312 134.875C9.45312 136.141 9.46191 137.23 9.47949 138.145C9.50586 139.05 9.58057 139.814 9.70361 140.438C9.82666 141.062 10.02 141.563 10.2837 141.941C10.5562 142.319 10.9429 142.609 11.4438 142.812C11.9448 143.014 12.5776 143.15 13.3423 143.22C14.1157 143.282 15.0649 143.312 16.1899 143.312H23.8101ZM31.3906 162.75V164.859H21.2656V183H18.7344V164.859H8.60938V162.75H31.3906ZM28.0156 216.359H11.9844L9.45312 221H6.5L18.3125 200.75H21.6875L33.5 221H30.5469L28.0156 216.359ZM26.75 214.25L20 202.438L13.25 214.25H26.75Z"/>
</mask>
<path d="M21.5952 20.3213L21.255 19.9549L20.8535 20.3276L21.2613 20.6935L21.5952 20.3213ZM33.5 31V31.5H34.8062L33.8339 30.6278L33.5 31ZM29.9141 31L29.5803 31.3723L29.7227 31.5H29.9141V31ZM19.8286 21.9561L20.1624 21.5838L19.8228 21.2792L19.4884 21.5896L19.8286 21.9561ZM10.0859 31V31.5H10.2822L10.4261 31.3664L10.0859 31ZM6.5 31L6.15992 30.6335L5.22599 31.5H6.5V31ZM18.0093 20.3213L18.3494 20.6878L18.751 20.3151L18.3432 19.9492L18.0093 20.3213ZM7.34375 10.75V10.25H6.03797L7.0098 11.1221L7.34375 10.75ZM10.9297 10.75L11.2639 10.3781L11.1213 10.25H10.9297V10.75ZM19.7627 18.6865L19.4285 19.0584L19.7681 19.3635L20.1027 19.0531L19.7627 18.6865ZM28.3188 10.75V10.25H28.1227L27.9788 10.3834L28.3188 10.75ZM31.9048 10.75L32.245 11.1164L33.1782 10.25H31.9048V10.75ZM21.2613 20.6935L33.1661 31.3722L33.8339 30.6278L21.9291 19.9491L21.2613 20.6935ZM33.5 30.5H29.9141V31.5H33.5V30.5ZM30.2479 30.6277L20.1624 21.5838L19.4948 22.3283L29.5803 31.3723L30.2479 30.6277ZM19.4884 21.5896L9.74577 30.6336L10.4261 31.3664L20.1688 22.3225L19.4884 21.5896ZM10.0859 30.5H6.5V31.5H10.0859V30.5ZM6.84008 31.3665L18.3494 20.6878L17.6692 19.9548L6.15992 30.6335L6.84008 31.3665ZM18.3432 19.9492L7.6777 10.3779L7.0098 11.1221L17.6753 20.6934L18.3432 19.9492ZM7.34375 11.25H10.9297V10.25H7.34375V11.25ZM10.5955 11.1219L19.4285 19.0584L20.0969 18.3146L11.2639 10.3781L10.5955 11.1219ZM20.1027 19.0531L28.6589 11.1166L27.9788 10.3834L19.4227 18.3199L20.1027 19.0531ZM28.3188 11.25H31.9048V10.25H28.3188V11.25ZM31.5646 10.3836L21.255 19.9549L21.9354 20.6877L32.245 11.1164L31.5646 10.3836ZM14.9375 60.1406V59.6406H14.4375V60.1406H14.9375ZM25.0625 60.1406H25.5625V59.6406H25.0625V60.1406ZM25.0625 62.25V62.75H25.5625V62.25H25.0625ZM14.9375 62.25H14.4375V62.75H14.9375V62.25ZM14.9375 60.6406H25.0625V59.6406H14.9375V60.6406ZM24.5625 60.1406V62.25H25.5625V60.1406H24.5625ZM25.0625 61.75H14.9375V62.75H25.0625V61.75ZM15.4375 62.25V60.1406H14.4375V62.25H15.4375ZM18.7344 86.75V86.25H18.2344V86.75H18.7344ZM21.2656 86.75H21.7656V86.25H21.2656V86.75ZM21.2656 107V107.5H21.7656V107H21.2656ZM18.7344 107H18.2344V107.5H18.7344V107ZM18.7344 87.25H21.2656V86.25H18.7344V87.25ZM20.7656 86.75V107H21.7656V86.75H20.7656ZM21.2656 106.5H18.7344V107.5H21.2656V106.5ZM19.2344 107V86.75H18.2344V107H19.2344ZM27.7124 124.618L27.6222 125.11L27.6269 125.111L27.7124 124.618ZM30.3359 125.475L30.0903 125.911L30.0945 125.913L30.3359 125.475ZM32.7222 128.956L32.2332 129.06L32.2343 129.065L32.7222 128.956ZM33.0254 131.605L32.5256 131.619L32.5257 131.623L33.0254 131.605ZM33.0254 138.145L32.5257 138.127L32.5256 138.131L33.0254 138.145ZM32.7222 140.794L32.2343 140.685L32.2332 140.69L32.7222 140.794ZM30.3359 144.288L30.5773 144.726L30.5816 144.724L30.3359 144.288ZM27.7124 145.132L27.6269 144.639L27.6222 144.64L27.7124 145.132ZM12.2744 145.132L12.3639 144.64L12.3606 144.639L12.2744 145.132ZM9.66406 144.288L9.41839 144.724L9.42267 144.726L9.66406 144.288ZM8.06885 142.838L7.64699 143.106L7.64992 143.111L8.06885 142.838ZM7.25146 140.794L6.76246 140.899L6.76363 140.904L7.25146 140.794ZM7.25146 128.956L6.7636 128.846L6.76248 128.851L7.25146 128.956ZM8.06885 126.912L7.64989 126.639L7.64702 126.644L8.06885 126.912ZM9.66406 125.475L9.90546 125.913L9.90972 125.911L9.66406 125.475ZM12.2744 124.618L12.3606 125.111L12.3639 125.11L12.2744 124.618ZM26.6313 143.22L26.6714 143.719L26.6766 143.718L26.6313 143.22ZM30.5073 138.145L30.0075 138.13L30.0074 138.135L30.5073 138.145ZM30.5073 131.619L30.0074 131.628L30.0075 131.633L30.5073 131.619ZM30.2964 129.312L29.8058 129.408L30.2964 129.312ZM28.543 126.938L28.353 127.401L28.3559 127.402L28.543 126.938ZM26.6445 126.543L26.5987 127.041L26.6049 127.041L26.6445 126.543ZM13.3423 126.543L13.3824 127.041L13.3876 127.041L13.3423 126.543ZM9.47949 131.619L9.9794 131.628L9.9794 131.628L9.47949 131.619ZM9.47949 138.145L8.97956 138.154L8.9797 138.159L9.47949 138.145ZM10.2837 141.941L9.87358 142.228L9.8781 142.234L10.2837 141.941ZM13.3423 143.22L13.2965 143.718L13.3026 143.719L13.3423 143.22ZM23.8101 124.828C25.3387 124.828 26.6072 124.924 27.6222 125.11L27.8026 124.126C26.7083 123.926 25.3751 123.828 23.8101 123.828V124.828ZM27.6269 125.111C28.6535 125.289 29.4691 125.56 30.0903 125.911L30.5816 125.04C29.8316 124.617 28.8982 124.316 27.7979 124.126L27.6269 125.111ZM30.0945 125.913C30.717 126.256 31.1779 126.68 31.4961 127.181L32.3398 126.644C31.9197 125.984 31.326 125.45 30.5773 125.037L30.0945 125.913ZM31.4961 127.181C31.8285 127.703 32.0766 128.327 32.2332 129.06L33.2111 128.851C33.0337 128.02 32.7457 127.281 32.3398 126.644L31.4961 127.181ZM32.2343 129.065C32.4016 129.81 32.4999 130.66 32.5256 131.619L33.5252 131.592C33.4982 130.582 33.3943 129.666 33.21 128.846L32.2343 129.065ZM32.5257 131.623C32.5606 132.601 32.5781 133.684 32.5781 134.875H33.5781C33.5781 133.675 33.5605 132.579 33.5251 131.588L32.5257 131.623ZM32.5781 134.875C32.5781 136.066 32.5606 137.149 32.5257 138.127L33.5251 138.162C33.5605 137.171 33.5781 136.075 33.5781 134.875H32.5781ZM32.5256 138.131C32.4999 139.09 32.4016 139.94 32.2343 140.685L33.21 140.904C33.3943 140.084 33.4982 139.168 33.5252 138.158L32.5256 138.131ZM32.2332 140.69C32.0766 141.423 31.8285 142.047 31.4961 142.569L32.3398 143.106C32.7457 142.469 33.0337 141.73 33.2111 140.899L32.2332 140.69ZM31.4961 142.569C31.1771 143.071 30.7147 143.5 30.0903 143.853L30.5816 144.724C31.3283 144.302 31.9205 143.765 32.3398 143.106L31.4961 142.569ZM30.0945 143.85C29.4721 144.193 28.6549 144.461 27.6269 144.639L27.7979 145.624C28.8968 145.434 29.8287 145.139 30.5773 144.726L30.0945 143.85ZM27.6222 144.64C26.6072 144.826 25.3387 144.922 23.8101 144.922V145.922C25.3751 145.922 26.7083 145.824 27.8026 145.624L27.6222 144.64ZM23.8101 144.922H16.1899V145.922H23.8101V144.922ZM16.1899 144.922C14.6614 144.922 13.3882 144.826 12.3639 144.64L12.185 145.624C13.2876 145.824 14.6247 145.922 16.1899 145.922V144.922ZM12.3606 144.639C11.3417 144.461 10.5285 144.194 9.90545 143.85L9.42267 144.726C10.1707 145.138 11.0977 145.434 12.1882 145.624L12.3606 144.639ZM9.90972 143.853C9.28449 143.5 8.81617 143.069 8.48778 142.565L7.64992 143.111C8.07739 143.767 8.67254 144.303 9.4184 144.724L9.90972 143.853ZM8.49068 142.569C8.15722 142.045 7.90448 141.42 7.7393 140.685L6.76363 140.904C6.95001 141.733 7.24219 142.47 7.64702 143.106L8.49068 142.569ZM7.74045 140.69C7.58111 139.944 7.48697 139.092 7.46125 138.131L6.46161 138.158C6.48861 139.166 6.58784 140.081 6.76248 140.899L7.74045 140.69ZM7.46125 138.131C7.43502 137.152 7.42188 136.067 7.42188 134.875H6.42188C6.42188 136.074 6.4351 137.168 6.46161 138.158L7.46125 138.131ZM7.42188 134.875C7.42188 133.683 7.43502 132.598 7.46125 131.619L6.46161 131.592C6.4351 132.582 6.42188 133.676 6.42188 134.875H7.42188ZM7.46125 131.619C7.48697 130.658 7.58111 129.806 7.74045 129.06L6.76248 128.851C6.58784 129.669 6.48861 130.584 6.46161 131.592L7.46125 131.619ZM7.7393 129.065C7.90448 128.33 8.15722 127.705 8.49068 127.181L7.64702 126.644C7.24219 127.28 6.95001 128.017 6.76363 128.846L7.7393 129.065ZM8.48778 127.185C8.81538 126.682 9.28221 126.257 9.90545 125.913L9.42267 125.037C8.67482 125.45 8.07818 125.982 7.64992 126.639L8.48778 127.185ZM9.90972 125.911C10.5315 125.56 11.3431 125.289 12.3606 125.111L12.1882 124.126C11.0963 124.317 10.1677 124.617 9.4184 125.04L9.90972 125.911ZM12.3639 125.11C13.3882 124.924 14.6614 124.828 16.1899 124.828V123.828C14.6247 123.828 13.2876 123.926 12.185 124.126L12.3639 125.11ZM16.1899 124.828H23.8101V123.828H16.1899V124.828ZM23.8101 143.812C24.9342 143.812 25.889 143.782 26.6714 143.719L26.5912 142.722C25.8444 142.782 24.9183 142.812 23.8101 142.812V143.812ZM26.6766 143.718C27.4794 143.645 28.1687 143.502 28.7301 143.275L28.3559 142.348C27.9153 142.526 27.3302 142.655 26.5861 142.722L26.6766 143.718ZM28.7301 143.275C29.3043 143.043 29.7727 142.7 30.1087 142.234L29.2975 141.649C29.0886 141.939 28.7836 142.175 28.3559 142.348L28.7301 143.275ZM30.1087 142.234C30.4356 141.78 30.6548 141.206 30.7869 140.535L29.8058 140.342C29.6919 140.919 29.5155 141.347 29.2975 141.649L30.1087 142.234ZM30.7869 140.535C30.9175 139.873 30.9893 139.078 31.0072 138.154L30.0074 138.135C29.9902 139.022 29.9214 139.756 29.8058 140.342L30.7869 140.535ZM31.0071 138.159C31.0337 137.239 31.0469 136.144 31.0469 134.875H30.0469C30.0469 136.137 30.0337 137.222 30.0075 138.13L31.0071 138.159ZM31.0469 134.875C31.0469 133.606 31.0337 132.516 31.0071 131.604L30.0075 131.633C30.0337 132.532 30.0469 133.612 30.0469 134.875H31.0469ZM31.0072 131.609C30.9893 130.677 30.9175 129.877 30.7869 129.215L29.8058 129.408C29.9214 129.994 29.9902 130.732 30.0074 131.628L31.0072 131.609ZM30.7869 129.215C30.6548 128.544 30.4356 127.97 30.1087 127.516L29.2975 128.101C29.5155 128.403 29.6919 128.831 29.8058 129.408L30.7869 129.215ZM30.1087 127.516C29.7727 127.05 29.3043 126.707 28.7301 126.475L28.3559 127.402C28.7836 127.575 29.0886 127.811 29.2975 128.101L30.1087 127.516ZM28.7329 126.476C28.1763 126.247 27.4878 126.108 26.6842 126.045L26.6049 127.041C27.3481 127.101 27.9253 127.225 28.353 127.401L28.7329 126.476ZM26.6903 126.045C25.9052 125.973 24.944 125.938 23.8101 125.938V126.938C24.9261 126.938 25.8545 126.972 26.5987 127.041L26.6903 126.045ZM23.8101 125.938H16.1899V126.938H23.8101V125.938ZM16.1899 125.938C15.0559 125.938 14.0905 125.973 13.297 126.045L13.3876 127.041C14.1409 126.972 15.074 126.938 16.1899 126.938V125.938ZM13.3022 126.045C12.5064 126.109 11.8198 126.248 11.2568 126.475L11.6309 127.402C12.0698 127.225 12.6488 127.1 13.3824 127.041L13.3022 126.045ZM11.2568 126.475C10.6825 126.707 10.2141 127.05 9.8781 127.516L10.6893 128.101C10.8982 127.811 11.2033 127.575 11.6309 127.402L11.2568 126.475ZM9.8781 127.516C9.55117 127.97 9.33205 128.544 9.19988 129.215L10.181 129.408C10.2949 128.831 10.4713 128.403 10.6893 128.101L9.8781 127.516ZM9.19988 129.215C9.06931 129.877 8.9975 130.677 8.97958 131.609L9.9794 131.628C9.99664 130.732 10.0655 129.994 10.181 129.408L9.19988 129.215ZM8.97959 131.609C8.96193 132.518 8.95312 133.607 8.95312 134.875H9.95312C9.95312 133.611 9.9619 132.529 9.9794 131.628L8.97959 131.609ZM8.95312 134.875C8.95312 136.143 8.96193 137.236 8.97958 138.154L9.9794 138.135C9.9619 137.225 9.95312 136.139 9.95312 134.875H8.95312ZM8.9797 138.159C9.00657 139.081 9.08296 139.875 9.21306 140.535L10.1942 140.342C10.0782 139.754 10.0052 139.018 9.97928 138.13L8.9797 138.159ZM9.21306 140.535C9.34474 141.203 9.55825 141.775 9.87363 142.227L10.6938 141.655C10.4818 141.352 10.3086 140.922 10.1942 140.342L9.21306 140.535ZM9.8781 142.234C10.2141 142.7 10.6825 143.043 11.2568 143.275L11.6309 142.348C11.2033 142.175 10.8982 141.939 10.6893 141.649L9.8781 142.234ZM11.2568 143.275C11.8175 143.501 12.502 143.645 13.2965 143.718L13.3881 142.722C12.6533 142.655 12.0721 142.526 11.6309 142.348L11.2568 143.275ZM13.3026 143.719C14.0937 143.782 15.057 143.812 16.1899 143.812V142.812C15.0729 142.812 14.1378 142.782 13.3819 142.722L13.3026 143.719ZM16.1899 143.812H23.8101V142.812H16.1899V143.812ZM31.3906 162.75H31.8906V162.25H31.3906V162.75ZM31.3906 164.859V165.359H31.8906V164.859H31.3906ZM21.2656 164.859V164.359H20.7656V164.859H21.2656ZM21.2656 183V183.5H21.7656V183H21.2656ZM18.7344 183H18.2344V183.5H18.7344V183ZM18.7344 164.859H19.2344V164.359H18.7344V164.859ZM8.60938 164.859H8.10938V165.359H8.60938V164.859ZM8.60938 162.75V162.25H8.10938V162.75H8.60938ZM30.8906 162.75V164.859H31.8906V162.75H30.8906ZM31.3906 164.359H21.2656V165.359H31.3906V164.359ZM20.7656 164.859V183H21.7656V164.859H20.7656ZM21.2656 182.5H18.7344V183.5H21.2656V182.5ZM19.2344 183V164.859H18.2344V183H19.2344ZM18.7344 164.359H8.60938V165.359H18.7344V164.359ZM9.10938 164.859V162.75H8.10938V164.859H9.10938ZM8.60938 163.25H31.3906V162.25H8.60938V163.25ZM28.0156 216.359L28.4546 216.12L28.3124 215.859H28.0156V216.359ZM11.9844 216.359V215.859H11.6876L11.5454 216.12L11.9844 216.359ZM9.45312 221V221.5H9.74994L9.89207 221.239L9.45312 221ZM6.5 221L6.06811 220.748L5.62948 221.5H6.5V221ZM18.3125 200.75V200.25H18.0253L17.8806 200.498L18.3125 200.75ZM21.6875 200.75L22.1194 200.498L21.9747 200.25H21.6875V200.75ZM33.5 221V221.5H34.3705L33.9319 220.748L33.5 221ZM30.5469 221L30.1079 221.239L30.2501 221.5H30.5469V221ZM26.75 214.25V214.75H27.6116L27.1841 214.002L26.75 214.25ZM20 202.438L20.4341 202.189L20 201.43L19.5659 202.189L20 202.438ZM13.25 214.25L12.8159 214.002L12.3884 214.75H13.25V214.25ZM28.0156 215.859H11.9844V216.859H28.0156V215.859ZM11.5454 216.12L9.01418 220.761L9.89207 221.239L12.4233 216.599L11.5454 216.12ZM9.45312 220.5H6.5V221.5H9.45312V220.5ZM6.93189 221.252L18.7444 201.002L17.8806 200.498L6.06811 220.748L6.93189 221.252ZM18.3125 201.25H21.6875V200.25H18.3125V201.25ZM21.2556 201.002L33.0681 221.252L33.9319 220.748L22.1194 200.498L21.2556 201.002ZM33.5 220.5H30.5469V221.5H33.5V220.5ZM30.9858 220.761L28.4546 216.12L27.5767 216.599L30.1079 221.239L30.9858 220.761ZM27.1841 214.002L20.4341 202.189L19.5659 202.686L26.3159 214.498L27.1841 214.002ZM19.5659 202.189L12.8159 214.002L13.6841 214.498L20.4341 202.686L19.5659 202.189ZM13.25 214.75H26.75V213.75H13.25V214.75Z" fill="black" mask="url(#path-1-outside-1_3911_192)"/>
</g>
<g filter="url(#filter1_d_3911_192)">
<path d="M20.5952 20.3213L32.5 31H28.9141L18.8286 21.9561L9.08594 31H5.5L17.0093 20.3213L6.34375 10.75H9.92969L18.7627 18.6865L27.3188 10.75H30.9048L20.5952 20.3213ZM13.9375 60.1406H24.0625V62.25H13.9375V60.1406ZM17.7344 86.75H20.2656V107H17.7344V86.75ZM22.8101 124.328C24.3569 124.328 25.6577 124.425 26.7124 124.618C27.7759 124.803 28.6504 125.088 29.3359 125.475C30.0215 125.853 30.5488 126.332 30.918 126.912C31.2871 127.492 31.5552 128.173 31.7222 128.956C31.8979 129.738 31.999 130.621 32.0254 131.605C32.0605 132.59 32.0781 133.68 32.0781 134.875C32.0781 136.07 32.0605 137.16 32.0254 138.145C31.999 139.129 31.8979 140.012 31.7222 140.794C31.5552 141.577 31.2871 142.258 30.918 142.838C30.5488 143.418 30.0215 143.901 29.3359 144.288C28.6504 144.666 27.7759 144.947 26.7124 145.132C25.6577 145.325 24.3569 145.422 22.8101 145.422H15.1899C13.6431 145.422 12.3379 145.325 11.2744 145.132C10.2197 144.947 9.34961 144.666 8.66406 144.288C7.97852 143.901 7.44678 143.418 7.06885 142.838C6.69971 142.258 6.42725 141.577 6.25146 140.794C6.08447 140.012 5.98779 139.129 5.96143 138.145C5.93506 137.16 5.92188 136.07 5.92188 134.875C5.92188 133.68 5.93506 132.59 5.96143 131.605C5.98779 130.621 6.08447 129.738 6.25146 128.956C6.42725 128.173 6.69971 127.492 7.06885 126.912C7.44678 126.332 7.97852 125.853 8.66406 125.475C9.34961 125.088 10.2197 124.803 11.2744 124.618C12.3379 124.425 13.6431 124.328 15.1899 124.328H22.8101ZM22.8101 143.312C23.9263 143.312 24.8667 143.282 25.6313 143.22C26.4048 143.15 27.042 143.014 27.543 142.812C28.0439 142.609 28.4307 142.319 28.7031 141.941C28.9756 141.563 29.1733 141.062 29.2964 140.438C29.4194 139.814 29.4897 139.05 29.5073 138.145C29.5337 137.23 29.5469 136.141 29.5469 134.875C29.5469 133.609 29.5337 132.524 29.5073 131.619C29.4897 130.705 29.4194 129.936 29.2964 129.312C29.1733 128.688 28.9756 128.187 28.7031 127.809C28.4307 127.431 28.0439 127.141 27.543 126.938C27.0508 126.736 26.418 126.604 25.6445 126.543C24.8799 126.473 23.9351 126.438 22.8101 126.438H15.1899C14.0649 126.438 13.1157 126.473 12.3423 126.543C11.5776 126.604 10.9448 126.736 10.4438 126.938C9.94287 127.141 9.55615 127.431 9.28369 127.809C9.01123 128.187 8.81348 128.688 8.69043 129.312C8.56738 129.936 8.49707 130.705 8.47949 131.619C8.46191 132.524 8.45312 133.609 8.45312 134.875C8.45312 136.141 8.46191 137.23 8.47949 138.145C8.50586 139.05 8.58057 139.814 8.70361 140.438C8.82666 141.062 9.02002 141.563 9.28369 141.941C9.55615 142.319 9.94287 142.609 10.4438 142.812C10.9448 143.014 11.5776 143.15 12.3423 143.22C13.1157 143.282 14.0649 143.312 15.1899 143.312H22.8101ZM30.3906 162.75V164.859H20.2656V183H17.7344V164.859H7.60938V162.75H30.3906ZM27.0156 216.359H10.9844L8.45312 221H5.5L17.3125 200.75H20.6875L32.5 221H29.5469L27.0156 216.359ZM25.75 214.25L19 202.438L12.25 214.25H25.75Z" fill="black"/>
</g>
<defs>
<filter id="filter0_d_3911_192" x="1.14615" y="10.75" width="37.7077" height="220.958" filterUnits="userSpaceOnUse" color-interpolation-filters="sRGB">
<feFlood flood-opacity="0" result="BackgroundImageFix"/>
<feColorMatrix in="SourceAlpha" type="matrix" values="0 0 0 0 0 0 0 0 0 0 0 0 0 0 0 0 0 0 127 0" result="hardAlpha"/>
<feOffset dy="5.35385"/>
<feGaussianBlur stdDeviation="2.67692"/>
<feComposite in2="hardAlpha" operator="out"/>
<feColorMatrix type="matrix" values="0 0 0 0 0 0 0 0 0 0 0 0 0 0 0 0 0 0 0.25 0"/>
<feBlend mode="normal" in2="BackgroundImageFix" result="effect1_dropShadow_3911_192"/>
<feBlend mode="normal" in="SourceGraphic" in2="effect1_dropShadow_3911_192" result="shape"/>
</filter>
<filter id="filter1_d_3911_192" x="0.146154" y="10.75" width="37.7077" height="220.958" filterUnits="userSpaceOnUse" color-interpolation-filters="sRGB">
<feFlood flood-opacity="0" result="BackgroundImageFix"/>
<feColorMatrix in="SourceAlpha" type="matrix" values="0 0 0 0 0 0 0 0 0 0 0 0 0 0 0 0 0 0 127 0" result="hardAlpha"/>
<feOffset dy="5.35385"/>
<feGaussianBlur stdDeviation="2.67692"/>
<feComposite in2="hardAlpha" operator="out"/>
<feColorMatrix type="matrix" values="0 0 0 0 0 0 0 0 0 0 0 0 0 0 0 0 0 0 0.25 0"/>
<feBlend mode="normal" in2="BackgroundImageFix" result="effect1_dropShadow_3911_192"/>
<feBlend mode="normal" in="SourceGraphic" in2="effect1_dropShadow_3911_192" result="shape"/>
</filter>
</defs>
</svg>
