<svg width="858" height="110" viewBox="0 0 858 110" fill="none" xmlns="http://www.w3.org/2000/svg">
<path d="M0.70166 107V2.75H104.952V13.6094H13.7329V48.3594H100.608V59.2188H13.7329V96.1406H104.952V107H0.70166ZM242.649 2.75H257.852L201.383 107H184.008L127.539 2.75H142.742L192.695 98.3125L242.649 2.75ZM289.127 107V2.75H393.377V13.6094H302.158V48.3594H389.033V59.2188H302.158V96.1406H393.377V107H289.127ZM437.683 107H424.652V2.75H447.524L543.087 93.9688V2.75H556.118V107H538.743L437.683 13.6094V107ZM709.086 2.75V13.6094H656.961V107H643.93V13.6094H591.805V2.75H709.086ZM810.404 48.3594C817.553 48.3594 823.684 48.6535 828.797 49.2417C833.91 49.8299 838.208 50.7122 841.692 51.8887C845.222 53.0199 848.027 54.4451 850.108 56.1646C852.19 57.884 853.796 59.8522 854.927 62.0693C856.058 64.2412 856.782 66.6846 857.099 69.3994C857.461 72.1143 857.642 75.0553 857.642 78.2227C857.642 81.39 857.348 84.3763 856.76 87.1816C856.217 89.9417 855.221 92.4756 853.773 94.7832C852.326 97.0908 850.357 99.1496 847.869 100.959C845.38 102.769 842.213 104.308 838.367 105.575C834.521 106.842 829.883 107.792 824.453 108.425C819.069 109.104 812.757 109.443 805.517 109.443H788.142C781.626 109.443 775.925 109.194 771.039 108.697C766.152 108.199 761.944 107.452 758.415 106.457C754.885 105.416 751.967 104.127 749.659 102.588C747.352 101.005 745.496 99.1722 744.094 97.0908C742.736 94.9642 741.786 92.5661 741.243 89.8965C740.7 87.1816 740.429 84.1953 740.429 80.9375H753.46C753.46 85.0098 754.048 88.1997 755.225 90.5073C756.401 92.8149 758.347 94.557 761.062 95.7334C763.776 96.8646 767.328 97.5885 771.717 97.9053C776.152 98.1768 781.626 98.3125 788.142 98.3125H805.517C813.119 98.3125 819.431 97.9505 824.453 97.2266C829.476 96.5026 833.48 95.3488 836.466 93.7651C839.453 92.1815 841.557 90.1227 842.778 87.5889C844 85.0098 844.611 81.8877 844.611 78.2227C844.611 74.5576 844.181 71.5034 843.321 69.0601C842.507 66.6167 840.855 64.6711 838.367 63.2231C835.923 61.7752 832.462 60.7572 827.982 60.1689C823.503 59.5355 817.643 59.2188 810.404 59.2188H792.486C784.522 59.2188 777.69 58.9246 771.989 58.3364C766.333 57.7482 761.582 56.9111 757.736 55.8252C753.89 54.694 750.813 53.314 748.505 51.6851C746.198 50.0109 744.433 48.1105 743.211 45.9839C742.035 43.8573 741.266 41.5044 740.904 38.9253C740.542 36.3009 740.361 33.473 740.361 30.4414C740.361 27.2741 740.632 24.333 741.175 21.6182C741.764 18.9033 742.827 16.46 744.365 14.2881C745.904 12.071 748.008 10.1027 750.677 8.3833C753.347 6.6639 756.763 5.23861 760.926 4.10742C765.134 2.93099 770.179 2.04867 776.061 1.46045C781.943 0.872233 788.866 0.578125 796.83 0.578125H809.861C816.376 0.578125 822.078 0.826986 826.964 1.32471C831.851 1.77718 836.059 2.52376 839.588 3.56445C843.118 4.5599 846.036 5.82682 848.344 7.36523C850.697 8.8584 852.552 10.6683 853.909 12.7949C855.312 14.8763 856.285 17.2518 856.828 19.9214C857.371 22.591 857.642 25.5547 857.642 28.8125H844.611C844.611 24.7402 844.023 21.5503 842.846 19.2427C841.67 16.9351 839.724 15.2157 837.009 14.0845C834.294 12.908 830.72 12.1841 826.286 11.9126C821.851 11.5959 816.376 11.4375 809.861 11.4375H796.83C788.142 11.4375 780.993 11.7542 775.382 12.3877C769.772 12.9759 765.337 13.994 762.08 15.4419C758.822 16.8898 756.559 18.8354 755.292 21.2788C754.026 23.7222 753.392 26.7764 753.392 30.4414C753.392 32.7038 753.55 34.7173 753.867 36.4819C754.184 38.2466 754.817 39.8076 755.768 41.165C756.763 42.4772 758.143 43.5858 759.908 44.4907C761.672 45.3957 764.003 46.1423 766.898 46.7305C769.794 47.3187 773.324 47.7485 777.486 48.02C781.694 48.2463 786.694 48.3594 792.486 48.3594H810.404Z" fill="white"/>
</svg>
