<!-- <svg width="39" height="232" viewBox="0 0 39 232" fill="none" xmlns="http://www.w3.org/2000/svg"> -->
<svg width="auto" height="auto" viewBox="0 0 39 232" fill="none" xmlns="http://www.w3.org/2000/svg">
<g filter="url(#filter0_d_3943_68)">
<mask id="path-1-outside-1_3943_68" maskUnits="userSpaceOnUse" x="7.00012" y="10" width="27" height="212" fill="black">
<rect fill="white" x="7.00012" y="10" width="27" height="212"/>
<path d="M19.2345 10.75H21.7657V31H19.2345V10.75ZM15.4376 60.1406H25.5626V62.25H15.4376V60.1406ZM30.1901 93.0781C30.1901 92.0234 30.0758 91.1885 29.8473 90.5732C29.6188 89.958 29.2408 89.4922 28.7135 89.1758C28.1862 88.8594 27.4918 88.6572 26.6305 88.5693C25.778 88.4814 24.7189 88.4375 23.4532 88.4375H17.5338C16.4088 88.4375 15.4596 88.4727 14.6862 88.543C13.9215 88.6045 13.2887 88.7363 12.7877 88.9385C12.2867 89.1406 11.9 89.4307 11.6276 89.8086C11.3551 90.1865 11.1573 90.6875 11.0343 91.3115C10.9113 91.9355 10.8409 92.7046 10.8234 93.6187C10.8058 94.5239 10.797 95.6094 10.797 96.875C10.797 98.1406 10.8058 99.2305 10.8234 100.145C10.8497 101.05 10.9244 101.814 11.0475 102.438C11.1705 103.062 11.3639 103.563 11.6276 103.941C11.9 104.319 12.2867 104.609 12.7877 104.812C13.2887 105.014 13.9215 105.15 14.6862 105.22C15.4596 105.282 16.4088 105.312 17.5338 105.312H23.4532C24.4376 105.312 25.2858 105.286 25.9977 105.233C26.7096 105.181 27.316 105.084 27.817 104.943C28.318 104.803 28.7223 104.609 29.0299 104.363C29.3375 104.117 29.5748 103.81 29.7418 103.44C29.9176 103.062 30.0363 102.614 30.0978 102.096C30.1593 101.568 30.1901 100.953 30.1901 100.25H32.7213C32.7213 101.094 32.6686 101.858 32.5631 102.544C32.4576 103.221 32.2687 103.827 31.9962 104.363C31.7325 104.891 31.3766 105.348 30.9283 105.734C30.4801 106.121 29.9132 106.442 29.2277 106.697C28.5421 106.943 27.7247 107.123 26.7755 107.237C25.8263 107.36 24.7189 107.422 23.4532 107.422H17.5338C15.9869 107.422 14.6818 107.325 13.6183 107.132C12.5636 106.947 11.6935 106.666 11.0079 106.288C10.3224 105.901 9.79065 105.418 9.41272 104.838C9.04358 104.258 8.77112 103.577 8.59534 102.794C8.42834 102.012 8.33167 101.129 8.3053 100.145C8.27893 99.1602 8.26575 98.0703 8.26575 96.875C8.26575 95.6797 8.27893 94.5898 8.3053 93.6055C8.33167 92.6211 8.42834 91.7378 8.59534 90.9556C8.77112 90.1733 9.04358 89.4922 9.41272 88.9121C9.79065 88.332 10.3224 87.853 11.0079 87.4751C11.6935 87.0884 12.5636 86.8027 13.6183 86.6182C14.6818 86.4248 15.9869 86.3281 17.5338 86.3281H23.4532C24.7189 86.3281 25.8263 86.3896 26.7755 86.5127C27.7247 86.627 28.5421 86.8071 29.2277 87.0532C29.9132 87.2905 30.4801 87.5938 30.9283 87.9629C31.3766 88.332 31.7325 88.7671 31.9962 89.2681C32.2687 89.769 32.4576 90.3359 32.5631 90.9688C32.6686 91.6016 32.7213 92.3047 32.7213 93.0781H30.1901ZM29.7814 124.75H32.3126V145H29.7814V135.719H11.2189V145H8.68762V124.75H11.2189V133.609H29.7814V124.75ZM19.2345 162.75H21.7657V183H19.2345V162.75ZM9.95325 200.75H25.1671C26.424 200.75 27.483 200.807 28.3444 200.921C29.2145 201.027 29.9308 201.189 30.4933 201.409C31.0558 201.629 31.4865 201.901 31.7853 202.227C32.0929 202.552 32.317 202.934 32.4576 203.374C32.5983 203.813 32.6774 204.305 32.6949 204.85C32.7213 205.395 32.7345 205.997 32.7345 206.656C32.7345 207.342 32.7169 207.975 32.6818 208.555C32.6554 209.135 32.5543 209.662 32.3785 210.137C32.2115 210.603 31.9391 211.016 31.5612 211.376C31.192 211.728 30.6603 212.022 29.9659 212.259C29.2804 212.497 28.4059 212.677 27.3424 212.8C26.2877 212.923 24.9869 212.984 23.4401 212.984H12.4845V221H9.95325V200.75ZM12.4845 210.875H23.4401C24.5651 210.875 25.5099 210.857 26.2745 210.822C27.048 210.778 27.6852 210.704 28.1862 210.598C28.6871 210.493 29.0739 210.343 29.3463 210.15C29.6188 209.957 29.8165 209.702 29.9396 209.385C30.0714 209.069 30.1461 208.691 30.1637 208.251C30.1901 207.803 30.2032 207.271 30.2032 206.656C30.2032 206.085 30.1901 205.593 30.1637 205.18C30.1461 204.767 30.0714 204.419 29.9396 204.138C29.8165 203.857 29.6188 203.633 29.3463 203.466C29.0739 203.299 28.6871 203.171 28.1862 203.083C27.6852 202.987 27.048 202.925 26.2745 202.899C25.5099 202.873 24.5651 202.859 23.4401 202.859H12.4845V210.875Z"/>
</mask>
<path d="M19.2345 10.75V10.25H18.7345V10.75H19.2345ZM21.7657 10.75H22.2657V10.25H21.7657V10.75ZM21.7657 31V31.5H22.2657V31H21.7657ZM19.2345 31H18.7345V31.5H19.2345V31ZM19.2345 11.25H21.7657V10.25H19.2345V11.25ZM21.2657 10.75V31H22.2657V10.75H21.2657ZM21.7657 30.5H19.2345V31.5H21.7657V30.5ZM19.7345 31V10.75H18.7345V31H19.7345ZM15.4376 60.1406V59.6406H14.9376V60.1406H15.4376ZM25.5626 60.1406H26.0626V59.6406H25.5626V60.1406ZM25.5626 62.25V62.75H26.0626V62.25H25.5626ZM15.4376 62.25H14.9376V62.75H15.4376V62.25ZM15.4376 60.6406H25.5626V59.6406H15.4376V60.6406ZM25.0626 60.1406V62.25H26.0626V60.1406H25.0626ZM25.5626 61.75H15.4376V62.75H25.5626V61.75ZM15.9376 62.25V60.1406H14.9376V62.25H15.9376ZM30.1901 93.0781H29.6901V93.5781H30.1901V93.0781ZM29.8473 90.5732L30.316 90.3991L29.8473 90.5732ZM26.6305 88.5693L26.5792 89.0667L26.5797 89.0668L26.6305 88.5693ZM14.6862 88.543L14.7263 89.0414L14.7314 89.0409L14.6862 88.543ZM10.8234 93.6187L11.3233 93.6284L11.3233 93.6283L10.8234 93.6187ZM10.8234 100.145L10.3234 100.154L10.3236 100.159L10.8234 100.145ZM11.6276 103.941L11.2175 104.228L11.222 104.234L11.6276 103.941ZM14.6862 105.22L14.6404 105.718L14.6465 105.719L14.6862 105.22ZM29.7418 103.44L29.2884 103.23L29.2863 103.234L29.7418 103.44ZM30.0978 102.096L30.5943 102.155L30.5944 102.154L30.0978 102.096ZM30.1901 100.25V99.75H29.6901V100.25H30.1901ZM32.7213 100.25H33.2213V99.75H32.7213V100.25ZM32.5631 102.544L33.0571 102.621L33.0573 102.62L32.5631 102.544ZM31.9962 104.363L31.5505 104.137L31.549 104.14L31.9962 104.363ZM29.2277 106.697L29.3966 107.167L29.4019 107.165L29.2277 106.697ZM26.7755 107.237L26.7158 106.741L26.7112 106.741L26.7755 107.237ZM13.6183 107.132L13.7077 106.64L13.7045 106.639L13.6183 107.132ZM11.0079 106.288L10.7623 106.724L10.7665 106.726L11.0079 106.288ZM9.41272 104.838L8.99086 105.106L8.99379 105.111L9.41272 104.838ZM8.59534 102.794L8.10633 102.899L8.1075 102.904L8.59534 102.794ZM8.59534 90.9556L8.10747 90.8459L8.10636 90.8512L8.59534 90.9556ZM9.41272 88.9121L8.99376 88.6392L8.99089 88.6437L9.41272 88.9121ZM11.0079 87.4751L11.2493 87.913L11.2536 87.9106L11.0079 87.4751ZM13.6183 86.6182L13.7045 87.1107L13.7077 87.1101L13.6183 86.6182ZM26.7755 86.5127L26.7112 87.0086L26.7158 87.0091L26.7755 86.5127ZM29.2277 87.0532L29.0587 87.5239L29.0641 87.5257L29.2277 87.0532ZM31.9962 89.2681L31.5537 89.501L31.557 89.507L31.9962 89.2681ZM32.7213 93.0781V93.5781H33.2213V93.0781H32.7213ZM30.6901 93.0781C30.6901 91.9956 30.5739 91.0936 30.316 90.3991L29.3786 90.7473C29.5777 91.2834 29.6901 92.0513 29.6901 93.0781H30.6901ZM30.316 90.3991C30.0508 89.6852 29.6022 89.1259 28.9707 88.747L28.4563 89.6045C28.8794 89.8584 29.1867 90.2309 29.3786 90.7473L30.316 90.3991ZM28.9707 88.747C28.3602 88.3807 27.5878 88.1644 26.6813 88.0719L26.5797 89.0668C27.3958 89.15 28.0121 89.338 28.4563 89.6045L28.9707 88.747ZM26.6818 88.072C25.8063 87.9817 24.7288 87.9375 23.4532 87.9375V88.9375C24.709 88.9375 25.7497 88.9812 26.5792 89.0667L26.6818 88.072ZM23.4532 87.9375H17.5338V88.9375H23.4532V87.9375ZM17.5338 87.9375C16.3998 87.9375 15.4344 87.9729 14.6409 88.045L14.7314 89.0409C15.4848 88.9724 16.4179 88.9375 17.5338 88.9375V87.9375ZM14.6461 88.0446C13.8503 88.1086 13.1637 88.2476 12.6006 88.4748L12.9748 89.4022C13.4137 89.2251 13.9927 89.1004 14.7263 89.0414L14.6461 88.0446ZM12.6006 88.4748C12.0263 88.7065 11.558 89.0501 11.222 89.5162L12.0332 90.101C12.2421 89.8112 12.5471 89.5747 12.9748 89.4022L12.6006 88.4748ZM11.222 89.5162C10.895 89.9697 10.6759 90.5445 10.5437 91.2148L11.5249 91.4083C11.6388 90.8305 11.8152 90.4034 12.0332 90.101L11.222 89.5162ZM10.5437 91.2148C10.4132 91.877 10.3414 92.6772 10.3235 93.609L11.3233 93.6283C11.3405 92.732 11.4093 91.9941 11.5249 91.4083L10.5437 91.2148ZM10.3235 93.6089C10.3058 94.5184 10.297 95.6073 10.297 96.875H11.297C11.297 95.6114 11.3058 94.5294 11.3233 93.6284L10.3235 93.6089ZM10.297 96.875C10.297 98.1427 10.3058 99.2359 10.3235 100.154L11.3233 100.135C11.3058 99.225 11.297 98.1385 11.297 96.875H10.297ZM10.3236 100.159C10.3504 101.081 10.4268 101.875 10.5569 102.535L11.538 102.342C11.422 101.754 11.349 101.018 11.3232 100.13L10.3236 100.159ZM10.5569 102.535C10.6886 103.203 10.9021 103.775 11.2175 104.227L12.0376 103.655C11.8257 103.352 11.6525 102.922 11.538 102.342L10.5569 102.535ZM11.222 104.234C11.558 104.7 12.0263 105.043 12.6006 105.275L12.9748 104.348C12.5471 104.175 12.2421 103.939 12.0332 103.649L11.222 104.234ZM12.6006 105.275C13.1614 105.501 13.8459 105.645 14.6404 105.718L14.7319 104.722C13.9972 104.655 13.416 104.526 12.9748 104.348L12.6006 105.275ZM14.6465 105.719C15.4375 105.782 16.4009 105.812 17.5338 105.812V104.812C16.4167 104.812 15.4816 104.782 14.7258 104.722L14.6465 105.719ZM17.5338 105.812H23.4532V104.812H17.5338V105.812ZM23.4532 105.812C24.4457 105.812 25.3068 105.786 26.0346 105.732L25.9607 104.735C25.2647 104.786 24.4295 104.812 23.4532 104.812V105.812ZM26.0346 105.732C26.7684 105.678 27.4098 105.577 27.9521 105.425L27.6819 104.462C27.2223 104.591 26.6508 104.684 25.9607 104.735L26.0346 105.732ZM27.9521 105.425C28.498 105.272 28.9684 105.053 29.3423 104.754L28.7176 103.973C28.4762 104.166 28.138 104.334 27.6819 104.462L27.9521 105.425ZM29.3423 104.754C29.7133 104.457 29.9988 104.085 30.1974 103.647L29.2863 103.234C29.1508 103.534 28.9618 103.777 28.7176 103.973L29.3423 104.754ZM30.1952 103.651C30.3981 103.215 30.528 102.713 30.5943 102.155L29.6013 102.037C29.5445 102.515 29.4371 102.91 29.2885 103.23L30.1952 103.651ZM30.5944 102.154C30.6588 101.602 30.6901 100.967 30.6901 100.25H29.6901C29.6901 100.94 29.6598 101.535 29.6011 102.038L30.5944 102.154ZM30.1901 100.75H32.7213V99.75H30.1901V100.75ZM32.2213 100.25C32.2213 101.074 32.1698 101.812 32.0689 102.468L33.0573 102.62C33.1674 101.905 33.2213 101.114 33.2213 100.25H32.2213ZM32.0691 102.467C31.9706 103.099 31.796 103.654 31.5505 104.137L32.442 104.59C32.7414 104.001 32.9447 103.343 33.0571 102.621L32.0691 102.467ZM31.549 104.14C31.315 104.608 31.0001 105.012 30.6017 105.356L31.255 106.113C31.753 105.683 32.1501 105.174 32.4434 104.587L31.549 104.14ZM30.6017 105.356C30.2077 105.696 29.6959 105.989 29.0534 106.228L29.4019 107.165C30.1305 106.895 30.7525 106.546 31.255 106.113L30.6017 105.356ZM29.0587 106.226C28.4175 106.456 27.6386 106.63 26.7158 106.741L26.8353 107.734C27.8109 107.616 28.6668 107.429 29.3966 107.167L29.0587 106.226ZM26.7112 106.741C25.7889 106.861 24.7038 106.922 23.4532 106.922V107.922C24.734 107.922 25.8637 107.86 26.8398 107.733L26.7112 106.741ZM23.4532 106.922H17.5338V107.922H23.4532V106.922ZM17.5338 106.922C16.0053 106.922 14.7321 106.826 13.7077 106.64L13.5288 107.624C14.6314 107.824 15.9686 107.922 17.5338 107.922V106.922ZM13.7045 106.639C12.6856 106.461 11.8724 106.194 11.2493 105.85L10.7665 106.726C11.5146 107.138 12.4416 107.434 13.5321 107.624L13.7045 106.639ZM11.2536 105.853C10.6284 105.5 10.16 105.069 9.83165 104.565L8.99379 105.111C9.42126 105.767 10.0164 106.303 10.7623 106.724L11.2536 105.853ZM9.83455 104.569C9.50109 104.045 9.24835 103.42 9.08317 102.685L8.1075 102.904C8.29389 103.733 8.58606 104.47 8.99089 105.106L9.83455 104.569ZM9.08432 102.69C8.92498 101.944 8.83085 101.092 8.80512 100.131L7.80548 100.158C7.83248 101.166 7.93171 102.081 8.10636 102.899L9.08432 102.69ZM8.80512 100.131C8.77889 99.1521 8.76575 98.0668 8.76575 96.875H7.76575C7.76575 98.0739 7.77897 99.1683 7.80548 100.158L8.80512 100.131ZM8.76575 96.875C8.76575 95.6832 8.77889 94.5979 8.80512 93.6189L7.80548 93.5921C7.77897 94.5817 7.76575 95.6761 7.76575 96.875H8.76575ZM8.80512 93.6189C8.83085 92.6584 8.92498 91.8063 9.08432 91.06L8.10636 90.8512C7.93171 91.6693 7.83248 92.5838 7.80548 93.5921L8.80512 93.6189ZM9.08317 91.0652C9.24835 90.3301 9.50109 89.7046 9.83455 89.1805L8.99089 88.6437C8.58606 89.2798 8.29389 90.0165 8.1075 90.8459L9.08317 91.0652ZM9.83165 89.185C10.1592 88.6822 10.6261 88.2565 11.2493 87.913L10.7665 87.0372C10.0187 87.4495 9.42205 87.9818 8.99379 88.6392L9.83165 89.185ZM11.2536 87.9106C11.8753 87.5599 12.687 87.2887 13.7045 87.1107L13.5321 86.1256C12.4402 86.3167 11.5116 86.6169 10.7623 87.0396L11.2536 87.9106ZM13.7077 87.1101C14.7321 86.9239 16.0053 86.8281 17.5338 86.8281V85.8281C15.9686 85.8281 14.6314 85.9258 13.5288 86.1262L13.7077 87.1101ZM17.5338 86.8281H23.4532V85.8281H17.5338V86.8281ZM23.4532 86.8281C24.7038 86.8281 25.7889 86.889 26.7112 87.0085L26.8398 86.0168C25.8637 85.8903 24.734 85.8281 23.4532 85.8281V86.8281ZM26.7158 87.0091C27.6386 87.1202 28.4175 87.2936 29.0587 87.5238L29.3966 86.5826C28.6668 86.3206 27.8109 86.1337 26.8353 86.0163L26.7158 87.0091ZM29.0641 87.5257C29.7069 87.7482 30.218 88.0256 30.6105 88.3489L31.2462 87.5769C30.7422 87.1619 30.1195 86.8328 29.3912 86.5807L29.0641 87.5257ZM30.6105 88.3489C31.0088 88.6769 31.3218 89.0603 31.5538 89.5009L32.4387 89.0352C32.1432 88.4739 31.7444 87.9872 31.2462 87.5769L30.6105 88.3489ZM31.557 89.507C31.7998 89.9534 31.9725 90.4662 32.0699 91.0509L33.0563 90.8866C32.9428 90.2057 32.7376 89.5847 32.4355 89.0292L31.557 89.507ZM32.0699 91.0509C32.17 91.6517 32.2213 92.3268 32.2213 93.0781H33.2213C33.2213 92.2825 33.1671 91.5514 33.0563 90.8866L32.0699 91.0509ZM32.7213 92.5781H30.1901V93.5781H32.7213V92.5781ZM29.7814 124.75V124.25H29.2814V124.75H29.7814ZM32.3126 124.75H32.8126V124.25H32.3126V124.75ZM32.3126 145V145.5H32.8126V145H32.3126ZM29.7814 145H29.2814V145.5H29.7814V145ZM29.7814 135.719H30.2814V135.219H29.7814V135.719ZM11.2189 135.719V135.219H10.7189V135.719H11.2189ZM11.2189 145V145.5H11.7189V145H11.2189ZM8.68762 145H8.18762V145.5H8.68762V145ZM8.68762 124.75V124.25H8.18762V124.75H8.68762ZM11.2189 124.75H11.7189V124.25H11.2189V124.75ZM11.2189 133.609H10.7189V134.109H11.2189V133.609ZM29.7814 133.609V134.109H30.2814V133.609H29.7814ZM29.7814 125.25H32.3126V124.25H29.7814V125.25ZM31.8126 124.75V145H32.8126V124.75H31.8126ZM32.3126 144.5H29.7814V145.5H32.3126V144.5ZM30.2814 145V135.719H29.2814V145H30.2814ZM29.7814 135.219H11.2189V136.219H29.7814V135.219ZM10.7189 135.719V145H11.7189V135.719H10.7189ZM11.2189 144.5H8.68762V145.5H11.2189V144.5ZM9.18762 145V124.75H8.18762V145H9.18762ZM8.68762 125.25H11.2189V124.25H8.68762V125.25ZM10.7189 124.75V133.609H11.7189V124.75H10.7189ZM11.2189 134.109H29.7814V133.109H11.2189V134.109ZM30.2814 133.609V124.75H29.2814V133.609H30.2814ZM19.2345 162.75V162.25H18.7345V162.75H19.2345ZM21.7657 162.75H22.2657V162.25H21.7657V162.75ZM21.7657 183V183.5H22.2657V183H21.7657ZM19.2345 183H18.7345V183.5H19.2345V183ZM19.2345 163.25H21.7657V162.25H19.2345V163.25ZM21.2657 162.75V183H22.2657V162.75H21.2657ZM21.7657 182.5H19.2345V183.5H21.7657V182.5ZM19.7345 183V162.75H18.7345V183H19.7345ZM9.95325 200.75V200.25H9.45325V200.75H9.95325ZM28.3444 200.921L28.2786 201.417L28.2842 201.418L28.3444 200.921ZM31.7853 202.227L31.4171 202.565L31.422 202.57L31.7853 202.227ZM32.6949 204.85L32.1951 204.866L32.1955 204.874L32.6949 204.85ZM32.6818 208.555L32.1826 208.524L32.1823 208.532L32.6818 208.555ZM32.3785 210.137L31.9096 209.963L31.9079 209.968L32.3785 210.137ZM31.5612 211.376L31.906 211.738L31.9062 211.738L31.5612 211.376ZM29.9659 212.259L29.8042 211.786L29.8024 211.787L29.9659 212.259ZM27.3424 212.8L27.2849 212.303L27.2845 212.303L27.3424 212.8ZM12.4845 212.984V212.484H11.9845V212.984H12.4845ZM12.4845 221V221.5H12.9845V221H12.4845ZM9.95325 221H9.45325V221.5H9.95325V221ZM12.4845 210.875H11.9845V211.375H12.4845V210.875ZM26.2745 210.822L26.2975 211.322L26.3029 211.321L26.2745 210.822ZM29.9396 209.385L29.4779 209.193L29.4736 209.204L29.9396 209.385ZM30.1637 208.251L29.6645 208.222L29.6641 208.231L30.1637 208.251ZM30.1637 205.18L29.664 205.201L29.6647 205.212L30.1637 205.18ZM29.9396 204.138L29.4813 204.339L29.4868 204.35L29.9396 204.138ZM28.1862 203.083L28.0914 203.575L28.0998 203.576L28.1862 203.083ZM26.2745 202.899L26.2573 203.399L26.2575 203.399L26.2745 202.899ZM12.4845 202.859V202.359H11.9845V202.859H12.4845ZM9.95325 201.25H25.1671V200.25H9.95325V201.25ZM25.1671 201.25C26.4107 201.25 27.4463 201.307 28.2786 201.417L28.4101 200.426C27.5197 200.308 26.4372 200.25 25.1671 200.25V201.25ZM28.2842 201.418C29.1296 201.52 29.8012 201.676 30.3114 201.875L30.6752 200.943C30.0603 200.703 29.2994 200.533 28.4045 200.425L28.2842 201.418ZM30.3114 201.875C30.8276 202.077 31.1852 202.312 31.4171 202.565L32.1534 201.888C31.7877 201.49 31.284 201.181 30.6752 200.943L30.3114 201.875ZM31.422 202.57C31.6765 202.839 31.8629 203.156 31.9814 203.526L32.9339 203.221C32.7711 202.713 32.5093 202.264 32.1485 201.883L31.422 202.57ZM31.9814 203.526C32.1057 203.914 32.1789 204.359 32.1952 204.866L33.1947 204.834C33.1759 204.251 33.0909 203.712 32.9339 203.221L31.9814 203.526ZM32.1955 204.874C32.2214 205.41 32.2345 206.004 32.2345 206.656H33.2345C33.2345 205.991 33.2212 205.38 33.1944 204.826L32.1955 204.874ZM32.2345 206.656C32.2345 207.333 32.2171 207.956 32.1827 208.524L33.1808 208.585C33.2167 207.993 33.2345 207.35 33.2345 206.656H32.2345ZM32.1823 208.532C32.1579 209.068 32.0651 209.543 31.9097 209.963L32.8474 210.31C33.0436 209.781 33.1529 209.202 33.1812 208.577L32.1823 208.532ZM31.9079 209.968C31.7686 210.356 31.5409 210.704 31.2161 211.014L31.9062 211.738C32.3373 211.327 32.6545 210.849 32.8492 210.305L31.9079 209.968ZM31.2163 211.014C30.9172 211.299 30.458 211.563 29.8042 211.786L30.1276 212.732C30.8625 212.481 31.4668 212.156 31.906 211.738L31.2163 211.014ZM29.8024 211.787C29.1633 212.008 28.3276 212.182 27.2849 212.303L27.3999 213.296C28.4841 213.171 29.3975 212.985 30.1295 212.732L29.8024 211.787ZM27.2845 212.303C26.2555 212.423 24.9755 212.484 23.4401 212.484V213.484C24.9984 213.484 26.3199 213.422 27.4003 213.296L27.2845 212.303ZM23.4401 212.484H12.4845V213.484H23.4401V212.484ZM11.9845 212.984V221H12.9845V212.984H11.9845ZM12.4845 220.5H9.95325V221.5H12.4845V220.5ZM10.4532 221V200.75H9.45325V221H10.4532ZM12.4845 211.375H23.4401V210.375H12.4845V211.375ZM23.4401 211.375C24.5695 211.375 25.5226 211.357 26.2975 211.322L26.2516 210.323C25.4972 210.357 24.5606 210.375 23.4401 210.375V211.375ZM26.3029 211.321C27.0901 211.277 27.7545 211.2 28.2892 211.087L28.0832 210.109C27.6158 210.207 27.0059 210.28 26.2462 210.323L26.3029 211.321ZM28.2892 211.087C28.8251 210.975 29.2857 210.806 29.6357 210.558L29.0569 209.742C28.862 209.88 28.5492 210.011 28.0832 210.109L28.2892 211.087ZM29.6357 210.558C29.9893 210.307 30.2477 209.972 30.4056 209.566L29.4736 209.204C29.3854 209.431 29.2483 209.606 29.0569 209.742L29.6357 210.558ZM30.4011 209.578C30.5612 209.193 30.644 208.754 30.6633 208.271L29.6641 208.231C29.6482 208.628 29.5816 208.944 29.478 209.193L30.4011 209.578ZM30.6628 208.281C30.6899 207.82 30.7032 207.278 30.7032 206.656H29.7032C29.7032 207.265 29.6902 207.786 29.6646 208.222L30.6628 208.281ZM30.7032 206.656C30.7032 206.078 30.6899 205.575 30.6627 205.148L29.6647 205.212C29.6902 205.611 29.7032 206.092 29.7032 206.656H30.7032ZM30.6632 205.158C30.6437 204.7 30.5599 204.283 30.3923 203.926L29.4868 204.35C29.583 204.555 29.6485 204.833 29.6641 205.201L30.6632 205.158ZM30.3977 203.938C30.2319 203.559 29.9634 203.258 29.6076 203.04L29.085 203.892C29.2741 204.008 29.4012 204.155 29.4815 204.339L30.3977 203.938ZM29.6076 203.04C29.2593 202.826 28.8031 202.684 28.2726 202.591L28.0998 203.576C28.5711 203.659 28.8884 203.772 29.085 203.892L29.6076 203.04ZM28.2809 202.593C27.7448 202.489 27.0792 202.426 26.2916 202.399L26.2575 203.399C27.0167 203.425 27.6256 203.485 28.0914 203.574L28.2809 202.593ZM26.2918 202.399C25.5194 202.373 24.5684 202.359 23.4401 202.359V203.359C24.5617 203.359 25.5004 203.373 26.2573 203.399L26.2918 202.399ZM23.4401 202.359H12.4845V203.359H23.4401V202.359ZM11.9845 202.859V210.875H12.9845V202.859H11.9845Z" fill="black" mask="url(#path-1-outside-1_3943_68)"/>
</g>
<g filter="url(#filter1_d_3943_68)">
<path d="M17.2345 10.75H19.7657V31H17.2345V10.75ZM13.4376 60.1406H23.5626V62.25H13.4376V60.1406ZM28.1901 93.0781C28.1901 92.0234 28.0758 91.1885 27.8473 90.5732C27.6188 89.958 27.2408 89.4922 26.7135 89.1758C26.1862 88.8594 25.4918 88.6572 24.6305 88.5693C23.778 88.4814 22.7189 88.4375 21.4532 88.4375H15.5338C14.4088 88.4375 13.4596 88.4727 12.6862 88.543C11.9215 88.6045 11.2887 88.7363 10.7877 88.9385C10.2867 89.1406 9.90002 89.4307 9.62756 89.8086C9.3551 90.1865 9.15735 90.6875 9.0343 91.3115C8.91125 91.9355 8.84094 92.7046 8.82336 93.6187C8.80579 94.5239 8.797 95.6094 8.797 96.875C8.797 98.1406 8.80579 99.2305 8.82336 100.145C8.84973 101.05 8.92444 101.814 9.04749 102.438C9.17053 103.062 9.36389 103.563 9.62756 103.941C9.90002 104.319 10.2867 104.609 10.7877 104.812C11.2887 105.014 11.9215 105.15 12.6862 105.22C13.4596 105.282 14.4088 105.312 15.5338 105.312H21.4532C22.4376 105.312 23.2858 105.286 23.9977 105.233C24.7096 105.181 25.316 105.084 25.817 104.943C26.318 104.803 26.7223 104.609 27.0299 104.363C27.3375 104.117 27.5748 103.81 27.7418 103.44C27.9176 103.062 28.0363 102.614 28.0978 102.096C28.1593 101.568 28.1901 100.953 28.1901 100.25H30.7213C30.7213 101.094 30.6686 101.858 30.5631 102.544C30.4576 103.221 30.2687 103.827 29.9962 104.363C29.7325 104.891 29.3766 105.348 28.9283 105.734C28.4801 106.121 27.9132 106.442 27.2277 106.697C26.5421 106.943 25.7247 107.123 24.7755 107.237C23.8263 107.36 22.7189 107.422 21.4532 107.422H15.5338C13.9869 107.422 12.6818 107.325 11.6183 107.132C10.5636 106.947 9.69348 106.666 9.00793 106.288C8.32239 105.901 7.79065 105.418 7.41272 104.838C7.04358 104.258 6.77112 103.577 6.59534 102.794C6.42834 102.012 6.33167 101.129 6.3053 100.145C6.27893 99.1602 6.26575 98.0703 6.26575 96.875C6.26575 95.6797 6.27893 94.5898 6.3053 93.6055C6.33167 92.6211 6.42834 91.7378 6.59534 90.9556C6.77112 90.1733 7.04358 89.4922 7.41272 88.9121C7.79065 88.332 8.32239 87.853 9.00793 87.4751C9.69348 87.0884 10.5636 86.8027 11.6183 86.6182C12.6818 86.4248 13.9869 86.3281 15.5338 86.3281H21.4532C22.7189 86.3281 23.8263 86.3896 24.7755 86.5127C25.7247 86.627 26.5421 86.8071 27.2277 87.0532C27.9132 87.2905 28.4801 87.5938 28.9283 87.9629C29.3766 88.332 29.7325 88.7671 29.9962 89.2681C30.2687 89.769 30.4576 90.3359 30.5631 90.9688C30.6686 91.6016 30.7213 92.3047 30.7213 93.0781H28.1901ZM27.7814 124.75H30.3126V145H27.7814V135.719H9.21887V145H6.68762V124.75H9.21887V133.609H27.7814V124.75ZM17.2345 162.75H19.7657V183H17.2345V162.75ZM7.95325 200.75H23.1671C24.424 200.75 25.483 200.807 26.3444 200.921C27.2145 201.027 27.9308 201.189 28.4933 201.409C29.0558 201.629 29.4865 201.901 29.7853 202.227C30.0929 202.552 30.317 202.934 30.4576 203.374C30.5983 203.813 30.6774 204.305 30.6949 204.85C30.7213 205.395 30.7345 205.997 30.7345 206.656C30.7345 207.342 30.7169 207.975 30.6818 208.555C30.6554 209.135 30.5543 209.662 30.3785 210.137C30.2115 210.603 29.9391 211.016 29.5612 211.376C29.192 211.728 28.6603 212.022 27.9659 212.259C27.2804 212.497 26.4059 212.677 25.3424 212.8C24.2877 212.923 22.9869 212.984 21.4401 212.984H10.4845V221H7.95325V200.75ZM10.4845 210.875H21.4401C22.5651 210.875 23.5099 210.857 24.2745 210.822C25.048 210.778 25.6852 210.704 26.1862 210.598C26.6871 210.493 27.0739 210.343 27.3463 210.15C27.6188 209.957 27.8165 209.702 27.9396 209.385C28.0714 209.069 28.1461 208.691 28.1637 208.251C28.1901 207.803 28.2032 207.271 28.2032 206.656C28.2032 206.085 28.1901 205.593 28.1637 205.18C28.1461 204.767 28.0714 204.419 27.9396 204.138C27.8165 203.857 27.6188 203.633 27.3463 203.466C27.0739 203.299 26.6871 203.171 26.1862 203.083C25.6852 202.987 25.048 202.925 24.2745 202.899C23.5099 202.873 22.5651 202.859 21.4401 202.859H10.4845V210.875Z" fill="black"/>
</g>
<defs>
<filter id="filter0_d_3943_68" x="2.9119" y="10.75" width="35.1764" height="220.958" filterUnits="userSpaceOnUse" color-interpolation-filters="sRGB">
<feFlood flood-opacity="0" result="BackgroundImageFix"/>
<feColorMatrix in="SourceAlpha" type="matrix" values="0 0 0 0 0 0 0 0 0 0 0 0 0 0 0 0 0 0 127 0" result="hardAlpha"/>
<feOffset dy="5.35385"/>
<feGaussianBlur stdDeviation="2.67692"/>
<feComposite in2="hardAlpha" operator="out"/>
<feColorMatrix type="matrix" values="0 0 0 0 0 0 0 0 0 0 0 0 0 0 0 0 0 0 0.25 0"/>
<feBlend mode="normal" in2="BackgroundImageFix" result="effect1_dropShadow_3943_68"/>
<feBlend mode="normal" in="SourceGraphic" in2="effect1_dropShadow_3943_68" result="shape"/>
</filter>
<filter id="filter1_d_3943_68" x="0.911901" y="10.75" width="35.1764" height="220.958" filterUnits="userSpaceOnUse" color-interpolation-filters="sRGB">
<feFlood flood-opacity="0" result="BackgroundImageFix"/>
<feColorMatrix in="SourceAlpha" type="matrix" values="0 0 0 0 0 0 0 0 0 0 0 0 0 0 0 0 0 0 127 0" result="hardAlpha"/>
<feOffset dy="5.35385"/>
<feGaussianBlur stdDeviation="2.67692"/>
<feComposite in2="hardAlpha" operator="out"/>
<feColorMatrix type="matrix" values="0 0 0 0 0 0 0 0 0 0 0 0 0 0 0 0 0 0 0.25 0"/>
<feBlend mode="normal" in2="BackgroundImageFix" result="effect1_dropShadow_3943_68"/>
<feBlend mode="normal" in="SourceGraphic" in2="effect1_dropShadow_3943_68" result="shape"/>
</filter>
</defs>
</svg>
