<!-- <svg width="39" height="346" viewBox="0 0 39 346" fill="none" xmlns="http://www.w3.org/2000/svg"> -->
<svg width="auto" height="auto" viewBox="0 0 39 346" fill="none" xmlns="http://www.w3.org/2000/svg">
<g filter="url(#filter0_d_3911_84)">
<mask id="path-1-outside-1_3911_84" maskUnits="userSpaceOnUse" x="5.42261" y="9" width="29" height="327" fill="black">
<rect fill="white" x="5.42261" y="9" width="29" height="327"/>
<path d="M29.6125 17.0781C29.6125 16.0234 29.4983 15.1885 29.2698 14.5732C29.0413 13.958 28.6633 13.4922 28.136 13.1758C27.6086 12.8594 26.9143 12.6572 26.053 12.5693C25.2004 12.4814 24.1414 12.4375 22.8757 12.4375H16.9563C15.8313 12.4375 14.8821 12.4727 14.1086 12.543C13.344 12.6045 12.7112 12.7363 12.2102 12.9385C11.7092 13.1406 11.3225 13.4307 11.05 13.8086C10.7776 14.1865 10.5798 14.6875 10.4568 15.3115C10.3337 15.9355 10.2634 16.7046 10.2458 17.6187C10.2283 18.5239 10.2195 19.6094 10.2195 20.875C10.2195 22.1406 10.2283 23.2305 10.2458 24.1445C10.2722 25.0498 10.3469 25.8145 10.47 26.4385C10.593 27.0625 10.7864 27.5635 11.05 27.9414C11.3225 28.3193 11.7092 28.6094 12.2102 28.8115C12.7112 29.0137 13.344 29.1499 14.1086 29.2202C14.8821 29.2817 15.8313 29.3125 16.9563 29.3125H22.8757C23.8601 29.3125 24.7083 29.2861 25.4202 29.2334C26.1321 29.1807 26.7385 29.084 27.2395 28.9434C27.7405 28.8027 28.1448 28.6094 28.4524 28.3633C28.76 28.1172 28.9973 27.8096 29.1643 27.4404C29.3401 27.0625 29.4587 26.6143 29.5203 26.0957C29.5818 25.5684 29.6125 24.9531 29.6125 24.25H32.1438C32.1438 25.0938 32.0911 25.8584 31.9856 26.5439C31.8801 27.2207 31.6912 27.8271 31.4187 28.3633C31.155 28.8906 30.7991 29.3477 30.3508 29.7344C29.9026 30.1211 29.3357 30.4419 28.6501 30.6968C27.9646 30.9429 27.1472 31.123 26.198 31.2373C25.2488 31.3604 24.1414 31.4219 22.8757 31.4219H16.9563C15.4094 31.4219 14.1042 31.3252 13.0408 31.1318C11.9861 30.9473 11.116 30.666 10.4304 30.2881C9.74487 29.9014 9.21313 29.418 8.83521 28.8379C8.46606 28.2578 8.1936 27.5767 8.01782 26.7944C7.85083 26.0122 7.75415 25.1289 7.72778 24.1445C7.70142 23.1602 7.68823 22.0703 7.68823 20.875C7.68823 19.6797 7.70142 18.5898 7.72778 17.6055C7.75415 16.6211 7.85083 15.7378 8.01782 14.9556C8.1936 14.1733 8.46606 13.4922 8.83521 12.9121C9.21313 12.332 9.74487 11.853 10.4304 11.4751C11.116 11.0884 11.9861 10.8027 13.0408 10.6182C14.1042 10.4248 15.4094 10.3281 16.9563 10.3281H22.8757C24.1414 10.3281 25.2488 10.3896 26.198 10.5127C27.1472 10.627 27.9646 10.8071 28.6501 11.0532C29.3357 11.2905 29.9026 11.5938 30.3508 11.9629C30.7991 12.332 31.155 12.7671 31.4187 13.2681C31.6912 13.769 31.8801 14.3359 31.9856 14.9688C32.0911 15.6016 32.1438 16.3047 32.1438 17.0781H29.6125ZM27.9382 64.3594H11.907L9.37573 69H6.42261L18.2351 48.75H21.6101L33.4226 69H30.4695L27.9382 64.3594ZM26.6726 62.25L19.9226 50.4375L13.1726 62.25H26.6726ZM22.1375 95.6094C23.5261 95.6094 24.717 95.6665 25.7102 95.7808C26.7034 95.895 27.5383 96.0664 28.2151 96.2949C28.9006 96.5146 29.4456 96.7915 29.8499 97.1255C30.2542 97.4595 30.5662 97.8418 30.7859 98.2725C31.0056 98.6943 31.1462 99.1689 31.2078 99.6963C31.2781 100.224 31.3132 100.795 31.3132 101.41C31.3132 102.025 31.2561 102.605 31.1418 103.15C31.0364 103.687 30.843 104.179 30.5618 104.627C30.2805 105.075 29.8982 105.475 29.4148 105.827C28.9314 106.178 28.3162 106.477 27.5691 106.723C26.822 106.969 25.9211 107.154 24.8665 107.277C23.8206 107.409 22.5945 107.475 21.1882 107.475H17.8132C16.5476 107.475 15.4402 107.426 14.491 107.33C13.5417 107.233 12.7244 107.088 12.0388 106.895C11.3533 106.692 10.7864 106.442 10.3381 106.143C9.88989 105.835 9.52954 105.479 9.25708 105.075C8.99341 104.662 8.80884 104.196 8.70337 103.678C8.5979 103.15 8.54517 102.57 8.54517 101.938H11.0764C11.0764 102.729 11.1907 103.348 11.4192 103.796C11.6477 104.245 12.0256 104.583 12.553 104.812C13.0803 105.031 13.7703 105.172 14.6228 105.233C15.4841 105.286 16.5476 105.312 17.8132 105.312H21.1882C22.6648 105.312 23.8909 105.242 24.8665 105.102C25.842 104.961 26.6199 104.737 27.2 104.429C27.78 104.122 28.1887 103.722 28.426 103.229C28.6633 102.729 28.782 102.122 28.782 101.41C28.782 100.698 28.6985 100.105 28.5315 99.6304C28.3733 99.1558 28.0525 98.7778 27.5691 98.4966C27.0945 98.2153 26.4221 98.0176 25.552 97.9033C24.6819 97.7803 23.5437 97.7188 22.1375 97.7188H18.657C17.1101 97.7188 15.783 97.6616 14.6755 97.5474C13.5769 97.4331 12.6541 97.2705 11.907 97.0596C11.1599 96.8398 10.5623 96.5718 10.114 96.2554C9.66577 95.9302 9.323 95.561 9.08569 95.1479C8.85718 94.7349 8.70776 94.2778 8.63745 93.7769C8.56714 93.2671 8.53198 92.7178 8.53198 92.1289C8.53198 91.5137 8.58472 90.9424 8.69019 90.415C8.80444 89.8877 9.01099 89.4131 9.30981 88.9912C9.60864 88.5605 10.0173 88.1782 10.5359 87.8442C11.0544 87.5103 11.718 87.2334 12.5266 87.0137C13.344 86.7852 14.324 86.6138 15.4666 86.4995C16.6091 86.3853 17.9539 86.3281 19.5007 86.3281H22.032C23.2976 86.3281 24.405 86.3765 25.3542 86.4731C26.3035 86.561 27.1208 86.7061 27.8064 86.9082C28.4919 87.1016 29.0588 87.3477 29.5071 87.6465C29.9641 87.9365 30.3245 88.2881 30.5881 88.7012C30.8606 89.1055 31.0496 89.5669 31.155 90.0854C31.2605 90.604 31.3132 91.1797 31.3132 91.8125H28.782C28.782 91.0215 28.6677 90.4019 28.4392 89.9536C28.2107 89.5054 27.8328 89.1714 27.3054 88.9517C26.7781 88.7231 26.0837 88.5825 25.2224 88.5298C24.3611 88.4683 23.2976 88.4375 22.032 88.4375H19.5007C17.8132 88.4375 16.4246 88.499 15.3347 88.6221C14.2449 88.7363 13.3835 88.9341 12.7507 89.2153C12.1179 89.4966 11.6785 89.8745 11.4324 90.3491C11.1863 90.8237 11.0632 91.417 11.0632 92.1289C11.0632 92.5684 11.094 92.9595 11.1555 93.3022C11.217 93.645 11.3401 93.9482 11.5247 94.2119C11.718 94.4668 11.9861 94.6821 12.3289 94.8579C12.6716 95.0337 13.1243 95.1787 13.6868 95.293C14.2493 95.4072 14.9348 95.4907 15.7434 95.5435C16.5608 95.5874 17.532 95.6094 18.657 95.6094H22.1375ZM22.1375 133.609C23.5261 133.609 24.717 133.667 25.7102 133.781C26.7034 133.895 27.5383 134.066 28.2151 134.295C28.9006 134.515 29.4456 134.792 29.8499 135.125C30.2542 135.459 30.5662 135.842 30.7859 136.272C31.0056 136.694 31.1462 137.169 31.2078 137.696C31.2781 138.224 31.3132 138.795 31.3132 139.41C31.3132 140.025 31.2561 140.605 31.1418 141.15C31.0364 141.687 30.843 142.179 30.5618 142.627C30.2805 143.075 29.8982 143.475 29.4148 143.827C28.9314 144.178 28.3162 144.477 27.5691 144.723C26.822 144.969 25.9211 145.154 24.8665 145.277C23.8206 145.409 22.5945 145.475 21.1882 145.475H17.8132C16.5476 145.475 15.4402 145.426 14.491 145.33C13.5417 145.233 12.7244 145.088 12.0388 144.895C11.3533 144.692 10.7864 144.442 10.3381 144.143C9.88989 143.835 9.52954 143.479 9.25708 143.075C8.99341 142.662 8.80884 142.196 8.70337 141.678C8.5979 141.15 8.54517 140.57 8.54517 139.938H11.0764C11.0764 140.729 11.1907 141.348 11.4192 141.796C11.6477 142.245 12.0256 142.583 12.553 142.812C13.0803 143.031 13.7703 143.172 14.6228 143.233C15.4841 143.286 16.5476 143.312 17.8132 143.312H21.1882C22.6648 143.312 23.8909 143.242 24.8665 143.102C25.842 142.961 26.6199 142.737 27.2 142.429C27.78 142.122 28.1887 141.722 28.426 141.229C28.6633 140.729 28.782 140.122 28.782 139.41C28.782 138.698 28.6985 138.105 28.5315 137.63C28.3733 137.156 28.0525 136.778 27.5691 136.497C27.0945 136.215 26.4221 136.018 25.552 135.903C24.6819 135.78 23.5437 135.719 22.1375 135.719H18.657C17.1101 135.719 15.783 135.662 14.6755 135.547C13.5769 135.433 12.6541 135.271 11.907 135.06C11.1599 134.84 10.5623 134.572 10.114 134.255C9.66577 133.93 9.323 133.561 9.08569 133.148C8.85718 132.735 8.70776 132.278 8.63745 131.777C8.56714 131.267 8.53198 130.718 8.53198 130.129C8.53198 129.514 8.58472 128.942 8.69019 128.415C8.80444 127.888 9.01099 127.413 9.30981 126.991C9.60864 126.561 10.0173 126.178 10.5359 125.844C11.0544 125.51 11.718 125.233 12.5266 125.014C13.344 124.785 14.324 124.614 15.4666 124.5C16.6091 124.385 17.9539 124.328 19.5007 124.328H22.032C23.2976 124.328 24.405 124.376 25.3542 124.473C26.3035 124.561 27.1208 124.706 27.8064 124.908C28.4919 125.102 29.0588 125.348 29.5071 125.646C29.9641 125.937 30.3245 126.288 30.5881 126.701C30.8606 127.105 31.0496 127.567 31.155 128.085C31.2605 128.604 31.3132 129.18 31.3132 129.812H28.782C28.782 129.021 28.6677 128.402 28.4392 127.954C28.2107 127.505 27.8328 127.171 27.3054 126.952C26.7781 126.723 26.0837 126.583 25.2224 126.53C24.3611 126.468 23.2976 126.438 22.032 126.438H19.5007C17.8132 126.438 16.4246 126.499 15.3347 126.622C14.2449 126.736 13.3835 126.934 12.7507 127.215C12.1179 127.497 11.6785 127.875 11.4324 128.349C11.1863 128.824 11.0632 129.417 11.0632 130.129C11.0632 130.568 11.094 130.959 11.1555 131.302C11.217 131.645 11.3401 131.948 11.5247 132.212C11.718 132.467 11.9861 132.682 12.3289 132.858C12.6716 133.034 13.1243 133.179 13.6868 133.293C14.2493 133.407 14.9348 133.491 15.7434 133.543C16.5608 133.587 17.532 133.609 18.657 133.609H22.1375ZM27.9382 178.359H11.907L9.37573 183H6.42261L18.2351 162.75H21.6101L33.4226 183H30.4695L27.9382 178.359ZM26.6726 176.25L19.9226 164.438L13.1726 176.25H26.6726ZM9.67896 221H7.14771V200.75H11.5906L30.1531 218.469V200.75H32.6843V221H29.3093L9.67896 202.859V221ZM23.2844 256.891C24.4006 256.891 25.3455 256.86 26.1189 256.798C26.8923 256.737 27.5295 256.614 28.0305 256.429C28.5315 256.236 28.9182 255.959 29.1907 255.599C29.4631 255.238 29.6609 254.764 29.7839 254.175C29.9158 253.577 29.9905 252.848 30.0081 251.986C30.0344 251.116 30.0476 250.079 30.0476 248.875C30.0476 247.671 30.0344 246.638 30.0081 245.777C29.9905 244.907 29.9158 244.177 29.7839 243.588C29.6609 242.991 29.4631 242.512 29.1907 242.151C28.9182 241.791 28.5315 241.519 28.0305 241.334C27.5295 241.141 26.8923 241.013 26.1189 240.952C25.3542 240.89 24.4094 240.859 23.2844 240.859H10.6414V256.891H23.2844ZM8.11011 259V238.75H23.2844C24.8313 238.75 26.1321 238.842 27.1868 239.027C28.2502 239.203 29.1248 239.475 29.8103 239.844C30.5046 240.213 31.0364 240.675 31.4055 241.229C31.7834 241.782 32.0559 242.437 32.2229 243.193C32.3987 243.94 32.4998 244.788 32.5261 245.737C32.5613 246.678 32.5789 247.724 32.5789 248.875C32.5789 250.026 32.5613 251.077 32.5261 252.026C32.4998 252.966 32.3987 253.814 32.2229 254.57C32.0559 255.317 31.7834 255.968 31.4055 256.521C31.0364 257.075 30.5046 257.537 29.8103 257.906C29.1248 258.275 28.2502 258.552 27.1868 258.736C26.1321 258.912 24.8313 259 23.2844 259H8.11011ZM31.7351 297H29.2039V293.203C29.2039 292.588 29.1907 292.061 29.1643 291.621C29.1467 291.173 29.072 290.791 28.9402 290.474C28.8171 290.158 28.6194 289.903 28.3469 289.709C28.0745 289.516 27.6877 289.367 27.1868 289.261C26.6858 289.156 26.0486 289.085 25.2751 289.05C24.5105 289.006 23.5657 288.984 22.4407 288.984H11.0632V297H8.53198V276.75H22.8625C24.4094 276.75 25.7102 276.807 26.7649 276.921C27.8284 277.027 28.7029 277.189 29.3884 277.409C30.0828 277.629 30.6145 277.901 30.9836 278.227C31.3616 278.552 31.634 278.934 31.801 279.374C31.9768 279.813 32.0779 280.305 32.1042 280.85C32.1394 281.395 32.157 281.997 32.157 282.656C32.157 283.5 32.0955 284.243 31.9724 284.884C31.8582 285.517 31.6604 286.058 31.3792 286.506C31.0979 286.954 30.7244 287.314 30.2585 287.587C29.7927 287.851 29.2083 288.035 28.5051 288.141C29.2083 288.246 29.7708 288.431 30.1926 288.694C30.6145 288.958 30.9397 289.301 31.1682 289.723C31.3967 290.145 31.5461 290.646 31.6165 291.226C31.6956 291.806 31.7351 292.465 31.7351 293.203V297ZM11.0632 286.875H22.8625C23.9875 286.875 24.9324 286.857 25.697 286.822C26.4705 286.778 27.1077 286.704 27.6086 286.598C28.1096 286.493 28.4963 286.343 28.7688 286.15C29.0413 285.957 29.239 285.702 29.3621 285.385C29.4939 285.069 29.5686 284.691 29.5862 284.251C29.6125 283.803 29.6257 283.271 29.6257 282.656C29.6257 282.085 29.6125 281.593 29.5862 281.18C29.5686 280.767 29.4939 280.419 29.3621 280.138C29.239 279.857 29.0413 279.633 28.7688 279.466C28.4963 279.299 28.1096 279.171 27.6086 279.083C27.1077 278.987 26.4705 278.925 25.697 278.899C24.9324 278.873 23.9875 278.859 22.8625 278.859H11.0632V286.875ZM27.9382 330.359H11.907L9.37573 335H6.42261L18.2351 314.75H21.6101L33.4226 335H30.4695L27.9382 330.359ZM26.6726 328.25L19.9226 316.438L13.1726 328.25H26.6726Z"/>
</mask>
<path d="M29.6125 17.0781H29.1125V17.5781H29.6125V17.0781ZM29.2698 14.5732L29.7385 14.3991L29.2698 14.5732ZM26.053 12.5693L26.0017 13.0667L26.0022 13.0668L26.053 12.5693ZM14.1086 12.543L14.1487 13.0414L14.1539 13.0409L14.1086 12.543ZM10.2458 17.6187L10.7458 17.6284L10.7458 17.6283L10.2458 17.6187ZM10.2458 24.1445L9.74592 24.1541L9.74606 24.1591L10.2458 24.1445ZM11.05 27.9414L10.6399 28.2275L10.6445 28.2338L11.05 27.9414ZM14.1086 29.2202L14.0629 29.7182L14.069 29.7186L14.1086 29.2202ZM29.1643 27.4404L28.7109 27.2296L28.7088 27.2343L29.1643 27.4404ZM29.5203 26.0957L30.0168 26.1546L30.0169 26.1536L29.5203 26.0957ZM29.6125 24.25V23.75H29.1125V24.25H29.6125ZM32.1438 24.25H32.6438V23.75H32.1438V24.25ZM31.9856 26.5439L32.4796 26.6209L32.4798 26.62L31.9856 26.5439ZM31.4187 28.3633L30.9729 28.1368L30.9715 28.1397L31.4187 28.3633ZM28.6501 30.6968L28.8191 31.1674L28.8244 31.1654L28.6501 30.6968ZM26.198 31.2373L26.1382 30.7409L26.1337 30.7415L26.198 31.2373ZM13.0408 31.1318L13.1302 30.6399L13.127 30.6393L13.0408 31.1318ZM10.4304 30.2881L10.1847 30.7236L10.189 30.726L10.4304 30.2881ZM8.83521 28.8379L8.41335 29.1063L8.41627 29.1108L8.83521 28.8379ZM8.01782 26.7944L7.52881 26.8988L7.52999 26.9041L8.01782 26.7944ZM8.01782 14.9556L7.52996 14.8459L7.52884 14.8512L8.01782 14.9556ZM8.83521 12.9121L8.41625 12.6392L8.41337 12.6437L8.83521 12.9121ZM10.4304 11.4751L10.6718 11.913L10.6761 11.9106L10.4304 11.4751ZM13.0408 10.6182L13.127 11.1107L13.1302 11.1101L13.0408 10.6182ZM26.198 10.5127L26.1337 11.0086L26.1382 11.0091L26.198 10.5127ZM28.6501 11.0532L28.4812 11.5239L28.4866 11.5257L28.6501 11.0532ZM31.4187 13.2681L30.9762 13.501L30.9795 13.507L31.4187 13.2681ZM32.1438 17.0781V17.5781H32.6438V17.0781H32.1438ZM30.1125 17.0781C30.1125 15.9956 29.9964 15.0936 29.7385 14.3991L28.8011 14.7473C29.0002 15.2834 29.1125 16.0513 29.1125 17.0781H30.1125ZM29.7385 14.3991C29.4733 13.6852 29.0247 13.1259 28.3932 12.747L27.8787 13.6045C28.3019 13.8584 28.6092 14.2309 28.8011 14.7473L29.7385 14.3991ZM28.3932 12.747C27.7827 12.3807 27.0103 12.1644 26.1037 12.0719L26.0022 13.0668C26.8183 13.15 27.4346 13.338 27.8787 13.6045L28.3932 12.747ZM26.1043 12.072C25.2287 11.9817 24.1512 11.9375 22.8757 11.9375V12.9375C24.1315 12.9375 25.1721 12.9812 26.0017 13.0667L26.1043 12.072ZM22.8757 11.9375H16.9563V12.9375H22.8757V11.9375ZM16.9563 11.9375C15.8222 11.9375 14.8569 11.9729 14.0634 12.045L14.1539 13.0409C14.9073 12.9724 15.8404 12.9375 16.9563 12.9375V11.9375ZM14.0685 12.0446C13.2728 12.1086 12.5862 12.2476 12.0231 12.4748L12.3973 13.4022C12.8362 13.2251 13.4152 13.1004 14.1487 13.0414L14.0685 12.0446ZM12.0231 12.4748C11.4488 12.7065 10.9805 13.0501 10.6445 13.5162L11.4556 14.101C11.6646 13.8112 11.9696 13.5747 12.3973 13.4022L12.0231 12.4748ZM10.6445 13.5162C10.3175 13.9697 10.0984 14.5445 9.96623 15.2148L10.9473 15.4083C11.0613 14.8305 11.2377 14.4034 11.4556 14.101L10.6445 13.5162ZM9.96623 15.2148C9.83567 15.877 9.76386 16.6772 9.74594 17.609L10.7458 17.6283C10.763 16.732 10.8318 15.9941 10.9473 15.4083L9.96623 15.2148ZM9.74594 17.6089C9.72828 18.5184 9.71948 19.6073 9.71948 20.875H10.7195C10.7195 19.6114 10.7283 18.5294 10.7458 17.6284L9.74594 17.6089ZM9.71948 20.875C9.71948 22.1427 9.72828 23.2359 9.74594 24.1541L10.7458 24.1349C10.7283 23.225 10.7195 22.1385 10.7195 20.875H9.71948ZM9.74606 24.1591C9.77293 25.0814 9.84931 25.8754 9.97942 26.5352L10.9605 26.3417C10.8445 25.7535 10.7715 25.0182 10.7456 24.13L9.74606 24.1591ZM9.97942 26.5352C10.1111 27.203 10.3246 27.7755 10.64 28.2275L11.4601 27.6553C11.2481 27.3515 11.0749 26.922 10.9605 26.3417L9.97942 26.5352ZM10.6445 28.2338C10.9805 28.6999 11.4488 29.0435 12.0231 29.2752L12.3973 28.3478C11.9696 28.1753 11.6646 27.9388 11.4556 27.649L10.6445 28.2338ZM12.0231 29.2752C12.5839 29.5015 13.2683 29.6451 14.0629 29.7181L14.1544 28.7223C13.4197 28.6547 12.8385 28.5259 12.3973 28.3478L12.0231 29.2752ZM14.069 29.7186C14.86 29.7816 15.8234 29.8125 16.9563 29.8125V28.8125C15.8392 28.8125 14.9041 28.7819 14.1483 28.7218L14.069 29.7186ZM16.9563 29.8125H22.8757V28.8125H16.9563V29.8125ZM22.8757 29.8125C23.8682 29.8125 24.7293 29.7859 25.4571 29.732L25.3832 28.7348C24.6872 28.7863 23.852 28.8125 22.8757 28.8125V29.8125ZM25.4571 29.732C26.1909 29.6777 26.8322 29.577 27.3746 29.4248L27.1044 28.462C26.6448 28.591 26.0732 28.6837 25.3832 28.7348L25.4571 29.732ZM27.3746 29.4248C27.9205 29.2715 28.3909 29.0528 28.7647 28.7537L28.14 27.9728C27.8987 28.1659 27.5604 28.3339 27.1044 28.462L27.3746 29.4248ZM28.7647 28.7537C29.1358 28.4569 29.4213 28.0854 29.6199 27.6465L28.7088 27.2343C28.5733 27.5337 28.3843 27.7775 28.14 27.9728L28.7647 28.7537ZM29.6177 27.6513C29.8206 27.2149 29.9505 26.7131 30.0168 26.1546L29.0237 26.0368C28.967 26.5154 28.8596 26.9101 28.7109 27.2296L29.6177 27.6513ZM30.0169 26.1536C30.0812 25.6021 30.1125 24.9667 30.1125 24.25H29.1125C29.1125 24.9396 29.0823 25.5347 29.0236 26.0378L30.0169 26.1536ZM29.6125 24.75H32.1438V23.75H29.6125V24.75ZM31.6438 24.25C31.6438 25.0735 31.5923 25.8122 31.4914 26.4679L32.4798 26.62C32.5898 25.9046 32.6438 25.114 32.6438 24.25H31.6438ZM31.4916 26.467C31.3931 27.0987 31.2185 27.6536 30.973 28.1368L31.8644 28.5898C32.1638 28.0007 32.3672 27.3427 32.4796 26.6209L31.4916 26.467ZM30.9715 28.1397C30.7375 28.6076 30.4226 29.0121 30.0242 29.3558L30.6774 30.113C31.1755 29.6832 31.5726 29.1736 31.8659 28.5869L30.9715 28.1397ZM30.0242 29.3558C29.6302 29.6957 29.1184 29.9893 28.4759 30.2281L28.8244 31.1654C29.553 30.8945 30.175 30.5465 30.6774 30.113L30.0242 29.3558ZM28.4812 30.2262C27.84 30.4564 27.0611 30.6298 26.1382 30.7409L26.2578 31.7337C27.2334 31.6163 28.0892 31.4294 28.8191 31.1674L28.4812 30.2262ZM26.1337 30.7415C25.2113 30.861 24.1263 30.9219 22.8757 30.9219V31.9219C24.1565 31.9219 25.2862 31.8597 26.2623 31.7332L26.1337 30.7415ZM22.8757 30.9219H16.9563V31.9219H22.8757V30.9219ZM16.9563 30.9219C15.4278 30.9219 14.1546 30.8261 13.1302 30.6399L12.9513 31.6238C14.0539 31.8242 15.3911 31.9219 16.9563 31.9219V30.9219ZM13.127 30.6393C12.1081 30.461 11.2949 30.1937 10.6718 29.8502L10.189 30.726C10.9371 31.1383 11.8641 31.4335 12.9546 31.6244L13.127 30.6393ZM10.6761 29.8526C10.0508 29.4999 9.58253 29.069 9.25414 28.565L8.41627 29.1108C8.84374 29.7669 9.4389 30.3028 10.1848 30.7236L10.6761 29.8526ZM9.25704 28.5695C8.92358 28.0454 8.67084 27.4199 8.50566 26.6848L7.52999 26.9041C7.71637 27.7335 8.00855 28.4702 8.41337 29.1063L9.25704 28.5695ZM8.5068 26.69C8.34747 25.9437 8.25333 25.0916 8.2276 24.1311L7.22796 24.1579C7.25497 25.1662 7.35419 26.0807 7.52884 26.8988L8.5068 26.69ZM8.2276 24.1311C8.20138 23.1521 8.18823 22.0668 8.18823 20.875H7.18823C7.18823 22.0739 7.20145 23.1683 7.22796 24.1579L8.2276 24.1311ZM8.18823 20.875C8.18823 19.6832 8.20138 18.5979 8.2276 17.6189L7.22796 17.5921C7.20145 18.5817 7.18823 19.6761 7.18823 20.875H8.18823ZM8.2276 17.6189C8.25333 16.6584 8.34747 15.8063 8.5068 15.06L7.52884 14.8512C7.35419 15.6693 7.25497 16.5838 7.22796 17.5921L8.2276 17.6189ZM8.50566 15.0652C8.67084 14.3301 8.92358 13.7046 9.25704 13.1805L8.41337 12.6437C8.00855 13.2798 7.71637 14.0165 7.52999 14.8459L8.50566 15.0652ZM9.25414 13.185C9.58173 12.6822 10.0486 12.2565 10.6718 11.913L10.189 11.0372C9.44118 11.4495 8.84453 11.9818 8.41627 12.6392L9.25414 13.185ZM10.6761 11.9106C11.2978 11.5599 12.1095 11.2887 13.127 11.1107L12.9546 10.1256C11.8627 10.3167 10.9341 10.6169 10.1848 11.0396L10.6761 11.9106ZM13.1302 11.1101C14.1546 10.9239 15.4278 10.8281 16.9563 10.8281V9.82812C15.3911 9.82812 14.0539 9.92576 12.9513 10.1262L13.1302 11.1101ZM16.9563 10.8281H22.8757V9.82812H16.9563V10.8281ZM22.8757 10.8281C24.1263 10.8281 25.2113 10.889 26.1337 11.0085L26.2623 10.0168C25.2862 9.89032 24.1565 9.82812 22.8757 9.82812V10.8281ZM26.1382 11.0091C27.0611 11.1202 27.84 11.2936 28.4812 11.5238L28.8191 10.5826C28.0892 10.3206 27.2334 10.1337 26.2578 10.0163L26.1382 11.0091ZM28.4866 11.5257C29.1294 11.7482 29.6405 12.0256 30.033 12.3489L30.6687 11.5769C30.1647 11.1619 29.542 10.8328 28.8137 10.5807L28.4866 11.5257ZM30.033 12.3489C30.4313 12.6769 30.7443 13.0603 30.9762 13.5009L31.8612 13.0352C31.5657 12.4739 31.1669 11.9872 30.6687 11.5769L30.033 12.3489ZM30.9795 13.507C31.2222 13.9534 31.3949 14.4662 31.4924 15.0509L32.4788 14.8866C32.3653 14.2057 32.1601 13.5847 31.8579 13.0292L30.9795 13.507ZM31.4924 15.0509C31.5925 15.6517 31.6438 16.3268 31.6438 17.0781H32.6438C32.6438 16.2825 32.5896 15.5514 32.4788 14.8866L31.4924 15.0509ZM32.1438 16.5781H29.6125V17.5781H32.1438V16.5781ZM27.9382 64.3594L28.3772 64.1199L28.235 63.8594H27.9382V64.3594ZM11.907 64.3594V63.8594H11.6102L11.468 64.1199L11.907 64.3594ZM9.37573 69V69.5H9.67255L9.81468 69.2394L9.37573 69ZM6.42261 69L5.99072 68.7481L5.55209 69.5H6.42261V69ZM18.2351 48.75V48.25H17.9479L17.8032 48.4981L18.2351 48.75ZM21.6101 48.75L22.042 48.4981L21.8973 48.25H21.6101V48.75ZM33.4226 69V69.5H34.2931L33.8545 68.7481L33.4226 69ZM30.4695 69L30.0305 69.2394L30.1727 69.5H30.4695V69ZM26.6726 62.25V62.75H27.5342L27.1067 62.0019L26.6726 62.25ZM19.9226 50.4375L20.3567 50.1894L19.9226 49.4297L19.4885 50.1894L19.9226 50.4375ZM13.1726 62.25L12.7385 62.0019L12.311 62.75H13.1726V62.25ZM27.9382 63.8594H11.907V64.8594H27.9382V63.8594ZM11.468 64.1199L8.93678 68.7606L9.81468 69.2394L12.3459 64.5988L11.468 64.1199ZM9.37573 68.5H6.42261V69.5H9.37573V68.5ZM6.8545 69.2519L18.667 49.0019L17.8032 48.4981L5.99072 68.7481L6.8545 69.2519ZM18.2351 49.25H21.6101V48.25H18.2351V49.25ZM21.1782 49.0019L32.9907 69.2519L33.8545 68.7481L22.042 48.4981L21.1782 49.0019ZM33.4226 68.5H30.4695V69.5H33.4226V68.5ZM30.9084 68.7606L28.3772 64.1199L27.4993 64.5988L30.0305 69.2394L30.9084 68.7606ZM27.1067 62.0019L20.3567 50.1894L19.4885 50.6856L26.2385 62.4981L27.1067 62.0019ZM19.4885 50.1894L12.7385 62.0019L13.6067 62.4981L20.3567 50.6856L19.4885 50.1894ZM13.1726 62.75H26.6726V61.75H13.1726V62.75ZM28.2151 96.2949L28.0551 96.7687L28.0625 96.7711L28.2151 96.2949ZM30.7859 98.2725L30.3405 98.4997L30.3424 98.5034L30.7859 98.2725ZM31.2078 99.6963L30.7111 99.7542L30.7121 99.7624L31.2078 99.6963ZM31.1418 103.15L30.6524 103.048L30.6512 103.054L31.1418 103.15ZM24.8665 107.277L24.8085 106.78L24.8039 106.781L24.8665 107.277ZM12.0388 106.895L11.8974 107.374L11.9031 107.376L12.0388 106.895ZM10.3381 106.143L10.0552 106.555L10.0608 106.559L10.3381 106.143ZM9.25708 105.075L8.83549 105.344L8.84245 105.355L9.25708 105.075ZM8.70337 103.678L8.21308 103.776L8.2134 103.777L8.70337 103.678ZM8.54517 101.938V101.438H8.04517V101.938H8.54517ZM11.0764 101.938H11.5764V101.438H11.0764V101.938ZM12.553 104.812L12.3542 105.27L12.3607 105.273L12.553 104.812ZM14.6228 105.233L14.5868 105.732L14.5922 105.732L14.6228 105.233ZM28.426 103.229L28.8764 103.447L28.8779 103.444L28.426 103.229ZM28.5315 99.6304L28.0571 99.7885L28.0598 99.7963L28.5315 99.6304ZM27.5691 98.4966L27.3142 98.9267L27.3176 98.9288L27.5691 98.4966ZM25.552 97.9033L25.482 98.3984L25.4869 98.3991L25.552 97.9033ZM14.6755 97.5474L14.6238 98.0447L14.6242 98.0447L14.6755 97.5474ZM11.907 97.0596L11.7659 97.5393L11.7711 97.5408L11.907 97.0596ZM10.114 96.2554L9.82038 96.6601L9.82567 96.6639L10.114 96.2554ZM9.08569 95.1479L8.64812 95.39L8.65214 95.397L9.08569 95.1479ZM8.63745 93.7769L8.14214 93.8452L8.1423 93.8463L8.63745 93.7769ZM8.69019 90.415L8.20146 90.3091L8.1999 90.317L8.69019 90.415ZM9.30981 88.9912L9.71785 89.2802L9.72061 89.2763L9.30981 88.9912ZM12.5266 87.0137L12.6577 87.4962L12.6612 87.4952L12.5266 87.0137ZM25.3542 86.4731L25.3036 86.9706L25.3081 86.971L25.3542 86.4731ZM27.8064 86.9082L27.665 87.3878L27.6707 87.3894L27.8064 86.9082ZM29.5071 87.6465L29.2297 88.0626L29.2392 88.0686L29.5071 87.6465ZM30.5881 88.7012L30.1665 88.9703L30.1735 88.9806L30.5881 88.7012ZM31.3132 91.8125V92.3125H31.8132V91.8125H31.3132ZM28.782 91.8125H28.282V92.3125H28.782V91.8125ZM27.3054 88.9517L27.1066 89.4105L27.1131 89.4132L27.3054 88.9517ZM25.2224 88.5298L25.1868 89.0285L25.1919 89.0289L25.2224 88.5298ZM15.3347 88.6221L15.3869 89.1194L15.3908 89.1189L15.3347 88.6221ZM11.5247 94.2119L11.115 94.4986L11.1205 94.5065L11.1263 94.5141L11.5247 94.2119ZM15.7434 95.5435L15.7109 96.0424L15.7166 96.0427L15.7434 95.5435ZM22.1375 96.1094C23.5138 96.1094 24.6846 96.1661 25.6531 96.2775L25.7674 95.284C24.7495 95.1669 23.5385 95.1094 22.1375 95.1094V96.1094ZM25.6531 96.2775C26.624 96.3892 27.422 96.5549 28.0551 96.7686L28.375 95.8212C27.6547 95.5779 26.7828 95.4009 25.7674 95.284L25.6531 96.2775ZM28.0625 96.7711C28.7086 96.9781 29.1907 97.2295 29.5314 97.511L30.1683 96.74C29.7004 96.3535 29.0927 96.0512 28.3677 95.8188L28.0625 96.7711ZM29.5314 97.511C29.8875 97.8052 30.1544 98.1349 30.3405 98.4997L31.2313 98.0452C30.9779 97.5487 30.6208 97.1138 30.1683 96.74L29.5314 97.511ZM30.3424 98.5034C30.531 98.8654 30.6558 99.2803 30.7111 99.7542L31.7044 99.6383C31.6366 99.0576 31.4803 98.5232 31.2293 98.0415L30.3424 98.5034ZM30.7121 99.7624C30.7791 100.265 30.8132 100.814 30.8132 101.41H31.8132C31.8132 100.776 31.777 100.183 31.7034 99.6302L30.7121 99.7624ZM30.8132 101.41C30.8132 101.994 30.759 102.54 30.6525 103.048L31.6312 103.253C31.7532 102.671 31.8132 102.056 31.8132 101.41H30.8132ZM30.6512 103.054C30.5572 103.532 30.3859 103.966 30.1382 104.361L30.9853 104.893C31.3001 104.391 31.5156 103.841 31.6324 103.247L30.6512 103.054ZM30.1382 104.361C29.895 104.749 29.5592 105.103 29.1207 105.422L29.7089 106.231C30.2372 105.847 30.666 105.402 30.9853 104.893L30.1382 104.361ZM29.1207 105.422C28.6901 105.735 28.1251 106.014 27.4127 106.248L27.7255 107.198C28.5072 106.941 29.1727 106.621 29.7089 106.231L29.1207 105.422ZM27.4127 106.248C26.7065 106.481 25.8405 106.66 24.8085 106.78L24.9244 107.773C26.0018 107.648 26.9375 107.458 27.7255 107.198L27.4127 106.248ZM24.8039 106.781C23.7843 106.909 22.58 106.975 21.1882 106.975V107.975C22.609 107.975 23.8568 107.908 24.929 107.773L24.8039 106.781ZM21.1882 106.975H17.8132V107.975H21.1882V106.975ZM17.8132 106.975C16.5594 106.975 15.4696 106.927 14.5416 106.832L14.4403 107.827C15.4108 107.926 16.5358 107.975 17.8132 107.975V106.975ZM14.5416 106.832C13.6122 106.737 12.8247 106.597 12.1745 106.413L11.9031 107.376C12.624 107.579 13.4713 107.728 14.4403 107.827L14.5416 106.832ZM12.1802 106.415C11.5282 106.223 11.0108 105.991 10.6155 105.727L10.0608 106.559C10.562 106.893 11.1784 107.162 11.8974 107.374L12.1802 106.415ZM10.6211 105.731C10.2187 105.455 9.90519 105.142 9.67171 104.796L8.84245 105.355C9.15389 105.817 9.56106 106.216 10.0552 106.555L10.6211 105.731ZM9.67854 104.806C9.45046 104.449 9.28755 104.041 9.19334 103.578L8.2134 103.777C8.33013 104.351 8.53635 104.875 8.83562 105.344L9.67854 104.806ZM9.19366 103.58C9.09566 103.09 9.04517 102.543 9.04517 101.938H8.04517C8.04517 102.598 8.10014 103.211 8.21308 103.776L9.19366 103.58ZM8.54517 102.438H11.0764V101.438H8.54517V102.438ZM10.5764 101.938C10.5764 102.767 10.6946 103.476 10.9737 104.023L11.8646 103.569C11.6868 103.22 11.5764 102.69 11.5764 101.938H10.5764ZM10.9737 104.023C11.2625 104.59 11.7362 105.003 12.3542 105.27L12.7518 104.353C12.315 104.163 12.0329 103.899 11.8646 103.569L10.9737 104.023ZM12.3607 105.273C12.9559 105.521 13.7045 105.668 14.5868 105.732L14.6588 104.735C13.8361 104.675 13.2047 104.541 12.7453 104.35L12.3607 105.273ZM14.5922 105.732C15.4672 105.786 16.5416 105.812 17.8132 105.812V104.812C16.5536 104.812 15.501 104.786 14.6534 104.734L14.5922 105.732ZM17.8132 105.812H21.1882V104.812H17.8132V105.812ZM21.1882 105.812C22.6782 105.812 23.9301 105.742 24.9378 105.596L24.7951 104.607C23.8517 104.743 22.6514 104.812 21.1882 104.812V105.812ZM24.9378 105.596C25.9447 105.451 26.7845 105.215 27.4342 104.871L26.9657 103.987C26.4552 104.258 25.7394 104.471 24.7951 104.607L24.9378 105.596ZM27.4342 104.871C28.0889 104.524 28.5841 104.053 28.8764 103.447L27.9756 103.012C27.7933 103.39 27.4711 103.719 26.9657 103.987L27.4342 104.871ZM28.8779 103.444C29.1546 102.859 29.282 102.176 29.282 101.41H28.282C28.282 102.068 28.1721 102.598 27.9742 103.015L28.8779 103.444ZM29.282 101.41C29.282 100.663 29.1949 100.009 29.0032 99.4644L28.0598 99.7963C28.2021 100.201 28.282 100.733 28.282 101.41H29.282ZM29.0058 99.4723C28.8046 98.8684 28.3958 98.3991 27.8205 98.0644L27.3176 98.9288C27.7092 99.1566 27.942 99.4431 28.0572 99.7885L29.0058 99.4723ZM27.824 98.0664C27.267 97.7364 26.5192 97.526 25.6171 97.4076L25.4869 98.3991C26.3251 98.5091 26.922 98.6943 27.3142 98.9267L27.824 98.0664ZM25.622 97.4082C24.7192 97.2806 23.555 97.2188 22.1375 97.2188V98.2188C23.5324 98.2188 24.6446 98.28 25.482 98.3984L25.622 97.4082ZM22.1375 97.2188H18.657V98.2188H22.1375V97.2188ZM18.657 97.2188C17.1212 97.2188 15.8121 97.162 14.7269 97.05L14.6242 98.0447C15.7538 98.1613 17.099 98.2188 18.657 98.2188V97.2188ZM14.7273 97.05C13.6462 96.9376 12.7536 96.7791 12.0428 96.5784L11.7711 97.5408C12.5545 97.762 13.5076 97.9286 14.6238 98.0447L14.7273 97.05ZM12.0481 96.5799C11.3334 96.3697 10.7913 96.1214 10.4024 95.8469L9.82567 96.6639C10.3332 97.0221 10.9864 97.31 11.7659 97.5393L12.0481 96.5799ZM10.4076 95.8507C10.0073 95.5602 9.71615 95.2417 9.51925 94.8989L8.65214 95.397C8.92984 95.8804 9.32426 96.3001 9.8204 96.6601L10.4076 95.8507ZM9.52321 94.9059C9.32636 94.5501 9.19503 94.1522 9.1326 93.7074L8.1423 93.8463C8.2205 94.4035 8.388 94.9197 8.64818 95.39L9.52321 94.9059ZM9.13276 93.7085C9.06598 93.2244 9.03198 92.6981 9.03198 92.1289H8.03198C8.03198 92.7374 8.0683 93.3098 8.14214 93.8452L9.13276 93.7085ZM9.03198 92.1289C9.03198 91.542 9.08231 91.0039 9.18048 90.5131L8.1999 90.317C8.08712 90.8808 8.03198 91.4854 8.03198 92.1289H9.03198ZM9.17885 90.5209C9.27947 90.0565 9.45965 89.6447 9.71783 89.2802L8.9018 88.7022C8.56233 89.1815 8.32941 89.7189 8.20152 90.3092L9.17885 90.5209ZM9.72061 89.2763C9.97608 88.9081 10.3336 88.5693 10.8066 88.2646L10.2651 87.4239C9.70107 87.7872 9.2412 88.213 8.89902 88.7062L9.72061 89.2763ZM10.8066 88.2646C11.2698 87.9663 11.8821 87.7069 12.6577 87.4962L12.3955 86.5312C11.5539 86.7599 10.8391 87.0542 10.2651 87.4239L10.8066 88.2646ZM12.6612 87.4952C13.4431 87.2766 14.3931 87.1093 15.5163 86.997L15.4168 86.002C14.2548 86.1182 13.2449 86.2937 12.392 86.5321L12.6612 87.4952ZM15.5163 86.997C16.6378 86.8849 17.9652 86.8281 19.5007 86.8281V85.8281C17.9425 85.8281 16.5804 85.8856 15.4168 86.002L15.5163 86.997ZM19.5007 86.8281H22.032V85.8281H19.5007V86.8281ZM22.032 86.8281C23.2858 86.8281 24.3756 86.8761 25.3036 86.9706L25.4049 85.9757C24.4345 85.8769 23.3094 85.8281 22.032 85.8281V86.8281ZM25.3081 86.971C26.235 87.0568 27.0189 87.1973 27.665 87.3878L27.9478 86.4286C27.2228 86.2148 26.3719 86.0652 25.4003 85.9753L25.3081 86.971ZM27.6707 87.3894C28.3211 87.5729 28.8364 87.8003 29.2297 88.0625L29.7844 87.2305C29.2812 86.895 28.6628 86.6302 27.9421 86.427L27.6707 87.3894ZM29.2392 88.0686C29.6409 88.3236 29.9463 88.625 30.1667 88.9702L31.0096 88.4322C30.7026 87.9512 30.2873 87.5494 29.775 87.2243L29.2392 88.0686ZM30.1735 88.9806C30.4063 89.326 30.5715 89.7253 30.6651 90.1851L31.645 89.9858C31.5276 89.4085 31.3149 88.8849 31.0028 88.4217L30.1735 88.9806ZM30.6651 90.1851C30.7627 90.6652 30.8132 91.2069 30.8132 91.8125H31.8132C31.8132 91.1525 31.7583 90.5428 31.645 89.9858L30.6651 90.1851ZM31.3132 91.3125H28.782V92.3125H31.3132V91.3125ZM29.282 91.8125C29.282 90.9832 29.1638 90.2741 28.8847 89.7265L27.9938 90.1807C28.1716 90.5296 28.282 91.0598 28.282 91.8125H29.282ZM28.8847 89.7265C28.595 89.1583 28.1188 88.7489 27.4977 88.4901L27.1131 89.4132C27.5467 89.5939 27.8264 89.8525 27.9938 90.1807L28.8847 89.7265ZM27.5042 88.4929C26.9039 88.2327 26.1461 88.0854 25.253 88.0307L25.1919 89.0289C26.0213 89.0796 26.6523 89.2135 27.1066 89.4104L27.5042 88.4929ZM25.258 88.0311C24.3808 87.9684 23.3046 87.9375 22.032 87.9375V88.9375C23.2906 88.9375 24.3414 88.9681 25.1868 89.0285L25.258 88.0311ZM22.032 87.9375H19.5007V88.9375H22.032V87.9375ZM19.5007 87.9375C17.8033 87.9375 16.3942 87.9993 15.2786 88.1252L15.3908 89.1189C16.455 88.9988 17.8232 88.9375 19.5007 88.9375V87.9375ZM15.2826 88.1248C14.1673 88.2417 13.2479 88.4472 12.5477 88.7584L12.9538 89.6722C13.5192 89.4209 14.3225 89.2309 15.3869 89.1193L15.2826 88.1248ZM12.5477 88.7584C11.8421 89.072 11.3005 89.5172 10.9885 90.119L11.8763 90.5793C12.0564 90.2318 12.3937 89.9212 12.9538 89.6722L12.5477 88.7584ZM10.9885 90.119C10.6954 90.6843 10.5632 91.3624 10.5632 92.1289H11.5632C11.5632 91.4716 11.6772 90.9632 11.8763 90.5793L10.9885 90.119ZM10.5632 92.1289C10.5632 92.5907 10.5955 93.0123 10.6634 93.3906L11.6477 93.2139C11.5925 92.9067 11.5632 92.546 11.5632 92.1289H10.5632ZM10.6634 93.3906C10.7366 93.7987 10.8856 94.1709 11.115 94.4986L11.9343 93.9252C11.7946 93.7256 11.6974 93.4913 11.6477 93.2139L10.6634 93.3906ZM11.1263 94.5141C11.3733 94.8397 11.7046 95.0997 12.1007 95.3028L12.557 94.413C12.2675 94.2645 12.0627 94.0939 11.923 93.9097L11.1263 94.5141ZM12.1007 95.3028C12.4987 95.5069 12.9996 95.6636 13.5872 95.783L13.7863 94.803C13.2489 94.6938 12.8446 94.5605 12.557 94.413L12.1007 95.3028ZM13.5872 95.783C14.1788 95.9031 14.8881 95.9887 15.7109 96.0424L15.7759 95.0445C14.9815 94.9927 14.3198 94.9113 13.7863 94.803L13.5872 95.783ZM15.7166 96.0427C16.5455 96.0873 17.5261 96.1094 18.657 96.1094V95.1094C17.5379 95.1094 16.5761 95.0875 15.7703 95.0442L15.7166 96.0427ZM18.657 96.1094H22.1375V95.1094H18.657V96.1094ZM28.2151 134.295L28.0551 134.769L28.0625 134.771L28.2151 134.295ZM30.7859 136.272L30.3405 136.5L30.3424 136.503L30.7859 136.272ZM31.2078 137.696L30.7111 137.754L30.7121 137.762L31.2078 137.696ZM31.1418 141.15L30.6524 141.048L30.6512 141.054L31.1418 141.15ZM24.8665 145.277L24.8085 144.78L24.8039 144.781L24.8665 145.277ZM12.0388 144.895L11.8974 145.374L11.9031 145.376L12.0388 144.895ZM10.3381 144.143L10.0552 144.555L10.0608 144.559L10.3381 144.143ZM9.25708 143.075L8.83549 143.344L8.84245 143.355L9.25708 143.075ZM8.70337 141.678L8.21308 141.776L8.2134 141.777L8.70337 141.678ZM8.54517 139.938V139.438H8.04517V139.938H8.54517ZM11.0764 139.938H11.5764V139.438H11.0764V139.938ZM12.553 142.812L12.3542 143.27L12.3607 143.273L12.553 142.812ZM14.6228 143.233L14.5868 143.732L14.5922 143.732L14.6228 143.233ZM28.426 141.229L28.8764 141.447L28.8779 141.444L28.426 141.229ZM28.5315 137.63L28.0571 137.789L28.0598 137.796L28.5315 137.63ZM27.5691 136.497L27.3142 136.927L27.3176 136.929L27.5691 136.497ZM25.552 135.903L25.482 136.398L25.4869 136.399L25.552 135.903ZM14.6755 135.547L14.6238 136.045L14.6242 136.045L14.6755 135.547ZM11.907 135.06L11.7659 135.539L11.7711 135.541L11.907 135.06ZM10.114 134.255L9.82038 134.66L9.82567 134.664L10.114 134.255ZM9.08569 133.148L8.64812 133.39L8.65214 133.397L9.08569 133.148ZM8.63745 131.777L8.14214 131.845L8.1423 131.846L8.63745 131.777ZM8.69019 128.415L8.20146 128.309L8.1999 128.317L8.69019 128.415ZM9.30981 126.991L9.71785 127.28L9.72061 127.276L9.30981 126.991ZM12.5266 125.014L12.6577 125.496L12.6612 125.495L12.5266 125.014ZM25.3542 124.473L25.3036 124.971L25.3081 124.971L25.3542 124.473ZM27.8064 124.908L27.665 125.388L27.6707 125.389L27.8064 124.908ZM29.5071 125.646L29.2297 126.063L29.2392 126.069L29.5071 125.646ZM30.5881 126.701L30.1665 126.97L30.1735 126.981L30.5881 126.701ZM31.3132 129.812V130.312H31.8132V129.812H31.3132ZM28.782 129.812H28.282V130.312H28.782V129.812ZM27.3054 126.952L27.1066 127.41L27.1131 127.413L27.3054 126.952ZM25.2224 126.53L25.1868 127.029L25.1919 127.029L25.2224 126.53ZM15.3347 126.622L15.3869 127.119L15.3908 127.119L15.3347 126.622ZM11.5247 132.212L11.115 132.499L11.1205 132.506L11.1263 132.514L11.5247 132.212ZM15.7434 133.543L15.7109 134.042L15.7166 134.043L15.7434 133.543ZM22.1375 134.109C23.5138 134.109 24.6846 134.166 25.6531 134.277L25.7674 133.284C24.7495 133.167 23.5385 133.109 22.1375 133.109V134.109ZM25.6531 134.277C26.624 134.389 27.422 134.555 28.0551 134.769L28.375 133.821C27.6547 133.578 26.7828 133.401 25.7674 133.284L25.6531 134.277ZM28.0625 134.771C28.7086 134.978 29.1907 135.23 29.5314 135.511L30.1683 134.74C29.7004 134.353 29.0927 134.051 28.3677 133.819L28.0625 134.771ZM29.5314 135.511C29.8875 135.805 30.1544 136.135 30.3405 136.5L31.2313 136.045C30.9779 135.549 30.6208 135.114 30.1683 134.74L29.5314 135.511ZM30.3424 136.503C30.531 136.865 30.6558 137.28 30.7111 137.754L31.7044 137.638C31.6366 137.058 31.4803 136.523 31.2293 136.041L30.3424 136.503ZM30.7121 137.762C30.7791 138.265 30.8132 138.814 30.8132 139.41H31.8132C31.8132 138.776 31.777 138.183 31.7034 137.63L30.7121 137.762ZM30.8132 139.41C30.8132 139.994 30.759 140.54 30.6525 141.048L31.6312 141.253C31.7532 140.671 31.8132 140.056 31.8132 139.41H30.8132ZM30.6512 141.054C30.5572 141.532 30.3859 141.966 30.1382 142.361L30.9853 142.893C31.3001 142.391 31.5156 141.841 31.6324 141.247L30.6512 141.054ZM30.1382 142.361C29.895 142.749 29.5592 143.103 29.1207 143.422L29.7089 144.231C30.2372 143.847 30.666 143.402 30.9853 142.893L30.1382 142.361ZM29.1207 143.422C28.6901 143.735 28.1251 144.014 27.4127 144.248L27.7255 145.198C28.5072 144.941 29.1727 144.621 29.7089 144.231L29.1207 143.422ZM27.4127 144.248C26.7065 144.481 25.8405 144.66 24.8085 144.78L24.9244 145.773C26.0018 145.648 26.9375 145.458 27.7255 145.198L27.4127 144.248ZM24.8039 144.781C23.7843 144.909 22.58 144.975 21.1882 144.975V145.975C22.609 145.975 23.8568 145.908 24.929 145.773L24.8039 144.781ZM21.1882 144.975H17.8132V145.975H21.1882V144.975ZM17.8132 144.975C16.5594 144.975 15.4696 144.927 14.5416 144.832L14.4403 145.827C15.4108 145.926 16.5358 145.975 17.8132 145.975V144.975ZM14.5416 144.832C13.6122 144.737 12.8247 144.597 12.1745 144.413L11.9031 145.376C12.624 145.579 13.4713 145.728 14.4403 145.827L14.5416 144.832ZM12.1802 144.415C11.5282 144.223 11.0108 143.991 10.6155 143.727L10.0608 144.559C10.562 144.893 11.1784 145.162 11.8974 145.374L12.1802 144.415ZM10.6211 143.731C10.2187 143.455 9.90519 143.142 9.67171 142.796L8.84245 143.355C9.15389 143.817 9.56106 144.216 10.0552 144.555L10.6211 143.731ZM9.67854 142.806C9.45046 142.449 9.28755 142.041 9.19334 141.578L8.2134 141.777C8.33013 142.351 8.53635 142.875 8.83562 143.344L9.67854 142.806ZM9.19366 141.58C9.09566 141.09 9.04517 140.543 9.04517 139.938H8.04517C8.04517 140.598 8.10014 141.211 8.21308 141.776L9.19366 141.58ZM8.54517 140.438H11.0764V139.438H8.54517V140.438ZM10.5764 139.938C10.5764 140.767 10.6946 141.476 10.9737 142.023L11.8646 141.569C11.6868 141.22 11.5764 140.69 11.5764 139.938H10.5764ZM10.9737 142.023C11.2625 142.59 11.7362 143.003 12.3542 143.27L12.7518 142.353C12.315 142.163 12.0329 141.899 11.8646 141.569L10.9737 142.023ZM12.3607 143.273C12.9559 143.521 13.7045 143.668 14.5868 143.732L14.6588 142.735C13.8361 142.675 13.2047 142.541 12.7453 142.35L12.3607 143.273ZM14.5922 143.732C15.4672 143.786 16.5416 143.812 17.8132 143.812V142.812C16.5536 142.812 15.501 142.786 14.6534 142.734L14.5922 143.732ZM17.8132 143.812H21.1882V142.812H17.8132V143.812ZM21.1882 143.812C22.6782 143.812 23.9301 143.742 24.9378 143.596L24.7951 142.607C23.8517 142.743 22.6514 142.812 21.1882 142.812V143.812ZM24.9378 143.596C25.9447 143.451 26.7845 143.215 27.4342 142.871L26.9657 141.987C26.4552 142.258 25.7394 142.471 24.7951 142.607L24.9378 143.596ZM27.4342 142.871C28.0889 142.524 28.5841 142.053 28.8764 141.447L27.9756 141.012C27.7933 141.39 27.4711 141.719 26.9657 141.987L27.4342 142.871ZM28.8779 141.444C29.1546 140.859 29.282 140.176 29.282 139.41H28.282C28.282 140.068 28.1721 140.598 27.9742 141.015L28.8779 141.444ZM29.282 139.41C29.282 138.663 29.1949 138.009 29.0032 137.464L28.0598 137.796C28.2021 138.201 28.282 138.733 28.282 139.41H29.282ZM29.0058 137.472C28.8046 136.868 28.3958 136.399 27.8205 136.064L27.3176 136.929C27.7092 137.157 27.942 137.443 28.0572 137.788L29.0058 137.472ZM27.824 136.066C27.267 135.736 26.5192 135.526 25.6171 135.408L25.4869 136.399C26.3251 136.509 26.922 136.694 27.3142 136.927L27.824 136.066ZM25.622 135.408C24.7192 135.281 23.555 135.219 22.1375 135.219V136.219C23.5324 136.219 24.6446 136.28 25.482 136.398L25.622 135.408ZM22.1375 135.219H18.657V136.219H22.1375V135.219ZM18.657 135.219C17.1212 135.219 15.8121 135.162 14.7269 135.05L14.6242 136.045C15.7538 136.161 17.099 136.219 18.657 136.219V135.219ZM14.7273 135.05C13.6462 134.938 12.7536 134.779 12.0428 134.578L11.7711 135.541C12.5545 135.762 13.5076 135.929 14.6238 136.045L14.7273 135.05ZM12.0481 134.58C11.3334 134.37 10.7913 134.121 10.4024 133.847L9.82567 134.664C10.3332 135.022 10.9864 135.31 11.7659 135.539L12.0481 134.58ZM10.4076 133.851C10.0073 133.56 9.71615 133.242 9.51925 132.899L8.65214 133.397C8.92984 133.88 9.32426 134.3 9.8204 134.66L10.4076 133.851ZM9.52321 132.906C9.32636 132.55 9.19503 132.152 9.1326 131.707L8.1423 131.846C8.2205 132.404 8.388 132.92 8.64818 133.39L9.52321 132.906ZM9.13276 131.709C9.06598 131.224 9.03198 130.698 9.03198 130.129H8.03198C8.03198 130.737 8.0683 131.31 8.14214 131.845L9.13276 131.709ZM9.03198 130.129C9.03198 129.542 9.08231 129.004 9.18048 128.513L8.1999 128.317C8.08712 128.881 8.03198 129.485 8.03198 130.129H9.03198ZM9.17885 128.521C9.27947 128.056 9.45965 127.645 9.71783 127.28L8.9018 126.702C8.56233 127.181 8.32941 127.719 8.20152 128.309L9.17885 128.521ZM9.72061 127.276C9.97608 126.908 10.3336 126.569 10.8066 126.265L10.2651 125.424C9.70107 125.787 9.2412 126.213 8.89902 126.706L9.72061 127.276ZM10.8066 126.265C11.2698 125.966 11.8821 125.707 12.6577 125.496L12.3955 124.531C11.5539 124.76 10.8391 125.054 10.2651 125.424L10.8066 126.265ZM12.6612 125.495C13.4431 125.277 14.3931 125.109 15.5163 124.997L15.4168 124.002C14.2548 124.118 13.2449 124.294 12.392 124.532L12.6612 125.495ZM15.5163 124.997C16.6378 124.885 17.9652 124.828 19.5007 124.828V123.828C17.9425 123.828 16.5804 123.886 15.4168 124.002L15.5163 124.997ZM19.5007 124.828H22.032V123.828H19.5007V124.828ZM22.032 124.828C23.2858 124.828 24.3756 124.876 25.3036 124.971L25.4049 123.976C24.4345 123.877 23.3094 123.828 22.032 123.828V124.828ZM25.3081 124.971C26.235 125.057 27.0189 125.197 27.665 125.388L27.9478 124.429C27.2228 124.215 26.3719 124.065 25.4003 123.975L25.3081 124.971ZM27.6707 125.389C28.3211 125.573 28.8364 125.8 29.2297 126.063L29.7844 125.23C29.2812 124.895 28.6628 124.63 27.9421 124.427L27.6707 125.389ZM29.2392 126.069C29.6409 126.324 29.9463 126.625 30.1667 126.97L31.0096 126.432C30.7026 125.951 30.2873 125.549 29.775 125.224L29.2392 126.069ZM30.1735 126.981C30.4063 127.326 30.5715 127.725 30.6651 128.185L31.645 127.986C31.5276 127.408 31.3149 126.885 31.0028 126.422L30.1735 126.981ZM30.6651 128.185C30.7627 128.665 30.8132 129.207 30.8132 129.812H31.8132C31.8132 129.153 31.7583 128.543 31.645 127.986L30.6651 128.185ZM31.3132 129.312H28.782V130.312H31.3132V129.312ZM29.282 129.812C29.282 128.983 29.1638 128.274 28.8847 127.727L27.9938 128.181C28.1716 128.53 28.282 129.06 28.282 129.812H29.282ZM28.8847 127.727C28.595 127.158 28.1188 126.749 27.4977 126.49L27.1131 127.413C27.5467 127.594 27.8264 127.852 27.9938 128.181L28.8847 127.727ZM27.5042 126.493C26.9039 126.233 26.1461 126.085 25.253 126.031L25.1919 127.029C26.0213 127.08 26.6523 127.214 27.1066 127.41L27.5042 126.493ZM25.258 126.031C24.3808 125.968 23.3046 125.938 22.032 125.938V126.938C23.2906 126.938 24.3414 126.968 25.1868 127.029L25.258 126.031ZM22.032 125.938H19.5007V126.938H22.032V125.938ZM19.5007 125.938C17.8033 125.938 16.3942 125.999 15.2786 126.125L15.3908 127.119C16.455 126.999 17.8232 126.938 19.5007 126.938V125.938ZM15.2826 126.125C14.1673 126.242 13.2479 126.447 12.5477 126.758L12.9538 127.672C13.5192 127.421 14.3225 127.231 15.3869 127.119L15.2826 126.125ZM12.5477 126.758C11.8421 127.072 11.3005 127.517 10.9885 128.119L11.8763 128.579C12.0564 128.232 12.3937 127.921 12.9538 127.672L12.5477 126.758ZM10.9885 128.119C10.6954 128.684 10.5632 129.362 10.5632 130.129H11.5632C11.5632 129.472 11.6772 128.963 11.8763 128.579L10.9885 128.119ZM10.5632 130.129C10.5632 130.591 10.5955 131.012 10.6634 131.391L11.6477 131.214C11.5925 130.907 11.5632 130.546 11.5632 130.129H10.5632ZM10.6634 131.391C10.7366 131.799 10.8856 132.171 11.115 132.499L11.9343 131.925C11.7946 131.726 11.6974 131.491 11.6477 131.214L10.6634 131.391ZM11.1263 132.514C11.3733 132.84 11.7046 133.1 12.1007 133.303L12.557 132.413C12.2675 132.265 12.0627 132.094 11.923 131.91L11.1263 132.514ZM12.1007 133.303C12.4987 133.507 12.9996 133.664 13.5872 133.783L13.7863 132.803C13.2489 132.694 12.8446 132.56 12.557 132.413L12.1007 133.303ZM13.5872 133.783C14.1788 133.903 14.8881 133.989 15.7109 134.042L15.7759 133.045C14.9815 132.993 14.3198 132.911 13.7863 132.803L13.5872 133.783ZM15.7166 134.043C16.5455 134.087 17.5261 134.109 18.657 134.109V133.109C17.5379 133.109 16.5761 133.088 15.7703 133.044L15.7166 134.043ZM18.657 134.109H22.1375V133.109H18.657V134.109ZM27.9382 178.359L28.3772 178.12L28.235 177.859H27.9382V178.359ZM11.907 178.359V177.859H11.6102L11.468 178.12L11.907 178.359ZM9.37573 183V183.5H9.67255L9.81468 183.239L9.37573 183ZM6.42261 183L5.99072 182.748L5.55209 183.5H6.42261V183ZM18.2351 162.75V162.25H17.9479L17.8032 162.498L18.2351 162.75ZM21.6101 162.75L22.042 162.498L21.8973 162.25H21.6101V162.75ZM33.4226 183V183.5H34.2931L33.8545 182.748L33.4226 183ZM30.4695 183L30.0305 183.239L30.1727 183.5H30.4695V183ZM26.6726 176.25V176.75H27.5342L27.1067 176.002L26.6726 176.25ZM19.9226 164.438L20.3567 164.189L19.9226 163.43L19.4885 164.189L19.9226 164.438ZM13.1726 176.25L12.7385 176.002L12.311 176.75H13.1726V176.25ZM27.9382 177.859H11.907V178.859H27.9382V177.859ZM11.468 178.12L8.93678 182.761L9.81468 183.239L12.3459 178.599L11.468 178.12ZM9.37573 182.5H6.42261V183.5H9.37573V182.5ZM6.8545 183.252L18.667 163.002L17.8032 162.498L5.99072 182.748L6.8545 183.252ZM18.2351 163.25H21.6101V162.25H18.2351V163.25ZM21.1782 163.002L32.9907 183.252L33.8545 182.748L22.042 162.498L21.1782 163.002ZM33.4226 182.5H30.4695V183.5H33.4226V182.5ZM30.9084 182.761L28.3772 178.12L27.4993 178.599L30.0305 183.239L30.9084 182.761ZM27.1067 176.002L20.3567 164.189L19.4885 164.686L26.2385 176.498L27.1067 176.002ZM19.4885 164.189L12.7385 176.002L13.6067 176.498L20.3567 164.686L19.4885 164.189ZM13.1726 176.75H26.6726V175.75H13.1726V176.75ZM9.67896 221V221.5H10.179V221H9.67896ZM7.14771 221H6.64771V221.5H7.14771V221ZM7.14771 200.75V200.25H6.64771V200.75H7.14771ZM11.5906 200.75L11.9358 200.388L11.7909 200.25H11.5906V200.75ZM30.1531 218.469L29.8078 218.83L30.6531 219.637V218.469H30.1531ZM30.1531 200.75V200.25H29.6531V200.75H30.1531ZM32.6843 200.75H33.1843V200.25H32.6843V200.75ZM32.6843 221V221.5H33.1843V221H32.6843ZM29.3093 221L28.97 221.367L29.1137 221.5H29.3093V221ZM9.67896 202.859L10.0183 202.492L9.17896 201.717V202.859H9.67896ZM9.67896 220.5H7.14771V221.5H9.67896V220.5ZM7.64771 221V200.75H6.64771V221H7.64771ZM7.14771 201.25H11.5906V200.25H7.14771V201.25ZM11.2453 201.112L29.8078 218.83L30.4983 218.107L11.9358 200.388L11.2453 201.112ZM30.6531 218.469V200.75H29.6531V218.469H30.6531ZM30.1531 201.25H32.6843V200.25H30.1531V201.25ZM32.1843 200.75V221H33.1843V200.75H32.1843ZM32.6843 220.5H29.3093V221.5H32.6843V220.5ZM29.6487 220.633L10.0183 202.492L9.33961 203.227L28.97 221.367L29.6487 220.633ZM9.17896 202.859V221H10.179V202.859H9.17896ZM28.0305 256.429L28.2034 256.898L28.2106 256.896L28.0305 256.429ZM29.7839 254.175L29.2956 254.067L29.2945 254.073L29.7839 254.175ZM30.0081 251.986L29.5083 251.971L29.5082 251.976L30.0081 251.986ZM30.0081 245.777L29.5081 245.787L29.5083 245.792L30.0081 245.777ZM29.7839 243.588L29.2941 243.689L29.296 243.698L29.7839 243.588ZM28.0305 241.334L27.8505 241.801L27.8577 241.803L28.0305 241.334ZM26.1189 240.952L26.0788 241.45L26.0792 241.45L26.1189 240.952ZM10.6414 240.859V240.359H10.1414V240.859H10.6414ZM10.6414 256.891H10.1414V257.391H10.6414V256.891ZM8.11011 259H7.61011V259.5H8.11011V259ZM8.11011 238.75V238.25H7.61011V238.75H8.11011ZM27.1868 239.027L27.1006 239.519L27.1052 239.52L27.1868 239.027ZM29.8103 239.844L29.5732 240.284L29.5756 240.286L29.8103 239.844ZM31.4055 241.229L30.9895 241.506L30.9925 241.51L31.4055 241.229ZM32.2229 243.193L31.7346 243.301L31.7362 243.307L32.2229 243.193ZM32.5261 245.737L32.0263 245.751L32.0265 245.756L32.5261 245.737ZM32.5261 252.026L32.0264 252.007L32.0263 252.012L32.5261 252.026ZM32.2229 254.57L31.7359 254.457L31.7349 254.461L32.2229 254.57ZM31.4055 256.521L30.9925 256.24L30.9895 256.244L31.4055 256.521ZM29.8103 257.906L29.5756 257.464L29.5733 257.466L29.8103 257.906ZM27.1868 258.736L27.269 259.23L27.2723 259.229L27.1868 258.736ZM23.2844 257.391C24.4087 257.391 25.3676 257.36 26.1585 257.297L26.0792 256.3C25.3233 256.36 24.3926 256.391 23.2844 256.391V257.391ZM26.1585 257.297C26.9589 257.233 27.645 257.104 28.2034 256.898L27.8577 255.96C27.4141 256.123 26.8258 256.241 26.0792 256.3L26.1585 257.297ZM28.2106 256.896C28.7818 256.675 29.2511 256.348 29.5895 255.9L28.7918 255.297C28.5854 255.57 28.2812 255.797 27.8505 255.963L28.2106 256.896ZM29.5895 255.9C29.9187 255.465 30.14 254.915 30.2734 254.277L29.2945 254.073C29.1818 254.612 29.0075 255.012 28.7918 255.297L29.5895 255.9ZM30.2722 254.283C30.4133 253.643 30.49 252.879 30.508 251.997L29.5082 251.976C29.491 252.817 29.4182 253.511 29.2957 254.067L30.2722 254.283ZM30.5078 252.001C30.5344 251.125 30.5476 250.082 30.5476 248.875H29.5476C29.5476 250.076 29.5345 251.108 29.5083 251.971L30.5078 252.001ZM30.5476 248.875C30.5476 247.668 30.5344 246.63 30.5078 245.762L29.5083 245.792C29.5345 246.647 29.5476 247.674 29.5476 248.875H30.5476ZM30.508 245.767C30.49 244.877 30.4134 244.111 30.2719 243.479L29.296 243.698C29.4181 244.243 29.491 244.937 29.5082 245.787L30.508 245.767ZM30.2737 243.488C30.1406 242.841 29.9197 242.286 29.5895 241.85L28.7918 242.453C29.0066 242.737 29.1812 243.14 29.2942 243.689L30.2737 243.488ZM29.5895 241.85C29.2495 241.4 28.7776 241.076 28.2034 240.865L27.8577 241.803C28.2854 241.961 28.5869 242.182 28.7918 242.453L29.5895 241.85ZM28.2106 240.868C27.6494 240.651 26.9607 240.517 26.1585 240.453L26.0792 241.45C26.824 241.509 27.4096 241.63 27.8505 241.8L28.2106 240.868ZM26.159 240.453C25.3764 240.39 24.4173 240.359 23.2844 240.359V241.359C24.4016 241.359 25.3321 241.39 26.0788 241.45L26.159 240.453ZM23.2844 240.359H10.6414V241.359H23.2844V240.359ZM10.1414 240.859V256.891H11.1414V240.859H10.1414ZM10.6414 257.391H23.2844V256.391H10.6414V257.391ZM8.61011 259V238.75H7.61011V259H8.61011ZM8.11011 239.25H23.2844V238.25H8.11011V239.25ZM23.2844 239.25C24.8139 239.25 26.0838 239.341 27.1006 239.519L27.273 238.534C26.1803 238.343 24.8487 238.25 23.2844 238.25V239.25ZM27.1052 239.52C28.1336 239.69 28.9509 239.949 29.5733 240.284L30.0474 239.404C29.2986 239.001 28.3668 238.715 27.2683 238.534L27.1052 239.52ZM29.5756 240.286C30.2101 240.623 30.6739 241.033 30.9895 241.506L31.8215 240.951C31.3988 240.317 30.7992 239.804 30.045 239.403L29.5756 240.286ZM30.9925 241.51C31.3294 242.004 31.5793 242.598 31.7347 243.301L32.7111 243.085C32.5325 242.276 32.2375 241.561 31.8185 240.947L30.9925 241.51ZM31.7362 243.307C31.9026 244.015 32.0007 244.828 32.0263 245.751L33.0259 245.723C32.9988 244.748 32.8947 243.865 32.7096 243.078L31.7362 243.307ZM32.0265 245.756C32.0614 246.689 32.0789 247.729 32.0789 248.875H33.0789C33.0789 247.719 33.0612 246.666 33.0258 245.719L32.0265 245.756ZM32.0789 248.875C32.0789 250.021 32.0614 251.065 32.0265 252.007L33.0258 252.044C33.0612 251.088 33.0789 250.031 33.0789 248.875H32.0789ZM32.0263 252.012C32.0007 252.926 31.9027 253.74 31.7359 254.457L32.7099 254.684C32.8947 253.889 32.9988 253.007 33.0259 252.04L32.0263 252.012ZM31.7349 254.461C31.5798 255.155 31.3301 255.745 30.9925 256.24L31.8185 256.803C32.2368 256.19 32.532 255.48 32.7109 254.679L31.7349 254.461ZM30.9895 256.244C30.6739 256.717 30.2101 257.127 29.5756 257.464L30.045 258.347C30.7992 257.946 31.3988 257.433 31.8215 256.799L30.9895 256.244ZM29.5733 257.466C28.9494 257.801 28.1306 258.065 27.1013 258.244L27.2723 259.229C28.3698 259.038 29.3001 258.748 30.0474 258.346L29.5733 257.466ZM27.1046 258.243C26.0861 258.413 24.8148 258.5 23.2844 258.5V259.5C24.8478 259.5 26.1781 259.411 27.269 259.23L27.1046 258.243ZM23.2844 258.5H8.11011V259.5H23.2844V258.5ZM31.7351 297V297.5H32.2351V297H31.7351ZM29.2039 297H28.7039V297.5H29.2039V297ZM29.1643 291.621L28.6646 291.641L28.6652 291.651L29.1643 291.621ZM28.9402 290.474L28.4741 290.655L28.4786 290.666L28.9402 290.474ZM25.2751 289.05L25.2465 289.55L25.2524 289.55L25.2751 289.05ZM11.0632 288.984V288.484H10.5632V288.984H11.0632ZM11.0632 297V297.5H11.5632V297H11.0632ZM8.53198 297H8.03198V297.5H8.53198V297ZM8.53198 276.75V276.25H8.03198V276.75H8.53198ZM26.7649 276.921L26.711 277.418L26.7155 277.419L26.7649 276.921ZM29.3884 277.409L29.2358 277.885L29.2376 277.886L29.3884 277.409ZM30.9836 278.227L30.6531 278.602L30.6575 278.606L30.9836 278.227ZM31.801 279.374L31.3336 279.551L31.3368 279.559L31.801 279.374ZM32.1042 280.85L31.6048 280.874L31.6053 280.882L32.1042 280.85ZM31.9724 284.884L31.4813 284.79L31.4804 284.795L31.9724 284.884ZM30.2585 287.587L30.5049 288.022L30.511 288.019L30.2585 287.587ZM28.5051 288.141L28.431 287.646V288.635L28.5051 288.141ZM31.6165 291.226L31.12 291.286L31.121 291.293L31.6165 291.226ZM11.0632 286.875H10.5632V287.375H11.0632V286.875ZM25.697 286.822L25.72 287.322L25.7254 287.321L25.697 286.822ZM29.3621 285.385L28.9004 285.193L28.8961 285.204L29.3621 285.385ZM29.5862 284.251L29.087 284.222L29.0866 284.231L29.5862 284.251ZM29.5862 281.18L29.0865 281.201L29.0872 281.212L29.5862 281.18ZM29.3621 280.138L28.9038 280.339L28.9093 280.35L29.3621 280.138ZM27.6086 279.083L27.5139 279.575L27.5222 279.576L27.6086 279.083ZM25.697 278.899L25.6798 279.399L25.68 279.399L25.697 278.899ZM11.0632 278.859V278.359H10.5632V278.859H11.0632ZM31.7351 296.5H29.2039V297.5H31.7351V296.5ZM29.7039 297V293.203H28.7039V297H29.7039ZM29.7039 293.203C29.7039 292.581 29.6906 292.044 29.6634 291.591L28.6652 291.651C28.6908 292.077 28.7039 292.594 28.7039 293.203H29.7039ZM29.6639 291.602C29.6447 291.111 29.5623 290.667 29.4017 290.282L28.4786 290.666C28.5818 290.914 28.6488 291.234 28.6647 291.641L29.6639 291.602ZM29.4062 290.293C29.2483 289.887 28.9899 289.553 28.6363 289.302L28.0576 290.117C28.2489 290.253 28.386 290.429 28.4742 290.655L29.4062 290.293ZM28.6363 289.302C28.2863 289.053 27.8257 288.885 27.2898 288.772L27.0838 289.751C27.5498 289.849 27.8627 289.979 28.0576 290.117L28.6363 289.302ZM27.2898 288.772C26.7526 288.659 26.0861 288.587 25.2979 288.551L25.2524 289.55C26.0111 289.584 26.619 289.653 27.0838 289.751L27.2898 288.772ZM25.3038 288.551C24.5263 288.506 23.5713 288.484 22.4407 288.484V289.484C23.5601 289.484 24.4946 289.506 25.2465 289.549L25.3038 288.551ZM22.4407 288.484H11.0632V289.484H22.4407V288.484ZM10.5632 288.984V297H11.5632V288.984H10.5632ZM11.0632 296.5H8.53198V297.5H11.0632V296.5ZM9.03198 297V276.75H8.03198V297H9.03198ZM8.53198 277.25H22.8625V276.25H8.53198V277.25ZM22.8625 277.25C24.3988 277.25 25.6803 277.307 26.711 277.418L26.8187 276.424C25.7401 276.307 24.4201 276.25 22.8625 276.25V277.25ZM26.7155 277.419C27.7591 277.522 28.5958 277.68 29.2358 277.885L29.541 276.933C28.81 276.699 27.8977 276.531 26.8142 276.424L26.7155 277.419ZM29.2376 277.886C29.8947 278.094 30.355 278.339 30.6531 278.602L31.3142 277.851C30.874 277.464 30.2708 277.164 29.5393 276.932L29.2376 277.886ZM30.6575 278.606C30.9763 278.88 31.198 279.194 31.3336 279.551L32.2684 279.196C32.07 278.674 31.7469 278.224 31.3098 277.848L30.6575 278.606ZM31.3368 279.559C31.4891 279.94 31.5807 280.376 31.6048 280.874L32.6037 280.826C32.575 280.234 32.4645 279.686 32.2653 279.188L31.3368 279.559ZM31.6053 280.882C31.6396 281.415 31.657 282.006 31.657 282.656H32.657C32.657 281.988 32.6392 281.375 32.6032 280.818L31.6053 280.882ZM31.657 282.656C31.657 283.477 31.597 284.187 31.4814 284.79L32.4635 284.978C32.5939 284.298 32.657 283.523 32.657 282.656H31.657ZM31.4804 284.795C31.3751 285.379 31.1965 285.856 30.9556 286.24L31.8027 286.772C32.1243 286.259 32.3412 285.656 32.4645 284.973L31.4804 284.795ZM30.9556 286.24C30.7181 286.619 30.4038 286.923 30.0061 287.155L30.511 288.019C31.0449 287.706 31.4777 287.29 31.8027 286.772L30.9556 286.24ZM30.0122 287.152C29.614 287.377 29.0923 287.547 28.431 287.646L28.5793 288.635C29.3242 288.523 29.9714 288.324 30.5048 288.022L30.0122 287.152ZM28.431 288.635C29.0932 288.734 29.5832 288.903 29.9276 289.118L30.4576 288.27C29.9583 287.958 29.3233 287.758 28.5793 287.646L28.431 288.635ZM29.9276 289.118C30.279 289.338 30.5428 289.618 30.7286 289.961L31.6079 289.485C31.3366 288.984 30.95 288.578 30.4576 288.27L29.9276 289.118ZM30.7286 289.961C30.9214 290.317 31.0557 290.755 31.1201 291.286L32.1128 291.165C32.0366 290.536 31.872 289.972 31.6079 289.485L30.7286 289.961ZM31.121 291.293C31.1964 291.846 31.2351 292.482 31.2351 293.203H32.2351C32.2351 292.448 32.1947 291.765 32.1119 291.158L31.121 291.293ZM31.2351 293.203V297H32.2351V293.203H31.2351ZM11.0632 287.375H22.8625V286.375H11.0632V287.375ZM22.8625 287.375C23.992 287.375 24.9451 287.357 25.72 287.322L25.6741 286.323C24.9197 286.357 23.9831 286.375 22.8625 286.375V287.375ZM25.7254 287.321C26.5126 287.277 27.177 287.2 27.7116 287.087L27.5056 286.109C27.0383 286.207 26.4283 286.28 25.6687 286.323L25.7254 287.321ZM27.7116 287.087C28.2475 286.975 28.7081 286.806 29.0582 286.558L28.4794 285.742C28.2845 285.88 27.9717 286.011 27.5056 286.109L27.7116 287.087ZM29.0582 286.558C29.4118 286.307 29.6702 285.972 29.8281 285.566L28.8961 285.204C28.8079 285.431 28.6708 285.606 28.4794 285.742L29.0582 286.558ZM29.8236 285.578C29.9837 285.193 30.0665 284.754 30.0858 284.271L29.0866 284.231C29.0707 284.628 29.0041 284.944 28.9005 285.193L29.8236 285.578ZM30.0853 284.281C30.1124 283.82 30.1257 283.278 30.1257 282.656H29.1257C29.1257 283.265 29.1127 283.786 29.087 284.222L30.0853 284.281ZM30.1257 282.656C30.1257 282.078 30.1124 281.575 30.0852 281.148L29.0872 281.212C29.1127 281.611 29.1257 282.092 29.1257 282.656H30.1257ZM30.0857 281.158C30.0662 280.7 29.9823 280.283 29.8148 279.926L28.9093 280.35C29.0054 280.555 29.071 280.833 29.0866 281.201L30.0857 281.158ZM29.8201 279.938C29.6544 279.559 29.3859 279.258 29.0301 279.04L28.5075 279.892C28.6966 280.008 28.8237 280.155 28.904 280.339L29.8201 279.938ZM29.0301 279.04C28.6818 278.826 28.2256 278.684 27.695 278.591L27.5222 279.576C27.9936 279.659 28.3109 279.772 28.5075 279.892L29.0301 279.04ZM27.7034 278.593C27.1673 278.489 26.5017 278.426 25.7141 278.399L25.68 279.399C26.4392 279.425 27.048 279.485 27.5139 279.574L27.7034 278.593ZM25.7143 278.399C24.9419 278.373 23.9909 278.359 22.8625 278.359V279.359C23.9842 279.359 24.9229 279.373 25.6798 279.399L25.7143 278.399ZM22.8625 278.359H11.0632V279.359H22.8625V278.359ZM10.5632 278.859V286.875H11.5632V278.859H10.5632ZM27.9382 330.359L28.3772 330.12L28.235 329.859H27.9382V330.359ZM11.907 330.359V329.859H11.6102L11.468 330.12L11.907 330.359ZM9.37573 335V335.5H9.67255L9.81468 335.239L9.37573 335ZM6.42261 335L5.99072 334.748L5.55209 335.5H6.42261V335ZM18.2351 314.75V314.25H17.9479L17.8032 314.498L18.2351 314.75ZM21.6101 314.75L22.042 314.498L21.8973 314.25H21.6101V314.75ZM33.4226 335V335.5H34.2931L33.8545 334.748L33.4226 335ZM30.4695 335L30.0305 335.239L30.1727 335.5H30.4695V335ZM26.6726 328.25V328.75H27.5342L27.1067 328.002L26.6726 328.25ZM19.9226 316.438L20.3567 316.189L19.9226 315.43L19.4885 316.189L19.9226 316.438ZM13.1726 328.25L12.7385 328.002L12.311 328.75H13.1726V328.25ZM27.9382 329.859H11.907V330.859H27.9382V329.859ZM11.468 330.12L8.93678 334.761L9.81468 335.239L12.3459 330.599L11.468 330.12ZM9.37573 334.5H6.42261V335.5H9.37573V334.5ZM6.8545 335.252L18.667 315.002L17.8032 314.498L5.99072 334.748L6.8545 335.252ZM18.2351 315.25H21.6101V314.25H18.2351V315.25ZM21.1782 315.002L32.9907 335.252L33.8545 334.748L22.042 314.498L21.1782 315.002ZM33.4226 334.5H30.4695V335.5H33.4226V334.5ZM30.9084 334.761L28.3772 330.12L27.4993 330.599L30.0305 335.239L30.9084 334.761ZM27.1067 328.002L20.3567 316.189L19.4885 316.686L26.2385 328.498L27.1067 328.002ZM19.4885 316.189L12.7385 328.002L13.6067 328.498L20.3567 316.686L19.4885 316.189ZM13.1726 328.75H26.6726V327.75H13.1726V328.75Z" fill="black" mask="url(#path-1-outside-1_3911_84)"/>
</g>
<g filter="url(#filter1_d_3911_84)">
<path d="M28.6125 17.0781C28.6125 16.0234 28.4983 15.1885 28.2698 14.5732C28.0413 13.958 27.6633 13.4922 27.136 13.1758C26.6086 12.8594 25.9143 12.6572 25.053 12.5693C24.2004 12.4814 23.1414 12.4375 21.8757 12.4375H15.9563C14.8313 12.4375 13.8821 12.4727 13.1086 12.543C12.344 12.6045 11.7112 12.7363 11.2102 12.9385C10.7092 13.1406 10.3225 13.4307 10.05 13.8086C9.77759 14.1865 9.57983 14.6875 9.45679 15.3115C9.33374 15.9355 9.26343 16.7046 9.24585 17.6187C9.22827 18.5239 9.21948 19.6094 9.21948 20.875C9.21948 22.1406 9.22827 23.2305 9.24585 24.1445C9.27222 25.0498 9.34692 25.8145 9.46997 26.4385C9.59302 27.0625 9.78638 27.5635 10.05 27.9414C10.3225 28.3193 10.7092 28.6094 11.2102 28.8115C11.7112 29.0137 12.344 29.1499 13.1086 29.2202C13.8821 29.2817 14.8313 29.3125 15.9563 29.3125H21.8757C22.8601 29.3125 23.7083 29.2861 24.4202 29.2334C25.1321 29.1807 25.7385 29.084 26.2395 28.9434C26.7405 28.8027 27.1448 28.6094 27.4524 28.3633C27.76 28.1172 27.9973 27.8096 28.1643 27.4404C28.3401 27.0625 28.4587 26.6143 28.5203 26.0957C28.5818 25.5684 28.6125 24.9531 28.6125 24.25H31.1438C31.1438 25.0938 31.0911 25.8584 30.9856 26.5439C30.8801 27.2207 30.6912 27.8271 30.4187 28.3633C30.155 28.8906 29.7991 29.3477 29.3508 29.7344C28.9026 30.1211 28.3357 30.4419 27.6501 30.6968C26.9646 30.9429 26.1472 31.123 25.198 31.2373C24.2488 31.3604 23.1414 31.4219 21.8757 31.4219H15.9563C14.4094 31.4219 13.1042 31.3252 12.0408 31.1318C10.9861 30.9473 10.116 30.666 9.43042 30.2881C8.74487 29.9014 8.21313 29.418 7.83521 28.8379C7.46606 28.2578 7.1936 27.5767 7.01782 26.7944C6.85083 26.0122 6.75415 25.1289 6.72778 24.1445C6.70142 23.1602 6.68823 22.0703 6.68823 20.875C6.68823 19.6797 6.70142 18.5898 6.72778 17.6055C6.75415 16.6211 6.85083 15.7378 7.01782 14.9556C7.1936 14.1733 7.46606 13.4922 7.83521 12.9121C8.21313 12.332 8.74487 11.853 9.43042 11.4751C10.116 11.0884 10.9861 10.8027 12.0408 10.6182C13.1042 10.4248 14.4094 10.3281 15.9563 10.3281H21.8757C23.1414 10.3281 24.2488 10.3896 25.198 10.5127C26.1472 10.627 26.9646 10.8071 27.6501 11.0532C28.3357 11.2905 28.9026 11.5938 29.3508 11.9629C29.7991 12.332 30.155 12.7671 30.4187 13.2681C30.6912 13.769 30.8801 14.3359 30.9856 14.9688C31.0911 15.6016 31.1438 16.3047 31.1438 17.0781H28.6125ZM26.9382 64.3594H10.907L8.37573 69H5.42261L17.2351 48.75H20.6101L32.4226 69H29.4695L26.9382 64.3594ZM25.6726 62.25L18.9226 50.4375L12.1726 62.25H25.6726ZM21.1375 95.6094C22.5261 95.6094 23.717 95.6665 24.7102 95.7808C25.7034 95.895 26.5383 96.0664 27.2151 96.2949C27.9006 96.5146 28.4456 96.7915 28.8499 97.1255C29.2542 97.4595 29.5662 97.8418 29.7859 98.2725C30.0056 98.6943 30.1462 99.1689 30.2078 99.6963C30.2781 100.224 30.3132 100.795 30.3132 101.41C30.3132 102.025 30.2561 102.605 30.1418 103.15C30.0364 103.687 29.843 104.179 29.5618 104.627C29.2805 105.075 28.8982 105.475 28.4148 105.827C27.9314 106.178 27.3162 106.477 26.5691 106.723C25.822 106.969 24.9211 107.154 23.8665 107.277C22.8206 107.409 21.5945 107.475 20.1882 107.475H16.8132C15.5476 107.475 14.4402 107.426 13.491 107.33C12.5417 107.233 11.7244 107.088 11.0388 106.895C10.3533 106.692 9.78638 106.442 9.33813 106.143C8.88989 105.835 8.52954 105.479 8.25708 105.075C7.99341 104.662 7.80884 104.196 7.70337 103.678C7.5979 103.15 7.54517 102.57 7.54517 101.938H10.0764C10.0764 102.729 10.1907 103.348 10.4192 103.796C10.6477 104.245 11.0256 104.583 11.553 104.812C12.0803 105.031 12.7703 105.172 13.6228 105.233C14.4841 105.286 15.5476 105.312 16.8132 105.312H20.1882C21.6648 105.312 22.8909 105.242 23.8665 105.102C24.842 104.961 25.6199 104.737 26.2 104.429C26.78 104.122 27.1887 103.722 27.426 103.229C27.6633 102.729 27.782 102.122 27.782 101.41C27.782 100.698 27.6985 100.105 27.5315 99.6304C27.3733 99.1558 27.0525 98.7778 26.5691 98.4966C26.0945 98.2153 25.4221 98.0176 24.552 97.9033C23.6819 97.7803 22.5437 97.7188 21.1375 97.7188H17.657C16.1101 97.7188 14.783 97.6616 13.6755 97.5474C12.5769 97.4331 11.6541 97.2705 10.907 97.0596C10.1599 96.8398 9.56226 96.5718 9.11401 96.2554C8.66577 95.9302 8.323 95.561 8.08569 95.1479C7.85718 94.7349 7.70776 94.2778 7.63745 93.7769C7.56714 93.2671 7.53198 92.7178 7.53198 92.1289C7.53198 91.5137 7.58472 90.9424 7.69019 90.415C7.80444 89.8877 8.01099 89.4131 8.30981 88.9912C8.60864 88.5605 9.01733 88.1782 9.53589 87.8442C10.0544 87.5103 10.718 87.2334 11.5266 87.0137C12.344 86.7852 13.324 86.6138 14.4666 86.4995C15.6091 86.3853 16.9539 86.3281 18.5007 86.3281H21.032C22.2976 86.3281 23.405 86.3765 24.3542 86.4731C25.3035 86.561 26.1208 86.7061 26.8064 86.9082C27.4919 87.1016 28.0588 87.3477 28.5071 87.6465C28.9641 87.9365 29.3245 88.2881 29.5881 88.7012C29.8606 89.1055 30.0496 89.5669 30.155 90.0854C30.2605 90.604 30.3132 91.1797 30.3132 91.8125H27.782C27.782 91.0215 27.6677 90.4019 27.4392 89.9536C27.2107 89.5054 26.8328 89.1714 26.3054 88.9517C25.7781 88.7231 25.0837 88.5825 24.2224 88.5298C23.3611 88.4683 22.2976 88.4375 21.032 88.4375H18.5007C16.8132 88.4375 15.4246 88.499 14.3347 88.6221C13.2449 88.7363 12.3835 88.9341 11.7507 89.2153C11.1179 89.4966 10.6785 89.8745 10.4324 90.3491C10.1863 90.8237 10.0632 91.417 10.0632 92.1289C10.0632 92.5684 10.094 92.9595 10.1555 93.3022C10.217 93.645 10.3401 93.9482 10.5247 94.2119C10.718 94.4668 10.9861 94.6821 11.3289 94.8579C11.6716 95.0337 12.1243 95.1787 12.6868 95.293C13.2493 95.4072 13.9348 95.4907 14.7434 95.5435C15.5608 95.5874 16.532 95.6094 17.657 95.6094H21.1375ZM21.1375 133.609C22.5261 133.609 23.717 133.667 24.7102 133.781C25.7034 133.895 26.5383 134.066 27.2151 134.295C27.9006 134.515 28.4456 134.792 28.8499 135.125C29.2542 135.459 29.5662 135.842 29.7859 136.272C30.0056 136.694 30.1462 137.169 30.2078 137.696C30.2781 138.224 30.3132 138.795 30.3132 139.41C30.3132 140.025 30.2561 140.605 30.1418 141.15C30.0364 141.687 29.843 142.179 29.5618 142.627C29.2805 143.075 28.8982 143.475 28.4148 143.827C27.9314 144.178 27.3162 144.477 26.5691 144.723C25.822 144.969 24.9211 145.154 23.8665 145.277C22.8206 145.409 21.5945 145.475 20.1882 145.475H16.8132C15.5476 145.475 14.4402 145.426 13.491 145.33C12.5417 145.233 11.7244 145.088 11.0388 144.895C10.3533 144.692 9.78638 144.442 9.33813 144.143C8.88989 143.835 8.52954 143.479 8.25708 143.075C7.99341 142.662 7.80884 142.196 7.70337 141.678C7.5979 141.15 7.54517 140.57 7.54517 139.938H10.0764C10.0764 140.729 10.1907 141.348 10.4192 141.796C10.6477 142.245 11.0256 142.583 11.553 142.812C12.0803 143.031 12.7703 143.172 13.6228 143.233C14.4841 143.286 15.5476 143.312 16.8132 143.312H20.1882C21.6648 143.312 22.8909 143.242 23.8665 143.102C24.842 142.961 25.6199 142.737 26.2 142.429C26.78 142.122 27.1887 141.722 27.426 141.229C27.6633 140.729 27.782 140.122 27.782 139.41C27.782 138.698 27.6985 138.105 27.5315 137.63C27.3733 137.156 27.0525 136.778 26.5691 136.497C26.0945 136.215 25.4221 136.018 24.552 135.903C23.6819 135.78 22.5437 135.719 21.1375 135.719H17.657C16.1101 135.719 14.783 135.662 13.6755 135.547C12.5769 135.433 11.6541 135.271 10.907 135.06C10.1599 134.84 9.56226 134.572 9.11401 134.255C8.66577 133.93 8.323 133.561 8.08569 133.148C7.85718 132.735 7.70776 132.278 7.63745 131.777C7.56714 131.267 7.53198 130.718 7.53198 130.129C7.53198 129.514 7.58472 128.942 7.69019 128.415C7.80444 127.888 8.01099 127.413 8.30981 126.991C8.60864 126.561 9.01733 126.178 9.53589 125.844C10.0544 125.51 10.718 125.233 11.5266 125.014C12.344 124.785 13.324 124.614 14.4666 124.5C15.6091 124.385 16.9539 124.328 18.5007 124.328H21.032C22.2976 124.328 23.405 124.376 24.3542 124.473C25.3035 124.561 26.1208 124.706 26.8064 124.908C27.4919 125.102 28.0588 125.348 28.5071 125.646C28.9641 125.937 29.3245 126.288 29.5881 126.701C29.8606 127.105 30.0496 127.567 30.155 128.085C30.2605 128.604 30.3132 129.18 30.3132 129.812H27.782C27.782 129.021 27.6677 128.402 27.4392 127.954C27.2107 127.505 26.8328 127.171 26.3054 126.952C25.7781 126.723 25.0837 126.583 24.2224 126.53C23.3611 126.468 22.2976 126.438 21.032 126.438H18.5007C16.8132 126.438 15.4246 126.499 14.3347 126.622C13.2449 126.736 12.3835 126.934 11.7507 127.215C11.1179 127.497 10.6785 127.875 10.4324 128.349C10.1863 128.824 10.0632 129.417 10.0632 130.129C10.0632 130.568 10.094 130.959 10.1555 131.302C10.217 131.645 10.3401 131.948 10.5247 132.212C10.718 132.467 10.9861 132.682 11.3289 132.858C11.6716 133.034 12.1243 133.179 12.6868 133.293C13.2493 133.407 13.9348 133.491 14.7434 133.543C15.5608 133.587 16.532 133.609 17.657 133.609H21.1375ZM26.9382 178.359H10.907L8.37573 183H5.42261L17.2351 162.75H20.6101L32.4226 183H29.4695L26.9382 178.359ZM25.6726 176.25L18.9226 164.438L12.1726 176.25H25.6726ZM8.67896 221H6.14771V200.75H10.5906L29.1531 218.469V200.75H31.6843V221H28.3093L8.67896 202.859V221ZM22.2844 256.891C23.4006 256.891 24.3455 256.86 25.1189 256.798C25.8923 256.737 26.5295 256.614 27.0305 256.429C27.5315 256.236 27.9182 255.959 28.1907 255.599C28.4631 255.238 28.6609 254.764 28.7839 254.175C28.9158 253.577 28.9905 252.848 29.0081 251.986C29.0344 251.116 29.0476 250.079 29.0476 248.875C29.0476 247.671 29.0344 246.638 29.0081 245.777C28.9905 244.907 28.9158 244.177 28.7839 243.588C28.6609 242.991 28.4631 242.512 28.1907 242.151C27.9182 241.791 27.5315 241.519 27.0305 241.334C26.5295 241.141 25.8923 241.013 25.1189 240.952C24.3542 240.89 23.4094 240.859 22.2844 240.859H9.64136V256.891H22.2844ZM7.11011 259V238.75H22.2844C23.8313 238.75 25.1321 238.842 26.1868 239.027C27.2502 239.203 28.1248 239.475 28.8103 239.844C29.5046 240.213 30.0364 240.675 30.4055 241.229C30.7834 241.782 31.0559 242.437 31.2229 243.193C31.3987 243.94 31.4998 244.788 31.5261 245.737C31.5613 246.678 31.5789 247.724 31.5789 248.875C31.5789 250.026 31.5613 251.077 31.5261 252.026C31.4998 252.966 31.3987 253.814 31.2229 254.57C31.0559 255.317 30.7834 255.968 30.4055 256.521C30.0364 257.075 29.5046 257.537 28.8103 257.906C28.1248 258.275 27.2502 258.552 26.1868 258.736C25.1321 258.912 23.8313 259 22.2844 259H7.11011ZM30.7351 297H28.2039V293.203C28.2039 292.588 28.1907 292.061 28.1643 291.621C28.1467 291.173 28.072 290.791 27.9402 290.474C27.8171 290.158 27.6194 289.903 27.3469 289.709C27.0745 289.516 26.6877 289.367 26.1868 289.261C25.6858 289.156 25.0486 289.085 24.2751 289.05C23.5105 289.006 22.5657 288.984 21.4407 288.984H10.0632V297H7.53198V276.75H21.8625C23.4094 276.75 24.7102 276.807 25.7649 276.921C26.8284 277.027 27.7029 277.189 28.3884 277.409C29.0828 277.629 29.6145 277.901 29.9836 278.227C30.3616 278.552 30.634 278.934 30.801 279.374C30.9768 279.813 31.0779 280.305 31.1042 280.85C31.1394 281.395 31.157 281.997 31.157 282.656C31.157 283.5 31.0955 284.243 30.9724 284.884C30.8582 285.517 30.6604 286.058 30.3792 286.506C30.0979 286.954 29.7244 287.314 29.2585 287.587C28.7927 287.851 28.2083 288.035 27.5051 288.141C28.2083 288.246 28.7708 288.431 29.1926 288.694C29.6145 288.958 29.9397 289.301 30.1682 289.723C30.3967 290.145 30.5461 290.646 30.6165 291.226C30.6956 291.806 30.7351 292.465 30.7351 293.203V297ZM10.0632 286.875H21.8625C22.9875 286.875 23.9324 286.857 24.697 286.822C25.4705 286.778 26.1077 286.704 26.6086 286.598C27.1096 286.493 27.4963 286.343 27.7688 286.15C28.0413 285.957 28.239 285.702 28.3621 285.385C28.4939 285.069 28.5686 284.691 28.5862 284.251C28.6125 283.803 28.6257 283.271 28.6257 282.656C28.6257 282.085 28.6125 281.593 28.5862 281.18C28.5686 280.767 28.4939 280.419 28.3621 280.138C28.239 279.857 28.0413 279.633 27.7688 279.466C27.4963 279.299 27.1096 279.171 26.6086 279.083C26.1077 278.987 25.4705 278.925 24.697 278.899C23.9324 278.873 22.9875 278.859 21.8625 278.859H10.0632V286.875ZM26.9382 330.359H10.907L8.37573 335H5.42261L17.2351 314.75H20.6101L32.4226 335H29.4695L26.9382 330.359ZM25.6726 328.25L18.9226 316.438L12.1726 328.25H25.6726Z" fill="black"/>
</g>
<defs>
<filter id="filter0_d_3911_84" x="1.06876" y="10.3281" width="37.7077" height="335.38" filterUnits="userSpaceOnUse" color-interpolation-filters="sRGB">
<feFlood flood-opacity="0" result="BackgroundImageFix"/>
<feColorMatrix in="SourceAlpha" type="matrix" values="0 0 0 0 0 0 0 0 0 0 0 0 0 0 0 0 0 0 127 0" result="hardAlpha"/>
<feOffset dy="5.35385"/>
<feGaussianBlur stdDeviation="2.67692"/>
<feComposite in2="hardAlpha" operator="out"/>
<feColorMatrix type="matrix" values="0 0 0 0 0 0 0 0 0 0 0 0 0 0 0 0 0 0 0.25 0"/>
<feBlend mode="normal" in2="BackgroundImageFix" result="effect1_dropShadow_3911_84"/>
<feBlend mode="normal" in="SourceGraphic" in2="effect1_dropShadow_3911_84" result="shape"/>
</filter>
<filter id="filter1_d_3911_84" x="0.0687613" y="10.3281" width="37.7077" height="335.38" filterUnits="userSpaceOnUse" color-interpolation-filters="sRGB">
<feFlood flood-opacity="0" result="BackgroundImageFix"/>
<feColorMatrix in="SourceAlpha" type="matrix" values="0 0 0 0 0 0 0 0 0 0 0 0 0 0 0 0 0 0 127 0" result="hardAlpha"/>
<feOffset dy="5.35385"/>
<feGaussianBlur stdDeviation="2.67692"/>
<feComposite in2="hardAlpha" operator="out"/>
<feColorMatrix type="matrix" values="0 0 0 0 0 0 0 0 0 0 0 0 0 0 0 0 0 0 0.25 0"/>
<feBlend mode="normal" in2="BackgroundImageFix" result="effect1_dropShadow_3911_84"/>
<feBlend mode="normal" in="SourceGraphic" in2="effect1_dropShadow_3911_84" result="shape"/>
</filter>
</defs>
</svg>
