<!-- <svg width="38" height="270" viewBox="0 0 38 270" fill="none" xmlns="http://www.w3.org/2000/svg"> -->
<svg width="auto" height="auto" viewBox="0 0 38 270" fill="none" xmlns="http://www.w3.org/2000/svg">
<g filter="url(#filter0_d_3943_52)">
<mask id="path-1-outside-1_3943_52" maskUnits="userSpaceOnUse" x="6" y="10" width="28" height="250" fill="black">
<rect fill="white" x="6" y="10" width="28" height="250"/>
<path d="M10.6406 31V10.75H30.0469V12.8594H13.1719V19.6094H29.2031V21.7188H13.1719V31H10.6406ZM31.7344 48.75V58.875C31.7344 60.0703 31.7168 61.1602 31.6816 62.1445C31.6553 63.1289 31.5542 64.0122 31.3784 64.7944C31.2114 65.5767 30.9434 66.2578 30.5742 66.8379C30.2051 67.418 29.6777 67.9014 28.9922 68.2881C28.3066 68.666 27.4321 68.9473 26.3687 69.1318C25.314 69.3252 24.0132 69.4219 22.4663 69.4219H16.5337C14.9868 69.4219 13.6816 69.3252 12.6182 69.1318C11.5635 68.9473 10.6934 68.666 10.0078 68.2881C9.32227 67.9014 8.79053 67.418 8.4126 66.8379C8.04346 66.2578 7.771 65.5767 7.59521 64.7944C7.42822 64.0122 7.33154 63.1289 7.30518 62.1445C7.27881 61.1602 7.26562 60.0703 7.26562 58.875V48.75H9.79688V58.875C9.79688 60.1406 9.80566 61.2305 9.82324 62.1445C9.84961 63.0498 9.92432 63.8145 10.0474 64.4385C10.1704 65.0625 10.3638 65.5635 10.6274 65.9414C10.8999 66.3193 11.2866 66.6094 11.7876 66.8115C12.2886 67.0137 12.9214 67.1499 13.686 67.2202C14.4595 67.2817 15.4087 67.3125 16.5337 67.3125H22.4663C23.5825 67.3125 24.5273 67.2817 25.3008 67.2202C26.0742 67.1499 26.707 67.0137 27.1992 66.8115C27.7002 66.6094 28.0869 66.3193 28.3594 65.9414C28.6318 65.5635 28.8296 65.0625 28.9526 64.4385C29.0845 63.8145 29.1592 63.0498 29.1768 62.1445C29.1943 61.2305 29.2031 60.1406 29.2031 58.875L29.1899 48.75H31.7344ZM9.25635 107H6.7251V86.75H11.168L29.7305 104.469V86.75H32.2617V107H28.8867L9.25635 88.8594V107ZM29.1899 131.078C29.1899 130.023 29.0757 129.188 28.8472 128.573C28.6187 127.958 28.2407 127.492 27.7134 127.176C27.186 126.859 26.4917 126.657 25.6304 126.569C24.7778 126.481 23.7188 126.438 22.4531 126.438H16.5337C15.4087 126.438 14.4595 126.473 13.686 126.543C12.9214 126.604 12.2886 126.736 11.7876 126.938C11.2866 127.141 10.8999 127.431 10.6274 127.809C10.355 128.187 10.1572 128.688 10.0342 129.312C9.91113 129.936 9.84082 130.705 9.82324 131.619C9.80566 132.524 9.79688 133.609 9.79688 134.875C9.79688 136.141 9.80566 137.23 9.82324 138.145C9.84961 139.05 9.92432 139.814 10.0474 140.438C10.1704 141.062 10.3638 141.563 10.6274 141.941C10.8999 142.319 11.2866 142.609 11.7876 142.812C12.2886 143.014 12.9214 143.15 13.686 143.22C14.4595 143.282 15.4087 143.312 16.5337 143.312H22.4531C23.4375 143.312 24.2856 143.286 24.9976 143.233C25.7095 143.181 26.3159 143.084 26.8169 142.943C27.3179 142.803 27.7222 142.609 28.0298 142.363C28.3374 142.117 28.5747 141.81 28.7417 141.44C28.9175 141.062 29.0361 140.614 29.0977 140.096C29.1592 139.568 29.1899 138.953 29.1899 138.25H31.7212C31.7212 139.094 31.6685 139.858 31.563 140.544C31.4575 141.221 31.2686 141.827 30.9961 142.363C30.7324 142.891 30.3765 143.348 29.9282 143.734C29.48 144.121 28.9131 144.442 28.2275 144.697C27.542 144.943 26.7246 145.123 25.7754 145.237C24.8262 145.36 23.7188 145.422 22.4531 145.422H16.5337C14.9868 145.422 13.6816 145.325 12.6182 145.132C11.5635 144.947 10.6934 144.666 10.0078 144.288C9.32227 143.901 8.79053 143.418 8.4126 142.838C8.04346 142.258 7.771 141.577 7.59521 140.794C7.42822 140.012 7.33154 139.129 7.30518 138.145C7.27881 137.16 7.26562 136.07 7.26562 134.875C7.26562 133.68 7.27881 132.59 7.30518 131.605C7.33154 130.621 7.42822 129.738 7.59521 128.956C7.771 128.173 8.04346 127.492 8.4126 126.912C8.79053 126.332 9.32227 125.853 10.0078 125.475C10.6934 125.088 11.5635 124.803 12.6182 124.618C13.6816 124.425 14.9868 124.328 16.5337 124.328H22.4531C23.7188 124.328 24.8262 124.39 25.7754 124.513C26.7246 124.627 27.542 124.807 28.2275 125.053C28.9131 125.291 29.48 125.594 29.9282 125.963C30.3765 126.332 30.7324 126.767 30.9961 127.268C31.2686 127.769 31.4575 128.336 31.563 128.969C31.6685 129.602 31.7212 130.305 31.7212 131.078H29.1899ZM27.7266 162.75H31.5234L17.1797 172.664L31.9453 183H28.1484L14.6484 173.719H11.2734V183H8.74219V162.75H11.2734V171.609H14.6484L27.7266 162.75ZM18.2344 200.75H20.7656V221H18.2344V200.75ZM30.8906 238.75V240.859H20.7656V259H18.2344V240.859H8.10938V238.75H30.8906Z"/>
</mask>
<path d="M10.6406 31H10.1406V31.5H10.6406V31ZM10.6406 10.75V10.25H10.1406V10.75H10.6406ZM30.0469 10.75H30.5469V10.25H30.0469V10.75ZM30.0469 12.8594V13.3594H30.5469V12.8594H30.0469ZM13.1719 12.8594V12.3594H12.6719V12.8594H13.1719ZM13.1719 19.6094H12.6719V20.1094H13.1719V19.6094ZM29.2031 19.6094H29.7031V19.1094H29.2031V19.6094ZM29.2031 21.7188V22.2188H29.7031V21.7188H29.2031ZM13.1719 21.7188V21.2188H12.6719V21.7188H13.1719ZM13.1719 31V31.5H13.6719V31H13.1719ZM11.1406 31V10.75H10.1406V31H11.1406ZM10.6406 11.25H30.0469V10.25H10.6406V11.25ZM29.5469 10.75V12.8594H30.5469V10.75H29.5469ZM30.0469 12.3594H13.1719V13.3594H30.0469V12.3594ZM12.6719 12.8594V19.6094H13.6719V12.8594H12.6719ZM13.1719 20.1094H29.2031V19.1094H13.1719V20.1094ZM28.7031 19.6094V21.7188H29.7031V19.6094H28.7031ZM29.2031 21.2188H13.1719V22.2188H29.2031V21.2188ZM12.6719 21.7188V31H13.6719V21.7188H12.6719ZM13.1719 30.5H10.6406V31.5H13.1719V30.5ZM31.7344 48.75H32.2344V48.25H31.7344V48.75ZM31.6816 62.1445L31.1819 62.1267L31.1818 62.1311L31.6816 62.1445ZM31.3784 64.7944L30.8906 64.6848L30.8894 64.69L31.3784 64.7944ZM28.9922 68.2881L29.2336 68.726L29.2378 68.7236L28.9922 68.2881ZM26.3687 69.1318L26.2831 68.6392L26.2785 68.64L26.3687 69.1318ZM12.6182 69.1318L12.7076 68.6399L12.7044 68.6393L12.6182 69.1318ZM10.0078 68.2881L9.76214 68.7236L9.76642 68.726L10.0078 68.2881ZM8.4126 66.8379L7.99074 67.1063L7.99367 67.1108L8.4126 66.8379ZM7.59521 64.7944L7.10621 64.8988L7.10738 64.9041L7.59521 64.7944ZM7.26562 48.75V48.25H6.76562V48.75H7.26562ZM9.79688 48.75H10.2969V48.25H9.79688V48.75ZM9.82324 62.1445L9.32331 62.1541L9.32345 62.1591L9.82324 62.1445ZM10.6274 65.9414L10.2173 66.2275L10.2219 66.2338L10.6274 65.9414ZM13.686 67.2202L13.6402 67.7182L13.6464 67.7186L13.686 67.2202ZM25.3008 67.2202L25.3404 67.7187L25.346 67.7182L25.3008 67.2202ZM27.1992 66.8115L27.0121 66.3478L27.0093 66.349L27.1992 66.8115ZM28.9526 64.4385L28.4634 64.3351L28.4621 64.3417L28.9526 64.4385ZM29.1768 62.1445L29.6767 62.1542L29.6767 62.1541L29.1768 62.1445ZM29.2031 58.875L29.7031 58.875L29.7031 58.8743L29.2031 58.875ZM29.1899 48.75V48.25H28.6893L28.6899 48.7507L29.1899 48.75ZM31.2344 48.75V58.875H32.2344V48.75H31.2344ZM31.2344 58.875C31.2344 60.0656 31.2169 61.1493 31.182 62.1267L32.1813 62.1624C32.2167 61.171 32.2344 60.0751 32.2344 58.875H31.2344ZM31.1818 62.1311C31.1561 63.0902 31.0579 63.9404 30.8906 64.6848L31.8663 64.9041C32.0505 64.084 32.1544 63.1677 32.1815 62.1579L31.1818 62.1311ZM30.8894 64.69C30.7329 65.4234 30.4848 66.0471 30.1524 66.5695L30.996 67.1063C31.4019 66.4685 31.69 65.7299 31.8674 64.8988L30.8894 64.69ZM30.1524 66.5695C29.8334 67.0708 29.371 67.5003 28.7465 67.8526L29.2378 68.7236C29.9845 68.3024 30.5768 67.7652 30.996 67.1063L30.1524 66.5695ZM28.7508 67.8502C28.1283 68.1934 27.3112 68.4608 26.2832 68.6392L26.4542 69.6245C27.5531 69.4337 28.4849 69.1387 29.2336 68.726L28.7508 67.8502ZM26.2785 68.64C25.2634 68.8261 23.995 68.9219 22.4663 68.9219V69.9219C24.0314 69.9219 25.3645 69.8243 26.4588 69.6236L26.2785 68.64ZM22.4663 68.9219H16.5337V69.9219H22.4663V68.9219ZM16.5337 68.9219C15.0052 68.9219 13.732 68.8261 12.7076 68.6399L12.5287 69.6238C13.6313 69.8242 14.9685 69.9219 16.5337 69.9219V68.9219ZM12.7044 68.6393C11.6855 68.461 10.8722 68.1937 10.2492 67.8502L9.76642 68.726C10.5145 69.1383 11.4415 69.4335 12.532 69.6244L12.7044 68.6393ZM10.2535 67.8526C9.62824 67.4999 9.15992 67.069 8.83153 66.565L7.99367 67.1108C8.42114 67.7669 9.01629 68.3028 9.76215 68.7236L10.2535 67.8526ZM8.83443 66.5695C8.50097 66.0454 8.24823 65.4199 8.08305 64.6848L7.10738 64.9041C7.29376 65.7335 7.58594 66.4702 7.99077 67.1063L8.83443 66.5695ZM8.0842 64.69C7.92486 63.9437 7.83072 63.0916 7.805 62.1311L6.80536 62.1579C6.83236 63.1662 6.93159 64.0807 7.10623 64.8988L8.0842 64.69ZM7.805 62.1311C7.77877 61.1521 7.76562 60.0668 7.76562 58.875H6.76562C6.76562 60.0739 6.77885 61.1683 6.80536 62.1579L7.805 62.1311ZM7.76562 58.875V48.75H6.76562V58.875H7.76562ZM7.26562 49.25H9.79688V48.25H7.26562V49.25ZM9.29688 48.75V58.875H10.2969V48.75H9.29688ZM9.29688 58.875C9.29688 60.1427 9.30568 61.2359 9.32333 62.1541L10.3231 62.1349C10.3057 61.225 10.2969 60.1385 10.2969 58.875H9.29688ZM9.32345 62.1591C9.35032 63.0814 9.42671 63.8754 9.55681 64.5352L10.5379 64.3417C10.4219 63.7535 10.3489 63.0182 10.323 62.13L9.32345 62.1591ZM9.55681 64.5352C9.68849 65.203 9.902 65.7755 10.2174 66.2275L11.0375 65.6553C10.8255 65.3515 10.6523 64.922 10.5379 64.3417L9.55681 64.5352ZM10.2219 66.2338C10.5579 66.6999 11.0262 67.0435 11.6005 67.2752L11.9747 66.3478C11.547 66.1753 11.2419 65.9388 11.033 65.649L10.2219 66.2338ZM11.6005 67.2752C12.1612 67.5015 12.8457 67.6451 13.6403 67.7181L13.7318 66.7223C12.997 66.6547 12.4159 66.5259 11.9747 66.3478L11.6005 67.2752ZM13.6464 67.7186C14.4374 67.7816 15.4008 67.8125 16.5337 67.8125V66.8125C15.4166 66.8125 14.4815 66.7819 13.7257 66.7218L13.6464 67.7186ZM16.5337 67.8125H22.4663V66.8125H16.5337V67.8125ZM22.4663 67.8125C23.5906 67.8125 24.5495 67.7816 25.3404 67.7186L25.2611 66.7218C24.5052 66.7819 23.5745 66.8125 22.4663 66.8125V67.8125ZM25.346 67.7182C26.1486 67.6452 26.8349 67.5017 27.3892 67.274L27.0093 66.349C26.5792 66.5257 25.9999 66.6546 25.2555 66.7223L25.346 67.7182ZM27.3863 67.2752C27.9606 67.0435 28.429 66.6999 28.765 66.2338L27.9538 65.649C27.7449 65.9388 27.4398 66.1753 27.0121 66.3478L27.3863 67.2752ZM28.765 66.2338C29.0919 65.7803 29.311 65.2055 29.4432 64.5352L28.4621 64.3417C28.3482 64.9195 28.1718 65.3466 27.9538 65.649L28.765 66.2338ZM29.4418 64.5418C29.5823 63.8772 29.6587 63.079 29.6767 62.1542L28.6769 62.1348C28.6597 63.0206 28.5867 63.7517 28.4634 64.3351L29.4418 64.5418ZM29.6767 62.1541C29.6943 61.2359 29.7031 60.1427 29.7031 58.875H28.7031C28.7031 60.1385 28.6943 61.225 28.6769 62.1349L29.6767 62.1541ZM29.7031 58.8743L29.6899 48.7493L28.6899 48.7507L28.7031 58.8757L29.7031 58.8743ZM29.1899 49.25H31.7344V48.25H29.1899V49.25ZM9.25635 107V107.5H9.75635V107H9.25635ZM6.7251 107H6.2251V107.5H6.7251V107ZM6.7251 86.75V86.25H6.2251V86.75H6.7251ZM11.168 86.75L11.5132 86.3883L11.3683 86.25H11.168V86.75ZM29.7305 104.469L29.3852 104.83L30.2305 105.637V104.469H29.7305ZM29.7305 86.75V86.25H29.2305V86.75H29.7305ZM32.2617 86.75H32.7617V86.25H32.2617V86.75ZM32.2617 107V107.5H32.7617V107H32.2617ZM28.8867 107L28.5474 107.367L28.6911 107.5H28.8867V107ZM9.25635 88.8594L9.59569 88.4922L8.75635 87.7165V88.8594H9.25635ZM9.25635 106.5H6.7251V107.5H9.25635V106.5ZM7.2251 107V86.75H6.2251V107H7.2251ZM6.7251 87.25H11.168V86.25H6.7251V87.25ZM10.8227 87.1117L29.3852 104.83L30.0757 104.107L11.5132 86.3883L10.8227 87.1117ZM30.2305 104.469V86.75H29.2305V104.469H30.2305ZM29.7305 87.25H32.2617V86.25H29.7305V87.25ZM31.7617 86.75V107H32.7617V86.75H31.7617ZM32.2617 106.5H28.8867V107.5H32.2617V106.5ZM29.2261 106.633L9.59569 88.4922L8.917 89.2266L28.5474 107.367L29.2261 106.633ZM8.75635 88.8594V107H9.75635V88.8594H8.75635ZM29.1899 131.078H28.6899V131.578H29.1899V131.078ZM28.8472 128.573L29.3159 128.399L28.8472 128.573ZM25.6304 126.569L25.5791 127.067L25.5796 127.067L25.6304 126.569ZM13.686 126.543L13.7261 127.041L13.7313 127.041L13.686 126.543ZM9.82324 131.619L10.3231 131.628L10.3231 131.628L9.82324 131.619ZM9.82324 138.145L9.32331 138.154L9.32345 138.159L9.82324 138.145ZM10.6274 141.941L10.2173 142.228L10.2219 142.234L10.6274 141.941ZM13.686 143.22L13.6402 143.718L13.6464 143.719L13.686 143.22ZM28.7417 141.44L28.2883 141.23L28.2861 141.234L28.7417 141.44ZM29.0977 140.096L29.5942 140.155L29.5943 140.154L29.0977 140.096ZM29.1899 138.25V137.75H28.6899V138.25H29.1899ZM31.7212 138.25H32.2212V137.75H31.7212V138.25ZM31.563 140.544L32.057 140.621L32.0572 140.62L31.563 140.544ZM30.9961 142.363L30.5503 142.137L30.5489 142.14L30.9961 142.363ZM28.2275 144.697L28.3965 145.167L28.4018 145.165L28.2275 144.697ZM25.7754 145.237L25.7156 144.741L25.7111 144.741L25.7754 145.237ZM12.6182 145.132L12.7076 144.64L12.7044 144.639L12.6182 145.132ZM10.0078 144.288L9.76214 144.724L9.76642 144.726L10.0078 144.288ZM8.4126 142.838L7.99074 143.106L7.99367 143.111L8.4126 142.838ZM7.59521 140.794L7.10621 140.899L7.10738 140.904L7.59521 140.794ZM7.59521 128.956L7.10735 128.846L7.10623 128.851L7.59521 128.956ZM8.4126 126.912L7.99364 126.639L7.99077 126.644L8.4126 126.912ZM10.0078 125.475L10.2492 125.913L10.2535 125.911L10.0078 125.475ZM12.6182 124.618L12.7044 125.111L12.7076 125.11L12.6182 124.618ZM25.7754 124.513L25.7111 125.009L25.7156 125.009L25.7754 124.513ZM28.2275 125.053L28.0586 125.524L28.064 125.526L28.2275 125.053ZM30.9961 127.268L30.5536 127.501L30.5569 127.507L30.9961 127.268ZM31.7212 131.078V131.578H32.2212V131.078H31.7212ZM29.6899 131.078C29.6899 129.996 29.5738 129.094 29.3159 128.399L28.3785 128.747C28.5776 129.283 28.6899 130.051 28.6899 131.078H29.6899ZM29.3159 128.399C29.0507 127.685 28.6021 127.126 27.9706 126.747L27.4561 127.605C27.8793 127.858 28.1866 128.231 28.3785 128.747L29.3159 128.399ZM27.9706 126.747C27.3601 126.381 26.5877 126.164 25.6811 126.072L25.5796 127.067C26.3957 127.15 27.012 127.338 27.4561 127.605L27.9706 126.747ZM25.6816 126.072C24.8061 125.982 23.7286 125.938 22.4531 125.938V126.938C23.7089 126.938 24.7495 126.981 25.5791 127.067L25.6816 126.072ZM22.4531 125.938H16.5337V126.938H22.4531V125.938ZM16.5337 125.938C15.3996 125.938 14.4343 125.973 13.6408 126.045L13.7313 127.041C14.4847 126.972 15.4178 126.938 16.5337 126.938V125.938ZM13.6459 126.045C12.8502 126.109 12.1636 126.248 11.6005 126.475L11.9747 127.402C12.4136 127.225 12.9926 127.1 13.7261 127.041L13.6459 126.045ZM11.6005 126.475C11.0262 126.707 10.5579 127.05 10.2219 127.516L11.033 128.101C11.2419 127.811 11.547 127.575 11.9747 127.402L11.6005 126.475ZM10.2219 127.516C9.89492 127.97 9.6758 128.544 9.54363 129.215L10.5247 129.408C10.6387 128.831 10.815 128.403 11.033 128.101L10.2219 127.516ZM9.54363 129.215C9.41306 129.877 9.34125 130.677 9.32333 131.609L10.3231 131.628C10.3404 130.732 10.4092 129.994 10.5247 129.408L9.54363 129.215ZM9.32334 131.609C9.30568 132.518 9.29688 133.607 9.29688 134.875H10.2969C10.2969 133.611 10.3057 132.529 10.3231 131.628L9.32334 131.609ZM9.29688 134.875C9.29688 136.143 9.30568 137.236 9.32333 138.154L10.3231 138.135C10.3057 137.225 10.2969 136.139 10.2969 134.875H9.29688ZM9.32345 138.159C9.35032 139.081 9.42671 139.875 9.55681 140.535L10.5379 140.342C10.4219 139.754 10.3489 139.018 10.323 138.13L9.32345 138.159ZM9.55681 140.535C9.68849 141.203 9.902 141.775 10.2174 142.227L11.0375 141.655C10.8255 141.352 10.6523 140.922 10.5379 140.342L9.55681 140.535ZM10.2219 142.234C10.5579 142.7 11.0262 143.043 11.6005 143.275L11.9747 142.348C11.547 142.175 11.2419 141.939 11.033 141.649L10.2219 142.234ZM11.6005 143.275C12.1612 143.501 12.8457 143.645 13.6403 143.718L13.7318 142.722C12.997 142.655 12.4159 142.526 11.9747 142.348L11.6005 143.275ZM13.6464 143.719C14.4374 143.782 15.4008 143.812 16.5337 143.812V142.812C15.4166 142.812 14.4815 142.782 13.7257 142.722L13.6464 143.719ZM16.5337 143.812H22.4531V142.812H16.5337V143.812ZM22.4531 143.812C23.4456 143.812 24.3067 143.786 25.0345 143.732L24.9606 142.735C24.2646 142.786 23.4294 142.812 22.4531 142.812V143.812ZM25.0345 143.732C25.7683 143.678 26.4096 143.577 26.952 143.425L26.6818 142.462C26.2222 142.591 25.6506 142.684 24.9606 142.735L25.0345 143.732ZM26.952 143.425C27.4979 143.272 27.9682 143.053 28.3421 142.754L27.7174 141.973C27.4761 142.166 27.1378 142.334 26.6818 142.462L26.952 143.425ZM28.3421 142.754C28.7132 142.457 28.9987 142.085 29.1973 141.647L28.2861 141.234C28.1507 141.534 27.9617 141.777 27.7174 141.973L28.3421 142.754ZM29.1951 141.651C29.398 141.215 29.5279 140.713 29.5942 140.155L28.6011 140.037C28.5444 140.515 28.4369 140.91 28.2883 141.23L29.1951 141.651ZM29.5943 140.154C29.6586 139.602 29.6899 138.967 29.6899 138.25H28.6899C28.6899 138.94 28.6597 139.535 28.601 140.038L29.5943 140.154ZM29.1899 138.75H31.7212V137.75H29.1899V138.75ZM31.2212 138.25C31.2212 139.074 31.1697 139.812 31.0688 140.468L32.0572 140.62C32.1672 139.905 32.2212 139.114 32.2212 138.25H31.2212ZM31.069 140.467C30.9705 141.099 30.7959 141.654 30.5504 142.137L31.4418 142.59C31.7412 142.001 31.9445 141.343 32.057 140.621L31.069 140.467ZM30.5489 142.14C30.3149 142.608 30 143.012 29.6016 143.356L30.2548 144.113C30.7529 143.683 31.15 143.174 31.4433 142.587L30.5489 142.14ZM29.6016 143.356C29.2076 143.696 28.6958 143.989 28.0533 144.228L28.4018 145.165C29.1304 144.895 29.7524 144.546 30.2548 144.113L29.6016 143.356ZM28.0586 144.226C27.4174 144.456 26.6385 144.63 25.7156 144.741L25.8351 145.734C26.8108 145.616 27.6666 145.429 28.3965 145.167L28.0586 144.226ZM25.7111 144.741C24.7887 144.861 23.7037 144.922 22.4531 144.922V145.922C23.7338 145.922 24.8636 145.86 25.8397 145.733L25.7111 144.741ZM22.4531 144.922H16.5337V145.922H22.4531V144.922ZM16.5337 144.922C15.0052 144.922 13.732 144.826 12.7076 144.64L12.5287 145.624C13.6313 145.824 14.9685 145.922 16.5337 145.922V144.922ZM12.7044 144.639C11.6855 144.461 10.8722 144.194 10.2492 143.85L9.76642 144.726C10.5145 145.138 11.4415 145.434 12.532 145.624L12.7044 144.639ZM10.2535 143.853C9.62824 143.5 9.15992 143.069 8.83153 142.565L7.99367 143.111C8.42114 143.767 9.01629 144.303 9.76215 144.724L10.2535 143.853ZM8.83443 142.569C8.50097 142.045 8.24823 141.42 8.08305 140.685L7.10738 140.904C7.29376 141.733 7.58594 142.47 7.99077 143.106L8.83443 142.569ZM8.0842 140.69C7.92486 139.944 7.83072 139.092 7.805 138.131L6.80536 138.158C6.83236 139.166 6.93159 140.081 7.10623 140.899L8.0842 140.69ZM7.805 138.131C7.77877 137.152 7.76562 136.067 7.76562 134.875H6.76562C6.76562 136.074 6.77885 137.168 6.80536 138.158L7.805 138.131ZM7.76562 134.875C7.76562 133.683 7.77877 132.598 7.805 131.619L6.80536 131.592C6.77885 132.582 6.76562 133.676 6.76562 134.875H7.76562ZM7.805 131.619C7.83072 130.658 7.92486 129.806 8.0842 129.06L7.10623 128.851C6.93159 129.669 6.83236 130.584 6.80536 131.592L7.805 131.619ZM8.08305 129.065C8.24823 128.33 8.50097 127.705 8.83443 127.181L7.99077 126.644C7.58594 127.28 7.29376 128.017 7.10738 128.846L8.08305 129.065ZM8.83153 127.185C9.15913 126.682 9.62596 126.257 10.2492 125.913L9.76642 125.037C9.01857 125.45 8.42193 125.982 7.99367 126.639L8.83153 127.185ZM10.2535 125.911C10.8752 125.56 11.6869 125.289 12.7044 125.111L12.532 124.126C11.4401 124.317 10.5115 124.617 9.76215 125.04L10.2535 125.911ZM12.7076 125.11C13.732 124.924 15.0052 124.828 16.5337 124.828V123.828C14.9685 123.828 13.6313 123.926 12.5287 124.126L12.7076 125.11ZM16.5337 124.828H22.4531V123.828H16.5337V124.828ZM22.4531 124.828C23.7037 124.828 24.7887 124.889 25.7111 125.009L25.8397 124.017C24.8636 123.89 23.7338 123.828 22.4531 123.828V124.828ZM25.7156 125.009C26.6385 125.12 27.4174 125.294 28.0586 125.524L28.3965 124.583C27.6666 124.321 26.8108 124.134 25.8351 124.016L25.7156 125.009ZM28.064 125.526C28.7068 125.748 29.2178 126.026 29.6104 126.349L30.2461 125.577C29.7421 125.162 29.1194 124.833 28.3911 124.581L28.064 125.526ZM29.6104 126.349C30.0087 126.677 30.3217 127.06 30.5536 127.501L31.4386 127.035C31.1431 126.474 30.7443 125.987 30.2461 125.577L29.6104 126.349ZM30.5569 127.507C30.7996 127.953 30.9723 128.466 31.0698 129.051L32.0562 128.887C31.9427 128.206 31.7375 127.585 31.4353 127.029L30.5569 127.507ZM31.0698 129.051C31.1699 129.652 31.2212 130.327 31.2212 131.078H32.2212C32.2212 130.283 32.167 129.551 32.0562 128.887L31.0698 129.051ZM31.7212 130.578H29.1899V131.578H31.7212V130.578ZM27.7266 162.75V162.25H27.5732L27.4461 162.336L27.7266 162.75ZM31.5234 162.75L31.8077 163.161L33.1262 162.25H31.5234V162.75ZM17.1797 172.664L16.8954 172.253L16.3041 172.661L16.893 173.074L17.1797 172.664ZM31.9453 183V183.5H33.5315L32.232 182.59L31.9453 183ZM28.1484 183L27.8652 183.412L27.9931 183.5H28.1484V183ZM14.6484 173.719L14.9317 173.307L14.8037 173.219H14.6484V173.719ZM11.2734 173.719V173.219H10.7734V173.719H11.2734ZM11.2734 183V183.5H11.7734V183H11.2734ZM8.74219 183H8.24219V183.5H8.74219V183ZM8.74219 162.75V162.25H8.24219V162.75H8.74219ZM11.2734 162.75H11.7734V162.25H11.2734V162.75ZM11.2734 171.609H10.7734V172.109H11.2734V171.609ZM14.6484 171.609V172.109H14.8018L14.9289 172.023L14.6484 171.609ZM27.7266 163.25H31.5234V162.25H27.7266V163.25ZM31.2391 162.339L16.8954 172.253L17.464 173.075L31.8077 163.161L31.2391 162.339ZM16.893 173.074L31.6586 183.41L32.232 182.59L17.4664 172.254L16.893 173.074ZM31.9453 182.5H28.1484V183.5H31.9453V182.5ZM28.4317 182.588L14.9317 173.307L14.3652 174.131L27.8652 183.412L28.4317 182.588ZM14.6484 173.219H11.2734V174.219H14.6484V173.219ZM10.7734 173.719V183H11.7734V173.719H10.7734ZM11.2734 182.5H8.74219V183.5H11.2734V182.5ZM9.24219 183V162.75H8.24219V183H9.24219ZM8.74219 163.25H11.2734V162.25H8.74219V163.25ZM10.7734 162.75V171.609H11.7734V162.75H10.7734ZM11.2734 172.109H14.6484V171.109H11.2734V172.109ZM14.9289 172.023L28.007 163.164L27.4461 162.336L14.368 171.195L14.9289 172.023ZM18.2344 200.75V200.25H17.7344V200.75H18.2344ZM20.7656 200.75H21.2656V200.25H20.7656V200.75ZM20.7656 221V221.5H21.2656V221H20.7656ZM18.2344 221H17.7344V221.5H18.2344V221ZM18.2344 201.25H20.7656V200.25H18.2344V201.25ZM20.2656 200.75V221H21.2656V200.75H20.2656ZM20.7656 220.5H18.2344V221.5H20.7656V220.5ZM18.7344 221V200.75H17.7344V221H18.7344ZM30.8906 238.75H31.3906V238.25H30.8906V238.75ZM30.8906 240.859V241.359H31.3906V240.859H30.8906ZM20.7656 240.859V240.359H20.2656V240.859H20.7656ZM20.7656 259V259.5H21.2656V259H20.7656ZM18.2344 259H17.7344V259.5H18.2344V259ZM18.2344 240.859H18.7344V240.359H18.2344V240.859ZM8.10938 240.859H7.60938V241.359H8.10938V240.859ZM8.10938 238.75V238.25H7.60938V238.75H8.10938ZM30.3906 238.75V240.859H31.3906V238.75H30.3906ZM30.8906 240.359H20.7656V241.359H30.8906V240.359ZM20.2656 240.859V259H21.2656V240.859H20.2656ZM20.7656 258.5H18.2344V259.5H20.7656V258.5ZM18.7344 259V240.859H17.7344V259H18.7344ZM18.2344 240.359H8.10938V241.359H18.2344V240.359ZM8.60938 240.859V238.75H7.60938V240.859H8.60938ZM8.10938 239.25H30.8906V238.25H8.10938V239.25Z" fill="black" mask="url(#path-1-outside-1_3943_52)"/>
</g>
<g filter="url(#filter1_d_3943_52)">
<path d="M9.64062 31V10.75H29.0469V12.8594H12.1719V19.6094H28.2031V21.7188H12.1719V31H9.64062ZM30.7344 48.75V58.875C30.7344 60.0703 30.7168 61.1602 30.6816 62.1445C30.6553 63.1289 30.5542 64.0122 30.3784 64.7944C30.2114 65.5767 29.9434 66.2578 29.5742 66.8379C29.2051 67.418 28.6777 67.9014 27.9922 68.2881C27.3066 68.666 26.4321 68.9473 25.3687 69.1318C24.314 69.3252 23.0132 69.4219 21.4663 69.4219H15.5337C13.9868 69.4219 12.6816 69.3252 11.6182 69.1318C10.5635 68.9473 9.69336 68.666 9.00781 68.2881C8.32227 67.9014 7.79053 67.418 7.4126 66.8379C7.04346 66.2578 6.771 65.5767 6.59521 64.7944C6.42822 64.0122 6.33154 63.1289 6.30518 62.1445C6.27881 61.1602 6.26562 60.0703 6.26562 58.875V48.75H8.79688V58.875C8.79688 60.1406 8.80566 61.2305 8.82324 62.1445C8.84961 63.0498 8.92432 63.8145 9.04736 64.4385C9.17041 65.0625 9.36377 65.5635 9.62744 65.9414C9.8999 66.3193 10.2866 66.6094 10.7876 66.8115C11.2886 67.0137 11.9214 67.1499 12.686 67.2202C13.4595 67.2817 14.4087 67.3125 15.5337 67.3125H21.4663C22.5825 67.3125 23.5273 67.2817 24.3008 67.2202C25.0742 67.1499 25.707 67.0137 26.1992 66.8115C26.7002 66.6094 27.0869 66.3193 27.3594 65.9414C27.6318 65.5635 27.8296 65.0625 27.9526 64.4385C28.0845 63.8145 28.1592 63.0498 28.1768 62.1445C28.1943 61.2305 28.2031 60.1406 28.2031 58.875L28.1899 48.75H30.7344ZM8.25635 107H5.7251V86.75H10.168L28.7305 104.469V86.75H31.2617V107H27.8867L8.25635 88.8594V107ZM28.1899 131.078C28.1899 130.023 28.0757 129.188 27.8472 128.573C27.6187 127.958 27.2407 127.492 26.7134 127.176C26.186 126.859 25.4917 126.657 24.6304 126.569C23.7778 126.481 22.7188 126.438 21.4531 126.438H15.5337C14.4087 126.438 13.4595 126.473 12.686 126.543C11.9214 126.604 11.2886 126.736 10.7876 126.938C10.2866 127.141 9.8999 127.431 9.62744 127.809C9.35498 128.187 9.15723 128.688 9.03418 129.312C8.91113 129.936 8.84082 130.705 8.82324 131.619C8.80566 132.524 8.79688 133.609 8.79688 134.875C8.79688 136.141 8.80566 137.23 8.82324 138.145C8.84961 139.05 8.92432 139.814 9.04736 140.438C9.17041 141.062 9.36377 141.563 9.62744 141.941C9.8999 142.319 10.2866 142.609 10.7876 142.812C11.2886 143.014 11.9214 143.15 12.686 143.22C13.4595 143.282 14.4087 143.312 15.5337 143.312H21.4531C22.4375 143.312 23.2856 143.286 23.9976 143.233C24.7095 143.181 25.3159 143.084 25.8169 142.943C26.3179 142.803 26.7222 142.609 27.0298 142.363C27.3374 142.117 27.5747 141.81 27.7417 141.44C27.9175 141.062 28.0361 140.614 28.0977 140.096C28.1592 139.568 28.1899 138.953 28.1899 138.25H30.7212C30.7212 139.094 30.6685 139.858 30.563 140.544C30.4575 141.221 30.2686 141.827 29.9961 142.363C29.7324 142.891 29.3765 143.348 28.9282 143.734C28.48 144.121 27.9131 144.442 27.2275 144.697C26.542 144.943 25.7246 145.123 24.7754 145.237C23.8262 145.36 22.7188 145.422 21.4531 145.422H15.5337C13.9868 145.422 12.6816 145.325 11.6182 145.132C10.5635 144.947 9.69336 144.666 9.00781 144.288C8.32227 143.901 7.79053 143.418 7.4126 142.838C7.04346 142.258 6.771 141.577 6.59521 140.794C6.42822 140.012 6.33154 139.129 6.30518 138.145C6.27881 137.16 6.26562 136.07 6.26562 134.875C6.26562 133.68 6.27881 132.59 6.30518 131.605C6.33154 130.621 6.42822 129.738 6.59521 128.956C6.771 128.173 7.04346 127.492 7.4126 126.912C7.79053 126.332 8.32227 125.853 9.00781 125.475C9.69336 125.088 10.5635 124.803 11.6182 124.618C12.6816 124.425 13.9868 124.328 15.5337 124.328H21.4531C22.7188 124.328 23.8262 124.39 24.7754 124.513C25.7246 124.627 26.542 124.807 27.2275 125.053C27.9131 125.291 28.48 125.594 28.9282 125.963C29.3765 126.332 29.7324 126.767 29.9961 127.268C30.2686 127.769 30.4575 128.336 30.563 128.969C30.6685 129.602 30.7212 130.305 30.7212 131.078H28.1899ZM26.7266 162.75H30.5234L16.1797 172.664L30.9453 183H27.1484L13.6484 173.719H10.2734V183H7.74219V162.75H10.2734V171.609H13.6484L26.7266 162.75ZM17.2344 200.75H19.7656V221H17.2344V200.75ZM29.8906 238.75V240.859H19.7656V259H17.2344V240.859H7.10938V238.75H29.8906Z" fill="black"/>
</g>
<defs>
<filter id="filter0_d_3943_52" x="1.37125" y="10.75" width="36.2443" height="258.958" filterUnits="userSpaceOnUse" color-interpolation-filters="sRGB">
<feFlood flood-opacity="0" result="BackgroundImageFix"/>
<feColorMatrix in="SourceAlpha" type="matrix" values="0 0 0 0 0 0 0 0 0 0 0 0 0 0 0 0 0 0 127 0" result="hardAlpha"/>
<feOffset dy="5.35385"/>
<feGaussianBlur stdDeviation="2.67692"/>
<feComposite in2="hardAlpha" operator="out"/>
<feColorMatrix type="matrix" values="0 0 0 0 0 0 0 0 0 0 0 0 0 0 0 0 0 0 0.25 0"/>
<feBlend mode="normal" in2="BackgroundImageFix" result="effect1_dropShadow_3943_52"/>
<feBlend mode="normal" in="SourceGraphic" in2="effect1_dropShadow_3943_52" result="shape"/>
</filter>
<filter id="filter1_d_3943_52" x="0.371252" y="10.75" width="36.2443" height="258.958" filterUnits="userSpaceOnUse" color-interpolation-filters="sRGB">
<feFlood flood-opacity="0" result="BackgroundImageFix"/>
<feColorMatrix in="SourceAlpha" type="matrix" values="0 0 0 0 0 0 0 0 0 0 0 0 0 0 0 0 0 0 127 0" result="hardAlpha"/>
<feOffset dy="5.35385"/>
<feGaussianBlur stdDeviation="2.67692"/>
<feComposite in2="hardAlpha" operator="out"/>
<feColorMatrix type="matrix" values="0 0 0 0 0 0 0 0 0 0 0 0 0 0 0 0 0 0 0.25 0"/>
<feBlend mode="normal" in2="BackgroundImageFix" result="effect1_dropShadow_3943_52"/>
<feBlend mode="normal" in="SourceGraphic" in2="effect1_dropShadow_3943_52" result="shape"/>
</filter>
</defs>
</svg>
