<!-- <svg width="1006" height="127" viewBox="0 0 1006 127" fill="none" xmlns="http://www.w3.org/2000/svg"> -->
<svg width="auto" height="auto" viewBox="0 0 1006 127" fill="none" xmlns="http://www.w3.org/2000/svg">
<mask id="path-1-outside-1_3452_167" maskUnits="userSpaceOnUse" x="82" y="5" width="860" height="112" fill="black">
<rect fill="white" x="82" y="5" width="860" height="112"/>
<path d="M83.7017 113V8.75H187.952V19.6094H96.7329V54.3594H183.608V65.2188H96.7329V102.141H187.952V113H83.7017ZM325.649 8.75H340.852L284.383 113H267.008L210.539 8.75H225.742L275.695 104.312L325.649 8.75ZM372.127 113V8.75H476.377V19.6094H385.158V54.3594H472.033V65.2188H385.158V102.141H476.377V113H372.127ZM520.683 113H507.652V8.75H530.524L626.087 99.9688V8.75H639.118V113H621.743L520.683 19.6094V113ZM792.086 8.75V19.6094H739.961V113H726.93V19.6094H674.805V8.75H792.086ZM893.404 54.3594C900.553 54.3594 906.684 54.6535 911.797 55.2417C916.91 55.8299 921.208 56.7122 924.692 57.8887C928.222 59.0199 931.027 60.4451 933.108 62.1646C935.19 63.884 936.796 65.8522 937.927 68.0693C939.058 70.2412 939.782 72.6846 940.099 75.3994C940.461 78.1143 940.642 81.0553 940.642 84.2227C940.642 87.39 940.348 90.3763 939.76 93.1816C939.217 95.9417 938.221 98.4756 936.773 100.783C935.326 103.091 933.357 105.15 930.869 106.959C928.38 108.769 925.213 110.308 921.367 111.575C917.521 112.842 912.883 113.792 907.453 114.425C902.069 115.104 895.757 115.443 888.517 115.443H871.142C864.626 115.443 858.925 115.194 854.039 114.697C849.152 114.199 844.944 113.452 841.415 112.457C837.885 111.416 834.967 110.127 832.659 108.588C830.352 107.005 828.496 105.172 827.094 103.091C825.736 100.964 824.786 98.5661 824.243 95.8965C823.7 93.1816 823.429 90.1953 823.429 86.9375H836.46C836.46 91.0098 837.048 94.1997 838.225 96.5073C839.401 98.8149 841.347 100.557 844.062 101.733C846.776 102.865 850.328 103.589 854.717 103.905C859.152 104.177 864.626 104.312 871.142 104.312H888.517C896.119 104.312 902.431 103.951 907.453 103.227C912.476 102.503 916.48 101.349 919.466 99.7651C922.453 98.1815 924.557 96.1227 925.778 93.5889C927 91.0098 927.611 87.8877 927.611 84.2227C927.611 80.5576 927.181 77.5034 926.321 75.0601C925.507 72.6167 923.855 70.6711 921.367 69.2231C918.923 67.7752 915.462 66.7572 910.982 66.1689C906.503 65.5355 900.643 65.2188 893.404 65.2188H875.486C867.522 65.2188 860.69 64.9246 854.989 64.3364C849.333 63.7482 844.582 62.9111 840.736 61.8252C836.89 60.694 833.813 59.314 831.505 57.6851C829.198 56.0109 827.433 54.1105 826.211 51.9839C825.035 49.8573 824.266 47.5044 823.904 44.9253C823.542 42.3009 823.361 39.473 823.361 36.4414C823.361 33.2741 823.632 30.333 824.175 27.6182C824.764 24.9033 825.827 22.46 827.365 20.2881C828.904 18.071 831.008 16.1027 833.677 14.3833C836.347 12.6639 839.763 11.2386 843.926 10.1074C848.134 8.93099 853.179 8.04867 859.061 7.46045C864.943 6.87223 871.866 6.57812 879.83 6.57812H892.861C899.376 6.57812 905.078 6.82699 909.964 7.32471C914.851 7.77718 919.059 8.52376 922.588 9.56445C926.118 10.5599 929.036 11.8268 931.344 13.3652C933.697 14.8584 935.552 16.6683 936.909 18.7949C938.312 20.8763 939.285 23.2518 939.828 25.9214C940.371 28.591 940.642 31.5547 940.642 34.8125H927.611C927.611 30.7402 927.023 27.5503 925.846 25.2427C924.67 22.9351 922.724 21.2157 920.009 20.0845C917.294 18.908 913.72 18.1841 909.286 17.9126C904.851 17.5959 899.376 17.4375 892.861 17.4375H879.83C871.142 17.4375 863.993 17.7542 858.382 18.3877C852.772 18.9759 848.337 19.994 845.08 21.4419C841.822 22.8898 839.559 24.8354 838.292 27.2788C837.026 29.7222 836.392 32.7764 836.392 36.4414C836.392 38.7038 836.55 40.7173 836.867 42.4819C837.184 44.2466 837.817 45.8076 838.768 47.165C839.763 48.4772 841.143 49.5858 842.908 50.4907C844.672 51.3957 847.003 52.1423 849.898 52.7305C852.794 53.3187 856.324 53.7485 860.486 54.02C864.694 54.2463 869.694 54.3594 875.486 54.3594H893.404Z"/>
</mask>
<path d="M83.7017 113H82.7017V114H83.7017V113ZM83.7017 8.75V7.75H82.7017V8.75H83.7017ZM187.952 8.75H188.952V7.75H187.952V8.75ZM187.952 19.6094V20.6094H188.952V19.6094H187.952ZM96.7329 19.6094V18.6094H95.7329V19.6094H96.7329ZM96.7329 54.3594H95.7329V55.3594H96.7329V54.3594ZM183.608 54.3594H184.608V53.3594H183.608V54.3594ZM183.608 65.2188V66.2188H184.608V65.2188H183.608ZM96.7329 65.2188V64.2188H95.7329V65.2188H96.7329ZM96.7329 102.141H95.7329V103.141H96.7329V102.141ZM187.952 102.141H188.952V101.141H187.952V102.141ZM187.952 113V114H188.952V113H187.952ZM84.7017 113V8.75H82.7017V113H84.7017ZM83.7017 9.75H187.952V7.75H83.7017V9.75ZM186.952 8.75V19.6094H188.952V8.75H186.952ZM187.952 18.6094H96.7329V20.6094H187.952V18.6094ZM95.7329 19.6094V54.3594H97.7329V19.6094H95.7329ZM96.7329 55.3594H183.608V53.3594H96.7329V55.3594ZM182.608 54.3594V65.2188H184.608V54.3594H182.608ZM183.608 64.2188H96.7329V66.2188H183.608V64.2188ZM95.7329 65.2188V102.141H97.7329V65.2188H95.7329ZM96.7329 103.141H187.952V101.141H96.7329V103.141ZM186.952 102.141V113H188.952V102.141H186.952ZM187.952 112H83.7017V114H187.952V112ZM325.649 8.75V7.75H325.043L324.762 8.28675L325.649 8.75ZM340.852 8.75L341.731 9.22628L342.531 7.75H340.852V8.75ZM284.383 113V114H284.979L285.262 113.476L284.383 113ZM267.008 113L266.129 113.476L266.412 114H267.008V113ZM210.539 8.75V7.75H208.86L209.66 9.22628L210.539 8.75ZM225.742 8.75L226.629 8.28675L226.348 7.75H225.742V8.75ZM275.695 104.312L274.809 104.776L275.695 106.471L276.582 104.776L275.695 104.312ZM325.649 9.75H340.852V7.75H325.649V9.75ZM339.972 8.27372L283.504 112.524L285.262 113.476L341.731 9.22628L339.972 8.27372ZM284.383 112H267.008V114H284.383V112ZM267.887 112.524L211.418 8.27372L209.66 9.22628L266.129 113.476L267.887 112.524ZM210.539 9.75H225.742V7.75H210.539V9.75ZM224.856 9.21325L274.809 104.776L276.582 103.849L226.629 8.28675L224.856 9.21325ZM276.582 104.776L326.535 9.21325L324.762 8.28675L274.809 103.849L276.582 104.776ZM372.127 113H371.127V114H372.127V113ZM372.127 8.75V7.75H371.127V8.75H372.127ZM476.377 8.75H477.377V7.75H476.377V8.75ZM476.377 19.6094V20.6094H477.377V19.6094H476.377ZM385.158 19.6094V18.6094H384.158V19.6094H385.158ZM385.158 54.3594H384.158V55.3594H385.158V54.3594ZM472.033 54.3594H473.033V53.3594H472.033V54.3594ZM472.033 65.2188V66.2188H473.033V65.2188H472.033ZM385.158 65.2188V64.2188H384.158V65.2188H385.158ZM385.158 102.141H384.158V103.141H385.158V102.141ZM476.377 102.141H477.377V101.141H476.377V102.141ZM476.377 113V114H477.377V113H476.377ZM373.127 113V8.75H371.127V113H373.127ZM372.127 9.75H476.377V7.75H372.127V9.75ZM475.377 8.75V19.6094H477.377V8.75H475.377ZM476.377 18.6094H385.158V20.6094H476.377V18.6094ZM384.158 19.6094V54.3594H386.158V19.6094H384.158ZM385.158 55.3594H472.033V53.3594H385.158V55.3594ZM471.033 54.3594V65.2188H473.033V54.3594H471.033ZM472.033 64.2188H385.158V66.2188H472.033V64.2188ZM384.158 65.2188V102.141H386.158V65.2188H384.158ZM385.158 103.141H476.377V101.141H385.158V103.141ZM475.377 102.141V113H477.377V102.141H475.377ZM476.377 112H372.127V114H476.377V112ZM520.683 113V114H521.683V113H520.683ZM507.652 113H506.652V114H507.652V113ZM507.652 8.75V7.75H506.652V8.75H507.652ZM530.524 8.75L531.215 8.02664L530.925 7.75H530.524V8.75ZM626.087 99.9688L625.396 100.692L627.087 102.306V99.9688H626.087ZM626.087 8.75V7.75H625.087V8.75H626.087ZM639.118 8.75H640.118V7.75H639.118V8.75ZM639.118 113V114H640.118V113H639.118ZM621.743 113L621.064 113.734L621.352 114H621.743V113ZM520.683 19.6094L521.362 18.875L519.683 17.3237V19.6094H520.683ZM520.683 112H507.652V114H520.683V112ZM508.652 113V8.75H506.652V113H508.652ZM507.652 9.75H530.524V7.75H507.652V9.75ZM529.834 9.47336L625.396 100.692L626.777 99.2454L531.215 8.02664L529.834 9.47336ZM627.087 99.9688V8.75H625.087V99.9688H627.087ZM626.087 9.75H639.118V7.75H626.087V9.75ZM638.118 8.75V113H640.118V8.75H638.118ZM639.118 112H621.743V114H639.118V112ZM622.422 112.266L521.362 18.875L520.004 20.3438L621.064 113.734L622.422 112.266ZM519.683 19.6094V113H521.683V19.6094H519.683ZM792.086 8.75H793.086V7.75H792.086V8.75ZM792.086 19.6094V20.6094H793.086V19.6094H792.086ZM739.961 19.6094V18.6094H738.961V19.6094H739.961ZM739.961 113V114H740.961V113H739.961ZM726.93 113H725.93V114H726.93V113ZM726.93 19.6094H727.93V18.6094H726.93V19.6094ZM674.805 19.6094H673.805V20.6094H674.805V19.6094ZM674.805 8.75V7.75H673.805V8.75H674.805ZM791.086 8.75V19.6094H793.086V8.75H791.086ZM792.086 18.6094H739.961V20.6094H792.086V18.6094ZM738.961 19.6094V113H740.961V19.6094H738.961ZM739.961 112H726.93V114H739.961V112ZM727.93 113V19.6094H725.93V113H727.93ZM726.93 18.6094H674.805V20.6094H726.93V18.6094ZM675.805 19.6094V8.75H673.805V19.6094H675.805ZM674.805 9.75H792.086V7.75H674.805V9.75ZM924.692 57.8887L924.372 58.8361L924.38 58.8386L924.387 58.841L924.692 57.8887ZM937.927 68.0693L937.036 68.5238L937.04 68.5313L937.927 68.0693ZM940.099 75.3994L939.106 75.5153L939.107 75.5234L939.108 75.5316L940.099 75.3994ZM939.76 93.1816L938.781 92.9764L938.779 92.9886L939.76 93.1816ZM907.453 114.425L907.337 113.432L907.328 113.433L907.453 114.425ZM841.415 112.457L841.132 113.416L841.143 113.419L841.415 112.457ZM832.659 108.588L832.093 109.413L832.104 109.42L832.659 108.588ZM827.094 103.091L826.251 103.629L826.258 103.639L826.264 103.65L827.094 103.091ZM824.243 95.8965L823.263 96.0926L823.263 96.0958L824.243 95.8965ZM823.429 86.9375V85.9375H822.429V86.9375H823.429ZM836.46 86.9375H837.46V85.9375H836.46V86.9375ZM844.062 101.733L843.664 102.651L843.677 102.656L844.062 101.733ZM854.717 103.905L854.645 104.903L854.656 104.903L854.717 103.905ZM925.778 93.5889L926.679 94.0232L926.682 94.017L925.778 93.5889ZM926.321 75.0601L925.373 75.3763L925.375 75.3841L925.378 75.392L926.321 75.0601ZM921.367 69.2231L920.857 70.0835L920.864 70.0875L921.367 69.2231ZM910.982 66.1689L910.842 67.1591L910.852 67.1604L910.982 66.1689ZM854.989 64.3364L854.885 65.3311L854.886 65.3311L854.989 64.3364ZM840.736 61.8252L840.454 62.7846L840.464 62.7876L840.736 61.8252ZM831.505 57.6851L830.918 58.4945L830.929 58.502L831.505 57.6851ZM826.211 51.9839L825.336 52.4679L825.34 52.475L825.344 52.482L826.211 51.9839ZM823.904 44.9253L822.913 45.0619L822.914 45.0643L823.904 44.9253ZM824.175 27.6182L823.198 27.4064L823.196 27.4142L823.195 27.422L824.175 27.6182ZM827.365 20.2881L828.181 20.8661L828.187 20.8582L827.365 20.2881ZM843.926 10.1074L844.188 11.0725L844.195 11.0705L843.926 10.1074ZM909.964 7.32471L909.863 8.3196L909.872 8.32045L909.964 7.32471ZM922.588 9.56445L922.306 10.5237L922.317 10.5269L922.588 9.56445ZM931.344 13.3652L930.789 14.1973L930.798 14.2035L930.808 14.2096L931.344 13.3652ZM936.909 18.7949L936.066 19.333L936.073 19.3435L936.08 19.3538L936.909 18.7949ZM940.642 34.8125V35.8125H941.642V34.8125H940.642ZM927.611 34.8125H926.611V35.8125H927.611V34.8125ZM920.009 20.0845L919.612 21.0021L919.625 21.0075L920.009 20.0845ZM909.286 17.9126L909.214 18.9101L909.225 18.9107L909.286 17.9126ZM858.382 18.3877L858.487 19.3823L858.495 19.3814L858.382 18.3877ZM838.768 47.165L837.948 47.7385L837.959 47.7542L837.971 47.7694L838.768 47.165ZM860.486 54.02L860.421 55.018L860.433 55.0186L860.486 54.02ZM893.404 55.3594C900.528 55.3594 906.619 55.6526 911.683 56.2351L911.911 54.2483C906.749 53.6544 900.578 53.3594 893.404 53.3594V55.3594ZM911.683 56.2351C916.751 56.8182 920.976 57.6892 924.372 58.8361L925.012 56.9412C921.441 55.7353 917.069 54.8416 911.911 54.2483L911.683 56.2351ZM924.387 58.841C927.838 59.9468 930.517 61.3212 932.471 62.9355L933.745 61.3936C931.537 59.5691 928.606 58.0929 924.998 56.9364L924.387 58.841ZM932.471 62.9355C934.457 64.5753 935.973 66.4384 937.036 68.5238L938.818 67.6149C937.62 65.266 935.923 63.1926 933.745 61.3936L932.471 62.9355ZM937.04 68.5313C938.109 70.5834 938.802 72.9073 939.106 75.5153L941.092 75.2835C940.763 72.4618 940.008 69.899 938.814 67.6074L937.04 68.5313ZM939.108 75.5316C939.463 78.1965 939.642 81.0929 939.642 84.2227H941.642C941.642 81.0178 941.459 78.0321 941.09 75.2673L939.108 75.5316ZM939.642 84.2227C939.642 87.3281 939.354 90.2452 938.781 92.9764L940.738 93.3869C941.342 90.5074 941.642 87.4518 941.642 84.2227H939.642ZM938.779 92.9886C938.258 95.6326 937.307 98.0511 935.926 100.252L937.62 101.315C939.136 98.9 940.175 96.2509 940.741 93.3747L938.779 92.9886ZM935.926 100.252C934.555 102.438 932.679 104.406 930.28 106.151L931.457 107.768C934.035 105.893 936.097 103.743 937.62 101.315L935.926 100.252ZM930.28 106.151C927.897 107.884 924.831 109.381 921.054 110.625L921.68 112.525C925.595 111.235 928.863 109.655 931.457 107.768L930.28 106.151ZM921.054 110.625C917.29 111.865 912.722 112.804 907.337 113.432L907.569 115.419C913.044 114.78 917.752 113.818 921.68 112.525L921.054 110.625ZM907.328 113.433C901.996 114.105 895.728 114.443 888.517 114.443V116.443C895.786 116.443 902.141 116.103 907.578 115.417L907.328 113.433ZM888.517 114.443H871.142V116.443H888.517V114.443ZM871.142 114.443C864.65 114.443 858.984 114.195 854.14 113.702L853.937 115.692C858.866 116.194 864.603 116.443 871.142 116.443V114.443ZM854.14 113.702C849.293 113.208 845.145 112.47 841.686 111.495L841.143 113.419C844.743 114.435 849.011 115.19 853.937 115.692L854.14 113.702ZM841.697 111.498C838.235 110.477 835.416 109.224 833.214 107.756L832.104 109.42C834.518 111.029 837.535 112.356 841.132 113.416L841.697 111.498ZM833.225 107.764C831.009 106.243 829.248 104.498 827.923 102.532L826.264 103.65C827.745 105.847 829.694 107.766 832.093 109.413L833.225 107.764ZM827.937 102.553C826.65 100.538 825.744 98.2561 825.223 95.6972L823.263 96.0958C823.829 98.8761 824.822 101.391 826.251 103.629L827.937 102.553ZM825.224 95.7004C824.696 93.0602 824.429 90.1407 824.429 86.9375H822.429C822.429 90.25 822.705 93.3031 823.263 96.0926L825.224 95.7004ZM823.429 87.9375H836.46V85.9375H823.429V87.9375ZM835.46 86.9375C835.46 91.0864 836.056 94.4553 837.334 96.9615L839.116 96.0531C838.04 93.9441 837.46 90.9332 837.46 86.9375H835.46ZM837.334 96.9615C838.631 99.5054 840.768 101.396 843.664 102.651L844.459 100.816C841.925 99.7179 840.172 98.1245 839.116 96.0531L837.334 96.9615ZM843.677 102.656C846.528 103.844 850.197 104.582 854.645 104.903L854.789 102.908C850.46 102.595 847.025 101.885 844.446 100.81L843.677 102.656ZM854.656 104.903C859.118 105.177 864.615 105.312 871.142 105.312V103.312C864.638 103.312 859.185 103.177 854.778 102.907L854.656 104.903ZM871.142 105.312H888.517V103.312H871.142V105.312ZM888.517 105.312C896.145 105.312 902.509 104.95 907.596 104.216L907.31 102.237C902.352 102.951 896.092 103.312 888.517 103.312V105.312ZM907.596 104.216C912.681 103.483 916.809 102.306 919.935 100.649L918.998 98.8817C916.151 100.392 912.27 101.522 907.31 102.237L907.596 104.216ZM919.935 100.649C923.07 98.9857 925.347 96.7852 926.679 94.0232L924.878 93.1546C923.766 95.4602 921.835 97.3772 918.998 98.8817L919.935 100.649ZM926.682 94.017C927.982 91.2716 928.611 87.9952 928.611 84.2227H926.611C926.611 87.7802 926.018 90.7479 924.875 93.1608L926.682 94.017ZM928.611 84.2227C928.611 80.4877 928.174 77.3124 927.265 74.7281L925.378 75.392C926.188 77.6945 926.611 80.6276 926.611 84.2227H928.611ZM927.27 74.7438C926.369 72.042 924.542 69.9136 921.87 68.3588L920.864 70.0875C923.169 71.4285 924.644 73.1914 925.373 75.3763L927.27 74.7438ZM921.877 68.3629C919.268 66.8173 915.656 65.7741 911.113 65.1775L910.852 67.1604C915.268 67.7403 918.578 68.7332 920.857 70.0834L921.877 68.3629ZM911.122 65.1788C906.578 64.5361 900.666 64.2188 893.404 64.2188V66.2188C900.621 66.2188 906.428 66.5349 910.842 67.1591L911.122 65.1788ZM893.404 64.2188H875.486V66.2188H893.404V64.2188ZM875.486 64.2188C867.544 64.2188 860.748 63.9254 855.091 63.3417L854.886 65.3311C860.632 65.9239 867.5 66.2188 875.486 66.2188V64.2188ZM855.092 63.3418C849.471 62.7572 844.781 61.9282 841.008 60.8628L840.464 62.7876C844.383 63.894 849.194 64.7392 854.885 65.3311L855.092 63.3418ZM841.018 60.8658C837.237 59.7537 834.271 58.4132 832.082 56.8681L830.929 58.502C833.355 60.2147 836.543 61.6343 840.454 62.7846L841.018 60.8658ZM832.093 56.8756C829.881 55.271 828.219 53.4717 827.079 51.4858L825.344 52.482C826.647 54.7493 828.515 56.7508 830.918 58.4945L832.093 56.8756ZM827.086 51.4998C825.973 49.4877 825.24 47.253 824.894 44.7863L822.914 45.0643C823.291 47.7558 824.097 50.2269 825.336 52.4679L827.086 51.4998ZM824.894 44.7887C824.539 42.2155 824.361 39.4337 824.361 36.4414H822.361C822.361 39.5123 822.544 42.3864 822.913 45.0619L824.894 44.7887ZM824.361 36.4414C824.361 33.3307 824.628 30.4561 825.156 27.8143L823.195 27.422C822.637 30.2099 822.361 33.2174 822.361 36.4414H824.361ZM825.153 27.8299C825.714 25.2409 826.724 22.9232 828.181 20.8661L826.549 19.7101C824.93 21.9967 823.813 24.5657 823.198 27.4064L825.153 27.8299ZM828.187 20.8582C829.639 18.766 831.64 16.8848 834.219 15.224L833.136 13.5426C830.375 15.3206 828.169 17.3759 826.544 19.718L828.187 20.8582ZM834.219 15.224C836.778 13.576 840.091 12.1857 844.188 11.0724L843.664 9.14242C839.435 10.2915 835.916 11.7518 833.136 13.5426L834.219 15.224ZM844.195 11.0705C848.332 9.91393 853.317 9.03982 859.161 8.45549L858.962 6.46541C853.041 7.05751 847.936 7.94805 843.657 9.14435L844.195 11.0705ZM859.161 8.45549C865.001 7.87148 871.889 7.57812 879.83 7.57812V5.57812C871.843 5.57812 864.886 5.87298 858.962 6.46541L859.161 8.45549ZM879.83 7.57812H892.861V5.57812H879.83V7.57812ZM892.861 7.57812C899.353 7.57812 905.019 7.82616 909.863 8.31956L910.066 6.32985C905.136 5.82781 899.4 5.57812 892.861 5.57812V7.57812ZM909.872 8.32045C914.714 8.76879 918.855 9.50618 922.306 10.5236L922.871 8.60528C919.263 7.54134 914.988 6.78557 910.057 6.32897L909.872 8.32045ZM922.317 10.5269C925.776 11.5025 928.591 12.7321 930.789 14.1973L931.898 12.5332C929.481 10.9215 926.459 9.61726 922.86 8.602L922.317 10.5269ZM930.808 14.2096C933.05 15.6326 934.795 17.3421 936.066 19.333L937.752 18.2569C936.308 15.9945 934.343 14.0842 931.88 12.5209L930.808 14.2096ZM936.08 19.3538C937.403 21.3174 938.329 23.5686 938.848 26.1207L940.808 25.7221C940.241 22.935 939.221 20.4352 937.738 18.2361L936.08 19.3538ZM938.848 26.1207C939.375 28.7134 939.642 31.6091 939.642 34.8125H941.642C941.642 31.5003 941.366 28.4685 940.808 25.7221L938.848 26.1207ZM940.642 33.8125H927.611V35.8125H940.642V33.8125ZM928.611 34.8125C928.611 30.6636 928.015 27.2947 926.737 24.7885L924.955 25.6969C926.03 27.8059 926.611 30.8168 926.611 34.8125H928.611ZM926.737 24.7885C925.438 22.2409 923.296 20.3707 920.394 19.1614L919.625 21.0075C922.152 22.0606 923.901 23.6292 924.955 25.6969L926.737 24.7885ZM920.407 19.1669C917.546 17.9272 913.845 17.1898 909.347 16.9145L909.225 18.9107C913.595 19.1783 917.043 19.8888 919.612 21.002L920.407 19.1669ZM909.357 16.9151C904.891 16.5961 899.39 16.4375 892.861 16.4375V18.4375C899.363 18.4375 904.812 18.5956 909.214 18.9101L909.357 16.9151ZM892.861 16.4375H879.83V18.4375H892.861V16.4375ZM879.83 16.4375C871.122 16.4375 863.932 16.7547 858.27 17.394L858.495 19.3814C864.054 18.7537 871.162 18.4375 879.83 18.4375V16.4375ZM858.278 17.3931C852.616 17.9867 848.066 19.0203 844.673 20.5281L845.486 22.3557C848.609 20.9677 852.927 19.9651 858.487 19.3822L858.278 17.3931ZM844.673 20.5281C841.27 22.0406 838.804 24.1208 837.405 26.8185L839.18 27.7391C840.315 25.5501 842.373 23.739 845.486 22.3557L844.673 20.5281ZM837.405 26.8185C836.044 29.4433 835.392 32.6671 835.392 36.4414H837.392C837.392 32.8856 838.007 30.001 839.18 27.7391L837.405 26.8185ZM835.392 36.4414C835.392 38.7484 835.553 40.8228 835.883 42.6586L837.851 42.3053C837.547 40.6117 837.392 38.6591 837.392 36.4414H835.392ZM835.883 42.6586C836.223 44.554 836.908 46.2528 837.948 47.7385L839.587 46.5916C838.726 45.3624 838.145 43.9391 837.851 42.3053L835.883 42.6586ZM837.971 47.7694C839.074 49.223 840.58 50.4209 842.451 51.3805L843.364 49.6009C841.706 48.7506 840.452 47.7315 839.564 46.5607L837.971 47.7694ZM842.451 51.3805C844.326 52.3421 846.753 53.112 849.699 53.7105L850.097 51.7505C847.252 51.1725 845.018 50.4492 843.364 49.6009L842.451 51.3805ZM849.699 53.7105C852.653 54.3105 856.23 54.7446 860.421 55.0179L860.551 53.0221C856.417 52.7525 852.935 52.3269 850.097 51.7505L849.699 53.7105ZM860.433 55.0186C864.664 55.2461 869.682 55.3594 875.486 55.3594V53.3594C869.706 53.3594 864.725 53.2465 860.54 53.0215L860.433 55.0186ZM875.486 55.3594H893.404V53.3594H875.486V55.3594Z" fill="white" mask="url(#path-1-outside-1_3452_167)"/>
<path d="M69.7017 124V19.75H173.952V30.6094H82.7329V65.3594H169.608V76.2188H82.7329V113.141H173.952V124H69.7017ZM311.649 19.75H326.852L270.383 124H253.008L196.539 19.75H211.742L261.695 115.312L311.649 19.75ZM358.127 124V19.75H462.377V30.6094H371.158V65.3594H458.033V76.2188H371.158V113.141H462.377V124H358.127ZM506.683 124H493.652V19.75H516.524L612.087 110.969V19.75H625.118V124H607.743L506.683 30.6094V124ZM778.086 19.75V30.6094H725.961V124H712.93V30.6094H660.805V19.75H778.086ZM879.404 65.3594C886.553 65.3594 892.684 65.6535 897.797 66.2417C902.91 66.8299 907.208 67.7122 910.692 68.8887C914.222 70.0199 917.027 71.4451 919.108 73.1646C921.19 74.884 922.796 76.8522 923.927 79.0693C925.058 81.2412 925.782 83.6846 926.099 86.3994C926.461 89.1143 926.642 92.0553 926.642 95.2227C926.642 98.39 926.348 101.376 925.76 104.182C925.217 106.942 924.221 109.476 922.773 111.783C921.326 114.091 919.357 116.15 916.869 117.959C914.38 119.769 911.213 121.308 907.367 122.575C903.521 123.842 898.883 124.792 893.453 125.425C888.069 126.104 881.757 126.443 874.517 126.443H857.142C850.626 126.443 844.925 126.194 840.039 125.697C835.152 125.199 830.944 124.452 827.415 123.457C823.885 122.416 820.967 121.127 818.659 119.588C816.352 118.005 814.496 116.172 813.094 114.091C811.736 111.964 810.786 109.566 810.243 106.896C809.7 104.182 809.429 101.195 809.429 97.9375H822.46C822.46 102.01 823.048 105.2 824.225 107.507C825.401 109.815 827.347 111.557 830.062 112.733C832.776 113.865 836.328 114.589 840.717 114.905C845.152 115.177 850.626 115.312 857.142 115.312H874.517C882.119 115.312 888.431 114.951 893.453 114.227C898.476 113.503 902.48 112.349 905.466 110.765C908.453 109.181 910.557 107.123 911.778 104.589C913 102.01 913.611 98.8877 913.611 95.2227C913.611 91.5576 913.181 88.5034 912.321 86.0601C911.507 83.6167 909.855 81.6711 907.367 80.2231C904.923 78.7752 901.462 77.7572 896.982 77.1689C892.503 76.5355 886.643 76.2188 879.404 76.2188H861.486C853.522 76.2188 846.69 75.9246 840.989 75.3364C835.333 74.7482 830.582 73.9111 826.736 72.8252C822.89 71.694 819.813 70.314 817.505 68.6851C815.198 67.0109 813.433 65.1105 812.211 62.9839C811.035 60.8573 810.266 58.5044 809.904 55.9253C809.542 53.3009 809.361 50.473 809.361 47.4414C809.361 44.2741 809.632 41.333 810.175 38.6182C810.764 35.9033 811.827 33.46 813.365 31.2881C814.904 29.071 817.008 27.1027 819.677 25.3833C822.347 23.6639 825.763 22.2386 829.926 21.1074C834.134 19.931 839.179 19.0487 845.061 18.4604C850.943 17.8722 857.866 17.5781 865.83 17.5781H878.861C885.376 17.5781 891.078 17.827 895.964 18.3247C900.851 18.7772 905.059 19.5238 908.588 20.5645C912.118 21.5599 915.036 22.8268 917.344 24.3652C919.697 25.8584 921.552 27.6683 922.909 29.7949C924.312 31.8763 925.285 34.2518 925.828 36.9214C926.371 39.591 926.642 42.5547 926.642 45.8125H913.611C913.611 41.7402 913.023 38.5503 911.846 36.2427C910.67 33.9351 908.724 32.2157 906.009 31.0845C903.294 29.908 899.72 29.1841 895.286 28.9126C890.851 28.5959 885.376 28.4375 878.861 28.4375H865.83C857.142 28.4375 849.993 28.7542 844.382 29.3877C838.772 29.9759 834.337 30.994 831.08 32.4419C827.822 33.8898 825.559 35.8354 824.292 38.2788C823.026 40.7222 822.392 43.7764 822.392 47.4414C822.392 49.7038 822.55 51.7173 822.867 53.4819C823.184 55.2466 823.817 56.8076 824.768 58.165C825.763 59.4772 827.143 60.5858 828.908 61.4907C830.672 62.3957 833.003 63.1423 835.898 63.7305C838.794 64.3187 842.324 64.7485 846.486 65.02C850.694 65.2463 855.694 65.3594 861.486 65.3594H879.404Z" fill="white"/>
</svg>
