<!-- <svg width="44" height="233" viewBox="0 0 44 233" fill="none" xmlns="http://www.w3.org/2000/svg"> -->
<svg width="auto" height="auto" viewBox="0 0 44 233" fill="none" xmlns="http://www.w3.org/2000/svg">
<g filter="url(#filter0_d_3911_68)">
<mask id="path-1-outside-1_3911_68" maskUnits="userSpaceOnUse" x="6.00012" y="10" width="33" height="212" fill="black">
<rect fill="white" x="6.00012" y="10" width="33" height="212"/>
<path d="M9.10559 12.4375V31H6.57434V10.75H10.7931L22.5924 28.4688L34.3917 10.75H38.4259V31H35.8947V12.7144L23.8712 31H21.3136L9.10559 12.4375ZM26.3102 48.3281C27.8571 48.3281 29.1578 48.4248 30.2125 48.6182C31.276 48.8027 32.1505 49.0884 32.8361 49.4751C33.5216 49.853 34.049 50.332 34.4181 50.9121C34.7872 51.4922 35.0553 52.1733 35.2223 52.9556C35.3981 53.7378 35.4991 54.6211 35.5255 55.6055C35.5607 56.5898 35.5782 57.6797 35.5782 58.875C35.5782 60.0703 35.5607 61.1602 35.5255 62.1445C35.4991 63.1289 35.3981 64.0122 35.2223 64.7944C35.0553 65.5767 34.7872 66.2578 34.4181 66.8379C34.049 67.418 33.5216 67.9014 32.8361 68.2881C32.1505 68.666 31.276 68.9473 30.2125 69.1318C29.1578 69.3252 27.8571 69.4219 26.3102 69.4219H18.6901C17.1432 69.4219 15.838 69.3252 14.7745 69.1318C13.7198 68.9473 12.8497 68.666 12.1642 68.2881C11.4786 67.9014 10.9469 67.418 10.569 66.8379C10.1998 66.2578 9.92737 65.5767 9.75159 64.7944C9.58459 64.0122 9.48792 63.1289 9.46155 62.1445C9.43518 61.1602 9.422 60.0703 9.422 58.875C9.422 57.6797 9.43518 56.5898 9.46155 55.6055C9.48792 54.6211 9.58459 53.7378 9.75159 52.9556C9.92737 52.1733 10.1998 51.4922 10.569 50.9121C10.9469 50.332 11.4786 49.853 12.1642 49.4751C12.8497 49.0884 13.7198 48.8027 14.7745 48.6182C15.838 48.4248 17.1432 48.3281 18.6901 48.3281H26.3102ZM26.3102 67.3125C27.4264 67.3125 28.3668 67.2817 29.1315 67.2202C29.9049 67.1499 30.5421 67.0137 31.0431 66.8115C31.5441 66.6094 31.9308 66.3193 32.2032 65.9414C32.4757 65.5635 32.6735 65.0625 32.7965 64.4385C32.9196 63.8145 32.9899 63.0498 33.0074 62.1445C33.0338 61.2305 33.047 60.1406 33.047 58.875C33.047 57.6094 33.0338 56.5239 33.0074 55.6187C32.9899 54.7046 32.9196 53.9355 32.7965 53.3115C32.6735 52.6875 32.4757 52.1865 32.2032 51.8086C31.9308 51.4307 31.5441 51.1406 31.0431 50.9385C30.5509 50.7363 29.9181 50.6045 29.1447 50.543C28.38 50.4727 27.4352 50.4375 26.3102 50.4375H18.6901C17.5651 50.4375 16.6158 50.4727 15.8424 50.543C15.0778 50.6045 14.4449 50.7363 13.944 50.9385C13.443 51.1406 13.0563 51.4307 12.7838 51.8086C12.5114 52.1865 12.3136 52.6875 12.1906 53.3115C12.0675 53.9355 11.9972 54.7046 11.9796 55.6187C11.962 56.5239 11.9532 57.6094 11.9532 58.875C11.9532 60.1406 11.962 61.2305 11.9796 62.1445C12.006 63.0498 12.0807 63.8145 12.2037 64.4385C12.3268 65.0625 12.5201 65.5635 12.7838 65.9414C13.0563 66.3193 13.443 66.6094 13.944 66.8115C14.4449 67.0137 15.0778 67.1499 15.8424 67.2202C16.6158 67.2817 17.5651 67.3125 18.6901 67.3125H26.3102ZM24.715 95.6094C26.1036 95.6094 27.2946 95.6665 28.2877 95.7808C29.2809 95.895 30.1158 96.0664 30.7926 96.2949C31.4781 96.5146 32.0231 96.7915 32.4274 97.1255C32.8317 97.4595 33.1437 97.8418 33.3634 98.2725C33.5831 98.6943 33.7238 99.1689 33.7853 99.6963C33.8556 100.224 33.8907 100.795 33.8907 101.41C33.8907 102.025 33.8336 102.605 33.7194 103.15C33.6139 103.687 33.4205 104.179 33.1393 104.627C32.858 105.075 32.4757 105.475 31.9923 105.827C31.5089 106.178 30.8937 106.477 30.1466 106.723C29.3995 106.969 28.4987 107.154 27.444 107.277C26.3981 107.409 25.172 107.475 23.7657 107.475H20.3907C19.1251 107.475 18.0177 107.426 17.0685 107.33C16.1193 107.233 15.3019 107.088 14.6163 106.895C13.9308 106.692 13.3639 106.442 12.9156 106.143C12.4674 105.835 12.1071 105.479 11.8346 105.075C11.5709 104.662 11.3864 104.196 11.2809 103.678C11.1754 103.15 11.1227 102.57 11.1227 101.938H13.6539C13.6539 102.729 13.7682 103.348 13.9967 103.796C14.2252 104.245 14.6031 104.583 15.1305 104.812C15.6578 105.031 16.3478 105.172 17.2003 105.233C18.0616 105.286 19.1251 105.312 20.3907 105.312H23.7657C25.2423 105.312 26.4684 105.242 27.444 105.102C28.4196 104.961 29.1974 104.737 29.7775 104.429C30.3575 104.122 30.7662 103.722 31.0035 103.229C31.2408 102.729 31.3595 102.122 31.3595 101.41C31.3595 100.698 31.276 100.105 31.109 99.6304C30.9508 99.1558 30.63 98.7778 30.1466 98.4966C29.672 98.2153 28.9996 98.0176 28.1295 97.9033C27.2594 97.7803 26.1212 97.7188 24.715 97.7188H21.2345C19.6876 97.7188 18.3605 97.6616 17.2531 97.5474C16.1544 97.4331 15.2316 97.2705 14.4845 97.0596C13.7374 96.8398 13.1398 96.5718 12.6915 96.2554C12.2433 95.9302 11.9005 95.561 11.6632 95.1479C11.4347 94.7349 11.2853 94.2778 11.215 93.7769C11.1447 93.2671 11.1095 92.7178 11.1095 92.1289C11.1095 91.5137 11.1622 90.9424 11.2677 90.415C11.382 89.8877 11.5885 89.4131 11.8873 88.9912C12.1862 88.5605 12.5948 88.1782 13.1134 87.8442C13.632 87.5103 14.2955 87.2334 15.1041 87.0137C15.9215 86.7852 16.9015 86.6138 18.0441 86.4995C19.1866 86.3853 20.5314 86.3281 22.0782 86.3281H24.6095C25.8751 86.3281 26.9825 86.3765 27.9318 86.4731C28.881 86.561 29.6984 86.7061 30.3839 86.9082C31.0695 87.1016 31.6364 87.3477 32.0846 87.6465C32.5416 87.9365 32.902 88.2881 33.1656 88.7012C33.4381 89.1055 33.6271 89.5669 33.7325 90.0854C33.838 90.604 33.8907 91.1797 33.8907 91.8125H31.3595C31.3595 91.0215 31.2452 90.4019 31.0167 89.9536C30.7882 89.5054 30.4103 89.1714 29.8829 88.9517C29.3556 88.7231 28.6613 88.5825 27.7999 88.5298C26.9386 88.4683 25.8751 88.4375 24.6095 88.4375H22.0782C20.3907 88.4375 19.0021 88.499 17.9122 88.6221C16.8224 88.7363 15.9611 88.9341 15.3282 89.2153C14.6954 89.4966 14.256 89.8745 14.0099 90.3491C13.7638 90.8237 13.6407 91.417 13.6407 92.1289C13.6407 92.5684 13.6715 92.9595 13.733 93.3022C13.7946 93.645 13.9176 93.9482 14.1022 94.2119C14.2955 94.4668 14.5636 94.6821 14.9064 94.8579C15.2491 95.0337 15.7018 95.1787 16.2643 95.293C16.8268 95.4072 17.5123 95.4907 18.3209 95.5435C19.1383 95.5874 20.1095 95.6094 21.2345 95.6094H24.715ZM30.5157 140.359H14.4845L11.9532 145H9.00012L20.8126 124.75H24.1876L36.0001 145H33.047L30.5157 140.359ZM29.2501 138.25L22.5001 126.438L15.7501 138.25H29.2501ZM21.2345 162.75H23.7657V183H21.2345V162.75ZM32.1901 207.078C32.1901 206.023 32.0758 205.188 31.8473 204.573C31.6188 203.958 31.2408 203.492 30.7135 203.176C30.1862 202.859 29.4918 202.657 28.6305 202.569C27.778 202.481 26.7189 202.438 25.4532 202.438H19.5338C18.4088 202.438 17.4596 202.473 16.6862 202.543C15.9215 202.604 15.2887 202.736 14.7877 202.938C14.2867 203.141 13.9 203.431 13.6276 203.809C13.3551 204.187 13.1573 204.688 13.0343 205.312C12.9113 205.936 12.8409 206.705 12.8234 207.619C12.8058 208.524 12.797 209.609 12.797 210.875C12.797 212.141 12.8058 213.23 12.8234 214.145C12.8497 215.05 12.9244 215.814 13.0475 216.438C13.1705 217.062 13.3639 217.563 13.6276 217.941C13.9 218.319 14.2867 218.609 14.7877 218.812C15.2887 219.014 15.9215 219.15 16.6862 219.22C17.4596 219.282 18.4088 219.312 19.5338 219.312H25.4532C26.4376 219.312 27.2858 219.286 27.9977 219.233C28.7096 219.181 29.316 219.084 29.817 218.943C30.318 218.803 30.7223 218.609 31.0299 218.363C31.3375 218.117 31.5748 217.81 31.7418 217.44C31.9176 217.062 32.0363 216.614 32.0978 216.096C32.1593 215.568 32.1901 214.953 32.1901 214.25H34.7213C34.7213 215.094 34.6686 215.858 34.5631 216.544C34.4576 217.221 34.2687 217.827 33.9962 218.363C33.7325 218.891 33.3766 219.348 32.9283 219.734C32.4801 220.121 31.9132 220.442 31.2277 220.697C30.5421 220.943 29.7247 221.123 28.7755 221.237C27.8263 221.36 26.7189 221.422 25.4532 221.422H19.5338C17.9869 221.422 16.6818 221.325 15.6183 221.132C14.5636 220.947 13.6935 220.666 13.0079 220.288C12.3224 219.901 11.7906 219.418 11.4127 218.838C11.0436 218.258 10.7711 217.577 10.5953 216.794C10.4283 216.012 10.3317 215.129 10.3053 214.145C10.2789 213.16 10.2657 212.07 10.2657 210.875C10.2657 209.68 10.2789 208.59 10.3053 207.605C10.3317 206.621 10.4283 205.738 10.5953 204.956C10.7711 204.173 11.0436 203.492 11.4127 202.912C11.7906 202.332 12.3224 201.853 13.0079 201.475C13.6935 201.088 14.5636 200.803 15.6183 200.618C16.6818 200.425 17.9869 200.328 19.5338 200.328H25.4532C26.7189 200.328 27.8263 200.39 28.7755 200.513C29.7247 200.627 30.5421 200.807 31.2277 201.053C31.9132 201.291 32.4801 201.594 32.9283 201.963C33.3766 202.332 33.7325 202.767 33.9962 203.268C34.2687 203.769 34.4576 204.336 34.5631 204.969C34.6686 205.602 34.7213 206.305 34.7213 207.078H32.1901Z"/>
</mask>
<path d="M9.10559 12.4375L9.52334 12.1628L8.60559 10.7673V12.4375H9.10559ZM9.10559 31V31.5H9.60559V31H9.10559ZM6.57434 31H6.07434V31.5H6.57434V31ZM6.57434 10.75V10.25H6.07434V10.75H6.57434ZM10.7931 10.75L11.2093 10.4729L11.0608 10.25H10.7931V10.75ZM22.5924 28.4688L22.1762 28.7459L22.5924 29.3708L23.0086 28.7459L22.5924 28.4688ZM34.3917 10.75V10.25H34.124L33.9756 10.4729L34.3917 10.75ZM38.4259 10.75H38.9259V10.25H38.4259V10.75ZM38.4259 31V31.5H38.9259V31H38.4259ZM35.8947 31H35.3947V31.5H35.8947V31ZM35.8947 12.7144H36.3947V11.0439L35.4769 12.4397L35.8947 12.7144ZM23.8712 31V31.5H24.1409L24.289 31.2747L23.8712 31ZM21.3136 31L20.8958 31.2747L21.044 31.5H21.3136V31ZM8.60559 12.4375V31H9.60559V12.4375H8.60559ZM9.10559 30.5H6.57434V31.5H9.10559V30.5ZM7.07434 31V10.75H6.07434V31H7.07434ZM6.57434 11.25H10.7931V10.25H6.57434V11.25ZM10.3769 11.0271L22.1762 28.7459L23.0086 28.1916L11.2093 10.4729L10.3769 11.0271ZM23.0086 28.7459L34.8079 11.0271L33.9756 10.4729L22.1762 28.1916L23.0086 28.7459ZM34.3917 11.25H38.4259V10.25H34.3917V11.25ZM37.9259 10.75V31H38.9259V10.75H37.9259ZM38.4259 30.5H35.8947V31.5H38.4259V30.5ZM36.3947 31V12.7144H35.3947V31H36.3947ZM35.4769 12.4397L23.4534 30.7253L24.289 31.2747L36.3124 12.9891L35.4769 12.4397ZM23.8712 30.5H21.3136V31.5H23.8712V30.5ZM21.7313 30.7253L9.52334 12.1628L8.68784 12.7122L20.8958 31.2747L21.7313 30.7253ZM30.2125 48.6182L30.1224 49.11L30.127 49.1108L30.2125 48.6182ZM32.8361 49.4751L32.5904 49.9106L32.5947 49.913L32.8361 49.4751ZM35.2223 52.9556L34.7333 53.06L34.7345 53.0652L35.2223 52.9556ZM35.5255 55.6055L35.0257 55.6189L35.0258 55.6233L35.5255 55.6055ZM35.5255 62.1445L35.0258 62.1267L35.0257 62.1311L35.5255 62.1445ZM35.2223 64.7944L34.7344 64.6848L34.7333 64.69L35.2223 64.7944ZM32.8361 68.2881L33.0775 68.726L33.0817 68.7236L32.8361 68.2881ZM30.2125 69.1318L30.127 68.6392L30.1224 68.64L30.2125 69.1318ZM14.7745 69.1318L14.864 68.6399L14.8607 68.6393L14.7745 69.1318ZM12.1642 68.2881L11.9185 68.7236L11.9228 68.726L12.1642 68.2881ZM10.569 66.8379L10.1471 67.1063L10.15 67.1108L10.569 66.8379ZM9.75159 64.7944L9.26258 64.8988L9.26375 64.9041L9.75159 64.7944ZM9.75159 52.9556L9.26372 52.8459L9.26261 52.8512L9.75159 52.9556ZM10.569 50.9121L10.15 50.6392L10.1471 50.6437L10.569 50.9121ZM12.1642 49.4751L12.4056 49.913L12.4098 49.9106L12.1642 49.4751ZM14.7745 48.6182L14.8607 49.1107L14.864 49.1101L14.7745 48.6182ZM29.1315 67.2202L29.1716 67.7186L29.1767 67.7182L29.1315 67.2202ZM33.0074 62.1445L32.5076 62.1301L32.5075 62.1348L33.0074 62.1445ZM33.0074 55.6187L32.5075 55.6283L32.5077 55.6332L33.0074 55.6187ZM32.7965 53.3115L32.306 53.4083L32.7965 53.3115ZM31.0431 50.9385L30.8531 51.401L30.856 51.4022L31.0431 50.9385ZM29.1447 50.543L29.0989 51.0409L29.105 51.0414L29.1447 50.543ZM15.8424 50.543L15.8825 51.0414L15.8877 51.0409L15.8424 50.543ZM11.9796 55.6187L12.4795 55.6284L12.4795 55.6283L11.9796 55.6187ZM11.9796 62.1445L11.4797 62.1541L11.4798 62.1591L11.9796 62.1445ZM12.7838 65.9414L12.3737 66.2275L12.3782 66.2338L12.7838 65.9414ZM15.8424 67.2202L15.7966 67.7182L15.8028 67.7186L15.8424 67.2202ZM26.3102 48.8281C27.8388 48.8281 29.1073 48.9239 30.1224 49.11L30.3027 48.1264C29.2084 47.9257 27.8753 47.8281 26.3102 47.8281V48.8281ZM30.127 49.1108C31.1537 49.289 31.9693 49.5602 32.5904 49.9106L33.0817 49.0396C32.3318 48.6166 31.3983 48.3165 30.298 48.1255L30.127 49.1108ZM32.5947 49.913C33.2171 50.2561 33.678 50.6805 33.9963 51.1805L34.8399 50.6437C34.4199 49.9836 33.8261 49.4499 33.0774 49.0372L32.5947 49.913ZM33.9963 51.1805C34.3287 51.7029 34.5768 52.3266 34.7333 53.06L35.7113 52.8512C35.5338 52.0201 35.2458 51.2815 34.8399 50.6437L33.9963 51.1805ZM34.7345 53.0652C34.9017 53.8096 35 54.6598 35.0257 55.6189L36.0253 55.5921C35.9983 54.5823 35.8944 53.666 35.7101 52.8459L34.7345 53.0652ZM35.0258 55.6233C35.0607 56.6007 35.0782 57.6844 35.0782 58.875H36.0782C36.0782 57.6749 36.0606 56.579 36.0252 55.5876L35.0258 55.6233ZM35.0782 58.875C35.0782 60.0656 35.0607 61.1493 35.0258 62.1267L36.0252 62.1624C36.0606 61.171 36.0782 60.0751 36.0782 58.875H35.0782ZM35.0257 62.1311C35 63.0902 34.9017 63.9404 34.7345 64.6848L35.7101 64.9041C35.8944 64.084 35.9983 63.1677 36.0253 62.1579L35.0257 62.1311ZM34.7333 64.69C34.5768 65.4234 34.3287 66.0471 33.9963 66.5695L34.8399 67.1063C35.2458 66.4685 35.5338 65.7299 35.7113 64.8988L34.7333 64.69ZM33.9963 66.5695C33.6772 67.0708 33.2148 67.5004 32.5904 67.8526L33.0817 68.7236C33.8284 68.3024 34.4207 67.7652 34.8399 67.1063L33.9963 66.5695ZM32.5947 67.8502C31.9722 68.1934 31.155 68.4608 30.127 68.6392L30.298 69.6245C31.397 69.4337 32.3288 69.1387 33.0774 68.726L32.5947 67.8502ZM30.1224 68.64C29.1073 68.8261 27.8388 68.9219 26.3102 68.9219V69.9219C27.8753 69.9219 29.2084 69.8243 30.3027 69.6236L30.1224 68.64ZM26.3102 68.9219H18.6901V69.9219H26.3102V68.9219ZM18.6901 68.9219C17.1615 68.9219 15.8883 68.8261 14.864 68.6399L14.6851 69.6238C15.7877 69.8242 17.1248 69.9219 18.6901 69.9219V68.9219ZM14.8607 68.6393C13.8419 68.461 13.0286 68.1937 12.4056 67.8502L11.9228 68.726C12.6708 69.1383 13.5978 69.4335 14.6883 69.6244L14.8607 68.6393ZM12.4098 67.8526C11.7846 67.4999 11.3163 67.069 10.9879 66.5649L10.15 67.1108C10.5775 67.7669 11.1727 68.3028 11.9185 68.7236L12.4098 67.8526ZM10.9908 66.5695C10.6573 66.0454 10.4046 65.4199 10.2394 64.6848L9.26375 64.9041C9.45014 65.7335 9.74231 66.4702 10.1471 67.1063L10.9908 66.5695ZM10.2406 64.69C10.0812 63.9437 9.9871 63.0916 9.96137 62.1311L8.96173 62.1579C8.98873 63.1662 9.08796 64.0807 9.26261 64.8988L10.2406 64.69ZM9.96137 62.1311C9.93514 61.1521 9.922 60.0668 9.922 58.875H8.922C8.922 60.0739 8.93522 61.1683 8.96173 62.1579L9.96137 62.1311ZM9.922 58.875C9.922 57.6832 9.93514 56.5979 9.96137 55.6189L8.96173 55.5921C8.93522 56.5817 8.922 57.6761 8.922 58.875H9.922ZM9.96137 55.6189C9.9871 54.6584 10.0812 53.8063 10.2406 53.06L9.26261 52.8512C9.08796 53.6693 8.98873 54.5838 8.96173 55.5921L9.96137 55.6189ZM10.2394 53.0652C10.4046 52.3301 10.6573 51.7046 10.9908 51.1805L10.1471 50.6437C9.74231 51.2798 9.45014 52.0165 9.26375 52.8459L10.2394 53.0652ZM10.9879 51.1851C11.3155 50.6822 11.7823 50.2565 12.4056 49.913L11.9228 49.0372C11.1749 49.4495 10.5783 49.9818 10.15 50.6392L10.9879 51.1851ZM12.4098 49.9106C13.0316 49.5599 13.8432 49.2887 14.8607 49.1107L14.6883 48.1256C13.5965 48.3167 12.6679 48.6169 11.9185 49.0396L12.4098 49.9106ZM14.864 49.1101C15.8883 48.9239 17.1615 48.8281 18.6901 48.8281V47.8281C17.1248 47.8281 15.7877 47.9258 14.6851 48.1262L14.864 49.1101ZM18.6901 48.8281H26.3102V47.8281H18.6901V48.8281ZM26.3102 67.8125C27.4343 67.8125 28.3891 67.7816 29.1716 67.7186L29.0914 66.7218C28.3446 66.7819 27.4184 66.8125 26.3102 66.8125V67.8125ZM29.1767 67.7182C29.9795 67.6452 30.6688 67.5017 31.2302 67.2752L30.856 66.3478C30.4154 66.5256 29.8303 66.6546 29.0862 66.7223L29.1767 67.7182ZM31.2302 67.2752C31.8045 67.0435 32.2728 66.6999 32.6088 66.2338L31.7977 65.649C31.5887 65.9388 31.2837 66.1753 30.856 66.3478L31.2302 67.2752ZM32.6088 66.2338C32.9358 65.7803 33.1549 65.2055 33.2871 64.5352L32.306 64.3418C32.192 64.9195 32.0156 65.3466 31.7977 65.649L32.6088 66.2338ZM33.2871 64.5352C33.4176 63.8733 33.4894 63.0776 33.5074 62.1542L32.5075 62.1348C32.4903 63.022 32.4215 63.7556 32.306 64.3418L33.2871 64.5352ZM33.5072 62.1589C33.5338 61.2387 33.547 60.1438 33.547 58.875H32.547C32.547 60.1375 32.5338 61.2223 32.5077 62.1301L33.5072 62.1589ZM33.547 58.875C33.547 57.6063 33.5338 56.5157 33.5072 55.6041L32.5077 55.6332C32.5338 56.5322 32.547 57.6125 32.547 58.875H33.547ZM33.5074 55.609C33.4894 54.6772 33.4176 53.877 33.2871 53.2148L32.306 53.4083C32.4215 53.9941 32.4903 54.732 32.5075 55.6283L33.5074 55.609ZM33.2871 53.2148C33.1549 52.5445 32.9358 51.9697 32.6088 51.5162L31.7977 52.101C32.0156 52.4034 32.192 52.8305 32.306 53.4083L33.2871 53.2148ZM32.6088 51.5162C32.2728 51.0501 31.8045 50.7065 31.2302 50.4748L30.856 51.4022C31.2837 51.5747 31.5887 51.8112 31.7977 52.101L32.6088 51.5162ZM31.233 50.476C30.6764 50.2474 29.988 50.1085 29.1843 50.0445L29.105 51.0414C29.8482 51.1005 30.4254 51.2253 30.8531 51.401L31.233 50.476ZM29.1904 50.0451C28.4054 49.9729 27.4441 49.9375 26.3102 49.9375V50.9375C27.4262 50.9375 28.3547 50.9724 29.0989 51.0409L29.1904 50.0451ZM26.3102 49.9375H18.6901V50.9375H26.3102V49.9375ZM18.6901 49.9375C17.556 49.9375 16.5906 49.9729 15.7971 50.045L15.8877 51.0409C16.641 50.9724 17.5741 50.9375 18.6901 50.9375V49.9375ZM15.8023 50.0446C15.0066 50.1086 14.3199 50.2476 13.7569 50.4748L14.1311 51.4022C14.5699 51.2251 15.149 51.1004 15.8825 51.0414L15.8023 50.0446ZM13.7569 50.4748C13.1826 50.7065 12.7142 51.0501 12.3782 51.5162L13.1894 52.101C13.3983 51.8112 13.7034 51.5747 14.1311 51.4022L13.7569 50.4748ZM12.3782 51.5162C12.0513 51.9697 11.8322 52.5445 11.7 53.2148L12.6811 53.4083C12.795 52.8305 12.9714 52.4034 13.1894 52.101L12.3782 51.5162ZM11.7 53.2148C11.5694 53.877 11.4976 54.6772 11.4797 55.609L12.4795 55.6283C12.4968 54.732 12.5656 53.9941 12.6811 53.4083L11.7 53.2148ZM11.4797 55.6089C11.462 56.5184 11.4532 57.6073 11.4532 58.875H12.4532C12.4532 57.6114 12.462 56.5294 12.4795 55.6284L11.4797 55.6089ZM11.4532 58.875C11.4532 60.1427 11.462 61.2359 11.4797 62.1541L12.4795 62.1349C12.462 61.225 12.4532 60.1385 12.4532 58.875H11.4532ZM11.4798 62.1591C11.5067 63.0814 11.5831 63.8754 11.7132 64.5352L12.6943 64.3418C12.5783 63.7535 12.5053 63.0182 12.4794 62.13L11.4798 62.1591ZM11.7132 64.5352C11.8449 65.203 12.0584 65.7755 12.3737 66.2275L13.1939 65.6553C12.9819 65.3515 12.8087 64.922 12.6943 64.3418L11.7132 64.5352ZM12.3782 66.2338C12.7142 66.6999 13.1826 67.0435 13.7569 67.2752L14.1311 66.3478C13.7034 66.1753 13.3983 65.9388 13.1894 65.649L12.3782 66.2338ZM13.7569 67.2752C14.3176 67.5015 15.0021 67.6451 15.7966 67.7181L15.8882 66.7223C15.1534 66.6547 14.5723 66.5259 14.1311 66.3478L13.7569 67.2752ZM15.8028 67.7186C16.5938 67.7816 17.5571 67.8125 18.6901 67.8125V66.8125C17.573 66.8125 16.6379 66.7819 15.8821 66.7218L15.8028 67.7186ZM18.6901 67.8125H26.3102V66.8125H18.6901V67.8125ZM30.7926 96.2949L30.6326 96.7687L30.64 96.7711L30.7926 96.2949ZM33.3634 98.2725L32.918 98.4997L32.9199 98.5034L33.3634 98.2725ZM33.7853 99.6963L33.2886 99.7542L33.2897 99.7624L33.7853 99.6963ZM33.7194 103.15L33.23 103.048L33.2288 103.054L33.7194 103.15ZM27.444 107.277L27.386 106.78L27.3814 106.781L27.444 107.277ZM14.6163 106.895L14.4749 107.374L14.4806 107.376L14.6163 106.895ZM12.9156 106.143L12.6327 106.555L12.6383 106.559L12.9156 106.143ZM11.8346 105.075L11.413 105.344L11.42 105.355L11.8346 105.075ZM11.2809 103.678L10.7906 103.776L10.7909 103.777L11.2809 103.678ZM11.1227 101.938V101.438H10.6227V101.938H11.1227ZM13.6539 101.938H14.1539V101.438H13.6539V101.938ZM15.1305 104.812L14.9317 105.27L14.9382 105.273L15.1305 104.812ZM17.2003 105.233L17.1643 105.732L17.1698 105.732L17.2003 105.233ZM31.0035 103.229L31.4539 103.447L31.4554 103.444L31.0035 103.229ZM31.109 99.6304L30.6346 99.7885L30.6374 99.7963L31.109 99.6304ZM30.1466 98.4966L29.8917 98.9267L29.8952 98.9288L30.1466 98.4966ZM28.1295 97.9033L28.0595 98.3984L28.0644 98.3991L28.1295 97.9033ZM17.2531 97.5474L17.2013 98.0447L17.2017 98.0447L17.2531 97.5474ZM14.4845 97.0596L14.3434 97.5393L14.3486 97.5408L14.4845 97.0596ZM12.6915 96.2554L12.3979 96.6601L12.4032 96.6639L12.6915 96.2554ZM11.6632 95.1479L11.2256 95.39L11.2297 95.397L11.6632 95.1479ZM11.215 93.7769L10.7197 93.8452L10.7198 93.8464L11.215 93.7769ZM11.2677 90.415L10.779 90.3092L10.7774 90.317L11.2677 90.415ZM11.8873 88.9912L12.2954 89.2802L12.2981 89.2763L11.8873 88.9912ZM15.1041 87.0137L15.2352 87.4962L15.2387 87.4952L15.1041 87.0137ZM27.9318 86.4731L27.8811 86.9706L27.8857 86.971L27.9318 86.4731ZM30.3839 86.9082L30.2425 87.3878L30.2482 87.3894L30.3839 86.9082ZM32.0846 87.6465L31.8072 88.0626L31.8167 88.0686L32.0846 87.6465ZM33.1656 88.7012L32.7441 88.9703L32.751 88.9806L33.1656 88.7012ZM33.8907 91.8125V92.3125H34.3907V91.8125H33.8907ZM31.3595 91.8125H30.8595V92.3125H31.3595V91.8125ZM29.8829 88.9517L29.6841 89.4105L29.6906 89.4132L29.8829 88.9517ZM27.7999 88.5298L27.7643 89.0285L27.7694 89.0289L27.7999 88.5298ZM17.9122 88.6221L17.9644 89.1194L17.9683 89.1189L17.9122 88.6221ZM14.1022 94.2119L13.6926 94.4986L13.698 94.5065L13.7038 94.5141L14.1022 94.2119ZM18.3209 95.5435L18.2884 96.0424L18.2941 96.0427L18.3209 95.5435ZM24.715 96.1094C26.0913 96.1094 27.2621 96.1661 28.2306 96.2775L28.3449 95.284C27.327 95.1669 26.116 95.1094 24.715 95.1094V96.1094ZM28.2306 96.2775C29.2015 96.3892 29.9995 96.5549 30.6326 96.7686L30.9526 95.8212C30.2322 95.5779 29.3603 95.4009 28.3449 95.284L28.2306 96.2775ZM30.64 96.7711C31.2861 96.9781 31.7682 97.2295 32.1089 97.511L32.7458 96.74C32.2779 96.3535 31.6702 96.0512 30.9452 95.8188L30.64 96.7711ZM32.1089 97.511C32.465 97.8052 32.7319 98.1349 32.918 98.4997L33.8088 98.0452C33.5555 97.5487 33.1983 97.1138 32.7458 96.74L32.1089 97.511ZM32.9199 98.5034C33.1085 98.8654 33.2334 99.2803 33.2886 99.7542L34.2819 99.6384C34.2142 99.0576 34.0578 98.5232 33.8069 98.0415L32.9199 98.5034ZM33.2897 99.7624C33.3566 100.265 33.3907 100.814 33.3907 101.41H34.3907C34.3907 100.776 34.3545 100.183 34.2809 99.6302L33.2897 99.7624ZM33.3907 101.41C33.3907 101.994 33.3365 102.54 33.23 103.048L34.2087 103.253C34.3307 102.671 34.3907 102.056 34.3907 101.41H33.3907ZM33.2288 103.054C33.1347 103.532 32.9634 103.966 32.7157 104.361L33.5628 104.893C33.8776 104.391 34.0931 103.841 34.21 103.247L33.2288 103.054ZM32.7157 104.361C32.4725 104.749 32.1367 105.103 31.6982 105.422L32.2864 106.231C32.8147 105.847 33.2435 105.402 33.5628 104.893L32.7157 104.361ZM31.6982 105.422C31.2676 105.735 30.7026 106.014 29.9902 106.248L30.303 107.198C31.0848 106.941 31.7502 106.621 32.2864 106.231L31.6982 105.422ZM29.9902 106.248C29.284 106.481 28.418 106.66 27.386 106.78L27.5019 107.773C28.5793 107.648 29.5151 107.458 30.303 107.198L29.9902 106.248ZM27.3814 106.781C26.3618 106.909 25.1575 106.975 23.7657 106.975V107.975C25.1865 107.975 26.4343 107.908 27.5065 107.773L27.3814 106.781ZM23.7657 106.975H20.3907V107.975H23.7657V106.975ZM20.3907 106.975C19.137 106.975 18.0471 106.927 17.1191 106.832L17.0178 107.827C17.9883 107.926 19.1133 107.975 20.3907 107.975V106.975ZM17.1191 106.832C16.1897 106.737 15.4022 106.597 14.7521 106.413L14.4806 107.376C15.2015 107.579 16.0488 107.728 17.0178 107.827L17.1191 106.832ZM14.7577 106.415C14.1057 106.223 13.5883 105.991 13.193 105.727L12.6383 106.559C13.1395 106.893 13.7559 107.162 14.4749 107.374L14.7577 106.415ZM13.1986 105.731C12.7962 105.455 12.4827 105.142 12.2492 104.796L11.42 105.355C11.7314 105.817 12.1386 106.216 12.6327 106.555L13.1986 105.731ZM12.2561 104.806C12.028 104.449 11.8651 104.041 11.7709 103.578L10.7909 103.777C10.9076 104.351 11.1139 104.875 11.4131 105.344L12.2561 104.806ZM11.7712 103.58C11.6732 103.09 11.6227 102.543 11.6227 101.938H10.6227C10.6227 102.598 10.6777 103.211 10.7906 103.776L11.7712 103.58ZM11.1227 102.438H13.6539V101.438H11.1227V102.438ZM13.1539 101.938C13.1539 102.767 13.2721 103.476 13.5513 104.023L14.4422 103.569C14.2643 103.22 14.1539 102.69 14.1539 101.938H13.1539ZM13.5513 104.023C13.84 104.59 14.3137 105.003 14.9317 105.27L15.3293 104.353C14.8926 104.163 14.6105 103.899 14.4422 103.569L13.5513 104.023ZM14.9382 105.273C15.5335 105.521 16.282 105.668 17.1643 105.732L17.2363 104.735C16.4136 104.675 15.7822 104.541 15.3228 104.35L14.9382 105.273ZM17.1698 105.732C18.0448 105.786 19.1192 105.812 20.3907 105.812V104.812C19.1311 104.812 18.0785 104.786 17.2309 104.734L17.1698 105.732ZM20.3907 105.812H23.7657V104.812H20.3907V105.812ZM23.7657 105.812C25.2557 105.812 26.5076 105.742 27.5153 105.596L27.3726 104.607C26.4292 104.743 25.2289 104.812 23.7657 104.812V105.812ZM27.5153 105.596C28.5222 105.451 29.3621 105.215 30.0117 104.871L29.5432 103.987C29.0327 104.258 28.3169 104.471 27.3726 104.607L27.5153 105.596ZM30.0117 104.871C30.6665 104.524 31.1616 104.053 31.4539 103.447L30.5532 103.012C30.3709 103.39 30.0486 103.719 29.5432 103.987L30.0117 104.871ZM31.4554 103.444C31.7321 102.859 31.8595 102.176 31.8595 101.41H30.8595C30.8595 102.068 30.7496 102.598 30.5517 103.015L31.4554 103.444ZM31.8595 101.41C31.8595 100.663 31.7724 100.009 31.5807 99.4644L30.6374 99.7963C30.7796 100.201 30.8595 100.733 30.8595 101.41H31.8595ZM31.5834 99.4723C31.3821 98.8684 30.9733 98.3991 30.3981 98.0644L29.8952 98.9288C30.2867 99.1566 30.5195 99.4431 30.6347 99.7885L31.5834 99.4723ZM30.4015 98.0664C29.8445 97.7364 29.0967 97.526 28.1946 97.4076L28.0644 98.3991C28.9026 98.5091 29.4995 98.6943 29.8917 98.9267L30.4015 98.0664ZM28.1995 97.4082C27.2967 97.2806 26.1325 97.2188 24.715 97.2188V98.2188C26.1099 98.2188 27.2221 98.28 28.0595 98.3984L28.1995 97.4082ZM24.715 97.2188H21.2345V98.2188H24.715V97.2188ZM21.2345 97.2188C19.6987 97.2188 18.3896 97.162 17.3044 97.05L17.2017 98.0447C18.3313 98.1613 19.6765 98.2188 21.2345 98.2188V97.2188ZM17.3048 97.05C16.2237 96.9376 15.3311 96.7791 14.6204 96.5784L14.3486 97.5408C15.1321 97.762 16.0851 97.9286 17.2013 98.0447L17.3048 97.05ZM14.6256 96.5799C13.9109 96.3697 13.3688 96.1214 12.9799 95.8469L12.4032 96.6639C12.9108 97.0221 13.5639 97.31 14.3434 97.5393L14.6256 96.5799ZM12.9851 95.8507C12.5848 95.5602 12.2937 95.2417 12.0968 94.8989L11.2297 95.397C11.5074 95.8804 11.9018 96.3001 12.3979 96.6601L12.9851 95.8507ZM12.1007 94.9059C11.9039 94.5501 11.7725 94.1522 11.7101 93.7074L10.7198 93.8464C10.798 94.4035 10.9655 94.9197 11.2257 95.39L12.1007 94.9059ZM11.7103 93.7085C11.6435 93.2244 11.6095 92.6981 11.6095 92.1289H10.6095C10.6095 92.7374 10.6458 93.3098 10.7197 93.8452L11.7103 93.7085ZM11.6095 92.1289C11.6095 91.542 11.6598 91.0039 11.758 90.5131L10.7774 90.317C10.6646 90.8808 10.6095 91.4854 10.6095 92.1289H11.6095ZM11.7564 90.5209C11.857 90.0565 12.0372 89.6447 12.2953 89.2802L11.4793 88.7022C11.1398 89.1815 10.9069 89.7189 10.779 90.3092L11.7564 90.5209ZM12.2981 89.2763C12.5536 88.9081 12.9111 88.5693 13.3841 88.2646L12.8427 87.4239C12.2786 87.7872 11.8187 88.213 11.4765 88.7062L12.2981 89.2763ZM13.3841 88.2646C13.8473 87.9663 14.4596 87.7069 15.2352 87.4962L14.973 86.5312C14.1314 86.7599 13.4166 87.0542 12.8427 87.4239L13.3841 88.2646ZM15.2387 87.4952C16.0206 87.2766 16.9706 87.1094 18.0938 86.997L17.9943 86.002C16.8323 86.1182 15.8224 86.2937 14.9695 86.5321L15.2387 87.4952ZM18.0938 86.997C19.2153 86.8849 20.5427 86.8281 22.0782 86.8281V85.8281C20.52 85.8281 19.158 85.8856 17.9943 86.002L18.0938 86.997ZM22.0782 86.8281H24.6095V85.8281H22.0782V86.8281ZM24.6095 86.8281C25.8633 86.8281 26.9531 86.8761 27.8811 86.9706L27.9824 85.9757C27.012 85.8769 25.887 85.8281 24.6095 85.8281V86.8281ZM27.8857 86.971C28.8126 87.0568 29.5964 87.1973 30.2425 87.3878L30.5253 86.4286C29.8004 86.2148 28.9494 86.0652 27.9779 85.9753L27.8857 86.971ZM30.2482 87.3894C30.8986 87.5729 31.414 87.8003 31.8072 88.0625L32.3619 87.2305C31.8588 86.895 31.2403 86.6302 30.5196 86.427L30.2482 87.3894ZM31.8167 88.0686C32.2185 88.3236 32.5238 88.625 32.7442 88.9702L33.5871 88.4322C33.2801 87.9512 32.8648 87.5494 32.3525 87.2243L31.8167 88.0686ZM32.751 88.9806C32.9838 89.326 33.1491 89.7253 33.2426 90.1851L34.2225 89.9858C34.1051 89.4085 33.8924 88.8849 33.5803 88.4217L32.751 88.9806ZM33.2426 90.1851C33.3402 90.6652 33.3907 91.2069 33.3907 91.8125H34.3907C34.3907 91.1525 34.3358 90.5428 34.2225 89.9858L33.2426 90.1851ZM33.8907 91.3125H31.3595V92.3125H33.8907V91.3125ZM31.8595 91.8125C31.8595 90.9832 31.7413 90.2741 31.4622 89.7265L30.5713 90.1807C30.7492 90.5296 30.8595 91.0598 30.8595 91.8125H31.8595ZM31.4622 89.7265C31.1725 89.1583 30.6963 88.7489 30.0752 88.4901L29.6906 89.4132C30.1242 89.5939 30.4039 89.8525 30.5713 90.1807L31.4622 89.7265ZM30.0817 88.4929C29.4814 88.2327 28.7236 88.0854 27.8305 88.0307L27.7694 89.0289C28.5989 89.0796 29.2298 89.2135 29.6841 89.4104L30.0817 88.4929ZM27.8356 88.0311C26.9583 87.9684 25.8821 87.9375 24.6095 87.9375V88.9375C25.8682 88.9375 26.9189 88.9681 27.7643 89.0285L27.8356 88.0311ZM24.6095 87.9375H22.0782V88.9375H24.6095V87.9375ZM22.0782 87.9375C20.3808 87.9375 18.9717 87.9993 17.8561 88.1252L17.9683 89.1189C19.0325 88.9988 20.4007 88.9375 22.0782 88.9375V87.9375ZM17.8601 88.1248C16.7448 88.2417 15.8254 88.4472 15.1252 88.7584L15.5313 89.6722C16.0967 89.4209 16.9 89.2309 17.9644 89.1193L17.8601 88.1248ZM15.1252 88.7584C14.4196 89.072 13.878 89.5172 13.566 90.119L14.4538 90.5793C14.6339 90.2318 14.9712 89.9212 15.5313 89.6722L15.1252 88.7584ZM13.566 90.119C13.2729 90.6843 13.1407 91.3624 13.1407 92.1289H14.1407C14.1407 91.4716 14.2547 90.9632 14.4538 90.5793L13.566 90.119ZM13.1407 92.1289C13.1407 92.5907 13.173 93.0123 13.2409 93.3906L14.2252 93.2139C14.17 92.9067 14.1407 92.546 14.1407 92.1289H13.1407ZM13.2409 93.3906C13.3142 93.7987 13.4631 94.1709 13.6926 94.4986L14.5118 93.9252C14.3721 93.7256 14.275 93.4913 14.2252 93.2139L13.2409 93.3906ZM13.7038 94.5141C13.9508 94.8397 14.2822 95.0997 14.6782 95.3028L15.1345 94.413C14.845 94.2645 14.6403 94.0939 14.5005 93.9097L13.7038 94.5141ZM14.6782 95.3028C15.0762 95.5069 15.5771 95.6636 16.1648 95.783L16.3638 94.803C15.8264 94.6938 15.4221 94.5605 15.1345 94.413L14.6782 95.3028ZM16.1648 95.783C16.7563 95.9031 17.4657 95.9887 18.2884 96.0424L18.3535 95.0445C17.559 94.9927 16.8973 94.9113 16.3638 94.803L16.1648 95.783ZM18.2941 96.0427C19.123 96.0873 20.1036 96.1094 21.2345 96.1094V95.1094C20.1154 95.1094 19.1536 95.0875 18.3478 95.0442L18.2941 96.0427ZM21.2345 96.1094H24.715V95.1094H21.2345V96.1094ZM30.5157 140.359L30.9547 140.12L30.8126 139.859H30.5157V140.359ZM14.4845 140.359V139.859H14.1877L14.0455 140.12L14.4845 140.359ZM11.9532 145V145.5H12.2501L12.3922 145.239L11.9532 145ZM9.00012 145L8.56823 144.748L8.1296 145.5H9.00012V145ZM20.8126 124.75V124.25H20.5254L20.3807 124.498L20.8126 124.75ZM24.1876 124.75L24.6195 124.498L24.4748 124.25H24.1876V124.75ZM36.0001 145V145.5H36.8706L36.432 144.748L36.0001 145ZM33.047 145L32.608 145.239L32.7502 145.5H33.047V145ZM29.2501 138.25V138.75H30.1117L29.6842 138.002L29.2501 138.25ZM22.5001 126.438L22.9342 126.189L22.5001 125.43L22.066 126.189L22.5001 126.438ZM15.7501 138.25L15.316 138.002L14.8885 138.75H15.7501V138.25ZM30.5157 139.859H14.4845V140.859H30.5157V139.859ZM14.0455 140.12L11.5143 144.761L12.3922 145.239L14.9234 140.599L14.0455 140.12ZM11.9532 144.5H9.00012V145.5H11.9532V144.5ZM9.43201 145.252L21.2445 125.002L20.3807 124.498L8.56823 144.748L9.43201 145.252ZM20.8126 125.25H24.1876V124.25H20.8126V125.25ZM23.7557 125.002L35.5682 145.252L36.432 144.748L24.6195 124.498L23.7557 125.002ZM36.0001 144.5H33.047V145.5H36.0001V144.5ZM33.4859 144.761L30.9547 140.12L30.0768 140.599L32.608 145.239L33.4859 144.761ZM29.6842 138.002L22.9342 126.189L22.066 126.686L28.816 138.498L29.6842 138.002ZM22.066 126.189L15.316 138.002L16.1842 138.498L22.9342 126.686L22.066 126.189ZM15.7501 138.75H29.2501V137.75H15.7501V138.75ZM21.2345 162.75V162.25H20.7345V162.75H21.2345ZM23.7657 162.75H24.2657V162.25H23.7657V162.75ZM23.7657 183V183.5H24.2657V183H23.7657ZM21.2345 183H20.7345V183.5H21.2345V183ZM21.2345 163.25H23.7657V162.25H21.2345V163.25ZM23.2657 162.75V183H24.2657V162.75H23.2657ZM23.7657 182.5H21.2345V183.5H23.7657V182.5ZM21.7345 183V162.75H20.7345V183H21.7345ZM32.1901 207.078H31.6901V207.578H32.1901V207.078ZM31.8473 204.573L32.316 204.399L31.8473 204.573ZM28.6305 202.569L28.5792 203.067L28.5797 203.067L28.6305 202.569ZM16.6862 202.543L16.7263 203.041L16.7314 203.041L16.6862 202.543ZM12.8234 207.619L13.3233 207.628L13.3233 207.628L12.8234 207.619ZM12.8234 214.145L12.3234 214.154L12.3236 214.159L12.8234 214.145ZM13.6276 217.941L13.2175 218.228L13.222 218.234L13.6276 217.941ZM16.6862 219.22L16.6404 219.718L16.6465 219.719L16.6862 219.22ZM31.7418 217.44L31.2884 217.23L31.2863 217.234L31.7418 217.44ZM32.0978 216.096L32.5943 216.155L32.5944 216.154L32.0978 216.096ZM32.1901 214.25V213.75H31.6901V214.25H32.1901ZM34.7213 214.25H35.2213V213.75H34.7213V214.25ZM34.5631 216.544L35.0571 216.621L35.0573 216.62L34.5631 216.544ZM33.9962 218.363L33.5505 218.137L33.549 218.14L33.9962 218.363ZM31.2277 220.697L31.3966 221.167L31.4019 221.165L31.2277 220.697ZM28.7755 221.237L28.7158 220.741L28.7112 220.741L28.7755 221.237ZM15.6183 221.132L15.7077 220.64L15.7045 220.639L15.6183 221.132ZM13.0079 220.288L12.7623 220.724L12.7665 220.726L13.0079 220.288ZM11.4127 218.838L10.9909 219.106L10.9938 219.111L11.4127 218.838ZM10.5953 216.794L10.1063 216.899L10.1075 216.904L10.5953 216.794ZM10.5953 204.956L10.1075 204.846L10.1064 204.851L10.5953 204.956ZM11.4127 202.912L10.9938 202.639L10.9909 202.644L11.4127 202.912ZM13.0079 201.475L13.2493 201.913L13.2536 201.911L13.0079 201.475ZM15.6183 200.618L15.7045 201.111L15.7077 201.11L15.6183 200.618ZM28.7755 200.513L28.7112 201.009L28.7158 201.009L28.7755 200.513ZM31.2277 201.053L31.0587 201.524L31.0641 201.526L31.2277 201.053ZM33.9962 203.268L33.5537 203.501L33.557 203.507L33.9962 203.268ZM34.7213 207.078V207.578H35.2213V207.078H34.7213ZM32.6901 207.078C32.6901 205.996 32.5739 205.094 32.316 204.399L31.3786 204.747C31.5777 205.283 31.6901 206.051 31.6901 207.078H32.6901ZM32.316 204.399C32.0508 203.685 31.6022 203.126 30.9707 202.747L30.4563 203.605C30.8794 203.858 31.1867 204.231 31.3786 204.747L32.316 204.399ZM30.9707 202.747C30.3602 202.381 29.5878 202.164 28.6812 202.072L28.5797 203.067C29.3958 203.15 30.0121 203.338 30.4563 203.605L30.9707 202.747ZM28.6818 202.072C27.8063 201.982 26.7288 201.938 25.4532 201.938V202.938C26.709 202.938 27.7497 202.981 28.5792 203.067L28.6818 202.072ZM25.4532 201.938H19.5338V202.938H25.4532V201.938ZM19.5338 201.938C18.3998 201.938 17.4344 201.973 16.6409 202.045L16.7314 203.041C17.4848 202.972 18.4179 202.938 19.5338 202.938V201.938ZM16.6461 202.045C15.8503 202.109 15.1637 202.248 14.6006 202.475L14.9748 203.402C15.4137 203.225 15.9927 203.1 16.7263 203.041L16.6461 202.045ZM14.6006 202.475C14.0263 202.707 13.558 203.05 13.222 203.516L14.0332 204.101C14.2421 203.811 14.5471 203.575 14.9748 203.402L14.6006 202.475ZM13.222 203.516C12.895 203.97 12.6759 204.544 12.5437 205.215L13.5249 205.408C13.6388 204.831 13.8152 204.403 14.0332 204.101L13.222 203.516ZM12.5437 205.215C12.4132 205.877 12.3414 206.677 12.3235 207.609L13.3233 207.628C13.3405 206.732 13.4093 205.994 13.5249 205.408L12.5437 205.215ZM12.3235 207.609C12.3058 208.518 12.297 209.607 12.297 210.875H13.297C13.297 209.611 13.3058 208.529 13.3233 207.628L12.3235 207.609ZM12.297 210.875C12.297 212.143 12.3058 213.236 12.3235 214.154L13.3233 214.135C13.3058 213.225 13.297 212.139 13.297 210.875H12.297ZM12.3236 214.159C12.3504 215.081 12.4268 215.875 12.5569 216.535L13.538 216.342C13.422 215.754 13.349 215.018 13.3232 214.13L12.3236 214.159ZM12.5569 216.535C12.6886 217.203 12.9021 217.775 13.2175 218.227L14.0376 217.655C13.8257 217.352 13.6525 216.922 13.538 216.342L12.5569 216.535ZM13.222 218.234C13.558 218.7 14.0263 219.043 14.6006 219.275L14.9748 218.348C14.5471 218.175 14.2421 217.939 14.0332 217.649L13.222 218.234ZM14.6006 219.275C15.1614 219.501 15.8459 219.645 16.6404 219.718L16.7319 218.722C15.9972 218.655 15.416 218.526 14.9748 218.348L14.6006 219.275ZM16.6465 219.719C17.4375 219.782 18.4009 219.812 19.5338 219.812V218.812C18.4167 218.812 17.4816 218.782 16.7258 218.722L16.6465 219.719ZM19.5338 219.812H25.4532V218.812H19.5338V219.812ZM25.4532 219.812C26.4457 219.812 27.3068 219.786 28.0346 219.732L27.9607 218.735C27.2647 218.786 26.4295 218.812 25.4532 218.812V219.812ZM28.0346 219.732C28.7684 219.678 29.4098 219.577 29.9521 219.425L29.6819 218.462C29.2223 218.591 28.6508 218.684 27.9607 218.735L28.0346 219.732ZM29.9521 219.425C30.498 219.272 30.9684 219.053 31.3423 218.754L30.7176 217.973C30.4762 218.166 30.138 218.334 29.6819 218.462L29.9521 219.425ZM31.3423 218.754C31.7133 218.457 31.9988 218.085 32.1974 217.647L31.2863 217.234C31.1508 217.534 30.9618 217.777 30.7176 217.973L31.3423 218.754ZM32.1952 217.651C32.3981 217.215 32.528 216.713 32.5943 216.155L31.6013 216.037C31.5445 216.515 31.4371 216.91 31.2885 217.23L32.1952 217.651ZM32.5944 216.154C32.6588 215.602 32.6901 214.967 32.6901 214.25H31.6901C31.6901 214.94 31.6598 215.535 31.6011 216.038L32.5944 216.154ZM32.1901 214.75H34.7213V213.75H32.1901V214.75ZM34.2213 214.25C34.2213 215.074 34.1698 215.812 34.0689 216.468L35.0573 216.62C35.1674 215.905 35.2213 215.114 35.2213 214.25H34.2213ZM34.0691 216.467C33.9706 217.099 33.796 217.654 33.5505 218.137L34.442 218.59C34.7414 218.001 34.9447 217.343 35.0571 216.621L34.0691 216.467ZM33.549 218.14C33.315 218.608 33.0001 219.012 32.6017 219.356L33.255 220.113C33.753 219.683 34.1501 219.174 34.4434 218.587L33.549 218.14ZM32.6017 219.356C32.2077 219.696 31.6959 219.989 31.0534 220.228L31.4019 221.165C32.1305 220.895 32.7525 220.546 33.255 220.113L32.6017 219.356ZM31.0587 220.226C30.4175 220.456 29.6386 220.63 28.7158 220.741L28.8353 221.734C29.8109 221.616 30.6668 221.429 31.3966 221.167L31.0587 220.226ZM28.7112 220.741C27.7889 220.861 26.7038 220.922 25.4532 220.922V221.922C26.734 221.922 27.8637 221.86 28.8398 221.733L28.7112 220.741ZM25.4532 220.922H19.5338V221.922H25.4532V220.922ZM19.5338 220.922C18.0053 220.922 16.7321 220.826 15.7077 220.64L15.5288 221.624C16.6314 221.824 17.9686 221.922 19.5338 221.922V220.922ZM15.7045 220.639C14.6856 220.461 13.8724 220.194 13.2493 219.85L12.7665 220.726C13.5146 221.138 14.4416 221.434 15.5321 221.624L15.7045 220.639ZM13.2536 219.853C12.6284 219.5 12.16 219.069 11.8317 218.565L10.9938 219.111C11.4213 219.767 12.0164 220.303 12.7623 220.724L13.2536 219.853ZM11.8346 218.569C11.5011 218.045 11.2484 217.42 11.0832 216.685L10.1075 216.904C10.2939 217.733 10.5861 218.47 10.9909 219.106L11.8346 218.569ZM11.0843 216.69C10.925 215.944 10.8308 215.092 10.8051 214.131L9.80548 214.158C9.83248 215.166 9.93171 216.081 10.1064 216.899L11.0843 216.69ZM10.8051 214.131C10.7789 213.152 10.7657 212.067 10.7657 210.875H9.76575C9.76575 212.074 9.77897 213.168 9.80548 214.158L10.8051 214.131ZM10.7657 210.875C10.7657 209.683 10.7789 208.598 10.8051 207.619L9.80548 207.592C9.77897 208.582 9.76575 209.676 9.76575 210.875H10.7657ZM10.8051 207.619C10.8308 206.658 10.925 205.806 11.0843 205.06L10.1064 204.851C9.93171 205.669 9.83248 206.584 9.80548 207.592L10.8051 207.619ZM11.0832 205.065C11.2484 204.33 11.5011 203.705 11.8346 203.181L10.9909 202.644C10.5861 203.28 10.2939 204.017 10.1075 204.846L11.0832 205.065ZM11.8317 203.185C12.1592 202.682 12.6261 202.257 13.2493 201.913L12.7665 201.037C12.0187 201.45 11.422 201.982 10.9938 202.639L11.8317 203.185ZM13.2536 201.911C13.8753 201.56 14.687 201.289 15.7045 201.111L15.5321 200.126C14.4402 200.317 13.5116 200.617 12.7623 201.04L13.2536 201.911ZM15.7077 201.11C16.7321 200.924 18.0053 200.828 19.5338 200.828V199.828C17.9686 199.828 16.6314 199.926 15.5288 200.126L15.7077 201.11ZM19.5338 200.828H25.4532V199.828H19.5338V200.828ZM25.4532 200.828C26.7038 200.828 27.7889 200.889 28.7112 201.009L28.8398 200.017C27.8637 199.89 26.734 199.828 25.4532 199.828V200.828ZM28.7158 201.009C29.6386 201.12 30.4175 201.294 31.0587 201.524L31.3966 200.583C30.6668 200.321 29.8109 200.134 28.8353 200.016L28.7158 201.009ZM31.0641 201.526C31.7069 201.748 32.218 202.026 32.6105 202.349L33.2462 201.577C32.7422 201.162 32.1195 200.833 31.3912 200.581L31.0641 201.526ZM32.6105 202.349C33.0088 202.677 33.3218 203.06 33.5538 203.501L34.4387 203.035C34.1432 202.474 33.7444 201.987 33.2462 201.577L32.6105 202.349ZM33.557 203.507C33.7998 203.953 33.9725 204.466 34.0699 205.051L35.0563 204.887C34.9428 204.206 34.7376 203.585 34.4355 203.029L33.557 203.507ZM34.0699 205.051C34.17 205.652 34.2213 206.327 34.2213 207.078H35.2213C35.2213 206.283 35.1671 205.551 35.0563 204.887L34.0699 205.051ZM34.7213 206.578H32.1901V207.578H34.7213V206.578Z" fill="black" mask="url(#path-1-outside-1_3911_68)"/>
</g>
<g filter="url(#filter1_d_3911_68)">
<path d="M8.10559 12.4375V31H5.57434V10.75H9.79309L21.5924 28.4688L33.3917 10.75H37.4259V31H34.8947V12.7144L22.8712 31H20.3136L8.10559 12.4375ZM25.3102 48.3281C26.8571 48.3281 28.1578 48.4248 29.2125 48.6182C30.276 48.8027 31.1505 49.0884 31.8361 49.4751C32.5216 49.853 33.049 50.332 33.4181 50.9121C33.7872 51.4922 34.0553 52.1733 34.2223 52.9556C34.3981 53.7378 34.4991 54.6211 34.5255 55.6055C34.5607 56.5898 34.5782 57.6797 34.5782 58.875C34.5782 60.0703 34.5607 61.1602 34.5255 62.1445C34.4991 63.1289 34.3981 64.0122 34.2223 64.7944C34.0553 65.5767 33.7872 66.2578 33.4181 66.8379C33.049 67.418 32.5216 67.9014 31.8361 68.2881C31.1505 68.666 30.276 68.9473 29.2125 69.1318C28.1578 69.3252 26.8571 69.4219 25.3102 69.4219H17.6901C16.1432 69.4219 14.838 69.3252 13.7745 69.1318C12.7198 68.9473 11.8497 68.666 11.1642 68.2881C10.4786 67.9014 9.9469 67.418 9.56897 66.8379C9.19983 66.2578 8.92737 65.5767 8.75159 64.7944C8.58459 64.0122 8.48792 63.1289 8.46155 62.1445C8.43518 61.1602 8.422 60.0703 8.422 58.875C8.422 57.6797 8.43518 56.5898 8.46155 55.6055C8.48792 54.6211 8.58459 53.7378 8.75159 52.9556C8.92737 52.1733 9.19983 51.4922 9.56897 50.9121C9.9469 50.332 10.4786 49.853 11.1642 49.4751C11.8497 49.0884 12.7198 48.8027 13.7745 48.6182C14.838 48.4248 16.1432 48.3281 17.6901 48.3281H25.3102ZM25.3102 67.3125C26.4264 67.3125 27.3668 67.2817 28.1315 67.2202C28.9049 67.1499 29.5421 67.0137 30.0431 66.8115C30.5441 66.6094 30.9308 66.3193 31.2032 65.9414C31.4757 65.5635 31.6735 65.0625 31.7965 64.4385C31.9196 63.8145 31.9899 63.0498 32.0074 62.1445C32.0338 61.2305 32.047 60.1406 32.047 58.875C32.047 57.6094 32.0338 56.5239 32.0074 55.6187C31.9899 54.7046 31.9196 53.9355 31.7965 53.3115C31.6735 52.6875 31.4757 52.1865 31.2032 51.8086C30.9308 51.4307 30.5441 51.1406 30.0431 50.9385C29.5509 50.7363 28.9181 50.6045 28.1447 50.543C27.38 50.4727 26.4352 50.4375 25.3102 50.4375H17.6901C16.5651 50.4375 15.6158 50.4727 14.8424 50.543C14.0778 50.6045 13.4449 50.7363 12.944 50.9385C12.443 51.1406 12.0563 51.4307 11.7838 51.8086C11.5114 52.1865 11.3136 52.6875 11.1906 53.3115C11.0675 53.9355 10.9972 54.7046 10.9796 55.6187C10.962 56.5239 10.9532 57.6094 10.9532 58.875C10.9532 60.1406 10.962 61.2305 10.9796 62.1445C11.006 63.0498 11.0807 63.8145 11.2037 64.4385C11.3268 65.0625 11.5201 65.5635 11.7838 65.9414C12.0563 66.3193 12.443 66.6094 12.944 66.8115C13.4449 67.0137 14.0778 67.1499 14.8424 67.2202C15.6158 67.2817 16.5651 67.3125 17.6901 67.3125H25.3102ZM23.715 95.6094C25.1036 95.6094 26.2946 95.6665 27.2877 95.7808C28.2809 95.895 29.1158 96.0664 29.7926 96.2949C30.4781 96.5146 31.0231 96.7915 31.4274 97.1255C31.8317 97.4595 32.1437 97.8418 32.3634 98.2725C32.5831 98.6943 32.7238 99.1689 32.7853 99.6963C32.8556 100.224 32.8907 100.795 32.8907 101.41C32.8907 102.025 32.8336 102.605 32.7194 103.15C32.6139 103.687 32.4205 104.179 32.1393 104.627C31.858 105.075 31.4757 105.475 30.9923 105.827C30.5089 106.178 29.8937 106.477 29.1466 106.723C28.3995 106.969 27.4987 107.154 26.444 107.277C25.3981 107.409 24.172 107.475 22.7657 107.475H19.3907C18.1251 107.475 17.0177 107.426 16.0685 107.33C15.1193 107.233 14.3019 107.088 13.6163 106.895C12.9308 106.692 12.3639 106.442 11.9156 106.143C11.4674 105.835 11.1071 105.479 10.8346 105.075C10.5709 104.662 10.3864 104.196 10.2809 103.678C10.1754 103.15 10.1227 102.57 10.1227 101.938H12.6539C12.6539 102.729 12.7682 103.348 12.9967 103.796C13.2252 104.245 13.6031 104.583 14.1305 104.812C14.6578 105.031 15.3478 105.172 16.2003 105.233C17.0616 105.286 18.1251 105.312 19.3907 105.312H22.7657C24.2423 105.312 25.4684 105.242 26.444 105.102C27.4196 104.961 28.1974 104.737 28.7775 104.429C29.3575 104.122 29.7662 103.722 30.0035 103.229C30.2408 102.729 30.3595 102.122 30.3595 101.41C30.3595 100.698 30.276 100.105 30.109 99.6304C29.9508 99.1558 29.63 98.7778 29.1466 98.4966C28.672 98.2153 27.9996 98.0176 27.1295 97.9033C26.2594 97.7803 25.1212 97.7188 23.715 97.7188H20.2345C18.6876 97.7188 17.3605 97.6616 16.2531 97.5474C15.1544 97.4331 14.2316 97.2705 13.4845 97.0596C12.7374 96.8398 12.1398 96.5718 11.6915 96.2554C11.2433 95.9302 10.9005 95.561 10.6632 95.1479C10.4347 94.7349 10.2853 94.2778 10.215 93.7769C10.1447 93.2671 10.1095 92.7178 10.1095 92.1289C10.1095 91.5137 10.1622 90.9424 10.2677 90.415C10.382 89.8877 10.5885 89.4131 10.8873 88.9912C11.1862 88.5605 11.5948 88.1782 12.1134 87.8442C12.632 87.5103 13.2955 87.2334 14.1041 87.0137C14.9215 86.7852 15.9015 86.6138 17.0441 86.4995C18.1866 86.3853 19.5314 86.3281 21.0782 86.3281H23.6095C24.8751 86.3281 25.9825 86.3765 26.9318 86.4731C27.881 86.561 28.6984 86.7061 29.3839 86.9082C30.0695 87.1016 30.6364 87.3477 31.0846 87.6465C31.5416 87.9365 31.902 88.2881 32.1656 88.7012C32.4381 89.1055 32.6271 89.5669 32.7325 90.0854C32.838 90.604 32.8907 91.1797 32.8907 91.8125H30.3595C30.3595 91.0215 30.2452 90.4019 30.0167 89.9536C29.7882 89.5054 29.4103 89.1714 28.8829 88.9517C28.3556 88.7231 27.6613 88.5825 26.7999 88.5298C25.9386 88.4683 24.8751 88.4375 23.6095 88.4375H21.0782C19.3907 88.4375 18.0021 88.499 16.9122 88.6221C15.8224 88.7363 14.9611 88.9341 14.3282 89.2153C13.6954 89.4966 13.256 89.8745 13.0099 90.3491C12.7638 90.8237 12.6407 91.417 12.6407 92.1289C12.6407 92.5684 12.6715 92.9595 12.733 93.3022C12.7946 93.645 12.9176 93.9482 13.1022 94.2119C13.2955 94.4668 13.5636 94.6821 13.9064 94.8579C14.2491 95.0337 14.7018 95.1787 15.2643 95.293C15.8268 95.4072 16.5123 95.4907 17.3209 95.5435C18.1383 95.5874 19.1095 95.6094 20.2345 95.6094H23.715ZM29.5157 140.359H13.4845L10.9532 145H8.00012L19.8126 124.75H23.1876L35.0001 145H32.047L29.5157 140.359ZM28.2501 138.25L21.5001 126.438L14.7501 138.25H28.2501ZM20.2345 162.75H22.7657V183H20.2345V162.75ZM31.1901 207.078C31.1901 206.023 31.0758 205.188 30.8473 204.573C30.6188 203.958 30.2408 203.492 29.7135 203.176C29.1862 202.859 28.4918 202.657 27.6305 202.569C26.778 202.481 25.7189 202.438 24.4532 202.438H18.5338C17.4088 202.438 16.4596 202.473 15.6862 202.543C14.9215 202.604 14.2887 202.736 13.7877 202.938C13.2867 203.141 12.9 203.431 12.6276 203.809C12.3551 204.187 12.1573 204.688 12.0343 205.312C11.9113 205.936 11.8409 206.705 11.8234 207.619C11.8058 208.524 11.797 209.609 11.797 210.875C11.797 212.141 11.8058 213.23 11.8234 214.145C11.8497 215.05 11.9244 215.814 12.0475 216.438C12.1705 217.062 12.3639 217.563 12.6276 217.941C12.9 218.319 13.2867 218.609 13.7877 218.812C14.2887 219.014 14.9215 219.15 15.6862 219.22C16.4596 219.282 17.4088 219.312 18.5338 219.312H24.4532C25.4376 219.312 26.2858 219.286 26.9977 219.233C27.7096 219.181 28.316 219.084 28.817 218.943C29.318 218.803 29.7223 218.609 30.0299 218.363C30.3375 218.117 30.5748 217.81 30.7418 217.44C30.9176 217.062 31.0363 216.614 31.0978 216.096C31.1593 215.568 31.1901 214.953 31.1901 214.25H33.7213C33.7213 215.094 33.6686 215.858 33.5631 216.544C33.4576 217.221 33.2687 217.827 32.9962 218.363C32.7325 218.891 32.3766 219.348 31.9283 219.734C31.4801 220.121 30.9132 220.442 30.2277 220.697C29.5421 220.943 28.7247 221.123 27.7755 221.237C26.8263 221.36 25.7189 221.422 24.4532 221.422H18.5338C16.9869 221.422 15.6818 221.325 14.6183 221.132C13.5636 220.947 12.6935 220.666 12.0079 220.288C11.3224 219.901 10.7906 219.418 10.4127 218.838C10.0436 218.258 9.77112 217.577 9.59534 216.794C9.42834 216.012 9.33167 215.129 9.3053 214.145C9.27893 213.16 9.26575 212.07 9.26575 210.875C9.26575 209.68 9.27893 208.59 9.3053 207.605C9.33167 206.621 9.42834 205.738 9.59534 204.956C9.77112 204.173 10.0436 203.492 10.4127 202.912C10.7906 202.332 11.3224 201.853 12.0079 201.475C12.6935 201.088 13.5636 200.803 14.6183 200.618C15.6818 200.425 16.9869 200.328 18.5338 200.328H24.4532C25.7189 200.328 26.8263 200.39 27.7755 200.513C28.7247 200.627 29.5421 200.807 30.2277 201.053C30.9132 201.291 31.4801 201.594 31.9283 201.963C32.3766 202.332 32.7325 202.767 32.9962 203.268C33.2687 203.769 33.4576 204.336 33.5631 204.969C33.6686 205.602 33.7213 206.305 33.7213 207.078H31.1901Z" fill="black"/>
</g>
<defs>
<filter id="filter0_d_3911_68" x="1.22049" y="10.75" width="42.5593" height="221.38" filterUnits="userSpaceOnUse" color-interpolation-filters="sRGB">
<feFlood flood-opacity="0" result="BackgroundImageFix"/>
<feColorMatrix in="SourceAlpha" type="matrix" values="0 0 0 0 0 0 0 0 0 0 0 0 0 0 0 0 0 0 127 0" result="hardAlpha"/>
<feOffset dy="5.35385"/>
<feGaussianBlur stdDeviation="2.67692"/>
<feComposite in2="hardAlpha" operator="out"/>
<feColorMatrix type="matrix" values="0 0 0 0 0 0 0 0 0 0 0 0 0 0 0 0 0 0 0.25 0"/>
<feBlend mode="normal" in2="BackgroundImageFix" result="effect1_dropShadow_3911_68"/>
<feBlend mode="normal" in="SourceGraphic" in2="effect1_dropShadow_3911_68" result="shape"/>
</filter>
<filter id="filter1_d_3911_68" x="0.220495" y="10.75" width="42.5593" height="221.38" filterUnits="userSpaceOnUse" color-interpolation-filters="sRGB">
<feFlood flood-opacity="0" result="BackgroundImageFix"/>
<feColorMatrix in="SourceAlpha" type="matrix" values="0 0 0 0 0 0 0 0 0 0 0 0 0 0 0 0 0 0 127 0" result="hardAlpha"/>
<feOffset dy="5.35385"/>
<feGaussianBlur stdDeviation="2.67692"/>
<feComposite in2="hardAlpha" operator="out"/>
<feColorMatrix type="matrix" values="0 0 0 0 0 0 0 0 0 0 0 0 0 0 0 0 0 0 0.25 0"/>
<feBlend mode="normal" in2="BackgroundImageFix" result="effect1_dropShadow_3911_68"/>
<feBlend mode="normal" in="SourceGraphic" in2="effect1_dropShadow_3911_68" result="shape"/>
</filter>
</defs>
</svg>
