<!-- <svg width="44" height="270" viewBox="0 0 44 270" fill="none" xmlns="http://www.w3.org/2000/svg"> -->
<svg width="auto" height="auto" viewBox="0 0 44 270" fill="none" xmlns="http://www.w3.org/2000/svg">
<g filter="url(#filter0_d_3911_224)">
<mask id="path-1-outside-1_3911_224" maskUnits="userSpaceOnUse" x="6" y="9" width="33" height="251" fill="black">
<rect fill="white" x="6" y="9" width="33" height="251"/>
<path d="M32.1899 17.0781C32.1899 16.0234 32.0757 15.1885 31.8472 14.5732C31.6187 13.958 31.2407 13.4922 30.7134 13.1758C30.186 12.8594 29.4917 12.6572 28.6304 12.5693C27.7778 12.4814 26.7188 12.4375 25.4531 12.4375H19.5337C18.4087 12.4375 17.4595 12.4727 16.686 12.543C15.9214 12.6045 15.2886 12.7363 14.7876 12.9385C14.2866 13.1406 13.8999 13.4307 13.6274 13.8086C13.355 14.1865 13.1572 14.6875 13.0342 15.3115C12.9111 15.9355 12.8408 16.7046 12.8232 17.6187C12.8057 18.5239 12.7969 19.6094 12.7969 20.875C12.7969 22.1406 12.8057 23.2305 12.8232 24.1445C12.8496 25.0498 12.9243 25.8145 13.0474 26.4385C13.1704 27.0625 13.3638 27.5635 13.6274 27.9414C13.8999 28.3193 14.2866 28.6094 14.7876 28.8115C15.2886 29.0137 15.9214 29.1499 16.686 29.2202C17.4595 29.2817 18.4087 29.3125 19.5337 29.3125H25.4531C26.4375 29.3125 27.2856 29.2861 27.9976 29.2334C28.7095 29.1807 29.3159 29.084 29.8169 28.9434C30.3179 28.8027 30.7222 28.6094 31.0298 28.3633C31.3374 28.1172 31.5747 27.8096 31.7417 27.4404C31.9175 27.0625 32.0361 26.6143 32.0977 26.0957C32.1592 25.5684 32.1899 24.9531 32.1899 24.25H34.7212C34.7212 25.0938 34.6685 25.8584 34.563 26.5439C34.4575 27.2207 34.2686 27.8271 33.9961 28.3633C33.7324 28.8906 33.3765 29.3477 32.9282 29.7344C32.48 30.1211 31.9131 30.4419 31.2275 30.6968C30.542 30.9429 29.7246 31.123 28.7754 31.2373C27.8262 31.3604 26.7188 31.4219 25.4531 31.4219H19.5337C17.9868 31.4219 16.6816 31.3252 15.6182 31.1318C14.5635 30.9473 13.6934 30.666 13.0078 30.2881C12.3223 29.9014 11.7905 29.418 11.4126 28.8379C11.0435 28.2578 10.771 27.5767 10.5952 26.7944C10.4282 26.0122 10.3315 25.1289 10.3052 24.1445C10.2788 23.1602 10.2656 22.0703 10.2656 20.875C10.2656 19.6797 10.2788 18.5898 10.3052 17.6055C10.3315 16.6211 10.4282 15.7378 10.5952 14.9556C10.771 14.1733 11.0435 13.4922 11.4126 12.9121C11.7905 12.332 12.3223 11.853 13.0078 11.4751C13.6934 11.0884 14.5635 10.8027 15.6182 10.6182C16.6816 10.4248 17.9868 10.3281 19.5337 10.3281H25.4531C26.7188 10.3281 27.8262 10.3896 28.7754 10.5127C29.7246 10.627 30.542 10.8071 31.2275 11.0532C31.9131 11.2905 32.48 11.5938 32.9282 11.9629C33.3765 12.332 33.7324 12.7671 33.9961 13.2681C34.2686 13.769 34.4575 14.3359 34.563 14.9688C34.6685 15.6016 34.7212 16.3047 34.7212 17.0781H32.1899ZM26.3101 48.3281C27.8569 48.3281 29.1577 48.4248 30.2124 48.6182C31.2759 48.8027 32.1504 49.0884 32.8359 49.4751C33.5215 49.853 34.0488 50.332 34.418 50.9121C34.7871 51.4922 35.0552 52.1733 35.2222 52.9556C35.3979 53.7378 35.499 54.6211 35.5254 55.6055C35.5605 56.5898 35.5781 57.6797 35.5781 58.875C35.5781 60.0703 35.5605 61.1602 35.5254 62.1445C35.499 63.1289 35.3979 64.0122 35.2222 64.7944C35.0552 65.5767 34.7871 66.2578 34.418 66.8379C34.0488 67.418 33.5215 67.9014 32.8359 68.2881C32.1504 68.666 31.2759 68.9473 30.2124 69.1318C29.1577 69.3252 27.8569 69.4219 26.3101 69.4219H18.6899C17.1431 69.4219 15.8379 69.3252 14.7744 69.1318C13.7197 68.9473 12.8496 68.666 12.1641 68.2881C11.4785 67.9014 10.9468 67.418 10.5688 66.8379C10.1997 66.2578 9.92725 65.5767 9.75146 64.7944C9.58447 64.0122 9.48779 63.1289 9.46143 62.1445C9.43506 61.1602 9.42188 60.0703 9.42188 58.875C9.42188 57.6797 9.43506 56.5898 9.46143 55.6055C9.48779 54.6211 9.58447 53.7378 9.75146 52.9556C9.92725 52.1733 10.1997 51.4922 10.5688 50.9121C10.9468 50.332 11.4785 49.853 12.1641 49.4751C12.8496 49.0884 13.7197 48.8027 14.7744 48.6182C15.8379 48.4248 17.1431 48.3281 18.6899 48.3281H26.3101ZM26.3101 67.3125C27.4263 67.3125 28.3667 67.2817 29.1313 67.2202C29.9048 67.1499 30.542 67.0137 31.043 66.8115C31.5439 66.6094 31.9307 66.3193 32.2031 65.9414C32.4756 65.5635 32.6733 65.0625 32.7964 64.4385C32.9194 63.8145 32.9897 63.0498 33.0073 62.1445C33.0337 61.2305 33.0469 60.1406 33.0469 58.875C33.0469 57.6094 33.0337 56.5239 33.0073 55.6187C32.9897 54.7046 32.9194 53.9355 32.7964 53.3115C32.6733 52.6875 32.4756 52.1865 32.2031 51.8086C31.9307 51.4307 31.5439 51.1406 31.043 50.9385C30.5508 50.7363 29.918 50.6045 29.1445 50.543C28.3799 50.4727 27.4351 50.4375 26.3101 50.4375H18.6899C17.5649 50.4375 16.6157 50.4727 15.8423 50.543C15.0776 50.6045 14.4448 50.7363 13.9438 50.9385C13.4429 51.1406 13.0562 51.4307 12.7837 51.8086C12.5112 52.1865 12.3135 52.6875 12.1904 53.3115C12.0674 53.9355 11.9971 54.7046 11.9795 55.6187C11.9619 56.5239 11.9531 57.6094 11.9531 58.875C11.9531 60.1406 11.9619 61.2305 11.9795 62.1445C12.0059 63.0498 12.0806 63.8145 12.2036 64.4385C12.3267 65.0625 12.52 65.5635 12.7837 65.9414C13.0562 66.3193 13.4429 66.6094 13.9438 66.8115C14.4448 67.0137 15.0776 67.1499 15.8423 67.2202C16.6157 67.2817 17.5649 67.3125 18.6899 67.3125H26.3101ZM9.10547 88.4375V107H6.57422V86.75H10.793L22.5923 104.469L34.3916 86.75H38.4258V107H35.8945V88.7144L23.8711 107H21.3135L9.10547 88.4375ZM9.10547 126.438V145H6.57422V124.75H10.793L22.5923 142.469L34.3916 124.75H38.4258V145H35.8945V126.714L23.8711 145H21.3135L9.10547 126.438ZM12.2563 183H9.7251V162.75H14.168L32.7305 180.469V162.75H35.2617V183H31.8867L12.2563 164.859V183ZM13.2188 221V200.75H33.4688V202.859H15.75V209.609H32.625V211.719H15.75V218.891H33.4688V221H13.2188ZM33.8906 238.75V240.859H23.7656V259H21.2344V240.859H11.1094V238.75H33.8906Z"/>
</mask>
<path d="M32.1899 17.0781H31.6899V17.5781H32.1899V17.0781ZM31.8472 14.5732L32.3159 14.3991L31.8472 14.5732ZM28.6304 12.5693L28.5791 13.0667L28.5796 13.0668L28.6304 12.5693ZM16.686 12.543L16.7261 13.0414L16.7313 13.0409L16.686 12.543ZM12.8232 17.6187L13.3231 17.6284L13.3231 17.6283L12.8232 17.6187ZM12.8232 24.1445L12.3233 24.1541L12.3235 24.1591L12.8232 24.1445ZM13.6274 27.9414L13.2173 28.2275L13.2219 28.2338L13.6274 27.9414ZM16.686 29.2202L16.6402 29.7182L16.6464 29.7186L16.686 29.2202ZM31.7417 27.4404L31.2883 27.2296L31.2861 27.2343L31.7417 27.4404ZM32.0977 26.0957L32.5942 26.1546L32.5943 26.1536L32.0977 26.0957ZM32.1899 24.25V23.75H31.6899V24.25H32.1899ZM34.7212 24.25H35.2212V23.75H34.7212V24.25ZM34.563 26.5439L35.057 26.6209L35.0572 26.62L34.563 26.5439ZM33.9961 28.3633L33.5503 28.1368L33.5489 28.1397L33.9961 28.3633ZM31.2275 30.6968L31.3965 31.1674L31.4018 31.1654L31.2275 30.6968ZM28.7754 31.2373L28.7156 30.7409L28.7111 30.7415L28.7754 31.2373ZM15.6182 31.1318L15.7076 30.6399L15.7044 30.6393L15.6182 31.1318ZM13.0078 30.2881L12.7621 30.7236L12.7664 30.726L13.0078 30.2881ZM11.4126 28.8379L10.9907 29.1063L10.9937 29.1108L11.4126 28.8379ZM10.5952 26.7944L10.1062 26.8988L10.1074 26.9041L10.5952 26.7944ZM10.5952 14.9556L10.1074 14.8459L10.1062 14.8512L10.5952 14.9556ZM11.4126 12.9121L10.9936 12.6392L10.9908 12.6437L11.4126 12.9121ZM13.0078 11.4751L13.2492 11.913L13.2535 11.9106L13.0078 11.4751ZM15.6182 10.6182L15.7044 11.1107L15.7076 11.1101L15.6182 10.6182ZM28.7754 10.5127L28.7111 11.0086L28.7156 11.0091L28.7754 10.5127ZM31.2275 11.0532L31.0586 11.5239L31.064 11.5257L31.2275 11.0532ZM33.9961 13.2681L33.5536 13.501L33.5569 13.507L33.9961 13.2681ZM34.7212 17.0781V17.5781H35.2212V17.0781H34.7212ZM32.6899 17.0781C32.6899 15.9956 32.5738 15.0936 32.3159 14.3991L31.3785 14.7473C31.5776 15.2834 31.6899 16.0513 31.6899 17.0781H32.6899ZM32.3159 14.3991C32.0507 13.6852 31.6021 13.1259 30.9706 12.747L30.4561 13.6045C30.8793 13.8584 31.1866 14.2309 31.3785 14.7473L32.3159 14.3991ZM30.9706 12.747C30.3601 12.3807 29.5877 12.1644 28.6811 12.0719L28.5796 13.0668C29.3957 13.15 30.012 13.338 30.4561 13.6045L30.9706 12.747ZM28.6816 12.072C27.8061 11.9817 26.7286 11.9375 25.4531 11.9375V12.9375C26.7089 12.9375 27.7495 12.9812 28.5791 13.0667L28.6816 12.072ZM25.4531 11.9375H19.5337V12.9375H25.4531V11.9375ZM19.5337 11.9375C18.3996 11.9375 17.4343 11.9729 16.6408 12.045L16.7313 13.0409C17.4847 12.9724 18.4178 12.9375 19.5337 12.9375V11.9375ZM16.6459 12.0446C15.8502 12.1086 15.1636 12.2476 14.6005 12.4748L14.9747 13.4022C15.4136 13.2251 15.9926 13.1004 16.7261 13.0414L16.6459 12.0446ZM14.6005 12.4748C14.0262 12.7065 13.5579 13.0501 13.2219 13.5162L14.033 14.101C14.2419 13.8112 14.547 13.5747 14.9747 13.4022L14.6005 12.4748ZM13.2219 13.5162C12.8949 13.9697 12.6758 14.5445 12.5436 15.2148L13.5247 15.4083C13.6387 14.8305 13.815 14.4034 14.033 14.101L13.2219 13.5162ZM12.5436 15.2148C12.4131 15.877 12.3413 16.6772 12.3233 17.609L13.3231 17.6283C13.3404 16.732 13.4092 15.9941 13.5247 15.4083L12.5436 15.2148ZM12.3233 17.6089C12.3057 18.5184 12.2969 19.6073 12.2969 20.875H13.2969C13.2969 19.6114 13.3057 18.5294 13.3231 17.6284L12.3233 17.6089ZM12.2969 20.875C12.2969 22.1427 12.3057 23.2359 12.3233 24.1541L13.3231 24.1349C13.3057 23.225 13.2969 22.1385 13.2969 20.875H12.2969ZM12.3235 24.1591C12.3503 25.0814 12.4267 25.8754 12.5568 26.5352L13.5379 26.3417C13.4219 25.7535 13.3489 25.0182 13.323 24.13L12.3235 24.1591ZM12.5568 26.5352C12.6885 27.203 12.902 27.7755 13.2174 28.2275L14.0375 27.6553C13.8255 27.3515 13.6523 26.922 13.5379 26.3417L12.5568 26.5352ZM13.2219 28.2338C13.5579 28.6999 14.0262 29.0435 14.6005 29.2752L14.9747 28.3478C14.547 28.1753 14.2419 27.9388 14.033 27.649L13.2219 28.2338ZM14.6005 29.2752C15.1612 29.5015 15.8457 29.6451 16.6403 29.7181L16.7318 28.7223C15.997 28.6547 15.4159 28.5259 14.9747 28.3478L14.6005 29.2752ZM16.6464 29.7186C17.4374 29.7816 18.4008 29.8125 19.5337 29.8125V28.8125C18.4166 28.8125 17.4815 28.7819 16.7257 28.7218L16.6464 29.7186ZM19.5337 29.8125H25.4531V28.8125H19.5337V29.8125ZM25.4531 29.8125C26.4456 29.8125 27.3067 29.7859 28.0345 29.732L27.9606 28.7348C27.2646 28.7863 26.4294 28.8125 25.4531 28.8125V29.8125ZM28.0345 29.732C28.7683 29.6777 29.4096 29.577 29.952 29.4248L29.6818 28.462C29.2222 28.591 28.6506 28.6837 27.9606 28.7348L28.0345 29.732ZM29.952 29.4248C30.4979 29.2715 30.9682 29.0528 31.3421 28.7537L30.7174 27.9728C30.4761 28.1659 30.1378 28.3339 29.6818 28.462L29.952 29.4248ZM31.3421 28.7537C31.7132 28.4569 31.9987 28.0854 32.1973 27.6465L31.2861 27.2343C31.1507 27.5337 30.9617 27.7775 30.7174 27.9728L31.3421 28.7537ZM32.1951 27.6513C32.398 27.2149 32.5279 26.7131 32.5942 26.1546L31.6011 26.0368C31.5444 26.5154 31.4369 26.9101 31.2883 27.2296L32.1951 27.6513ZM32.5943 26.1536C32.6586 25.6021 32.6899 24.9667 32.6899 24.25H31.6899C31.6899 24.9396 31.6597 25.5347 31.601 26.0378L32.5943 26.1536ZM32.1899 24.75H34.7212V23.75H32.1899V24.75ZM34.2212 24.25C34.2212 25.0735 34.1697 25.8122 34.0688 26.4679L35.0572 26.62C35.1672 25.9046 35.2212 25.114 35.2212 24.25H34.2212ZM34.069 26.467C33.9705 27.0987 33.7959 27.6536 33.5504 28.1368L34.4418 28.5898C34.7412 28.0007 34.9445 27.3427 35.057 26.6209L34.069 26.467ZM33.5489 28.1397C33.3149 28.6076 33 29.0121 32.6016 29.3558L33.2548 30.113C33.7529 29.6832 34.15 29.1736 34.4433 28.5869L33.5489 28.1397ZM32.6016 29.3558C32.2076 29.6957 31.6958 29.9893 31.0533 30.2281L31.4018 31.1654C32.1304 30.8945 32.7524 30.5465 33.2548 30.113L32.6016 29.3558ZM31.0586 30.2262C30.4174 30.4564 29.6385 30.6298 28.7156 30.7409L28.8351 31.7337C29.8108 31.6163 30.6666 31.4294 31.3965 31.1674L31.0586 30.2262ZM28.7111 30.7415C27.7887 30.861 26.7037 30.9219 25.4531 30.9219V31.9219C26.7338 31.9219 27.8636 31.8597 28.8397 31.7332L28.7111 30.7415ZM25.4531 30.9219H19.5337V31.9219H25.4531V30.9219ZM19.5337 30.9219C18.0052 30.9219 16.732 30.8261 15.7076 30.6399L15.5287 31.6238C16.6313 31.8242 17.9685 31.9219 19.5337 31.9219V30.9219ZM15.7044 30.6393C14.6855 30.461 13.8722 30.1937 13.2492 29.8502L12.7664 30.726C13.5145 31.1383 14.4415 31.4335 15.532 31.6244L15.7044 30.6393ZM13.2535 29.8526C12.6282 29.4999 12.1599 29.069 11.8315 28.565L10.9937 29.1108C11.4211 29.7669 12.0163 30.3028 12.7622 30.7236L13.2535 29.8526ZM11.8344 28.5695C11.501 28.0454 11.2482 27.4199 11.083 26.6848L10.1074 26.9041C10.2938 27.7335 10.5859 28.4702 10.9908 29.1063L11.8344 28.5695ZM11.0842 26.69C10.9249 25.9437 10.8307 25.0916 10.805 24.1311L9.80536 24.1579C9.83236 25.1662 9.93159 26.0807 10.1062 26.8988L11.0842 26.69ZM10.805 24.1311C10.7788 23.1521 10.7656 22.0668 10.7656 20.875H9.76562C9.76562 22.0739 9.77885 23.1683 9.80536 24.1579L10.805 24.1311ZM10.7656 20.875C10.7656 19.6832 10.7788 18.5979 10.805 17.6189L9.80536 17.5921C9.77885 18.5817 9.76562 19.6761 9.76562 20.875H10.7656ZM10.805 17.6189C10.8307 16.6584 10.9249 15.8063 11.0842 15.06L10.1062 14.8512C9.93159 15.6693 9.83236 16.5838 9.80536 17.5921L10.805 17.6189ZM11.083 15.0652C11.2482 14.3301 11.501 13.7046 11.8344 13.1805L10.9908 12.6437C10.5859 13.2798 10.2938 14.0165 10.1074 14.8459L11.083 15.0652ZM11.8315 13.185C12.1591 12.6822 12.626 12.2565 13.2492 11.913L12.7664 11.0372C12.0186 11.4495 11.4219 11.9818 10.9937 12.6392L11.8315 13.185ZM13.2535 11.9106C13.8752 11.5599 14.6869 11.2887 15.7044 11.1107L15.532 10.1256C14.4401 10.3167 13.5115 10.6169 12.7622 11.0396L13.2535 11.9106ZM15.7076 11.1101C16.732 10.9239 18.0052 10.8281 19.5337 10.8281V9.82812C17.9685 9.82812 16.6313 9.92576 15.5287 10.1262L15.7076 11.1101ZM19.5337 10.8281H25.4531V9.82812H19.5337V10.8281ZM25.4531 10.8281C26.7037 10.8281 27.7887 10.889 28.7111 11.0085L28.8397 10.0168C27.8636 9.89032 26.7338 9.82812 25.4531 9.82812V10.8281ZM28.7156 11.0091C29.6385 11.1202 30.4174 11.2936 31.0586 11.5238L31.3965 10.5826C30.6666 10.3206 29.8108 10.1337 28.8351 10.0163L28.7156 11.0091ZM31.064 11.5257C31.7068 11.7482 32.2178 12.0256 32.6104 12.3489L33.2461 11.5769C32.7421 11.1619 32.1194 10.8328 31.3911 10.5807L31.064 11.5257ZM32.6104 12.3489C33.0087 12.6769 33.3217 13.0603 33.5536 13.5009L34.4386 13.0352C34.1431 12.4739 33.7443 11.9872 33.2461 11.5769L32.6104 12.3489ZM33.5569 13.507C33.7996 13.9534 33.9723 14.4662 34.0698 15.0509L35.0562 14.8866C34.9427 14.2057 34.7375 13.5847 34.4353 13.0292L33.5569 13.507ZM34.0698 15.0509C34.1699 15.6517 34.2212 16.3268 34.2212 17.0781H35.2212C35.2212 16.2825 35.167 15.5514 35.0562 14.8866L34.0698 15.0509ZM34.7212 16.5781H32.1899V17.5781H34.7212V16.5781ZM30.2124 48.6182L30.1222 49.11L30.1269 49.1108L30.2124 48.6182ZM32.8359 49.4751L32.5903 49.9106L32.5945 49.913L32.8359 49.4751ZM35.2222 52.9556L34.7332 53.06L34.7343 53.0652L35.2222 52.9556ZM35.5254 55.6055L35.0256 55.6189L35.0257 55.6233L35.5254 55.6055ZM35.5254 62.1445L35.0257 62.1267L35.0256 62.1311L35.5254 62.1445ZM35.2222 64.7944L34.7343 64.6848L34.7332 64.69L35.2222 64.7944ZM32.8359 68.2881L33.0773 68.726L33.0816 68.7236L32.8359 68.2881ZM30.2124 69.1318L30.1269 68.6392L30.1222 68.64L30.2124 69.1318ZM14.7744 69.1318L14.8639 68.6399L14.8606 68.6393L14.7744 69.1318ZM12.1641 68.2881L11.9184 68.7236L11.9227 68.726L12.1641 68.2881ZM10.5688 66.8379L10.147 67.1063L10.1499 67.1108L10.5688 66.8379ZM9.75146 64.7944L9.26246 64.8988L9.26363 64.9041L9.75146 64.7944ZM9.75146 52.9556L9.2636 52.8459L9.26248 52.8512L9.75146 52.9556ZM10.5688 50.9121L10.1499 50.6392L10.147 50.6437L10.5688 50.9121ZM12.1641 49.4751L12.4055 49.913L12.4097 49.9106L12.1641 49.4751ZM14.7744 48.6182L14.8606 49.1107L14.8639 49.1101L14.7744 48.6182ZM29.1313 67.2202L29.1715 67.7186L29.1766 67.7182L29.1313 67.2202ZM33.0073 62.1445L32.5075 62.1301L32.5074 62.1348L33.0073 62.1445ZM33.0073 55.6187L32.5074 55.6283L32.5075 55.6332L33.0073 55.6187ZM32.7964 53.3115L32.3058 53.4083L32.7964 53.3115ZM31.043 50.9385L30.853 51.401L30.8559 51.4022L31.043 50.9385ZM29.1445 50.543L29.0987 51.0409L29.1049 51.0414L29.1445 50.543ZM15.8423 50.543L15.8824 51.0414L15.8876 51.0409L15.8423 50.543ZM11.9795 55.6187L12.4794 55.6284L12.4794 55.6283L11.9795 55.6187ZM11.9795 62.1445L11.4796 62.1541L11.4797 62.1591L11.9795 62.1445ZM12.7837 65.9414L12.3736 66.2275L12.3781 66.2338L12.7837 65.9414ZM15.8423 67.2202L15.7965 67.7182L15.8026 67.7186L15.8423 67.2202ZM26.3101 48.8281C27.8387 48.8281 29.1072 48.9239 30.1222 49.11L30.3026 48.1264C29.2083 47.9257 27.8751 47.8281 26.3101 47.8281V48.8281ZM30.1269 49.1108C31.1535 49.289 31.9691 49.5602 32.5903 49.9106L33.0816 49.0396C32.3316 48.6166 31.3982 48.3165 30.2979 48.1255L30.1269 49.1108ZM32.5945 49.913C33.217 50.2561 33.6779 50.6805 33.9961 51.1805L34.8398 50.6437C34.4197 49.9836 33.826 49.4499 33.0773 49.0372L32.5945 49.913ZM33.9961 51.1805C34.3285 51.7029 34.5766 52.3266 34.7332 53.06L35.7111 52.8512C35.5337 52.0201 35.2457 51.2815 34.8398 50.6437L33.9961 51.1805ZM34.7343 53.0652C34.9016 53.8096 34.9999 54.6598 35.0256 55.6189L36.0252 55.5921C35.9982 54.5823 35.8943 53.666 35.71 52.8459L34.7343 53.0652ZM35.0257 55.6233C35.0606 56.6007 35.0781 57.6844 35.0781 58.875H36.0781C36.0781 57.6749 36.0605 56.579 36.0251 55.5876L35.0257 55.6233ZM35.0781 58.875C35.0781 60.0656 35.0606 61.1493 35.0257 62.1267L36.0251 62.1624C36.0605 61.171 36.0781 60.0751 36.0781 58.875H35.0781ZM35.0256 62.1311C34.9999 63.0902 34.9016 63.9404 34.7343 64.6848L35.71 64.9041C35.8943 64.084 35.9982 63.1677 36.0252 62.1579L35.0256 62.1311ZM34.7332 64.69C34.5766 65.4234 34.3285 66.0471 33.9961 66.5695L34.8398 67.1063C35.2457 66.4685 35.5337 65.7299 35.7111 64.8988L34.7332 64.69ZM33.9961 66.5695C33.6771 67.0708 33.2147 67.5003 32.5903 67.8526L33.0816 68.7236C33.8283 68.3024 34.4205 67.7652 34.8398 67.1063L33.9961 66.5695ZM32.5945 67.8502C31.9721 68.1934 31.1549 68.4608 30.1269 68.6392L30.2979 69.6245C31.3968 69.4337 32.3287 69.1387 33.0773 68.726L32.5945 67.8502ZM30.1222 68.64C29.1072 68.8261 27.8387 68.9219 26.3101 68.9219V69.9219C27.8751 69.9219 29.2083 69.8243 30.3026 69.6236L30.1222 68.64ZM26.3101 68.9219H18.6899V69.9219H26.3101V68.9219ZM18.6899 68.9219C17.1614 68.9219 15.8882 68.8261 14.8639 68.6399L14.685 69.6238C15.7876 69.8242 17.1247 69.9219 18.6899 69.9219V68.9219ZM14.8606 68.6393C13.8417 68.461 13.0285 68.1937 12.4055 67.8502L11.9227 68.726C12.6707 69.1383 13.5977 69.4335 14.6882 69.6244L14.8606 68.6393ZM12.4097 67.8526C11.7845 67.4999 11.3162 67.069 10.9878 66.565L10.1499 67.1108C10.5774 67.7669 11.1725 68.3028 11.9184 68.7236L12.4097 67.8526ZM10.9907 66.5695C10.6572 66.0454 10.4045 65.4199 10.2393 64.6848L9.26363 64.9041C9.45001 65.7335 9.74219 66.4702 10.147 67.1063L10.9907 66.5695ZM10.2404 64.69C10.0811 63.9437 9.98697 63.0916 9.96125 62.1311L8.96161 62.1579C8.98861 63.1662 9.08784 64.0807 9.26248 64.8988L10.2404 64.69ZM9.96125 62.1311C9.93502 61.1521 9.92188 60.0668 9.92188 58.875H8.92188C8.92188 60.0739 8.9351 61.1683 8.96161 62.1579L9.96125 62.1311ZM9.92188 58.875C9.92188 57.6832 9.93502 56.5979 9.96125 55.6189L8.96161 55.5921C8.9351 56.5817 8.92188 57.6761 8.92188 58.875H9.92188ZM9.96125 55.6189C9.98697 54.6584 10.0811 53.8063 10.2404 53.06L9.26248 52.8512C9.08784 53.6693 8.98861 54.5838 8.96161 55.5921L9.96125 55.6189ZM10.2393 53.0652C10.4045 52.3301 10.6572 51.7046 10.9907 51.1805L10.147 50.6437C9.74219 51.2798 9.45001 52.0165 9.26363 52.8459L10.2393 53.0652ZM10.9878 51.185C11.3154 50.6822 11.7822 50.2565 12.4055 49.913L11.9227 49.0372C11.1748 49.4495 10.5782 49.9818 10.1499 50.6392L10.9878 51.185ZM12.4097 49.9106C13.0315 49.5599 13.8431 49.2887 14.8606 49.1107L14.6882 48.1256C13.5963 48.3167 12.6677 48.6169 11.9184 49.0396L12.4097 49.9106ZM14.8639 49.1101C15.8882 48.9239 17.1614 48.8281 18.6899 48.8281V47.8281C17.1247 47.8281 15.7876 47.9258 14.685 48.1262L14.8639 49.1101ZM18.6899 48.8281H26.3101V47.8281H18.6899V48.8281ZM26.3101 67.8125C27.4342 67.8125 28.389 67.7816 29.1714 67.7186L29.0912 66.7218C28.3444 66.7819 27.4183 66.8125 26.3101 66.8125V67.8125ZM29.1766 67.7182C29.9794 67.6452 30.6687 67.5017 31.2301 67.2752L30.8559 66.3478C30.4153 66.5256 29.8302 66.6546 29.0861 66.7223L29.1766 67.7182ZM31.2301 67.2752C31.8043 67.0435 32.2727 66.6999 32.6087 66.2338L31.7975 65.649C31.5886 65.9388 31.2836 66.1753 30.8559 66.3478L31.2301 67.2752ZM32.6087 66.2338C32.9356 65.7803 33.1548 65.2055 33.2869 64.5352L32.3058 64.3417C32.1919 64.9195 32.0155 65.3466 31.7975 65.649L32.6087 66.2338ZM33.2869 64.5352C33.4175 63.8733 33.4893 63.0776 33.5072 62.1542L32.5074 62.1348C32.4902 63.022 32.4214 63.7556 32.3058 64.3417L33.2869 64.5352ZM33.5071 62.1589C33.5337 61.2387 33.5469 60.1438 33.5469 58.875H32.5469C32.5469 60.1375 32.5337 61.2223 32.5075 62.1301L33.5071 62.1589ZM33.5469 58.875C33.5469 57.6063 33.5337 56.5157 33.5071 55.6041L32.5075 55.6332C32.5337 56.5322 32.5469 57.6125 32.5469 58.875H33.5469ZM33.5072 55.609C33.4893 54.6772 33.4175 53.877 33.2869 53.2148L32.3058 53.4083C32.4214 53.9941 32.4902 54.732 32.5074 55.6283L33.5072 55.609ZM33.2869 53.2148C33.1548 52.5445 32.9356 51.9697 32.6087 51.5162L31.7975 52.101C32.0155 52.4034 32.1919 52.8305 32.3058 53.4083L33.2869 53.2148ZM32.6087 51.5162C32.2727 51.0501 31.8043 50.7065 31.2301 50.4748L30.8559 51.4022C31.2836 51.5747 31.5886 51.8112 31.7975 52.101L32.6087 51.5162ZM31.2329 50.476C30.6763 50.2474 29.9878 50.1085 29.1842 50.0445L29.1049 51.0414C29.8481 51.1005 30.4253 51.2253 30.853 51.401L31.2329 50.476ZM29.1903 50.0451C28.4052 49.9729 27.444 49.9375 26.3101 49.9375V50.9375C27.4261 50.9375 28.3545 50.9724 29.0987 51.0409L29.1903 50.0451ZM26.3101 49.9375H18.6899V50.9375H26.3101V49.9375ZM18.6899 49.9375C17.5559 49.9375 16.5905 49.9729 15.797 50.045L15.8876 51.0409C16.6409 50.9724 17.574 50.9375 18.6899 50.9375V49.9375ZM15.8022 50.0446C15.0064 50.1086 14.3198 50.2476 13.7568 50.4748L14.1309 51.4022C14.5698 51.2251 15.1488 51.1004 15.8824 51.0414L15.8022 50.0446ZM13.7568 50.4748C13.1825 50.7065 12.7141 51.0501 12.3781 51.5162L13.1893 52.101C13.3982 51.8112 13.7033 51.5747 14.1309 51.4022L13.7568 50.4748ZM12.3781 51.5162C12.0512 51.9697 11.832 52.5445 11.6999 53.2148L12.681 53.4083C12.7949 52.8305 12.9713 52.4034 13.1893 52.101L12.3781 51.5162ZM11.6999 53.2148C11.5693 53.877 11.4975 54.6772 11.4796 55.609L12.4794 55.6283C12.4966 54.732 12.5655 53.9941 12.681 53.4083L11.6999 53.2148ZM11.4796 55.6089C11.4619 56.5184 11.4531 57.6073 11.4531 58.875H12.4531C12.4531 57.6114 12.4619 56.5294 12.4794 55.6284L11.4796 55.6089ZM11.4531 58.875C11.4531 60.1427 11.4619 61.2359 11.4796 62.1541L12.4794 62.1349C12.4619 61.225 12.4531 60.1385 12.4531 58.875H11.4531ZM11.4797 62.1591C11.5066 63.0814 11.583 63.8754 11.7131 64.5352L12.6942 64.3417C12.5782 63.7535 12.5052 63.0182 12.4793 62.13L11.4797 62.1591ZM11.7131 64.5352C11.8447 65.203 12.0582 65.7755 12.3736 66.2275L13.1938 65.6553C12.9818 65.3515 12.8086 64.922 12.6942 64.3417L11.7131 64.5352ZM12.3781 66.2338C12.7141 66.6999 13.1825 67.0435 13.7568 67.2752L14.1309 66.3478C13.7033 66.1753 13.3982 65.9388 13.1893 65.649L12.3781 66.2338ZM13.7568 67.2752C14.3175 67.5015 15.002 67.6451 15.7965 67.7181L15.8881 66.7223C15.1533 66.6547 14.5721 66.5259 14.1309 66.3478L13.7568 67.2752ZM15.8026 67.7186C16.5937 67.7816 17.557 67.8125 18.6899 67.8125V66.8125C17.5729 66.8125 16.6378 66.7819 15.8819 66.7218L15.8026 67.7186ZM18.6899 67.8125H26.3101V66.8125H18.6899V67.8125ZM9.10547 88.4375L9.52322 88.1628L8.60547 86.7673V88.4375H9.10547ZM9.10547 107V107.5H9.60547V107H9.10547ZM6.57422 107H6.07422V107.5H6.57422V107ZM6.57422 86.75V86.25H6.07422V86.75H6.57422ZM10.793 86.75L11.2091 86.4729L11.0607 86.25H10.793V86.75ZM22.5923 104.469L22.1761 104.746L22.5923 105.371L23.0085 104.746L22.5923 104.469ZM34.3916 86.75V86.25H34.1238L33.9754 86.4729L34.3916 86.75ZM38.4258 86.75H38.9258V86.25H38.4258V86.75ZM38.4258 107V107.5H38.9258V107H38.4258ZM35.8945 107H35.3945V107.5H35.8945V107ZM35.8945 88.7144H36.3945V87.0439L35.4768 88.4397L35.8945 88.7144ZM23.8711 107V107.5H24.1407L24.2889 107.275L23.8711 107ZM21.3135 107L20.8957 107.275L21.0439 107.5H21.3135V107ZM8.60547 88.4375V107H9.60547V88.4375H8.60547ZM9.10547 106.5H6.57422V107.5H9.10547V106.5ZM7.07422 107V86.75H6.07422V107H7.07422ZM6.57422 87.25H10.793V86.25H6.57422V87.25ZM10.3768 87.0271L22.1761 104.746L23.0085 104.192L11.2091 86.4729L10.3768 87.0271ZM23.0085 104.746L34.8078 87.0271L33.9754 86.4729L22.1761 104.192L23.0085 104.746ZM34.3916 87.25H38.4258V86.25H34.3916V87.25ZM37.9258 86.75V107H38.9258V86.75H37.9258ZM38.4258 106.5H35.8945V107.5H38.4258V106.5ZM36.3945 107V88.7144H35.3945V107H36.3945ZM35.4768 88.4397L23.4533 106.725L24.2889 107.275L36.3123 88.9891L35.4768 88.4397ZM23.8711 106.5H21.3135V107.5H23.8711V106.5ZM21.7312 106.725L9.52322 88.1628L8.68772 88.7122L20.8957 107.275L21.7312 106.725ZM9.10547 126.438L9.52322 126.163L8.60547 124.767V126.438H9.10547ZM9.10547 145V145.5H9.60547V145H9.10547ZM6.57422 145H6.07422V145.5H6.57422V145ZM6.57422 124.75V124.25H6.07422V124.75H6.57422ZM10.793 124.75L11.2091 124.473L11.0607 124.25H10.793V124.75ZM22.5923 142.469L22.1761 142.746L22.5923 143.371L23.0085 142.746L22.5923 142.469ZM34.3916 124.75V124.25H34.1238L33.9754 124.473L34.3916 124.75ZM38.4258 124.75H38.9258V124.25H38.4258V124.75ZM38.4258 145V145.5H38.9258V145H38.4258ZM35.8945 145H35.3945V145.5H35.8945V145ZM35.8945 126.714H36.3945V125.044L35.4768 126.44L35.8945 126.714ZM23.8711 145V145.5H24.1407L24.2889 145.275L23.8711 145ZM21.3135 145L20.8957 145.275L21.0439 145.5H21.3135V145ZM8.60547 126.438V145H9.60547V126.438H8.60547ZM9.10547 144.5H6.57422V145.5H9.10547V144.5ZM7.07422 145V124.75H6.07422V145H7.07422ZM6.57422 125.25H10.793V124.25H6.57422V125.25ZM10.3768 125.027L22.1761 142.746L23.0085 142.192L11.2091 124.473L10.3768 125.027ZM23.0085 142.746L34.8078 125.027L33.9754 124.473L22.1761 142.192L23.0085 142.746ZM34.3916 125.25H38.4258V124.25H34.3916V125.25ZM37.9258 124.75V145H38.9258V124.75H37.9258ZM38.4258 144.5H35.8945V145.5H38.4258V144.5ZM36.3945 145V126.714H35.3945V145H36.3945ZM35.4768 126.44L23.4533 144.725L24.2889 145.275L36.3123 126.989L35.4768 126.44ZM23.8711 144.5H21.3135V145.5H23.8711V144.5ZM21.7312 144.725L9.52322 126.163L8.68772 126.712L20.8957 145.275L21.7312 144.725ZM12.2563 183V183.5H12.7563V183H12.2563ZM9.7251 183H9.2251V183.5H9.7251V183ZM9.7251 162.75V162.25H9.2251V162.75H9.7251ZM14.168 162.75L14.5132 162.388L14.3683 162.25H14.168V162.75ZM32.7305 180.469L32.3852 180.83L33.2305 181.637V180.469H32.7305ZM32.7305 162.75V162.25H32.2305V162.75H32.7305ZM35.2617 162.75H35.7617V162.25H35.2617V162.75ZM35.2617 183V183.5H35.7617V183H35.2617ZM31.8867 183L31.5474 183.367L31.6911 183.5H31.8867V183ZM12.2563 164.859L12.5957 164.492L11.7563 163.717V164.859H12.2563ZM12.2563 182.5H9.7251V183.5H12.2563V182.5ZM10.2251 183V162.75H9.2251V183H10.2251ZM9.7251 163.25H14.168V162.25H9.7251V163.25ZM13.8227 163.112L32.3852 180.83L33.0757 180.107L14.5132 162.388L13.8227 163.112ZM33.2305 180.469V162.75H32.2305V180.469H33.2305ZM32.7305 163.25H35.2617V162.25H32.7305V163.25ZM34.7617 162.75V183H35.7617V162.75H34.7617ZM35.2617 182.5H31.8867V183.5H35.2617V182.5ZM32.2261 182.633L12.5957 164.492L11.917 165.227L31.5474 183.367L32.2261 182.633ZM11.7563 164.859V183H12.7563V164.859H11.7563ZM13.2188 221H12.7188V221.5H13.2188V221ZM13.2188 200.75V200.25H12.7188V200.75H13.2188ZM33.4688 200.75H33.9688V200.25H33.4688V200.75ZM33.4688 202.859V203.359H33.9688V202.859H33.4688ZM15.75 202.859V202.359H15.25V202.859H15.75ZM15.75 209.609H15.25V210.109H15.75V209.609ZM32.625 209.609H33.125V209.109H32.625V209.609ZM32.625 211.719V212.219H33.125V211.719H32.625ZM15.75 211.719V211.219H15.25V211.719H15.75ZM15.75 218.891H15.25V219.391H15.75V218.891ZM33.4688 218.891H33.9688V218.391H33.4688V218.891ZM33.4688 221V221.5H33.9688V221H33.4688ZM13.7188 221V200.75H12.7188V221H13.7188ZM13.2188 201.25H33.4688V200.25H13.2188V201.25ZM32.9688 200.75V202.859H33.9688V200.75H32.9688ZM33.4688 202.359H15.75V203.359H33.4688V202.359ZM15.25 202.859V209.609H16.25V202.859H15.25ZM15.75 210.109H32.625V209.109H15.75V210.109ZM32.125 209.609V211.719H33.125V209.609H32.125ZM32.625 211.219H15.75V212.219H32.625V211.219ZM15.25 211.719V218.891H16.25V211.719H15.25ZM15.75 219.391H33.4688V218.391H15.75V219.391ZM32.9688 218.891V221H33.9688V218.891H32.9688ZM33.4688 220.5H13.2188V221.5H33.4688V220.5ZM33.8906 238.75H34.3906V238.25H33.8906V238.75ZM33.8906 240.859V241.359H34.3906V240.859H33.8906ZM23.7656 240.859V240.359H23.2656V240.859H23.7656ZM23.7656 259V259.5H24.2656V259H23.7656ZM21.2344 259H20.7344V259.5H21.2344V259ZM21.2344 240.859H21.7344V240.359H21.2344V240.859ZM11.1094 240.859H10.6094V241.359H11.1094V240.859ZM11.1094 238.75V238.25H10.6094V238.75H11.1094ZM33.3906 238.75V240.859H34.3906V238.75H33.3906ZM33.8906 240.359H23.7656V241.359H33.8906V240.359ZM23.2656 240.859V259H24.2656V240.859H23.2656ZM23.7656 258.5H21.2344V259.5H23.7656V258.5ZM21.7344 259V240.859H20.7344V259H21.7344ZM21.2344 240.359H11.1094V241.359H21.2344V240.359ZM11.6094 240.859V238.75H10.6094V240.859H11.6094ZM11.1094 239.25H33.8906V238.25H11.1094V239.25Z" fill="black" mask="url(#path-1-outside-1_3911_224)"/>
</g>
<g filter="url(#filter1_d_3911_224)">
<path d="M31.1899 17.0781C31.1899 16.0234 31.0757 15.1885 30.8472 14.5732C30.6187 13.958 30.2407 13.4922 29.7134 13.1758C29.186 12.8594 28.4917 12.6572 27.6304 12.5693C26.7778 12.4814 25.7188 12.4375 24.4531 12.4375H18.5337C17.4087 12.4375 16.4595 12.4727 15.686 12.543C14.9214 12.6045 14.2886 12.7363 13.7876 12.9385C13.2866 13.1406 12.8999 13.4307 12.6274 13.8086C12.355 14.1865 12.1572 14.6875 12.0342 15.3115C11.9111 15.9355 11.8408 16.7046 11.8232 17.6187C11.8057 18.5239 11.7969 19.6094 11.7969 20.875C11.7969 22.1406 11.8057 23.2305 11.8232 24.1445C11.8496 25.0498 11.9243 25.8145 12.0474 26.4385C12.1704 27.0625 12.3638 27.5635 12.6274 27.9414C12.8999 28.3193 13.2866 28.6094 13.7876 28.8115C14.2886 29.0137 14.9214 29.1499 15.686 29.2202C16.4595 29.2817 17.4087 29.3125 18.5337 29.3125H24.4531C25.4375 29.3125 26.2856 29.2861 26.9976 29.2334C27.7095 29.1807 28.3159 29.084 28.8169 28.9434C29.3179 28.8027 29.7222 28.6094 30.0298 28.3633C30.3374 28.1172 30.5747 27.8096 30.7417 27.4404C30.9175 27.0625 31.0361 26.6143 31.0977 26.0957C31.1592 25.5684 31.1899 24.9531 31.1899 24.25H33.7212C33.7212 25.0938 33.6685 25.8584 33.563 26.5439C33.4575 27.2207 33.2686 27.8271 32.9961 28.3633C32.7324 28.8906 32.3765 29.3477 31.9282 29.7344C31.48 30.1211 30.9131 30.4419 30.2275 30.6968C29.542 30.9429 28.7246 31.123 27.7754 31.2373C26.8262 31.3604 25.7188 31.4219 24.4531 31.4219H18.5337C16.9868 31.4219 15.6816 31.3252 14.6182 31.1318C13.5635 30.9473 12.6934 30.666 12.0078 30.2881C11.3223 29.9014 10.7905 29.418 10.4126 28.8379C10.0435 28.2578 9.771 27.5767 9.59521 26.7944C9.42822 26.0122 9.33154 25.1289 9.30518 24.1445C9.27881 23.1602 9.26562 22.0703 9.26562 20.875C9.26562 19.6797 9.27881 18.5898 9.30518 17.6055C9.33154 16.6211 9.42822 15.7378 9.59521 14.9556C9.771 14.1733 10.0435 13.4922 10.4126 12.9121C10.7905 12.332 11.3223 11.853 12.0078 11.4751C12.6934 11.0884 13.5635 10.8027 14.6182 10.6182C15.6816 10.4248 16.9868 10.3281 18.5337 10.3281H24.4531C25.7188 10.3281 26.8262 10.3896 27.7754 10.5127C28.7246 10.627 29.542 10.8071 30.2275 11.0532C30.9131 11.2905 31.48 11.5938 31.9282 11.9629C32.3765 12.332 32.7324 12.7671 32.9961 13.2681C33.2686 13.769 33.4575 14.3359 33.563 14.9688C33.6685 15.6016 33.7212 16.3047 33.7212 17.0781H31.1899ZM25.3101 48.3281C26.8569 48.3281 28.1577 48.4248 29.2124 48.6182C30.2759 48.8027 31.1504 49.0884 31.8359 49.4751C32.5215 49.853 33.0488 50.332 33.418 50.9121C33.7871 51.4922 34.0552 52.1733 34.2222 52.9556C34.3979 53.7378 34.499 54.6211 34.5254 55.6055C34.5605 56.5898 34.5781 57.6797 34.5781 58.875C34.5781 60.0703 34.5605 61.1602 34.5254 62.1445C34.499 63.1289 34.3979 64.0122 34.2222 64.7944C34.0552 65.5767 33.7871 66.2578 33.418 66.8379C33.0488 67.418 32.5215 67.9014 31.8359 68.2881C31.1504 68.666 30.2759 68.9473 29.2124 69.1318C28.1577 69.3252 26.8569 69.4219 25.3101 69.4219H17.6899C16.1431 69.4219 14.8379 69.3252 13.7744 69.1318C12.7197 68.9473 11.8496 68.666 11.1641 68.2881C10.4785 67.9014 9.94678 67.418 9.56885 66.8379C9.19971 66.2578 8.92725 65.5767 8.75146 64.7944C8.58447 64.0122 8.48779 63.1289 8.46143 62.1445C8.43506 61.1602 8.42188 60.0703 8.42188 58.875C8.42188 57.6797 8.43506 56.5898 8.46143 55.6055C8.48779 54.6211 8.58447 53.7378 8.75146 52.9556C8.92725 52.1733 9.19971 51.4922 9.56885 50.9121C9.94678 50.332 10.4785 49.853 11.1641 49.4751C11.8496 49.0884 12.7197 48.8027 13.7744 48.6182C14.8379 48.4248 16.1431 48.3281 17.6899 48.3281H25.3101ZM25.3101 67.3125C26.4263 67.3125 27.3667 67.2817 28.1313 67.2202C28.9048 67.1499 29.542 67.0137 30.043 66.8115C30.5439 66.6094 30.9307 66.3193 31.2031 65.9414C31.4756 65.5635 31.6733 65.0625 31.7964 64.4385C31.9194 63.8145 31.9897 63.0498 32.0073 62.1445C32.0337 61.2305 32.0469 60.1406 32.0469 58.875C32.0469 57.6094 32.0337 56.5239 32.0073 55.6187C31.9897 54.7046 31.9194 53.9355 31.7964 53.3115C31.6733 52.6875 31.4756 52.1865 31.2031 51.8086C30.9307 51.4307 30.5439 51.1406 30.043 50.9385C29.5508 50.7363 28.918 50.6045 28.1445 50.543C27.3799 50.4727 26.4351 50.4375 25.3101 50.4375H17.6899C16.5649 50.4375 15.6157 50.4727 14.8423 50.543C14.0776 50.6045 13.4448 50.7363 12.9438 50.9385C12.4429 51.1406 12.0562 51.4307 11.7837 51.8086C11.5112 52.1865 11.3135 52.6875 11.1904 53.3115C11.0674 53.9355 10.9971 54.7046 10.9795 55.6187C10.9619 56.5239 10.9531 57.6094 10.9531 58.875C10.9531 60.1406 10.9619 61.2305 10.9795 62.1445C11.0059 63.0498 11.0806 63.8145 11.2036 64.4385C11.3267 65.0625 11.52 65.5635 11.7837 65.9414C12.0562 66.3193 12.4429 66.6094 12.9438 66.8115C13.4448 67.0137 14.0776 67.1499 14.8423 67.2202C15.6157 67.2817 16.5649 67.3125 17.6899 67.3125H25.3101ZM8.10547 88.4375V107H5.57422V86.75H9.79297L21.5923 104.469L33.3916 86.75H37.4258V107H34.8945V88.7144L22.8711 107H20.3135L8.10547 88.4375ZM8.10547 126.438V145H5.57422V124.75H9.79297L21.5923 142.469L33.3916 124.75H37.4258V145H34.8945V126.714L22.8711 145H20.3135L8.10547 126.438ZM11.2563 183H8.7251V162.75H13.168L31.7305 180.469V162.75H34.2617V183H30.8867L11.2563 164.859V183ZM12.2188 221V200.75H32.4688V202.859H14.75V209.609H31.625V211.719H14.75V218.891H32.4688V221H12.2188ZM32.8906 238.75V240.859H22.7656V259H20.2344V240.859H10.1094V238.75H32.8906Z" fill="black"/>
</g>
<defs>
<filter id="filter0_d_3911_224" x="1.22037" y="10.3281" width="42.5593" height="259.38" filterUnits="userSpaceOnUse" color-interpolation-filters="sRGB">
<feFlood flood-opacity="0" result="BackgroundImageFix"/>
<feColorMatrix in="SourceAlpha" type="matrix" values="0 0 0 0 0 0 0 0 0 0 0 0 0 0 0 0 0 0 127 0" result="hardAlpha"/>
<feOffset dy="5.35385"/>
<feGaussianBlur stdDeviation="2.67692"/>
<feComposite in2="hardAlpha" operator="out"/>
<feColorMatrix type="matrix" values="0 0 0 0 0 0 0 0 0 0 0 0 0 0 0 0 0 0 0.25 0"/>
<feBlend mode="normal" in2="BackgroundImageFix" result="effect1_dropShadow_3911_224"/>
<feBlend mode="normal" in="SourceGraphic" in2="effect1_dropShadow_3911_224" result="shape"/>
</filter>
<filter id="filter1_d_3911_224" x="0.220373" y="10.3281" width="42.5593" height="259.38" filterUnits="userSpaceOnUse" color-interpolation-filters="sRGB">
<feFlood flood-opacity="0" result="BackgroundImageFix"/>
<feColorMatrix in="SourceAlpha" type="matrix" values="0 0 0 0 0 0 0 0 0 0 0 0 0 0 0 0 0 0 127 0" result="hardAlpha"/>
<feOffset dy="5.35385"/>
<feGaussianBlur stdDeviation="2.67692"/>
<feComposite in2="hardAlpha" operator="out"/>
<feColorMatrix type="matrix" values="0 0 0 0 0 0 0 0 0 0 0 0 0 0 0 0 0 0 0.25 0"/>
<feBlend mode="normal" in2="BackgroundImageFix" result="effect1_dropShadow_3911_224"/>
<feBlend mode="normal" in="SourceGraphic" in2="effect1_dropShadow_3911_224" result="shape"/>
</filter>
</defs>
</svg>
