<!-- <svg width="946" height="331" viewBox="0 0 946 331" fill="none" xmlns="http://www.w3.org/2000/svg"> -->
<svg width="auto" height="auto" viewBox="0 0 946 331" fill="none" xmlns="http://www.w3.org/2000/svg">
<mask id="path-1-outside-1_4030_239" maskUnits="userSpaceOnUse" x="26" y="17" width="885" height="310" fill="black">
<rect fill="white" x="26" y="17" width="885" height="310"/>
<path d="M140.393 53.3281C140.393 47.8984 139.805 43.5999 138.629 40.4326C137.452 37.2653 135.507 34.8672 132.792 33.2383C130.077 31.6094 126.502 30.5687 122.068 30.1162C117.679 29.6637 112.227 29.4375 105.711 29.4375H75.237C69.4453 29.4375 64.5586 29.6185 60.5768 29.9805C56.6403 30.2972 53.3825 30.9759 50.8034 32.0166C48.2243 33.0573 46.2334 34.5505 44.8307 36.4961C43.4281 38.4417 42.41 41.0208 41.7766 44.2334C41.1431 47.446 40.7811 51.4051 40.6906 56.1108C40.6001 60.7713 40.5549 66.3594 40.5549 72.875C40.5549 79.3906 40.6001 85.0013 40.6906 89.707C40.8264 94.3675 41.211 98.304 41.8444 101.517C42.4779 104.729 43.4733 107.308 44.8307 109.254C46.2334 111.2 48.2243 112.693 50.8034 113.733C53.3825 114.774 56.6403 115.475 60.5768 115.837C64.5586 116.154 69.4453 116.312 75.237 116.312H105.711C110.779 116.312 115.145 116.177 118.81 115.905C122.475 115.634 125.597 115.136 128.176 114.412C130.756 113.688 132.837 112.693 134.421 111.426C136.004 110.159 137.226 108.575 138.086 106.675C138.991 104.729 139.601 102.422 139.918 99.752C140.235 97.0371 140.393 93.8698 140.393 90.25H153.424C153.424 94.5938 153.153 98.5303 152.61 102.06C152.067 105.544 151.094 108.666 149.692 111.426C148.334 114.141 146.502 116.493 144.194 118.484C141.886 120.475 138.968 122.127 135.439 123.439C131.909 124.706 127.701 125.633 122.815 126.222C117.928 126.855 112.227 127.172 105.711 127.172H75.237C67.2735 127.172 60.5542 126.674 55.0793 125.679C49.6496 124.729 45.1701 123.281 41.6408 121.335C38.1115 119.344 35.374 116.855 33.4284 113.869C31.528 110.883 30.1253 107.376 29.2204 103.349C28.3607 99.3221 27.863 94.7747 27.7272 89.707C27.5915 84.6393 27.5236 79.0286 27.5236 72.875C27.5236 66.7214 27.5915 61.1107 27.7272 56.043C27.863 50.9753 28.3607 46.4279 29.2204 42.4009C30.1253 38.3739 31.528 34.8672 33.4284 31.8809C35.374 28.8945 38.1115 26.4285 41.6408 24.4829C45.1701 22.492 49.6496 21.0215 55.0793 20.0713C60.5542 19.0758 67.2735 18.5781 75.237 18.5781H105.711C112.227 18.5781 117.928 18.8949 122.815 19.5283C127.701 20.1165 131.909 21.0441 135.439 22.311C138.968 23.5327 141.886 25.0938 144.194 26.9941C146.502 28.8945 148.334 31.1343 149.692 33.7134C151.094 36.2925 152.067 39.2109 152.61 42.4688C153.153 45.7266 153.424 49.3464 153.424 53.3281H140.393ZM271.71 18.5781C279.674 18.5781 286.37 19.0758 291.8 20.0713C297.275 21.0215 301.777 22.492 305.306 24.4829C308.836 26.4285 311.551 28.8945 313.451 31.8809C315.351 34.8672 316.731 38.3739 317.591 42.4009C318.496 46.4279 319.016 50.9753 319.152 56.043C319.333 61.1107 319.424 66.7214 319.424 72.875C319.424 79.0286 319.333 84.6393 319.152 89.707C319.016 94.7747 318.496 99.3221 317.591 103.349C316.731 107.376 315.351 110.883 313.451 113.869C311.551 116.855 308.836 119.344 305.306 121.335C301.777 123.281 297.275 124.729 291.8 125.679C286.37 126.674 279.674 127.172 271.71 127.172H232.481C224.517 127.172 217.798 126.674 212.323 125.679C206.893 124.729 202.414 123.281 198.885 121.335C195.355 119.344 192.618 116.855 190.672 113.869C188.772 110.883 187.369 107.376 186.464 103.349C185.604 99.3221 185.107 94.7747 184.971 89.707C184.835 84.6393 184.767 79.0286 184.767 72.875C184.767 66.7214 184.835 61.1107 184.971 56.043C185.107 50.9753 185.604 46.4279 186.464 42.4009C187.369 38.3739 188.772 34.8672 190.672 31.8809C192.618 28.8945 195.355 26.4285 198.885 24.4829C202.414 22.492 206.893 21.0215 212.323 20.0713C217.798 19.0758 224.517 18.5781 232.481 18.5781H271.71ZM271.71 116.312C277.457 116.312 282.298 116.154 286.235 115.837C290.216 115.475 293.497 114.774 296.076 113.733C298.655 112.693 300.646 111.2 302.049 109.254C303.451 107.308 304.469 104.729 305.103 101.517C305.736 98.304 306.098 94.3675 306.189 89.707C306.324 85.0013 306.392 79.3906 306.392 72.875C306.392 66.3594 306.324 60.7713 306.189 56.1108C306.098 51.4051 305.736 47.446 305.103 44.2334C304.469 41.0208 303.451 38.4417 302.049 36.4961C300.646 34.5505 298.655 33.0573 296.076 32.0166C293.542 30.9759 290.284 30.2972 286.303 29.9805C282.366 29.6185 277.502 29.4375 271.71 29.4375H232.481C226.689 29.4375 221.802 29.6185 217.821 29.9805C213.884 30.2972 210.626 30.9759 208.047 32.0166C205.468 33.0573 203.477 34.5505 202.074 36.4961C200.672 38.4417 199.654 41.0208 199.02 44.2334C198.387 47.446 198.025 51.4051 197.934 56.1108C197.844 60.7713 197.799 66.3594 197.799 72.875C197.799 79.3906 197.844 85.0013 197.934 89.707C198.07 94.3675 198.455 98.304 199.088 101.517C199.722 104.729 200.717 107.308 202.074 109.254C203.477 111.2 205.468 112.693 208.047 113.733C210.626 114.774 213.884 115.475 217.821 115.837C221.802 116.154 226.689 116.312 232.481 116.312H271.71ZM368.074 29.4375V125H355.042V20.75H376.761L437.506 111.969L498.25 20.75H519.019V125H505.988V30.8628L444.089 125H430.922L368.074 29.4375ZM558.981 20.75H572.013V125H558.981V20.75ZM625.006 125H611.975V20.75H634.848L730.41 111.969V20.75H743.441V125H726.066L625.006 31.6094V125ZM896.477 53.3281C896.477 47.8984 895.889 43.5999 894.713 40.4326C893.536 37.2653 891.591 34.8672 888.876 33.2383C886.161 31.6094 882.586 30.5687 878.152 30.1162C873.718 29.6637 868.243 29.4375 861.727 29.4375H826.841C821.05 29.4375 816.163 29.6185 812.181 29.9805C808.245 30.2972 804.987 30.9759 802.408 32.0166C799.829 33.0573 797.838 34.5505 796.435 36.4961C795.033 38.4417 794.015 41.0208 793.381 44.2334C792.748 47.446 792.386 51.4051 792.295 56.1108C792.205 60.7713 792.159 66.3594 792.159 72.875C792.159 79.3906 792.205 85.0013 792.295 89.707C792.431 94.3675 792.815 98.304 793.449 101.517C794.082 104.729 795.078 107.308 796.435 109.254C797.838 111.2 799.829 112.693 802.408 113.733C804.987 114.774 808.245 115.475 812.181 115.837C816.163 116.154 821.05 116.312 826.841 116.312H861.795C866.863 116.312 871.229 116.177 874.894 115.905C878.559 115.634 881.681 115.136 884.26 114.412C886.84 113.688 888.921 112.693 890.505 111.426C892.088 110.159 893.31 108.575 894.17 106.675C895.075 104.729 895.685 102.422 896.002 99.752C896.319 97.0371 896.477 93.8698 896.477 90.25V83.7344H844.216V72.875H909.508V90.25C909.508 94.5938 909.237 98.5303 908.694 102.06C908.151 105.544 907.178 108.666 905.776 111.426C904.418 114.141 902.586 116.493 900.278 118.484C897.97 120.475 895.052 122.127 891.523 123.439C887.993 124.706 883.785 125.633 878.899 126.222C874.012 126.855 868.311 127.172 861.795 127.172H826.841C818.878 127.172 812.159 126.674 806.684 125.679C801.254 124.729 796.775 123.281 793.245 121.335C789.716 119.344 786.979 116.855 785.033 113.869C783.133 110.883 781.73 107.376 780.825 103.349C779.965 99.3221 779.467 94.7747 779.332 89.707C779.196 84.6393 779.128 79.0286 779.128 72.875C779.128 66.7214 779.196 61.1107 779.332 56.043C779.467 50.9753 779.965 46.4279 780.825 42.4009C781.73 38.3739 783.133 34.8672 785.033 31.8809C786.979 28.8945 789.716 26.4285 793.245 24.4829C796.775 22.492 801.254 21.0215 806.684 20.0713C812.159 19.0758 818.878 18.5781 826.841 18.5781H861.727C868.243 18.5781 873.944 18.8949 878.831 19.5283C883.717 20.1165 887.925 21.0441 891.455 22.311C894.984 23.5327 897.903 25.0938 900.21 26.9941C902.563 28.8945 904.418 31.1343 905.776 33.7134C907.178 36.2925 908.151 39.2109 908.694 42.4688C909.237 45.7266 909.508 49.3464 909.508 53.3281H896.477ZM235.223 264.359C242.372 264.359 248.503 264.653 253.616 265.242C258.729 265.83 263.027 266.712 266.511 267.889C270.041 269.02 272.846 270.445 274.927 272.165C277.009 273.884 278.615 275.852 279.746 278.069C280.877 280.241 281.601 282.685 281.918 285.399C282.28 288.114 282.461 291.055 282.461 294.223C282.461 297.39 282.167 300.376 281.579 303.182C281.036 305.942 280.04 308.476 278.592 310.783C277.144 313.091 275.176 315.15 272.688 316.959C270.199 318.769 267.032 320.308 263.186 321.575C259.34 322.842 254.702 323.792 249.272 324.425C243.888 325.104 237.576 325.443 230.336 325.443H212.961C206.445 325.443 200.744 325.194 195.858 324.697C190.971 324.199 186.763 323.452 183.233 322.457C179.704 321.416 176.786 320.127 174.478 318.588C172.171 317.005 170.315 315.172 168.913 313.091C167.555 310.964 166.605 308.566 166.062 305.896C165.519 303.182 165.248 300.195 165.248 296.938H178.279C178.279 301.01 178.867 304.2 180.044 306.507C181.22 308.815 183.166 310.557 185.88 311.733C188.595 312.865 192.147 313.589 196.536 313.905C200.97 314.177 206.445 314.312 212.961 314.312H230.336C237.938 314.312 244.25 313.951 249.272 313.227C254.295 312.503 258.299 311.349 261.285 309.765C264.272 308.181 266.376 306.123 267.597 303.589C268.819 301.01 269.43 297.888 269.43 294.223C269.43 290.558 269 287.503 268.14 285.06C267.326 282.617 265.674 280.671 263.186 279.223C260.742 277.775 257.281 276.757 252.801 276.169C248.322 275.535 242.462 275.219 235.223 275.219H217.305C209.341 275.219 202.509 274.925 196.808 274.336C191.152 273.748 186.401 272.911 182.555 271.825C178.709 270.694 175.632 269.314 173.324 267.685C171.017 266.011 169.252 264.111 168.03 261.984C166.854 259.857 166.085 257.504 165.723 254.925C165.361 252.301 165.18 249.473 165.18 246.441C165.18 243.274 165.451 240.333 165.994 237.618C166.582 234.903 167.646 232.46 169.184 230.288C170.723 228.071 172.827 226.103 175.496 224.383C178.166 222.664 181.582 221.239 185.745 220.107C189.953 218.931 194.998 218.049 200.88 217.46C206.762 216.872 213.685 216.578 221.649 216.578H234.68C241.195 216.578 246.897 216.827 251.783 217.325C256.67 217.777 260.878 218.524 264.407 219.564C267.937 220.56 270.855 221.827 273.163 223.365C275.516 224.858 277.371 226.668 278.728 228.795C280.131 230.876 281.104 233.252 281.647 235.921C282.19 238.591 282.461 241.555 282.461 244.812H269.43C269.43 240.74 268.842 237.55 267.665 235.243C266.489 232.935 264.543 231.216 261.828 230.084C259.113 228.908 255.539 228.184 251.105 227.913C246.67 227.596 241.195 227.438 234.68 227.438H221.649C212.961 227.438 205.812 227.754 200.201 228.388C194.591 228.976 190.156 229.994 186.899 231.442C183.641 232.89 181.378 234.835 180.111 237.279C178.844 239.722 178.211 242.776 178.211 246.441C178.211 248.704 178.369 250.717 178.686 252.482C179.003 254.247 179.636 255.808 180.587 257.165C181.582 258.477 182.962 259.586 184.727 260.491C186.491 261.396 188.822 262.142 191.717 262.73C194.613 263.319 198.143 263.749 202.305 264.02C206.513 264.246 211.513 264.359 217.305 264.359H235.223ZM400.679 216.578C408.642 216.578 415.339 217.076 420.769 218.071C426.244 219.021 430.746 220.492 434.275 222.483C437.804 224.429 440.519 226.895 442.42 229.881C444.32 232.867 445.7 236.374 446.56 240.401C447.465 244.428 447.985 248.975 448.121 254.043C448.302 259.111 448.392 264.721 448.392 270.875C448.392 277.029 448.302 282.639 448.121 287.707C447.985 292.775 447.465 297.322 446.56 301.349C445.7 305.376 444.32 308.883 442.42 311.869C440.519 314.855 437.804 317.344 434.275 319.335C430.746 321.281 426.244 322.729 420.769 323.679C415.339 324.674 408.642 325.172 400.679 325.172H361.449C353.486 325.172 346.767 324.674 341.292 323.679C335.862 322.729 331.383 321.281 327.853 319.335C324.324 317.344 321.586 314.855 319.641 311.869C317.74 308.883 316.338 305.376 315.433 301.349C314.573 297.322 314.075 292.775 313.94 287.707C313.804 282.639 313.736 277.029 313.736 270.875C313.736 264.721 313.804 259.111 313.94 254.043C314.075 248.975 314.573 244.428 315.433 240.401C316.338 236.374 317.74 232.867 319.641 229.881C321.586 226.895 324.324 224.429 327.853 222.483C331.383 220.492 335.862 219.021 341.292 218.071C346.767 217.076 353.486 216.578 361.449 216.578H400.679ZM400.679 314.312C406.425 314.312 411.267 314.154 415.203 313.837C419.185 313.475 422.466 312.774 425.045 311.733C427.624 310.693 429.615 309.2 431.017 307.254C432.42 305.308 433.438 302.729 434.071 299.517C434.705 296.304 435.067 292.368 435.157 287.707C435.293 283.001 435.361 277.391 435.361 270.875C435.361 264.359 435.293 258.771 435.157 254.111C435.067 249.405 434.705 245.446 434.071 242.233C433.438 239.021 432.42 236.442 431.017 234.496C429.615 232.55 427.624 231.057 425.045 230.017C422.511 228.976 419.253 228.297 415.271 227.98C411.335 227.618 406.471 227.438 400.679 227.438H361.449C355.658 227.438 350.771 227.618 346.789 227.98C342.853 228.297 339.595 228.976 337.016 230.017C334.437 231.057 332.446 232.55 331.043 234.496C329.64 236.442 328.622 239.021 327.989 242.233C327.355 245.446 326.994 249.405 326.903 254.111C326.813 258.771 326.767 264.359 326.767 270.875C326.767 277.391 326.813 283.001 326.903 287.707C327.039 292.368 327.423 296.304 328.057 299.517C328.69 302.729 329.686 305.308 331.043 307.254C332.446 309.2 334.437 310.693 337.016 311.733C339.595 312.774 342.853 313.475 346.789 313.837C350.771 314.154 355.658 314.312 361.449 314.312H400.679ZM566.61 216.578C574.574 216.578 581.27 217.076 586.7 218.071C592.175 219.021 596.677 220.492 600.206 222.483C603.736 224.429 606.45 226.895 608.351 229.881C610.251 232.867 611.631 236.374 612.491 240.401C613.396 244.428 613.916 248.975 614.052 254.043C614.233 259.111 614.324 264.721 614.324 270.875C614.324 277.029 614.233 282.639 614.052 287.707C613.916 292.775 613.396 297.322 612.491 301.349C611.631 305.376 610.251 308.883 608.351 311.869C606.45 314.855 603.736 317.344 600.206 319.335C596.677 321.281 592.175 322.729 586.7 323.679C581.27 324.674 574.574 325.172 566.61 325.172H527.381C519.417 325.172 512.698 324.674 507.223 323.679C501.793 322.729 497.314 321.281 493.784 319.335C490.255 317.344 487.518 314.855 485.572 311.869C483.672 308.883 482.269 305.376 481.364 301.349C480.504 297.322 480.007 292.775 479.871 287.707C479.735 282.639 479.667 277.029 479.667 270.875C479.667 264.721 479.735 259.111 479.871 254.043C480.007 248.975 480.504 244.428 481.364 240.401C482.269 236.374 483.672 232.867 485.572 229.881C487.518 226.895 490.255 224.429 493.784 222.483C497.314 220.492 501.793 219.021 507.223 218.071C512.698 217.076 519.417 216.578 527.381 216.578H566.61ZM566.61 314.312C572.357 314.312 577.198 314.154 581.135 313.837C585.116 313.475 588.397 312.774 590.976 311.733C593.555 310.693 595.546 309.2 596.949 307.254C598.351 305.308 599.369 302.729 600.003 299.517C600.636 296.304 600.998 292.368 601.089 287.707C601.224 283.001 601.292 277.391 601.292 270.875C601.292 264.359 601.224 258.771 601.089 254.111C600.998 249.405 600.636 245.446 600.003 242.233C599.369 239.021 598.351 236.442 596.949 234.496C595.546 232.55 593.555 231.057 590.976 230.017C588.442 228.976 585.184 228.297 581.202 227.98C577.266 227.618 572.402 227.438 566.61 227.438H527.381C521.589 227.438 516.702 227.618 512.72 227.98C508.784 228.297 505.526 228.976 502.947 230.017C500.368 231.057 498.377 232.55 496.974 234.496C495.572 236.442 494.554 239.021 493.92 242.233C493.287 245.446 492.925 249.405 492.834 254.111C492.744 258.771 492.699 264.359 492.699 270.875C492.699 277.391 492.744 283.001 492.834 287.707C492.97 292.368 493.355 296.304 493.988 299.517C494.622 302.729 495.617 305.308 496.974 307.254C498.377 309.2 500.368 310.693 502.947 311.733C505.526 312.774 508.784 313.475 512.72 313.837C516.702 314.154 521.589 314.312 527.381 314.312H566.61ZM662.974 323H649.942V218.75H672.815L768.377 309.969V218.75H781.409V323H764.034L662.974 229.609V323Z"/>
</mask>
<path d="M140.393 53.3281H139.393V54.3281H140.393V53.3281ZM122.068 30.1162L121.966 31.1109L121.967 31.111L122.068 30.1162ZM60.5768 29.9805L60.657 30.9773L60.6674 30.9764L60.5768 29.9805ZM40.6906 56.1108L41.6904 56.1303L41.6904 56.1301L40.6906 56.1108ZM40.6906 89.707L39.6907 89.7263L39.691 89.7361L40.6906 89.707ZM44.8307 109.254L44.0106 109.826L44.015 109.832L44.0196 109.839L44.8307 109.254ZM60.5768 115.837L60.4853 116.833L60.4975 116.834L60.5768 115.837ZM138.086 106.675L137.179 106.253L137.175 106.263L138.086 106.675ZM139.918 99.752L140.911 99.8698L140.911 99.8678L139.918 99.752ZM140.393 90.25V89.25H139.393V90.25H140.393ZM153.424 90.25H154.424V89.25H153.424V90.25ZM152.61 102.06L153.598 102.214L153.598 102.212L152.61 102.06ZM149.692 111.426L148.8 110.973L148.797 110.979L149.692 111.426ZM135.439 123.439L135.777 124.38L135.787 124.376L135.439 123.439ZM122.815 126.222L122.695 125.229L122.686 125.23L122.815 126.222ZM55.0793 125.679L55.2582 124.695L55.2517 124.694L55.0793 125.679ZM41.6408 121.335L41.1495 122.206L41.158 122.211L41.6408 121.335ZM33.4284 113.869L32.5847 114.406L32.5905 114.415L33.4284 113.869ZM29.2204 103.349L28.2424 103.558L28.2447 103.568L29.2204 103.349ZM29.2204 42.4009L28.2447 42.1816L28.2424 42.1921L29.2204 42.4009ZM33.4284 31.8809L32.5905 31.3349L32.5847 31.344L33.4284 31.8809ZM41.6408 24.4829L42.1236 25.3587L42.1321 25.3539L41.6408 24.4829ZM55.0793 20.0713L55.2517 21.0563L55.2582 21.0552L55.0793 20.0713ZM122.815 19.5283L122.686 20.5201L122.695 20.5212L122.815 19.5283ZM135.439 22.311L135.101 23.2523L135.112 23.256L135.439 22.311ZM149.692 33.7134L148.807 34.1792L148.813 34.1912L149.692 33.7134ZM153.424 53.3281V54.3281H154.424V53.3281H153.424ZM141.393 53.3281C141.393 47.8428 140.801 43.4101 139.566 40.0844L137.691 40.7808C138.809 43.7898 139.393 47.9541 139.393 53.3281H141.393ZM139.566 40.0844C138.316 36.7196 136.229 34.1347 133.306 32.3808L132.277 34.0958C134.784 35.5997 136.588 37.811 137.691 40.7808L139.566 40.0844ZM133.306 32.3808C130.425 30.6521 126.694 29.5831 122.17 29.1214L121.967 31.111C126.31 31.5543 129.729 32.5667 132.277 34.0958L133.306 32.3808ZM122.171 29.1215C117.736 28.6643 112.247 28.4375 105.711 28.4375V30.4375C112.207 30.4375 117.622 30.6632 121.966 31.1109L122.171 29.1215ZM105.711 28.4375H75.237V30.4375H105.711V28.4375ZM75.237 28.4375C69.4272 28.4375 64.5082 28.6189 60.4863 28.9846L60.6674 30.9764C64.609 30.618 69.4635 30.4375 75.237 30.4375V28.4375ZM60.4966 28.9837C56.4979 29.3054 53.1325 29.9984 50.4292 31.0893L51.1776 32.944C53.6325 31.9534 56.7827 31.289 60.657 30.9772L60.4966 28.9837ZM50.4292 31.0893C47.7035 32.1891 45.5493 33.7894 44.0196 35.9113L45.6419 37.0809C46.9175 35.3115 48.7451 33.9255 51.1776 32.944L50.4292 31.0893ZM44.0196 35.9113C42.508 38.0081 41.4472 40.7348 40.7954 44.0399L42.7577 44.4269C43.3729 41.3068 44.3482 38.8754 45.6419 37.0809L44.0196 35.9113ZM40.7954 44.0399C40.1469 47.3288 39.782 51.3504 39.6908 56.0916L41.6904 56.1301C41.7802 51.4598 42.1392 47.5631 42.7577 44.4269L40.7954 44.0399ZM39.6908 56.0914C39.6001 60.7603 39.5549 66.3552 39.5549 72.875H41.5549C41.5549 66.3635 41.6001 60.7823 41.6904 56.1303L39.6908 56.0914ZM39.5549 72.875C39.5549 79.3948 39.6001 85.0122 39.6908 89.7263L41.6904 89.6878C41.6001 84.9904 41.5549 79.3864 41.5549 72.875H39.5549ZM39.691 89.7361C39.8278 94.4307 40.2157 98.4259 40.8633 101.71L42.8255 101.323C42.2062 98.1821 41.8249 94.3043 41.6902 89.6779L39.691 89.7361ZM40.8633 101.71C41.514 105.01 42.5498 107.732 44.0106 109.826L45.6509 108.682C44.3969 106.884 43.4417 104.448 42.8255 101.323L40.8633 101.71ZM44.0196 109.839C45.5493 111.961 47.7035 113.561 50.4292 114.661L51.1776 112.806C48.7451 111.825 46.9175 110.438 45.6419 108.669L44.0196 109.839ZM50.4292 114.661C53.1279 115.75 56.489 116.466 60.4853 116.833L60.6684 114.842C56.7916 114.485 53.6372 113.799 51.1776 112.806L50.4292 114.661ZM60.4975 116.834C64.5145 117.154 69.4295 117.312 75.237 117.312V115.312C69.4612 115.312 64.6027 115.154 60.6561 114.841L60.4975 116.834ZM75.237 117.312H105.711V115.312H75.237V117.312ZM105.711 117.312C110.795 117.312 115.187 117.176 118.884 116.903L118.736 114.908C115.103 115.177 110.763 115.312 105.711 115.312V117.312ZM118.884 116.903C122.593 116.628 125.785 116.122 128.447 115.375L127.906 113.449C125.41 114.15 122.358 114.64 118.736 114.908L118.884 116.903ZM128.447 115.375C131.116 114.626 133.329 113.58 135.045 112.207L133.796 110.645C132.345 111.806 130.395 112.751 127.906 113.449L128.447 115.375ZM135.045 112.207C136.756 110.838 138.074 109.127 138.997 107.087L137.175 106.263C136.378 108.023 135.253 109.479 133.796 110.645L135.045 112.207ZM138.992 107.097C139.952 105.034 140.585 102.619 140.911 99.8698L138.925 99.6341C138.618 102.224 138.03 104.424 137.179 106.253L138.992 107.097ZM140.911 99.8678C141.234 97.1045 141.393 93.8969 141.393 90.25H139.393C139.393 93.8427 139.236 96.9697 138.925 99.6361L140.911 99.8678ZM140.393 91.25H153.424V89.25H140.393V91.25ZM152.424 90.25C152.424 94.5533 152.155 98.4379 151.622 101.908L153.598 102.212C154.151 98.6226 154.424 94.6342 154.424 90.25H152.424ZM151.622 101.906C151.093 105.3 150.149 108.319 148.8 110.973L150.583 111.879C152.04 109.013 153.041 105.788 153.598 102.214L151.622 101.906ZM148.797 110.979C147.499 113.575 145.749 115.822 143.541 117.727L144.847 119.242C147.255 117.165 149.169 114.707 150.586 111.873L148.797 110.979ZM143.541 117.727C141.342 119.625 138.533 121.222 135.09 122.502L135.787 124.376C139.403 123.032 142.431 121.326 144.847 119.242L143.541 117.727ZM135.101 122.498C131.66 123.733 127.529 124.647 122.695 125.229L122.934 127.215C127.874 126.62 132.159 125.679 135.777 124.38L135.101 122.498ZM122.686 125.23C117.853 125.856 112.197 126.172 105.711 126.172V128.172C112.257 128.172 118.003 127.854 122.943 127.213L122.686 125.23ZM105.711 126.172H75.237V128.172H105.711V126.172ZM75.237 126.172C67.3101 126.172 60.6549 125.676 55.2582 124.695L54.9004 126.663C60.4535 127.672 67.2368 128.172 75.237 128.172V126.172ZM55.2517 124.694C49.8936 123.756 45.5279 122.336 42.1236 120.459L41.158 122.211C44.8123 124.225 49.4056 125.701 54.9069 126.664L55.2517 124.694ZM42.1321 120.464C38.7235 118.541 36.1128 116.158 34.2663 113.323L32.5905 114.415C34.6353 117.553 37.4996 120.147 41.1495 122.206L42.1321 120.464ZM34.2721 113.332C32.443 110.458 31.0798 107.063 30.1961 103.13L28.2447 103.568C29.1709 107.69 30.613 111.308 32.5847 114.406L34.2721 113.332ZM30.1984 103.14C29.354 99.185 28.8613 94.7002 28.7269 89.6803L26.7276 89.7338C26.8646 94.8493 27.3674 99.4592 28.2424 103.558L30.1984 103.14ZM28.7269 89.6803C28.5914 84.6231 28.5236 79.0215 28.5236 72.875H26.5236C26.5236 79.0358 26.5916 84.6555 26.7276 89.7338L28.7269 89.6803ZM28.5236 72.875C28.5236 66.7285 28.5914 61.1269 28.7269 56.0697L26.7276 56.0162C26.5916 61.0945 26.5236 66.7142 26.5236 72.875H28.5236ZM28.7269 56.0697C28.8613 51.0498 29.354 46.565 30.1984 42.6097L28.2424 42.1921C27.3674 46.2908 26.8646 50.9007 26.7276 56.0162L28.7269 56.0697ZM30.1961 42.6201C31.0798 38.6875 32.443 35.2919 34.2721 32.4177L32.5847 31.344C30.613 34.4425 29.1709 38.0603 28.2447 42.1816L30.1961 42.6201ZM34.2663 32.4267C36.1112 29.5949 38.7189 27.2356 42.1236 25.3587L41.158 23.6072C37.5041 25.6215 34.6368 28.1941 32.5905 31.335L34.2663 32.4267ZM42.1321 25.3539C45.5338 23.435 49.8964 21.9935 55.2517 21.0563L54.9069 19.0863C49.4028 20.0495 44.8064 21.5491 41.1495 23.6119L42.1321 25.3539ZM55.2582 21.0552C60.6549 20.0739 67.3101 19.5781 75.237 19.5781V17.5781C67.2368 17.5781 60.4535 18.0778 54.9004 19.0874L55.2582 21.0552ZM75.237 19.5781H105.711V17.5781H75.237V19.5781ZM105.711 19.5781C112.197 19.5781 117.853 19.8935 122.686 20.52L122.943 18.5366C118.003 17.8962 112.257 17.5781 105.711 17.5781V19.5781ZM122.695 20.5212C127.529 21.103 131.66 22.0171 135.101 23.2522L135.777 21.3698C132.159 20.0711 127.874 19.1301 122.934 18.5355L122.695 20.5212ZM135.112 23.256C138.555 24.4481 141.362 25.9575 143.558 27.7661L144.83 26.2222C142.411 24.23 139.38 22.6173 135.766 21.366L135.112 23.256ZM143.558 27.7661C145.766 29.5842 147.513 31.7207 148.807 34.1791L150.577 33.2476C149.156 30.5479 147.237 28.2049 144.83 26.2222L143.558 27.7661ZM148.813 34.1912C150.156 36.6611 151.097 39.4715 151.624 42.6331L153.596 42.3044C153.037 38.9504 152.032 35.9238 150.57 33.2356L148.813 34.1912ZM151.624 42.6331C152.156 45.8269 152.424 49.3906 152.424 53.3281H154.424C154.424 49.3021 154.15 45.6262 153.596 42.3044L151.624 42.6331ZM153.424 52.3281H140.393V54.3281H153.424V52.3281ZM291.8 20.0713L291.62 21.0549L291.629 21.0566L291.8 20.0713ZM305.306 24.4829L304.815 25.3539L304.824 25.3587L305.306 24.4829ZM317.591 42.4009L316.613 42.6097L316.615 42.6201L317.591 42.4009ZM319.152 56.043L318.152 56.0697L318.153 56.0787L319.152 56.043ZM319.152 89.707L318.153 89.6713L318.152 89.6803L319.152 89.707ZM317.591 103.349L316.615 103.13L316.613 103.14L317.591 103.349ZM305.306 121.335L305.789 122.211L305.798 122.206L305.306 121.335ZM291.8 125.679L291.629 124.693L291.62 124.695L291.8 125.679ZM212.323 125.679L212.502 124.695L212.495 124.694L212.323 125.679ZM198.885 121.335L198.393 122.206L198.402 122.211L198.885 121.335ZM190.672 113.869L189.828 114.406L189.834 114.415L190.672 113.869ZM186.464 103.349L185.486 103.558L185.488 103.568L186.464 103.349ZM186.464 42.4009L185.488 42.1816L185.486 42.1921L186.464 42.4009ZM190.672 31.8809L189.834 31.3349L189.828 31.344L190.672 31.8809ZM198.885 24.4829L199.367 25.3587L199.376 25.3539L198.885 24.4829ZM212.323 20.0713L212.495 21.0563L212.502 21.0552L212.323 20.0713ZM286.235 115.837L286.315 116.834L286.325 116.833L286.235 115.837ZM302.049 109.254L302.86 109.839L302.049 109.254ZM306.189 89.707L305.189 89.6782L305.189 89.6876L306.189 89.707ZM306.189 56.1108L305.189 56.1301L305.189 56.14L306.189 56.1108ZM296.076 32.0166L295.696 32.9416L295.702 32.944L296.076 32.0166ZM286.303 29.9805L286.211 30.9763L286.223 30.9773L286.303 29.9805ZM217.821 29.9805L217.901 30.9773L217.911 30.9764L217.821 29.9805ZM197.934 56.1108L198.934 56.1303L198.934 56.1301L197.934 56.1108ZM197.934 89.707L196.934 89.7263L196.935 89.7361L197.934 89.707ZM202.074 109.254L201.254 109.826L201.259 109.832L201.263 109.839L202.074 109.254ZM217.821 115.837L217.729 116.833L217.741 116.834L217.821 115.837ZM271.71 19.5781C279.637 19.5781 286.269 20.074 291.62 21.0549L291.98 19.0877C286.472 18.0777 279.71 17.5781 271.71 17.5781V19.5781ZM291.629 21.0566C297.03 21.994 301.415 23.4357 304.815 25.3539L305.798 23.6119C302.14 21.5484 297.52 20.049 291.971 19.086L291.629 21.0566ZM304.824 25.3587C308.227 27.2347 310.809 29.5914 312.607 32.4177L314.295 31.344C312.292 28.1977 309.445 25.6224 305.789 23.6072L304.824 25.3587ZM312.607 32.4177C314.434 35.2886 315.774 38.6804 316.613 42.6097L318.569 42.1921C317.688 38.0673 316.268 34.4458 314.295 31.344L312.607 32.4177ZM316.615 42.6201C317.503 46.5715 318.018 51.0528 318.152 56.0697L320.152 56.0162C320.015 50.8978 319.489 46.2843 318.567 42.1816L316.615 42.6201ZM318.153 56.0787C318.333 61.1323 318.424 66.7308 318.424 72.875H320.424C320.424 66.7119 320.333 61.0891 320.151 56.0073L318.153 56.0787ZM318.424 72.875C318.424 79.0192 318.333 84.6177 318.153 89.6713L320.151 89.7427C320.333 84.6609 320.424 79.0381 320.424 72.875H318.424ZM318.152 89.6803C318.018 94.6972 317.503 99.1785 316.615 103.13L318.567 103.568C319.489 99.4657 320.015 94.8522 320.152 89.7338L318.152 89.6803ZM316.613 103.14C315.774 107.07 314.434 110.461 312.607 113.332L314.295 114.406C316.268 111.304 317.688 107.683 318.569 103.558L316.613 103.14ZM312.607 113.332C310.807 116.161 308.222 118.542 304.815 120.464L305.798 122.206C309.449 120.146 312.294 117.55 314.295 114.406L312.607 113.332ZM304.824 120.459C301.421 122.335 297.033 123.756 291.629 124.693L291.971 126.664C297.517 125.701 302.134 124.226 305.789 122.211L304.824 120.459ZM291.62 124.695C286.269 125.676 279.637 126.172 271.71 126.172V128.172C279.71 128.172 286.472 127.672 291.98 126.662L291.62 124.695ZM271.71 126.172H232.481V128.172H271.71V126.172ZM232.481 126.172C224.554 126.172 217.899 125.676 212.502 124.695L212.144 126.663C217.697 127.672 224.481 128.172 232.481 128.172V126.172ZM212.495 124.694C207.137 123.756 202.772 122.336 199.367 120.459L198.402 122.211C202.056 124.225 206.649 125.701 212.151 126.664L212.495 124.694ZM199.376 120.464C195.967 118.541 193.357 116.158 191.51 113.323L189.834 114.415C191.879 117.553 194.743 120.147 198.393 122.206L199.376 120.464ZM191.516 113.332C189.687 110.458 188.324 107.063 187.44 103.13L185.488 103.568C186.415 107.69 187.857 111.308 189.828 114.406L191.516 113.332ZM187.442 103.14C186.598 99.185 186.105 94.7002 185.971 89.6803L183.971 89.7338C184.108 94.8493 184.611 99.4592 185.486 103.558L187.442 103.14ZM185.971 89.6803C185.835 84.6231 185.767 79.0215 185.767 72.875H183.767C183.767 79.0358 183.835 84.6555 183.971 89.7338L185.971 89.6803ZM185.767 72.875C185.767 66.7285 185.835 61.1269 185.971 56.0697L183.971 56.0162C183.835 61.0945 183.767 66.7142 183.767 72.875H185.767ZM185.971 56.0697C186.105 51.0498 186.598 46.565 187.442 42.6097L185.486 42.1921C184.611 46.2908 184.108 50.9007 183.971 56.0162L185.971 56.0697ZM187.44 42.6201C188.324 38.6875 189.687 35.2919 191.516 32.4177L189.828 31.344C187.857 34.4425 186.415 38.0603 185.488 42.1816L187.44 42.6201ZM191.51 32.4267C193.355 29.5949 195.963 27.2356 199.367 25.3587L198.402 23.6072C194.748 25.6215 191.881 28.1941 189.834 31.335L191.51 32.4267ZM199.376 25.3539C202.778 23.435 207.14 21.9935 212.495 21.0563L212.151 19.0863C206.647 20.0495 202.05 21.5491 198.393 23.6119L199.376 25.3539ZM212.502 21.0552C217.899 20.0739 224.554 19.5781 232.481 19.5781V17.5781C224.481 17.5781 217.697 18.0778 212.144 19.0874L212.502 21.0552ZM232.481 19.5781H271.71V17.5781H232.481V19.5781ZM271.71 117.312C277.473 117.312 282.343 117.154 286.315 116.834L286.154 114.841C282.254 115.154 277.441 115.312 271.71 115.312V117.312ZM286.325 116.833C290.366 116.466 293.75 115.75 296.45 114.661L295.702 112.806C293.243 113.798 290.067 114.485 286.144 114.842L286.325 116.833ZM296.45 114.661C299.176 113.561 301.33 111.961 302.86 109.839L301.237 108.669C299.962 110.438 298.134 111.825 295.702 112.806L296.45 114.661ZM302.86 109.839C304.371 107.742 305.432 105.015 306.084 101.71L304.122 101.323C303.506 104.443 302.531 106.875 301.237 108.669L302.86 109.839ZM306.084 101.71C306.732 98.4217 307.097 94.423 307.189 89.7264L305.189 89.6876C305.099 94.312 304.74 98.1863 304.122 101.323L306.084 101.71ZM307.188 89.7359C307.324 85.0177 307.392 79.3969 307.392 72.875H305.392C305.392 79.3844 305.325 84.9849 305.189 89.6782L307.188 89.7359ZM307.392 72.875C307.392 66.3532 307.324 60.7549 307.188 56.0817L305.189 56.14C305.325 60.7878 305.392 66.3656 305.392 72.875H307.392ZM307.189 56.0916C307.097 51.3504 306.732 47.3288 306.084 44.0399L304.122 44.4269C304.74 47.5631 305.099 51.4598 305.189 56.1301L307.189 56.0916ZM306.084 44.0399C305.432 40.7348 304.371 38.0081 302.86 35.9113L301.237 37.0809C302.531 38.8754 303.506 41.3068 304.122 44.4269L306.084 44.0399ZM302.86 35.9113C301.33 33.7894 299.176 32.1891 296.45 31.0893L295.702 32.944C298.134 33.9255 299.962 35.3115 301.237 37.0809L302.86 35.9113ZM296.456 31.0916C293.793 29.998 290.424 29.3052 286.382 28.9836L286.223 30.9773C290.145 31.2892 293.291 31.9539 295.696 32.9416L296.456 31.0916ZM286.394 28.9847C282.417 28.6189 277.52 28.4375 271.71 28.4375V30.4375C277.484 30.4375 282.315 30.618 286.211 30.9763L286.394 28.9847ZM271.71 28.4375H232.481V30.4375H271.71V28.4375ZM232.481 28.4375C226.671 28.4375 221.752 28.6189 217.73 28.9846L217.911 30.9764C221.853 30.618 226.707 30.4375 232.481 30.4375V28.4375ZM217.74 28.9837C213.742 29.3054 210.376 29.9984 207.673 31.0893L208.421 32.944C210.876 31.9534 214.026 31.289 217.901 30.9772L217.74 28.9837ZM207.673 31.0893C204.947 32.1891 202.793 33.7894 201.263 35.9113L202.886 37.0809C204.161 35.3115 205.989 33.9255 208.421 32.944L207.673 31.0893ZM201.263 35.9113C199.752 38.0081 198.691 40.7348 198.039 44.0399L200.001 44.4269C200.617 41.3068 201.592 38.8754 202.886 37.0809L201.263 35.9113ZM198.039 44.0399C197.391 47.3288 197.026 51.3504 196.935 56.0916L198.934 56.1301C199.024 51.4598 199.383 47.5631 200.001 44.4269L198.039 44.0399ZM196.935 56.0914C196.844 60.7603 196.799 66.3552 196.799 72.875H198.799C198.799 66.3635 198.844 60.7823 198.934 56.1303L196.935 56.0914ZM196.799 72.875C196.799 79.3948 196.844 85.0122 196.935 89.7263L198.934 89.6878C198.844 84.9904 198.799 79.3864 198.799 72.875H196.799ZM196.935 89.7361C197.072 94.4307 197.459 98.4259 198.107 101.71L200.069 101.323C199.45 98.1821 199.069 94.3043 198.934 89.6779L196.935 89.7361ZM198.107 101.71C198.758 105.01 199.794 107.732 201.254 109.826L202.895 108.682C201.641 106.884 200.685 104.448 200.069 101.323L198.107 101.71ZM201.263 109.839C202.793 111.961 204.947 113.561 207.673 114.661L208.421 112.806C205.989 111.825 204.161 110.438 202.886 108.669L201.263 109.839ZM207.673 114.661C210.372 115.75 213.733 116.466 217.729 116.833L217.912 114.842C214.035 114.485 210.881 113.799 208.421 112.806L207.673 114.661ZM217.741 116.834C221.758 117.154 226.673 117.312 232.481 117.312V115.312C226.705 115.312 221.846 115.154 217.9 114.841L217.741 116.834ZM232.481 117.312H271.71V115.312H232.481V117.312ZM368.074 29.4375L368.909 28.888L367.074 26.0971V29.4375H368.074ZM368.074 125V126H369.074V125H368.074ZM355.042 125H354.042V126H355.042V125ZM355.042 20.75V19.75H354.042V20.75H355.042ZM376.761 20.75L377.593 20.1957L377.297 19.75H376.761V20.75ZM437.506 111.969L436.673 112.523L437.506 113.773L438.338 112.523L437.506 111.969ZM498.25 20.75V19.75H497.715L497.418 20.1957L498.25 20.75ZM519.019 20.75H520.019V19.75H519.019V20.75ZM519.019 125V126H520.019V125H519.019ZM505.988 125H504.988V126H505.988V125ZM505.988 30.8628H506.988V27.5218L505.152 30.3134L505.988 30.8628ZM444.089 125V126H444.629L444.925 125.549L444.089 125ZM430.922 125L430.087 125.549L430.383 126H430.922V125ZM367.074 29.4375V125H369.074V29.4375H367.074ZM368.074 124H355.042V126H368.074V124ZM356.042 125V20.75H354.042V125H356.042ZM355.042 21.75H376.761V19.75H355.042V21.75ZM375.929 21.3043L436.673 112.523L438.338 111.414L377.593 20.1957L375.929 21.3043ZM438.338 112.523L499.083 21.3043L497.418 20.1957L436.673 111.414L438.338 112.523ZM498.25 21.75H519.019V19.75H498.25V21.75ZM518.019 20.75V125H520.019V20.75H518.019ZM519.019 124H505.988V126H519.019V124ZM506.988 125V30.8628H504.988V125H506.988ZM505.152 30.3134L443.254 124.451L444.925 125.549L506.823 31.4122L505.152 30.3134ZM444.089 124H430.922V126H444.089V124ZM431.758 124.451L368.909 28.888L367.238 29.987L430.087 125.549L431.758 124.451ZM558.981 20.75V19.75H557.981V20.75H558.981ZM572.013 20.75H573.013V19.75H572.013V20.75ZM572.013 125V126H573.013V125H572.013ZM558.981 125H557.981V126H558.981V125ZM558.981 21.75H572.013V19.75H558.981V21.75ZM571.013 20.75V125H573.013V20.75H571.013ZM572.013 124H558.981V126H572.013V124ZM559.981 125V20.75H557.981V125H559.981ZM625.006 125V126H626.006V125H625.006ZM611.975 125H610.975V126H611.975V125ZM611.975 20.75V19.75H610.975V20.75H611.975ZM634.848 20.75L635.538 20.0266L635.248 19.75H634.848V20.75ZM730.41 111.969L729.72 112.692L731.41 114.306V111.969H730.41ZM730.41 20.75V19.75H729.41V20.75H730.41ZM743.441 20.75H744.441V19.75H743.441V20.75ZM743.441 125V126H744.441V125H743.441ZM726.066 125L725.388 125.734L725.675 126H726.066V125ZM625.006 31.6094L625.685 30.8749L624.006 29.3237V31.6094H625.006ZM625.006 124H611.975V126H625.006V124ZM612.975 125V20.75H610.975V125H612.975ZM611.975 21.75H634.848V19.75H611.975V21.75ZM634.157 21.4734L729.72 112.692L731.101 111.245L635.538 20.0266L634.157 21.4734ZM731.41 111.969V20.75H729.41V111.969H731.41ZM730.41 21.75H743.441V19.75H730.41V21.75ZM742.441 20.75V125H744.441V20.75H742.441ZM743.441 124H726.066V126H743.441V124ZM726.745 124.266L625.685 30.8749L624.328 32.3438L725.388 125.734L726.745 124.266ZM624.006 31.6094V125H626.006V31.6094H624.006ZM896.477 53.3281H895.477V54.3281H896.477V53.3281ZM812.181 29.9805L812.262 30.9773L812.272 30.9764L812.181 29.9805ZM792.295 56.1108L793.295 56.1303L793.295 56.1301L792.295 56.1108ZM792.295 89.707L791.295 89.7263L791.296 89.7361L792.295 89.707ZM796.435 109.254L795.615 109.826L795.62 109.832L795.624 109.839L796.435 109.254ZM812.181 115.837L812.09 116.833L812.102 116.834L812.181 115.837ZM894.17 106.675L893.263 106.253L893.259 106.263L894.17 106.675ZM896.002 99.752L896.995 99.8698L896.995 99.8678L896.002 99.752ZM896.477 83.7344H897.477V82.7344H896.477V83.7344ZM844.216 83.7344H843.216V84.7344H844.216V83.7344ZM844.216 72.875V71.875H843.216V72.875H844.216ZM909.508 72.875H910.508V71.875H909.508V72.875ZM908.694 102.06L909.682 102.214L909.682 102.212L908.694 102.06ZM905.776 111.426L904.884 110.973L904.881 110.979L905.776 111.426ZM891.523 123.439L891.861 124.38L891.871 124.376L891.523 123.439ZM878.899 126.222L878.779 125.229L878.77 125.23L878.899 126.222ZM806.684 125.679L806.863 124.695L806.856 124.694L806.684 125.679ZM793.245 121.335L792.754 122.206L792.763 122.211L793.245 121.335ZM785.033 113.869L784.189 114.406L784.195 114.415L785.033 113.869ZM780.825 103.349L779.847 103.558L779.849 103.568L780.825 103.349ZM780.825 42.4009L779.849 42.1816L779.847 42.1921L780.825 42.4009ZM785.033 31.8809L784.195 31.3349L784.189 31.344L785.033 31.8809ZM793.245 24.4829L793.728 25.3587L793.737 25.3539L793.245 24.4829ZM806.684 20.0713L806.856 21.0563L806.863 21.0552L806.684 20.0713ZM878.831 19.5283L878.702 20.5201L878.711 20.5212L878.831 19.5283ZM891.455 22.311L891.117 23.2523L891.128 23.256L891.455 22.311ZM900.21 26.9941L899.574 27.7661L899.582 27.7721L900.21 26.9941ZM905.776 33.7134L904.891 34.1792L904.897 34.1912L905.776 33.7134ZM909.508 53.3281V54.3281H910.508V53.3281H909.508ZM897.477 53.3281C897.477 47.8428 896.885 43.4101 895.65 40.0844L893.775 40.7808C894.893 43.7898 895.477 47.9541 895.477 53.3281H897.477ZM895.65 40.0844C894.4 36.7196 892.313 34.1347 889.39 32.3808L888.361 34.0958C890.868 35.5997 892.672 37.811 893.775 40.7808L895.65 40.0844ZM889.39 32.3808C886.509 30.6521 882.778 29.5831 878.254 29.1214L878.051 31.111C882.394 31.5543 885.813 32.5667 888.361 34.0958L889.39 32.3808ZM878.254 29.1214C873.774 28.6643 868.263 28.4375 861.727 28.4375V30.4375C868.223 30.4375 873.661 30.6632 878.051 31.111L878.254 29.1214ZM861.727 28.4375H826.841V30.4375H861.727V28.4375ZM826.841 28.4375C821.032 28.4375 816.113 28.6189 812.091 28.9846L812.272 30.9764C816.214 30.618 821.068 30.4375 826.841 30.4375V28.4375ZM812.101 28.9837C808.102 29.3054 804.737 29.9984 802.034 31.0893L802.782 32.944C805.237 31.9534 808.387 31.289 812.262 30.9772L812.101 28.9837ZM802.034 31.0893C799.308 32.1891 797.154 33.7894 795.624 35.9113L797.246 37.0809C798.522 35.3115 800.35 33.9255 802.782 32.944L802.034 31.0893ZM795.624 35.9113C794.112 38.0081 793.052 40.7348 792.4 44.0399L794.362 44.4269C794.977 41.3068 795.953 38.8754 797.246 37.0809L795.624 35.9113ZM792.4 44.0399C791.751 47.3288 791.386 51.3504 791.295 56.0916L793.295 56.1301C793.385 51.4598 793.744 47.5631 794.362 44.4269L792.4 44.0399ZM791.295 56.0914C791.205 60.7603 791.159 66.3552 791.159 72.875H793.159C793.159 66.3635 793.205 60.7823 793.295 56.1303L791.295 56.0914ZM791.159 72.875C791.159 79.3948 791.205 85.0122 791.295 89.7263L793.295 89.6878C793.205 84.9904 793.159 79.3864 793.159 72.875H791.159ZM791.296 89.7361C791.432 94.4307 791.82 98.4259 792.468 101.71L794.43 101.323C793.811 98.1821 793.429 94.3043 793.295 89.6779L791.296 89.7361ZM792.468 101.71C793.119 105.01 794.154 107.732 795.615 109.826L797.255 108.682C796.001 106.884 795.046 104.448 794.43 101.323L792.468 101.71ZM795.624 109.839C797.154 111.961 799.308 113.561 802.034 114.661L802.782 112.806C800.35 111.825 798.522 110.438 797.246 108.669L795.624 109.839ZM802.034 114.661C804.732 115.75 808.094 116.466 812.09 116.833L812.273 114.842C808.396 114.485 805.242 113.799 802.782 112.806L802.034 114.661ZM812.102 116.834C816.119 117.154 821.034 117.312 826.841 117.312V115.312C821.066 115.312 816.207 115.154 812.261 114.841L812.102 116.834ZM826.841 117.312H861.795V115.312H826.841V117.312ZM861.795 117.312C866.879 117.312 871.271 117.176 874.968 116.903L874.82 114.908C871.187 115.177 866.847 115.312 861.795 115.312V117.312ZM874.968 116.903C878.677 116.628 881.869 116.122 884.531 115.375L883.99 113.449C881.494 114.15 878.442 114.64 874.82 114.908L874.968 116.903ZM884.531 115.375C887.2 114.626 889.413 113.58 891.129 112.207L889.88 110.645C888.429 111.806 886.479 112.751 883.99 113.449L884.531 115.375ZM891.129 112.207C892.84 110.838 894.158 109.127 895.081 107.087L893.259 106.263C892.462 108.023 891.337 109.479 889.88 110.645L891.129 112.207ZM895.076 107.097C896.036 105.034 896.669 102.619 896.995 99.8698L895.009 99.6341C894.702 102.224 894.114 104.424 893.263 106.253L895.076 107.097ZM896.995 99.8678C897.318 97.1045 897.477 93.8969 897.477 90.25H895.477C895.477 93.8427 895.32 96.9697 895.009 99.6361L896.995 99.8678ZM897.477 90.25V83.7344H895.477V90.25H897.477ZM896.477 82.7344H844.216V84.7344H896.477V82.7344ZM845.216 83.7344V72.875H843.216V83.7344H845.216ZM844.216 73.875H909.508V71.875H844.216V73.875ZM908.508 72.875V90.25H910.508V72.875H908.508ZM908.508 90.25C908.508 94.5533 908.239 98.4379 907.706 101.908L909.682 102.212C910.235 98.6226 910.508 94.6342 910.508 90.25H908.508ZM907.706 101.906C907.177 105.3 906.233 108.319 904.884 110.973L906.667 111.879C908.124 109.013 909.125 105.788 909.682 102.214L907.706 101.906ZM904.881 110.979C903.583 113.575 901.833 115.822 899.625 117.727L900.931 119.242C903.339 117.165 905.253 114.707 906.67 111.873L904.881 110.979ZM899.625 117.727C897.426 119.625 894.617 121.222 891.174 122.502L891.871 124.376C895.487 123.032 898.515 121.326 900.931 119.242L899.625 117.727ZM891.185 122.498C887.744 123.733 883.613 124.647 878.779 125.229L879.018 127.215C883.958 126.62 888.243 125.679 891.861 124.38L891.185 122.498ZM878.77 125.23C873.937 125.856 868.281 126.172 861.795 126.172V128.172C868.341 128.172 874.087 127.854 879.027 127.213L878.77 125.23ZM861.795 126.172H826.841V128.172H861.795V126.172ZM826.841 126.172C818.915 126.172 812.259 125.676 806.863 124.695L806.505 126.663C812.058 127.672 818.841 128.172 826.841 128.172V126.172ZM806.856 124.694C801.498 123.756 797.132 122.336 793.728 120.459L792.763 122.211C796.417 124.225 801.01 125.701 806.511 126.664L806.856 124.694ZM793.737 120.464C790.328 118.541 787.717 116.158 785.871 113.323L784.195 114.415C786.24 117.553 789.104 120.147 792.754 122.206L793.737 120.464ZM785.877 113.332C784.048 110.458 782.684 107.063 781.801 103.13L779.849 103.568C780.775 107.69 782.217 111.308 784.189 114.406L785.877 113.332ZM781.803 103.14C780.958 99.185 780.466 94.7002 780.331 89.6803L778.332 89.7338C778.469 94.8493 778.972 99.4592 779.847 103.558L781.803 103.14ZM780.331 89.6803C780.196 84.6231 780.128 79.0215 780.128 72.875H778.128C778.128 79.0358 778.196 84.6555 778.332 89.7338L780.331 89.6803ZM780.128 72.875C780.128 66.7285 780.196 61.1269 780.331 56.0697L778.332 56.0162C778.196 61.0945 778.128 66.7142 778.128 72.875H780.128ZM780.331 56.0697C780.466 51.0498 780.958 46.565 781.803 42.6097L779.847 42.1921C778.972 46.2908 778.469 50.9007 778.332 56.0162L780.331 56.0697ZM781.801 42.6201C782.684 38.6875 784.048 35.2919 785.877 32.4177L784.189 31.344C782.217 34.4425 780.775 38.0603 779.849 42.1816L781.801 42.6201ZM785.871 32.4267C787.716 29.5949 790.323 27.2356 793.728 25.3587L792.763 23.6072C789.109 25.6215 786.241 28.1941 784.195 31.335L785.871 32.4267ZM793.737 25.3539C797.138 23.435 801.501 21.9935 806.856 21.0563L806.511 19.0863C801.007 20.0495 796.411 21.5491 792.754 23.6119L793.737 25.3539ZM806.863 21.0552C812.259 20.0739 818.915 19.5781 826.841 19.5781V17.5781C818.841 17.5781 812.058 18.0778 806.505 19.0874L806.863 21.0552ZM826.841 19.5781H861.727V17.5781H826.841V19.5781ZM861.727 19.5781C868.213 19.5781 873.869 19.8935 878.702 20.52L878.959 18.5366C874.019 17.8962 868.273 17.5781 861.727 17.5781V19.5781ZM878.711 20.5212C883.545 21.103 887.676 22.0171 891.117 23.2522L891.793 21.3698C888.175 20.0711 883.89 19.1301 878.95 18.5355L878.711 20.5212ZM891.128 23.256C894.572 24.4481 897.378 25.9575 899.574 27.7661L900.846 26.2222C898.427 24.23 895.397 22.6173 891.782 21.366L891.128 23.256ZM899.582 27.7721C901.833 29.5903 903.599 31.725 904.891 34.1791L906.66 33.2476C905.237 30.5435 903.293 28.1988 900.838 26.2162L899.582 27.7721ZM904.897 34.1912C906.24 36.6611 907.181 39.4715 907.708 42.6331L909.68 42.3044C909.121 38.9504 908.116 35.9238 906.654 33.2356L904.897 34.1912ZM907.708 42.6331C908.24 45.8269 908.508 49.3906 908.508 53.3281H910.508C910.508 49.3021 910.234 45.6262 909.68 42.3044L907.708 42.6331ZM909.508 52.3281H896.477V54.3281H909.508V52.3281ZM266.511 267.889L266.191 268.836L266.199 268.839L266.206 268.841L266.511 267.889ZM279.746 278.069L278.855 278.524L278.859 278.531L279.746 278.069ZM281.918 285.399L280.925 285.515L280.926 285.523L280.927 285.532L281.918 285.399ZM281.579 303.182L280.6 302.976L280.598 302.989L281.579 303.182ZM249.272 324.425L249.156 323.432L249.147 323.433L249.272 324.425ZM183.233 322.457L182.951 323.416L182.962 323.419L183.233 322.457ZM174.478 318.588L173.912 319.413L173.923 319.42L174.478 318.588ZM168.913 313.091L168.07 313.629L168.076 313.639L168.083 313.65L168.913 313.091ZM166.062 305.896L165.082 306.093L165.082 306.096L166.062 305.896ZM165.248 296.938V295.938H164.248V296.938H165.248ZM178.279 296.938H179.279V295.938H178.279V296.938ZM185.88 311.733L185.483 312.651L185.496 312.656L185.88 311.733ZM196.536 313.905L196.464 314.903L196.475 314.903L196.536 313.905ZM267.597 303.589L268.498 304.023L268.501 304.017L267.597 303.589ZM268.14 285.06L267.192 285.376L267.194 285.384L267.197 285.392L268.14 285.06ZM263.186 279.223L262.676 280.083L262.683 280.087L263.186 279.223ZM252.801 276.169L252.661 277.159L252.671 277.16L252.801 276.169ZM196.808 274.336L196.704 275.331L196.705 275.331L196.808 274.336ZM182.555 271.825L182.273 272.785L182.283 272.788L182.555 271.825ZM173.324 267.685L172.737 268.495L172.748 268.502L173.324 267.685ZM168.03 261.984L167.155 262.468L167.159 262.475L167.163 262.482L168.03 261.984ZM165.723 254.925L164.732 255.062L164.732 255.064L165.723 254.925ZM165.994 237.618L165.017 237.406L165.015 237.414L165.014 237.422L165.994 237.618ZM169.184 230.288L170 230.866L170.006 230.858L169.184 230.288ZM185.745 220.107L186.007 221.072L186.014 221.07L185.745 220.107ZM251.783 217.325L251.682 218.32L251.691 218.32L251.783 217.325ZM264.407 219.564L264.124 220.524L264.136 220.527L264.407 219.564ZM273.163 223.365L272.608 224.197L272.617 224.204L272.627 224.21L273.163 223.365ZM278.728 228.795L277.885 229.333L277.892 229.343L277.899 229.354L278.728 228.795ZM282.461 244.812V245.812H283.461V244.812H282.461ZM269.43 244.812H268.43V245.812H269.43V244.812ZM261.828 230.084L261.431 231.002L261.444 231.008L261.828 230.084ZM251.105 227.913L251.033 228.91L251.043 228.911L251.105 227.913ZM200.201 228.388L200.306 229.382L200.313 229.381L200.201 228.388ZM180.587 257.165L179.767 257.739L179.778 257.754L179.79 257.769L180.587 257.165ZM202.305 264.02L202.24 265.018L202.252 265.019L202.305 264.02ZM235.223 265.359C242.347 265.359 248.438 265.653 253.502 266.235L253.73 264.248C248.568 263.654 242.397 263.359 235.223 263.359V265.359ZM253.502 266.235C258.57 266.818 262.795 267.689 266.191 268.836L266.831 266.941C263.26 265.735 258.888 264.842 253.73 264.248L253.502 266.235ZM266.206 268.841C269.656 269.947 272.336 271.321 274.29 272.936L275.564 271.394C273.356 269.569 270.425 268.093 266.817 266.936L266.206 268.841ZM274.29 272.936C276.275 274.575 277.791 276.438 278.855 278.524L280.637 277.615C279.439 275.266 277.742 273.193 275.564 271.394L274.29 272.936ZM278.859 278.531C279.928 280.583 280.621 282.907 280.925 285.515L282.911 285.284C282.582 282.462 281.827 279.899 280.633 277.607L278.859 278.531ZM280.927 285.532C281.282 288.196 281.461 291.093 281.461 294.223H283.461C283.461 291.018 283.278 288.032 282.909 285.267L280.927 285.532ZM281.461 294.223C281.461 297.328 281.173 300.245 280.6 302.976L282.557 303.387C283.161 300.507 283.461 297.452 283.461 294.223H281.461ZM280.598 302.989C280.077 305.633 279.126 308.051 277.745 310.252L279.439 311.315C280.955 308.9 281.994 306.251 282.56 303.375L280.598 302.989ZM277.745 310.252C276.373 312.438 274.498 314.406 272.099 316.151L273.276 317.768C275.854 315.893 277.915 313.744 279.439 311.315L277.745 310.252ZM272.099 316.151C269.716 317.884 266.65 319.381 262.873 320.625L263.499 322.525C267.414 321.235 270.682 319.655 273.276 317.768L272.099 316.151ZM262.873 320.625C259.109 321.865 254.541 322.804 249.156 323.432L249.388 325.419C254.863 324.78 259.571 323.818 263.499 322.525L262.873 320.625ZM249.147 323.433C243.815 324.105 237.547 324.443 230.336 324.443V326.443C237.605 326.443 243.96 326.103 249.397 325.417L249.147 323.433ZM230.336 324.443H212.961V326.443H230.336V324.443ZM212.961 324.443C206.469 324.443 200.803 324.195 195.959 323.702L195.756 325.692C200.685 326.194 206.422 326.443 212.961 326.443V324.443ZM195.959 323.702C191.112 323.208 186.964 322.47 183.505 321.495L182.962 323.419C186.562 324.435 190.83 325.19 195.756 325.692L195.959 323.702ZM183.516 321.498C180.054 320.477 177.234 319.224 175.033 317.756L173.923 319.42C176.337 321.029 179.354 322.356 182.951 323.416L183.516 321.498ZM175.044 317.764C172.828 316.243 171.067 314.498 169.742 312.532L168.083 313.65C169.564 315.847 171.513 317.766 173.912 319.413L175.044 317.764ZM169.756 312.553C168.469 310.538 167.562 308.256 167.042 305.697L165.082 306.096C165.648 308.876 166.641 311.391 168.07 313.629L169.756 312.553ZM167.043 305.7C166.515 303.06 166.248 300.141 166.248 296.938H164.248C164.248 300.25 164.524 303.303 165.082 306.093L167.043 305.7ZM165.248 297.938H178.279V295.938H165.248V297.938ZM177.279 296.938C177.279 301.086 177.875 304.455 179.153 306.962L180.934 306.053C179.859 303.944 179.279 300.933 179.279 296.938H177.279ZM179.153 306.962C180.45 309.505 182.587 311.396 185.483 312.651L186.278 310.816C183.744 309.718 181.99 308.125 180.934 306.053L179.153 306.962ZM185.496 312.656C188.347 313.844 192.016 314.582 196.464 314.903L196.608 312.908C192.279 312.595 188.844 311.885 186.265 310.81L185.496 312.656ZM196.475 314.903C200.937 315.177 206.433 315.312 212.961 315.312V313.312C206.457 313.312 201.004 313.177 196.597 312.907L196.475 314.903ZM212.961 315.312H230.336V313.312H212.961V315.312ZM230.336 315.312C237.964 315.312 244.328 314.95 249.415 314.216L249.129 312.237C244.171 312.951 237.911 313.312 230.336 313.312V315.312ZM249.415 314.216C254.5 313.483 258.628 312.306 261.754 310.649L260.817 308.882C257.97 310.392 254.089 311.522 249.129 312.237L249.415 314.216ZM261.754 310.649C264.889 308.986 267.166 306.785 268.498 304.023L266.696 303.155C265.585 305.46 263.654 307.377 260.817 308.882L261.754 310.649ZM268.501 304.017C269.801 301.272 270.43 297.995 270.43 294.223H268.43C268.43 297.78 267.836 300.748 266.694 303.161L268.501 304.017ZM270.43 294.223C270.43 290.488 269.993 287.312 269.084 284.728L267.197 285.392C268.007 287.694 268.43 290.628 268.43 294.223H270.43ZM269.089 284.744C268.188 282.042 266.361 279.914 263.689 278.359L262.683 280.087C264.988 281.429 266.463 283.191 267.192 285.376L269.089 284.744ZM263.695 278.363C261.087 276.817 257.475 275.774 252.932 275.177L252.671 277.16C257.087 277.74 260.397 278.733 262.676 280.083L263.695 278.363ZM252.941 275.179C248.396 274.536 242.485 274.219 235.223 274.219V276.219C242.44 276.219 248.247 276.535 252.661 277.159L252.941 275.179ZM235.223 274.219H217.305V276.219H235.223V274.219ZM217.305 274.219C209.363 274.219 202.567 273.925 196.91 273.342L196.705 275.331C202.451 275.924 209.319 276.219 217.305 276.219V274.219ZM196.911 273.342C191.29 272.757 186.6 271.928 182.827 270.863L182.283 272.788C186.202 273.894 191.013 274.739 196.704 275.331L196.911 273.342ZM182.837 270.866C179.056 269.754 176.09 268.413 173.901 266.868L172.748 268.502C175.174 270.215 178.362 271.634 182.273 272.785L182.837 270.866ZM173.912 266.876C171.7 265.271 170.038 263.472 168.897 261.486L167.163 262.482C168.466 264.749 170.334 266.751 172.737 268.494L173.912 266.876ZM168.905 261.5C167.792 259.488 167.059 257.253 166.713 254.786L164.732 255.064C165.11 257.756 165.916 260.227 167.155 262.468L168.905 261.5ZM166.713 254.789C166.358 252.215 166.18 249.434 166.18 246.441H164.18C164.18 249.512 164.363 252.386 164.732 255.062L166.713 254.789ZM166.18 246.441C166.18 243.331 166.446 240.456 166.975 237.814L165.014 237.422C164.456 240.21 164.18 243.217 164.18 246.441H166.18ZM166.972 237.83C167.533 235.241 168.543 232.923 170 230.866L168.368 229.71C166.748 231.997 165.632 234.566 165.017 237.406L166.972 237.83ZM170.006 230.858C171.457 228.766 173.459 226.885 176.038 225.224L174.955 223.543C172.194 225.321 169.988 227.376 168.363 229.718L170.006 230.858ZM176.038 225.224C178.596 223.576 181.91 222.186 186.007 221.072L185.482 219.142C181.254 220.292 177.735 221.752 174.955 223.543L176.038 225.224ZM186.014 221.07C190.151 219.914 195.136 219.04 200.979 218.455L200.78 216.465C194.86 217.058 189.755 217.948 185.475 219.144L186.014 221.07ZM200.979 218.455C206.82 217.871 213.708 217.578 221.649 217.578V215.578C213.662 215.578 206.705 215.873 200.78 216.465L200.979 218.455ZM221.649 217.578H234.68V215.578H221.649V217.578ZM234.68 217.578C241.172 217.578 246.838 217.826 251.682 218.32L251.885 216.33C246.955 215.828 241.219 215.578 234.68 215.578V217.578ZM251.691 218.32C256.533 218.769 260.674 219.506 264.124 220.524L264.69 218.605C261.082 217.541 256.807 216.786 251.875 216.329L251.691 218.32ZM264.136 220.527C267.595 221.503 270.41 222.732 272.608 224.197L273.717 222.533C271.3 220.922 268.278 219.617 264.679 218.602L264.136 220.527ZM272.627 224.21C274.869 225.633 276.614 227.342 277.885 229.333L279.571 228.257C278.127 225.995 276.162 224.084 273.699 222.521L272.627 224.21ZM277.899 229.354C279.222 231.317 280.148 233.569 280.667 236.121L282.627 235.722C282.06 232.935 281.039 230.435 279.557 228.236L277.899 229.354ZM280.667 236.121C281.194 238.713 281.461 241.609 281.461 244.812H283.461C283.461 241.5 283.185 238.469 282.627 235.722L280.667 236.121ZM282.461 243.812H269.43V245.812H282.461V243.812ZM270.43 244.812C270.43 240.664 269.834 237.295 268.556 234.788L266.774 235.697C267.849 237.806 268.43 240.817 268.43 244.812H270.43ZM268.556 234.788C267.257 232.241 265.115 230.371 262.213 229.161L261.444 231.008C263.971 232.061 265.72 233.629 266.774 235.697L268.556 234.788ZM262.226 229.167C259.365 227.927 255.664 227.19 251.166 226.914L251.043 228.911C255.414 229.178 258.862 229.889 261.431 231.002L262.226 229.167ZM251.176 226.915C246.71 226.596 241.209 226.438 234.68 226.438V228.438C241.181 228.438 246.631 228.596 251.033 228.91L251.176 226.915ZM234.68 226.438H221.649V228.438H234.68V226.438ZM221.649 226.438C212.941 226.438 205.751 226.755 200.089 227.394L200.313 229.381C205.873 228.754 212.981 228.438 221.649 228.438V226.438ZM200.097 227.393C194.435 227.987 189.885 229.02 186.492 230.528L187.305 232.356C190.428 230.968 194.746 229.965 200.306 229.382L200.097 227.393ZM186.492 230.528C183.089 232.041 180.622 234.121 179.224 236.818L180.999 237.739C182.134 235.55 184.192 233.739 187.305 232.356L186.492 230.528ZM179.224 236.818C177.863 239.443 177.211 242.667 177.211 246.441H179.211C179.211 242.886 179.826 240.001 180.999 237.739L179.224 236.818ZM177.211 246.441C177.211 248.748 177.372 250.823 177.702 252.659L179.67 252.305C179.366 250.612 179.211 248.659 179.211 246.441H177.211ZM177.702 252.659C178.042 254.554 178.727 256.253 179.767 257.739L181.406 256.592C180.545 255.362 179.964 253.939 179.67 252.305L177.702 252.659ZM179.79 257.769C180.893 259.223 182.399 260.421 184.27 261.381L185.183 259.601C183.525 258.751 182.271 257.731 181.383 256.561L179.79 257.769ZM184.27 261.381C186.145 262.342 188.572 263.112 191.518 263.71L191.916 261.75C189.071 261.172 186.837 260.449 185.183 259.601L184.27 261.381ZM191.518 263.71C194.472 264.31 198.049 264.745 202.24 265.018L202.37 263.022C198.236 262.752 194.754 262.327 191.916 261.75L191.518 263.71ZM202.252 265.019C206.483 265.246 211.501 265.359 217.305 265.359V263.359C211.525 263.359 206.544 263.246 202.359 263.021L202.252 265.019ZM217.305 265.359H235.223V263.359H217.305V265.359ZM420.769 218.071L420.588 219.055L420.598 219.057L420.769 218.071ZM434.275 222.483L433.784 223.354L433.792 223.359L434.275 222.483ZM446.56 240.401L445.582 240.61L445.584 240.62L446.56 240.401ZM448.121 254.043L447.121 254.07L447.121 254.079L448.121 254.043ZM448.121 287.707L447.121 287.671L447.121 287.68L448.121 287.707ZM446.56 301.349L445.584 301.13L445.582 301.14L446.56 301.349ZM434.275 319.335L434.758 320.211L434.766 320.206L434.275 319.335ZM420.769 323.679L420.598 322.693L420.588 322.695L420.769 323.679ZM341.292 323.679L341.471 322.695L341.464 322.694L341.292 323.679ZM327.853 319.335L327.362 320.206L327.37 320.211L327.853 319.335ZM319.641 311.869L318.797 312.406L318.803 312.415L319.641 311.869ZM315.433 301.349L314.455 301.558L314.457 301.568L315.433 301.349ZM315.433 240.401L314.457 240.182L314.455 240.192L315.433 240.401ZM319.641 229.881L318.803 229.335L318.797 229.344L319.641 229.881ZM327.853 222.483L328.336 223.359L328.345 223.354L327.853 222.483ZM341.292 218.071L341.464 219.056L341.471 219.055L341.292 218.071ZM415.203 313.837L415.284 314.834L415.294 314.833L415.203 313.837ZM431.017 307.254L431.828 307.839L431.017 307.254ZM435.157 287.707L434.158 287.678L434.158 287.688L435.157 287.707ZM435.157 254.111L434.158 254.13L434.158 254.14L435.157 254.111ZM425.045 230.017L424.665 230.942L424.67 230.944L425.045 230.017ZM415.271 227.98L415.18 228.976L415.192 228.977L415.271 227.98ZM346.789 227.98L346.869 228.977L346.88 228.976L346.789 227.98ZM326.903 254.111L327.903 254.13L327.903 254.13L326.903 254.111ZM326.903 287.707L325.903 287.726L325.903 287.736L326.903 287.707ZM331.043 307.254L330.223 307.826L330.227 307.832L330.232 307.839L331.043 307.254ZM346.789 313.837L346.698 314.833L346.71 314.834L346.789 313.837ZM400.679 217.578C408.606 217.578 415.238 218.074 420.588 219.055L420.949 217.088C415.44 216.078 408.679 215.578 400.679 215.578V217.578ZM420.598 219.057C425.999 219.994 430.383 221.436 433.784 223.354L434.766 221.612C431.108 219.548 426.488 218.049 420.94 217.086L420.598 219.057ZM433.792 223.359C437.195 225.235 439.777 227.591 441.576 230.418L443.263 229.344C441.261 226.198 438.413 223.622 434.758 221.607L433.792 223.359ZM441.576 230.418C443.403 233.289 444.743 236.68 445.582 240.61L447.538 240.192C446.657 236.067 445.237 232.446 443.263 229.344L441.576 230.418ZM445.584 240.62C446.472 244.572 446.987 249.053 447.121 254.07L449.12 254.016C448.983 248.898 448.457 244.284 447.535 240.182L445.584 240.62ZM447.121 254.079C447.302 259.132 447.392 264.731 447.392 270.875H449.392C449.392 264.712 449.302 259.089 449.12 254.007L447.121 254.079ZM447.392 270.875C447.392 277.019 447.302 282.618 447.121 287.671L449.12 287.743C449.302 282.661 449.392 277.038 449.392 270.875H447.392ZM447.121 287.68C446.987 292.697 446.472 297.178 445.584 301.13L447.535 301.568C448.457 297.466 448.983 292.852 449.12 287.734L447.121 287.68ZM445.582 301.14C444.743 305.07 443.403 308.461 441.576 311.332L443.263 312.406C445.237 309.304 446.657 305.683 447.538 301.558L445.582 301.14ZM441.576 311.332C439.776 314.161 437.191 316.542 433.784 318.464L434.766 320.206C438.418 318.146 441.263 315.55 443.263 312.406L441.576 311.332ZM433.792 318.459C430.389 320.335 426.002 321.756 420.598 322.693L420.94 324.664C426.486 323.701 431.102 322.226 434.758 320.211L433.792 318.459ZM420.588 322.695C415.238 323.676 408.606 324.172 400.679 324.172V326.172C408.679 326.172 415.44 325.672 420.949 324.662L420.588 322.695ZM400.679 324.172H361.449V326.172H400.679V324.172ZM361.449 324.172C353.523 324.172 346.867 323.676 341.471 322.695L341.113 324.663C346.666 325.672 353.449 326.172 361.449 326.172V324.172ZM341.464 322.694C336.106 321.756 331.74 320.336 328.336 318.459L327.37 320.211C331.025 322.225 335.618 323.701 341.119 324.664L341.464 322.694ZM328.345 318.464C324.936 316.541 322.325 314.158 320.479 311.323L318.803 312.415C320.848 315.553 323.712 318.147 327.362 320.206L328.345 318.464ZM320.484 311.332C318.655 308.458 317.292 305.063 316.408 301.13L314.457 301.568C315.383 305.69 316.825 309.308 318.797 312.406L320.484 311.332ZM316.411 301.14C315.566 297.185 315.074 292.7 314.939 287.68L312.94 287.734C313.077 292.849 313.58 297.459 314.455 301.558L316.411 301.14ZM314.939 287.68C314.804 282.623 314.736 277.022 314.736 270.875H312.736C312.736 277.036 312.804 282.656 312.94 287.734L314.939 287.68ZM314.736 270.875C314.736 264.728 314.804 259.127 314.939 254.07L312.94 254.016C312.804 259.094 312.736 264.714 312.736 270.875H314.736ZM314.939 254.07C315.074 249.05 315.566 244.565 316.411 240.61L314.455 240.192C313.58 244.291 313.077 248.901 312.94 254.016L314.939 254.07ZM316.408 240.62C317.292 236.687 318.655 233.292 320.484 230.418L318.797 229.344C316.825 232.442 315.383 236.06 314.457 240.182L316.408 240.62ZM320.479 230.427C322.324 227.595 324.931 225.236 328.336 223.359L327.37 221.607C323.717 223.622 320.849 226.194 318.803 229.335L320.479 230.427ZM328.345 223.354C331.746 221.435 336.109 219.993 341.464 219.056L341.119 217.086C335.615 218.049 331.019 219.549 327.362 221.612L328.345 223.354ZM341.471 219.055C346.867 218.074 353.523 217.578 361.449 217.578V215.578C353.449 215.578 346.666 216.078 341.113 217.087L341.471 219.055ZM361.449 217.578H400.679V215.578H361.449V217.578ZM400.679 315.312C406.441 315.312 411.311 315.154 415.284 314.834L415.123 312.841C411.222 313.154 406.409 313.312 400.679 313.312V315.312ZM415.294 314.833C419.334 314.466 422.719 313.75 425.419 312.661L424.67 310.806C422.212 311.798 419.036 312.485 415.113 312.842L415.294 314.833ZM425.419 312.661C428.145 311.561 430.299 309.961 431.828 307.839L430.206 306.669C428.931 308.438 427.103 309.825 424.67 310.806L425.419 312.661ZM431.828 307.839C433.34 305.742 434.401 303.015 435.053 299.71L433.09 299.323C432.475 302.443 431.5 304.875 430.206 306.669L431.828 307.839ZM435.053 299.71C435.701 296.422 436.066 292.423 436.157 287.726L434.158 287.688C434.068 292.312 433.709 296.186 433.09 299.323L435.053 299.71ZM436.157 287.736C436.293 283.018 436.361 277.397 436.361 270.875H434.361C434.361 277.384 434.293 282.985 434.158 287.678L436.157 287.736ZM436.361 270.875C436.361 264.353 436.293 258.755 436.157 254.082L434.158 254.14C434.293 258.788 434.361 264.366 434.361 270.875H436.361ZM436.157 254.092C436.066 249.35 435.701 245.329 435.053 242.04L433.09 242.427C433.709 245.563 434.068 249.46 434.158 254.13L436.157 254.092ZM435.053 242.04C434.401 238.735 433.34 236.008 431.828 233.911L430.206 235.081C431.5 236.875 432.475 239.307 433.09 242.427L435.053 242.04ZM431.828 233.911C430.299 231.789 428.145 230.189 425.419 229.089L424.67 230.944C427.103 231.925 428.931 233.312 430.206 235.081L431.828 233.911ZM425.425 229.092C422.762 227.998 419.393 227.305 415.35 226.984L415.192 228.977C419.113 229.289 422.26 229.954 424.665 230.942L425.425 229.092ZM415.363 226.985C411.385 226.619 406.488 226.438 400.679 226.438V228.438C406.453 228.438 411.284 228.618 415.18 228.976L415.363 226.985ZM400.679 226.438H361.449V228.438H400.679V226.438ZM361.449 226.438C355.64 226.438 350.721 226.619 346.699 226.985L346.88 228.976C350.821 228.618 355.676 228.438 361.449 228.438V226.438ZM346.709 226.984C342.71 227.305 339.345 227.998 336.642 229.089L337.39 230.944C339.845 229.953 342.995 229.289 346.869 228.977L346.709 226.984ZM336.642 229.089C333.916 230.189 331.762 231.789 330.232 233.911L331.854 235.081C333.13 233.312 334.957 231.925 337.39 230.944L336.642 229.089ZM330.232 233.911C328.72 236.008 327.66 238.735 327.008 242.04L328.97 242.427C329.585 239.307 330.561 236.875 331.854 235.081L330.232 233.911ZM327.008 242.04C326.359 245.329 325.994 249.35 325.903 254.092L327.903 254.13C327.993 249.46 328.352 245.563 328.97 242.427L327.008 242.04ZM325.903 254.091C325.813 258.76 325.767 264.355 325.767 270.875H327.767C327.767 264.364 327.812 258.782 327.903 254.13L325.903 254.091ZM325.767 270.875C325.767 277.395 325.813 283.012 325.903 287.726L327.903 287.688C327.812 282.99 327.767 277.386 327.767 270.875H325.767ZM325.903 287.736C326.04 292.431 326.428 296.426 327.076 299.71L329.038 299.323C328.419 296.182 328.037 292.304 327.903 287.678L325.903 287.736ZM327.076 299.71C327.726 303.01 328.762 305.732 330.223 307.826L331.863 306.682C330.609 304.884 329.654 302.448 329.038 299.323L327.076 299.71ZM330.232 307.839C331.762 309.961 333.916 311.561 336.642 312.661L337.39 310.806C334.957 309.825 333.13 308.438 331.854 306.669L330.232 307.839ZM336.642 312.661C339.34 313.75 342.701 314.466 346.698 314.833L346.881 312.842C343.004 312.485 339.85 311.799 337.39 310.806L336.642 312.661ZM346.71 314.834C350.727 315.154 355.642 315.312 361.449 315.312V313.312C355.674 313.312 350.815 313.154 346.869 312.841L346.71 314.834ZM361.449 315.312H400.679V313.312H361.449V315.312ZM586.7 218.071L586.52 219.055L586.529 219.057L586.7 218.071ZM600.206 222.483L599.715 223.354L599.724 223.359L600.206 222.483ZM612.491 240.401L611.513 240.61L611.515 240.62L612.491 240.401ZM614.052 254.043L613.052 254.07L613.053 254.079L614.052 254.043ZM614.052 287.707L613.053 287.671L613.052 287.68L614.052 287.707ZM612.491 301.349L611.515 301.13L611.513 301.14L612.491 301.349ZM600.206 319.335L600.689 320.211L600.698 320.206L600.206 319.335ZM586.7 323.679L586.529 322.693L586.52 322.695L586.7 323.679ZM507.223 323.679L507.402 322.695L507.395 322.694L507.223 323.679ZM493.784 319.335L493.293 320.206L493.302 320.211L493.784 319.335ZM485.572 311.869L484.728 312.406L484.734 312.415L485.572 311.869ZM481.364 301.349L480.386 301.558L480.388 301.568L481.364 301.349ZM481.364 240.401L480.388 240.182L480.386 240.192L481.364 240.401ZM485.572 229.881L484.734 229.335L484.728 229.344L485.572 229.881ZM493.784 222.483L494.267 223.359L494.276 223.354L493.784 222.483ZM507.223 218.071L507.395 219.056L507.402 219.055L507.223 218.071ZM581.135 313.837L581.215 314.834L581.225 314.833L581.135 313.837ZM596.949 307.254L597.76 307.839L596.949 307.254ZM601.089 287.707L600.089 287.678L600.089 287.688L601.089 287.707ZM601.089 254.111L600.089 254.13L600.089 254.14L601.089 254.111ZM590.976 230.017L590.596 230.942L590.602 230.944L590.976 230.017ZM581.202 227.98L581.111 228.976L581.123 228.977L581.202 227.98ZM512.72 227.98L512.801 228.977L512.811 228.976L512.72 227.98ZM492.834 254.111L493.834 254.13L493.834 254.13L492.834 254.111ZM492.834 287.707L491.834 287.726L491.835 287.736L492.834 287.707ZM496.974 307.254L496.154 307.826L496.159 307.832L496.163 307.839L496.974 307.254ZM512.72 313.837L512.629 314.833L512.641 314.834L512.72 313.837ZM566.61 217.578C574.537 217.578 581.169 218.074 586.52 219.055L586.88 217.088C581.371 216.078 574.61 215.578 566.61 215.578V217.578ZM586.529 219.057C591.93 219.994 596.315 221.436 599.715 223.354L600.698 221.612C597.04 219.548 592.42 218.049 586.871 217.086L586.529 219.057ZM599.724 223.359C603.127 225.235 605.709 227.591 607.507 230.418L609.195 229.344C607.192 226.198 604.345 223.622 600.689 221.607L599.724 223.359ZM607.507 230.418C609.334 233.289 610.674 236.68 611.513 240.61L613.469 240.192C612.588 236.067 611.168 232.446 609.195 229.344L607.507 230.418ZM611.515 240.62C612.403 244.572 612.918 249.053 613.052 254.07L615.052 254.016C614.915 248.898 614.389 244.284 613.467 240.182L611.515 240.62ZM613.053 254.079C613.233 259.132 613.324 264.731 613.324 270.875H615.324C615.324 264.712 615.233 259.089 615.051 254.007L613.053 254.079ZM613.324 270.875C613.324 277.019 613.233 282.618 613.053 287.671L615.051 287.743C615.233 282.661 615.324 277.038 615.324 270.875H613.324ZM613.052 287.68C612.918 292.697 612.403 297.178 611.515 301.13L613.467 301.568C614.389 297.466 614.915 292.852 615.052 287.734L613.052 287.68ZM611.513 301.14C610.674 305.07 609.334 308.461 607.507 311.332L609.195 312.406C611.168 309.304 612.588 305.683 613.469 301.558L611.513 301.14ZM607.507 311.332C605.707 314.161 603.122 316.542 599.715 318.464L600.698 320.206C604.349 318.146 607.194 315.55 609.195 312.406L607.507 311.332ZM599.724 318.459C596.32 320.335 591.933 321.756 586.529 322.693L586.871 324.664C592.417 323.701 597.034 322.226 600.689 320.211L599.724 318.459ZM586.52 322.695C581.169 323.676 574.537 324.172 566.61 324.172V326.172C574.61 326.172 581.371 325.672 586.88 324.662L586.52 322.695ZM566.61 324.172H527.381V326.172H566.61V324.172ZM527.381 324.172C519.454 324.172 512.799 323.676 507.402 322.695L507.044 324.663C512.597 325.672 519.38 326.172 527.381 326.172V324.172ZM507.395 322.694C502.037 321.756 497.672 320.336 494.267 318.459L493.302 320.211C496.956 322.225 501.549 323.701 507.051 324.664L507.395 322.694ZM494.276 318.464C490.867 316.541 488.256 314.158 486.41 311.323L484.734 312.415C486.779 315.553 489.643 318.147 493.293 320.206L494.276 318.464ZM486.416 311.332C484.587 308.458 483.223 305.063 482.34 301.13L480.388 301.568C481.315 305.69 482.757 309.308 484.728 312.406L486.416 311.332ZM482.342 301.14C481.498 297.185 481.005 292.7 480.871 287.68L478.871 287.734C479.008 292.849 479.511 297.459 480.386 301.558L482.342 301.14ZM480.871 287.68C480.735 282.623 480.667 277.022 480.667 270.875H478.667C478.667 277.036 478.735 282.656 478.871 287.734L480.871 287.68ZM480.667 270.875C480.667 264.728 480.735 259.127 480.871 254.07L478.871 254.016C478.735 259.094 478.667 264.714 478.667 270.875H480.667ZM480.871 254.07C481.005 249.05 481.498 244.565 482.342 240.61L480.386 240.192C479.511 244.291 479.008 248.901 478.871 254.016L480.871 254.07ZM482.34 240.62C483.223 236.687 484.587 233.292 486.416 230.418L484.728 229.344C482.757 232.442 481.315 236.06 480.388 240.182L482.34 240.62ZM486.41 230.427C488.255 227.595 490.863 225.236 494.267 223.359L493.302 221.607C489.648 223.622 486.78 226.194 484.734 229.335L486.41 230.427ZM494.276 223.354C497.677 221.435 502.04 219.993 507.395 219.056L507.051 217.086C501.546 218.049 496.95 219.549 493.293 221.612L494.276 223.354ZM507.402 219.055C512.799 218.074 519.454 217.578 527.381 217.578V215.578C519.38 215.578 512.597 216.078 507.044 217.087L507.402 219.055ZM527.381 217.578H566.61V215.578H527.381V217.578ZM566.61 315.312C572.372 315.312 577.243 315.154 581.215 314.834L581.054 312.841C577.153 313.154 572.341 313.312 566.61 313.312V315.312ZM581.225 314.833C585.266 314.466 588.65 313.75 591.35 312.661L590.602 310.806C588.143 311.798 584.967 312.485 581.044 312.842L581.225 314.833ZM591.35 312.661C594.076 311.561 596.23 309.961 597.76 307.839L596.137 306.669C594.862 308.438 593.034 309.825 590.602 310.806L591.35 312.661ZM597.76 307.839C599.271 305.742 600.332 303.015 600.984 299.71L599.022 299.323C598.406 302.443 597.431 304.875 596.137 306.669L597.76 307.839ZM600.984 299.71C601.632 296.422 601.997 292.423 602.088 287.726L600.089 287.688C599.999 292.312 599.64 296.186 599.022 299.323L600.984 299.71ZM602.088 287.736C602.224 283.018 602.292 277.397 602.292 270.875H600.292C600.292 277.384 600.224 282.985 600.089 287.678L602.088 287.736ZM602.292 270.875C602.292 264.353 602.224 258.755 602.088 254.082L600.089 254.14C600.224 258.788 600.292 264.366 600.292 270.875H602.292ZM602.088 254.092C601.997 249.35 601.632 245.329 600.984 242.04L599.022 242.427C599.64 245.563 599.999 249.46 600.089 254.13L602.088 254.092ZM600.984 242.04C600.332 238.735 599.271 236.008 597.76 233.911L596.137 235.081C597.431 236.875 598.406 239.307 599.022 242.427L600.984 242.04ZM597.76 233.911C596.23 231.789 594.076 230.189 591.35 229.089L590.602 230.944C593.034 231.925 594.862 233.312 596.137 235.081L597.76 233.911ZM591.356 229.092C588.693 227.998 585.324 227.305 581.282 226.984L581.123 228.977C585.044 229.289 588.191 229.954 590.596 230.942L591.356 229.092ZM581.294 226.985C577.317 226.619 572.42 226.438 566.61 226.438V228.438C572.384 228.438 577.215 228.618 581.111 228.976L581.294 226.985ZM566.61 226.438H527.381V228.438H566.61V226.438ZM527.381 226.438C521.571 226.438 516.652 226.619 512.63 226.985L512.811 228.976C516.753 228.618 521.607 228.438 527.381 228.438V226.438ZM512.64 226.984C508.642 227.305 505.276 227.998 502.573 229.089L503.321 230.944C505.776 229.953 508.926 229.289 512.801 228.977L512.64 226.984ZM502.573 229.089C499.847 230.189 497.693 231.789 496.163 233.911L497.786 235.081C499.061 233.312 500.889 231.925 503.321 230.944L502.573 229.089ZM496.163 233.911C494.652 236.008 493.591 238.735 492.939 242.04L494.901 242.427C495.517 239.307 496.492 236.875 497.786 235.081L496.163 233.911ZM492.939 242.04C492.291 245.329 491.926 249.35 491.834 254.092L493.834 254.13C493.924 249.46 494.283 245.563 494.901 242.427L492.939 242.04ZM491.834 254.091C491.744 258.76 491.699 264.355 491.699 270.875H493.699C493.699 264.364 493.744 258.782 493.834 254.13L491.834 254.091ZM491.699 270.875C491.699 277.395 491.744 283.012 491.834 287.726L493.834 287.688C493.744 282.99 493.699 277.386 493.699 270.875H491.699ZM491.835 287.736C491.971 292.431 492.359 296.426 493.007 299.71L494.969 299.323C494.35 296.182 493.969 292.304 493.834 287.678L491.835 287.736ZM493.007 299.71C493.658 303.01 494.693 305.732 496.154 307.826L497.795 306.682C496.541 304.884 495.585 302.448 494.969 299.323L493.007 299.71ZM496.163 307.839C497.693 309.961 499.847 311.561 502.573 312.661L503.321 310.806C500.889 309.825 499.061 308.438 497.786 306.669L496.163 307.839ZM502.573 312.661C505.272 313.75 508.633 314.466 512.629 314.833L512.812 312.842C508.935 312.485 505.781 311.799 503.321 310.806L502.573 312.661ZM512.641 314.834C516.658 315.154 521.573 315.312 527.381 315.312V313.312C521.605 313.312 516.746 313.154 512.8 312.841L512.641 314.834ZM527.381 315.312H566.61V313.312H527.381V315.312ZM662.974 323V324H663.974V323H662.974ZM649.942 323H648.942V324H649.942V323ZM649.942 218.75V217.75H648.942V218.75H649.942ZM672.815 218.75L673.505 218.027L673.215 217.75H672.815V218.75ZM768.377 309.969L767.687 310.692L769.377 312.306V309.969H768.377ZM768.377 218.75V217.75H767.377V218.75H768.377ZM781.409 218.75H782.409V217.75H781.409V218.75ZM781.409 323V324H782.409V323H781.409ZM764.034 323L763.355 323.734L763.642 324H764.034V323ZM662.974 229.609L663.652 228.875L661.974 227.324V229.609H662.974ZM662.974 322H649.942V324H662.974V322ZM650.942 323V218.75H648.942V323H650.942ZM649.942 219.75H672.815V217.75H649.942V219.75ZM672.124 219.473L767.687 310.692L769.068 309.245L673.505 218.027L672.124 219.473ZM769.377 309.969V218.75H767.377V309.969H769.377ZM768.377 219.75H781.409V217.75H768.377V219.75ZM780.409 218.75V323H782.409V218.75H780.409ZM781.409 322H764.034V324H781.409V322ZM764.712 322.266L663.652 228.875L662.295 230.344L763.355 323.734L764.712 322.266ZM661.974 229.609V323H663.974V229.609H661.974Z" fill="white" mask="url(#path-1-outside-1_4030_239)"/>
<path d="M135.393 57.9189C135.393 52.4893 134.805 48.1908 133.629 45.0234C132.452 41.8561 130.507 39.458 127.792 37.8291C125.077 36.2002 121.502 35.1595 117.068 34.707C112.679 34.2546 107.227 34.0283 100.711 34.0283H70.237C64.4453 34.0283 59.5586 34.2093 55.5768 34.5713C51.6403 34.888 48.3825 35.5667 45.8034 36.6074C43.2243 37.6481 41.2334 39.1413 39.8307 41.0869C38.4281 43.0326 37.41 45.6117 36.7766 48.8242C36.1431 52.0368 35.7811 55.9959 35.6906 60.7017C35.6001 65.3621 35.5549 70.9502 35.5549 77.4658C35.5549 83.9814 35.6001 89.5921 35.6906 94.2979C35.8264 98.9583 36.211 102.895 36.8444 106.107C37.4779 109.32 38.4733 111.899 39.8307 113.845C41.2334 115.79 43.2243 117.284 45.8034 118.324C48.3825 119.365 51.6403 120.066 55.5768 120.428C59.5586 120.745 64.4453 120.903 70.237 120.903H100.711C105.779 120.903 110.145 120.768 113.81 120.496C117.475 120.225 120.597 119.727 123.176 119.003C125.756 118.279 127.837 117.284 129.421 116.017C131.004 114.75 132.226 113.166 133.086 111.266C133.991 109.32 134.601 107.012 134.918 104.343C135.235 101.628 135.393 98.4606 135.393 94.8408H148.424C148.424 99.1846 148.153 103.121 147.61 106.65C147.067 110.134 146.094 113.257 144.692 116.017C143.334 118.731 141.502 121.084 139.194 123.075C136.886 125.066 133.968 126.718 130.439 128.03C126.909 129.297 122.701 130.224 117.815 130.812C112.928 131.446 107.227 131.763 100.711 131.763H70.237C62.2735 131.763 55.5542 131.265 50.0793 130.27C44.6496 129.319 40.1701 127.871 36.6408 125.926C33.1115 123.935 30.374 121.446 28.4284 118.46C26.528 115.474 25.1253 111.967 24.2204 107.94C23.3607 103.913 22.863 99.3656 22.7272 94.2979C22.5915 89.2301 22.5236 83.6195 22.5236 77.4658C22.5236 71.3122 22.5915 65.7015 22.7272 60.6338C22.863 55.5661 23.3607 51.0187 24.2204 46.9917C25.1253 42.9647 26.528 39.458 28.4284 36.4717C30.374 33.4854 33.1115 31.0194 36.6408 29.0737C40.1701 27.0828 44.6496 25.6123 50.0793 24.6621C55.5542 23.6667 62.2735 23.1689 70.237 23.1689H100.711C107.227 23.1689 112.928 23.4857 117.815 24.1191C122.701 24.7074 126.909 25.6349 130.439 26.9019C133.968 28.1235 136.886 29.6846 139.194 31.585C141.502 33.4854 143.334 35.7251 144.692 38.3042C146.094 40.8833 147.067 43.8018 147.61 47.0596C148.153 50.3174 148.424 53.9372 148.424 57.9189H135.393ZM266.71 23.1689C274.674 23.1689 281.37 23.6667 286.8 24.6621C292.275 25.6123 296.777 27.0828 300.306 29.0737C303.836 31.0194 306.551 33.4854 308.451 36.4717C310.351 39.458 311.731 42.9647 312.591 46.9917C313.496 51.0187 314.016 55.5661 314.152 60.6338C314.333 65.7015 314.424 71.3122 314.424 77.4658C314.424 83.6195 314.333 89.2301 314.152 94.2979C314.016 99.3656 313.496 103.913 312.591 107.94C311.731 111.967 310.351 115.474 308.451 118.46C306.551 121.446 303.836 123.935 300.306 125.926C296.777 127.871 292.275 129.319 286.8 130.27C281.37 131.265 274.674 131.763 266.71 131.763H227.481C219.517 131.763 212.798 131.265 207.323 130.27C201.893 129.319 197.414 127.871 193.885 125.926C190.355 123.935 187.618 121.446 185.672 118.46C183.772 115.474 182.369 111.967 181.464 107.94C180.604 103.913 180.107 99.3656 179.971 94.2979C179.835 89.2301 179.767 83.6195 179.767 77.4658C179.767 71.3122 179.835 65.7015 179.971 60.6338C180.107 55.5661 180.604 51.0187 181.464 46.9917C182.369 42.9647 183.772 39.458 185.672 36.4717C187.618 33.4854 190.355 31.0194 193.885 29.0737C197.414 27.0828 201.893 25.6123 207.323 24.6621C212.798 23.6667 219.517 23.1689 227.481 23.1689H266.71ZM266.71 120.903C272.457 120.903 277.298 120.745 281.235 120.428C285.216 120.066 288.497 119.365 291.076 118.324C293.655 117.284 295.646 115.79 297.049 113.845C298.451 111.899 299.469 109.32 300.103 106.107C300.736 102.895 301.098 98.9583 301.189 94.2979C301.324 89.5921 301.392 83.9814 301.392 77.4658C301.392 70.9502 301.324 65.3621 301.189 60.7017C301.098 55.9959 300.736 52.0368 300.103 48.8242C299.469 45.6117 298.451 43.0326 297.049 41.0869C295.646 39.1413 293.655 37.6481 291.076 36.6074C288.542 35.5667 285.284 34.888 281.303 34.5713C277.366 34.2093 272.502 34.0283 266.71 34.0283H227.481C221.689 34.0283 216.802 34.2093 212.821 34.5713C208.884 34.888 205.626 35.5667 203.047 36.6074C200.468 37.6481 198.477 39.1413 197.074 41.0869C195.672 43.0326 194.654 45.6117 194.02 48.8242C193.387 52.0368 193.025 55.9959 192.934 60.7017C192.844 65.3621 192.799 70.9502 192.799 77.4658C192.799 83.9814 192.844 89.5921 192.934 94.2979C193.07 98.9583 193.455 102.895 194.088 106.107C194.722 109.32 195.717 111.899 197.074 113.845C198.477 115.79 200.468 117.284 203.047 118.324C205.626 119.365 208.884 120.066 212.821 120.428C216.802 120.745 221.689 120.903 227.481 120.903H266.71ZM363.074 34.0283V129.591H350.042V25.3408H371.761L432.506 116.56L493.25 25.3408H514.019V129.591H500.988V35.4536L439.089 129.591H425.922L363.074 34.0283ZM553.981 25.3408H567.013V129.591H553.981V25.3408ZM620.006 129.591H606.975V25.3408H629.848L725.41 116.56V25.3408H738.441V129.591H721.066L620.006 36.2002V129.591ZM891.477 57.9189C891.477 52.4893 890.889 48.1908 889.713 45.0234C888.536 41.8561 886.591 39.458 883.876 37.8291C881.161 36.2002 877.586 35.1595 873.152 34.707C868.718 34.2546 863.243 34.0283 856.727 34.0283H821.841C816.05 34.0283 811.163 34.2093 807.181 34.5713C803.245 34.888 799.987 35.5667 797.408 36.6074C794.829 37.6481 792.838 39.1413 791.435 41.0869C790.033 43.0326 789.015 45.6117 788.381 48.8242C787.748 52.0368 787.386 55.9959 787.295 60.7017C787.205 65.3621 787.159 70.9502 787.159 77.4658C787.159 83.9814 787.205 89.5921 787.295 94.2979C787.431 98.9583 787.815 102.895 788.449 106.107C789.082 109.32 790.078 111.899 791.435 113.845C792.838 115.79 794.829 117.284 797.408 118.324C799.987 119.365 803.245 120.066 807.181 120.428C811.163 120.745 816.05 120.903 821.841 120.903H856.795C861.863 120.903 866.229 120.768 869.894 120.496C873.559 120.225 876.681 119.727 879.26 119.003C881.84 118.279 883.921 117.284 885.505 116.017C887.088 114.75 888.31 113.166 889.17 111.266C890.075 109.32 890.685 107.012 891.002 104.343C891.319 101.628 891.477 98.4606 891.477 94.8408V88.3252H839.216V77.4658H904.508V94.8408C904.508 99.1846 904.237 103.121 903.694 106.65C903.151 110.134 902.178 113.257 900.776 116.017C899.418 118.731 897.586 121.084 895.278 123.075C892.97 125.066 890.052 126.718 886.523 128.03C882.993 129.297 878.785 130.224 873.899 130.812C869.012 131.446 863.311 131.763 856.795 131.763H821.841C813.878 131.763 807.159 131.265 801.684 130.27C796.254 129.319 791.775 127.871 788.245 125.926C784.716 123.935 781.979 121.446 780.033 118.46C778.133 115.474 776.73 111.967 775.825 107.94C774.965 103.913 774.467 99.3656 774.332 94.2979C774.196 89.2301 774.128 83.6195 774.128 77.4658C774.128 71.3122 774.196 65.7015 774.332 60.6338C774.467 55.5661 774.965 51.0187 775.825 46.9917C776.73 42.9647 778.133 39.458 780.033 36.4717C781.979 33.4854 784.716 31.0194 788.245 29.0737C791.775 27.0828 796.254 25.6123 801.684 24.6621C807.159 23.6667 813.878 23.1689 821.841 23.1689H856.727C863.243 23.1689 868.944 23.4857 873.831 24.1191C878.717 24.7074 882.925 25.6349 886.455 26.9019C889.984 28.1235 892.903 29.6846 895.21 31.585C897.563 33.4854 899.418 35.7251 900.776 38.3042C902.178 40.8833 903.151 43.8018 903.694 47.0596C904.237 50.3174 904.508 53.9372 904.508 57.9189H891.477ZM230.223 268.95C237.372 268.95 243.503 269.244 248.616 269.833C253.729 270.421 258.027 271.303 261.511 272.479C265.041 273.611 267.846 275.036 269.927 276.755C272.009 278.475 273.615 280.443 274.746 282.66C275.877 284.832 276.601 287.275 276.918 289.99C277.28 292.705 277.461 295.646 277.461 298.813C277.461 301.981 277.167 304.967 276.579 307.772C276.036 310.533 275.04 313.066 273.592 315.374C272.144 317.682 270.176 319.74 267.688 321.55C265.199 323.36 262.032 324.899 258.186 326.166C254.34 327.432 249.702 328.383 244.272 329.016C238.888 329.695 232.576 330.034 225.336 330.034H207.961C201.445 330.034 195.744 329.785 190.858 329.288C185.971 328.79 181.763 328.043 178.233 327.048C174.704 326.007 171.786 324.718 169.478 323.179C167.171 321.596 165.315 319.763 163.913 317.682C162.555 315.555 161.605 313.157 161.062 310.487C160.519 307.772 160.248 304.786 160.248 301.528H173.279C173.279 305.601 173.867 308.791 175.044 311.098C176.22 313.406 178.166 315.148 180.88 316.324C183.595 317.455 187.147 318.179 191.536 318.496C195.97 318.768 201.445 318.903 207.961 318.903H225.336C232.938 318.903 239.25 318.541 244.272 317.817C249.295 317.093 253.299 315.94 256.285 314.356C259.272 312.772 261.376 310.714 262.597 308.18C263.819 305.601 264.43 302.479 264.43 298.813C264.43 295.148 264 292.094 263.14 289.651C262.326 287.208 260.674 285.262 258.186 283.814C255.742 282.366 252.281 281.348 247.801 280.76C243.322 280.126 237.462 279.81 230.223 279.81H212.305C204.341 279.81 197.509 279.515 191.808 278.927C186.152 278.339 181.401 277.502 177.555 276.416C173.709 275.285 170.632 273.905 168.324 272.276C166.017 270.602 164.252 268.701 163.03 266.575C161.854 264.448 161.085 262.095 160.723 259.516C160.361 256.892 160.18 254.064 160.18 251.032C160.18 247.865 160.451 244.924 160.994 242.209C161.582 239.494 162.646 237.051 164.184 234.879C165.723 232.662 167.827 230.694 170.496 228.974C173.166 227.255 176.582 225.829 180.745 224.698C184.953 223.522 189.998 222.639 195.88 222.051C201.762 221.463 208.685 221.169 216.649 221.169H229.68C236.195 221.169 241.897 221.418 246.783 221.916C251.67 222.368 255.878 223.115 259.407 224.155C262.937 225.151 265.855 226.418 268.163 227.956C270.516 229.449 272.371 231.259 273.728 233.386C275.131 235.467 276.104 237.843 276.647 240.512C277.19 243.182 277.461 246.146 277.461 249.403H264.43C264.43 245.331 263.842 242.141 262.665 239.833C261.489 237.526 259.543 235.806 256.828 234.675C254.113 233.499 250.539 232.775 246.105 232.503C241.67 232.187 236.195 232.028 229.68 232.028H216.649C207.961 232.028 200.812 232.345 195.201 232.979C189.591 233.567 185.156 234.585 181.899 236.033C178.641 237.481 176.378 239.426 175.111 241.87C173.844 244.313 173.211 247.367 173.211 251.032C173.211 253.295 173.369 255.308 173.686 257.073C174.003 258.837 174.636 260.398 175.587 261.756C176.582 263.068 177.962 264.177 179.727 265.082C181.491 265.986 183.822 266.733 186.717 267.321C189.613 267.91 193.143 268.339 197.305 268.611C201.513 268.837 206.513 268.95 212.305 268.95H230.223ZM395.679 221.169C403.642 221.169 410.339 221.667 415.769 222.662C421.244 223.612 425.746 225.083 429.275 227.074C432.804 229.019 435.519 231.485 437.42 234.472C439.32 237.458 440.7 240.965 441.56 244.992C442.465 249.019 442.985 253.566 443.121 258.634C443.302 263.701 443.392 269.312 443.392 275.466C443.392 281.619 443.302 287.23 443.121 292.298C442.985 297.366 442.465 301.913 441.56 305.94C440.7 309.967 439.32 313.474 437.42 316.46C435.519 319.446 432.804 321.935 429.275 323.926C425.746 325.871 421.244 327.319 415.769 328.27C410.339 329.265 403.642 329.763 395.679 329.763H356.449C348.486 329.763 341.767 329.265 336.292 328.27C330.862 327.319 326.383 325.871 322.853 323.926C319.324 321.935 316.586 319.446 314.641 316.46C312.74 313.474 311.338 309.967 310.433 305.94C309.573 301.913 309.075 297.366 308.94 292.298C308.804 287.23 308.736 281.619 308.736 275.466C308.736 269.312 308.804 263.701 308.94 258.634C309.075 253.566 309.573 249.019 310.433 244.992C311.338 240.965 312.74 237.458 314.641 234.472C316.586 231.485 319.324 229.019 322.853 227.074C326.383 225.083 330.862 223.612 336.292 222.662C341.767 221.667 348.486 221.169 356.449 221.169H395.679ZM395.679 318.903C401.425 318.903 406.267 318.745 410.203 318.428C414.185 318.066 417.466 317.365 420.045 316.324C422.624 315.284 424.615 313.79 426.017 311.845C427.42 309.899 428.438 307.32 429.071 304.107C429.705 300.895 430.067 296.958 430.157 292.298C430.293 287.592 430.361 281.981 430.361 275.466C430.361 268.95 430.293 263.362 430.157 258.702C430.067 253.996 429.705 250.037 429.071 246.824C428.438 243.612 427.42 241.033 426.017 239.087C424.615 237.141 422.624 235.648 420.045 234.607C417.511 233.567 414.253 232.888 410.271 232.571C406.335 232.209 401.471 232.028 395.679 232.028H356.449C350.658 232.028 345.771 232.209 341.789 232.571C337.853 232.888 334.595 233.567 332.016 234.607C329.437 235.648 327.446 237.141 326.043 239.087C324.64 241.033 323.622 243.612 322.989 246.824C322.355 250.037 321.994 253.996 321.903 258.702C321.813 263.362 321.767 268.95 321.767 275.466C321.767 281.981 321.813 287.592 321.903 292.298C322.039 296.958 322.423 300.895 323.057 304.107C323.69 307.32 324.686 309.899 326.043 311.845C327.446 313.79 329.437 315.284 332.016 316.324C334.595 317.365 337.853 318.066 341.789 318.428C345.771 318.745 350.658 318.903 356.449 318.903H395.679ZM561.61 221.169C569.574 221.169 576.27 221.667 581.7 222.662C587.175 223.612 591.677 225.083 595.206 227.074C598.736 229.019 601.45 231.485 603.351 234.472C605.251 237.458 606.631 240.965 607.491 244.992C608.396 249.019 608.916 253.566 609.052 258.634C609.233 263.701 609.324 269.312 609.324 275.466C609.324 281.619 609.233 287.23 609.052 292.298C608.916 297.366 608.396 301.913 607.491 305.94C606.631 309.967 605.251 313.474 603.351 316.46C601.45 319.446 598.736 321.935 595.206 323.926C591.677 325.871 587.175 327.319 581.7 328.27C576.27 329.265 569.574 329.763 561.61 329.763H522.381C514.417 329.763 507.698 329.265 502.223 328.27C496.793 327.319 492.314 325.871 488.784 323.926C485.255 321.935 482.518 319.446 480.572 316.46C478.672 313.474 477.269 309.967 476.364 305.94C475.504 301.913 475.007 297.366 474.871 292.298C474.735 287.23 474.667 281.619 474.667 275.466C474.667 269.312 474.735 263.701 474.871 258.634C475.007 253.566 475.504 249.019 476.364 244.992C477.269 240.965 478.672 237.458 480.572 234.472C482.518 231.485 485.255 229.019 488.784 227.074C492.314 225.083 496.793 223.612 502.223 222.662C507.698 221.667 514.417 221.169 522.381 221.169H561.61ZM561.61 318.903C567.357 318.903 572.198 318.745 576.135 318.428C580.116 318.066 583.397 317.365 585.976 316.324C588.555 315.284 590.546 313.79 591.949 311.845C593.351 309.899 594.369 307.32 595.003 304.107C595.636 300.895 595.998 296.958 596.089 292.298C596.224 287.592 596.292 281.981 596.292 275.466C596.292 268.95 596.224 263.362 596.089 258.702C595.998 253.996 595.636 250.037 595.003 246.824C594.369 243.612 593.351 241.033 591.949 239.087C590.546 237.141 588.555 235.648 585.976 234.607C583.442 233.567 580.184 232.888 576.202 232.571C572.266 232.209 567.402 232.028 561.61 232.028H522.381C516.589 232.028 511.702 232.209 507.72 232.571C503.784 232.888 500.526 233.567 497.947 234.607C495.368 235.648 493.377 237.141 491.974 239.087C490.572 241.033 489.554 243.612 488.92 246.824C488.287 250.037 487.925 253.996 487.834 258.702C487.744 263.362 487.699 268.95 487.699 275.466C487.699 281.981 487.744 287.592 487.834 292.298C487.97 296.958 488.355 300.895 488.988 304.107C489.622 307.32 490.617 309.899 491.974 311.845C493.377 313.79 495.368 315.284 497.947 316.324C500.526 317.365 503.784 318.066 507.72 318.428C511.702 318.745 516.589 318.903 522.381 318.903H561.61ZM657.974 327.591H644.942V223.341H667.815L763.377 314.56V223.341H776.409V327.591H759.034L657.974 234.2V327.591Z" fill="white"/>
</svg>
