<!-- <svg width="45" height="270" viewBox="0 0 45 270" fill="none" xmlns="http://www.w3.org/2000/svg"> -->
<svg width="auto" height="auto" viewBox="0 0 45 270" fill="none" xmlns="http://www.w3.org/2000/svg">
<g filter="url(#filter0_d_3911_208)">
<mask id="path-1-outside-1_3911_208" maskUnits="userSpaceOnUse" x="7.00012" y="10" width="33" height="250" fill="black">
<rect fill="white" x="7.00012" y="10" width="33" height="250"/>
<path d="M26.8619 28.8906C27.9781 28.8906 28.923 28.8599 29.6964 28.7983C30.4698 28.7368 31.1071 28.6138 31.608 28.4292C32.109 28.2358 32.4957 27.959 32.7682 27.5986C33.0406 27.2383 33.2384 26.7637 33.3615 26.1748C33.4933 25.5771 33.568 24.8477 33.5856 23.9863C33.6119 23.1162 33.6251 22.0791 33.6251 20.875C33.6251 19.6709 33.6119 18.6382 33.5856 17.7769C33.568 16.9067 33.4933 16.1772 33.3615 15.5884C33.2384 14.9907 33.0406 14.5117 32.7682 14.1514C32.4957 13.791 32.109 13.5186 31.608 13.334C31.1071 13.1406 30.4698 13.0132 29.6964 12.9517C28.9318 12.8901 27.9869 12.8594 26.8619 12.8594H14.2189V28.8906H26.8619ZM11.6876 31V10.75H26.8619C28.4088 10.75 29.7096 10.8423 30.7643 11.0269C31.8278 11.2026 32.7023 11.4751 33.3878 11.8442C34.0822 12.2134 34.6139 12.6748 34.983 13.2285C35.361 13.7822 35.6334 14.437 35.8004 15.1929C35.9762 15.9399 36.0773 16.7881 36.1036 17.7373C36.1388 18.6777 36.1564 19.7236 36.1564 20.875C36.1564 22.0264 36.1388 23.0767 36.1036 24.0259C36.0773 24.9663 35.9762 25.8145 35.8004 26.5703C35.6334 27.3174 35.361 27.9678 34.983 28.5215C34.6139 29.0752 34.0822 29.5366 33.3878 29.9058C32.7023 30.2749 31.8278 30.5518 30.7643 30.7363C29.7096 30.9121 28.4088 31 26.8619 31H11.6876ZM22.2345 48.75H24.7657V69H22.2345V48.75ZM33.6251 93.0781C33.6251 92.0234 33.5109 91.1885 33.2823 90.5732C33.0538 89.958 32.6759 89.4922 32.1486 89.1758C31.6212 88.8594 30.9269 88.6572 30.0656 88.5693C29.2042 88.4814 28.1407 88.4375 26.8751 88.4375H20.0988C18.9738 88.4375 18.0245 88.4727 17.2511 88.543C16.4865 88.6045 15.8536 88.7363 15.3527 88.9385C14.8517 89.1406 14.465 89.4307 14.1925 89.8086C13.92 90.1865 13.7223 90.6875 13.5992 91.3115C13.4762 91.9355 13.4059 92.7046 13.3883 93.6187C13.3707 94.5239 13.3619 95.6094 13.3619 96.875C13.3619 98.1406 13.3707 99.2305 13.3883 100.145C13.4147 101.05 13.4894 101.814 13.6124 102.438C13.7355 103.062 13.9288 103.563 14.1925 103.941C14.465 104.319 14.8517 104.609 15.3527 104.812C15.8536 105.014 16.4865 105.15 17.2511 105.22C18.0245 105.282 18.9738 105.312 20.0988 105.312H26.8883C27.8727 105.312 28.7208 105.286 29.4327 105.233C30.1447 105.181 30.7511 105.084 31.2521 104.943C31.7531 104.803 32.1573 104.609 32.465 104.363C32.7726 104.117 33.0099 103.81 33.1769 103.44C33.3527 103.062 33.4713 102.614 33.5328 102.096C33.5944 101.568 33.6251 100.953 33.6251 100.25V98.9844H23.4738V96.875H36.1564V100.25C36.1564 101.094 36.1036 101.858 35.9982 102.544C35.8927 103.221 35.7037 103.827 35.4313 104.363C35.1676 104.891 34.8116 105.348 34.3634 105.734C33.9152 106.121 33.3483 106.442 32.6627 106.697C31.9772 106.943 31.1598 107.123 30.2106 107.237C29.2614 107.36 28.1539 107.422 26.8883 107.422H20.0988C18.5519 107.422 17.2467 107.325 16.1832 107.132C15.1285 106.947 14.2584 106.666 13.5729 106.288C12.8873 105.901 12.3556 105.418 11.9777 104.838C11.6085 104.258 11.3361 103.577 11.1603 102.794C10.9933 102.012 10.8966 101.129 10.8702 100.145C10.8439 99.1602 10.8307 98.0703 10.8307 96.875C10.8307 95.6797 10.8439 94.5898 10.8702 93.6055C10.8966 92.6211 10.9933 91.7378 11.1603 90.9556C11.3361 90.1733 11.6085 89.4922 11.9777 88.9121C12.3556 88.332 12.8873 87.853 13.5729 87.4751C14.2584 87.0884 15.1285 86.8027 16.1832 86.6182C17.2467 86.4248 18.5519 86.3281 20.0988 86.3281H26.8751C28.1407 86.3281 29.2482 86.3896 30.1974 86.5127C31.1466 86.627 31.964 86.8071 32.6495 87.0532C33.3351 87.2905 33.902 87.5938 34.3502 87.9629C34.8073 88.332 35.1676 88.7671 35.4313 89.2681C35.7037 89.769 35.8927 90.3359 35.9982 90.9688C36.1036 91.6016 36.1564 92.3047 36.1564 93.0781H33.6251ZM22.2345 124.75H24.7657V145H22.2345V124.75ZM25.715 171.609C27.1036 171.609 28.2946 171.667 29.2877 171.781C30.2809 171.895 31.1158 172.066 31.7926 172.295C32.4781 172.515 33.0231 172.792 33.4274 173.125C33.8317 173.459 34.1437 173.842 34.3634 174.272C34.5831 174.694 34.7238 175.169 34.7853 175.696C34.8556 176.224 34.8907 176.795 34.8907 177.41C34.8907 178.025 34.8336 178.605 34.7194 179.15C34.6139 179.687 34.4205 180.179 34.1393 180.627C33.858 181.075 33.4757 181.475 32.9923 181.827C32.5089 182.178 31.8937 182.477 31.1466 182.723C30.3995 182.969 29.4987 183.154 28.444 183.277C27.3981 183.409 26.172 183.475 24.7657 183.475H21.3907C20.1251 183.475 19.0177 183.426 18.0685 183.33C17.1193 183.233 16.3019 183.088 15.6163 182.895C14.9308 182.692 14.3639 182.442 13.9156 182.143C13.4674 181.835 13.1071 181.479 12.8346 181.075C12.5709 180.662 12.3864 180.196 12.2809 179.678C12.1754 179.15 12.1227 178.57 12.1227 177.938H14.6539C14.6539 178.729 14.7682 179.348 14.9967 179.796C15.2252 180.245 15.6031 180.583 16.1305 180.812C16.6578 181.031 17.3478 181.172 18.2003 181.233C19.0616 181.286 20.1251 181.312 21.3907 181.312H24.7657C26.2423 181.312 27.4684 181.242 28.444 181.102C29.4196 180.961 30.1974 180.737 30.7775 180.429C31.3575 180.122 31.7662 179.722 32.0035 179.229C32.2408 178.729 32.3595 178.122 32.3595 177.41C32.3595 176.698 32.276 176.105 32.109 175.63C31.9508 175.156 31.63 174.778 31.1466 174.497C30.672 174.215 29.9996 174.018 29.1295 173.903C28.2594 173.78 27.1212 173.719 25.715 173.719H22.2345C20.6876 173.719 19.3605 173.662 18.2531 173.547C17.1544 173.433 16.2316 173.271 15.4845 173.06C14.7374 172.84 14.1398 172.572 13.6915 172.255C13.2433 171.93 12.9005 171.561 12.6632 171.148C12.4347 170.735 12.2853 170.278 12.215 169.777C12.1447 169.267 12.1095 168.718 12.1095 168.129C12.1095 167.514 12.1622 166.942 12.2677 166.415C12.382 165.888 12.5885 165.413 12.8873 164.991C13.1862 164.561 13.5948 164.178 14.1134 163.844C14.632 163.51 15.2955 163.233 16.1041 163.014C16.9215 162.785 17.9015 162.614 19.0441 162.5C20.1866 162.385 21.5314 162.328 23.0782 162.328H25.6095C26.8751 162.328 27.9825 162.376 28.9318 162.473C29.881 162.561 30.6984 162.706 31.3839 162.908C32.0695 163.102 32.6364 163.348 33.0846 163.646C33.5416 163.937 33.902 164.288 34.1656 164.701C34.4381 165.105 34.6271 165.567 34.7325 166.085C34.838 166.604 34.8907 167.18 34.8907 167.812H32.3595C32.3595 167.021 32.2452 166.402 32.0167 165.954C31.7882 165.505 31.4103 165.171 30.8829 164.952C30.3556 164.723 29.6613 164.583 28.7999 164.53C27.9386 164.468 26.8751 164.438 25.6095 164.438H23.0782C21.3907 164.438 20.0021 164.499 18.9122 164.622C17.8224 164.736 16.9611 164.934 16.3282 165.215C15.6954 165.497 15.256 165.875 15.0099 166.349C14.7638 166.824 14.6407 167.417 14.6407 168.129C14.6407 168.568 14.6715 168.959 14.733 169.302C14.7946 169.645 14.9176 169.948 15.1022 170.212C15.2955 170.467 15.5636 170.682 15.9064 170.858C16.2491 171.034 16.7018 171.179 17.2643 171.293C17.8268 171.407 18.5123 171.491 19.3209 171.543C20.1383 171.587 21.1095 171.609 22.2345 171.609H25.715ZM22.2345 200.75H24.7657V221H22.2345V200.75ZM10.1056 240.438V259H7.57434V238.75H11.7931L23.5924 256.469L35.3917 238.75H39.4259V259H36.8947V240.714L24.8712 259H22.3136L10.1056 240.438Z"/>
</mask>
<path d="M31.608 28.4292L31.7809 28.8984L31.7881 28.8957L31.608 28.4292ZM33.3615 26.1748L32.8732 26.0671L32.872 26.0725L33.3615 26.1748ZM33.5856 23.9863L33.0858 23.9712L33.0857 23.9761L33.5856 23.9863ZM33.5856 17.7769L33.0856 17.787L33.0858 17.7922L33.5856 17.7769ZM33.3615 15.5884L32.8716 15.6892L32.8735 15.6976L33.3615 15.5884ZM31.608 13.334L31.428 13.8005L31.4352 13.8032L31.608 13.334ZM29.6964 12.9517L29.6563 13.45L29.6568 13.4501L29.6964 12.9517ZM14.2189 12.8594V12.3594H13.7189V12.8594H14.2189ZM14.2189 28.8906H13.7189V29.3906H14.2189V28.8906ZM11.6876 31H11.1876V31.5H11.6876V31ZM11.6876 10.75V10.25H11.1876V10.75H11.6876ZM30.7643 11.0269L30.6781 11.5194L30.6827 11.5202L30.7643 11.0269ZM33.3878 11.8442L33.1508 12.2845L33.1531 12.2857L33.3878 11.8442ZM34.983 13.2285L34.567 13.5059L34.5701 13.5104L34.983 13.2285ZM35.8004 15.1929L35.3121 15.3007L35.3137 15.3074L35.8004 15.1929ZM36.1036 17.7373L35.6038 17.7512L35.604 17.756L36.1036 17.7373ZM36.1036 24.0259L35.604 24.0074L35.6038 24.0119L36.1036 24.0259ZM35.8004 26.5703L35.3134 26.4571L35.3125 26.4612L35.8004 26.5703ZM34.983 28.5215L34.57 28.2396L34.567 28.2441L34.983 28.5215ZM33.3878 29.9058L33.1531 29.4643L33.1508 29.4655L33.3878 29.9058ZM30.7643 30.7363L30.8465 31.2295L30.8498 31.229L30.7643 30.7363ZM26.8619 29.3906C27.9862 29.3906 28.9451 29.3597 29.7361 29.2968L29.6568 28.2999C28.9008 28.36 27.9701 28.3906 26.8619 28.3906V29.3906ZM29.7361 29.2968C30.5364 29.2331 31.2225 29.1041 31.7809 28.8984L31.4352 27.96C30.9916 28.1234 30.4033 28.2405 29.6568 28.2999L29.7361 29.2968ZM31.7881 28.8957C32.3593 28.6752 32.8286 28.3478 33.167 27.9002L32.3694 27.2971C32.1629 27.5702 31.8587 27.7965 31.428 27.9627L31.7881 28.8957ZM33.167 27.9002C33.4962 27.4648 33.7175 26.9154 33.8509 26.2771L32.872 26.0725C32.7593 26.6119 32.5851 27.0118 32.3694 27.2971L33.167 27.9002ZM33.8497 26.2825C33.9908 25.6428 34.0675 24.8785 34.0855 23.9965L33.0857 23.9761C33.0685 24.8168 32.9958 25.5115 32.8732 26.0671L33.8497 26.2825ZM34.0853 24.0015C34.1119 23.1248 34.1251 22.0824 34.1251 20.875H33.1251C33.1251 22.0758 33.112 23.1076 33.0858 23.9712L34.0853 24.0015ZM34.1251 20.875C34.1251 19.6676 34.1119 18.6295 34.0853 17.7616L33.0858 17.7922C33.112 18.6468 33.1251 19.6742 33.1251 20.875H34.1251ZM34.0855 17.7668C34.0675 16.8765 33.9909 16.1114 33.8494 15.4791L32.8735 15.6976C32.9957 16.2431 33.0685 16.9369 33.0857 17.787L34.0855 17.7668ZM33.8512 15.4876C33.7181 14.8413 33.4972 14.2865 33.167 13.8498L32.3694 14.4529C32.5841 14.737 32.7587 15.1402 32.8717 15.6892L33.8512 15.4876ZM33.167 13.8498C32.827 13.4001 32.3551 13.0764 31.7809 12.8648L31.4352 13.8032C31.8629 13.9607 32.1644 14.1819 32.3694 14.4529L33.167 13.8498ZM31.7881 12.8675C31.227 12.651 30.5382 12.517 29.7361 12.4532L29.6568 13.4501C30.4015 13.5093 30.9871 13.6303 31.428 13.8004L31.7881 12.8675ZM29.7365 12.4533C28.9539 12.3903 27.9948 12.3594 26.8619 12.3594V13.3594C27.9791 13.3594 28.9096 13.39 29.6563 13.45L29.7365 12.4533ZM26.8619 12.3594H14.2189V13.3594H26.8619V12.3594ZM13.7189 12.8594V28.8906H14.7189V12.8594H13.7189ZM14.2189 29.3906H26.8619V28.3906H14.2189V29.3906ZM12.1876 31V10.75H11.1876V31H12.1876ZM11.6876 11.25H26.8619V10.25H11.6876V11.25ZM26.8619 11.25C28.3915 11.25 29.6613 11.3414 30.6781 11.5194L30.8505 10.5343C29.7579 10.3431 28.4262 10.25 26.8619 10.25V11.25ZM30.6827 11.5202C31.7112 11.6901 32.5285 11.9494 33.1508 12.2845L33.6249 11.404C32.8761 11.0008 31.9444 10.7151 30.8458 10.5335L30.6827 11.5202ZM33.1531 12.2857C33.7876 12.6231 34.2515 13.0325 34.567 13.5059L35.3991 12.9512C34.9763 12.3171 34.3767 11.8037 33.6225 11.4028L33.1531 12.2857ZM34.5701 13.5104C34.9069 14.0039 35.1569 14.5976 35.3122 15.3007L36.2886 15.085C36.11 14.2764 35.815 13.5605 35.396 12.9466L34.5701 13.5104ZM35.3137 15.3074C35.4801 16.0148 35.5782 16.8282 35.6038 17.7512L36.6034 17.7234C36.5763 16.7479 36.4722 15.8651 36.2871 15.0784L35.3137 15.3074ZM35.604 17.756C35.6389 18.689 35.6564 19.7285 35.6564 20.875H36.6564C36.6564 19.7187 36.6387 18.6665 36.6033 17.7186L35.604 17.756ZM35.6564 20.875C35.6564 22.0214 35.6389 23.0654 35.604 24.0074L36.6033 24.0444C36.6387 23.0879 36.6564 22.0313 36.6564 20.875H35.6564ZM35.6038 24.0119C35.5782 24.9256 35.4802 25.7398 35.3134 26.4571L36.2874 26.6836C36.4722 25.8891 36.5763 25.007 36.6034 24.0399L35.6038 24.0119ZM35.3125 26.4612C35.1573 27.1552 34.9076 27.7451 34.5701 28.2396L35.396 28.8034C35.8144 28.1904 36.1095 27.4796 36.2884 26.6794L35.3125 26.4612ZM34.567 28.2441C34.2515 28.7175 33.7876 29.1269 33.1531 29.4643L33.6225 30.3472C34.3767 29.9463 34.9763 29.4329 35.3991 28.7988L34.567 28.2441ZM33.1508 29.4655C32.527 29.8014 31.7082 30.065 30.6788 30.2437L30.8498 31.229C31.9474 31.0385 32.8776 30.7484 33.6249 30.346L33.1508 29.4655ZM30.6821 30.2431C29.6636 30.4129 28.3923 30.5 26.8619 30.5V31.5C28.4253 31.5 29.7556 31.4113 30.8465 31.2295L30.6821 30.2431ZM26.8619 30.5H11.6876V31.5H26.8619V30.5ZM22.2345 48.75V48.25H21.7345V48.75H22.2345ZM24.7657 48.75H25.2657V48.25H24.7657V48.75ZM24.7657 69V69.5H25.2657V69H24.7657ZM22.2345 69H21.7345V69.5H22.2345V69ZM22.2345 49.25H24.7657V48.25H22.2345V49.25ZM24.2657 48.75V69H25.2657V48.75H24.2657ZM24.7657 68.5H22.2345V69.5H24.7657V68.5ZM22.7345 69V48.75H21.7345V69H22.7345ZM33.6251 93.0781H33.1251V93.5781H33.6251V93.0781ZM33.2823 90.5732L33.7511 90.3991L33.2823 90.5732ZM17.2511 88.543L17.2912 89.0414L17.2964 89.0409L17.2511 88.543ZM13.3883 93.6187L13.8882 93.6284L13.8882 93.6283L13.3883 93.6187ZM13.3883 100.145L12.8884 100.154L12.8885 100.159L13.3883 100.145ZM14.1925 103.941L13.7824 104.228L13.7869 104.234L14.1925 103.941ZM17.2511 105.22L17.2053 105.718L17.2115 105.719L17.2511 105.22ZM33.1769 103.44L32.7235 103.23L32.7213 103.234L33.1769 103.44ZM33.5328 102.096L34.0294 102.155L34.0295 102.154L33.5328 102.096ZM33.6251 98.9844H34.1251V98.4844H33.6251V98.9844ZM23.4738 98.9844H22.9738V99.4844H23.4738V98.9844ZM23.4738 96.875V96.375H22.9738V96.875H23.4738ZM36.1564 96.875H36.6564V96.375H36.1564V96.875ZM35.9982 102.544L36.4922 102.621L36.4924 102.62L35.9982 102.544ZM35.4313 104.363L34.9855 104.137L34.9841 104.14L35.4313 104.363ZM32.6627 106.697L32.8317 107.167L32.837 107.165L32.6627 106.697ZM30.2106 107.237L30.1508 106.741L30.1463 106.741L30.2106 107.237ZM16.1832 107.132L16.2727 106.64L16.2694 106.639L16.1832 107.132ZM13.5729 106.288L13.3272 106.724L13.3315 106.726L13.5729 106.288ZM11.9777 104.838L11.5558 105.106L11.5587 105.111L11.9777 104.838ZM11.1603 102.794L10.6713 102.899L10.6724 102.904L11.1603 102.794ZM11.1603 90.9556L10.6724 90.8459L10.6713 90.8512L11.1603 90.9556ZM11.9777 88.9121L11.5587 88.6392L11.5558 88.6437L11.9777 88.9121ZM13.5729 87.4751L13.8143 87.913L13.8185 87.9106L13.5729 87.4751ZM16.1832 86.6182L16.2694 87.1107L16.2727 87.1101L16.1832 86.6182ZM30.1974 86.5127L30.1331 87.0086L30.1376 87.0091L30.1974 86.5127ZM32.6495 87.0532L32.4806 87.5238L32.486 87.5257L32.6495 87.0532ZM34.3502 87.9629L34.0324 88.3489L34.0361 88.3519L34.3502 87.9629ZM35.4313 89.2681L34.9888 89.501L34.992 89.507L35.4313 89.2681ZM36.1564 93.0781V93.5781H36.6564V93.0781H36.1564ZM34.1251 93.0781C34.1251 91.9956 34.009 91.0936 33.7511 90.3991L32.8136 90.7473C33.0127 91.2834 33.1251 92.0513 33.1251 93.0781H34.1251ZM33.7511 90.3991C33.4859 89.6852 33.0373 89.1259 32.4058 88.747L31.8913 89.6045C32.3145 89.8584 32.6218 90.2309 32.8136 90.7473L33.7511 90.3991ZM32.4058 88.747C31.7953 88.3807 31.0229 88.1644 30.1163 88.0719L30.0148 89.0667C30.8309 89.15 31.4472 89.338 31.8913 89.6045L32.4058 88.747ZM30.1163 88.0719C29.2324 87.9817 28.1507 87.9375 26.8751 87.9375V88.9375C28.1308 88.9375 29.1761 88.9812 30.0148 89.0667L30.1163 88.0719ZM26.8751 87.9375H20.0988V88.9375H26.8751V87.9375ZM20.0988 87.9375C18.9647 87.9375 17.9993 87.9729 17.2058 88.045L17.2964 89.0409C18.0497 88.9724 18.9828 88.9375 20.0988 88.9375V87.9375ZM17.211 88.0446C16.4152 88.1086 15.7286 88.2476 15.1656 88.4748L15.5398 89.4022C15.9786 89.2251 16.5577 89.1004 17.2912 89.0414L17.211 88.0446ZM15.1656 88.4748C14.5913 88.7065 14.1229 89.0501 13.7869 89.5162L14.5981 90.101C14.807 89.8112 15.1121 89.5747 15.5398 89.4022L15.1656 88.4748ZM13.7869 89.5162C13.46 89.9697 13.2409 90.5445 13.1087 91.2148L14.0898 91.4082C14.2037 90.8305 14.3801 90.4034 14.5981 90.101L13.7869 89.5162ZM13.1087 91.2148C12.9781 91.877 12.9063 92.6772 12.8884 93.609L13.8882 93.6283C13.9054 92.732 13.9743 91.9941 14.0898 91.4082L13.1087 91.2148ZM12.8884 93.6089C12.8707 94.5184 12.8619 95.6073 12.8619 96.875H13.8619C13.8619 95.6115 13.8707 94.5294 13.8882 93.6284L12.8884 93.6089ZM12.8619 96.875C12.8619 98.1427 12.8707 99.2359 12.8884 100.154L13.8882 100.135C13.8707 99.225 13.8619 98.1385 13.8619 96.875H12.8619ZM12.8885 100.159C12.9154 101.081 12.9918 101.875 13.1219 102.535L14.103 102.342C13.987 101.754 13.914 101.018 13.8881 100.13L12.8885 100.159ZM13.1219 102.535C13.2536 103.203 13.4671 103.775 13.7824 104.227L14.6026 103.655C14.3906 103.352 14.2174 102.922 14.103 102.342L13.1219 102.535ZM13.7869 104.234C14.1229 104.7 14.5913 105.043 15.1656 105.275L15.5398 104.348C15.1121 104.175 14.807 103.939 14.5981 103.649L13.7869 104.234ZM15.1656 105.275C15.7263 105.501 16.4108 105.645 17.2053 105.718L17.2969 104.722C16.5621 104.655 15.981 104.526 15.5398 104.348L15.1656 105.275ZM17.2115 105.719C18.0025 105.782 18.9658 105.812 20.0988 105.812V104.812C18.9817 104.812 18.0466 104.782 17.2907 104.722L17.2115 105.719ZM20.0988 105.812H26.8883V104.812H20.0988V105.812ZM26.8883 105.812C27.8808 105.812 28.7419 105.786 29.4697 105.732L29.3958 104.735C28.6998 104.786 27.8646 104.812 26.8883 104.812V105.812ZM29.4697 105.732C30.2035 105.678 30.8448 105.577 31.3872 105.425L31.1169 104.462C30.6574 104.591 30.0858 104.684 29.3958 104.735L29.4697 105.732ZM31.3872 105.425C31.9331 105.272 32.4034 105.053 32.7773 104.754L32.1526 103.973C31.9113 104.166 31.573 104.334 31.1169 104.462L31.3872 105.425ZM32.7773 104.754C33.1483 104.457 33.4339 104.085 33.6324 103.647L32.7213 103.234C32.5859 103.534 32.3968 103.777 32.1526 103.973L32.7773 104.754ZM33.6302 103.651C33.8332 103.215 33.9631 102.713 34.0294 102.155L33.0363 102.037C32.9795 102.515 32.8721 102.91 32.7235 103.23L33.6302 103.651ZM34.0295 102.154C34.0938 101.602 34.1251 100.967 34.1251 100.25H33.1251C33.1251 100.94 33.0949 101.535 33.0362 102.038L34.0295 102.154ZM34.1251 100.25V98.9844H33.1251V100.25H34.1251ZM33.6251 98.4844H23.4738V99.4844H33.6251V98.4844ZM23.9738 98.9844V96.875H22.9738V98.9844H23.9738ZM23.4738 97.375H36.1564V96.375H23.4738V97.375ZM35.6564 96.875V100.25H36.6564V96.875H35.6564ZM35.6564 100.25C35.6564 101.074 35.6049 101.812 35.504 102.468L36.4924 102.62C36.6024 101.905 36.6564 101.114 36.6564 100.25H35.6564ZM35.5041 102.467C35.4057 103.099 35.2311 103.654 34.9855 104.137L35.877 104.59C36.1764 104.001 36.3797 103.343 36.4922 102.621L35.5041 102.467ZM34.9841 104.14C34.7501 104.608 34.4352 105.012 34.0368 105.356L34.69 106.113C35.1881 105.683 35.5851 105.174 35.8785 104.587L34.9841 104.14ZM34.0368 105.356C33.6428 105.696 33.1309 105.989 32.4885 106.228L32.837 107.165C33.5656 106.895 34.1875 106.546 34.69 106.113L34.0368 105.356ZM32.4938 106.226C31.8525 106.456 31.0736 106.63 30.1508 106.741L30.2703 107.734C31.2459 107.616 32.1018 107.429 32.8317 107.167L32.4938 106.226ZM30.1463 106.741C29.2239 106.861 28.1388 106.922 26.8883 106.922V107.922C28.169 107.922 29.2988 107.86 30.2748 107.733L30.1463 106.741ZM26.8883 106.922H20.0988V107.922H26.8883V106.922ZM20.0988 106.922C18.5702 106.922 17.297 106.826 16.2727 106.64L16.0938 107.624C17.1964 107.824 18.5335 107.922 20.0988 107.922V106.922ZM16.2694 106.639C15.2505 106.461 14.4373 106.194 13.8143 105.85L13.3315 106.726C14.0795 107.138 15.0065 107.434 16.097 107.624L16.2694 106.639ZM13.8185 105.853C13.1933 105.5 12.725 105.069 12.3966 104.565L11.5587 105.111C11.9862 105.767 12.5814 106.303 13.3272 106.724L13.8185 105.853ZM12.3995 104.569C12.066 104.045 11.8133 103.42 11.6481 102.685L10.6724 102.904C10.8588 103.733 11.151 104.47 11.5558 105.106L12.3995 104.569ZM11.6493 102.69C11.4899 101.944 11.3958 101.092 11.3701 100.131L10.3704 100.158C10.3974 101.166 10.4966 102.081 10.6713 102.899L11.6493 102.69ZM11.3701 100.131C11.3438 99.1521 11.3307 98.0667 11.3307 96.875H10.3307C10.3307 98.0739 10.3439 99.1683 10.3704 100.158L11.3701 100.131ZM11.3307 96.875C11.3307 95.6833 11.3438 94.5979 11.3701 93.6189L10.3704 93.5921C10.3439 94.5817 10.3307 95.6761 10.3307 96.875H11.3307ZM11.3701 93.6189C11.3958 92.6584 11.4899 91.8063 11.6493 91.06L10.6713 90.8512C10.4966 91.6693 10.3974 92.5838 10.3704 93.5921L11.3701 93.6189ZM11.6481 91.0652C11.8133 90.3301 12.066 89.7046 12.3995 89.1805L11.5558 88.6437C11.151 89.2798 10.8588 90.0165 10.6724 90.8459L11.6481 91.0652ZM12.3966 89.1851C12.7242 88.6822 13.191 88.2565 13.8143 87.913L13.3315 87.0372C12.5836 87.4495 11.987 87.9818 11.5587 88.6392L12.3966 89.1851ZM13.8185 87.9106C14.4403 87.5599 15.2519 87.2887 16.2694 87.1107L16.097 86.1256C15.0051 86.3167 14.0766 86.6169 13.3272 87.0396L13.8185 87.9106ZM16.2727 87.1101C17.297 86.9239 18.5702 86.8281 20.0988 86.8281V85.8281C18.5335 85.8281 17.1964 85.9258 16.0938 86.1262L16.2727 87.1101ZM20.0988 86.8281H26.8751V85.8281H20.0988V86.8281ZM26.8751 86.8281C28.1257 86.8281 29.2107 86.889 30.1331 87.0085L30.2617 86.0168C29.2856 85.8903 28.1558 85.8281 26.8751 85.8281V86.8281ZM30.1376 87.0091C31.0605 87.1202 31.8393 87.2936 32.4806 87.5238L32.8185 86.5826C32.0886 86.3206 31.2328 86.1337 30.2571 86.0163L30.1376 87.0091ZM32.486 87.5257C33.1288 87.7482 33.6398 88.0256 34.0324 88.3489L34.6681 87.5769C34.1641 87.1619 33.5413 86.8328 32.8131 86.5807L32.486 87.5257ZM34.0361 88.3519C34.4422 88.6799 34.758 89.0625 34.9888 89.5009L35.8737 89.0352C35.5772 88.4717 35.1723 87.9842 34.6644 87.5739L34.0361 88.3519ZM34.992 89.507C35.2348 89.9534 35.4075 90.4662 35.505 91.0509L36.4914 90.8866C36.3779 90.2057 36.1727 89.5847 35.8705 89.0292L34.992 89.507ZM35.505 91.0509C35.6051 91.6517 35.6564 92.3268 35.6564 93.0781H36.6564C36.6564 92.2825 36.6022 91.5514 36.4914 90.8866L35.505 91.0509ZM36.1564 92.5781H33.6251V93.5781H36.1564V92.5781ZM22.2345 124.75V124.25H21.7345V124.75H22.2345ZM24.7657 124.75H25.2657V124.25H24.7657V124.75ZM24.7657 145V145.5H25.2657V145H24.7657ZM22.2345 145H21.7345V145.5H22.2345V145ZM22.2345 125.25H24.7657V124.25H22.2345V125.25ZM24.2657 124.75V145H25.2657V124.75H24.2657ZM24.7657 144.5H22.2345V145.5H24.7657V144.5ZM22.7345 145V124.75H21.7345V145H22.7345ZM31.7926 172.295L31.6326 172.769L31.64 172.771L31.7926 172.295ZM34.3634 174.272L33.918 174.5L33.9199 174.503L34.3634 174.272ZM34.7853 175.696L34.2886 175.754L34.2897 175.762L34.7853 175.696ZM34.7194 179.15L34.23 179.048L34.2288 179.054L34.7194 179.15ZM28.444 183.277L28.386 182.78L28.3814 182.781L28.444 183.277ZM15.6163 182.895L15.4749 183.374L15.4806 183.376L15.6163 182.895ZM13.9156 182.143L13.6327 182.555L13.6383 182.559L13.9156 182.143ZM12.8346 181.075L12.413 181.344L12.42 181.355L12.8346 181.075ZM12.2809 179.678L11.7906 179.776L11.7909 179.777L12.2809 179.678ZM12.1227 177.938V177.438H11.6227V177.938H12.1227ZM14.6539 177.938H15.1539V177.438H14.6539V177.938ZM16.1305 180.812L15.9317 181.27L15.9382 181.273L16.1305 180.812ZM18.2003 181.233L18.1643 181.732L18.1698 181.732L18.2003 181.233ZM32.0035 179.229L32.4539 179.447L32.4554 179.444L32.0035 179.229ZM32.109 175.63L31.6346 175.789L31.6374 175.796L32.109 175.63ZM31.1466 174.497L30.8917 174.927L30.8952 174.929L31.1466 174.497ZM29.1295 173.903L29.0595 174.398L29.0644 174.399L29.1295 173.903ZM18.2531 173.547L18.2013 174.045L18.2017 174.045L18.2531 173.547ZM15.4845 173.06L15.3434 173.539L15.3486 173.541L15.4845 173.06ZM13.6915 172.255L13.3979 172.66L13.4032 172.664L13.6915 172.255ZM12.6632 171.148L12.2256 171.39L12.2297 171.397L12.6632 171.148ZM12.215 169.777L11.7197 169.845L11.7198 169.846L12.215 169.777ZM12.2677 166.415L11.779 166.309L11.7774 166.317L12.2677 166.415ZM12.8873 164.991L13.2954 165.28L13.2981 165.276L12.8873 164.991ZM16.1041 163.014L16.2352 163.496L16.2387 163.495L16.1041 163.014ZM28.9318 162.473L28.8811 162.971L28.8857 162.971L28.9318 162.473ZM31.3839 162.908L31.2425 163.388L31.2482 163.389L31.3839 162.908ZM33.0846 163.646L32.8072 164.063L32.8167 164.069L33.0846 163.646ZM34.1656 164.701L33.7441 164.97L33.751 164.981L34.1656 164.701ZM34.8907 167.812V168.312H35.3907V167.812H34.8907ZM32.3595 167.812H31.8595V168.312H32.3595V167.812ZM30.8829 164.952L30.6841 165.41L30.6906 165.413L30.8829 164.952ZM28.7999 164.53L28.7643 165.029L28.7694 165.029L28.7999 164.53ZM18.9122 164.622L18.9644 165.119L18.9683 165.119L18.9122 164.622ZM15.1022 170.212L14.6926 170.499L14.698 170.506L14.7038 170.514L15.1022 170.212ZM19.3209 171.543L19.2884 172.042L19.2941 172.043L19.3209 171.543ZM25.715 172.109C27.0913 172.109 28.2621 172.166 29.2306 172.277L29.3449 171.284C28.327 171.167 27.116 171.109 25.715 171.109V172.109ZM29.2306 172.277C30.2015 172.389 30.9995 172.555 31.6326 172.769L31.9526 171.821C31.2322 171.578 30.3603 171.401 29.3449 171.284L29.2306 172.277ZM31.64 172.771C32.2861 172.978 32.7682 173.23 33.1089 173.511L33.7458 172.74C33.2779 172.354 32.6702 172.051 31.9452 171.819L31.64 172.771ZM33.1089 173.511C33.465 173.805 33.7319 174.135 33.918 174.5L34.8088 174.045C34.5555 173.549 34.1983 173.114 33.7458 172.74L33.1089 173.511ZM33.9199 174.503C34.1085 174.865 34.2334 175.28 34.2886 175.754L35.2819 175.638C35.2142 175.058 35.0578 174.523 34.8069 174.041L33.9199 174.503ZM34.2897 175.762C34.3566 176.265 34.3907 176.814 34.3907 177.41H35.3907C35.3907 176.776 35.3545 176.183 35.2809 175.63L34.2897 175.762ZM34.3907 177.41C34.3907 177.994 34.3365 178.54 34.23 179.048L35.2087 179.253C35.3307 178.671 35.3907 178.056 35.3907 177.41H34.3907ZM34.2288 179.054C34.1347 179.532 33.9634 179.966 33.7157 180.361L34.5628 180.893C34.8776 180.391 35.0931 179.841 35.21 179.247L34.2288 179.054ZM33.7157 180.361C33.4725 180.749 33.1367 181.103 32.6982 181.422L33.2864 182.231C33.8147 181.847 34.2435 181.402 34.5628 180.893L33.7157 180.361ZM32.6982 181.422C32.2676 181.735 31.7026 182.014 30.9902 182.248L31.303 183.198C32.0848 182.941 32.7502 182.621 33.2864 182.231L32.6982 181.422ZM30.9902 182.248C30.284 182.481 29.418 182.66 28.386 182.78L28.5019 183.773C29.5793 183.648 30.5151 183.458 31.303 183.198L30.9902 182.248ZM28.3814 182.781C27.3618 182.909 26.1575 182.975 24.7657 182.975V183.975C26.1865 183.975 27.4343 183.908 28.5065 183.773L28.3814 182.781ZM24.7657 182.975H21.3907V183.975H24.7657V182.975ZM21.3907 182.975C20.137 182.975 19.0471 182.927 18.1191 182.832L18.0178 183.827C18.9883 183.926 20.1133 183.975 21.3907 183.975V182.975ZM18.1191 182.832C17.1897 182.738 16.4022 182.597 15.7521 182.413L15.4806 183.376C16.2015 183.579 17.0488 183.728 18.0178 183.827L18.1191 182.832ZM15.7577 182.415C15.1057 182.223 14.5883 181.991 14.193 181.727L13.6383 182.559C14.1395 182.893 14.7559 183.162 15.4749 183.374L15.7577 182.415ZM14.1986 181.731C13.7962 181.455 13.4827 181.142 13.2492 180.796L12.42 181.355C12.7314 181.817 13.1386 182.216 13.6327 182.555L14.1986 181.731ZM13.2561 180.806C13.028 180.449 12.8651 180.041 12.7709 179.578L11.7909 179.777C11.9076 180.351 12.1139 180.875 12.4131 181.344L13.2561 180.806ZM12.7712 179.58C12.6732 179.09 12.6227 178.543 12.6227 177.938H11.6227C11.6227 178.598 11.6777 179.211 11.7906 179.776L12.7712 179.58ZM12.1227 178.438H14.6539V177.438H12.1227V178.438ZM14.1539 177.938C14.1539 178.767 14.2721 179.476 14.5513 180.023L15.4422 179.569C15.2643 179.22 15.1539 178.69 15.1539 177.938H14.1539ZM14.5513 180.023C14.84 180.59 15.3137 181.003 15.9317 181.27L16.3293 180.353C15.8926 180.163 15.6105 179.899 15.4422 179.569L14.5513 180.023ZM15.9382 181.273C16.5335 181.521 17.282 181.668 18.1643 181.732L18.2363 180.735C17.4136 180.675 16.7822 180.541 16.3228 180.35L15.9382 181.273ZM18.1698 181.732C19.0448 181.786 20.1192 181.812 21.3907 181.812V180.812C20.1311 180.812 19.0785 180.786 18.2309 180.734L18.1698 181.732ZM21.3907 181.812H24.7657V180.812H21.3907V181.812ZM24.7657 181.812C26.2557 181.812 27.5076 181.742 28.5153 181.596L28.3726 180.607C27.4292 180.743 26.2289 180.812 24.7657 180.812V181.812ZM28.5153 181.596C29.5222 181.451 30.3621 181.215 31.0117 180.871L30.5432 179.987C30.0327 180.258 29.3169 180.471 28.3726 180.607L28.5153 181.596ZM31.0117 180.871C31.6665 180.524 32.1616 180.053 32.4539 179.447L31.5532 179.012C31.3709 179.39 31.0486 179.719 30.5432 179.987L31.0117 180.871ZM32.4554 179.444C32.7321 178.859 32.8595 178.176 32.8595 177.41H31.8595C31.8595 178.068 31.7496 178.598 31.5517 179.015L32.4554 179.444ZM32.8595 177.41C32.8595 176.663 32.7724 176.009 32.5807 175.464L31.6374 175.796C31.7796 176.201 31.8595 176.733 31.8595 177.41H32.8595ZM32.5834 175.472C32.3821 174.868 31.9733 174.399 31.3981 174.064L30.8952 174.929C31.2867 175.157 31.5195 175.443 31.6347 175.788L32.5834 175.472ZM31.4015 174.066C30.8445 173.736 30.0967 173.526 29.1946 173.408L29.0644 174.399C29.9026 174.509 30.4995 174.694 30.8917 174.927L31.4015 174.066ZM29.1995 173.408C28.2967 173.281 27.1325 173.219 25.715 173.219V174.219C27.1099 174.219 28.2221 174.28 29.0595 174.398L29.1995 173.408ZM25.715 173.219H22.2345V174.219H25.715V173.219ZM22.2345 173.219C20.6987 173.219 19.3896 173.162 18.3044 173.05L18.2017 174.045C19.3313 174.161 20.6765 174.219 22.2345 174.219V173.219ZM18.3048 173.05C17.2237 172.938 16.3311 172.779 15.6204 172.578L15.3486 173.541C16.1321 173.762 17.0851 173.929 18.2013 174.045L18.3048 173.05ZM15.6256 172.58C14.9109 172.37 14.3688 172.121 13.9799 171.847L13.4032 172.664C13.9108 173.022 14.5639 173.31 15.3434 173.539L15.6256 172.58ZM13.9851 171.851C13.5848 171.56 13.2937 171.242 13.0968 170.899L12.2297 171.397C12.5074 171.88 12.9018 172.3 13.3979 172.66L13.9851 171.851ZM13.1007 170.906C12.9039 170.55 12.7725 170.152 12.7101 169.707L11.7198 169.846C11.798 170.404 11.9655 170.92 12.2257 171.39L13.1007 170.906ZM12.7103 169.709C12.6435 169.224 12.6095 168.698 12.6095 168.129H11.6095C11.6095 168.737 11.6458 169.31 11.7197 169.845L12.7103 169.709ZM12.6095 168.129C12.6095 167.542 12.6598 167.004 12.758 166.513L11.7774 166.317C11.6646 166.881 11.6095 167.485 11.6095 168.129H12.6095ZM12.7564 166.521C12.857 166.056 13.0372 165.645 13.2953 165.28L12.4793 164.702C12.1398 165.181 11.9069 165.719 11.779 166.309L12.7564 166.521ZM13.2981 165.276C13.5536 164.908 13.9111 164.569 14.3841 164.265L13.8427 163.424C13.2786 163.787 12.8187 164.213 12.4765 164.706L13.2981 165.276ZM14.3841 164.265C14.8473 163.966 15.4596 163.707 16.2352 163.496L15.973 162.531C15.1314 162.76 14.4166 163.054 13.8427 163.424L14.3841 164.265ZM16.2387 163.495C17.0206 163.277 17.9706 163.109 19.0938 162.997L18.9943 162.002C17.8323 162.118 16.8224 162.294 15.9695 162.532L16.2387 163.495ZM19.0938 162.997C20.2153 162.885 21.5427 162.828 23.0782 162.828V161.828C21.52 161.828 20.158 161.886 18.9943 162.002L19.0938 162.997ZM23.0782 162.828H25.6095V161.828H23.0782V162.828ZM25.6095 162.828C26.8633 162.828 27.9531 162.876 28.8811 162.971L28.9824 161.976C28.012 161.877 26.887 161.828 25.6095 161.828V162.828ZM28.8857 162.971C29.8126 163.057 30.5964 163.197 31.2425 163.388L31.5253 162.429C30.8004 162.215 29.9494 162.065 28.9779 161.975L28.8857 162.971ZM31.2482 163.389C31.8986 163.573 32.414 163.8 32.8072 164.063L33.3619 163.23C32.8588 162.895 32.2403 162.63 31.5196 162.427L31.2482 163.389ZM32.8167 164.069C33.2185 164.324 33.5238 164.625 33.7442 164.97L34.5871 164.432C34.2801 163.951 33.8648 163.549 33.3525 163.224L32.8167 164.069ZM33.751 164.981C33.9838 165.326 34.1491 165.725 34.2426 166.185L35.2225 165.986C35.1051 165.408 34.8924 164.885 34.5803 164.422L33.751 164.981ZM34.2426 166.185C34.3402 166.665 34.3907 167.207 34.3907 167.812H35.3907C35.3907 167.152 35.3358 166.543 35.2225 165.986L34.2426 166.185ZM34.8907 167.312H32.3595V168.312H34.8907V167.312ZM32.8595 167.812C32.8595 166.983 32.7413 166.274 32.4622 165.727L31.5713 166.181C31.7492 166.53 31.8595 167.06 31.8595 167.812H32.8595ZM32.4622 165.727C32.1725 165.158 31.6963 164.749 31.0752 164.49L30.6906 165.413C31.1242 165.594 31.4039 165.852 31.5713 166.181L32.4622 165.727ZM31.0817 164.493C30.4814 164.233 29.7236 164.085 28.8305 164.031L28.7694 165.029C29.5989 165.08 30.2298 165.214 30.6841 165.41L31.0817 164.493ZM28.8356 164.031C27.9583 163.968 26.8821 163.938 25.6095 163.938V164.938C26.8682 164.938 27.9189 164.968 28.7643 165.029L28.8356 164.031ZM25.6095 163.938H23.0782V164.938H25.6095V163.938ZM23.0782 163.938C21.3808 163.938 19.9717 163.999 18.8561 164.125L18.9683 165.119C20.0325 164.999 21.4007 164.938 23.0782 164.938V163.938ZM18.8601 164.125C17.7448 164.242 16.8254 164.447 16.1252 164.758L16.5313 165.672C17.0967 165.421 17.9 165.231 18.9644 165.119L18.8601 164.125ZM16.1252 164.758C15.4196 165.072 14.878 165.517 14.566 166.119L15.4538 166.579C15.6339 166.232 15.9712 165.921 16.5313 165.672L16.1252 164.758ZM14.566 166.119C14.2729 166.684 14.1407 167.362 14.1407 168.129H15.1407C15.1407 167.472 15.2547 166.963 15.4538 166.579L14.566 166.119ZM14.1407 168.129C14.1407 168.591 14.173 169.012 14.2409 169.391L15.2252 169.214C15.17 168.907 15.1407 168.546 15.1407 168.129H14.1407ZM14.2409 169.391C14.3142 169.799 14.4631 170.171 14.6926 170.499L15.5118 169.925C15.3721 169.726 15.275 169.491 15.2252 169.214L14.2409 169.391ZM14.7038 170.514C14.9508 170.84 15.2822 171.1 15.6782 171.303L16.1345 170.413C15.845 170.265 15.6403 170.094 15.5005 169.91L14.7038 170.514ZM15.6782 171.303C16.0762 171.507 16.5771 171.664 17.1648 171.783L17.3638 170.803C16.8264 170.694 16.4221 170.56 16.1345 170.413L15.6782 171.303ZM17.1648 171.783C17.7563 171.903 18.4657 171.989 19.2884 172.042L19.3535 171.045C18.559 170.993 17.8973 170.911 17.3638 170.803L17.1648 171.783ZM19.2941 172.043C20.123 172.087 21.1036 172.109 22.2345 172.109V171.109C21.1154 171.109 20.1536 171.088 19.3478 171.044L19.2941 172.043ZM22.2345 172.109H25.715V171.109H22.2345V172.109ZM22.2345 200.75V200.25H21.7345V200.75H22.2345ZM24.7657 200.75H25.2657V200.25H24.7657V200.75ZM24.7657 221V221.5H25.2657V221H24.7657ZM22.2345 221H21.7345V221.5H22.2345V221ZM22.2345 201.25H24.7657V200.25H22.2345V201.25ZM24.2657 200.75V221H25.2657V200.75H24.2657ZM24.7657 220.5H22.2345V221.5H24.7657V220.5ZM22.7345 221V200.75H21.7345V221H22.7345ZM10.1056 240.438L10.5233 240.163L9.60559 238.767V240.438H10.1056ZM10.1056 259V259.5H10.6056V259H10.1056ZM7.57434 259H7.07434V259.5H7.57434V259ZM7.57434 238.75V238.25H7.07434V238.75H7.57434ZM11.7931 238.75L12.2093 238.473L12.0608 238.25H11.7931V238.75ZM23.5924 256.469L23.1762 256.746L23.5924 257.371L24.0086 256.746L23.5924 256.469ZM35.3917 238.75V238.25H35.124L34.9756 238.473L35.3917 238.75ZM39.4259 238.75H39.9259V238.25H39.4259V238.75ZM39.4259 259V259.5H39.9259V259H39.4259ZM36.8947 259H36.3947V259.5H36.8947V259ZM36.8947 240.714H37.3947V239.044L36.4769 240.44L36.8947 240.714ZM24.8712 259V259.5H25.1409L25.289 259.275L24.8712 259ZM22.3136 259L21.8958 259.275L22.044 259.5H22.3136V259ZM9.60559 240.438V259H10.6056V240.438H9.60559ZM10.1056 258.5H7.57434V259.5H10.1056V258.5ZM8.07434 259V238.75H7.07434V259H8.07434ZM7.57434 239.25H11.7931V238.25H7.57434V239.25ZM11.3769 239.027L23.1762 256.746L24.0086 256.192L12.2093 238.473L11.3769 239.027ZM24.0086 256.746L35.8079 239.027L34.9756 238.473L23.1762 256.192L24.0086 256.746ZM35.3917 239.25H39.4259V238.25H35.3917V239.25ZM38.9259 238.75V259H39.9259V238.75H38.9259ZM39.4259 258.5H36.8947V259.5H39.4259V258.5ZM37.3947 259V240.714H36.3947V259H37.3947ZM36.4769 240.44L24.4534 258.725L25.289 259.275L37.3124 240.989L36.4769 240.44ZM24.8712 258.5H22.3136V259.5H24.8712V258.5ZM22.7313 258.725L10.5233 240.163L9.68784 240.712L21.8958 259.275L22.7313 258.725Z" fill="black" mask="url(#path-1-outside-1_3911_208)"/>
</g>
<g filter="url(#filter1_d_3911_208)">
<path d="M24.8619 28.8906C25.9781 28.8906 26.923 28.8599 27.6964 28.7983C28.4698 28.7368 29.1071 28.6138 29.608 28.4292C30.109 28.2358 30.4957 27.959 30.7682 27.5986C31.0406 27.2383 31.2384 26.7637 31.3615 26.1748C31.4933 25.5771 31.568 24.8477 31.5856 23.9863C31.6119 23.1162 31.6251 22.0791 31.6251 20.875C31.6251 19.6709 31.6119 18.6382 31.5856 17.7769C31.568 16.9067 31.4933 16.1772 31.3615 15.5884C31.2384 14.9907 31.0406 14.5117 30.7682 14.1514C30.4957 13.791 30.109 13.5186 29.608 13.334C29.1071 13.1406 28.4698 13.0132 27.6964 12.9517C26.9318 12.8901 25.9869 12.8594 24.8619 12.8594H12.2189V28.8906H24.8619ZM9.68762 31V10.75H24.8619C26.4088 10.75 27.7096 10.8423 28.7643 11.0269C29.8278 11.2026 30.7023 11.4751 31.3878 11.8442C32.0822 12.2134 32.6139 12.6748 32.983 13.2285C33.361 13.7822 33.6334 14.437 33.8004 15.1929C33.9762 15.9399 34.0773 16.7881 34.1036 17.7373C34.1388 18.6777 34.1564 19.7236 34.1564 20.875C34.1564 22.0264 34.1388 23.0767 34.1036 24.0259C34.0773 24.9663 33.9762 25.8145 33.8004 26.5703C33.6334 27.3174 33.361 27.9678 32.983 28.5215C32.6139 29.0752 32.0822 29.5366 31.3878 29.9058C30.7023 30.2749 29.8278 30.5518 28.7643 30.7363C27.7096 30.9121 26.4088 31 24.8619 31H9.68762ZM20.2345 48.75H22.7657V69H20.2345V48.75ZM31.6251 93.0781C31.6251 92.0234 31.5109 91.1885 31.2823 90.5732C31.0538 89.958 30.6759 89.4922 30.1486 89.1758C29.6212 88.8594 28.9269 88.6572 28.0656 88.5693C27.2042 88.4814 26.1407 88.4375 24.8751 88.4375H18.0988C16.9738 88.4375 16.0245 88.4727 15.2511 88.543C14.4865 88.6045 13.8536 88.7363 13.3527 88.9385C12.8517 89.1406 12.465 89.4307 12.1925 89.8086C11.92 90.1865 11.7223 90.6875 11.5992 91.3115C11.4762 91.9355 11.4059 92.7046 11.3883 93.6187C11.3707 94.5239 11.3619 95.6094 11.3619 96.875C11.3619 98.1406 11.3707 99.2305 11.3883 100.145C11.4147 101.05 11.4894 101.814 11.6124 102.438C11.7355 103.062 11.9288 103.563 12.1925 103.941C12.465 104.319 12.8517 104.609 13.3527 104.812C13.8536 105.014 14.4865 105.15 15.2511 105.22C16.0245 105.282 16.9738 105.312 18.0988 105.312H24.8883C25.8727 105.312 26.7208 105.286 27.4327 105.233C28.1447 105.181 28.7511 105.084 29.2521 104.943C29.7531 104.803 30.1573 104.609 30.465 104.363C30.7726 104.117 31.0099 103.81 31.1769 103.44C31.3527 103.062 31.4713 102.614 31.5328 102.096C31.5944 101.568 31.6251 100.953 31.6251 100.25V98.9844H21.4738V96.875H34.1564V100.25C34.1564 101.094 34.1036 101.858 33.9982 102.544C33.8927 103.221 33.7037 103.827 33.4313 104.363C33.1676 104.891 32.8116 105.348 32.3634 105.734C31.9152 106.121 31.3483 106.442 30.6627 106.697C29.9772 106.943 29.1598 107.123 28.2106 107.237C27.2614 107.36 26.1539 107.422 24.8883 107.422H18.0988C16.5519 107.422 15.2467 107.325 14.1832 107.132C13.1285 106.947 12.2584 106.666 11.5729 106.288C10.8873 105.901 10.3556 105.418 9.97766 104.838C9.60852 104.258 9.33606 103.577 9.16028 102.794C8.99329 102.012 8.89661 101.129 8.87024 100.145C8.84387 99.1602 8.83069 98.0703 8.83069 96.875C8.83069 95.6797 8.84387 94.5898 8.87024 93.6055C8.89661 92.6211 8.99329 91.7378 9.16028 90.9556C9.33606 90.1733 9.60852 89.4922 9.97766 88.9121C10.3556 88.332 10.8873 87.853 11.5729 87.4751C12.2584 87.0884 13.1285 86.8027 14.1832 86.6182C15.2467 86.4248 16.5519 86.3281 18.0988 86.3281H24.8751C26.1407 86.3281 27.2482 86.3896 28.1974 86.5127C29.1466 86.627 29.964 86.8071 30.6495 87.0532C31.3351 87.2905 31.902 87.5938 32.3502 87.9629C32.8073 88.332 33.1676 88.7671 33.4313 89.2681C33.7037 89.769 33.8927 90.3359 33.9982 90.9688C34.1036 91.6016 34.1564 92.3047 34.1564 93.0781H31.6251ZM20.2345 124.75H22.7657V145H20.2345V124.75ZM23.715 171.609C25.1036 171.609 26.2946 171.667 27.2877 171.781C28.2809 171.895 29.1158 172.066 29.7926 172.295C30.4781 172.515 31.0231 172.792 31.4274 173.125C31.8317 173.459 32.1437 173.842 32.3634 174.272C32.5831 174.694 32.7238 175.169 32.7853 175.696C32.8556 176.224 32.8907 176.795 32.8907 177.41C32.8907 178.025 32.8336 178.605 32.7194 179.15C32.6139 179.687 32.4205 180.179 32.1393 180.627C31.858 181.075 31.4757 181.475 30.9923 181.827C30.5089 182.178 29.8937 182.477 29.1466 182.723C28.3995 182.969 27.4987 183.154 26.444 183.277C25.3981 183.409 24.172 183.475 22.7657 183.475H19.3907C18.1251 183.475 17.0177 183.426 16.0685 183.33C15.1193 183.233 14.3019 183.088 13.6163 182.895C12.9308 182.692 12.3639 182.442 11.9156 182.143C11.4674 181.835 11.1071 181.479 10.8346 181.075C10.5709 180.662 10.3864 180.196 10.2809 179.678C10.1754 179.15 10.1227 178.57 10.1227 177.938H12.6539C12.6539 178.729 12.7682 179.348 12.9967 179.796C13.2252 180.245 13.6031 180.583 14.1305 180.812C14.6578 181.031 15.3478 181.172 16.2003 181.233C17.0616 181.286 18.1251 181.312 19.3907 181.312H22.7657C24.2423 181.312 25.4684 181.242 26.444 181.102C27.4196 180.961 28.1974 180.737 28.7775 180.429C29.3575 180.122 29.7662 179.722 30.0035 179.229C30.2408 178.729 30.3595 178.122 30.3595 177.41C30.3595 176.698 30.276 176.105 30.109 175.63C29.9508 175.156 29.63 174.778 29.1466 174.497C28.672 174.215 27.9996 174.018 27.1295 173.903C26.2594 173.78 25.1212 173.719 23.715 173.719H20.2345C18.6876 173.719 17.3605 173.662 16.2531 173.547C15.1544 173.433 14.2316 173.271 13.4845 173.06C12.7374 172.84 12.1398 172.572 11.6915 172.255C11.2433 171.93 10.9005 171.561 10.6632 171.148C10.4347 170.735 10.2853 170.278 10.215 169.777C10.1447 169.267 10.1095 168.718 10.1095 168.129C10.1095 167.514 10.1622 166.942 10.2677 166.415C10.382 165.888 10.5885 165.413 10.8873 164.991C11.1862 164.561 11.5948 164.178 12.1134 163.844C12.632 163.51 13.2955 163.233 14.1041 163.014C14.9215 162.785 15.9015 162.614 17.0441 162.5C18.1866 162.385 19.5314 162.328 21.0782 162.328H23.6095C24.8751 162.328 25.9825 162.376 26.9318 162.473C27.881 162.561 28.6984 162.706 29.3839 162.908C30.0695 163.102 30.6364 163.348 31.0846 163.646C31.5416 163.937 31.902 164.288 32.1656 164.701C32.4381 165.105 32.6271 165.567 32.7325 166.085C32.838 166.604 32.8907 167.18 32.8907 167.812H30.3595C30.3595 167.021 30.2452 166.402 30.0167 165.954C29.7882 165.505 29.4103 165.171 28.8829 164.952C28.3556 164.723 27.6613 164.583 26.7999 164.53C25.9386 164.468 24.8751 164.438 23.6095 164.438H21.0782C19.3907 164.438 18.0021 164.499 16.9122 164.622C15.8224 164.736 14.9611 164.934 14.3282 165.215C13.6954 165.497 13.256 165.875 13.0099 166.349C12.7638 166.824 12.6407 167.417 12.6407 168.129C12.6407 168.568 12.6715 168.959 12.733 169.302C12.7946 169.645 12.9176 169.948 13.1022 170.212C13.2955 170.467 13.5636 170.682 13.9064 170.858C14.2491 171.034 14.7018 171.179 15.2643 171.293C15.8268 171.407 16.5123 171.491 17.3209 171.543C18.1383 171.587 19.1095 171.609 20.2345 171.609H23.715ZM20.2345 200.75H22.7657V221H20.2345V200.75ZM8.10559 240.438V259H5.57434V238.75H9.79309L21.5924 256.469L33.3917 238.75H37.4259V259H34.8947V240.714L22.8712 259H20.3136L8.10559 240.438Z" fill="black"/>
</g>
<defs>
<filter id="filter0_d_3911_208" x="2.22049" y="10.75" width="42.5593" height="258.958" filterUnits="userSpaceOnUse" color-interpolation-filters="sRGB">
<feFlood flood-opacity="0" result="BackgroundImageFix"/>
<feColorMatrix in="SourceAlpha" type="matrix" values="0 0 0 0 0 0 0 0 0 0 0 0 0 0 0 0 0 0 127 0" result="hardAlpha"/>
<feOffset dy="5.35385"/>
<feGaussianBlur stdDeviation="2.67692"/>
<feComposite in2="hardAlpha" operator="out"/>
<feColorMatrix type="matrix" values="0 0 0 0 0 0 0 0 0 0 0 0 0 0 0 0 0 0 0.25 0"/>
<feBlend mode="normal" in2="BackgroundImageFix" result="effect1_dropShadow_3911_208"/>
<feBlend mode="normal" in="SourceGraphic" in2="effect1_dropShadow_3911_208" result="shape"/>
</filter>
<filter id="filter1_d_3911_208" x="0.220495" y="10.75" width="42.5593" height="258.958" filterUnits="userSpaceOnUse" color-interpolation-filters="sRGB">
<feFlood flood-opacity="0" result="BackgroundImageFix"/>
<feColorMatrix in="SourceAlpha" type="matrix" values="0 0 0 0 0 0 0 0 0 0 0 0 0 0 0 0 0 0 127 0" result="hardAlpha"/>
<feOffset dy="5.35385"/>
<feGaussianBlur stdDeviation="2.67692"/>
<feComposite in2="hardAlpha" operator="out"/>
<feColorMatrix type="matrix" values="0 0 0 0 0 0 0 0 0 0 0 0 0 0 0 0 0 0 0.25 0"/>
<feBlend mode="normal" in2="BackgroundImageFix" result="effect1_dropShadow_3911_208"/>
<feBlend mode="normal" in="SourceGraphic" in2="effect1_dropShadow_3911_208" result="shape"/>
</filter>
</defs>
</svg>
