<svg width="1444" height="532" viewBox="0 0 1444 532" fill="none" xmlns="http://www.w3.org/2000/svg">
<g filter="url(#filter0_b_1061_47)">
<path fill-rule="evenodd" clip-rule="evenodd" d="M2 2H1402V201.705L1442 251.875V530H48.5V221.675L2 166.635V2Z" fill="#D9D9D9" fill-opacity="0.05"/>
<path d="M1412 214.247L1432 239.332L1432.78 238.709L1442.78 251.251L1443 251.525V251.875V269.257H1442V304.023H1443V338.789H1442V373.554H1443V408.32H1442V443.086H1443V477.851H1442V512.617H1443V530V531H1442H1424.58V530H1389.74V531H1354.91V530H1320.07V531H1285.23V530H1250.39V531H1215.56V530H1180.72V531H1145.88V530H1111.04V531H1076.21V530H1041.37V531H1006.53V530H971.694V531H936.857V530H902.019V531H867.181V530H832.344V531H797.506V530H762.669V531H727.831V530H692.994V531H658.156V530H623.319V531H588.481V530H553.644V531H518.806V530H483.969V531H449.131V530H414.294V531H379.456V530H344.619V531H309.781V530H274.944V531H240.106V530H205.269V531H170.431V530H135.594V531H100.756V530H65.9188V531H48.5H47.5V530V510.73H48.5V472.189H47.5V433.649H48.5V395.108H47.5V356.567H48.5V318.027H47.5V279.486H48.5V240.946H47.5V222.041L36.1111 208.56L36.875 207.915L13.625 180.395L12.8611 181.04L1.23612 167.28L1 167.001V166.635V146.055H2V104.897H1V63.738H2V22.5793H1V2V1H2H19.5V2H54.5V1H89.5V2H124.5V1H159.5V2H194.5V1H229.5V2H264.5V1H299.5V2H334.5V1H369.5V2H404.5V1H439.5V2H474.5V1H509.5V2H544.5V1H579.5V2H614.5V1H649.5V2H684.5V1H719.5V2H754.5V1H789.5V2H824.5V1H859.5V2H894.5V1H929.5V2H964.5V1H999.5V2H1034.5V1H1069.5V2H1104.5V1H1139.5V2H1174.5V1H1209.5V2H1244.5V1H1279.5V2H1314.5V1H1349.5V2H1384.5V1H1402H1403V2V18.6421H1402V51.9262H1403V85.2103H1402V118.494H1403V151.779H1402V185.063H1403V201.355L1412.78 213.624L1412 214.247Z" stroke="white" stroke-width="2" stroke-dasharray="35 35"/>
</g>
<defs>
<filter id="filter0_b_1061_47" x="-79.8" y="-79.8" width="1603.6" height="691.6" filterUnits="userSpaceOnUse" color-interpolation-filters="sRGB">
<feFlood flood-opacity="0" result="BackgroundImageFix"/>
<feGaussianBlur in="BackgroundImageFix" stdDeviation="39.9"/>
<feComposite in2="SourceAlpha" operator="in" result="effect1_backgroundBlur_1061_47"/>
<feBlend mode="normal" in="SourceGraphic" in2="effect1_backgroundBlur_1061_47" result="shape"/>
</filter>
</defs>
</svg>
