<svg width="577" height="68" viewBox="0 0 577 68" fill="none" xmlns="http://www.w3.org/2000/svg">
<g clip-path="url(#clip0_932_2)">
<g filter="url(#filter0_d_932_2)">
<path d="M204.914 0H179.762L107.841 68.3573H132.48L204.914 0Z" fill="#313131" stroke="white"/>
<path d="M204.914 0H179.762L107.841 68.3573H132.48L204.914 0Z" fill="#313131" stroke="white"/>
<path d="M317.138 0H291.986L220.065 68.3573H244.704L317.138 0Z" fill="#313131" stroke="white"/>
<path d="M317.138 0H291.986L220.065 68.3573H244.704L317.138 0Z" fill="#313131" stroke="white"/>
<path d="M242.323 0H217.17L145.249 68.3573H169.889L242.323 0Z" fill="#313131" stroke="white"/>
<path d="M242.323 0H217.17L145.249 68.3573H169.889L242.323 0Z" fill="white" stroke="white"/>
<path d="M130.099 0H104.946L33.0258 68.3573H57.6649L130.099 0Z" fill="white" stroke="white"/>
<path d="M93.0325 0H67.88L-4.04062 68.3573H20.5985L93.0325 0Z" fill="white" stroke="white"/>
<path d="M354.545 0H329.393L257.472 68.3573H282.111L354.545 0Z" fill="#313131" stroke="white"/>
<path d="M354.545 0H329.393L257.472 68.3573H282.111L354.545 0Z" fill="#313131" stroke="white"/>
<path d="M279.73 0H254.577L182.657 68.3573H207.296L279.73 0Z" fill="#313131" stroke="white"/>
<path d="M279.73 0H254.577L182.657 68.3573H207.296L279.73 0Z" fill="white" stroke="white"/>
<path d="M167.505 0H142.353L70.432 68.3573H95.0712L167.505 0Z" fill="#313131" stroke="white"/>
<path d="M391.954 0H366.802L294.881 68.3573H319.52L391.954 0Z" fill="#313131" stroke="white"/>
<path d="M391.954 0H366.802L294.881 68.3573H319.52L391.954 0Z" fill="white" stroke="white"/>
<path d="M504.225 0H479.072L407.152 68.3573H431.791L504.225 0Z" fill="#313131" stroke="white"/>
<path d="M504.225 0H479.072L407.152 68.3573H431.791L504.225 0Z" fill="#313131" stroke="white"/>
<path d="M541.633 0H516.481L444.56 68.3573H469.199L541.633 0Z" fill="#313131" stroke="white"/>
<path d="M541.633 0H516.481L444.56 68.3573H469.199L541.633 0Z" fill="white" stroke="white"/>
<path d="M429.41 0H404.258L332.337 68.3573H356.976L429.41 0Z" fill="white" stroke="white"/>
<path d="M579.041 0H553.889L481.968 68.3573H506.607L579.041 0Z" fill="#313131" stroke="white"/>
<path d="M579.041 0H553.889L481.968 68.3573H506.607L579.041 0Z" fill="white" stroke="white"/>
<path d="M466.818 0H441.665L369.745 68.3573H394.384L466.818 0Z" fill="#313131" stroke="white"/>
</g>
</g>
<defs>
<filter id="filter0_d_932_2" x="-16.8242" y="-13.2581" width="618.651" height="102.874" filterUnits="userSpaceOnUse" color-interpolation-filters="sRGB">
<feFlood flood-opacity="0" result="BackgroundImageFix"/>
<feColorMatrix in="SourceAlpha" type="matrix" values="0 0 0 0 0 0 0 0 0 0 0 0 0 0 0 0 0 0 127 0" result="hardAlpha"/>
<feOffset dx="5" dy="4"/>
<feGaussianBlur stdDeviation="8.5"/>
<feComposite in2="hardAlpha" operator="out"/>
<feColorMatrix type="matrix" values="0 0 0 0 0 0 0 0 0 0 0 0 0 0 0 0 0 0 0.25 0"/>
<feBlend mode="normal" in2="BackgroundImageFix" result="effect1_dropShadow_932_2"/>
<feBlend mode="normal" in="SourceGraphic" in2="effect1_dropShadow_932_2" result="shape"/>
</filter>
<clipPath id="clip0_932_2">
<rect width="577" height="68" fill="white"/>
</clipPath>
</defs>
</svg>
