<svg width="600" height="70" viewBox="0 0 600 70" fill="none" xmlns="http://www.w3.org/2000/svg">
<g clip-path="url(#clip0_0_3)">
<path d="M228.746 1.19153H207.079L145.126 69.5488H166.351L228.746 1.19153Z" fill="#313131" stroke="white"/>
<path d="M228.746 1.19153H207.079L145.126 69.5488H166.351L228.746 1.19153Z" fill="#313131" stroke="white"/>
<path d="M325.419 1.19153H303.752L241.798 69.5488H263.023L325.419 1.19153Z" fill="#313131" stroke="white"/>
<path d="M325.419 1.19153H303.752L241.798 69.5488H263.023L325.419 1.19153Z" fill="#313131" stroke="white"/>
<path d="M260.971 1.19153H239.304L177.35 69.5488H198.575L260.971 1.19153Z" fill="#313131" stroke="white"/>
<path d="M260.971 1.19153H239.304L177.35 69.5488H198.575L260.971 1.19153Z" fill="white" stroke="white"/>
<path d="M164.299 1.19153H142.633L80.6784 69.5488H101.903L164.299 1.19153Z" fill="white" stroke="white"/>
<path d="M132.368 1.19153H110.702L48.7478 69.5488H69.9724L132.368 1.19153Z" fill="white" stroke="white"/>
<path d="M357.643 1.19153H335.976L274.021 69.5488H295.246L357.643 1.19153Z" fill="#313131" stroke="white"/>
<path d="M357.643 1.19153H335.976L274.021 69.5488H295.246L357.643 1.19153Z" fill="#313131" stroke="white"/>
<path d="M293.194 1.19153H271.527L209.573 69.5488H230.798L293.194 1.19153Z" fill="#313131" stroke="white"/>
<path d="M293.194 1.19153H271.527L209.573 69.5488H230.798L293.194 1.19153Z" fill="white" stroke="white"/>
<path d="M196.523 1.19153H174.856L112.902 69.5488H134.127L196.523 1.19153Z" fill="#313131" stroke="white"/>
<path d="M389.867 1.19153H368.2L306.246 69.5488H327.47L389.867 1.19153Z" fill="#313131" stroke="white"/>
<path d="M389.867 1.19153H368.2L306.246 69.5488H327.47L389.867 1.19153Z" fill="white" stroke="white"/>
<path d="M486.581 1.19141H464.915L402.961 69.5487H424.185L486.581 1.19141Z" fill="#313131" stroke="white"/>
<path d="M486.581 1.19141H464.915L402.961 69.5487H424.185L486.581 1.19141Z" fill="#313131" stroke="white"/>
<path d="M518.806 1.19141H497.139L435.185 69.5487H456.409L518.806 1.19141Z" fill="#313131" stroke="white"/>
<path d="M518.806 1.19141H497.139L435.185 69.5487H456.409L518.806 1.19141Z" fill="white" stroke="white"/>
<path d="M422.134 1.19141H400.467L338.513 69.5487H359.738L422.134 1.19141Z" fill="white" stroke="white"/>
<path d="M551.029 1.19141H529.362L467.408 69.5487H488.632L551.029 1.19141Z" fill="#313131" stroke="white"/>
<path d="M551.029 1.19141H529.362L467.408 69.5487H488.632L551.029 1.19141Z" fill="white" stroke="white"/>
<path d="M454.358 1.19141H432.691L370.736 69.5487H391.961L454.358 1.19141Z" fill="#313131" stroke="white"/>
</g>
<defs>
<clipPath id="clip0_0_3">
<rect width="600" height="70" fill="white"/>
</clipPath>
</defs>
</svg>
