<svg width="51" height="271" viewBox="0 0 51 271" fill="none" xmlns="http://www.w3.org/2000/svg">
<g clip-path="url(#clip0_1688_3)">
<rect x="-40" y="-145.857" width="20" height="342.201" transform="rotate(-45 -40 -145.857)" fill="white"/>
<rect x="-39.4736" y="-88.8574" width="20" height="342.201" transform="rotate(-45 -39.4736 -88.8574)" fill="white"/>
<rect x="-38.9473" y="-31.8574" width="20" height="342.201" transform="rotate(-45 -38.9473 -31.8574)" fill="white"/>
<rect x="-38.4209" y="25.1426" width="20" height="342.201" transform="rotate(-45 -38.4209 25.1426)" fill="white"/>
<rect x="-37.8945" y="82.1426" width="20" height="342.201" transform="rotate(-45 -37.8945 82.1426)" fill="white"/>
<rect x="-37.3682" y="139.143" width="20" height="342.201" transform="rotate(-45 -37.3682 139.143)" fill="white"/>
<rect x="-36.8418" y="196.143" width="20" height="342.201" transform="rotate(-45 -36.8418 196.143)" fill="white"/>
<rect x="-36.3154" y="253.143" width="20" height="342.201" transform="rotate(-45 -36.3154 253.143)" fill="white"/>
<rect x="-53.5264" y="-131.384" width="20" height="339.036" transform="rotate(-45 -53.5264 -131.384)" fill="#1B1515"/>
<rect x="-53" y="-74.3848" width="20" height="339.036" transform="rotate(-45 -53 -74.3848)" fill="#1B1515"/>
<rect x="-52.4736" y="-17.3848" width="20" height="339.036" transform="rotate(-45 -52.4736 -17.3848)" fill="#1B1515"/>
<rect x="-51.9473" y="39.6152" width="20" height="339.036" transform="rotate(-45 -51.9473 39.6152)" fill="#1B1515"/>
<rect x="-51.4209" y="96.6152" width="20" height="339.036" transform="rotate(-45 -51.4209 96.6152)" fill="#1B1515"/>
<rect x="-50.8945" y="153.615" width="20" height="339.036" transform="rotate(-45 -50.8945 153.615)" fill="#1B1515"/>
<rect x="-50.3682" y="210.615" width="20" height="339.036" transform="rotate(-45 -50.3682 210.615)" fill="#1B1515"/>
<rect x="-49.8418" y="267.615" width="20" height="339.036" transform="rotate(-45 -49.8418 267.615)" fill="#1B1515"/>
</g>
<defs>
<clipPath id="clip0_1688_3">
<rect width="50.951" height="271" fill="white"/>
</clipPath>
</defs>
</svg>
