<svg width="998" height="109" viewBox="0 0 998 109" fill="none" xmlns="http://www.w3.org/2000/svg">
<mask id="path-1-outside-1_3759_38" maskUnits="userSpaceOnUse" x="106" y="17" width="795" height="89" fill="black">
<rect fill="white" x="106" y="17" width="795" height="89"/>
<path d="M200.059 46.2812C200.059 41.9844 199.593 38.5827 198.662 36.0762C197.731 33.5697 196.192 31.6719 194.043 30.3828C191.895 29.0938 189.066 28.2702 185.557 27.9121C182.048 27.554 177.715 27.375 172.559 27.375H144.951C140.368 27.375 136.501 27.5182 133.35 27.8047C130.234 28.0553 127.656 28.5924 125.615 29.416C123.574 30.2396 121.999 31.4212 120.889 32.9609C119.779 34.5007 118.973 36.5417 118.472 39.084C117.97 41.6263 117.684 44.7594 117.612 48.4834C117.541 52.1715 117.505 56.5938 117.505 61.75C117.505 66.9062 117.541 71.3464 117.612 75.0703C117.72 78.7585 118.024 81.8737 118.526 84.416C119.027 86.9583 119.815 88.9993 120.889 90.5391C121.999 92.0788 123.574 93.2604 125.615 94.084C127.656 94.9076 130.234 95.4626 133.35 95.749C136.501 95.9997 140.368 96.125 144.951 96.125H172.612C176.623 96.125 180.078 96.0176 182.979 95.8027C185.879 95.5879 188.35 95.194 190.391 94.6211C192.432 94.0482 194.079 93.2604 195.332 92.2578C196.585 91.2552 197.552 90.002 198.233 88.498C198.949 86.9583 199.432 85.1322 199.683 83.0195C199.933 80.8711 200.059 78.3646 200.059 75.5V70.3438H158.701V61.75H210.371V75.5C210.371 78.9375 210.156 82.0527 209.727 84.8457C209.297 87.6029 208.527 90.0736 207.417 92.2578C206.343 94.4062 204.893 96.2682 203.067 97.8438C201.24 99.4193 198.931 100.726 196.138 101.765C193.345 102.767 190.015 103.501 186.148 103.967C182.28 104.468 177.769 104.719 172.612 104.719H144.951C138.649 104.719 133.332 104.325 128.999 103.537C124.702 102.785 121.157 101.639 118.364 100.1C115.571 98.5241 113.405 96.5547 111.865 94.1914C110.361 91.8281 109.251 89.0531 108.535 85.8662C107.855 82.6794 107.461 79.0807 107.354 75.0703C107.246 71.0599 107.193 66.6198 107.193 61.75C107.193 56.8802 107.246 52.4401 107.354 48.4297C107.461 44.4193 107.855 40.8206 108.535 37.6338C109.251 34.4469 110.361 31.6719 111.865 29.3086C113.405 26.9453 115.571 24.9938 118.364 23.4541C121.157 21.8786 124.702 20.7148 128.999 19.9629C133.332 19.1751 138.649 18.7812 144.951 18.7812H172.559C177.715 18.7812 182.227 19.0319 186.094 19.5332C189.961 19.9987 193.291 20.7327 196.084 21.7354C198.877 22.7021 201.187 23.9375 203.013 25.4414C204.875 26.9453 206.343 28.7178 207.417 30.7588C208.527 32.7998 209.297 35.1094 209.727 37.6875C210.156 40.2656 210.371 43.1302 210.371 46.2812H200.059ZM319.394 84.0938H254.081L243.769 103H231.737L279.862 20.5H293.612L341.737 103H329.706L319.394 84.0938ZM314.237 75.5L286.737 27.375L259.237 75.5H314.237ZM366.487 103V20.5H376.8V94.4062H442.112V103H366.487ZM466.862 103V20.5H477.175V94.4062H542.487V103H466.862ZM567.237 103V20.5H649.737V29.0938H577.55V56.5938H646.3V65.1875H577.55V94.4062H649.737V103H567.237ZM769.019 103H758.706V87.5312C758.706 85.0247 758.652 82.8763 758.545 81.0859C758.473 79.2598 758.169 77.7021 757.632 76.4131C757.131 75.124 756.325 74.0856 755.215 73.2979C754.105 72.5101 752.529 71.9014 750.488 71.4717C748.447 71.042 745.851 70.7555 742.7 70.6123C739.585 70.4333 735.736 70.3438 731.152 70.3438H684.8V103H674.487V20.5H732.871C739.173 20.5 744.473 20.7327 748.77 21.1982C753.102 21.6279 756.665 22.2904 759.458 23.1855C762.287 24.0807 764.453 25.1908 765.957 26.5156C767.497 27.8405 768.607 29.3981 769.287 31.1885C770.003 32.9788 770.415 34.984 770.523 37.2041C770.666 39.4242 770.737 41.877 770.737 44.5625C770.737 48 770.487 51.0257 769.985 53.6396C769.52 56.2178 768.714 58.4199 767.568 60.2461C766.423 62.0723 764.901 63.5404 763.003 64.6504C761.105 65.7246 758.724 66.4766 755.859 66.9062C758.724 67.3359 761.016 68.0879 762.734 69.1621C764.453 70.2363 765.778 71.6328 766.709 73.3516C767.64 75.0703 768.249 77.1113 768.535 79.4746C768.858 81.8379 769.019 84.5234 769.019 87.5312V103ZM684.8 61.75H732.871C737.455 61.75 741.304 61.6784 744.419 61.5352C747.57 61.3561 750.166 61.0518 752.207 60.6221C754.248 60.1924 755.824 59.5837 756.934 58.7959C758.044 58.0081 758.849 56.9697 759.351 55.6807C759.888 54.3916 760.192 52.8519 760.264 51.0615C760.371 49.2354 760.425 47.069 760.425 44.5625C760.425 42.235 760.371 40.2298 760.264 38.5469C760.192 36.8639 759.888 35.4495 759.351 34.3037C758.849 33.1579 758.044 32.2448 756.934 31.5645C755.824 30.8841 754.248 30.3649 752.207 30.0068C750.166 29.613 747.57 29.3623 744.419 29.2549C741.304 29.1475 737.455 29.0938 732.871 29.0938H684.8V61.75ZM795.487 20.5H809.237L847.05 60.8906L884.862 20.5H898.612L852.206 68.625V103H841.894V68.625L795.487 20.5Z"/>
</mask>
<path d="M200.059 46.2812H199.059V47.2812H200.059V46.2812ZM133.35 27.8047L133.43 28.8015L133.44 28.8006L133.35 27.8047ZM117.612 48.4834L118.612 48.5028L118.612 48.5026L117.612 48.4834ZM117.612 75.0703L116.613 75.0895L116.613 75.0994L117.612 75.0703ZM120.889 90.5391L120.069 91.1112L120.073 91.1176L120.078 91.1239L120.889 90.5391ZM133.35 95.749L133.258 96.7449L133.27 96.7459L133.35 95.749ZM198.233 88.498L197.326 88.0763L197.321 88.0859L198.233 88.498ZM199.683 83.0195L200.676 83.1374L200.676 83.1354L199.683 83.0195ZM200.059 70.3438H201.059V69.3438H200.059V70.3438ZM158.701 70.3438H157.701V71.3438H158.701V70.3438ZM158.701 61.75V60.75H157.701V61.75H158.701ZM210.371 61.75H211.371V60.75H210.371V61.75ZM209.727 84.8457L210.715 84.9997L210.715 84.9978L209.727 84.8457ZM207.417 92.2578L206.526 91.8048L206.523 91.8106L207.417 92.2578ZM196.138 101.765L196.476 102.706L196.486 102.702L196.138 101.765ZM186.148 103.967L186.028 102.974L186.019 102.975L186.148 103.967ZM128.999 103.537L129.178 102.553L129.172 102.552L128.999 103.537ZM118.364 100.1L117.873 100.971L117.882 100.975L118.364 100.1ZM111.865 94.1914L111.022 94.7283L111.027 94.7373L111.865 94.1914ZM108.535 85.8662L107.557 86.075L107.56 86.0855L108.535 85.8662ZM108.535 37.6338L107.56 37.4145L107.557 37.425L108.535 37.6338ZM111.865 29.3086L111.027 28.7627L111.022 28.7717L111.865 29.3086ZM118.364 23.4541L118.847 24.3299L118.856 24.3251L118.364 23.4541ZM128.999 19.9629L129.172 20.9479L129.178 20.9468L128.999 19.9629ZM186.094 19.5332L185.965 20.5249L185.974 20.526L186.094 19.5332ZM196.084 21.7354L195.746 22.6766L195.757 22.6803L196.084 21.7354ZM203.013 25.4414L202.377 26.2134L202.384 26.2193L203.013 25.4414ZM207.417 30.7588L206.532 31.2246L206.539 31.2366L207.417 30.7588ZM210.371 46.2812V47.2812H211.371V46.2812H210.371ZM201.059 46.2812C201.059 41.9287 200.589 38.3928 199.6 35.728L197.725 36.4244C198.597 38.7725 199.059 42.04 199.059 46.2812H201.059ZM199.6 35.728C198.595 33.024 196.914 30.9394 194.558 29.5253L193.529 31.2403C195.469 32.4044 196.867 34.1154 197.725 36.4244L199.6 35.728ZM194.558 29.5253C192.243 28.1364 189.258 27.2846 185.658 26.9173L185.455 28.9069C188.874 29.2558 191.547 30.0511 193.529 31.2403L194.558 29.5253ZM185.658 26.9173C182.104 26.5546 177.735 26.375 172.559 26.375V28.375C177.695 28.375 181.991 28.5535 185.455 28.9069L185.658 26.9173ZM172.559 26.375H144.951V28.375H172.559V26.375ZM144.951 26.375C140.35 26.375 136.45 26.5187 133.259 26.8088L133.44 28.8006C136.551 28.5178 140.386 28.375 144.951 28.375V26.375ZM133.27 26.8079C130.092 27.0636 127.406 27.615 125.241 28.4887L125.99 30.3434C127.906 29.5699 130.377 29.0471 133.43 28.8015L133.27 26.8079ZM125.241 28.4887C123.054 29.3714 121.315 30.6601 120.078 32.3761L121.7 33.5457C122.683 32.1823 124.095 31.1078 125.99 30.3434L125.241 28.4887ZM120.078 32.3761C118.859 34.067 118.01 36.2556 117.491 38.8905L119.453 39.2774C119.936 36.8277 120.699 34.9343 121.7 33.5457L120.078 32.3761ZM117.491 38.8905C116.974 41.5091 116.685 44.7047 116.613 48.4642L118.612 48.5026C118.683 44.8142 118.967 41.7435 119.453 39.2774L117.491 38.8905ZM116.613 48.464C116.541 52.1606 116.505 56.5896 116.505 61.75H118.505C118.505 56.5979 118.541 52.1825 118.612 48.5028L116.613 48.464ZM116.505 61.75C116.505 66.9104 116.541 71.3573 116.613 75.0895L118.612 75.0511C118.541 71.3354 118.505 66.9021 118.505 61.75H116.505ZM116.613 75.0994C116.721 78.8217 117.029 81.9956 117.544 84.6095L119.507 84.2226C119.019 81.7518 118.718 78.6953 118.612 75.0412L116.613 75.0994ZM117.544 84.6095C118.063 87.2394 118.891 89.4233 120.069 91.1112L121.709 89.9669C120.738 88.5754 119.991 86.6773 119.507 84.2226L117.544 84.6095ZM120.078 91.1239C121.315 92.8399 123.054 94.1286 125.241 95.0113L125.99 93.1566C124.095 92.3922 122.683 91.3177 121.7 89.9543L120.078 91.1239ZM125.241 95.0113C127.402 95.8831 130.083 96.4529 133.258 96.7448L133.441 94.7532C130.386 94.4723 127.911 93.932 125.99 93.1566L125.241 95.0113ZM133.27 96.7459C136.457 96.9993 140.352 97.125 144.951 97.125V95.125C140.384 95.125 136.545 95 133.429 94.7522L133.27 96.7459ZM144.951 97.125H172.612V95.125H144.951V97.125ZM172.612 97.125C176.639 97.125 180.12 97.0172 183.053 96.8L182.905 94.8055C180.036 95.018 176.607 95.125 172.612 95.125V97.125ZM183.053 96.8C185.997 96.5819 188.537 96.18 190.661 95.5839L190.12 93.6583C188.162 94.208 185.761 94.5939 182.905 94.8055L183.053 96.8ZM190.661 95.5839C192.792 94.9858 194.571 94.1473 195.957 93.0387L194.707 91.4769C193.587 92.3735 192.072 93.1106 190.12 93.6583L190.661 95.5839ZM195.957 93.0387C197.337 91.9346 198.4 90.5537 199.144 88.9102L197.321 88.0859C196.704 89.4502 195.834 90.5758 194.707 91.4769L195.957 93.0387ZM199.139 88.9198C199.91 87.2632 200.416 85.3298 200.676 83.1374L198.69 82.9017C198.449 84.9345 197.988 86.6534 197.326 88.0763L199.139 88.9198ZM200.676 83.1354C200.932 80.9385 201.059 78.3917 201.059 75.5H199.059C199.059 78.3374 198.934 80.8037 198.689 82.9036L200.676 83.1354ZM201.059 75.5V70.3438H199.059V75.5H201.059ZM200.059 69.3438H158.701V71.3438H200.059V69.3438ZM159.701 70.3438V61.75H157.701V70.3438H159.701ZM158.701 62.75H210.371V60.75H158.701V62.75ZM209.371 61.75V75.5H211.371V61.75H209.371ZM209.371 75.5C209.371 78.8971 209.159 81.9604 208.738 84.6936L210.715 84.9978C211.154 82.1451 211.371 78.9779 211.371 75.5H209.371ZM208.739 84.6917C208.323 87.359 207.582 89.7265 206.526 91.8048L208.309 92.7109C209.473 90.4206 210.271 87.8468 210.715 84.9997L208.739 84.6917ZM206.523 91.8106C205.508 93.8403 204.14 95.5971 202.413 97.0866L203.72 98.6009C205.646 96.9394 207.178 94.9722 208.312 92.705L206.523 91.8106ZM202.413 97.0866C200.696 98.5685 198.496 99.821 195.789 100.827L196.486 102.702C199.365 101.632 201.785 100.27 203.72 98.6009L202.413 97.0866ZM195.8 100.823C193.096 101.794 189.842 102.515 186.028 102.974L186.267 104.96C190.187 104.488 193.594 103.74 196.476 102.706L195.8 100.823ZM186.019 102.975C182.206 103.469 177.738 103.719 172.612 103.719V105.719C177.799 105.719 182.355 105.467 186.276 104.958L186.019 102.975ZM172.612 103.719H144.951V105.719H172.612V103.719ZM144.951 103.719C138.686 103.719 133.432 103.327 129.178 102.553L128.82 104.521C133.231 105.323 138.613 105.719 144.951 105.719V103.719ZM129.172 102.552C124.946 101.813 121.515 100.695 118.847 99.2239L117.882 100.975C120.8 102.584 124.458 103.758 128.827 104.522L129.172 102.552ZM118.856 99.2286C116.183 97.7212 114.144 95.8567 112.703 93.6455L111.027 94.7373C112.666 97.2526 114.959 99.327 117.873 100.971L118.856 99.2286ZM112.709 93.6545C111.276 91.4034 110.206 88.7395 109.511 85.647L107.56 86.0855C108.297 89.3667 109.446 92.2529 111.022 94.7283L112.709 93.6545ZM109.513 85.6574C108.848 82.5423 108.459 79.0062 108.353 75.0435L106.354 75.0971C106.463 79.1553 106.862 82.8164 107.557 86.075L109.513 85.6574ZM108.353 75.0435C108.246 71.0437 108.193 66.6127 108.193 61.75H106.193C106.193 66.6269 106.246 71.0761 106.354 75.0971L108.353 75.0435ZM108.193 61.75C108.193 56.8873 108.246 52.4563 108.353 48.4565L106.354 48.4029C106.246 52.4239 106.193 56.8731 106.193 61.75H108.193ZM108.353 48.4565C108.459 44.4938 108.848 40.9577 109.513 37.8426L107.557 37.425C106.862 40.6836 106.463 44.3447 106.354 48.4029L108.353 48.4565ZM109.511 37.853C110.206 34.7605 111.276 32.0966 112.709 29.8455L111.022 28.7717C109.446 31.2472 108.297 34.1333 107.56 37.4145L109.511 37.853ZM112.703 29.8545C114.142 27.6457 116.179 25.8009 118.847 24.3298L117.882 22.5784C114.964 24.1868 112.668 26.2449 111.027 28.7627L112.703 29.8545ZM118.856 24.3251C121.521 22.8215 124.949 21.6869 129.172 20.9479L128.827 18.9779C124.455 19.7428 120.794 20.9356 117.873 22.5831L118.856 24.3251ZM129.178 20.9468C133.432 20.1732 138.686 19.7812 144.951 19.7812V17.7812C138.613 17.7812 133.231 18.177 128.82 18.979L129.178 20.9468ZM144.951 19.7812H172.559V17.7812H144.951V19.7812ZM172.559 19.7812C177.685 19.7812 182.152 20.0306 185.965 20.5249L186.222 18.5415C182.302 18.0332 177.745 17.7812 172.559 17.7812V19.7812ZM185.974 20.526C189.789 20.9852 193.042 21.7057 195.746 22.6765L196.422 20.7942C193.54 19.7598 190.133 19.0122 186.213 18.5404L185.974 20.526ZM195.757 22.6803C198.465 23.6176 200.662 24.8012 202.377 26.2133L203.649 24.6695C201.711 23.0738 199.29 21.7867 196.411 20.7904L195.757 22.6803ZM202.384 26.2193C204.145 27.641 205.524 29.3085 206.532 31.2245L208.302 30.293C207.162 28.127 205.605 26.2496 203.641 24.6635L202.384 26.2193ZM206.539 31.2366C207.589 33.1685 208.327 35.3699 208.74 37.8519L210.713 37.5231C210.267 34.8488 209.465 32.4312 208.296 30.281L206.539 31.2366ZM208.74 37.8519C209.159 40.366 209.371 43.1745 209.371 46.2812H211.371C211.371 43.0859 211.153 40.1653 210.713 37.5231L208.74 37.8519ZM210.371 45.2812H200.059V47.2812H210.371V45.2812ZM319.394 84.0938L320.272 83.6149L319.987 83.0938H319.394V84.0938ZM254.081 84.0938V83.0938H253.488L253.203 83.6149L254.081 84.0938ZM243.769 103V104H244.362L244.647 103.479L243.769 103ZM231.737 103L230.874 102.496L229.996 104H231.737V103ZM279.862 20.5V19.5H279.288L278.999 19.9961L279.862 20.5ZM293.612 20.5L294.476 19.9961L294.187 19.5H293.612V20.5ZM341.737 103V104H343.478L342.601 102.496L341.737 103ZM329.706 103L328.828 103.479L329.113 104H329.706V103ZM314.237 75.5V76.5H315.961L315.106 75.0039L314.237 75.5ZM286.737 27.375L287.606 26.8789L286.737 25.3594L285.869 26.8789L286.737 27.375ZM259.237 75.5L258.369 75.0039L257.514 76.5H259.237V75.5ZM319.394 83.0938H254.081V85.0938H319.394V83.0938ZM253.203 83.6149L242.891 102.521L244.647 103.479L254.959 84.5726L253.203 83.6149ZM243.769 102H231.737V104H243.769V102ZM232.601 103.504L280.726 21.0039L278.999 19.9961L230.874 102.496L232.601 103.504ZM279.862 21.5H293.612V19.5H279.862V21.5ZM292.749 21.0039L340.874 103.504L342.601 102.496L294.476 19.9961L292.749 21.0039ZM341.737 102H329.706V104H341.737V102ZM330.584 102.521L320.272 83.6149L318.516 84.5726L328.828 103.479L330.584 102.521ZM315.106 75.0039L287.606 26.8789L285.869 27.8711L313.369 75.9961L315.106 75.0039ZM285.869 26.8789L258.369 75.0039L260.106 75.9961L287.606 27.8711L285.869 26.8789ZM259.237 76.5H314.237V74.5H259.237V76.5ZM366.487 103H365.487V104H366.487V103ZM366.487 20.5V19.5H365.487V20.5H366.487ZM376.8 20.5H377.8V19.5H376.8V20.5ZM376.8 94.4062H375.8V95.4062H376.8V94.4062ZM442.112 94.4062H443.112V93.4062H442.112V94.4062ZM442.112 103V104H443.112V103H442.112ZM367.487 103V20.5H365.487V103H367.487ZM366.487 21.5H376.8V19.5H366.487V21.5ZM375.8 20.5V94.4062H377.8V20.5H375.8ZM376.8 95.4062H442.112V93.4062H376.8V95.4062ZM441.112 94.4062V103H443.112V94.4062H441.112ZM442.112 102H366.487V104H442.112V102ZM466.862 103H465.862V104H466.862V103ZM466.862 20.5V19.5H465.862V20.5H466.862ZM477.175 20.5H478.175V19.5H477.175V20.5ZM477.175 94.4062H476.175V95.4062H477.175V94.4062ZM542.487 94.4062H543.487V93.4062H542.487V94.4062ZM542.487 103V104H543.487V103H542.487ZM467.862 103V20.5H465.862V103H467.862ZM466.862 21.5H477.175V19.5H466.862V21.5ZM476.175 20.5V94.4062H478.175V20.5H476.175ZM477.175 95.4062H542.487V93.4062H477.175V95.4062ZM541.487 94.4062V103H543.487V94.4062H541.487ZM542.487 102H466.862V104H542.487V102ZM567.237 103H566.237V104H567.237V103ZM567.237 20.5V19.5H566.237V20.5H567.237ZM649.737 20.5H650.737V19.5H649.737V20.5ZM649.737 29.0938V30.0938H650.737V29.0938H649.737ZM577.55 29.0938V28.0938H576.55V29.0938H577.55ZM577.55 56.5938H576.55V57.5938H577.55V56.5938ZM646.3 56.5938H647.3V55.5938H646.3V56.5938ZM646.3 65.1875V66.1875H647.3V65.1875H646.3ZM577.55 65.1875V64.1875H576.55V65.1875H577.55ZM577.55 94.4062H576.55V95.4062H577.55V94.4062ZM649.737 94.4062H650.737V93.4062H649.737V94.4062ZM649.737 103V104H650.737V103H649.737ZM568.237 103V20.5H566.237V103H568.237ZM567.237 21.5H649.737V19.5H567.237V21.5ZM648.737 20.5V29.0938H650.737V20.5H648.737ZM649.737 28.0938H577.55V30.0938H649.737V28.0938ZM576.55 29.0938V56.5938H578.55V29.0938H576.55ZM577.55 57.5938H646.3V55.5938H577.55V57.5938ZM645.3 56.5938V65.1875H647.3V56.5938H645.3ZM646.3 64.1875H577.55V66.1875H646.3V64.1875ZM576.55 65.1875V94.4062H578.55V65.1875H576.55ZM577.55 95.4062H649.737V93.4062H577.55V95.4062ZM648.737 94.4062V103H650.737V94.4062H648.737ZM649.737 102H567.237V104H649.737V102ZM769.019 103V104H770.019V103H769.019ZM758.706 103H757.706V104H758.706V103ZM758.545 81.0859L757.546 81.1251L757.546 81.1355L757.547 81.1458L758.545 81.0859ZM757.632 76.4131L756.7 76.7755L756.704 76.7867L756.709 76.7977L757.632 76.4131ZM742.7 70.6123L742.643 71.6107L742.655 71.6113L742.7 70.6123ZM684.8 70.3438V69.3438H683.8V70.3438H684.8ZM684.8 103V104H685.8V103H684.8ZM674.487 103H673.487V104H674.487V103ZM674.487 20.5V19.5H673.487V20.5H674.487ZM748.77 21.1982L748.662 22.1925L748.671 22.1934L748.77 21.1982ZM759.458 23.1855L759.153 24.1378L759.156 24.1389L759.458 23.1855ZM765.957 26.5156L765.296 27.266L765.305 27.2736L765.957 26.5156ZM769.287 31.1885L768.352 31.5437L768.356 31.5518L768.359 31.5599L769.287 31.1885ZM770.523 37.2041L769.524 37.2524L769.524 37.2605L769.525 37.2685L770.523 37.2041ZM769.985 53.6396L769.003 53.4513L769.001 53.462L769.985 53.6396ZM763.003 64.6504L763.496 65.5206L763.502 65.5172L763.508 65.5136L763.003 64.6504ZM755.859 66.9062L755.711 65.9173V67.8952L755.859 66.9062ZM768.535 79.4746L767.543 79.5949L767.543 79.6023L767.544 79.6097L768.535 79.4746ZM684.8 61.75H683.8V62.75H684.8V61.75ZM744.419 61.5352L744.465 62.5342L744.476 62.5335L744.419 61.5352ZM759.351 55.6807L758.428 55.296L758.423 55.3071L758.419 55.3182L759.351 55.6807ZM760.264 51.0615L759.266 51.0028L759.265 51.0122L759.265 51.0216L760.264 51.0615ZM760.264 38.5469L759.265 38.5894L759.265 38.6L759.266 38.6106L760.264 38.5469ZM759.351 34.3037L758.435 34.7045L758.44 34.7164L758.445 34.7281L759.351 34.3037ZM752.207 30.0068L752.018 30.9887L752.026 30.9903L752.034 30.9918L752.207 30.0068ZM744.419 29.2549L744.385 30.2543L744.385 30.2543L744.419 29.2549ZM684.8 29.0938V28.0938H683.8V29.0938H684.8ZM769.019 102H758.706V104H769.019V102ZM759.706 103V87.5312H757.706V103H759.706ZM759.706 87.5312C759.706 85.0119 759.652 82.8424 759.543 81.026L757.547 81.1458C757.653 82.9102 757.706 85.0375 757.706 87.5312H759.706ZM759.544 81.0468C759.469 79.1365 759.15 77.4553 758.555 76.0285L756.709 76.7977C757.189 77.949 757.477 79.383 757.546 81.1251L759.544 81.0468ZM758.564 76.0506C757.993 74.5824 757.066 73.3852 755.794 72.4823L754.636 74.1134C755.584 74.786 756.268 75.6657 756.7 76.7755L758.564 76.0506ZM755.794 72.4823C754.529 71.5845 752.805 70.9375 750.694 70.4931L750.282 72.4502C752.254 72.8652 753.681 73.4357 754.636 74.1134L755.794 72.4823ZM750.694 70.4931C748.581 70.0482 745.926 69.7579 742.746 69.6133L742.655 71.6113C745.776 71.7532 748.314 72.0358 750.282 72.4502L750.694 70.4931ZM742.758 69.614C739.617 69.4334 735.747 69.3438 731.152 69.3438V71.3438C735.725 71.3438 739.553 71.4331 742.643 71.6107L742.758 69.614ZM731.152 69.3438H684.8V71.3438H731.152V69.3438ZM683.8 70.3438V103H685.8V70.3438H683.8ZM684.8 102H674.487V104H684.8V102ZM675.487 103V20.5H673.487V103H675.487ZM674.487 21.5H732.871V19.5H674.487V21.5ZM732.871 21.5C739.152 21.5 744.413 21.7321 748.662 22.1924L748.877 20.2041C744.533 19.7334 739.195 19.5 732.871 19.5V21.5ZM748.671 22.1934C752.964 22.6191 756.451 23.2718 759.153 24.1378L759.763 22.2333C756.879 21.3089 753.241 20.6368 748.868 20.2031L748.671 22.1934ZM759.156 24.1389C761.911 25.0106 763.934 26.0662 765.296 27.266L766.618 25.7653C764.972 24.3153 762.663 23.1509 759.76 22.2321L759.156 24.1389ZM765.305 27.2736C766.726 28.4967 767.735 29.9185 768.352 31.5437L770.222 30.8333C769.479 28.8777 768.267 27.1843 766.609 25.7576L765.305 27.2736ZM768.359 31.5599C769.028 33.2328 769.421 35.1266 769.524 37.2524L771.521 37.1558C771.409 34.8415 770.979 32.7249 770.216 30.8171L768.359 31.5599ZM769.525 37.2685C769.666 39.4633 769.737 41.8942 769.737 44.5625H771.737C771.737 41.8597 771.665 39.385 771.521 37.1397L769.525 37.2685ZM769.737 44.5625C769.737 47.954 769.49 50.9143 769.003 53.4513L770.968 53.828C771.484 51.1371 771.737 48.046 771.737 44.5625H769.737ZM769.001 53.462C768.554 55.9408 767.786 58.0171 766.721 59.7146L768.416 60.7776C769.642 58.8228 770.486 56.4948 770.97 53.8173L769.001 53.462ZM766.721 59.7146C765.663 61.4015 764.26 62.7569 762.498 63.7872L763.508 65.5136C765.542 64.3239 767.182 62.7431 768.416 60.7776L766.721 59.7146ZM762.51 63.7801C760.748 64.7779 758.492 65.5002 755.711 65.9173L756.008 67.8952C758.956 67.453 761.463 66.6714 763.496 65.5206L762.51 63.7801ZM755.711 67.8952C758.494 68.3126 760.641 69.0327 762.204 70.0101L763.265 68.3141C761.391 67.1431 758.954 66.3593 756.008 65.9173L755.711 67.8952ZM762.204 70.0101C763.782 70.9962 764.984 72.2669 765.83 73.8278L767.588 72.8753C766.572 70.9988 765.124 69.4764 763.265 68.3141L762.204 70.0101ZM765.83 73.8278C766.69 75.4149 767.268 77.33 767.543 79.5949L769.528 79.3543C769.23 76.8927 768.591 74.7257 767.588 72.8753L765.83 73.8278ZM767.544 79.6097C767.859 81.9184 768.019 84.5576 768.019 87.5312H770.019C770.019 84.4893 769.856 81.7573 769.526 79.3395L767.544 79.6097ZM768.019 87.5312V103H770.019V87.5312H768.019ZM684.8 62.75H732.871V60.75H684.8V62.75ZM732.871 62.75C737.464 62.75 741.329 62.6783 744.465 62.5341L744.373 60.5362C741.278 60.6785 737.446 60.75 732.871 60.75V62.75ZM744.476 62.5335C747.654 62.3529 750.305 62.0445 752.413 61.6006L752.001 59.6435C750.027 60.059 747.486 60.3593 744.362 60.5368L744.476 62.5335ZM752.413 61.6006C754.524 61.1562 756.247 60.5093 757.512 59.6114L756.355 57.9804C755.4 58.6581 753.972 59.2285 752.001 59.6435L752.413 61.6006ZM757.512 59.6114C758.785 58.7085 759.712 57.5114 760.283 56.0431L758.419 55.3182C757.987 56.4281 757.303 57.3078 756.355 57.9804L757.512 59.6114ZM760.274 56.0653C760.867 54.6407 761.188 52.9784 761.263 51.1015L759.265 51.0216C759.196 52.7254 758.908 54.1425 758.428 55.296L760.274 56.0653ZM761.262 51.1202C761.371 49.2689 761.425 47.082 761.425 44.5625H759.425C759.425 47.056 759.371 49.2018 759.266 51.0028L761.262 51.1202ZM761.425 44.5625C761.425 42.2211 761.371 40.1936 761.262 38.4832L759.266 38.6106C759.372 40.2661 759.425 42.2489 759.425 44.5625H761.425ZM761.263 38.5044C761.187 36.7306 760.865 35.1775 760.256 33.8793L758.445 34.7281C758.911 35.7216 759.197 36.9973 759.265 38.5894L761.263 38.5044ZM760.267 33.9029C759.68 32.5618 758.733 31.4944 757.456 30.7119L756.411 32.4171C757.354 32.9952 758.019 33.754 758.435 34.7045L760.267 33.9029ZM757.456 30.7119C756.195 29.9385 754.48 29.3903 752.38 29.0219L752.034 30.9918C754.016 31.3395 755.453 31.8297 756.411 32.4171L757.456 30.7119ZM752.397 29.025C750.285 28.6175 747.633 28.3639 744.453 28.2555L744.385 30.2543C747.508 30.3608 750.047 30.6084 752.018 30.9887L752.397 29.025ZM744.454 28.2555C741.323 28.1475 737.461 28.0938 732.871 28.0938V30.0938C737.448 30.0938 741.285 30.1474 744.385 30.2543L744.454 28.2555ZM732.871 28.0938H684.8V30.0938H732.871V28.0938ZM683.8 29.0938V61.75H685.8V29.0938H683.8ZM795.487 20.5V19.5H793.134L794.768 21.1941L795.487 20.5ZM809.237 20.5L809.967 19.8166L809.671 19.5H809.237V20.5ZM847.05 60.8906L846.32 61.5741L847.05 62.3538L847.78 61.5741L847.05 60.8906ZM884.862 20.5V19.5H884.429L884.132 19.8166L884.862 20.5ZM898.612 20.5L899.332 21.1941L900.966 19.5H898.612V20.5ZM852.206 68.625L851.486 67.9309L851.206 68.2214V68.625H852.206ZM852.206 103V104H853.206V103H852.206ZM841.894 103H840.894V104H841.894V103ZM841.894 68.625H842.894V68.2214L842.614 67.9309L841.894 68.625ZM795.487 21.5H809.237V19.5H795.487V21.5ZM808.507 21.1834L846.32 61.5741L847.78 60.2072L809.967 19.8166L808.507 21.1834ZM847.78 61.5741L885.592 21.1834L884.132 19.8166L846.32 60.2072L847.78 61.5741ZM884.862 21.5H898.612V19.5H884.862V21.5ZM897.893 19.8059L851.486 67.9309L852.926 69.3191L899.332 21.1941L897.893 19.8059ZM851.206 68.625V103H853.206V68.625H851.206ZM852.206 102H841.894V104H852.206V102ZM842.894 103V68.625H840.894V103H842.894ZM842.614 67.9309L796.207 19.8059L794.768 21.1941L841.174 69.3191L842.614 67.9309Z" fill="white" mask="url(#path-1-outside-1_3759_38)"/>
<path d="M190.059 46.2812C190.059 41.9844 189.593 38.5827 188.662 36.0762C187.731 33.5697 186.192 31.6719 184.043 30.3828C181.895 29.0938 179.066 28.2702 175.557 27.9121C172.048 27.554 167.715 27.375 162.559 27.375H134.951C130.368 27.375 126.501 27.5182 123.35 27.8047C120.234 28.0553 117.656 28.5924 115.615 29.416C113.574 30.2396 111.999 31.4212 110.889 32.9609C109.779 34.5007 108.973 36.5417 108.472 39.084C107.97 41.6263 107.684 44.7594 107.612 48.4834C107.541 52.1715 107.505 56.5938 107.505 61.75C107.505 66.9062 107.541 71.3464 107.612 75.0703C107.72 78.7585 108.024 81.8737 108.526 84.416C109.027 86.9583 109.815 88.9993 110.889 90.5391C111.999 92.0788 113.574 93.2604 115.615 94.084C117.656 94.9076 120.234 95.4626 123.35 95.749C126.501 95.9997 130.368 96.125 134.951 96.125H162.612C166.623 96.125 170.078 96.0176 172.979 95.8027C175.879 95.5879 178.35 95.194 180.391 94.6211C182.432 94.0482 184.079 93.2604 185.332 92.2578C186.585 91.2552 187.552 90.002 188.233 88.498C188.949 86.9583 189.432 85.1322 189.683 83.0195C189.933 80.8711 190.059 78.3646 190.059 75.5V70.3438H148.701V61.75H200.371V75.5C200.371 78.9375 200.156 82.0527 199.727 84.8457C199.297 87.6029 198.527 90.0736 197.417 92.2578C196.343 94.4062 194.893 96.2682 193.067 97.8438C191.24 99.4193 188.931 100.726 186.138 101.765C183.345 102.767 180.015 103.501 176.148 103.967C172.28 104.468 167.769 104.719 162.612 104.719H134.951C128.649 104.719 123.332 104.325 118.999 103.537C114.702 102.785 111.157 101.639 108.364 100.1C105.571 98.5241 103.405 96.5547 101.865 94.1914C100.361 91.8281 99.2514 89.0531 98.5353 85.8662C97.8549 82.6794 97.4611 79.0807 97.3536 75.0703C97.2462 71.0599 97.1925 66.6198 97.1925 61.75C97.1925 56.8802 97.2462 52.4401 97.3536 48.4297C97.4611 44.4193 97.8549 40.8206 98.5353 37.6338C99.2514 34.4469 100.361 31.6719 101.865 29.3086C103.405 26.9453 105.571 24.9938 108.364 23.4541C111.157 21.8786 114.702 20.7148 118.999 19.9629C123.332 19.1751 128.649 18.7812 134.951 18.7812H162.559C167.715 18.7812 172.227 19.0319 176.094 19.5332C179.961 19.9987 183.291 20.7327 186.084 21.7354C188.877 22.7021 191.187 23.9375 193.013 25.4414C194.875 26.9453 196.343 28.7178 197.417 30.7588C198.527 32.7998 199.297 35.1094 199.727 37.6875C200.156 40.2656 200.371 43.1302 200.371 46.2812H190.059ZM309.394 84.0938H244.081L233.769 103H221.737L269.862 20.5H283.612L331.737 103H319.706L309.394 84.0938ZM304.237 75.5L276.737 27.375L249.237 75.5H304.237ZM356.487 103V20.5H366.8V94.4062H432.112V103H356.487ZM456.862 103V20.5H467.175V94.4062H532.487V103H456.862ZM557.237 103V20.5H639.737V29.0938H567.55V56.5938H636.3V65.1875H567.55V94.4062H639.737V103H557.237ZM759.019 103H748.706V87.5312C748.706 85.0247 748.652 82.8763 748.545 81.0859C748.473 79.2598 748.169 77.7021 747.632 76.4131C747.131 75.124 746.325 74.0856 745.215 73.2979C744.105 72.5101 742.529 71.9014 740.488 71.4717C738.447 71.042 735.851 70.7555 732.7 70.6123C729.585 70.4333 725.736 70.3438 721.152 70.3438H674.8V103H664.487V20.5H722.871C729.173 20.5 734.473 20.7327 738.77 21.1982C743.102 21.6279 746.665 22.2904 749.458 23.1855C752.287 24.0807 754.453 25.1908 755.957 26.5156C757.497 27.8405 758.607 29.3981 759.287 31.1885C760.003 32.9788 760.415 34.984 760.523 37.2041C760.666 39.4242 760.737 41.877 760.737 44.5625C760.737 48 760.487 51.0257 759.985 53.6396C759.52 56.2178 758.714 58.4199 757.568 60.2461C756.423 62.0723 754.901 63.5404 753.003 64.6504C751.105 65.7246 748.724 66.4766 745.859 66.9062C748.724 67.3359 751.016 68.0879 752.734 69.1621C754.453 70.2363 755.778 71.6328 756.709 73.3516C757.64 75.0703 758.249 77.1113 758.535 79.4746C758.858 81.8379 759.019 84.5234 759.019 87.5312V103ZM674.8 61.75H722.871C727.455 61.75 731.304 61.6784 734.419 61.5352C737.57 61.3561 740.166 61.0518 742.207 60.6221C744.248 60.1924 745.824 59.5837 746.934 58.7959C748.044 58.0081 748.849 56.9697 749.351 55.6807C749.888 54.3916 750.192 52.8519 750.264 51.0615C750.371 49.2354 750.425 47.069 750.425 44.5625C750.425 42.235 750.371 40.2298 750.264 38.5469C750.192 36.8639 749.888 35.4495 749.351 34.3037C748.849 33.1579 748.044 32.2448 746.934 31.5645C745.824 30.8841 744.248 30.3649 742.207 30.0068C740.166 29.613 737.57 29.3623 734.419 29.2549C731.304 29.1475 727.455 29.0938 722.871 29.0938H674.8V61.75ZM785.487 20.5H799.237L837.05 60.8906L874.862 20.5H888.612L842.206 68.625V103H831.894V68.625L785.487 20.5Z" fill="white"/>
</svg>
