<svg width="1183" height="30" viewBox="0 0 1183 30" fill="none" xmlns="http://www.w3.org/2000/svg">
<g filter="url(#filter0_d_414_295)">
<path d="M951.917 22.3859L958.686 22.3859L981.266 1.09945L974.635 1.09945L951.917 22.3859Z" fill="white" stroke="black" stroke-width="0.5"/>
<path d="M1149.53 22.3859L1156.3 22.3859L1178.88 1.09945L1172.25 1.09945L1149.53 22.3859Z" fill="white" stroke="black" stroke-width="0.5"/>
<path d="M853.016 22.3859L859.785 22.3859L882.364 1.09945L875.734 1.09945L853.016 22.3859Z" fill="white" stroke="black" stroke-width="0.5"/>
<path d="M1050.63 22.3859L1057.4 22.3859L1079.98 1.09945L1073.35 1.09945L1050.63 22.3859Z" fill="white" stroke="black" stroke-width="0.5"/>
<path d="M940.872 22.3859L947.641 22.3859L970.221 1.09945L963.59 1.09945L940.872 22.3859Z" fill="white" stroke="black" stroke-width="0.5"/>
<path d="M1138.49 22.3859L1145.25 22.3859L1167.83 1.09945L1161.2 1.09945L1138.49 22.3859Z" fill="white" stroke="black" stroke-width="0.5"/>
<path d="M841.971 22.3859L848.739 22.3859L871.319 1.09945L864.688 1.09945L841.971 22.3859Z" fill="white" stroke="black" stroke-width="0.5"/>
<path d="M1039.58 22.3859L1046.35 22.3859L1068.93 1.09945L1062.3 1.09945L1039.58 22.3859Z" fill="white" stroke="black" stroke-width="0.5"/>
<path d="M929.89 22.3859L936.659 22.3859L959.238 1.09945L952.608 1.09945L929.89 22.3859Z" fill="white" stroke="black" stroke-width="0.5"/>
<path d="M1127.5 22.3859L1134.27 22.3859L1156.85 1.09945L1150.22 1.09945L1127.5 22.3859Z" fill="white" stroke="black" stroke-width="0.5"/>
<path d="M830.989 22.3859L837.757 22.3859L860.337 1.09945L853.706 1.09945L830.989 22.3859Z" fill="white" stroke="black" stroke-width="0.5"/>
<path d="M1028.6 22.3859L1035.37 22.3859L1057.95 1.09945L1051.32 1.09945L1028.6 22.3859Z" fill="white" stroke="black" stroke-width="0.5"/>
<path d="M918.908 22.3859L925.677 22.3859L948.257 1.09945L941.626 1.09945L918.908 22.3859Z" fill="white" stroke="black" stroke-width="0.5"/>
<path d="M1116.52 22.3859L1123.29 22.3859L1145.87 1.09945L1139.24 1.09945L1116.52 22.3859Z" fill="white" stroke="black" stroke-width="0.5"/>
<path d="M820.007 22.3859L826.775 22.3859L849.355 1.09945L842.725 1.09945L820.007 22.3859Z" fill="white" stroke="black" stroke-width="0.5"/>
<path d="M1017.62 22.3859L1024.39 22.3859L1046.97 1.09945L1040.34 1.09945L1017.62 22.3859Z" fill="white" stroke="black" stroke-width="0.5"/>
<path d="M907.926 22.3859L914.695 22.3859L937.275 1.09945L930.644 1.09945L907.926 22.3859Z" fill="white" stroke="black" stroke-width="0.5"/>
<path d="M1105.54 22.3859L1112.31 22.3859L1134.89 1.09945L1128.26 1.09945L1105.54 22.3859Z" fill="white" stroke="black" stroke-width="0.5"/>
<path d="M809.025 22.3859L815.794 22.3859L838.373 1.09945L831.743 1.09945L809.025 22.3859Z" fill="white" stroke="black" stroke-width="0.5"/>
<path d="M1006.64 22.3859L1013.41 22.3859L1035.99 1.09945L1029.36 1.09945L1006.64 22.3859Z" fill="white" stroke="black" stroke-width="0.5"/>
<path d="M896.944 22.3859L903.713 22.3859L926.292 1.09945L919.662 1.09945L896.944 22.3859Z" fill="white" stroke="black" stroke-width="0.5"/>
<path d="M1094.56 22.3859L1101.33 22.3859L1123.91 1.09945L1117.28 1.09945L1094.56 22.3859Z" fill="white" stroke="black" stroke-width="0.5"/>
<path d="M798.042 22.3859L804.811 22.3859L827.391 1.09945L820.76 1.09945L798.042 22.3859Z" fill="white" stroke="black" stroke-width="0.5"/>
<path d="M995.657 22.3859L1002.43 22.3859L1025.01 1.09945L1018.37 1.09945L995.657 22.3859Z" fill="white" stroke="black" stroke-width="0.5"/>
<path d="M885.962 22.3859L892.731 22.3859L915.31 1.09945L908.68 1.09945L885.962 22.3859Z" fill="white" stroke="black" stroke-width="0.5"/>
<path d="M1083.58 22.3859L1090.34 22.3859L1112.92 1.09945L1106.29 1.09945L1083.58 22.3859Z" fill="white" stroke="black" stroke-width="0.5"/>
<path d="M787.06 22.3859L793.829 22.3859L816.409 1.09945L809.778 1.09945L787.06 22.3859Z" fill="white" stroke="black" stroke-width="0.5"/>
<path d="M984.674 22.3859L991.443 22.3859L1014.02 1.09945L1007.39 1.09945L984.674 22.3859Z" fill="white" stroke="black" stroke-width="0.5"/>
<path d="M874.98 22.3859L881.749 22.3859L904.328 1.09945L897.698 1.09945L874.98 22.3859Z" fill="white" stroke="black" stroke-width="0.5"/>
<path d="M1072.59 22.3859L1079.36 22.3859L1101.94 1.09945L1095.31 1.09945L1072.59 22.3859Z" fill="white" stroke="black" stroke-width="0.5"/>
<path d="M776.078 22.3859L782.847 22.3859L805.427 1.09945L798.796 1.09945L776.078 22.3859Z" fill="white" stroke="black" stroke-width="0.5"/>
<path d="M973.692 22.3859L980.461 22.3859L1003.04 1.09945L996.41 1.09945L973.692 22.3859Z" fill="white" stroke="black" stroke-width="0.5"/>
<path d="M863.998 22.3859L870.767 22.3859L893.346 1.09945L886.716 1.09945L863.998 22.3859Z" fill="white" stroke="black" stroke-width="0.5"/>
<path d="M1061.61 22.3859L1068.38 22.3859L1090.96 1.09945L1084.33 1.09945L1061.61 22.3859Z" fill="white" stroke="black" stroke-width="0.5"/>
<path d="M765.097 22.3859L771.865 22.3859L794.445 1.09945L787.814 1.09945L765.097 22.3859Z" fill="white" stroke="black" stroke-width="0.5"/>
<path d="M717.571 22.3859L724.339 22.3859L746.919 1.09945L740.288 1.09945L717.571 22.3859Z" fill="white" stroke="black" stroke-width="0.5"/>
<path d="M527.215 22.3859L533.984 22.3859L556.564 1.09945L549.933 1.09945L527.215 22.3859Z" fill="white" stroke="black" stroke-width="0.5"/>
<path d="M622.393 22.3859L629.162 22.3859L651.741 1.09945L645.111 1.09945L622.393 22.3859Z" fill="white" stroke="black" stroke-width="0.5"/>
<path d="M432.037 22.3859L438.806 22.3859L461.386 1.09945L454.755 1.09945L432.037 22.3859Z" fill="white" stroke="black" stroke-width="0.5"/>
<path d="M669.982 22.3859L676.751 22.3859L699.33 1.09945L692.7 1.09945L669.982 22.3859Z" fill="white" stroke="black" stroke-width="0.5"/>
<path d="M479.626 22.3859L486.395 22.3859L508.975 1.09945L502.344 1.09945L479.626 22.3859Z" fill="white" stroke="black" stroke-width="0.5"/>
<path d="M574.804 22.3859L581.573 22.3859L604.153 1.09945L597.522 1.09945L574.804 22.3859Z" fill="white" stroke="black" stroke-width="0.5"/>
<path d="M384.449 22.3859L391.217 22.3859L413.797 1.09945L407.166 1.09945L384.449 22.3859Z" fill="white" stroke="black" stroke-width="0.5"/>
<path d="M336.86 22.3857L343.629 22.3857L366.208 1.09932L359.578 1.09932L336.86 22.3857Z" fill="white" stroke="black" stroke-width="0.5"/>
<path d="M146.504 22.3857L153.273 22.3857L175.853 1.09932L169.222 1.09932L146.504 22.3857Z" fill="white" stroke="black" stroke-width="0.5"/>
<path d="M241.682 22.3857L248.451 22.3857L271.03 1.09932L264.4 1.09932L241.682 22.3857Z" fill="white" stroke="black" stroke-width="0.5"/>
<path d="M51.3265 22.3857L58.0953 22.3857L80.675 1.09932L74.0443 1.09932L51.3265 22.3857Z" fill="white" stroke="black" stroke-width="0.5"/>
<path d="M289.271 22.3857L296.04 22.3857L318.619 1.09932L311.989 1.09932L289.271 22.3857Z" fill="white" stroke="black" stroke-width="0.5"/>
<path d="M98.9154 22.3857L105.684 22.3857L128.264 1.09932L121.633 1.09932L98.9154 22.3857Z" fill="white" stroke="black" stroke-width="0.5"/>
<path d="M194.093 22.3857L200.862 22.3857L223.442 1.09932L216.811 1.09932L194.093 22.3857Z" fill="white" stroke="black" stroke-width="0.5"/>
<path d="M3.73764 22.3857L10.5065 22.3857L33.0861 1.09932L26.4555 1.09932L3.73764 22.3857Z" fill="white" stroke="black" stroke-width="0.5"/>
<path d="M962.71 22.3859L969.479 22.3859L992.059 1.09945L985.428 1.09945L962.71 22.3859Z" fill="white" stroke="black" stroke-width="0.5"/>
</g>
<defs>
<filter id="filter0_d_414_295" x="0.0563476" y="0.893677" width="1182.5" height="28.8979" filterUnits="userSpaceOnUse" color-interpolation-filters="sRGB">
<feFlood flood-opacity="0" result="BackgroundImageFix"/>
<feColorMatrix in="SourceAlpha" type="matrix" values="0 0 0 0 0 0 0 0 0 0 0 0 0 0 0 0 0 0 127 0" result="hardAlpha"/>
<feOffset dy="4"/>
<feGaussianBlur stdDeviation="1.6"/>
<feComposite in2="hardAlpha" operator="out"/>
<feColorMatrix type="matrix" values="0 0 0 0 0 0 0 0 0 0 0 0 0 0 0 0 0 0 0.25 0"/>
<feBlend mode="normal" in2="BackgroundImageFix" result="effect1_dropShadow_414_295"/>
<feBlend mode="normal" in="SourceGraphic" in2="effect1_dropShadow_414_295" result="shape"/>
</filter>
</defs>
</svg>
