<svg width="567" height="107" viewBox="0 0 567 107" fill="none" xmlns="http://www.w3.org/2000/svg">
<g filter="url(#filter0_d_3452_446)">
<path d="M83.2658 29.5686V61.7843C83.2658 65.5875 83.2099 69.0552 83.098 72.1873C83.0142 75.3194 82.6926 78.1299 82.1333 80.6187C81.6019 83.1076 80.749 85.2749 79.5745 87.1206C78.3999 88.9663 76.722 90.5044 74.5408 91.7348C72.3595 92.9373 69.577 93.8322 66.1932 94.4195C62.8374 95.0347 58.6986 95.3423 53.7767 95.3423H34.9003C29.9785 95.3423 25.8257 95.0347 22.4419 94.4195C19.0861 93.8322 16.3176 92.9373 14.1363 91.7348C11.955 90.5044 10.2632 88.9663 9.06067 87.1206C7.88613 85.2749 7.01922 83.1076 6.45992 80.6187C5.92858 78.1299 5.62097 75.3194 5.53707 72.1873C5.45318 69.0552 5.41123 65.5875 5.41123 61.7843V29.5686H13.4652V61.7843C13.4652 65.8113 13.4931 69.2789 13.5491 72.1873C13.6329 75.0677 13.8706 77.5006 14.2622 79.4862C14.6537 81.4717 15.2689 83.0657 16.1078 84.2682C16.9748 85.4707 18.2052 86.3935 19.7992 87.0367C21.3932 87.6799 23.4067 88.1134 25.8397 88.3371C28.3006 88.5328 31.3208 88.6307 34.9003 88.6307H53.7767C57.3283 88.6307 60.3345 88.5328 62.7954 88.3371C65.2564 88.1134 67.2698 87.6799 68.8359 87.0367C70.4299 86.3935 71.6604 85.4707 72.5273 84.2682C73.3942 83.0657 74.0234 81.4717 74.4149 79.4862C74.8344 77.5006 75.0721 75.0677 75.128 72.1873C75.1839 69.2789 75.2119 65.8113 75.2119 61.7843L75.17 29.5686H83.2658ZM153.603 87.2884C157.155 87.2884 160.161 87.1905 162.622 86.9948C165.083 86.799 167.111 86.4075 168.705 85.8202C170.299 85.205 171.529 84.3241 172.396 83.1775C173.263 82.031 173.892 80.5209 174.284 78.6472C174.703 76.7456 174.941 74.4245 174.997 71.6839C175.081 68.9154 175.123 65.6155 175.123 61.7843C175.123 57.9531 175.081 54.6672 174.997 51.9266C174.941 49.1581 174.703 46.837 174.284 44.9633C173.892 43.0617 173.263 41.5376 172.396 40.3911C171.529 39.2445 170.299 38.3776 168.705 37.7903C167.111 37.1751 165.083 36.7696 162.622 36.5738C160.189 36.3781 157.183 36.2802 153.603 36.2802H113.376V87.2884H153.603ZM105.322 94V29.5686H153.603C158.525 29.5686 162.664 29.8622 166.02 30.4495C169.404 31.0088 172.186 31.8757 174.367 33.0502C176.577 34.2248 178.269 35.6929 179.443 37.4547C180.646 39.2165 181.513 41.2999 182.044 43.7049C182.603 46.0819 182.925 48.7806 183.009 51.8008C183.121 54.793 183.176 58.1209 183.176 61.7843C183.176 65.4477 183.121 68.7895 183.009 71.8098C182.925 74.802 182.603 77.5006 182.044 79.9056C181.513 82.2827 180.646 84.3521 179.443 86.1139C178.269 87.8757 176.577 89.3438 174.367 90.5184C172.186 91.6929 169.404 92.5738 166.02 93.161C162.664 93.7203 158.525 94 153.603 94H105.322ZM202.506 29.5686H213.244L242.776 61.1131L272.307 29.5686H283.045L246.802 67.1536V94H238.749V67.1536L202.506 29.5686ZM369.155 79.2345H318.147L310.093 94H300.697L338.282 29.5686H349.02L386.605 94H377.209L369.155 79.2345ZM365.128 72.5229L343.651 34.9379L322.174 72.5229H365.128ZM413.989 34.9379V94H405.935V29.5686H419.358L456.901 85.9461L494.444 29.5686H507.28V94H499.226V35.8188L460.97 94H452.832L413.989 34.9379Z" fill="white"/>
<mask id="path-2-outside-1_3452_446" maskUnits="userSpaceOnUse" x="10" y="23" width="505" height="69" fill="black">
<rect fill="white" x="10" y="23" width="505" height="69"/>
<path d="M89.2658 24.5686V56.7843C89.2658 60.5875 89.2099 64.0552 89.098 67.1873C89.0142 70.3194 88.6926 73.1299 88.1333 75.6187C87.6019 78.1076 86.749 80.2749 85.5745 82.1206C84.3999 83.9663 82.722 85.5044 80.5408 86.7348C78.3595 87.9373 75.577 88.8322 72.1932 89.4195C68.8374 90.0347 64.6986 90.3423 59.7767 90.3423H40.9003C35.9785 90.3423 31.8257 90.0347 28.4419 89.4195C25.0861 88.8322 22.3176 87.9373 20.1363 86.7348C17.955 85.5044 16.2632 83.9663 15.0607 82.1206C13.8861 80.2749 13.0192 78.1076 12.4599 75.6187C11.9286 73.1299 11.621 70.3194 11.5371 67.1873C11.4532 64.0552 11.4112 60.5875 11.4112 56.7843V24.5686H19.4652V56.7843C19.4652 60.8113 19.4931 64.2789 19.5491 67.1873C19.6329 70.0677 19.8706 72.5006 20.2622 74.4862C20.6537 76.4717 21.2689 78.0657 22.1078 79.2682C22.9748 80.4707 24.2052 81.3935 25.7992 82.0367C27.3932 82.6799 29.4067 83.1134 31.8397 83.3371C34.3006 83.5328 37.3208 83.6307 40.9003 83.6307H59.7767C63.3283 83.6307 66.3345 83.5328 68.7954 83.3371C71.2564 83.1134 73.2698 82.6799 74.8359 82.0367C76.4299 81.3935 77.6604 80.4707 78.5273 79.2682C79.3942 78.0657 80.0234 76.4717 80.4149 74.4862C80.8344 72.5006 81.0721 70.0677 81.128 67.1873C81.1839 64.2789 81.2119 60.8113 81.2119 56.7843L81.17 24.5686H89.2658ZM159.603 82.2884C163.155 82.2884 166.161 82.1905 168.622 81.9948C171.083 81.799 173.111 81.4075 174.705 80.8202C176.299 80.205 177.529 79.3241 178.396 78.1775C179.263 77.031 179.892 75.5209 180.284 73.6472C180.703 71.7456 180.941 69.4245 180.997 66.6839C181.081 63.9154 181.123 60.6155 181.123 56.7843C181.123 52.9531 181.081 49.6672 180.997 46.9266C180.941 44.1581 180.703 41.837 180.284 39.9633C179.892 38.0617 179.263 36.5376 178.396 35.3911C177.529 34.2445 176.299 33.3776 174.705 32.7903C173.111 32.1751 171.083 31.7696 168.622 31.5738C166.189 31.3781 163.183 31.2802 159.603 31.2802H119.376V82.2884H159.603ZM111.322 89V24.5686H159.603C164.525 24.5686 168.664 24.8622 172.02 25.4495C175.404 26.0088 178.186 26.8757 180.367 28.0502C182.577 29.2248 184.269 30.6929 185.443 32.4547C186.646 34.2165 187.513 36.2999 188.044 38.7049C188.603 41.0819 188.925 43.7806 189.009 46.8008C189.121 49.793 189.176 53.1209 189.176 56.7843C189.176 60.4477 189.121 63.7895 189.009 66.8098C188.925 69.802 188.603 72.5006 188.044 74.9056C187.513 77.2827 186.646 79.3521 185.443 81.1139C184.269 82.8757 182.577 84.3438 180.367 85.5184C178.186 86.6929 175.404 87.5738 172.02 88.161C168.664 88.7203 164.525 89 159.603 89H111.322ZM208.506 24.5686H219.244L248.776 56.1131L278.307 24.5686H289.045L252.802 62.1536V89H244.749V62.1536L208.506 24.5686ZM375.155 74.2345H324.147L316.093 89H306.697L344.282 24.5686H355.02L392.605 89H383.209L375.155 74.2345ZM371.128 67.5229L349.651 29.9379L328.174 67.5229H371.128ZM419.989 29.9379V89H411.935V24.5686H425.358L462.901 80.9461L500.444 24.5686H513.28V89H505.226V30.8188L466.97 89H458.832L419.989 29.9379Z"/>
</mask>
<path d="M89.2658 24.5686H90.2658V23.5686H89.2658V24.5686ZM89.098 67.1873L88.0986 67.1516L88.0984 67.1605L89.098 67.1873ZM88.1333 75.6187L87.1575 75.3995L87.1553 75.41L88.1333 75.6187ZM80.5407 86.7348L81.0236 87.6106L81.0321 87.6058L80.5407 86.7348ZM72.1932 89.4195L72.0222 88.4342L72.0129 88.4359L72.1932 89.4195ZM28.4419 89.4195L28.6208 88.4356L28.6143 88.4344L28.4419 89.4195ZM20.1363 86.7348L19.645 87.6059L19.6535 87.6106L20.1363 86.7348ZM15.0607 82.1206L14.217 82.6575L14.2228 82.6665L15.0607 82.1206ZM12.4599 75.6187L11.4819 75.8275L11.4843 75.838L12.4599 75.6187ZM11.4112 24.5686V23.5686H10.4112V24.5686H11.4112ZM19.4652 24.5686H20.4652V23.5686H19.4652V24.5686ZM19.5491 67.1873L18.5492 67.2065L18.5495 67.2164L19.5491 67.1873ZM22.1078 79.2682L21.2877 79.8404L21.2921 79.8467L21.2967 79.853L22.1078 79.2682ZM31.8397 83.3371L31.7481 84.333L31.7604 84.3339L31.8397 83.3371ZM68.7954 83.3371L68.8747 84.334L68.886 84.333L68.7954 83.3371ZM74.8359 82.0367L74.4617 81.1093L74.456 81.1117L74.8359 82.0367ZM80.4149 74.4862L79.4364 74.2794L79.4338 74.2927L80.4149 74.4862ZM81.128 67.1873L82.1278 67.2067V67.2065L81.128 67.1873ZM81.2119 56.7843H82.2119V56.783L81.2119 56.7843ZM81.17 24.5686V23.5686H80.1687L80.17 24.5699L81.17 24.5686ZM88.2658 24.5686V56.7843H90.2658V24.5686H88.2658ZM88.2658 56.7843C88.2658 60.578 88.21 64.0336 88.0987 67.1516L90.0974 67.223C90.2098 64.0768 90.2658 60.597 90.2658 56.7843H88.2658ZM88.0984 67.1605C88.0159 70.2419 87.6999 72.9862 87.1576 75.3995L89.1089 75.838C89.6852 73.2735 90.0124 70.3969 90.0977 67.2141L88.0984 67.1605ZM87.1553 75.41C86.6448 77.801 85.8319 79.8535 84.7308 81.5837L86.4181 82.6575C87.6661 80.6963 88.559 78.4142 89.1112 75.8275L87.1553 75.41ZM84.7308 81.5837C83.6565 83.2719 82.1085 84.7023 80.0494 85.8639L81.0321 87.6058C83.3356 86.3064 85.1433 84.6607 86.4181 82.6575L84.7308 81.5837ZM80.058 85.8591C78.0029 86.992 75.335 87.8592 72.0222 88.4342L72.3642 90.4047C75.8189 89.8052 78.7161 88.8826 81.0235 87.6106L80.058 85.8591ZM72.0129 88.4359C68.7363 89.0366 64.6621 89.3423 59.7767 89.3423V91.3423C64.735 91.3423 68.9385 91.0328 72.3735 90.4031L72.0129 88.4359ZM59.7767 89.3423H40.9003V91.3423H59.7767V89.3423ZM40.9003 89.3423C36.0152 89.3423 31.9264 89.0366 28.6208 88.4356L28.263 90.4033C31.725 91.0328 35.9418 91.3423 40.9003 91.3423V89.3423ZM28.6143 88.4344C25.3301 87.8597 22.6754 86.9927 20.6191 85.8591L19.6535 87.6106C21.9598 88.882 24.8421 89.8047 28.2695 90.4045L28.6143 88.4344ZM20.6276 85.8639C18.567 84.7014 17.0019 83.2683 15.8985 81.5747L14.2228 82.6665C15.5244 84.6643 17.3431 86.3073 19.645 87.6058L20.6276 85.8639ZM15.9043 81.5837C14.8012 79.8502 13.9737 77.794 13.4356 75.3995L11.4843 75.838C12.0648 78.4212 12.9711 80.6996 14.217 82.6575L15.9043 81.5837ZM13.4379 75.41C12.9219 72.9928 12.6193 70.2448 12.5367 67.1605L10.5374 67.2141C10.6226 70.3939 10.9353 73.2669 11.482 75.8275L13.4379 75.41ZM12.5367 67.1605C12.4531 64.039 12.4112 60.5804 12.4112 56.7843H10.4112C10.4112 60.5947 10.4533 64.0714 10.5374 67.2141L12.5367 67.1605ZM12.4112 56.7843V24.5686H10.4112V56.7843H12.4112ZM11.4112 25.5686H19.4652V23.5686H11.4112V25.5686ZM18.4652 24.5686V56.7843H20.4652V24.5686H18.4652ZM18.4652 56.7843C18.4652 60.8154 18.4931 64.2898 18.5492 67.2065L20.5489 67.1681C20.4931 64.268 20.4652 60.8071 20.4652 56.7843H18.4652ZM18.5495 67.2164C18.6344 70.1309 18.8754 72.6225 19.281 74.6796L21.2433 74.2927C20.8659 72.3787 20.6315 70.0045 20.5486 67.1582L18.5495 67.2164ZM19.281 74.6796C19.6898 76.7527 20.3454 78.4896 21.2877 79.8404L22.928 78.696C22.1924 77.6417 21.6175 76.1906 21.2433 74.2927L19.281 74.6796ZM21.2967 79.853C22.2907 81.2318 23.6844 82.2617 25.425 82.9641L26.1734 81.1094C24.726 80.5253 23.6589 79.7096 22.919 78.6834L21.2967 79.853ZM25.425 82.9641C27.1386 83.6555 29.2554 84.1037 31.7481 84.3329L31.9312 82.3413C29.558 82.1231 27.6479 81.7043 26.1734 81.1094L25.425 82.9641ZM31.7604 84.3339C34.2565 84.5325 37.305 84.6307 40.9003 84.6307V82.6307C37.3367 82.6307 34.3447 82.5332 31.919 82.3402L31.7604 84.3339ZM40.9003 84.6307H59.7767V82.6307H40.9003V84.6307ZM59.7767 84.6307C63.3444 84.6307 66.3788 84.5325 68.8747 84.3339L68.7161 82.3402C66.2903 82.5332 63.3122 82.6307 59.7767 82.6307V84.6307ZM68.886 84.333C71.405 84.104 73.5256 83.6559 75.2158 82.9617L74.456 81.1117C73.0141 81.7039 71.1077 82.1228 68.7049 82.3412L68.886 84.333ZM75.2101 82.9641C76.9507 82.2617 78.3444 81.2318 79.3384 79.853L77.7161 78.6834C76.9763 79.7096 75.9091 80.5253 74.4617 81.1094L75.2101 82.9641ZM79.3384 79.853C80.3143 78.4994 80.9863 76.7577 81.396 74.6796L79.4338 74.2927C79.0605 76.1857 78.4741 77.632 77.7161 78.6834L79.3384 79.853ZM81.3933 74.6929C81.83 72.6261 82.0711 70.1262 82.1278 67.2067L80.1282 67.1679C80.073 70.0092 79.8388 72.3752 79.4365 74.2794L81.3933 74.6929ZM82.1278 67.2065C82.1839 64.2898 82.2119 60.8154 82.2119 56.7843H80.2119C80.2119 60.8071 80.184 64.268 80.1282 67.1681L82.1278 67.2065ZM82.2119 56.783L82.17 24.5673L80.17 24.5699L80.2119 56.7856L82.2119 56.783ZM81.17 25.5686H89.2658V23.5686H81.17V25.5686ZM174.705 80.8202L175.05 81.7586L175.057 81.7559L175.065 81.7532L174.705 80.8202ZM180.284 73.6472L179.307 73.4318L179.305 73.4427L180.284 73.6472ZM180.997 66.6839L179.997 66.6536L179.997 66.6635L180.997 66.6839ZM180.997 46.9266L179.997 46.9468L179.997 46.9572L180.997 46.9266ZM180.284 39.9633L179.304 40.165L179.306 40.1734L179.308 40.1818L180.284 39.9633ZM174.705 32.7903L174.344 33.7232L174.352 33.726L174.359 33.7287L174.705 32.7903ZM168.622 31.5738L168.542 32.5706L168.543 32.5707L168.622 31.5738ZM119.376 31.2802V30.2802H118.376V31.2802H119.376ZM119.376 82.2884H118.376V83.2884H119.376V82.2884ZM111.322 89H110.322V90H111.322V89ZM111.322 24.5686V23.5686H110.322V24.5686H111.322ZM172.02 25.4495L171.848 26.4346L171.857 26.4361L172.02 25.4495ZM180.367 28.0502L179.893 28.9307L179.898 28.9332L180.367 28.0502ZM185.443 32.4547L184.611 33.0095L184.617 33.0185L185.443 32.4547ZM188.044 38.7049L187.067 38.9207L187.07 38.934L188.044 38.7049ZM189.009 46.8008L188.009 46.8286L188.009 46.8381L189.009 46.8008ZM189.009 66.8098L188.009 66.7727L188.009 66.7817L189.009 66.8098ZM188.044 74.9056L187.07 74.6791L187.068 74.6875L188.044 74.9056ZM185.443 81.1139L184.617 80.5501L184.611 80.5592L185.443 81.1139ZM180.367 85.5184L179.898 84.6354L179.893 84.6379L180.367 85.5184ZM172.02 88.161L172.184 89.1475L172.191 89.1463L172.02 88.161ZM159.603 83.2884C163.171 83.2884 166.206 83.1902 168.701 82.9916L168.543 80.9979C166.117 81.1909 163.139 81.2884 159.603 81.2884V83.2884ZM168.701 82.9916C171.216 82.7916 173.341 82.3882 175.05 81.7586L174.359 79.8819C172.88 80.4268 170.95 80.8064 168.543 80.9979L168.701 82.9916ZM175.065 81.7532C176.799 81.0837 178.195 80.1017 179.194 78.7806L177.598 77.5744C176.863 78.5465 175.798 79.3263 174.344 79.8873L175.065 81.7532ZM179.194 78.7806C180.174 77.4839 180.85 75.8243 181.262 73.8517L179.305 73.4427C178.934 75.2174 178.352 76.578 177.598 77.5744L179.194 78.7806ZM181.26 73.8626C181.698 71.8769 181.94 69.4862 181.996 66.7043L179.997 66.6635C179.942 69.3627 179.708 71.6143 179.307 73.4318L181.26 73.8626ZM181.996 66.7142C182.081 63.9326 182.123 60.6221 182.123 56.7843H180.123C180.123 60.6089 180.081 63.8982 179.997 66.6536L181.996 66.7142ZM182.123 56.7843C182.123 52.9466 182.081 49.6499 181.996 46.896L179.997 46.9572C180.081 49.6845 180.123 52.9596 180.123 56.7843H182.123ZM181.996 46.9064C181.94 44.0977 181.698 41.7053 181.259 39.7449L179.308 40.1818C179.708 41.9687 179.942 44.2185 179.997 46.9468L181.996 46.9064ZM181.263 39.7617C180.852 37.7629 180.176 36.0871 179.194 34.788L177.598 35.9942C178.35 36.9881 178.933 38.3606 179.304 40.165L181.263 39.7617ZM179.194 34.788C178.192 33.4627 176.791 32.4932 175.05 31.852L174.359 33.7287C175.806 34.262 176.866 35.0262 177.598 35.9942L179.194 34.788ZM175.065 31.8574C173.35 31.1957 171.22 30.7773 168.701 30.577L168.543 32.5707C170.946 32.7619 172.871 33.1544 174.344 33.7232L175.065 31.8574ZM168.702 30.5771C166.234 30.3784 163.199 30.2802 159.603 30.2802V32.2802C163.167 32.2802 166.145 32.3777 168.542 32.5706L168.702 30.5771ZM159.603 30.2802H119.376V32.2802H159.603V30.2802ZM118.376 31.2802V82.2884H120.376V31.2802H118.376ZM119.376 83.2884H159.603V81.2884H119.376V83.2884ZM112.322 89V24.5686H110.322V89H112.322ZM111.322 25.5686H159.603V23.5686H111.322V25.5686ZM159.603 25.5686C164.491 25.5686 168.568 25.8605 171.848 26.4345L172.192 24.4645C168.761 23.8639 164.56 23.5686 159.603 23.5686V25.5686ZM171.857 26.4361C175.17 26.9838 177.839 27.8243 179.893 28.9307L180.842 27.1698C178.534 25.9271 175.637 25.0338 172.183 24.4629L171.857 26.4361ZM179.898 28.9332C181.988 30.0441 183.544 31.4084 184.611 33.0094L186.275 31.9C184.993 29.9775 183.166 28.4054 180.837 27.1673L179.898 28.9332ZM184.617 33.0185C185.738 34.6599 186.559 36.6212 187.067 38.9206L189.02 38.4892C188.466 35.9787 187.554 33.7731 186.269 31.891L184.617 33.0185ZM187.07 38.934C187.611 41.2316 187.927 43.8609 188.009 46.8286L190.008 46.773C189.923 43.7003 189.595 40.9323 189.017 38.4759L187.07 38.934ZM188.009 46.8381C188.121 49.8156 188.176 53.1307 188.176 56.7843H190.176C190.176 53.1111 190.12 49.7705 190.008 46.7634L188.009 46.8381ZM188.176 56.7843C188.176 60.4379 188.121 63.7671 188.009 66.7728L190.008 66.8468C190.12 63.812 190.176 60.4576 190.176 56.7843H188.176ZM188.009 66.7817C187.927 69.7207 187.611 72.3513 187.07 74.6791L189.018 75.1321C189.595 72.65 189.923 69.8833 190.008 66.8378L188.009 66.7817ZM187.068 74.6875C186.56 76.9582 185.739 78.9068 184.617 80.5501L186.269 81.6776C187.552 79.7974 188.465 77.6071 189.02 75.1238L187.068 74.6875ZM184.611 80.5592C183.544 82.1602 181.988 83.5245 179.898 84.6354L180.837 86.4013C183.166 85.1632 184.993 83.5911 186.275 81.6686L184.611 80.5592ZM179.893 84.6379C177.836 85.7459 175.164 86.6003 171.849 87.1758L172.191 89.1463C175.643 88.5472 178.537 87.6398 180.842 86.3988L179.893 84.6379ZM171.856 87.1747C168.572 87.7219 164.492 88 159.603 88V90C164.558 90 168.756 89.7188 172.184 89.1474L171.856 87.1747ZM159.603 88H111.322V90H159.603V88ZM208.506 24.5686V23.5686H206.152L207.786 25.2627L208.506 24.5686ZM219.244 24.5686L219.974 23.8852L219.678 23.5686H219.244V24.5686ZM248.775 56.1131L248.045 56.7966L248.775 57.5764L249.506 56.7966L248.775 56.1131ZM278.307 24.5686V23.5686H277.873L277.577 23.8852L278.307 24.5686ZM289.045 24.5686L289.765 25.2627L291.399 23.5686H289.045V24.5686ZM252.802 62.1536L252.083 61.4594L251.802 61.75V62.1536H252.802ZM252.802 89V90H253.802V89H252.802ZM244.749 89H243.749V90H244.749V89ZM244.749 62.1536H245.749V61.75L245.468 61.4594L244.749 62.1536ZM208.506 25.5686H219.244V23.5686H208.506V25.5686ZM218.514 25.252L248.045 56.7966L249.506 55.4297L219.974 23.8852L218.514 25.252ZM249.506 56.7966L279.037 25.252L277.577 23.8852L248.045 55.4297L249.506 56.7966ZM278.307 25.5686H289.045V23.5686H278.307V25.5686ZM288.325 23.8745L252.083 61.4594L253.522 62.8477L289.765 25.2627L288.325 23.8745ZM251.802 62.1536V89H253.802V62.1536H251.802ZM252.802 88H244.749V90H252.802V88ZM245.749 89V62.1536H243.749V89H245.749ZM245.468 61.4594L209.226 23.8745L207.786 25.2627L244.029 62.8477L245.468 61.4594ZM375.155 74.2345L376.033 73.7556L375.749 73.2345H375.155V74.2345ZM324.147 74.2345V73.2345H323.553L323.269 73.7556L324.147 74.2345ZM316.093 89V90H316.687L316.971 89.4789L316.093 89ZM306.697 89L305.833 88.4961L304.956 90H306.697V89ZM344.282 24.5686V23.5686H343.707L343.418 24.0647L344.282 24.5686ZM355.02 24.5686L355.884 24.0647L355.595 23.5686H355.02V24.5686ZM392.605 89V90H394.346L393.469 88.4961L392.605 89ZM383.209 89L382.331 89.4789L382.615 90H383.209V89ZM371.128 67.5229V68.5229H372.851L371.996 67.0267L371.128 67.5229ZM349.651 29.9379L350.519 29.4417L349.651 27.9223L348.783 29.4417L349.651 29.9379ZM328.174 67.5229L327.306 67.0267L326.451 68.5229H328.174V67.5229ZM375.155 73.2345H324.147V75.2345H375.155V73.2345ZM323.269 73.7556L315.215 88.5211L316.971 89.4789L325.025 74.7133L323.269 73.7556ZM316.093 88H306.697V90H316.093V88ZM307.56 89.5039L345.145 25.0725L343.418 24.0647L305.833 88.4961L307.56 89.5039ZM344.282 25.5686H355.02V23.5686H344.282V25.5686ZM354.156 25.0725L391.741 89.5039L393.469 88.4961L355.884 24.0647L354.156 25.0725ZM392.605 88H383.209V90H392.605V88ZM384.087 88.5211L376.033 73.7556L374.277 74.7133L382.331 89.4789L384.087 88.5211ZM371.996 67.0267L350.519 29.4417L348.783 30.434L370.26 68.019L371.996 67.0267ZM348.783 29.4417L327.306 67.0267L329.042 68.019L350.519 30.434L348.783 29.4417ZM328.174 68.5229H371.128V66.5229H328.174V68.5229ZM419.989 29.9379L420.824 29.3884L418.989 26.5975V29.9379H419.989ZM419.989 89V90H420.989V89H419.989ZM411.935 89H410.935V90H411.935V89ZM411.935 24.5686V23.5686H410.935V24.5686H411.935ZM425.358 24.5686L426.19 24.0143L425.893 23.5686H425.358V24.5686ZM462.901 80.9461L462.069 81.5003L462.901 82.7502L463.733 81.5003L462.901 80.9461ZM500.444 24.5686V23.5686H499.908L499.612 24.0143L500.444 24.5686ZM513.28 24.5686H514.28V23.5686H513.28V24.5686ZM513.28 89V90H514.28V89H513.28ZM505.226 89H504.226V90H505.226V89ZM505.226 30.8188H506.226V27.4778L504.39 30.2694L505.226 30.8188ZM466.97 89V90H467.509L467.805 89.5494L466.97 89ZM458.832 89L457.996 89.5495L458.293 90H458.832V89ZM418.989 29.9379V89H420.989V29.9379H418.989ZM419.989 88H411.935V90H419.989V88ZM412.935 89V24.5686H410.935V89H412.935ZM411.935 25.5686H425.358V23.5686H411.935V25.5686ZM424.525 25.1229L462.069 81.5003L463.733 80.3918L426.19 24.0143L424.525 25.1229ZM463.733 81.5003L501.276 25.1229L499.612 24.0143L462.069 80.3918L463.733 81.5003ZM500.444 25.5686H513.28V23.5686H500.444V25.5686ZM512.28 24.5686V89H514.28V24.5686H512.28ZM513.28 88H505.226V90H513.28V88ZM506.226 89V30.8188H504.226V89H506.226ZM504.39 30.2694L466.134 88.4506L467.805 89.5494L506.061 31.3682L504.39 30.2694ZM466.97 88H458.832V90H466.97V88ZM459.667 88.4505L420.824 29.3884L419.153 30.4874L457.996 89.5495L459.667 88.4505Z" fill="white" mask="url(#path-2-outside-1_3452_446)"/>
</g>
<defs>
<filter id="filter0_d_3452_446" x="1.41113" y="24.5684" width="515.869" height="78.7744" filterUnits="userSpaceOnUse" color-interpolation-filters="sRGB">
<feFlood flood-opacity="0" result="BackgroundImageFix"/>
<feColorMatrix in="SourceAlpha" type="matrix" values="0 0 0 0 0 0 0 0 0 0 0 0 0 0 0 0 0 0 127 0" result="hardAlpha"/>
<feOffset dy="4"/>
<feGaussianBlur stdDeviation="2"/>
<feComposite in2="hardAlpha" operator="out"/>
<feColorMatrix type="matrix" values="0 0 0 0 0 0 0 0 0 0 0 0 0 0 0 0 0 0 0.25 0"/>
<feBlend mode="normal" in2="BackgroundImageFix" result="effect1_dropShadow_3452_446"/>
<feBlend mode="normal" in="SourceGraphic" in2="effect1_dropShadow_3452_446" result="shape"/>
</filter>
</defs>
</svg>
