<svg width="18" height="856" viewBox="0 0 18 856" fill="none" xmlns="http://www.w3.org/2000/svg">
<g filter="url(#filter0_d_414_384)">
<rect x="18" y="3" width="5.77702" height="17.9435" transform="rotate(90 18 3)" fill="white"/>
<rect x="18" y="262.966" width="5.77702" height="17.9435" transform="rotate(90 18 262.966)" fill="white"/>
<rect x="18" y="132.983" width="5.77702" height="17.9435" transform="rotate(90 18 132.983)" fill="white"/>
<rect x="18" y="392.949" width="5.77702" height="17.9435" transform="rotate(90 18 392.949)" fill="white"/>
<rect x="18" y="67.9915" width="5.77702" height="17.9435" transform="rotate(90 18 67.9915)" fill="white"/>
<rect x="18" y="327.957" width="5.77702" height="17.9435" transform="rotate(90 18 327.957)" fill="white"/>
<rect x="18" y="197.974" width="5.77702" height="17.9435" transform="rotate(90 18 197.974)" fill="white"/>
<rect x="18" y="457.94" width="5.77702" height="17.9435" transform="rotate(90 18 457.94)" fill="white"/>
<rect x="18" y="15.9983" width="5.77702" height="17.9435" transform="rotate(90 18 15.9983)" fill="white"/>
<rect x="18" y="275.964" width="5.77702" height="17.9435" transform="rotate(90 18 275.964)" fill="white"/>
<rect x="18" y="145.981" width="5.77702" height="17.9435" transform="rotate(90 18 145.981)" fill="white"/>
<rect x="18" y="405.947" width="5.77702" height="17.9435" transform="rotate(90 18 405.947)" fill="white"/>
<rect x="18" y="80.9897" width="5.77702" height="17.9435" transform="rotate(90 18 80.9897)" fill="white"/>
<rect x="18" y="340.955" width="5.77702" height="17.9435" transform="rotate(90 18 340.955)" fill="white"/>
<rect x="18" y="210.973" width="5.77702" height="17.9435" transform="rotate(90 18 210.973)" fill="white"/>
<rect x="18" y="470.938" width="5.77702" height="17.9435" transform="rotate(90 18 470.938)" fill="white"/>
<rect x="18" y="28.9967" width="5.77702" height="17.9435" transform="rotate(90 18 28.9967)" fill="white"/>
<rect x="18" y="288.962" width="5.77702" height="17.9435" transform="rotate(90 18 288.962)" fill="white"/>
<rect x="18" y="158.979" width="5.77702" height="17.9435" transform="rotate(90 18 158.979)" fill="white"/>
<rect x="18" y="418.945" width="5.77702" height="17.9435" transform="rotate(90 18 418.945)" fill="white"/>
<rect x="18" y="93.9879" width="5.77702" height="17.9435" transform="rotate(90 18 93.9879)" fill="white"/>
<rect x="18" y="353.954" width="5.77702" height="17.9435" transform="rotate(90 18 353.954)" fill="white"/>
<rect x="18" y="223.971" width="5.77702" height="17.9435" transform="rotate(90 18 223.971)" fill="white"/>
<rect x="18" y="483.937" width="5.77702" height="17.9435" transform="rotate(90 18 483.937)" fill="white"/>
<rect x="18" y="41.9949" width="5.77702" height="17.9435" transform="rotate(90 18 41.9949)" fill="white"/>
<rect x="18" y="301.961" width="5.77702" height="17.9435" transform="rotate(90 18 301.961)" fill="white"/>
<rect x="18" y="171.978" width="5.77702" height="17.9435" transform="rotate(90 18 171.978)" fill="white"/>
<rect x="18" y="431.943" width="5.77702" height="17.9435" transform="rotate(90 18 431.943)" fill="white"/>
<rect x="18" y="106.986" width="5.77702" height="17.9435" transform="rotate(90 18 106.986)" fill="white"/>
<rect x="18" y="366.952" width="5.77702" height="17.9435" transform="rotate(90 18 366.952)" fill="white"/>
<rect x="18" y="236.969" width="5.77702" height="17.9435" transform="rotate(90 18 236.969)" fill="white"/>
<rect x="18" y="496.935" width="5.77702" height="17.9435" transform="rotate(90 18 496.935)" fill="white"/>
<rect x="18" y="54.993" width="5.77702" height="17.9435" transform="rotate(90 18 54.993)" fill="white"/>
<rect x="18" y="314.959" width="5.77702" height="17.9435" transform="rotate(90 18 314.959)" fill="white"/>
<rect x="18" y="184.976" width="5.77702" height="17.9435" transform="rotate(90 18 184.976)" fill="white"/>
<rect x="18" y="444.942" width="5.77702" height="17.9435" transform="rotate(90 18 444.942)" fill="white"/>
<rect x="18" y="119.985" width="5.77702" height="17.9435" transform="rotate(90 18 119.985)" fill="white"/>
<rect x="18" y="379.95" width="5.77702" height="17.9435" transform="rotate(90 18 379.95)" fill="white"/>
<rect x="18" y="249.968" width="5.77702" height="17.9435" transform="rotate(90 18 249.968)" fill="white"/>
<rect x="18" y="509.933" width="5.77702" height="17.9435" transform="rotate(90 18 509.933)" fill="white"/>
<rect x="18" y="522.931" width="322.069" height="17.9435" transform="rotate(90 18 522.931)" fill="white"/>
</g>
<defs>
<filter id="filter0_d_414_384" x="0.0566406" y="0.5" width="34.4434" height="855" filterUnits="userSpaceOnUse" color-interpolation-filters="sRGB">
<feFlood flood-opacity="0" result="BackgroundImageFix"/>
<feColorMatrix in="SourceAlpha" type="matrix" values="0 0 0 0 0 0 0 0 0 0 0 0 0 0 0 0 0 0 127 0" result="hardAlpha"/>
<feOffset dx="10" dy="4"/>
<feGaussianBlur stdDeviation="3.25"/>
<feComposite in2="hardAlpha" operator="out"/>
<feColorMatrix type="matrix" values="0 0 0 0 0 0 0 0 0 0 0 0 0 0 0 0 0 0 0.25 0"/>
<feBlend mode="normal" in2="BackgroundImageFix" result="effect1_dropShadow_414_384"/>
<feBlend mode="normal" in="SourceGraphic" in2="effect1_dropShadow_414_384" result="shape"/>
</filter>
</defs>
</svg>
