<svg width="74" height="682" viewBox="0 0 74 682" fill="none" xmlns="http://www.w3.org/2000/svg">
<g filter="url(#filter0_d_414_468)">
<rect x="0.147949" y="671.95" width="4.59326" height="57.7319" transform="rotate(-90 0.147949 671.95)" fill="white"/>
<rect x="0.147949" y="465.253" width="4.59326" height="57.7319" transform="rotate(-90 0.147949 465.253)" fill="white"/>
<rect x="0.147949" y="568.602" width="4.59326" height="57.7319" transform="rotate(-90 0.147949 568.602)" fill="white"/>
<rect x="0.147949" y="361.905" width="4.59326" height="57.7319" transform="rotate(-90 0.147949 361.905)" fill="white"/>
<rect x="0.147949" y="620.276" width="4.59326" height="57.7319" transform="rotate(-90 0.147949 620.276)" fill="white"/>
<rect x="0.147949" y="413.579" width="4.59326" height="57.7319" transform="rotate(-90 0.147949 413.579)" fill="white"/>
<rect x="0.147949" y="516.927" width="4.59326" height="57.7319" transform="rotate(-90 0.147949 516.927)" fill="white"/>
<rect x="0.147949" y="310.231" width="4.59326" height="57.7319" transform="rotate(-90 0.147949 310.231)" fill="white"/>
<rect x="0.147949" y="661.615" width="4.59326" height="57.7319" transform="rotate(-90 0.147949 661.615)" fill="white"/>
<rect x="0.147949" y="454.919" width="4.59326" height="57.7319" transform="rotate(-90 0.147949 454.919)" fill="white"/>
<rect x="0.147949" y="558.267" width="4.59326" height="57.7319" transform="rotate(-90 0.147949 558.267)" fill="white"/>
<rect x="0.147949" y="351.57" width="4.59326" height="57.7319" transform="rotate(-90 0.147949 351.57)" fill="white"/>
<rect x="0.147949" y="609.941" width="4.59326" height="57.7319" transform="rotate(-90 0.147949 609.941)" fill="white"/>
<rect x="0.147949" y="403.244" width="4.59326" height="57.7319" transform="rotate(-90 0.147949 403.244)" fill="white"/>
<rect x="0.147949" y="506.593" width="4.59326" height="57.7319" transform="rotate(-90 0.147949 506.593)" fill="white"/>
<rect x="0.147949" y="299.896" width="4.59326" height="57.7319" transform="rotate(-90 0.147949 299.896)" fill="white"/>
<rect x="0.147949" y="651.281" width="4.59326" height="57.7319" transform="rotate(-90 0.147949 651.281)" fill="white"/>
<rect x="0.147949" y="444.584" width="4.59326" height="57.7319" transform="rotate(-90 0.147949 444.584)" fill="white"/>
<rect x="0.147949" y="547.932" width="4.59326" height="57.7319" transform="rotate(-90 0.147949 547.932)" fill="white"/>
<rect x="0.147949" y="341.235" width="4.59326" height="57.7319" transform="rotate(-90 0.147949 341.235)" fill="white"/>
<rect x="0.147949" y="599.606" width="4.59326" height="57.7319" transform="rotate(-90 0.147949 599.606)" fill="white"/>
<rect x="0.147949" y="392.909" width="4.59326" height="57.7319" transform="rotate(-90 0.147949 392.909)" fill="white"/>
<rect x="0.147949" y="496.258" width="4.59326" height="57.7319" transform="rotate(-90 0.147949 496.258)" fill="white"/>
<rect x="0.147949" y="289.561" width="4.59326" height="57.7319" transform="rotate(-90 0.147949 289.561)" fill="white"/>
<rect x="0.147949" y="640.946" width="4.59326" height="57.7319" transform="rotate(-90 0.147949 640.946)" fill="white"/>
<rect x="0.147949" y="434.249" width="4.59326" height="57.7319" transform="rotate(-90 0.147949 434.249)" fill="white"/>
<rect x="0.147949" y="537.597" width="4.59326" height="57.7319" transform="rotate(-90 0.147949 537.597)" fill="white"/>
<rect x="0.147949" y="330.9" width="4.59326" height="57.7319" transform="rotate(-90 0.147949 330.9)" fill="white"/>
<rect x="0.147949" y="589.272" width="4.59326" height="57.7319" transform="rotate(-90 0.147949 589.272)" fill="white"/>
<rect x="0.147949" y="382.575" width="4.59326" height="57.7319" transform="rotate(-90 0.147949 382.575)" fill="white"/>
<rect x="0.147949" y="485.923" width="4.59326" height="57.7319" transform="rotate(-90 0.147949 485.923)" fill="white"/>
<rect x="0.147949" y="279.226" width="4.59326" height="57.7319" transform="rotate(-90 0.147949 279.226)" fill="white"/>
<rect x="0.147949" y="630.611" width="4.59326" height="57.7319" transform="rotate(-90 0.147949 630.611)" fill="white"/>
<rect x="0.147949" y="423.914" width="4.59326" height="57.7319" transform="rotate(-90 0.147949 423.914)" fill="white"/>
<rect x="0.147949" y="527.262" width="4.59326" height="57.7319" transform="rotate(-90 0.147949 527.262)" fill="white"/>
<rect x="0.147949" y="320.566" width="4.59326" height="57.7319" transform="rotate(-90 0.147949 320.566)" fill="white"/>
<rect x="0.147949" y="578.937" width="4.59326" height="57.7319" transform="rotate(-90 0.147949 578.937)" fill="white"/>
<rect x="0.147949" y="372.24" width="4.59326" height="57.7319" transform="rotate(-90 0.147949 372.24)" fill="white"/>
<rect x="0.147949" y="475.588" width="4.59326" height="57.7319" transform="rotate(-90 0.147949 475.588)" fill="white"/>
<rect x="0.147949" y="268.891" width="4.59326" height="57.7319" transform="rotate(-90 0.147949 268.891)" fill="white"/>
<rect x="0.147949" y="258.557" width="256.074" height="57.7319" transform="rotate(-90 0.147949 258.557)" fill="white"/>
</g>
<defs>
<filter id="filter0_d_414_468" x="0.147949" y="0.482178" width="73.7319" height="681.468" filterUnits="userSpaceOnUse" color-interpolation-filters="sRGB">
<feFlood flood-opacity="0" result="BackgroundImageFix"/>
<feColorMatrix in="SourceAlpha" type="matrix" values="0 0 0 0 0 0 0 0 0 0 0 0 0 0 0 0 0 0 127 0" result="hardAlpha"/>
<feOffset dx="10" dy="4"/>
<feGaussianBlur stdDeviation="3"/>
<feComposite in2="hardAlpha" operator="out"/>
<feColorMatrix type="matrix" values="0 0 0 0 0 0 0 0 0 0 0 0 0 0 0 0 0 0 0.25 0"/>
<feBlend mode="normal" in2="BackgroundImageFix" result="effect1_dropShadow_414_468"/>
<feBlend mode="normal" in="SourceGraphic" in2="effect1_dropShadow_414_468" result="shape"/>
</filter>
</defs>
</svg>
