<svg width="1002" height="122" viewBox="0 0 1002 122" fill="none" xmlns="http://www.w3.org/2000/svg">
<path d="M69.7017 119V14.75H173.952V25.6094H82.7329V60.3594H169.608V71.2188H82.7329V108.141H173.952V119H69.7017ZM311.649 14.75H326.852L270.383 119H253.008L196.539 14.75H211.742L261.695 110.312L311.649 14.75ZM358.127 119V14.75H462.377V25.6094H371.158V60.3594H458.033V71.2188H371.158V108.141H462.377V119H358.127ZM506.683 119H493.652V14.75H516.524L612.087 105.969V14.75H625.118V119H607.743L506.683 25.6094V119ZM778.086 14.75V25.6094H725.961V119H712.93V25.6094H660.805V14.75H778.086ZM879.404 60.3594C886.553 60.3594 892.684 60.6535 897.797 61.2417C902.91 61.8299 907.208 62.7122 910.692 63.8887C914.222 65.0199 917.027 66.4451 919.108 68.1646C921.19 69.884 922.796 71.8522 923.927 74.0693C925.058 76.2412 925.782 78.6846 926.099 81.3994C926.461 84.1143 926.642 87.0553 926.642 90.2227C926.642 93.39 926.348 96.3763 925.76 99.1816C925.217 101.942 924.221 104.476 922.773 106.783C921.326 109.091 919.357 111.15 916.869 112.959C914.38 114.769 911.213 116.308 907.367 117.575C903.521 118.842 898.883 119.792 893.453 120.425C888.069 121.104 881.757 121.443 874.517 121.443H857.142C850.626 121.443 844.925 121.194 840.039 120.697C835.152 120.199 830.944 119.452 827.415 118.457C823.885 117.416 820.967 116.127 818.659 114.588C816.352 113.005 814.496 111.172 813.094 109.091C811.736 106.964 810.786 104.566 810.243 101.896C809.7 99.1816 809.429 96.1953 809.429 92.9375H822.46C822.46 97.0098 823.048 100.2 824.225 102.507C825.401 104.815 827.347 106.557 830.062 107.733C832.776 108.865 836.328 109.589 840.717 109.905C845.152 110.177 850.626 110.312 857.142 110.312H874.517C882.119 110.312 888.431 109.951 893.453 109.227C898.476 108.503 902.48 107.349 905.466 105.765C908.453 104.181 910.557 102.123 911.778 99.5889C913 97.0098 913.611 93.8877 913.611 90.2227C913.611 86.5576 913.181 83.5034 912.321 81.0601C911.507 78.6167 909.855 76.6711 907.367 75.2231C904.923 73.7752 901.462 72.7572 896.982 72.1689C892.503 71.5355 886.643 71.2188 879.404 71.2188H861.486C853.522 71.2188 846.69 70.9246 840.989 70.3364C835.333 69.7482 830.582 68.9111 826.736 67.8252C822.89 66.694 819.813 65.314 817.505 63.6851C815.198 62.0109 813.433 60.1105 812.211 57.9839C811.035 55.8573 810.266 53.5044 809.904 50.9253C809.542 48.3009 809.361 45.473 809.361 42.4414C809.361 39.2741 809.632 36.333 810.175 33.6182C810.764 30.9033 811.827 28.46 813.365 26.2881C814.904 24.071 817.008 22.1027 819.677 20.3833C822.347 18.6639 825.763 17.2386 829.926 16.1074C834.134 14.931 839.179 14.0487 845.061 13.4604C850.943 12.8722 857.866 12.5781 865.83 12.5781H878.861C885.376 12.5781 891.078 12.827 895.964 13.3247C900.851 13.7772 905.059 14.5238 908.588 15.5645C912.118 16.5599 915.036 17.8268 917.344 19.3652C919.697 20.8584 921.552 22.6683 922.909 24.7949C924.312 26.8763 925.285 29.2518 925.828 31.9214C926.371 34.591 926.642 37.5547 926.642 40.8125H913.611C913.611 36.7402 913.023 33.5503 911.846 31.2427C910.67 28.9351 908.724 27.2157 906.009 26.0845C903.294 24.908 899.72 24.1841 895.286 23.9126C890.851 23.5959 885.376 23.4375 878.861 23.4375H865.83C857.142 23.4375 849.993 23.7542 844.382 24.3877C838.772 24.9759 834.337 25.994 831.08 27.4419C827.822 28.8898 825.559 30.8354 824.292 33.2788C823.026 35.7222 822.392 38.7764 822.392 42.4414C822.392 44.7038 822.55 46.7173 822.867 48.4819C823.184 50.2466 823.817 51.8076 824.768 53.165C825.763 54.4772 827.143 55.5858 828.908 56.4907C830.672 57.3957 833.003 58.1423 835.898 58.7305C838.794 59.3187 842.324 59.7485 846.486 60.02C850.694 60.2463 855.694 60.3594 861.486 60.3594H879.404Z" fill="white"/>
<mask id="path-2-outside-1_3452_168" maskUnits="userSpaceOnUse" x="78" y="5" width="860" height="112" fill="black">
<rect fill="white" x="78" y="5" width="860" height="112"/>
<path d="M79.7017 113V8.75H183.952V19.6094H92.7329V54.3594H179.608V65.2188H92.7329V102.141H183.952V113H79.7017ZM321.649 8.75H336.852L280.383 113H263.008L206.539 8.75H221.742L271.695 104.312L321.649 8.75ZM368.127 113V8.75H472.377V19.6094H381.158V54.3594H468.033V65.2188H381.158V102.141H472.377V113H368.127ZM516.683 113H503.652V8.75H526.524L622.087 99.9688V8.75H635.118V113H617.743L516.683 19.6094V113ZM788.086 8.75V19.6094H735.961V113H722.93V19.6094H670.805V8.75H788.086ZM889.404 54.3594C896.553 54.3594 902.684 54.6535 907.797 55.2417C912.91 55.8299 917.208 56.7122 920.692 57.8887C924.222 59.0199 927.027 60.4451 929.108 62.1646C931.19 63.884 932.796 65.8522 933.927 68.0693C935.058 70.2412 935.782 72.6846 936.099 75.3994C936.461 78.1143 936.642 81.0553 936.642 84.2227C936.642 87.39 936.348 90.3763 935.76 93.1816C935.217 95.9417 934.221 98.4756 932.773 100.783C931.326 103.091 929.357 105.15 926.869 106.959C924.38 108.769 921.213 110.308 917.367 111.575C913.521 112.842 908.883 113.792 903.453 114.425C898.069 115.104 891.757 115.443 884.517 115.443H867.142C860.626 115.443 854.925 115.194 850.039 114.697C845.152 114.199 840.944 113.452 837.415 112.457C833.885 111.416 830.967 110.127 828.659 108.588C826.352 107.005 824.496 105.172 823.094 103.091C821.736 100.964 820.786 98.5661 820.243 95.8965C819.7 93.1816 819.429 90.1953 819.429 86.9375H832.46C832.46 91.0098 833.048 94.1997 834.225 96.5073C835.401 98.8149 837.347 100.557 840.062 101.733C842.776 102.865 846.328 103.589 850.717 103.905C855.152 104.177 860.626 104.312 867.142 104.312H884.517C892.119 104.312 898.431 103.951 903.453 103.227C908.476 102.503 912.48 101.349 915.466 99.7651C918.453 98.1815 920.557 96.1227 921.778 93.5889C923 91.0098 923.611 87.8877 923.611 84.2227C923.611 80.5576 923.181 77.5034 922.321 75.0601C921.507 72.6167 919.855 70.6711 917.367 69.2231C914.923 67.7752 911.462 66.7572 906.982 66.1689C902.503 65.5355 896.643 65.2188 889.404 65.2188H871.486C863.522 65.2188 856.69 64.9246 850.989 64.3364C845.333 63.7482 840.582 62.9111 836.736 61.8252C832.89 60.694 829.813 59.314 827.505 57.6851C825.198 56.0109 823.433 54.1105 822.211 51.9839C821.035 49.8573 820.266 47.5044 819.904 44.9253C819.542 42.3009 819.361 39.473 819.361 36.4414C819.361 33.2741 819.632 30.333 820.175 27.6182C820.764 24.9033 821.827 22.46 823.365 20.2881C824.904 18.071 827.008 16.1027 829.677 14.3833C832.347 12.6639 835.763 11.2386 839.926 10.1074C844.134 8.93099 849.179 8.04867 855.061 7.46045C860.943 6.87223 867.866 6.57812 875.83 6.57812H888.861C895.376 6.57812 901.078 6.82699 905.964 7.32471C910.851 7.77718 915.059 8.52376 918.588 9.56445C922.118 10.5599 925.036 11.8268 927.344 13.3652C929.697 14.8584 931.552 16.6683 932.909 18.7949C934.312 20.8763 935.285 23.2518 935.828 25.9214C936.371 28.591 936.642 31.5547 936.642 34.8125H923.611C923.611 30.7402 923.023 27.5503 921.846 25.2427C920.67 22.9351 918.724 21.2157 916.009 20.0845C913.294 18.908 909.72 18.1841 905.286 17.9126C900.851 17.5959 895.376 17.4375 888.861 17.4375H875.83C867.142 17.4375 859.993 17.7542 854.382 18.3877C848.772 18.9759 844.337 19.994 841.08 21.4419C837.822 22.8898 835.559 24.8354 834.292 27.2788C833.026 29.7222 832.392 32.7764 832.392 36.4414C832.392 38.7038 832.55 40.7173 832.867 42.4819C833.184 44.2466 833.817 45.8076 834.768 47.165C835.763 48.4772 837.143 49.5858 838.908 50.4907C840.672 51.3957 843.003 52.1423 845.898 52.7305C848.794 53.3187 852.324 53.7485 856.486 54.02C860.694 54.2463 865.694 54.3594 871.486 54.3594H889.404Z"/>
</mask>
<path d="M79.7017 113H78.7017V114H79.7017V113ZM79.7017 8.75V7.75H78.7017V8.75H79.7017ZM183.952 8.75H184.952V7.75H183.952V8.75ZM183.952 19.6094V20.6094H184.952V19.6094H183.952ZM92.7329 19.6094V18.6094H91.7329V19.6094H92.7329ZM92.7329 54.3594H91.7329V55.3594H92.7329V54.3594ZM179.608 54.3594H180.608V53.3594H179.608V54.3594ZM179.608 65.2188V66.2188H180.608V65.2188H179.608ZM92.7329 65.2188V64.2188H91.7329V65.2188H92.7329ZM92.7329 102.141H91.7329V103.141H92.7329V102.141ZM183.952 102.141H184.952V101.141H183.952V102.141ZM183.952 113V114H184.952V113H183.952ZM80.7017 113V8.75H78.7017V113H80.7017ZM79.7017 9.75H183.952V7.75H79.7017V9.75ZM182.952 8.75V19.6094H184.952V8.75H182.952ZM183.952 18.6094H92.7329V20.6094H183.952V18.6094ZM91.7329 19.6094V54.3594H93.7329V19.6094H91.7329ZM92.7329 55.3594H179.608V53.3594H92.7329V55.3594ZM178.608 54.3594V65.2188H180.608V54.3594H178.608ZM179.608 64.2188H92.7329V66.2188H179.608V64.2188ZM91.7329 65.2188V102.141H93.7329V65.2188H91.7329ZM92.7329 103.141H183.952V101.141H92.7329V103.141ZM182.952 102.141V113H184.952V102.141H182.952ZM183.952 112H79.7017V114H183.952V112ZM321.649 8.75V7.75H321.043L320.762 8.28675L321.649 8.75ZM336.852 8.75L337.731 9.22628L338.531 7.75H336.852V8.75ZM280.383 113V114H280.979L281.262 113.476L280.383 113ZM263.008 113L262.129 113.476L262.412 114H263.008V113ZM206.539 8.75V7.75H204.86L205.66 9.22628L206.539 8.75ZM221.742 8.75L222.629 8.28675L222.348 7.75H221.742V8.75ZM271.695 104.312L270.809 104.776L271.695 106.471L272.582 104.776L271.695 104.312ZM321.649 9.75H336.852V7.75H321.649V9.75ZM335.972 8.27372L279.504 112.524L281.262 113.476L337.731 9.22628L335.972 8.27372ZM280.383 112H263.008V114H280.383V112ZM263.887 112.524L207.418 8.27372L205.66 9.22628L262.129 113.476L263.887 112.524ZM206.539 9.75H221.742V7.75H206.539V9.75ZM220.856 9.21325L270.809 104.776L272.582 103.849L222.629 8.28675L220.856 9.21325ZM272.582 104.776L322.535 9.21325L320.762 8.28675L270.809 103.849L272.582 104.776ZM368.127 113H367.127V114H368.127V113ZM368.127 8.75V7.75H367.127V8.75H368.127ZM472.377 8.75H473.377V7.75H472.377V8.75ZM472.377 19.6094V20.6094H473.377V19.6094H472.377ZM381.158 19.6094V18.6094H380.158V19.6094H381.158ZM381.158 54.3594H380.158V55.3594H381.158V54.3594ZM468.033 54.3594H469.033V53.3594H468.033V54.3594ZM468.033 65.2188V66.2188H469.033V65.2188H468.033ZM381.158 65.2188V64.2188H380.158V65.2188H381.158ZM381.158 102.141H380.158V103.141H381.158V102.141ZM472.377 102.141H473.377V101.141H472.377V102.141ZM472.377 113V114H473.377V113H472.377ZM369.127 113V8.75H367.127V113H369.127ZM368.127 9.75H472.377V7.75H368.127V9.75ZM471.377 8.75V19.6094H473.377V8.75H471.377ZM472.377 18.6094H381.158V20.6094H472.377V18.6094ZM380.158 19.6094V54.3594H382.158V19.6094H380.158ZM381.158 55.3594H468.033V53.3594H381.158V55.3594ZM467.033 54.3594V65.2188H469.033V54.3594H467.033ZM468.033 64.2188H381.158V66.2188H468.033V64.2188ZM380.158 65.2188V102.141H382.158V65.2188H380.158ZM381.158 103.141H472.377V101.141H381.158V103.141ZM471.377 102.141V113H473.377V102.141H471.377ZM472.377 112H368.127V114H472.377V112ZM516.683 113V114H517.683V113H516.683ZM503.652 113H502.652V114H503.652V113ZM503.652 8.75V7.75H502.652V8.75H503.652ZM526.524 8.75L527.215 8.02664L526.925 7.75H526.524V8.75ZM622.087 99.9688L621.396 100.692L623.087 102.306V99.9688H622.087ZM622.087 8.75V7.75H621.087V8.75H622.087ZM635.118 8.75H636.118V7.75H635.118V8.75ZM635.118 113V114H636.118V113H635.118ZM617.743 113L617.064 113.734L617.352 114H617.743V113ZM516.683 19.6094L517.362 18.875L515.683 17.3237V19.6094H516.683ZM516.683 112H503.652V114H516.683V112ZM504.652 113V8.75H502.652V113H504.652ZM503.652 9.75H526.524V7.75H503.652V9.75ZM525.834 9.47336L621.396 100.692L622.777 99.2454L527.215 8.02664L525.834 9.47336ZM623.087 99.9688V8.75H621.087V99.9688H623.087ZM622.087 9.75H635.118V7.75H622.087V9.75ZM634.118 8.75V113H636.118V8.75H634.118ZM635.118 112H617.743V114H635.118V112ZM618.422 112.266L517.362 18.875L516.004 20.3438L617.064 113.734L618.422 112.266ZM515.683 19.6094V113H517.683V19.6094H515.683ZM788.086 8.75H789.086V7.75H788.086V8.75ZM788.086 19.6094V20.6094H789.086V19.6094H788.086ZM735.961 19.6094V18.6094H734.961V19.6094H735.961ZM735.961 113V114H736.961V113H735.961ZM722.93 113H721.93V114H722.93V113ZM722.93 19.6094H723.93V18.6094H722.93V19.6094ZM670.805 19.6094H669.805V20.6094H670.805V19.6094ZM670.805 8.75V7.75H669.805V8.75H670.805ZM787.086 8.75V19.6094H789.086V8.75H787.086ZM788.086 18.6094H735.961V20.6094H788.086V18.6094ZM734.961 19.6094V113H736.961V19.6094H734.961ZM735.961 112H722.93V114H735.961V112ZM723.93 113V19.6094H721.93V113H723.93ZM722.93 18.6094H670.805V20.6094H722.93V18.6094ZM671.805 19.6094V8.75H669.805V19.6094H671.805ZM670.805 9.75H788.086V7.75H670.805V9.75ZM920.692 57.8887L920.372 58.8361L920.38 58.8386L920.387 58.841L920.692 57.8887ZM933.927 68.0693L933.036 68.5238L933.04 68.5313L933.927 68.0693ZM936.099 75.3994L935.106 75.5153L935.107 75.5234L935.108 75.5316L936.099 75.3994ZM935.76 93.1816L934.781 92.9764L934.779 92.9886L935.76 93.1816ZM903.453 114.425L903.337 113.432L903.328 113.433L903.453 114.425ZM837.415 112.457L837.132 113.416L837.143 113.419L837.415 112.457ZM828.659 108.588L828.093 109.413L828.104 109.42L828.659 108.588ZM823.094 103.091L822.251 103.629L822.258 103.639L822.264 103.65L823.094 103.091ZM820.243 95.8965L819.263 96.0926L819.263 96.0958L820.243 95.8965ZM819.429 86.9375V85.9375H818.429V86.9375H819.429ZM832.46 86.9375H833.46V85.9375H832.46V86.9375ZM840.062 101.733L839.664 102.651L839.677 102.656L840.062 101.733ZM850.717 103.905L850.645 104.903L850.656 104.903L850.717 103.905ZM921.778 93.5889L922.679 94.0232L922.682 94.017L921.778 93.5889ZM922.321 75.0601L921.373 75.3763L921.375 75.3841L921.378 75.392L922.321 75.0601ZM917.367 69.2231L916.857 70.0835L916.864 70.0875L917.367 69.2231ZM906.982 66.1689L906.842 67.1591L906.852 67.1604L906.982 66.1689ZM850.989 64.3364L850.885 65.3311L850.886 65.3311L850.989 64.3364ZM836.736 61.8252L836.454 62.7846L836.464 62.7876L836.736 61.8252ZM827.505 57.6851L826.918 58.4945L826.929 58.502L827.505 57.6851ZM822.211 51.9839L821.336 52.4679L821.34 52.475L821.344 52.482L822.211 51.9839ZM819.904 44.9253L818.913 45.0619L818.914 45.0643L819.904 44.9253ZM820.175 27.6182L819.198 27.4064L819.196 27.4142L819.195 27.422L820.175 27.6182ZM823.365 20.2881L824.181 20.8661L824.187 20.8582L823.365 20.2881ZM839.926 10.1074L840.188 11.0725L840.195 11.0705L839.926 10.1074ZM905.964 7.32471L905.863 8.3196L905.872 8.32045L905.964 7.32471ZM918.588 9.56445L918.306 10.5237L918.317 10.5269L918.588 9.56445ZM927.344 13.3652L926.789 14.1973L926.798 14.2035L926.808 14.2096L927.344 13.3652ZM932.909 18.7949L932.066 19.333L932.073 19.3435L932.08 19.3538L932.909 18.7949ZM936.642 34.8125V35.8125H937.642V34.8125H936.642ZM923.611 34.8125H922.611V35.8125H923.611V34.8125ZM916.009 20.0845L915.612 21.0021L915.625 21.0075L916.009 20.0845ZM905.286 17.9126L905.214 18.9101L905.225 18.9107L905.286 17.9126ZM854.382 18.3877L854.487 19.3823L854.495 19.3814L854.382 18.3877ZM834.768 47.165L833.948 47.7385L833.959 47.7542L833.971 47.7694L834.768 47.165ZM856.486 54.02L856.421 55.018L856.433 55.0186L856.486 54.02ZM889.404 55.3594C896.528 55.3594 902.619 55.6526 907.683 56.2351L907.911 54.2483C902.749 53.6544 896.578 53.3594 889.404 53.3594V55.3594ZM907.683 56.2351C912.751 56.8182 916.976 57.6892 920.372 58.8361L921.012 56.9412C917.441 55.7353 913.069 54.8416 907.911 54.2483L907.683 56.2351ZM920.387 58.841C923.838 59.9468 926.517 61.3212 928.471 62.9355L929.745 61.3936C927.537 59.5691 924.606 58.0929 920.998 56.9364L920.387 58.841ZM928.471 62.9355C930.457 64.5753 931.973 66.4384 933.036 68.5238L934.818 67.6149C933.62 65.266 931.923 63.1926 929.745 61.3936L928.471 62.9355ZM933.04 68.5313C934.109 70.5834 934.802 72.9073 935.106 75.5153L937.092 75.2835C936.763 72.4618 936.008 69.899 934.814 67.6074L933.04 68.5313ZM935.108 75.5316C935.463 78.1965 935.642 81.0929 935.642 84.2227H937.642C937.642 81.0178 937.459 78.0321 937.09 75.2673L935.108 75.5316ZM935.642 84.2227C935.642 87.3281 935.354 90.2452 934.781 92.9764L936.738 93.3869C937.342 90.5074 937.642 87.4518 937.642 84.2227H935.642ZM934.779 92.9886C934.258 95.6326 933.307 98.0511 931.926 100.252L933.62 101.315C935.136 98.9 936.175 96.2509 936.741 93.3747L934.779 92.9886ZM931.926 100.252C930.555 102.438 928.679 104.406 926.28 106.151L927.457 107.768C930.035 105.893 932.097 103.743 933.62 101.315L931.926 100.252ZM926.28 106.151C923.897 107.884 920.831 109.381 917.054 110.625L917.68 112.525C921.595 111.235 924.863 109.655 927.457 107.768L926.28 106.151ZM917.054 110.625C913.29 111.865 908.722 112.804 903.337 113.432L903.569 115.419C909.044 114.78 913.752 113.818 917.68 112.525L917.054 110.625ZM903.328 113.433C897.996 114.105 891.728 114.443 884.517 114.443V116.443C891.786 116.443 898.141 116.103 903.578 115.417L903.328 113.433ZM884.517 114.443H867.142V116.443H884.517V114.443ZM867.142 114.443C860.65 114.443 854.984 114.195 850.14 113.702L849.937 115.692C854.866 116.194 860.603 116.443 867.142 116.443V114.443ZM850.14 113.702C845.293 113.208 841.145 112.47 837.686 111.495L837.143 113.419C840.743 114.435 845.011 115.19 849.937 115.692L850.14 113.702ZM837.697 111.498C834.235 110.477 831.416 109.224 829.214 107.756L828.104 109.42C830.518 111.029 833.535 112.356 837.132 113.416L837.697 111.498ZM829.225 107.764C827.009 106.243 825.248 104.498 823.923 102.532L822.264 103.65C823.745 105.847 825.694 107.766 828.093 109.413L829.225 107.764ZM823.937 102.553C822.65 100.538 821.744 98.2561 821.223 95.6972L819.263 96.0958C819.829 98.8761 820.822 101.391 822.251 103.629L823.937 102.553ZM821.224 95.7004C820.696 93.0602 820.429 90.1407 820.429 86.9375H818.429C818.429 90.25 818.705 93.3031 819.263 96.0926L821.224 95.7004ZM819.429 87.9375H832.46V85.9375H819.429V87.9375ZM831.46 86.9375C831.46 91.0864 832.056 94.4553 833.334 96.9615L835.116 96.0531C834.04 93.9441 833.46 90.9332 833.46 86.9375H831.46ZM833.334 96.9615C834.631 99.5054 836.768 101.396 839.664 102.651L840.459 100.816C837.925 99.7179 836.172 98.1245 835.116 96.0531L833.334 96.9615ZM839.677 102.656C842.528 103.844 846.197 104.582 850.645 104.903L850.789 102.908C846.46 102.595 843.025 101.885 840.446 100.81L839.677 102.656ZM850.656 104.903C855.118 105.177 860.615 105.312 867.142 105.312V103.312C860.638 103.312 855.185 103.177 850.778 102.907L850.656 104.903ZM867.142 105.312H884.517V103.312H867.142V105.312ZM884.517 105.312C892.145 105.312 898.509 104.95 903.596 104.216L903.31 102.237C898.352 102.951 892.092 103.312 884.517 103.312V105.312ZM903.596 104.216C908.681 103.483 912.809 102.306 915.935 100.649L914.998 98.8817C912.151 100.392 908.27 101.522 903.31 102.237L903.596 104.216ZM915.935 100.649C919.07 98.9857 921.347 96.7852 922.679 94.0232L920.878 93.1546C919.766 95.4602 917.835 97.3772 914.998 98.8817L915.935 100.649ZM922.682 94.017C923.982 91.2716 924.611 87.9952 924.611 84.2227H922.611C922.611 87.7802 922.018 90.7479 920.875 93.1608L922.682 94.017ZM924.611 84.2227C924.611 80.4877 924.174 77.3124 923.265 74.7281L921.378 75.392C922.188 77.6945 922.611 80.6276 922.611 84.2227H924.611ZM923.27 74.7438C922.369 72.042 920.542 69.9136 917.87 68.3588L916.864 70.0875C919.169 71.4285 920.644 73.1914 921.373 75.3763L923.27 74.7438ZM917.877 68.3629C915.268 66.8173 911.656 65.7741 907.113 65.1775L906.852 67.1604C911.268 67.7403 914.578 68.7332 916.857 70.0834L917.877 68.3629ZM907.122 65.1788C902.578 64.5361 896.666 64.2188 889.404 64.2188V66.2188C896.621 66.2188 902.428 66.5349 906.842 67.1591L907.122 65.1788ZM889.404 64.2188H871.486V66.2188H889.404V64.2188ZM871.486 64.2188C863.544 64.2188 856.748 63.9254 851.091 63.3417L850.886 65.3311C856.632 65.9239 863.5 66.2188 871.486 66.2188V64.2188ZM851.092 63.3418C845.471 62.7572 840.781 61.9282 837.008 60.8628L836.464 62.7876C840.383 63.894 845.194 64.7392 850.885 65.3311L851.092 63.3418ZM837.018 60.8658C833.237 59.7537 830.271 58.4132 828.082 56.8681L826.929 58.502C829.355 60.2147 832.543 61.6343 836.454 62.7846L837.018 60.8658ZM828.093 56.8756C825.881 55.271 824.219 53.4717 823.079 51.4858L821.344 52.482C822.647 54.7493 824.515 56.7508 826.918 58.4945L828.093 56.8756ZM823.086 51.4998C821.973 49.4877 821.24 47.253 820.894 44.7863L818.914 45.0643C819.291 47.7558 820.097 50.2269 821.336 52.4679L823.086 51.4998ZM820.894 44.7887C820.539 42.2155 820.361 39.4337 820.361 36.4414H818.361C818.361 39.5123 818.544 42.3864 818.913 45.0619L820.894 44.7887ZM820.361 36.4414C820.361 33.3307 820.628 30.4561 821.156 27.8143L819.195 27.422C818.637 30.2099 818.361 33.2174 818.361 36.4414H820.361ZM821.153 27.8299C821.714 25.2409 822.724 22.9232 824.181 20.8661L822.549 19.7101C820.93 21.9967 819.813 24.5657 819.198 27.4064L821.153 27.8299ZM824.187 20.8582C825.639 18.766 827.64 16.8848 830.219 15.224L829.136 13.5426C826.375 15.3206 824.169 17.3759 822.544 19.718L824.187 20.8582ZM830.219 15.224C832.778 13.576 836.091 12.1857 840.188 11.0724L839.664 9.14242C835.435 10.2915 831.916 11.7518 829.136 13.5426L830.219 15.224ZM840.195 11.0705C844.332 9.91393 849.317 9.03982 855.161 8.45549L854.962 6.46541C849.041 7.05751 843.936 7.94805 839.657 9.14435L840.195 11.0705ZM855.161 8.45549C861.001 7.87148 867.889 7.57812 875.83 7.57812V5.57812C867.843 5.57812 860.886 5.87298 854.962 6.46541L855.161 8.45549ZM875.83 7.57812H888.861V5.57812H875.83V7.57812ZM888.861 7.57812C895.353 7.57812 901.019 7.82616 905.863 8.31956L906.066 6.32985C901.136 5.82781 895.4 5.57812 888.861 5.57812V7.57812ZM905.872 8.32045C910.714 8.76879 914.855 9.50618 918.306 10.5236L918.871 8.60528C915.263 7.54134 910.988 6.78557 906.057 6.32897L905.872 8.32045ZM918.317 10.5269C921.776 11.5025 924.591 12.7321 926.789 14.1973L927.898 12.5332C925.481 10.9215 922.459 9.61726 918.86 8.602L918.317 10.5269ZM926.808 14.2096C929.05 15.6326 930.795 17.3421 932.066 19.333L933.752 18.2569C932.308 15.9945 930.343 14.0842 927.88 12.5209L926.808 14.2096ZM932.08 19.3538C933.403 21.3174 934.329 23.5686 934.848 26.1207L936.808 25.7221C936.241 22.935 935.221 20.4352 933.738 18.2361L932.08 19.3538ZM934.848 26.1207C935.375 28.7134 935.642 31.6091 935.642 34.8125H937.642C937.642 31.5003 937.366 28.4685 936.808 25.7221L934.848 26.1207ZM936.642 33.8125H923.611V35.8125H936.642V33.8125ZM924.611 34.8125C924.611 30.6636 924.015 27.2947 922.737 24.7885L920.955 25.6969C922.03 27.8059 922.611 30.8168 922.611 34.8125H924.611ZM922.737 24.7885C921.438 22.2409 919.296 20.3707 916.394 19.1614L915.625 21.0075C918.152 22.0606 919.901 23.6292 920.955 25.6969L922.737 24.7885ZM916.407 19.1669C913.546 17.9272 909.845 17.1898 905.347 16.9145L905.225 18.9107C909.595 19.1783 913.043 19.8888 915.612 21.002L916.407 19.1669ZM905.357 16.9151C900.891 16.5961 895.39 16.4375 888.861 16.4375V18.4375C895.363 18.4375 900.812 18.5956 905.214 18.9101L905.357 16.9151ZM888.861 16.4375H875.83V18.4375H888.861V16.4375ZM875.83 16.4375C867.122 16.4375 859.932 16.7547 854.27 17.394L854.495 19.3814C860.054 18.7537 867.162 18.4375 875.83 18.4375V16.4375ZM854.278 17.3931C848.616 17.9867 844.066 19.0203 840.673 20.5281L841.486 22.3557C844.609 20.9677 848.927 19.9651 854.487 19.3822L854.278 17.3931ZM840.673 20.5281C837.27 22.0406 834.804 24.1208 833.405 26.8185L835.18 27.7391C836.315 25.5501 838.373 23.739 841.486 22.3557L840.673 20.5281ZM833.405 26.8185C832.044 29.4433 831.392 32.6671 831.392 36.4414H833.392C833.392 32.8856 834.007 30.001 835.18 27.7391L833.405 26.8185ZM831.392 36.4414C831.392 38.7484 831.553 40.8228 831.883 42.6586L833.851 42.3053C833.547 40.6117 833.392 38.6591 833.392 36.4414H831.392ZM831.883 42.6586C832.223 44.554 832.908 46.2528 833.948 47.7385L835.587 46.5916C834.726 45.3624 834.145 43.9391 833.851 42.3053L831.883 42.6586ZM833.971 47.7694C835.074 49.223 836.58 50.4209 838.451 51.3805L839.364 49.6009C837.706 48.7506 836.452 47.7315 835.564 46.5607L833.971 47.7694ZM838.451 51.3805C840.326 52.3421 842.753 53.112 845.699 53.7105L846.097 51.7505C843.252 51.1725 841.018 50.4492 839.364 49.6009L838.451 51.3805ZM845.699 53.7105C848.653 54.3105 852.23 54.7446 856.421 55.0179L856.551 53.0221C852.417 52.7525 848.935 52.3269 846.097 51.7505L845.699 53.7105ZM856.433 55.0186C860.664 55.2461 865.682 55.3594 871.486 55.3594V53.3594C865.706 53.3594 860.725 53.2465 856.54 53.0215L856.433 55.0186ZM871.486 55.3594H889.404V53.3594H871.486V55.3594Z" fill="white" mask="url(#path-2-outside-1_3452_168)"/>
</svg>
