<!-- <svg width="185" height="86" viewBox="0 0 185 86" fill="none" xmlns="http://www.w3.org/2000/svg"> -->
<svg width="auto" height="auto" viewBox="0 0 185 86" fill="none" xmlns="http://www.w3.org/2000/svg">
<path d="M1.3342 0V22H0V0M33.6451 0V22H34.9793V0M82.6065 0V22H83.9407V0M5.41905 0V22H6.75324V0M48.049 0V22H49.3832V0M52.5227 0V22H53.8569V0M112.696 0V22H114.03V0M125.238 0V22H126.572V0M183.666 0V22H185V0M137.418 0V22H138.752V0M141.891 0V22H143.226V0M156.292 0V22H157.627V0M160.766 0V22H162.1V0M65.6059 0V22H66.9401V0M80.6276 0V22H81.9618V0" fill="white"/>
<path d="M1.3342 27V86H0V27M33.6451 27V86H34.9793V27M82.6065 27V86H83.9407V27M5.41905 27V86H6.75324V27M48.049 27V86H49.3832V27M52.5227 27V86H53.8569V27M112.696 27V86H114.03V27M125.238 27V86H126.572V27M183.666 27V86H185V27M137.418 27V86H138.752V27M141.891 27V86H143.226V27M156.292 27V86H157.627V27M160.766 27V86H162.1V27M65.6059 27V86H66.9401V27M80.6276 27V86H81.9618V27" fill="white"/>
</svg>
