<svg width="295" height="46" viewBox="0 0 295 46" fill="none" xmlns="http://www.w3.org/2000/svg">
<path d="M0.035977 46L0.805977 39.84V0.724H10.97V38.608H42.848L45.928 45.153C45.928 45.3583 45.235 45.5637 43.849 45.769C42.463 45.923 40.076 46 36.688 46H0.035977ZM71.9191 46C68.3258 46 65.5024 45.4867 63.4491 44.46C61.3958 43.4333 59.9328 41.8933 59.0601 39.84C58.2388 37.7867 57.8281 35.2457 57.8281 32.217V14.43C57.8281 11.4527 58.2388 8.963 59.0601 6.961C59.8814 4.90766 61.3188 3.36766 63.3721 2.341C65.4254 1.263 68.2744 0.724 71.9191 0.724H94.4031C97.9964 0.724 100.794 1.263 102.796 2.341C104.849 3.36766 106.287 4.90766 107.108 6.961C107.981 8.963 108.417 11.4527 108.417 14.43V32.217C108.417 36.7343 107.416 40.1737 105.414 42.535C103.412 44.845 99.7418 46 94.4031 46H71.9191ZM74.1521 38.608H92.2471C94.1464 38.608 95.6094 38.1203 96.6361 37.145C97.7141 36.1697 98.2531 34.835 98.2531 33.141V13.506C98.2531 12.0173 97.7141 10.7597 96.6361 9.733C95.5581 8.655 94.0951 8.116 92.2471 8.116H74.1521C72.3041 8.116 70.8154 8.60367 69.6861 9.579C68.5568 10.5543 67.9921 11.8633 67.9921 13.506V33.141C67.9921 34.8863 68.5311 36.2467 69.6091 37.222C70.7384 38.146 72.2528 38.608 74.1521 38.608ZM139.053 46C135.409 46 132.56 45.4867 130.506 44.46C128.453 43.4333 127.016 41.8933 126.194 39.84C125.373 37.7867 124.962 35.2457 124.962 32.217V15.046C124.962 10.118 126.066 6.499 128.273 4.189C130.481 1.82766 134.074 0.646996 139.053 0.646996H162.23C165.772 0.646996 168.467 0.85233 170.315 1.263C172.215 1.62233 173.164 2.00733 173.164 2.418L171.624 8.809C170.752 8.655 168.159 8.501 163.847 8.347C159.587 8.14166 153.375 8.039 145.213 8.039H141.286C137.18 8.039 135.126 9.86133 135.126 13.506V33.141C135.126 34.8863 135.563 36.2467 136.435 37.222C137.359 38.146 138.976 38.608 141.286 38.608H144.443C149.371 38.608 153.529 38.5823 156.917 38.531C160.305 38.4283 163.103 38.3513 165.31 38.3V27.828L160.69 27.905L150.603 28.675V21.129H175.397V42.766L176.167 44.383C176.167 44.7937 175.089 45.1787 172.933 45.538C170.777 45.846 167.133 46 161.999 46H139.053ZM215.41 46V0.724H225.574V46H215.41ZM244.439 46V6.884L243.669 0.724H254.757L280.937 28.136L283.94 32.294H284.787V0.724H294.951V46H285.172L258.376 18.126L255.373 14.507H254.603V46H244.439Z" fill="black"/>
</svg>
