<svg width="125" height="47" viewBox="0 0 125 47" fill="none" xmlns="http://www.w3.org/2000/svg">
<path d="M14.1435 46C10.5502 46 7.72683 45.4867 5.6735 44.46C3.62017 43.4333 2.15717 41.8933 1.2845 39.84C0.463165 37.7867 0.0524985 35.2457 0.0524985 32.217V14.43C0.0524985 11.4527 0.463165 8.963 1.2845 6.961C2.10583 4.90766 3.54317 3.36766 5.5965 2.341C7.64983 1.263 10.4988 0.724 14.1435 0.724H36.6275C40.2208 0.724 43.0185 1.263 45.0205 2.341C47.0738 3.36766 48.5112 4.90766 49.3325 6.961C50.2052 8.963 50.6415 11.4527 50.6415 14.43V32.217C50.6415 36.7343 49.6405 40.1737 47.6385 42.535C45.6365 44.845 41.9662 46 36.6275 46H14.1435ZM16.3765 38.608H34.4715C36.3708 38.608 37.8338 38.1203 38.8605 37.145C39.9385 36.1697 40.4775 34.835 40.4775 33.141V13.506C40.4775 12.0173 39.9385 10.7597 38.8605 9.733C37.7825 8.655 36.3195 8.116 34.4715 8.116H16.3765C14.5285 8.116 13.0398 8.60367 11.9105 9.579C10.7812 10.5543 10.2165 11.8633 10.2165 13.506V33.141C10.2165 34.8863 10.7555 36.2467 11.8335 37.222C12.9628 38.146 14.4772 38.608 16.3765 38.608ZM117.16 46.77C115.107 46.77 113.079 46.462 111.077 45.846C109.126 45.1787 106.893 43.5873 104.378 41.072L98.8339 35.528C96.5752 33.218 94.0855 31.524 91.3649 30.446C88.6955 29.368 85.3332 28.829 81.2779 28.829H78.8909V46H68.7269V6.884L67.9569 0.646996H102.068C105.353 0.646996 107.92 1.08333 109.768 1.956C111.667 2.82867 113.053 3.98367 113.926 5.421C114.85 6.807 115.44 8.29567 115.697 9.887C115.954 11.4783 116.082 12.9927 116.082 14.43V15.893C116.082 17.0223 115.928 18.28 115.62 19.666C115.312 21.052 114.722 22.4123 113.849 23.747C112.976 25.0817 111.719 26.211 110.076 27.135C108.485 28.059 106.38 28.598 103.762 28.752C104.429 29.1113 105.276 29.676 106.303 30.446C107.33 31.1647 108.382 31.9603 109.46 32.833C110.589 33.7057 111.616 34.5013 112.54 35.22C113.464 35.9387 114.183 36.452 114.696 36.76C116.544 37.838 118.187 38.5823 119.624 38.993C121.061 39.4037 122.242 39.6347 123.166 39.686C124.09 39.7373 124.629 39.763 124.783 39.763L123.243 46C122.781 46.154 122.011 46.308 120.933 46.462C119.855 46.6673 118.597 46.77 117.16 46.77ZM90.4409 21.822C92.3915 21.822 94.1369 21.7963 95.6769 21.745C97.2169 21.6423 98.6029 21.5397 99.8349 21.437C102.094 21.1803 103.659 20.5643 104.532 19.589C105.456 18.5623 105.918 17.2533 105.918 15.662V13.891C105.918 12.2483 105.482 10.8623 104.609 9.733C103.736 8.60366 102.171 8.039 99.9119 8.039H78.8909V21.437C81.1495 21.591 83.2285 21.6937 85.1279 21.745C87.0272 21.7963 88.7982 21.822 90.4409 21.822Z" fill="white"/>
</svg>
