<svg width="126" height="16" viewBox="0 0 126 16" fill="none" xmlns="http://www.w3.org/2000/svg">
<path d="M16.6013 15H14.82V12.3281C14.82 11.8952 14.8107 11.5241 14.7922 11.2148C14.7798 10.8994 14.7272 10.6304 14.6345 10.4077C14.5479 10.1851 14.4087 10.0057 14.217 9.86963C14.0253 9.73356 13.7531 9.62842 13.4006 9.5542C13.048 9.47998 12.5996 9.4305 12.0554 9.40576C11.5173 9.37484 10.8524 9.35938 10.0607 9.35938H2.0544V15H0.273148V0.75H10.3576C11.4462 0.75 12.3615 0.790202 13.1037 0.870605C13.8521 0.944824 14.4675 1.05924 14.9499 1.21387C15.4385 1.36849 15.8127 1.56022 16.0725 1.78906C16.3384 2.0179 16.5301 2.28695 16.6477 2.59619C16.7714 2.90544 16.8425 3.25179 16.861 3.63525C16.8858 4.01872 16.8981 4.44238 16.8981 4.90625C16.8981 5.5 16.8549 6.02262 16.7683 6.47412C16.6879 6.91943 16.5487 7.2998 16.3508 7.61523C16.1529 7.93066 15.89 8.18424 15.5622 8.37598C15.2344 8.56152 14.8231 8.69141 14.3283 8.76562C14.8231 8.83984 15.2189 8.96973 15.5158 9.15527C15.8127 9.34082 16.0415 9.58203 16.2023 9.87891C16.3632 10.1758 16.4683 10.5283 16.5178 10.9365C16.5734 11.3447 16.6013 11.8086 16.6013 12.3281V15ZM2.0544 7.875H10.3576C11.1493 7.875 11.8142 7.86263 12.3522 7.83789C12.8965 7.80697 13.3449 7.75439 13.6975 7.68018C14.05 7.60596 14.3221 7.50081 14.5139 7.36475C14.7056 7.22868 14.8448 7.04932 14.9314 6.82666C15.0241 6.604 15.0767 6.33805 15.0891 6.02881C15.1076 5.71338 15.1169 5.33919 15.1169 4.90625C15.1169 4.50423 15.1076 4.15788 15.0891 3.86719C15.0767 3.5765 15.0241 3.33219 14.9314 3.13428C14.8448 2.93636 14.7056 2.77865 14.5139 2.66113C14.3221 2.54362 14.05 2.45394 13.6975 2.39209C13.3449 2.32406 12.8965 2.28076 12.3522 2.26221C11.8142 2.24365 11.1493 2.23438 10.3576 2.23438H2.0544V7.875ZM31.3393 13.5342C31.3207 13.6084 31.1815 13.7939 30.9218 14.0908C30.7362 14.3135 30.4888 14.5114 30.1796 14.6846C29.8703 14.8516 29.456 14.9814 28.9364 15.0742C28.4231 15.1732 27.7458 15.2227 26.9047 15.2227C25.7852 15.2227 24.8297 15.1639 24.038 15.0464C23.2463 14.9351 22.6 14.7619 22.099 14.5269C21.598 14.2856 21.23 13.9795 20.995 13.6084C20.7662 13.2373 20.6518 12.7951 20.6518 12.2817C20.6518 11.7437 20.7136 11.2891 20.8373 10.918C20.9672 10.5407 21.1527 10.2253 21.3939 9.97168C21.6413 9.7181 21.9382 9.52018 22.2846 9.37793C22.6309 9.23568 23.0237 9.12744 23.4628 9.05322C23.9081 8.979 24.3936 8.93262 24.9193 8.91406C25.4451 8.89551 26.0048 8.88623 26.5985 8.88623C27.4459 8.88623 28.154 8.92334 28.723 8.99756C29.2921 9.06559 29.7559 9.15527 30.1147 9.2666C30.4796 9.37174 30.7548 9.48617 30.9403 9.60986C31.1259 9.73356 31.2589 9.84798 31.3393 9.95312C31.3393 9.26042 31.3083 8.66976 31.2465 8.18115C31.1908 7.69255 31.095 7.28434 30.9589 6.95654C30.829 6.62874 30.6589 6.36898 30.4486 6.17725C30.2383 5.97933 29.9786 5.83089 29.6693 5.73193C29.3663 5.63298 29.0106 5.57113 28.6024 5.54639C28.1942 5.51546 27.7273 5.5 27.2016 5.5C26.3852 5.5 25.7079 5.52165 25.1698 5.56494C24.6317 5.60205 24.205 5.67936 23.8896 5.79688C23.5741 5.91439 23.3515 6.07829 23.2216 6.28857C23.0917 6.49268 23.0268 6.76172 23.0268 7.0957H21.2455C21.2455 6.53288 21.3445 6.05664 21.5424 5.66699C21.7465 5.27734 22.0805 4.96191 22.5443 4.7207C23.0144 4.47331 23.6298 4.29395 24.3905 4.18262C25.1513 4.07129 26.0883 4.01562 27.2016 4.01562C28.2901 4.01562 29.2117 4.10531 29.9662 4.28467C30.7208 4.46403 31.33 4.77946 31.7938 5.23096C32.2639 5.68245 32.601 6.29167 32.8051 7.05859C33.0154 7.81934 33.1205 8.78418 33.1205 9.95312V15H31.3393V13.5342ZM27.2016 13.8125C27.987 13.8125 28.6426 13.7754 29.1684 13.7012C29.7003 13.627 30.127 13.5156 30.4486 13.3672C30.7702 13.2188 30.9991 13.0332 31.1352 12.8105C31.2712 12.5879 31.3393 12.3281 31.3393 12.0312C31.3393 11.7344 31.2589 11.4839 31.098 11.2798C30.9434 11.0695 30.6806 10.8994 30.3095 10.7695C29.9446 10.6396 29.4591 10.5469 28.8529 10.4912C28.2468 10.4294 27.4984 10.3984 26.6078 10.3984C25.7172 10.3984 24.9966 10.4139 24.4462 10.4448C23.9019 10.4757 23.4813 10.5469 23.1845 10.6582C22.8876 10.7695 22.6866 10.9334 22.5814 11.1499C22.4825 11.3664 22.433 11.6602 22.433 12.0312C22.433 12.4023 22.4856 12.7054 22.5907 12.9404C22.7021 13.1693 22.9247 13.3486 23.2587 13.4785C23.5927 13.6084 24.072 13.6981 24.6967 13.7476C25.3275 13.7909 26.1625 13.8125 27.2016 13.8125ZM43.1642 15.2041C41.9767 15.2041 40.9685 15.1175 40.1397 14.9443C39.311 14.7712 38.6368 14.4743 38.1173 14.0537C37.5978 13.6331 37.2205 13.0672 36.9855 12.356C36.7504 11.6447 36.6329 10.751 36.6329 9.6748C36.6329 8.56152 36.7504 7.63997 36.9855 6.91016C37.2205 6.18034 37.5978 5.60205 38.1173 5.17529C38.6368 4.74854 39.311 4.44857 40.1397 4.27539C40.9685 4.10221 41.9767 4.01562 43.1642 4.01562C44.0053 4.01562 44.7104 4.05892 45.2794 4.14551C45.8484 4.2321 46.3123 4.34033 46.671 4.47021C47.0359 4.6001 47.3111 4.74235 47.4967 4.89697C47.6884 5.04541 47.8276 5.18457 47.9142 5.31445V0.75H49.6954V15H47.9142V13.4136C47.9142 13.4136 47.7657 13.5898 47.4688 13.9424C47.2091 14.196 46.9215 14.4001 46.6061 14.5547C46.2906 14.7093 45.8484 14.8577 45.2794 15C44.7104 15.1361 44.0053 15.2041 43.1642 15.2041ZM43.1642 13.8125C43.7579 13.8125 44.2867 13.8001 44.7506 13.7754C45.2145 13.7445 45.6227 13.6826 45.9752 13.5898C46.3277 13.4971 46.6246 13.361 46.8658 13.1816C47.1132 12.9961 47.3142 12.7518 47.4688 12.4487C47.6235 12.1457 47.7348 11.7715 47.8028 11.3262C47.8771 10.8747 47.9142 10.3335 47.9142 9.70264C47.9142 9.04704 47.8771 8.4904 47.8028 8.03271C47.7348 7.56885 47.6235 7.18229 47.4688 6.87305C47.3142 6.55762 47.1132 6.31022 46.8658 6.13086C46.6246 5.9515 46.3277 5.81543 45.9752 5.72266C45.6227 5.6237 45.2145 5.56185 44.7506 5.53711C44.2867 5.51237 43.7579 5.5 43.1642 5.5C42.4715 5.5 41.8715 5.52165 41.3644 5.56494C40.8634 5.60824 40.4366 5.68555 40.0841 5.79688C39.7315 5.9082 39.4439 6.06283 39.2213 6.26074C39.0048 6.45866 38.8347 6.71224 38.711 7.02148C38.5935 7.33073 38.5131 7.70492 38.4698 8.14404C38.4327 8.57699 38.4142 9.08724 38.4142 9.6748C38.4142 10.2562 38.4327 10.7633 38.4698 11.1963C38.5131 11.623 38.5935 11.991 38.711 12.3003C38.8347 12.6034 39.0048 12.8538 39.2213 13.0518C39.4439 13.2497 39.7315 13.4043 40.0841 13.5156C40.4366 13.627 40.8634 13.7043 41.3644 13.7476C41.8715 13.7909 42.4715 13.8125 43.1642 13.8125ZM54.0892 4.3125H55.8704V15H54.0892V4.3125ZM55.8704 2.53125H54.0892V0.75H55.8704V2.53125ZM70.9053 13.5342C70.8867 13.6084 70.7476 13.7939 70.4878 14.0908C70.3022 14.3135 70.0549 14.5114 69.7456 14.6846C69.4364 14.8516 69.022 14.9814 68.5024 15.0742C67.9891 15.1732 67.3118 15.2227 66.4707 15.2227C65.3512 15.2227 64.3957 15.1639 63.604 15.0464C62.8123 14.9351 62.166 14.7619 61.665 14.5269C61.1641 14.2856 60.7961 13.9795 60.561 13.6084C60.3322 13.2373 60.2178 12.7951 60.2178 12.2817C60.2178 11.7437 60.2796 11.2891 60.4033 10.918C60.5332 10.5407 60.7188 10.2253 60.96 9.97168C61.2074 9.7181 61.5042 9.52018 61.8506 9.37793C62.1969 9.23568 62.5897 9.12744 63.0288 9.05322C63.4741 8.979 63.9596 8.93262 64.4854 8.91406C65.0111 8.89551 65.5708 8.88623 66.1646 8.88623C67.0119 8.88623 67.7201 8.92334 68.2891 8.99756C68.8581 9.06559 69.3219 9.15527 69.6807 9.2666C70.0456 9.37174 70.3208 9.48617 70.5063 9.60986C70.6919 9.73356 70.8249 9.84798 70.9053 9.95312C70.9053 9.26042 70.8743 8.66976 70.8125 8.18115C70.7568 7.69255 70.661 7.28434 70.5249 6.95654C70.395 6.62874 70.2249 6.36898 70.0146 6.17725C69.8044 5.97933 69.5446 5.83089 69.2354 5.73193C68.9323 5.63298 68.5767 5.57113 68.1685 5.54639C67.7603 5.51546 67.2933 5.5 66.7676 5.5C65.9512 5.5 65.2739 5.52165 64.7358 5.56494C64.1978 5.60205 63.771 5.67936 63.4556 5.79688C63.1401 5.91439 62.9175 6.07829 62.7876 6.28857C62.6577 6.49268 62.5928 6.76172 62.5928 7.0957H60.8115C60.8115 6.53288 60.9105 6.05664 61.1084 5.66699C61.3125 5.27734 61.6465 4.96191 62.1104 4.7207C62.5804 4.47331 63.1958 4.29395 63.9565 4.18262C64.7173 4.07129 65.6543 4.01562 66.7676 4.01562C67.8561 4.01562 68.7777 4.10531 69.5322 4.28467C70.2868 4.46403 70.896 4.77946 71.3599 5.23096C71.8299 5.68245 72.167 6.29167 72.3711 7.05859C72.5814 7.81934 72.6865 8.78418 72.6865 9.95312V15H70.9053V13.5342ZM66.7676 13.8125C67.5531 13.8125 68.2087 13.7754 68.7344 13.7012C69.2663 13.627 69.693 13.5156 70.0146 13.3672C70.3363 13.2188 70.5651 13.0332 70.7012 12.8105C70.8372 12.5879 70.9053 12.3281 70.9053 12.0312C70.9053 11.7344 70.8249 11.4839 70.6641 11.2798C70.5094 11.0695 70.2466 10.8994 69.8755 10.7695C69.5106 10.6396 69.0251 10.5469 68.4189 10.4912C67.8128 10.4294 67.0645 10.3984 66.1738 10.3984C65.2832 10.3984 64.5627 10.4139 64.0122 10.4448C63.4679 10.4757 63.0474 10.5469 62.7505 10.6582C62.4536 10.7695 62.2526 10.9334 62.1475 11.1499C62.0485 11.3664 61.999 11.6602 61.999 12.0312C61.999 12.4023 62.0516 12.7054 62.1567 12.9404C62.2681 13.1693 62.4907 13.3486 62.8247 13.4785C63.1587 13.6084 63.638 13.6981 64.2627 13.7476C64.8936 13.7909 65.7285 13.8125 66.7676 13.8125ZM87.1833 15V9.0625C87.1833 8.40072 87.1338 7.84408 87.0349 7.39258C86.9359 6.9349 86.738 6.56689 86.4411 6.28857C86.1442 6.01025 85.7237 5.80924 85.1794 5.68555C84.6351 5.56185 83.9177 5.5 83.0271 5.5C82.0622 5.5 81.2705 5.57113 80.6521 5.71338C80.0397 5.85563 79.5573 6.05664 79.2048 6.31641C78.8522 6.57617 78.6079 6.88851 78.4719 7.25342C78.342 7.61833 78.2771 8.02344 78.2771 8.46875V15H76.4958V4.3125H78.2771V6.09375C78.4069 5.79069 78.5925 5.53092 78.8337 5.31445C79.0749 5.0918 79.347 4.90316 79.6501 4.74854C79.9532 4.59391 80.281 4.47021 80.6335 4.37744C80.986 4.27848 81.3386 4.20426 81.6911 4.15479C82.0437 4.09912 82.3838 4.06201 82.7116 4.04346C83.0456 4.0249 83.3487 4.01562 83.6208 4.01562C84.4125 4.01562 85.0928 4.0651 85.6618 4.16406C86.237 4.26302 86.7225 4.40837 87.1184 4.6001C87.5204 4.79183 87.842 5.02995 88.0832 5.31445C88.3244 5.59896 88.51 5.92985 88.6398 6.30713C88.7759 6.67822 88.8656 7.0957 88.9089 7.55957C88.9522 8.01725 88.9738 8.51823 88.9738 9.0625L88.9646 15H87.1833ZM93.3769 4.3125H95.1581V15H93.3769V4.3125ZM95.1581 2.53125H93.3769V0.75H95.1581V2.53125ZM109.942 10.25C109.942 11.1592 109.868 11.9199 109.72 12.5322C109.571 13.1383 109.321 13.6239 108.968 13.9888C108.622 14.3537 108.164 14.6134 107.595 14.7681C107.026 14.9227 106.324 15 105.489 15C104.679 15 103.999 14.9382 103.448 14.8145C102.898 14.6908 102.453 14.4805 102.112 14.1836C101.772 13.8867 101.528 13.4909 101.379 12.9961C101.231 12.5013 101.157 11.8828 101.157 11.1406V5.77832H98.9581V4.3125H101.157V1.39014H102.938V4.3125H109.646V5.77832H102.938V11.1406C102.938 11.7344 102.981 12.1921 103.068 12.5137C103.161 12.8353 103.306 13.0703 103.504 13.2188C103.702 13.3672 103.962 13.4538 104.283 13.4785C104.611 13.5033 105.01 13.5156 105.48 13.5156C105.851 13.5156 106.182 13.5094 106.473 13.4971C106.77 13.4847 107.026 13.4476 107.243 13.3857C107.465 13.3177 107.654 13.2188 107.809 13.0889C107.963 12.9528 108.087 12.7642 108.18 12.5229C108.279 12.2817 108.35 11.9787 108.393 11.6138C108.436 11.2427 108.458 10.7881 108.458 10.25H109.942ZM119.383 15.2041C118.196 15.2041 117.187 15.1237 116.359 14.9629C115.53 14.7959 114.856 14.5114 114.336 14.1094C113.817 13.7074 113.439 13.1693 113.204 12.4951C112.969 11.821 112.852 10.9736 112.852 9.95312C112.852 8.78418 112.969 7.81934 113.204 7.05859C113.439 6.29167 113.817 5.68245 114.336 5.23096C114.856 4.77946 115.53 4.46403 116.359 4.28467C117.187 4.10531 118.196 4.01562 119.383 4.01562C120.23 4.01562 120.963 4.07747 121.582 4.20117C122.207 4.32487 122.738 4.50423 123.178 4.73926C123.623 4.97428 123.982 5.25879 124.254 5.59277C124.532 5.92676 124.749 6.2793 124.903 6.65039C125.064 7.0153 125.172 7.44515 125.228 7.93994C125.29 8.43473 125.321 8.95736 125.321 9.50781L125.172 10.1016H114.633C114.633 10.918 114.714 11.589 114.874 12.1147C115.035 12.6343 115.301 13.0146 115.672 13.2559C116.043 13.4971 116.532 13.6517 117.138 13.7197C117.744 13.7816 118.492 13.8125 119.383 13.8125C120.2 13.8125 120.874 13.7909 121.406 13.7476C121.944 13.6981 122.37 13.6084 122.686 13.4785C123.001 13.3486 123.221 13.1693 123.345 12.9404C123.474 12.7054 123.539 12.4023 123.539 12.0312H125.321C125.321 12.6064 125.219 13.0981 125.014 13.5063C124.817 13.9084 124.486 14.2362 124.022 14.4897C123.558 14.7371 122.946 14.9165 122.185 15.0278C121.43 15.1453 120.496 15.2041 119.383 15.2041ZM119.383 5.5C118.789 5.5 118.257 5.51237 117.787 5.53711C117.324 5.56185 116.915 5.61751 116.563 5.7041C116.216 5.78451 115.92 5.90511 115.672 6.06592C115.425 6.22054 115.224 6.40609 115.069 6.62256C114.921 6.83285 114.809 7.13281 114.735 7.52246C114.667 7.90592 114.633 8.36979 114.633 8.91406H123.539C123.539 8.19043 123.462 7.62451 123.307 7.21631C123.153 6.80192 122.909 6.46175 122.575 6.1958C122.241 5.92985 121.811 5.7474 121.285 5.64844C120.759 5.54948 120.125 5.5 119.383 5.5Z" fill="white"/>
</svg>
