<svg width="189" height="14" viewBox="0 0 189 14" fill="none" xmlns="http://www.w3.org/2000/svg">
<path d="M2.42043 11C1.6951 11 1.16177 10.968 0.820435 10.904C0.479101 10.84 0.308434 10.7653 0.308434 10.68L0.948434 9.288C1.19377 9.33067 1.80177 9.37333 2.77243 9.416C3.75377 9.448 5.09777 9.464 6.80443 9.464H7.10843C7.5671 9.464 7.89243 9.384 8.08443 9.224C8.27643 9.05333 8.37243 8.77067 8.37243 8.376V8.056C8.37243 7.68267 8.29243 7.416 8.13243 7.256C7.9831 7.096 7.64177 7.016 7.10843 7.016H3.39643C2.3191 7.016 1.5351 6.81867 1.04443 6.424C0.553768 6.01867 0.308434 5.36267 0.308434 4.456V4.2C0.308434 3.73067 0.393768 3.29867 0.564435 2.904C0.745768 2.50933 1.04977 2.19467 1.47643 1.96C1.9031 1.71467 2.48977 1.592 3.23643 1.592H7.58844C8.31377 1.592 8.90043 1.62933 9.34843 1.704C9.79644 1.77867 10.0204 1.85867 10.0204 1.944L9.70043 3.288C9.4231 3.256 8.79377 3.224 7.81244 3.192C6.8311 3.14933 5.51377 3.128 3.86043 3.128L3.68443 3.112C3.19377 3.112 2.8631 3.21333 2.69243 3.416C2.52177 3.608 2.4311 3.85333 2.42043 4.152V4.424C2.42043 4.776 2.51643 5.04267 2.70843 5.224C2.9111 5.39467 3.24177 5.48 3.70043 5.48H7.25243C7.9351 5.48 8.51643 5.54933 8.99644 5.688C9.47643 5.82667 9.84443 6.08267 10.1004 6.456C10.3564 6.81867 10.4844 7.35733 10.4844 8.072V8.328C10.4844 9.128 10.2764 9.77333 9.86043 10.264C9.4551 10.7547 8.74577 11 7.73244 11H2.42043ZM13.9222 11V1.592H16.0342V11H13.9222ZM22.5621 11C21.8047 11 21.2127 10.8933 20.7861 10.68C20.3594 10.4667 20.0607 10.1467 19.8901 9.72C19.7194 9.29333 19.6341 8.76533 19.6341 8.136V4.568C19.6341 3.544 19.8634 2.792 20.3221 2.312C20.7807 1.82133 21.5274 1.576 22.5621 1.576H27.3781C28.1141 1.576 28.6741 1.61867 29.0581 1.704C29.4527 1.77867 29.6501 1.85867 29.6501 1.944L29.3301 3.272C29.1487 3.24 28.6101 3.208 27.7141 3.176C26.8287 3.13333 25.5381 3.112 23.8421 3.112H23.0261C22.1727 3.112 21.7461 3.49067 21.7461 4.248V8.328C21.7461 8.69067 21.8367 8.97333 22.0181 9.176C22.2101 9.368 22.5461 9.464 23.0261 9.464H23.6821C24.7061 9.464 25.5701 9.45867 26.2741 9.448C26.9781 9.42667 27.5594 9.41067 28.0181 9.4V7.224L27.0581 7.24L24.9621 7.4V5.832H30.1141V10.328L30.2741 10.664C30.2741 10.7493 30.0501 10.8293 29.6021 10.904C29.1541 10.968 28.3967 11 27.3301 11H22.5621ZM33.8728 11V2.872L33.7128 1.592H36.0168L41.4568 7.288L42.0808 8.152H42.2568V1.592H44.3688V11H42.3368L36.7688 5.208L36.1448 4.456H35.9848V11H33.8728ZM55.2152 11.16C54.2445 11.16 53.5672 10.8987 53.1832 10.376C52.7992 9.85333 52.6072 9.16 52.6072 8.296V1.592H54.7192V8.36C54.7192 8.86133 54.8419 9.19733 55.0872 9.368C55.3325 9.53867 55.6365 9.624 55.9992 9.624H59.3912C59.7325 9.624 60.0312 9.53867 60.2872 9.368C60.5432 9.18667 60.6712 8.85067 60.6712 8.36V1.592H62.7832V8.296C62.7832 8.872 62.7032 9.37333 62.5432 9.8C62.3832 10.2267 62.1165 10.5627 61.7432 10.808C61.3699 11.0427 60.8525 11.16 60.1912 11.16H55.2152ZM66.4572 11V2.872L66.2972 1.576H73.3852C74.0678 1.576 74.6012 1.66667 74.9852 1.848C75.3798 2.02933 75.6678 2.26933 75.8492 2.568C76.0412 2.856 76.1638 3.16533 76.2172 3.496C76.2705 3.82667 76.2972 4.14133 76.2972 4.44V5.384C76.2972 5.62933 76.2598 5.90667 76.1852 6.216C76.1105 6.51467 75.9718 6.808 75.7692 7.096C75.5665 7.37333 75.2732 7.608 74.8892 7.8C74.5052 7.98133 74.0038 8.072 73.3852 8.072H71.7532C71.0812 8.072 70.4518 8.056 69.8652 8.024C69.2892 7.992 68.8572 7.96533 68.5692 7.944V11H66.4572ZM68.5692 6.536H72.9212C73.4012 6.536 73.7318 6.41867 73.9132 6.184C74.0945 5.94933 74.1852 5.66667 74.1852 5.336V4.328C74.1852 3.98667 74.0945 3.69867 73.9132 3.464C73.7318 3.22933 73.4065 3.112 72.9372 3.112H68.5692V6.536ZM85.9032 11L83.3272 3.832H85.5672L86.8632 7.896L87.2792 9.32H87.4392L87.6792 8.056L88.7832 3.832H91.3432L92.5112 8.056L92.7352 9.32H92.8952L93.3272 7.864L94.5432 3.832H96.7832L96.5272 4.808L94.2232 11H91.6632L90.3352 6.6L90.1752 5.848H90.0152L89.8232 6.6L88.4632 11H85.9032ZM100.244 2.824C99.8498 2.824 99.5618 2.744 99.3804 2.584C99.1991 2.424 99.1084 2.15733 99.1084 1.784C99.1084 1.4 99.1938 1.13333 99.3644 0.983999C99.5458 0.823999 99.8391 0.743999 100.244 0.743999C100.65 0.743999 100.943 0.823999 101.124 0.983999C101.306 1.13333 101.396 1.4 101.396 1.784C101.396 2.14667 101.306 2.41333 101.124 2.584C100.943 2.744 100.65 2.824 100.244 2.824ZM99.2684 11V3.832H101.22V11H99.2684ZM107.296 11C106.485 11 105.93 10.8293 105.632 10.488C105.333 10.1467 105.184 9.63467 105.184 8.952V5.208H103.872V3.832H104.544C104.746 3.832 104.89 3.8 104.976 3.736C105.072 3.672 105.141 3.544 105.184 3.352L105.504 1.64H107.136V3.832H110.464V5.208H107.136V8.968C107.136 9.23467 107.2 9.41067 107.328 9.496C107.456 9.58133 107.648 9.624 107.904 9.624H110.16L110.32 10.84C110.096 10.872 109.754 10.9093 109.296 10.952C108.837 10.984 108.336 11 107.792 11H107.296ZM112.946 11V0.632H114.898V4.152C115.346 4.06667 115.885 3.992 116.514 3.928C117.143 3.864 117.863 3.832 118.674 3.832H119.474C120.007 3.832 120.418 3.90667 120.706 4.056C120.994 4.20533 121.197 4.392 121.314 4.616C121.442 4.84 121.517 5.06933 121.538 5.304C121.57 5.528 121.586 5.72 121.586 5.88V11H119.634V5.848C119.634 5.42133 119.378 5.208 118.866 5.208H115.378C115.175 5.208 115.042 5.22933 114.978 5.272C114.925 5.304 114.898 5.4 114.898 5.56V11H112.946ZM134.61 13.816C133.437 13.816 132.482 13.8053 131.746 13.784C131.01 13.7627 130.445 13.7307 130.05 13.688C129.655 13.6453 129.383 13.592 129.234 13.528C129.095 13.464 129.026 13.3947 129.026 13.32L129.506 12.12C129.677 12.1733 129.975 12.2373 130.402 12.312C130.839 12.3973 131.394 12.44 132.066 12.44H134.802C135.197 12.44 135.474 12.3813 135.634 12.264C135.805 12.1467 135.89 11.9387 135.89 11.64V10.68C135.431 10.7653 134.887 10.84 134.258 10.904C133.639 10.968 132.925 11 132.114 11H131.314C130.781 11 130.37 10.9307 130.082 10.792C129.794 10.6533 129.586 10.4773 129.458 10.264C129.341 10.0507 129.266 9.82667 129.234 9.592C129.213 9.35733 129.202 9.144 129.202 8.952V5.88C129.202 5.72 129.213 5.528 129.234 5.304C129.266 5.06933 129.341 4.84 129.458 4.616C129.586 4.392 129.794 4.20533 130.082 4.056C130.381 3.90667 130.791 3.832 131.314 3.832H132.13C133.25 3.832 134.119 3.85333 134.738 3.896C135.367 3.93867 135.826 3.98667 136.114 4.04L136.53 3.832H137.842V11.768C137.842 11.96 137.81 12.1733 137.746 12.408C137.693 12.6427 137.581 12.8667 137.41 13.08C137.239 13.2933 136.994 13.4693 136.674 13.608C136.354 13.7467 135.933 13.816 135.41 13.816H134.61ZM131.922 9.624H135.394C135.639 9.624 135.783 9.60267 135.826 9.56C135.869 9.51733 135.89 9.37867 135.89 9.144V5.32C135.527 5.29867 135.069 5.27733 134.514 5.256C133.959 5.224 133.367 5.208 132.738 5.208H131.922C131.41 5.208 131.154 5.42133 131.154 5.848V8.984C131.143 9.41067 131.399 9.624 131.922 9.624ZM142.92 11C142.205 11 141.672 10.856 141.32 10.568C140.978 10.28 140.808 9.81067 140.808 9.16V5.88C140.808 5.72 140.818 5.528 140.84 5.304C140.872 5.06933 140.946 4.84 141.064 4.616C141.192 4.392 141.4 4.20533 141.688 4.056C141.986 3.90667 142.397 3.832 142.92 3.832H147.336C147.869 3.832 148.28 3.90667 148.568 4.056C148.856 4.20533 149.058 4.392 149.176 4.616C149.304 4.84 149.378 5.06933 149.4 5.304C149.432 5.528 149.448 5.72 149.448 5.88V8.952C149.448 9.144 149.432 9.35733 149.4 9.592C149.378 9.82667 149.304 10.0507 149.176 10.264C149.048 10.4773 148.84 10.6533 148.552 10.792C148.264 10.9307 147.858 11 147.336 11H142.92ZM143.528 9.624H146.728C147.25 9.624 147.512 9.41067 147.512 8.984V5.848C147.512 5.42133 147.25 5.208 146.728 5.208H143.528C143.016 5.208 142.76 5.42133 142.76 5.848V8.984C142.76 9.41067 143.016 9.624 143.528 9.624ZM154.354 11C153.64 11 153.106 10.856 152.754 10.568C152.413 10.28 152.242 9.81067 152.242 9.16V5.88C152.242 5.72 152.253 5.528 152.274 5.304C152.306 5.06933 152.381 4.84 152.498 4.616C152.626 4.392 152.834 4.20533 153.122 4.056C153.421 3.90667 153.832 3.832 154.354 3.832H158.77C159.304 3.832 159.714 3.90667 160.002 4.056C160.29 4.20533 160.493 4.392 160.61 4.616C160.738 4.84 160.813 5.06933 160.834 5.304C160.866 5.528 160.882 5.72 160.882 5.88V8.952C160.882 9.144 160.866 9.35733 160.834 9.592C160.813 9.82667 160.738 10.0507 160.61 10.264C160.482 10.4773 160.274 10.6533 159.986 10.792C159.698 10.9307 159.293 11 158.77 11H154.354ZM154.962 9.624H158.162C158.685 9.624 158.946 9.41067 158.946 8.984V5.848C158.946 5.42133 158.685 5.208 158.162 5.208H154.962C154.45 5.208 154.194 5.42133 154.194 5.848V8.984C154.194 9.41067 154.45 9.624 154.962 9.624ZM169.101 13.816C167.927 13.816 166.973 13.8053 166.237 13.784C165.501 13.7627 164.935 13.7307 164.541 13.688C164.146 13.6453 163.874 13.592 163.725 13.528C163.586 13.464 163.517 13.3947 163.517 13.32L163.997 12.12C164.167 12.1733 164.466 12.2373 164.893 12.312C165.33 12.3973 165.885 12.44 166.557 12.44H169.293C169.687 12.44 169.965 12.3813 170.125 12.264C170.295 12.1467 170.381 11.9387 170.381 11.64V10.68C169.922 10.7653 169.378 10.84 168.749 10.904C168.13 10.968 167.415 11 166.605 11H165.805C165.271 11 164.861 10.9307 164.573 10.792C164.285 10.6533 164.077 10.4773 163.949 10.264C163.831 10.0507 163.757 9.82667 163.725 9.592C163.703 9.35733 163.693 9.144 163.693 8.952V5.88C163.693 5.72 163.703 5.528 163.725 5.304C163.757 5.06933 163.831 4.84 163.949 4.616C164.077 4.392 164.285 4.20533 164.573 4.056C164.871 3.90667 165.282 3.832 165.805 3.832H166.621C167.741 3.832 168.61 3.85333 169.229 3.896C169.858 3.93867 170.317 3.98667 170.605 4.04L171.021 3.832H172.333V11.768C172.333 11.96 172.301 12.1733 172.237 12.408C172.183 12.6427 172.071 12.8667 171.901 13.08C171.73 13.2933 171.485 13.4693 171.165 13.608C170.845 13.7467 170.423 13.816 169.901 13.816H169.101ZM166.413 9.624H169.885C170.13 9.624 170.274 9.60267 170.317 9.56C170.359 9.51733 170.381 9.37867 170.381 9.144V5.32C170.018 5.29867 169.559 5.27733 169.005 5.256C168.45 5.224 167.858 5.208 167.229 5.208H166.413C165.901 5.208 165.645 5.42133 165.645 5.848V8.984C165.634 9.41067 165.89 9.624 166.413 9.624ZM175.618 11V2.136L175.458 0.856H177.57V11H175.618ZM182.642 11C182.108 11 181.698 10.9307 181.41 10.792C181.122 10.6533 180.914 10.4773 180.786 10.264C180.668 10.0507 180.594 9.82667 180.562 9.592C180.54 9.35733 180.53 9.144 180.53 8.952V5.88C180.53 5.72 180.54 5.528 180.562 5.304C180.594 5.06933 180.668 4.84 180.786 4.616C180.914 4.392 181.122 4.20533 181.41 4.056C181.708 3.90667 182.119 3.832 182.642 3.832H186.082C186.786 3.832 187.335 3.90133 187.73 4.04C188.135 4.168 188.418 4.38133 188.578 4.68C188.748 4.97867 188.834 5.37867 188.834 5.88V8.248H186.034C185.074 8.248 184.29 8.22667 183.682 8.184C183.084 8.14133 182.684 8.11467 182.482 8.104V8.984C182.471 9.41067 182.727 9.624 183.25 9.624H184.066C184.642 9.624 185.202 9.61867 185.746 9.608C186.3 9.58667 186.807 9.56533 187.266 9.544C187.724 9.512 188.092 9.48533 188.37 9.464L189.01 10.504C189.01 10.8347 187.959 11 185.858 11H182.642ZM182.482 6.872H186.882V5.848C186.882 5.63467 186.855 5.48533 186.802 5.4C186.759 5.31467 186.62 5.26133 186.386 5.24C186.151 5.21867 185.751 5.208 185.186 5.208H183.25C182.738 5.208 182.482 5.42133 182.482 5.848V6.872Z" fill="white"/>
</svg>
