<svg width="70" height="14" viewBox="0 0 70 14" fill="none" xmlns="http://www.w3.org/2000/svg">
<path d="M2.7845 11C2.05917 11 1.52583 10.968 1.1845 10.904C0.843168 10.84 0.672502 10.7653 0.672502 10.68L1.3125 9.288C1.55783 9.33067 2.16583 9.37333 3.1365 9.416C4.11784 9.448 5.46184 9.464 7.1685 9.464H7.4725C7.93117 9.464 8.2565 9.384 8.4485 9.224C8.6405 9.05333 8.7365 8.77067 8.7365 8.376V8.056C8.7365 7.68267 8.6565 7.416 8.4965 7.256C8.34717 7.096 8.00584 7.016 7.4725 7.016H3.7605C2.68317 7.016 1.89917 6.81867 1.4085 6.424C0.917835 6.01867 0.672502 5.36267 0.672502 4.456V4.2C0.672502 3.73067 0.757835 3.29867 0.928502 2.904C1.10983 2.50933 1.41383 2.19467 1.8405 1.96C2.26717 1.71467 2.85384 1.592 3.6005 1.592H7.9525C8.67784 1.592 9.2645 1.62933 9.7125 1.704C10.1605 1.77867 10.3845 1.85867 10.3845 1.944L10.0645 3.288C9.78717 3.256 9.15784 3.224 8.1765 3.192C7.19517 3.14933 5.87783 3.128 4.2245 3.128L4.0485 3.112C3.55784 3.112 3.22717 3.21333 3.0565 3.416C2.88583 3.608 2.79517 3.85333 2.7845 4.152V4.424C2.7845 4.776 2.8805 5.04267 3.0725 5.224C3.27517 5.39467 3.60584 5.48 4.0645 5.48H7.6165C8.29917 5.48 8.8805 5.54933 9.3605 5.688C9.8405 5.82667 10.2085 6.08267 10.4645 6.456C10.7205 6.81867 10.8485 7.35733 10.8485 8.072V8.328C10.8485 9.128 10.6405 9.77333 10.2245 10.264C9.81917 10.7547 9.10984 11 8.0965 11H2.7845ZM15.1023 2.824C14.7076 2.824 14.4196 2.744 14.2383 2.584C14.0569 2.424 13.9663 2.15733 13.9663 1.784C13.9663 1.4 14.0516 1.13333 14.2223 0.983999C14.4036 0.823999 14.6969 0.743999 15.1023 0.743999C15.5076 0.743999 15.8009 0.823999 15.9823 0.983999C16.1636 1.13333 16.2543 1.4 16.2543 1.784C16.2543 2.14667 16.1636 2.41333 15.9823 2.584C15.8009 2.744 15.5076 2.824 15.1023 2.824ZM14.1263 11V3.832H16.0783V11H14.1263ZM24.6334 13.816C23.46 13.816 22.5054 13.8053 21.7694 13.784C21.0334 13.7627 20.468 13.7307 20.0734 13.688C19.6787 13.6453 19.4067 13.592 19.2574 13.528C19.1187 13.464 19.0494 13.3947 19.0494 13.32L19.5294 12.12C19.7 12.1733 19.9987 12.2373 20.4254 12.312C20.8627 12.3973 21.4174 12.44 22.0894 12.44H24.8254C25.22 12.44 25.4974 12.3813 25.6574 12.264C25.828 12.1467 25.9134 11.9387 25.9134 11.64V10.68C25.4547 10.7653 24.9107 10.84 24.2814 10.904C23.6627 10.968 22.948 11 22.1374 11H21.3374C20.804 11 20.3934 10.9307 20.1054 10.792C19.8174 10.6533 19.6094 10.4773 19.4814 10.264C19.364 10.0507 19.2894 9.82667 19.2574 9.592C19.236 9.35733 19.2254 9.144 19.2254 8.952V5.88C19.2254 5.72 19.236 5.528 19.2574 5.304C19.2894 5.06933 19.364 4.84 19.4814 4.616C19.6094 4.392 19.8174 4.20533 20.1054 4.056C20.404 3.90667 20.8147 3.832 21.3374 3.832H22.1534C23.2734 3.832 24.1427 3.85333 24.7614 3.896C25.3907 3.93867 25.8494 3.98667 26.1374 4.04L26.5534 3.832H27.8654V11.768C27.8654 11.96 27.8334 12.1733 27.7694 12.408C27.716 12.6427 27.604 12.8667 27.4334 13.08C27.2627 13.2933 27.0174 13.4693 26.6974 13.608C26.3774 13.7467 25.956 13.816 25.4334 13.816H24.6334ZM21.9454 9.624H25.4174C25.6627 9.624 25.8067 9.60267 25.8494 9.56C25.892 9.51733 25.9134 9.37867 25.9134 9.144V5.32C25.5507 5.29867 25.092 5.27733 24.5374 5.256C23.9827 5.224 23.3907 5.208 22.7614 5.208H21.9454C21.4334 5.208 21.1774 5.42133 21.1774 5.848V8.984C21.1667 9.41067 21.4227 9.624 21.9454 9.624ZM30.9913 11V3.832H32.3033L32.9433 4.152C33.3913 4.06667 33.9299 3.992 34.5593 3.928C35.1886 3.864 35.9086 3.832 36.7193 3.832H37.5193C38.0526 3.832 38.4633 3.90667 38.7513 4.056C39.0393 4.20533 39.2419 4.392 39.3593 4.616C39.4873 4.84 39.5619 5.06933 39.5833 5.304C39.6153 5.528 39.6313 5.72 39.6313 5.88V11H37.6793V5.848C37.6793 5.42133 37.4233 5.208 36.9113 5.208H33.4233C33.2206 5.208 33.0873 5.22933 33.0233 5.272C32.9699 5.304 32.9433 5.4 32.9433 5.56V11H30.9913ZM50.0793 11.16C49.1086 11.16 48.4313 10.8987 48.0473 10.376C47.6633 9.85333 47.4713 9.16 47.4713 8.296V1.592H49.5833V8.36C49.5833 8.86133 49.7059 9.19733 49.9513 9.368C50.1966 9.53867 50.5006 9.624 50.8633 9.624H54.2553C54.5966 9.624 54.8953 9.53867 55.1513 9.368C55.4073 9.18667 55.5353 8.85067 55.5353 8.36V1.592H57.6473V8.296C57.6473 8.872 57.5673 9.37333 57.4073 9.8C57.2473 10.2267 56.9806 10.5627 56.6073 10.808C56.2339 11.0427 55.7166 11.16 55.0553 11.16H50.0793ZM60.8413 13.976V3.832H62.1533L62.5533 4.04C63.0333 3.98667 63.6039 3.93867 64.2653 3.896C64.9373 3.85333 65.6999 3.832 66.5533 3.832H67.3693C67.9026 3.832 68.3133 3.90133 68.6013 4.04C68.8893 4.17867 69.0919 4.35467 69.2093 4.568C69.3373 4.78133 69.4119 5.00533 69.4333 5.24C69.4653 5.47467 69.4813 5.688 69.4813 5.88V8.952C69.4813 9.112 69.4653 9.30933 69.4333 9.544C69.4119 9.768 69.3373 9.992 69.2093 10.216C69.0919 10.44 68.8893 10.6267 68.6013 10.776C68.3133 10.9253 67.9026 11 67.3693 11H66.5533C65.7426 11 65.0226 10.9787 64.3933 10.936C63.7639 10.8933 63.2306 10.8507 62.7933 10.808V13.976H60.8413ZM63.2893 9.624H66.7613C66.9639 9.624 67.1399 9.57067 67.2893 9.464C67.4493 9.35733 67.5293 9.19733 67.5293 8.984V5.848C67.5399 5.61333 67.4813 5.448 67.3533 5.352C67.2359 5.256 67.0386 5.208 66.7613 5.208H65.9613C65.2786 5.208 64.6706 5.224 64.1373 5.256C63.6146 5.27733 63.1666 5.304 62.7933 5.336V9.128C62.7933 9.36267 62.8146 9.50667 62.8573 9.56C62.9106 9.60267 63.0546 9.624 63.2893 9.624Z" fill="white"/>
</svg>
