
<svg width="201" height="87" viewBox="0 0 201 87" fill="none" xmlns="http://www.w3.org/2000/svg"><rect x=".5" y=".5" width="200" height="85.5" fill="#000"/><path d="M21.494 15.662c0 1.2133-.3293 2.2707-.988 3.172-.6587.884-1.456 1.6033-2.392 2.158C17.178 21.5293 16.242 22.058 15.306 22.578 14.3873 23.0807 13.5987 23.7047 12.94 24.45 12.2813 25.178 11.952 26.0273 11.952 26.998h9.282V29H9.638V27.284c0-.901299999999999.17333-1.7247.52-2.47C10.522 24.0687 10.9813 23.4447 11.536 22.942 12.108 22.422 12.732 21.9453 13.408 21.512 14.084 21.0613 14.76 20.6367 15.436 20.238 16.1293 19.8393 16.7533 19.432 17.308 19.016 17.88 18.5827 18.3393 18.0887 18.686 17.534 19.05 16.962 19.232 16.338 19.232 15.662 19.232 14.7433 18.894 13.9893 18.218 13.4c-.6587-.5893-1.482-.884-2.47-.884-1.2307.0-2.2447.3293-3.042.988s-1.2827 1.5513-1.456 2.678H8.988c.24267-1.768.97067-3.1547 2.184-4.16 1.2133-1.0053 2.7387-1.508 4.576-1.508C17.412 10.514 18.7813 10.9993 19.856 11.97 20.948 12.9233 21.494 14.154 21.494 15.662zM34.8958 26.738c-1.248 1.6987-2.9294 2.548-5.044 2.548-2.1147.0-3.8047-.849300000000003-5.07-2.548-1.248-1.716-1.872-4.0127-1.872-6.89.0-2.8427.623999999999999-5.1047 1.872-6.786 1.2653-1.6987 2.9553-2.548 5.07-2.548 2.1146.0 3.796.849300000000001 5.044 2.548 1.2653 1.6813 1.898 3.9433 1.898 6.786.0 2.8773-.6327 5.174-1.898 6.89zM29.8518 27.284c1.4733.0 2.626-.701999999999998 3.458-2.106C34.1591 23.7567 34.5838 21.98 34.5838 19.848c0-2.288-.450699999999998-4.082-1.352-5.382-.901400000000002-1.3-2.028-1.95-3.38-1.95-1.4734.0-2.6347.702-3.484 2.106C25.5358 16.0087 25.1198 17.7507 25.1198 19.848c0 2.34.450599999999998 4.1687 1.352 5.486.901299999999999 1.3 2.028 1.95 3.38 1.95zM50.5175 15.662c0 1.2133-.329299999999996 2.2707-.988 3.172C48.8708 19.718 48.0735 20.4373 47.1375 20.992 46.2015 21.5293 45.2655 22.058 44.3295 22.578 43.4108 23.0807 42.6222 23.7047 41.9635 24.45 41.3048 25.178 40.9755 26.0273 40.9755 26.998h9.282V29H38.6615V27.284C38.6615 26.3827 38.8348 25.5593 39.1815 24.814 39.5455 24.0687 40.0048 23.4447 40.5595 22.942 41.1315 22.422 41.7555 21.9453 42.4315 21.512 43.1075 21.0613 43.7835 20.6367 44.4595 20.238 45.1528 19.8393 45.7768 19.432 46.3315 19.016 46.9035 18.5827 47.3628 18.0887 47.7095 17.534 48.0735 16.962 48.2555 16.338 48.2555 15.662 48.2555 14.7433 47.9175 13.9893 47.2415 13.4c-.658700000000003-.5893-1.482-.884-2.47-.884-1.23070000000001.0-2.2447.3293-3.042.988s-1.2827 1.5513-1.456 2.678h-2.262C38.2542 14.414 38.9822 13.0273 40.1955 12.022 41.4088 11.0167 42.9342 10.514 44.7715 10.514 46.4355 10.514 47.8048 10.9993 48.8795 11.97 49.9715 12.9233 50.5175 14.154 50.5175 15.662zm13.6358.0c0 1.2133-.329300000000004 2.2707-.988 3.172C62.5066 19.718 61.7093 20.4373 60.7733 20.992 59.8373 21.5293 58.9013 22.058 57.9653 22.578 57.0466 23.0807 56.258 23.7047 55.5993 24.45 54.9406 25.178 54.6113 26.0273 54.6113 26.998h9.282V29H52.2973V27.284C52.2973 26.3827 52.4706 25.5593 52.8173 24.814 53.1813 24.0687 53.6406 23.4447 54.1953 22.942 54.7673 22.422 55.3913 21.9453 56.0673 21.512 56.7433 21.0613 57.4193 20.6367 58.0953 20.238 58.7886 19.8393 59.4126 19.432 59.9673 19.016 60.5393 18.5827 60.9986 18.0887 61.3453 17.534 61.7093 16.962 61.8913 16.338 61.8913 15.662 61.8913 14.7433 61.5533 13.9893 60.8773 13.4c-.658699999999996-.5893-1.482-.884-2.47-.884-1.2307.0-2.2447.3293-3.042.988s-1.2827 1.5513-1.456 2.678h-2.262C51.89 14.414 52.618 13.0273 53.8313 12.022c1.2133-1.0053 2.7387-1.508 4.576-1.508 1.664.0 3.0333.485300000000001 4.108 1.456C63.6073 12.9233 64.1533 14.154 64.1533 15.662z" fill="#e8e8e8" fill-opacity=".5"/><path d="M79.4683 29.39c5.408.0 9.646-4.082 9.646-9.75.0-5.668-4.238-9.698-9.646-9.698C74.0863 9.942 69.8483 13.972 69.8483 19.64S74.0863 29.39 79.4683 29.39zm0-4.394C76.5303 24.996 74.8923 22.578 74.8923 19.64S76.5303 14.336 79.4683 14.336 84.0443 16.702 84.0443 19.64 82.4063 24.996 79.4683 24.996zM99.0171 29.39C104.139 29.39 108.065 26.01 108.689 21.018H103.489C103.073 23.384 101.331 24.996 99.0691 24.996 96.3131 24.996 94.5711 22.838 94.5711 19.64c0-3.172 1.742-5.304 4.49800000000001-5.304C101.357 14.336 103.099 15.948 103.489 18.288H108.689C108.091 13.348 104.139 9.942 99.0171 9.942c-5.304.0-9.49 4.238-9.49 9.698.0 5.486 4.18599999999999 9.75 9.49 9.75zM119.146 29V14.778h5.72V10.332H108.512v4.446h5.72V29h4.914zM133.528 29.39C138.936 29.39 143.174 25.308 143.174 19.64 143.174 13.972 138.936 9.942 133.528 9.942 128.146 9.942 123.908 13.972 123.908 19.64S128.146 29.39 133.528 29.39zm0-4.394C130.59 24.996 128.952 22.578 128.952 19.64S130.59 14.336 133.528 14.336C136.466 14.336 138.104 16.702 138.104 19.64S136.466 24.996 133.528 24.996zm25.815-1.612c0-1.976-1.066-3.354-2.964-4.16C157.939 18.288 158.797 17.014 158.797 15.376c0-3.25-2.548-5.044-6.63-5.044h-7.488V29H152.401C156.743 29 159.343 26.894 159.343 23.384zm-7.566-9.178C153.415 14.206 154.169 14.83 154.169 15.792 154.169 16.806 153.415 17.43 151.777 17.43H149.125V14.206H151.777zM152.011 21.304C153.857 21.304 154.715 22.058 154.715 23.202 154.715 24.398 153.857 25.126 152.011 25.126h-2.886V21.304h2.886zm21.949 3.432H165.666V21.538h7.358V17.274h-7.358V14.596h8.112V10.332H160.752V29H173.96V24.736zM180.648 29V22.786H182.26L186.082 29H191.932L187.356 22.006C189.878 20.94 191.308 18.964 191.308 16.572c0-3.978-2.886-6.24-7.93000000000001-6.24H175.734V29H180.648zm0-14.612H183.17C185.354 14.388 186.368 15.09 186.368 16.572S185.354 18.73 183.17 18.73H180.648V14.388z" fill="#e8e8e8"/><path d="M9.536 48.136V48.388H14.06V49H8.816V48.208C8.816 47.808 8.9 47.44 9.068 47.104 9.236 46.76 9.452 46.472 9.716 46.24 9.988 46.008 10.288 45.788 10.616 45.58 10.944 45.372 11.268 45.176 11.588 44.992 11.916 44.8 12.212 44.604 12.476 44.404 12.748 44.204 12.968 43.972 13.136 43.708 13.304 43.444 13.388 43.156 13.388 42.844 13.388 42.348 13.216 41.944 12.872 41.632 12.528 41.312 12.084 41.152 11.54 41.152 10.916 41.152 10.388 41.328 9.956 41.68 9.532 42.032 9.28 42.5 9.2 43.084H8.504C8.632 42.3 8.968 41.676 9.512 41.212 10.064 40.74 10.74 40.504 11.54 40.504 12.292 40.504 12.904 40.724 13.376 41.164 13.856 41.596 14.096 42.156 14.096 42.844 14.096 43.228 14.012 43.58 13.844 43.9 13.676 44.212 13.456 44.476 13.184 44.692 12.92 44.908 12.624 45.112 12.296 45.304 11.976 45.496 11.652 45.688 11.324 45.88 11.004 46.064 10.708 46.256 10.436 46.456 10.172 46.656 9.956 46.9 9.788 47.188 9.62 47.476 9.536 47.792 9.536 48.136zM20.5837 40.6H21.2677V49H20.5717V42.088C20.2117 42.68 19.5677 42.976 18.6397 42.976H18.4237V42.304H18.6397C19.2717 42.304 19.7517 42.168 20.0797 41.896 20.4157 41.624 20.5837 41.232 20.5837 40.72V40.6zm9.1733 8.496C28.741 49.096 27.933 48.872 27.333 48.424 26.733 47.968 26.401 47.324 26.337 46.492H27.069C27.133 47.108 27.397 47.588 27.861 47.932 28.325 48.276 28.957 48.448 29.757 48.448 30.437 48.448 30.993 48.292 31.425 47.98 31.857 47.66 32.073 47.252 32.073 46.756 32.073 46.524 32.029 46.32 31.941 46.144 31.853 45.968 31.745 45.828 31.617 45.724 31.497 45.612 31.313 45.512 31.065 45.424 30.825 45.336 30.613 45.272 30.429 45.232 30.245 45.184 29.981 45.128 29.637 45.064 29.381 45.016 29.189 44.98 29.061 44.956 28.941 44.924 28.757 44.876 28.509 44.812 28.269 44.74 28.081 44.672 27.945 44.608S27.649 44.452 27.465 44.332 27.141 44.084 27.045 43.948C26.949 43.804 26.865 43.632 26.793 43.432 26.721 43.224 26.685 43 26.685 42.76 26.685 42.096 26.949 41.556 27.477 41.14 28.005 40.716 28.693 40.504 29.541 40.504 30.405 40.504 31.109 40.724 31.653 41.164 32.205 41.604 32.537 42.216 32.649 43H31.929C31.809 42.424 31.533 41.972 31.101 41.644 30.677 41.308 30.157 41.14 29.541 41.14 28.909 41.14 28.393 41.292 27.993 41.596 27.593 41.892 27.393 42.276 27.393 42.748 27.393 42.94 27.421 43.116 27.477 43.276 27.533 43.428 27.629 43.56 27.765 43.672 27.901 43.784 28.029 43.876 28.149 43.948 28.269 44.02 28.445 44.092 28.677 44.164 28.917 44.228 29.105 44.276 29.241 44.308 29.377 44.34 29.585 44.384 29.865 44.44 30.265 44.52 30.565 44.584 30.765 44.632 30.973 44.68 31.229 44.764 31.533 44.884 31.837 45.004 32.065 45.136 32.217 45.28S32.501 45.624 32.613 45.88C32.733 46.128 32.793 46.42 32.793 46.756c0 .68-.283999999999999 1.24-.852 1.68C31.373 48.876 30.645 49.096 29.757 49.096zM43.9343 40.6V41.236h-2.976V49H40.2503V41.236H37.2743V40.6h6.66zm4.6414 8.28C48.4557 49 48.3077 49.06 48.1317 49.06 47.9557 49.06 47.8037 49 47.6757 48.88 47.5557 48.752 47.4957 48.6 47.4957 48.424S47.5557 48.1 47.6757 47.98C47.8037 47.86 47.9557 47.8 48.1317 47.8 48.3077 47.8 48.4557 47.86 48.5757 47.98 48.7037 48.1 48.7677 48.248 48.7677 48.424S48.7037 48.752 48.5757 48.88zm29.919-.744V48.388h4.524V49h-5.244V48.208C77.7747 47.808 77.8587 47.44 78.0267 47.104 78.1947 46.76 78.4107 46.472 78.6747 46.24 78.9467 46.008 79.2467 45.788 79.5747 45.58 79.9027 45.372 80.2267 45.176 80.5467 44.992 80.8747 44.8 81.1707 44.604 81.4347 44.404 81.7067 44.204 81.9267 43.972 82.0947 43.708 82.2627 43.444 82.3467 43.156 82.3467 42.844 82.3467 42.348 82.1747 41.944 81.8307 41.632 81.4867 41.312 81.0427 41.152 80.4987 41.152 79.8747 41.152 79.3467 41.328 78.9147 41.68 78.4907 42.032 78.2387 42.5 78.1587 43.084H77.4627C77.5907 42.3 77.9267 41.676 78.4707 41.212 79.0227 40.74 79.6987 40.504 80.4987 40.504 81.2507 40.504 81.8627 40.724 82.3347 41.164 82.8147 41.596 83.0547 42.156 83.0547 42.844 83.0547 43.228 82.9707 43.58 82.8027 43.9 82.6347 44.212 82.4147 44.476 82.1427 44.692 81.8787 44.908 81.5827 45.112 81.2547 45.304 80.9347 45.496 80.6107 45.688 80.2827 45.88 79.9627 46.064 79.6667 46.256 79.3947 46.456 79.1307 46.656 78.9147 46.9 78.7467 47.188 78.5787 47.476 78.4947 47.792 78.4947 48.136zm10.0397.0V48.388h4.524V49h-5.244V48.208C87.8144 47.808 87.8984 47.44 88.0664 47.104 88.2344 46.76 88.4504 46.472 88.7144 46.24 88.9864 46.008 89.2864 45.788 89.6144 45.58S90.2664 45.176 90.5864 44.992C90.9144 44.8 91.2104 44.604 91.4744 44.404 91.7464 44.204 91.9664 43.972 92.1344 43.708 92.3024 43.444 92.3864 43.156 92.3864 42.844 92.3864 42.348 92.2144 41.944 91.8704 41.632 91.5264 41.312 91.0824 41.152 90.5384 41.152 89.9144 41.152 89.3864 41.328 88.9544 41.68 88.5304 42.032 88.2784 42.5 88.1984 43.084H87.5024C87.6304 42.3 87.9664 41.676 88.5104 41.212 89.0624 40.74 89.7384 40.504 90.5384 40.504 91.2904 40.504 91.9024 40.724 92.3744 41.164 92.8544 41.596 93.0944 42.156 93.0944 42.844 93.0944 43.228 93.0104 43.58 92.8424 43.9 92.6744 44.212 92.4544 44.476 92.1824 44.692 91.9184 44.908 91.6224 45.112 91.2944 45.304 90.9744 45.496 90.6504 45.688 90.3224 45.88 90.0024 46.064 89.7064 46.256 89.4344 46.456 89.1704 46.656 88.9544 46.9 88.7864 47.188 88.6184 47.476 88.5344 47.792 88.5344 48.136zM104.07 40.6H104.754V49H103.95L98.8141 41.608V49H98.1181V40.6H98.9341L104.07 47.992V40.6zm9.125.0C114.355 40.6 115.299 40.988 116.027 41.764 116.763 42.532 117.131 43.528 117.131 44.752 117.131 46.008 116.763 47.032 116.027 47.824 115.299 48.608 114.355 49 113.195 49h-2.916V40.6h2.916zM113.231 48.364C114.183 48.364 114.947 48.036 115.523 47.38 116.099 46.716 116.387 45.84 116.387 44.752 116.387 43.736 116.099 42.904 115.523 42.256 114.947 41.608 114.183 41.264 113.231 41.224h-2.256v7.14h2.256zM122.738 48.88C122.618 49 122.47 49.06 122.294 49.06S121.966 49 121.838 48.88C121.718 48.752 121.658 48.6 121.658 48.424S121.718 48.1 121.838 47.98C121.966 47.86 122.118 47.8 122.294 47.8S122.618 47.86 122.738 47.98C122.866 48.1 122.93 48.248 122.93 48.424S122.866 48.752 122.738 48.88zm29.919-.744V48.388h4.524V49h-5.244V48.208C151.937 47.808 152.021 47.44 152.189 47.104 152.357 46.76 152.573 46.472 152.837 46.24 153.109 46.008 153.409 45.788 153.737 45.58S154.389 45.176 154.709 44.992C155.037 44.8 155.333 44.604 155.597 44.404 155.869 44.204 156.089 43.972 156.257 43.708 156.425 43.444 156.509 43.156 156.509 42.844 156.509 42.348 156.337 41.944 155.993 41.632 155.649 41.312 155.205 41.152 154.661 41.152 154.037 41.152 153.509 41.328 153.077 41.68 152.653 42.032 152.401 42.5 152.321 43.084H151.625C151.753 42.3 152.089 41.676 152.633 41.212 153.185 40.74 153.861 40.504 154.661 40.504 155.413 40.504 156.025 40.724 156.497 41.164 156.977 41.596 157.217 42.156 157.217 42.844 157.217 43.228 157.133 43.58 156.965 43.9 156.797 44.212 156.577 44.476 156.305 44.692 156.041 44.908 155.745 45.112 155.417 45.304 155.097 45.496 154.773 45.688 154.445 45.88 154.125 46.064 153.829 46.256 153.557 46.456 153.293 46.656 153.077 46.9 152.909 47.188 152.741 47.476 152.657 47.792 152.657 48.136zM165.984 44.608C166.552 44.744 166.992 44.996 167.304 45.364 167.624 45.724 167.784 46.168 167.784 46.696 167.784 47.408 167.52 47.988 166.992 48.436 166.464 48.876 165.784 49.096 164.952 49.096 164 49.096 163.232 48.848 162.648 48.352 162.072 47.848 161.76 47.172 161.712 46.324H162.396C162.428 46.972 162.676 47.488 163.14 47.872 163.604 48.248 164.208 48.436 164.952 48.436 165.576 48.436 166.088 48.272 166.488 47.944 166.896 47.608 167.1 47.184 167.1 46.672 167.1 46.144 166.908 45.728 166.524 45.424 166.14 45.112 165.62 44.956 164.964 44.956H163.848V44.332H164.964C165.5 44.316 165.936 44.164 166.272 43.876 166.608 43.588 166.776 43.212 166.776 42.748 166.776 42.284 166.6 41.904 166.248 41.608 165.896 41.312 165.444 41.164 164.892 41.164 164.284 41.164 163.776 41.336 163.368 41.68 162.96 42.024 162.712 42.492 162.624 43.084H161.928C162.056 42.3 162.388 41.676 162.924 41.212 163.46 40.74 164.116 40.504 164.892 40.504 165.652 40.504 166.272 40.712 166.752 41.128 167.232 41.536 167.472 42.06 167.472 42.7 167.472 43.156 167.34 43.552 167.076 43.888 166.82 44.216 166.456 44.456 165.984 44.608zM178.304 45.868 179.468 49H178.736L177.62 46.06C177.532 45.836 177.396 45.66 177.212 45.532 177.036 45.404 176.844 45.34 176.636 45.34H173.492V49H172.796V40.6h3.732C177.336 40.6 177.964 40.816 178.412 41.248 178.868 41.68 179.096 42.22 179.096 42.868 179.096 43.396 178.948 43.852 178.652 44.236 178.356 44.612 177.952 44.876 177.44 45.028 177.848 45.164 178.136 45.444 178.304 45.868zM173.492 41.236v3.492h3.084C177.144 44.728 177.588 44.556 177.908 44.212 178.228 43.86 178.388 43.412 178.388 42.868 178.388 42.356 178.216 41.956 177.872 41.668 177.528 41.38 177.096 41.236 176.576 41.236h-3.084zM187.286 40.6C188.446 40.6 189.39 40.988 190.118 41.764 190.854 42.532 191.222 43.528 191.222 44.752 191.222 46.008 190.854 47.032 190.118 47.824 189.39 48.608 188.446 49 187.286 49H184.37V40.6h2.916zM187.322 48.364C188.274 48.364 189.038 48.036 189.614 47.38 190.19 46.716 190.478 45.84 190.478 44.752 190.478 43.736 190.19 42.904 189.614 42.256S188.274 41.264 187.322 41.224h-2.256v7.14h2.256z" fill="#fff"/><path d="M24.6782 69.25c0 4.868-3.6559 8.75-8.0891 8.75C12.1559 78 8.5 74.118 8.5 69.25s3.6559-8.75 8.0891-8.75C21.0223 60.5 24.6782 64.382 24.6782 69.25z" stroke="#e8e8e8" stroke-opacity=".55"/><path d="M31.2856 69.25c0 4.868-3.6559 8.75-8.0891 8.75S15.1074 74.118 15.1074 69.25s3.6559-8.75 8.0891-8.75S31.2856 64.382 31.2856 69.25z" stroke="#e8e8e8" stroke-opacity=".55"/><path d="M37.893 69.25c0 4.868-3.6558 8.75-8.0891 8.75C25.3707 78 21.7148 74.118 21.7148 69.25s3.6559-8.75 8.0891-8.75C34.2372 60.5 37.893 64.382 37.893 69.25z" stroke="#e8e8e8" stroke-opacity=".55"/><path d="M44.4985 69.25c0 4.868-3.6559 8.75-8.0891 8.75S28.3203 74.118 28.3203 69.25s3.6559-8.75 8.0891-8.75S44.4985 64.382 44.4985 69.25z" stroke="#e8e8e8" stroke-opacity=".55"/><line x1="53" y1="68.75" x2="102" y2="68.75" stroke="#e8e8e8" stroke-opacity=".5" stroke-dasharray="2 2"/><rect x="110" y="60.25" width="3.57034" height="18" fill="#d9d9d9"/><rect x="114.938" y="60.25" width="4.76046" height="18" fill="#d9d9d9"/><rect x="121.064" y="60.25" width="7.14068" height="18" fill="#d9d9d9"/><rect x="129.572" y="60.25" width="10.711" height="18" fill="#d9d9d9"/><rect x="141.648" y="60.25" width="17.8517" height="18" fill="#d9d9d9"/><rect x="160.867" y="60.25" width="32.1331" height="18" fill="#d9d9d9"/><rect x=".5" y=".5" width="200" height="85.5" stroke="#313131"/></svg>