<svg width="202" height="87" viewBox="0 0 202 87" fill="none" xmlns="http://www.w3.org/2000/svg">
<path d="M201 1H1V86.5H201V1Z" fill="black"/>
<path d="M25.1782 69.75C25.1782 74.618 21.5223 78.5 17.0891 78.5C12.6559 78.5 9 74.618 9 69.75C9 64.882 12.6559 61 17.0891 61C21.5223 61 25.1782 64.882 25.1782 69.75Z" stroke="#E8E8E8" stroke-opacity="0.55"/>
<path d="M31.7856 69.75C31.7856 74.618 28.1297 78.5 23.6965 78.5C19.2633 78.5 15.6074 74.618 15.6074 69.75C15.6074 64.882 19.2633 61 23.6965 61C28.1297 61 31.7856 64.882 31.7856 69.75Z" stroke="#E8E8E8" stroke-opacity="0.55"/>
<path d="M38.393 69.75C38.393 74.618 34.7372 78.5 30.3039 78.5C25.8707 78.5 22.2148 74.618 22.2148 69.75C22.2148 64.882 25.8707 61 30.3039 61C34.7372 61 38.393 64.882 38.393 69.75Z" stroke="#E8E8E8" stroke-opacity="0.55"/>
<path d="M44.9985 69.75C44.9985 74.618 41.3426 78.5 36.9094 78.5C32.4762 78.5 28.8203 74.618 28.8203 69.75C28.8203 64.882 32.4762 61 36.9094 61C41.3426 61 44.9985 64.882 44.9985 69.75Z" stroke="#E8E8E8" stroke-opacity="0.55"/>
<path d="M53.5 69.25H102.5" stroke="#E8E8E8" stroke-opacity="0.5" stroke-dasharray="2 2"/>
<path d="M114.07 60.75H110.5V78.75H114.07V60.75Z" fill="#D9D9D9"/>
<path d="M120.198 60.75H115.438V78.75H120.198V60.75Z" fill="#D9D9D9"/>
<path d="M128.705 60.75H121.564V78.75H128.705V60.75Z" fill="#D9D9D9"/>
<path d="M140.783 60.75H130.072V78.75H140.783V60.75Z" fill="#D9D9D9"/>
<path d="M160 60.75H142.148V78.75H160V60.75Z" fill="#D9D9D9"/>
<path d="M193.5 60.75H161.367V78.75H193.5V60.75Z" fill="#D9D9D9"/>
<path d="M201 1H1V86.5H201V1Z" stroke="#313131"/>
<path d="M10.4574 30V28.3381L16.6989 21.5057C17.4313 20.7055 18.0346 20.0099 18.5085 19.419C18.9825 18.822 19.3333 18.2618 19.5611 17.7386C19.795 17.2093 19.9119 16.6553 19.9119 16.0767C19.9119 15.4119 19.7519 14.8364 19.4318 14.3501C19.1179 13.8639 18.687 13.4884 18.1392 13.2237C17.5914 12.959 16.9759 12.8267 16.2926 12.8267C15.5663 12.8267 14.9323 12.9775 14.3906 13.2791C13.8551 13.5746 13.4396 13.9901 13.1442 14.5256C12.8549 15.0611 12.7102 15.6889 12.7102 16.4091H10.5312C10.5312 15.3011 10.7867 14.3286 11.2976 13.4915C11.8085 12.6544 12.504 12.0019 13.3842 11.5341C14.2706 11.0663 15.2647 10.8324 16.3665 10.8324C17.4744 10.8324 18.4562 11.0663 19.3118 11.5341C20.1674 12.0019 20.8383 12.6328 21.3246 13.4268C21.8108 14.2209 22.054 15.1042 22.054 16.0767C22.054 16.7723 21.9278 17.4524 21.6754 18.1172C21.4292 18.7758 20.9983 19.5114 20.3828 20.3239C19.7734 21.1302 18.9271 22.1151 17.8438 23.2784L13.5966 27.821V27.9688H22.3864V30H10.4574ZM30.0272 30.2585C28.6361 30.2585 27.4512 29.88 26.4725 29.1229C25.4938 28.3596 24.7459 27.2547 24.2289 25.8082C23.7118 24.3556 23.4533 22.6013 23.4533 20.5455C23.4533 18.5019 23.7118 16.7569 24.2289 15.3104C24.7521 13.8577 25.503 12.7498 26.4817 11.9865C27.4666 11.2171 28.6484 10.8324 30.0272 10.8324C31.406 10.8324 32.5847 11.2171 33.5634 11.9865C34.5483 12.7498 35.2992 13.8577 35.8162 15.3104C36.3395 16.7569 36.6011 18.5019 36.6011 20.5455C36.6011 22.6013 36.3425 24.3556 35.8255 25.8082C35.3084 27.2547 34.5606 28.3596 33.5819 29.1229C32.6032 29.88 31.4183 30.2585 30.0272 30.2585ZM30.0272 28.2273C31.406 28.2273 32.477 27.5625 33.2403 26.233C34.0035 24.9034 34.3851 23.0076 34.3851 20.5455C34.3851 18.9081 34.2097 17.514 33.8589 16.3629C33.5142 15.2119 33.0156 14.3348 32.3631 13.7315C31.7168 13.1283 30.9382 12.8267 30.0272 12.8267C28.6607 12.8267 27.5928 13.5007 26.8234 14.8487C26.0539 16.1906 25.6692 18.0895 25.6692 20.5455C25.6692 22.1828 25.8416 23.5739 26.1863 24.7188C26.531 25.8636 27.0265 26.7346 27.6728 27.3317C28.3252 27.9287 29.11 28.2273 30.0272 28.2273ZM37.7696 30V28.3381L44.0111 21.5057C44.7435 20.7055 45.3468 20.0099 45.8207 19.419C46.2947 18.822 46.6455 18.2618 46.8733 17.7386C47.1072 17.2093 47.2241 16.6553 47.2241 16.0767C47.2241 15.4119 47.0641 14.8364 46.744 14.3501C46.4301 13.8639 45.9992 13.4884 45.4514 13.2237C44.9036 12.959 44.288 12.8267 43.6048 12.8267C42.8785 12.8267 42.2445 12.9775 41.7028 13.2791C41.1673 13.5746 40.7518 13.9901 40.4564 14.5256C40.1671 15.0611 40.0224 15.6889 40.0224 16.4091H37.8434C37.8434 15.3011 38.0989 14.3286 38.6098 13.4915C39.1207 12.6544 39.8162 12.0019 40.6964 11.5341C41.5828 11.0663 42.5769 10.8324 43.6787 10.8324C44.7866 10.8324 45.7684 11.0663 46.624 11.5341C47.4796 12.0019 48.1505 12.6328 48.6368 13.4268C49.123 14.2209 49.3662 15.1042 49.3662 16.0767C49.3662 16.7723 49.24 17.4524 48.9876 18.1172C48.7414 18.7758 48.3105 19.5114 47.695 20.3239C47.0856 21.1302 46.2393 22.1151 45.1559 23.2784L40.9088 27.821V27.9688H49.6986V30H37.7696ZM50.3223 26.1222V24.2386L58.632 11.0909H59.9985V14.0085H59.0752L52.7968 23.9432V24.0909H63.9871V26.1222H50.3223ZM59.2229 30V25.5497V24.6726V11.0909H61.4019V30H59.2229Z" fill="#747474"/>
<path d="M13.9716 42.2727V51H12.9148V43.3807H12.8636L10.733 44.7955V43.7216L12.9148 42.2727H13.9716ZM15.197 49.2102V48.3409L19.0322 42.2727H19.6629V43.6193H19.2368L16.339 48.2045V48.2727H21.5038V49.2102H15.197ZM19.3049 51V48.946V48.5412V42.2727H20.3106V51H19.3049ZM21.6969 43.2102V42.2727H28.2423V43.2102H25.498V51H24.4412V43.2102H21.6969ZM28.7934 51V42.2727H29.8502V46.1591H34.5036V42.2727H35.5604V51H34.5036V47.0966H29.8502V51H28.7934Z" fill="#747474"/>
<path d="M90.9716 42.2727V51H89.9148V43.3807H89.8636L87.733 44.7955V43.7216L89.9148 42.2727H90.9716ZM95.1288 51.1193C94.6288 51.1193 94.1785 51.0199 93.778 50.821C93.3774 50.6222 93.0564 50.3494 92.8149 50.0028C92.5734 49.6562 92.4413 49.2614 92.4186 48.8182H93.4413C93.4811 49.2131 93.6601 49.5398 93.9782 49.7983C94.2993 50.054 94.6828 50.1818 95.1288 50.1818C95.4868 50.1818 95.8049 50.098 96.0834 49.9304C96.3646 49.7628 96.5848 49.5327 96.7439 49.2401C96.9058 48.9446 96.9868 48.6108 96.9868 48.2386C96.9868 47.858 96.903 47.5185 96.7353 47.2202C96.5706 46.919 96.3433 46.6818 96.0535 46.5085C95.7638 46.3352 95.4328 46.2472 95.0606 46.2443C94.7936 46.2415 94.5194 46.2827 94.2382 46.3679C93.9569 46.4503 93.7254 46.5568 93.5436 46.6875L92.5549 46.5682L93.0834 42.2727H97.6174V43.2102H93.9697L93.6629 45.7841H93.714C93.893 45.642 94.1174 45.5241 94.3873 45.4304C94.6572 45.3366 94.9385 45.2898 95.2311 45.2898C95.7652 45.2898 96.241 45.4176 96.6586 45.6733C97.0791 45.9261 97.4086 46.2727 97.6473 46.7131C97.8888 47.1534 98.0095 47.6562 98.0095 48.2216C98.0095 48.7784 97.8845 49.2756 97.6345 49.7131C97.3873 50.1477 97.0464 50.4915 96.6118 50.7443C96.1771 50.9943 95.6828 51.1193 95.1288 51.1193ZM98.2985 43.2102V42.2727H104.844V43.2102H102.1V51H101.043V43.2102H98.2985ZM105.395 51V42.2727H106.452V46.1591H111.105V42.2727H112.162V51H111.105V47.0966H106.452V51H105.395Z" fill="#747474"/>
<path d="M168.972 42.2727V51H167.915V43.3807H167.864L165.733 44.7955V43.7216L167.915 42.2727H168.972ZM173.299 51.1193C172.941 51.1136 172.583 51.0455 172.225 50.9148C171.867 50.7841 171.541 50.5639 171.245 50.2543C170.95 49.9418 170.713 49.5199 170.534 48.9886C170.355 48.4545 170.265 47.7841 170.265 46.9773C170.265 46.2045 170.338 45.5199 170.483 44.9233C170.627 44.3239 170.838 43.8196 171.113 43.4105C171.389 42.9986 171.721 42.6861 172.11 42.473C172.502 42.2599 172.944 42.1534 173.436 42.1534C173.924 42.1534 174.359 42.2514 174.74 42.4474C175.123 42.6406 175.436 42.9105 175.677 43.2571C175.919 43.6037 176.075 44.0028 176.146 44.4545H175.106C175.009 44.0625 174.822 43.7372 174.544 43.4787C174.265 43.2202 173.896 43.0909 173.436 43.0909C172.759 43.0909 172.227 43.3849 171.838 43.973C171.451 44.5611 171.257 45.3864 171.254 46.4489H171.322C171.481 46.2074 171.67 46.0014 171.889 45.831C172.11 45.6577 172.355 45.5241 172.622 45.4304C172.889 45.3366 173.171 45.2898 173.47 45.2898C173.97 45.2898 174.427 45.4148 174.842 45.6648C175.257 45.9119 175.589 46.2543 175.839 46.6918C176.089 47.1264 176.214 47.625 176.214 48.1875C176.214 48.7273 176.093 49.2216 175.852 49.6705C175.61 50.1165 175.271 50.4716 174.833 50.7358C174.399 50.9972 173.887 51.125 173.299 51.1193ZM173.299 50.1818C173.657 50.1818 173.978 50.0923 174.262 49.9134C174.549 49.7344 174.775 49.4943 174.94 49.1932C175.108 48.892 175.191 48.5568 175.191 48.1875C175.191 47.8267 175.11 47.4986 174.948 47.2031C174.789 46.9048 174.569 46.6676 174.288 46.4915C174.009 46.3153 173.691 46.2273 173.333 46.2273C173.063 46.2273 172.812 46.2812 172.579 46.3892C172.346 46.4943 172.142 46.6392 171.965 46.8239C171.792 47.0085 171.656 47.2202 171.556 47.4588C171.457 47.6946 171.407 47.9432 171.407 48.2045C171.407 48.5511 171.488 48.875 171.65 49.1761C171.815 49.4773 172.039 49.7202 172.323 49.9048C172.61 50.0895 172.936 50.1818 173.299 50.1818ZM176.486 43.2102V42.2727H183.031V43.2102H180.287V51H179.23V43.2102H176.486ZM183.582 51V42.2727H184.639V46.1591H189.293V42.2727H190.349V51H189.293V47.0966H184.639V51H183.582Z" fill="#747474"/>
<path d="M66.0742 33.0352C66.6133 32.707 67.0742 32.3633 67.457 32.0039C67.8477 31.6445 68.168 31.2461 68.418 30.8086C68.668 30.3789 68.8516 29.8984 68.9688 29.3672C69.0859 28.8281 69.1445 28.2188 69.1445 27.5391V11.6836H72.8594V26.8711C72.8594 27.6836 72.8242 28.4258 72.7539 29.0977C72.6836 29.7617 72.5664 30.3711 72.4023 30.9258C72.2461 31.4883 72.0312 32.0039 71.7578 32.4727C71.4922 32.9414 71.1602 33.3867 70.7617 33.8086C70.3711 34.2305 69.9062 34.6367 69.3672 35.0273C68.8359 35.418 68.2188 35.8125 67.5156 36.2109L66.0742 33.0352ZM81.7033 11.6836H85.6408L94.5002 30H90.5978L89.133 26.918H78.4338L77.0158 30H73.1017L81.7033 11.6836ZM87.6681 23.8594L83.7072 15.5391L79.8517 23.8594H87.6681ZM95.1644 11.6836H98.8792L110.293 17.6602V11.6836H114.008V30H110.293V21.5977L98.8792 15.6562V30H95.1644V11.6836ZM116.336 11.6836H120.051V21.7734C120.051 22.6016 120.165 23.3398 120.391 23.9883C120.618 24.6289 120.954 25.1719 121.399 25.6172C121.852 26.0625 122.411 26.4023 123.075 26.6367C123.739 26.8633 124.512 26.9766 125.395 26.9766C126.27 26.9766 127.04 26.8633 127.704 26.6367C128.375 26.4023 128.934 26.0625 129.379 25.6172C129.833 25.1719 130.172 24.6289 130.399 23.9883C130.625 23.3398 130.739 22.6016 130.739 21.7734V11.6836H134.454V22.2188C134.454 23.4219 134.25 24.5156 133.844 25.5C133.438 26.4844 132.848 27.3281 132.075 28.0312C131.301 28.7344 130.352 29.2773 129.227 29.6602C128.11 30.043 126.833 30.2344 125.395 30.2344C123.958 30.2344 122.676 30.043 121.551 29.6602C120.434 29.2773 119.489 28.7344 118.715 28.0312C117.942 27.3281 117.352 26.4844 116.946 25.5C116.54 24.5156 116.336 23.4219 116.336 22.2188V11.6836ZM143.075 11.6836H147.012L155.872 30H151.969L150.505 26.918H139.805L138.387 30H134.473L143.075 11.6836ZM149.04 23.8594L145.079 15.5391L141.223 23.8594H149.04ZM156.559 11.6836H165.876C167.282 11.6836 168.501 11.832 169.532 12.1289C170.563 12.418 171.419 12.8398 172.098 13.3945C172.778 13.9492 173.282 14.625 173.61 15.4219C173.946 16.2188 174.114 17.1211 174.114 18.1289C174.114 18.8086 174.032 19.457 173.868 20.0742C173.704 20.6836 173.45 21.2461 173.106 21.7617C172.77 22.2773 172.345 22.7383 171.829 23.1445C171.313 23.543 170.708 23.875 170.012 24.1406L173.997 30H169.45L166.005 24.7969H165.899L160.274 24.7852V30H156.559V11.6836ZM165.97 21.5742C166.673 21.5742 167.286 21.4922 167.809 21.3281C168.341 21.1641 168.782 20.9336 169.134 20.6367C169.493 20.3398 169.759 19.9805 169.93 19.5586C170.11 19.1289 170.2 18.6523 170.2 18.1289C170.2 17.1055 169.848 16.3164 169.145 15.7617C168.442 15.1992 167.384 14.918 165.97 14.918H160.274V21.5742H165.97ZM181.974 25.4648L173.97 11.6836H178.177L183.813 22.1016L189.38 11.6836H193.587L185.688 25.4414V30H181.974V25.4648Z" fill="white"/>
</svg>
