<svg width="auto" height="auto" viewBox="0 0 588 397" fill="none" xmlns="http://www.w3.org/2000/svg">
<path d="M552.431 294.001H490.57L587 197.57V258.767L552.431 294.001Z" fill="white" stroke="white"/>
<path d="M587 119.684L408.975 294H475.734L587 185.052V119.684Z" fill="black" stroke="white"/>
<path d="M78.8861 1L1 78.8861V125.247L10.2722 134.519V166.044L1 175.316V262.475L32.5253 294H112.266V268.038H236.513V294H386.721L447.918 232.804L427.519 212.405L505.405 134.519L525.804 154.918L585.146 95.576V39.943L546.203 1H342.215L329.234 13.981H149.354L136.373 1H78.8861Z" fill="url(#paint0_linear_319_2)" stroke="white" stroke-width="2"/>
<path d="M1 58.4873V39.943L38.0886 1H58.4873L1 58.4873Z" fill="white" stroke="white"/>
<rect x="448.016" y="207.334" width="17.7498" height="17.7498" transform="rotate(-45 448.016 207.334)" fill="#202020" stroke="white"/>
<rect x="467.904" y="187.449" width="17.7498" height="17.7498" transform="rotate(-45 467.904 187.449)" fill="#202020" stroke="white"/>
<rect x="487.789" y="167.564" width="17.7498" height="17.7498" transform="rotate(-45 487.789 167.564)" fill="#202020" stroke="white"/>
<rect x="120.059" y="275.83" width="17.7943" height="17.7943" fill="black" stroke="white" stroke-width="0.75"/>
<rect x="146.021" y="275.83" width="80.8449" height="17.7943" fill="black" stroke="white" stroke-width="0.75"/>
<mask id="path-10-outside-1_319_2" maskUnits="userSpaceOnUse" x="456.843" y="202.279" width="79.9031" height="79.9031" fill="black">
<rect fill="white" x="456.843" y="202.279" width="79.9031" height="79.9031"/>
<path d="M461.793 266.626L473.46 278.293L471.869 279.884L459.141 267.156L461.793 264.504L480.346 268.225L476.626 249.672L479.161 247.136L491.889 259.864L490.298 261.455L478.805 249.962L482.741 269.012L481.134 270.62L461.793 266.626ZM491.134 250.941C490.156 249.963 489.451 249.049 489.021 248.198C488.59 247.348 488.418 246.502 488.507 245.663C488.595 244.823 488.935 243.958 489.526 243.069C490.112 242.174 490.935 241.196 491.995 240.136C493.056 239.075 494.034 238.252 494.929 237.666C495.818 237.075 496.683 236.735 497.522 236.647C498.362 236.559 499.207 236.73 500.058 237.161C500.909 237.592 501.823 238.296 502.801 239.274C503.779 240.252 504.486 241.169 504.922 242.025C505.359 242.881 505.535 243.732 505.452 244.577C505.37 245.422 505.038 246.295 504.458 247.196C503.873 248.091 503.049 249.068 501.989 250.129C500.928 251.19 499.95 252.013 499.055 252.598C498.155 253.178 497.282 253.51 496.437 253.593C495.592 253.676 494.741 253.499 493.885 253.062C493.028 252.626 492.111 251.919 491.134 250.941ZM492.725 249.35C493.255 249.88 493.735 250.322 494.166 250.676C494.597 251.029 495.006 251.295 495.393 251.471C495.785 251.643 496.166 251.72 496.536 251.703C496.906 251.687 497.301 251.574 497.721 251.364C498.141 251.154 498.594 250.844 499.08 250.436C499.572 250.021 500.127 249.505 500.746 248.886C501.276 248.356 501.737 247.872 502.13 247.436C502.522 246.988 502.828 246.566 503.049 246.168C503.276 245.765 503.42 245.373 503.48 244.991C503.536 244.605 503.489 244.204 503.339 243.79C503.196 243.37 502.95 242.925 502.602 242.456C502.254 241.975 501.79 241.445 501.21 240.865C500.641 240.296 500.124 239.846 499.66 239.514C499.196 239.172 498.76 238.934 498.351 238.802C497.948 238.663 497.558 238.627 497.183 238.694C496.801 238.755 496.415 238.904 496.023 239.141C495.63 239.368 495.213 239.68 494.771 240.078C494.335 240.47 493.851 240.931 493.321 241.461C492.791 241.992 492.327 242.478 491.929 242.92C491.537 243.356 491.225 243.773 490.993 244.171C490.761 244.558 490.614 244.942 490.553 245.323C490.487 245.699 490.52 246.091 490.653 246.5C490.791 246.903 491.029 247.339 491.366 247.809C491.703 248.267 492.156 248.781 492.725 249.35ZM512.975 225.901C512.577 225.503 512.218 225.205 511.898 225.006C511.577 224.796 511.232 224.722 510.862 224.783C510.486 224.838 510.055 225.048 509.569 225.412C509.083 225.766 508.475 226.307 507.746 227.036C507.034 227.749 506.517 228.393 506.197 228.967C505.871 229.536 505.694 230.061 505.666 230.542C505.639 231.022 505.735 231.467 505.956 231.876C506.183 232.279 506.489 232.674 506.876 233.061L512.784 238.969L511.193 240.56L501.647 231.014L503.238 229.423L504.755 230.939C504.639 230.713 504.553 230.423 504.498 230.069C504.437 229.71 504.47 229.29 504.597 228.81C504.719 228.324 504.959 227.779 505.318 227.177C505.683 226.57 506.227 225.904 506.951 225.18C507.779 224.352 508.528 223.752 509.196 223.382C509.859 223.007 510.478 222.819 511.052 222.819C511.627 222.808 512.174 222.962 512.693 223.283C513.218 223.598 513.754 224.028 514.301 224.575L512.975 225.901ZM529.248 222.87C528.187 223.931 527.215 224.759 526.331 225.356C525.441 225.947 524.585 226.295 523.762 226.4C522.939 226.505 522.121 226.361 521.309 225.969C520.497 225.577 519.635 224.925 518.724 224.014C517.68 222.969 516.923 222.003 516.453 221.113C515.978 220.218 515.771 219.337 515.832 218.47C515.893 217.603 516.213 216.719 516.793 215.818C517.373 214.918 518.194 213.937 519.254 212.877C520.011 212.12 520.721 211.52 521.384 211.079C522.052 210.631 522.688 210.316 523.29 210.134C523.897 209.946 524.472 209.88 525.013 209.935C525.56 209.985 526.068 210.106 526.538 210.3C527.008 210.482 527.488 210.769 527.98 211.161C528.477 211.548 528.971 211.987 529.463 212.479L529.861 213.142L520.448 222.555C521.177 223.284 521.848 223.812 522.461 224.138C523.069 224.458 523.646 224.56 524.193 224.444C524.74 224.328 525.314 224.03 525.917 223.55C526.513 223.063 527.209 222.423 528.005 221.627C528.734 220.898 529.317 220.276 529.753 219.763C530.19 219.238 530.491 218.777 530.656 218.379C530.822 217.981 530.858 217.625 530.764 217.31C530.67 216.984 530.458 216.655 530.126 216.324L531.717 214.733C532.231 215.247 532.579 215.777 532.761 216.324C532.943 216.86 532.941 217.448 532.753 218.089C532.56 218.724 532.173 219.431 531.593 220.21C531.024 220.989 530.242 221.876 529.248 222.87ZM520.58 214.202C520.05 214.733 519.586 215.219 519.188 215.661C518.796 216.097 518.481 216.512 518.243 216.904C518.006 217.285 517.848 217.658 517.771 218.023C517.688 218.382 517.674 218.727 517.73 219.058C517.785 219.379 517.953 219.746 518.235 220.16C518.517 220.564 518.901 221.008 519.387 221.495L527.342 213.54C526.695 212.893 526.121 212.457 525.618 212.23C525.11 211.998 524.588 211.913 524.052 211.973C523.516 212.034 522.969 212.255 522.411 212.636C521.853 213.018 521.243 213.54 520.58 214.202Z"/>
</mask>
<path d="M461.793 266.626L461.995 265.646L458.724 264.971L461.086 267.333L461.793 266.626ZM473.46 278.293L474.167 279L474.875 278.293L474.167 277.586L473.46 278.293ZM471.869 279.884L471.162 280.591L471.869 281.298L472.576 280.591L471.869 279.884ZM459.141 267.156L458.434 266.449L457.727 267.156L458.434 267.863L459.141 267.156ZM461.793 264.504L461.99 263.524L461.465 263.419L461.086 263.797L461.793 264.504ZM480.346 268.225L480.15 269.205L481.622 269.501L481.327 268.028L480.346 268.225ZM476.626 249.672L475.919 248.965L475.54 249.343L475.645 249.868L476.626 249.672ZM479.161 247.136L479.868 246.429L479.161 245.722L478.454 246.429L479.161 247.136ZM491.889 259.864L492.596 260.571L493.303 259.864L492.596 259.157L491.889 259.864ZM490.298 261.455L489.591 262.162L490.298 262.869L491.005 262.162L490.298 261.455ZM478.805 249.962L479.512 249.255L477.15 246.892L477.826 250.164L478.805 249.962ZM482.741 269.012L483.448 269.719L483.83 269.338L483.72 268.81L482.741 269.012ZM481.134 270.62L480.931 271.599L481.459 271.708L481.841 271.327L481.134 270.62ZM461.086 267.333L472.753 279L474.167 277.586L462.5 265.918L461.086 267.333ZM472.753 277.586L471.162 279.177L472.576 280.591L474.167 279L472.753 277.586ZM472.576 279.177L459.848 266.449L458.434 267.863L471.162 280.591L472.576 279.177ZM459.848 267.863L462.5 265.211L461.086 263.797L458.434 266.449L459.848 267.863ZM461.596 265.485L480.15 269.205L480.543 267.244L461.99 263.524L461.596 265.485ZM481.327 268.028L477.606 249.475L475.645 249.868L479.366 268.422L481.327 268.028ZM477.333 250.379L479.868 247.843L478.454 246.429L475.919 248.965L477.333 250.379ZM478.454 247.843L491.182 260.571L492.596 259.157L479.868 246.429L478.454 247.843ZM491.182 259.157L489.591 260.748L491.005 262.162L492.596 260.571L491.182 259.157ZM491.005 260.748L479.512 249.255L478.098 250.669L489.591 262.162L491.005 260.748ZM477.826 250.164L481.762 269.214L483.72 268.81L479.784 249.759L477.826 250.164ZM482.034 268.305L480.426 269.913L481.841 271.327L483.448 269.719L482.034 268.305ZM481.336 269.64L461.995 265.646L461.591 267.605L480.931 271.599L481.336 269.64ZM489.526 243.069L490.359 243.623L490.363 243.617L489.526 243.069ZM494.929 237.666L495.476 238.503L495.482 238.499L494.929 237.666ZM504.458 247.196L505.295 247.743L505.299 247.737L504.458 247.196ZM499.055 252.598L499.597 253.439L499.603 253.435L499.055 252.598ZM495.393 251.471L494.977 252.381L494.985 252.384L494.993 252.388L495.393 251.471ZM499.08 250.436L499.724 251.201L499.725 251.2L499.08 250.436ZM502.13 247.436L502.873 248.104L502.882 248.095L502.13 247.436ZM503.049 246.168L502.177 245.678L502.175 245.682L503.049 246.168ZM503.48 244.991L504.468 245.149L504.469 245.141L504.47 245.133L503.48 244.991ZM503.339 243.79L502.393 244.114L502.396 244.121L502.399 244.129L503.339 243.79ZM502.602 242.456L501.792 243.042L501.799 243.051L502.602 242.456ZM499.66 239.514L499.066 240.319L499.073 240.323L499.079 240.328L499.66 239.514ZM498.351 238.802L498.027 239.748L498.035 239.75L498.042 239.753L498.351 238.802ZM497.183 238.694L497.34 239.681L497.348 239.68L497.356 239.679L497.183 238.694ZM496.023 239.141L496.523 240.007L496.532 240.002L496.541 239.997L496.023 239.141ZM494.771 240.078L495.44 240.821L495.44 240.821L494.771 240.078ZM491.929 242.92L491.186 242.251L491.185 242.251L491.929 242.92ZM490.993 244.171L491.85 244.686L491.856 244.675L490.993 244.171ZM490.553 245.323L491.538 245.497L491.54 245.489L491.541 245.48L490.553 245.323ZM490.653 246.5L489.702 246.808L489.704 246.816L489.707 246.824L490.653 246.5ZM491.366 247.809L490.553 248.392L490.56 248.401L491.366 247.809ZM491.841 250.234C490.907 249.3 490.279 248.471 489.913 247.746L488.128 248.65C488.623 249.627 489.404 250.626 490.426 251.648L491.841 250.234ZM489.913 247.746C489.557 247.045 489.436 246.391 489.501 245.767L487.512 245.558C487.401 246.613 487.622 247.651 488.128 248.65L489.913 247.746ZM489.501 245.767C489.569 245.125 489.834 244.412 490.359 243.623L488.693 242.515C488.036 243.505 487.621 244.521 487.512 245.558L489.501 245.767ZM490.363 243.617C490.899 242.797 491.673 241.873 492.702 240.843L491.288 239.429C490.197 240.52 489.324 241.551 488.689 242.521L490.363 243.617ZM492.702 240.843C493.732 239.813 494.657 239.039 495.476 238.503L494.381 236.829C493.411 237.464 492.38 238.337 491.288 239.429L492.702 240.843ZM495.482 238.499C496.272 237.974 496.985 237.709 497.627 237.642L497.418 235.653C496.381 235.762 495.364 236.176 494.375 236.833L495.482 238.499ZM497.627 237.642C498.251 237.576 498.904 237.697 499.606 238.053L500.51 236.269C499.51 235.762 498.473 235.541 497.418 235.653L497.627 237.642ZM499.606 238.053C500.331 238.42 501.16 239.047 502.094 239.981L503.508 238.567C502.486 237.545 501.487 236.764 500.51 236.269L499.606 238.053ZM502.094 239.981C503.027 240.914 503.658 241.747 504.031 242.479L505.813 241.571C505.313 240.59 504.53 239.589 503.508 238.567L502.094 239.981ZM504.031 242.479C504.393 243.188 504.519 243.849 504.457 244.48L506.448 244.675C506.552 243.615 506.324 242.574 505.813 241.571L504.031 242.479ZM504.457 244.48C504.393 245.131 504.133 245.853 503.617 246.654L505.299 247.737C505.943 246.737 506.346 245.714 506.448 244.675L504.457 244.48ZM503.621 246.648C503.085 247.468 502.311 248.392 501.282 249.422L502.696 250.836C503.787 249.745 504.66 248.713 505.295 247.743L503.621 246.648ZM501.282 249.422C500.252 250.452 499.327 251.225 498.508 251.762L499.603 253.435C500.573 252.8 501.604 251.928 502.696 250.836L501.282 249.422ZM498.514 251.758C497.713 252.274 496.99 252.534 496.339 252.598L496.534 254.588C497.574 254.486 498.597 254.083 499.597 253.439L498.514 251.758ZM496.339 252.598C495.708 252.659 495.048 252.533 494.339 252.171L493.431 253.953C494.434 254.465 495.475 254.692 496.534 254.588L496.339 252.598ZM494.339 252.171C493.607 251.799 492.774 251.167 491.841 250.234L490.426 251.648C491.449 252.671 492.45 253.453 493.431 253.953L494.339 252.171ZM492.017 250.057C492.564 250.603 493.069 251.069 493.532 251.449L494.801 249.903C494.402 249.576 493.946 249.157 493.432 248.643L492.017 250.057ZM493.532 251.449C494.01 251.841 494.492 252.159 494.977 252.381L495.809 250.562C495.52 250.43 495.184 250.218 494.801 249.903L493.532 251.449ZM494.993 252.388C495.503 252.611 496.036 252.727 496.581 252.702L496.492 250.704C496.296 250.713 496.067 250.675 495.793 250.555L494.993 252.388ZM496.581 252.702C497.123 252.678 497.656 252.515 498.168 252.258L497.274 250.469C496.947 250.633 496.69 250.696 496.492 250.704L496.581 252.702ZM498.168 252.258C498.678 252.003 499.197 251.644 499.724 251.201L498.437 249.67C497.991 250.045 497.604 250.304 497.274 250.469L498.168 252.258ZM499.725 251.2C500.244 250.763 500.821 250.225 501.453 249.593L500.039 248.179C499.433 248.784 498.9 249.28 498.436 249.671L499.725 251.2ZM501.453 249.593C501.993 249.054 502.467 248.557 502.873 248.104L501.386 246.767C501.008 247.188 500.56 247.658 500.039 248.179L501.453 249.593ZM502.882 248.095C503.307 247.61 503.659 247.129 503.924 246.654L502.175 245.682C501.997 246.003 501.736 246.367 501.378 246.777L502.882 248.095ZM503.921 246.658C504.194 246.171 504.385 245.667 504.468 245.149L502.493 244.834C502.454 245.078 502.357 245.358 502.178 245.678L503.921 246.658ZM504.47 245.133C504.551 244.565 504.478 243.999 504.28 243.451L502.399 244.129C502.5 244.409 502.52 244.645 502.49 244.85L504.47 245.133ZM504.286 243.466C504.1 242.924 503.796 242.388 503.405 241.86L501.799 243.051C502.104 243.463 502.292 243.816 502.393 244.114L504.286 243.466ZM503.412 241.869C503.024 241.333 502.521 240.762 501.917 240.158L500.503 241.572C501.058 242.128 501.484 242.617 501.792 243.042L503.412 241.869ZM501.917 240.158C501.323 239.564 500.764 239.074 500.241 238.7L499.079 240.328C499.484 240.617 499.958 241.027 500.503 241.572L501.917 240.158ZM500.254 238.71C499.731 238.324 499.199 238.025 498.66 237.85L498.042 239.753C498.321 239.843 498.661 240.02 499.066 240.319L500.254 238.71ZM498.675 237.855C498.131 237.669 497.57 237.61 497.009 237.709L497.356 239.679C497.547 239.645 497.765 239.658 498.027 239.748L498.675 237.855ZM497.025 237.706C496.495 237.791 495.987 237.994 495.504 238.286L496.541 239.997C496.843 239.814 497.108 239.718 497.34 239.681L497.025 237.706ZM495.522 238.275C495.054 238.546 494.581 238.903 494.102 239.334L495.44 240.821C495.845 240.456 496.206 240.19 496.523 240.007L495.522 238.275ZM494.103 239.334C493.65 239.741 493.154 240.215 492.614 240.754L494.028 242.169C494.549 241.648 495.02 241.199 495.44 240.821L494.103 239.334ZM492.614 240.754C492.074 241.294 491.598 241.793 491.186 242.251L492.672 243.589C493.056 243.163 493.507 242.69 494.028 242.169L492.614 240.754ZM491.185 242.251C490.759 242.725 490.403 243.197 490.129 243.667L491.856 244.675C492.046 244.349 492.314 243.987 492.673 243.588L491.185 242.251ZM490.135 243.657C489.848 244.135 489.65 244.639 489.566 245.165L491.541 245.48C491.579 245.245 491.673 244.981 491.85 244.686L490.135 243.657ZM489.569 245.149C489.471 245.705 489.525 246.264 489.702 246.808L491.604 246.191C491.516 245.918 491.504 245.692 491.538 245.497L489.569 245.149ZM489.707 246.824C489.886 247.345 490.178 247.869 490.553 248.392L492.178 247.226C491.879 246.809 491.696 246.46 491.599 246.176L489.707 246.824ZM490.56 248.401C490.936 248.913 491.426 249.466 492.017 250.057L493.432 248.643C492.885 248.096 492.469 247.622 492.171 247.217L490.56 248.401ZM512.975 225.901L512.268 226.608L512.975 227.315L513.682 226.608L512.975 225.901ZM511.898 225.006L511.35 225.843L511.36 225.849L511.37 225.856L511.898 225.006ZM510.862 224.783L511.007 225.772L511.016 225.771L511.024 225.769L510.862 224.783ZM509.569 225.412L510.157 226.221L510.163 226.217L510.169 226.212L509.569 225.412ZM506.197 228.967L507.064 229.464L507.07 229.454L506.197 228.967ZM505.956 231.876L505.077 232.351L505.08 232.358L505.084 232.365L505.956 231.876ZM512.784 238.969L513.491 239.676L514.198 238.969L513.491 238.262L512.784 238.969ZM511.193 240.56L510.486 241.267L511.193 241.974L511.9 241.267L511.193 240.56ZM501.647 231.014L500.94 230.307L500.233 231.014L500.94 231.721L501.647 231.014ZM503.238 229.423L503.945 228.716L503.238 228.009L502.531 228.716L503.238 229.423ZM504.755 230.939L504.048 231.646L505.645 230.483L504.755 230.939ZM504.498 230.069L505.486 229.915L505.484 229.902L504.498 230.069ZM504.597 228.81L505.564 229.065L505.567 229.052L504.597 228.81ZM505.318 227.177L504.461 226.663L504.459 226.665L505.318 227.177ZM509.196 223.382L509.681 224.257L509.689 224.252L509.196 223.382ZM511.052 222.819V223.819H511.062L511.072 223.818L511.052 222.819ZM512.693 223.283L512.168 224.134L512.179 224.14L512.693 223.283ZM514.301 224.575L515.008 225.283L515.715 224.575L515.008 223.868L514.301 224.575ZM513.682 225.194C513.254 224.766 512.834 224.411 512.425 224.157L511.37 225.856C511.602 226 511.901 226.241 512.268 226.608L513.682 225.194ZM512.446 224.17C511.921 223.826 511.323 223.693 510.7 223.796L511.024 225.769C511.141 225.75 511.234 225.767 511.35 225.843L512.446 224.17ZM510.716 223.793C510.105 223.883 509.517 224.202 508.969 224.612L510.169 226.212C510.594 225.894 510.867 225.793 511.007 225.772L510.716 223.793ZM508.981 224.604C508.433 225.002 507.783 225.585 507.039 226.329L508.453 227.744C509.168 227.029 509.733 226.53 510.157 226.221L508.981 224.604ZM507.039 226.329C506.292 227.077 505.706 227.794 505.323 228.48L507.07 229.454C507.328 228.991 507.775 228.422 508.453 227.744L507.039 226.329ZM505.329 228.47C504.952 229.127 504.707 229.803 504.668 230.484L506.665 230.599C506.681 230.319 506.789 229.945 507.064 229.464L505.329 228.47ZM504.668 230.484C504.63 231.143 504.764 231.773 505.077 232.351L506.836 231.4C506.706 231.161 506.647 230.901 506.665 230.599L504.668 230.484ZM505.084 232.365C505.363 232.861 505.729 233.328 506.169 233.768L507.583 232.354C507.25 232.02 507.003 231.697 506.828 231.386L505.084 232.365ZM506.169 233.768L512.077 239.676L513.491 238.262L507.583 232.354L506.169 233.768ZM512.077 238.262L510.486 239.853L511.9 241.267L513.491 239.676L512.077 238.262ZM511.9 239.853L502.354 230.307L500.94 231.721L510.486 241.267L511.9 239.853ZM502.354 231.721L503.945 230.13L502.531 228.716L500.94 230.307L502.354 231.721ZM502.531 230.13L504.048 231.646L505.462 230.232L503.945 228.716L502.531 230.13ZM505.645 230.483C505.593 230.381 505.531 230.203 505.486 229.915L503.51 230.224C503.575 230.643 503.685 231.044 503.865 231.395L505.645 230.483ZM505.484 229.902C505.454 229.725 505.461 229.456 505.564 229.065L503.631 228.554C503.48 229.125 503.42 229.695 503.512 230.236L505.484 229.902ZM505.567 229.052C505.658 228.69 505.85 228.238 506.177 227.69L504.459 226.665C504.069 227.321 503.78 227.957 503.627 228.567L505.567 229.052ZM506.176 227.692C506.484 227.178 506.969 226.576 507.658 225.887L506.244 224.473C505.485 225.232 504.881 225.962 504.461 226.663L506.176 227.692ZM507.658 225.887C508.452 225.094 509.125 224.565 509.681 224.257L508.712 222.507C507.93 222.94 507.107 223.61 506.244 224.473L507.658 225.887ZM509.689 224.252C510.249 223.935 510.698 223.819 511.052 223.819L511.052 221.819C510.258 221.819 509.469 222.078 508.703 222.512L509.689 224.252ZM511.072 223.818C511.442 223.811 511.802 223.908 512.168 224.134L513.218 222.432C512.546 222.017 511.812 221.804 511.033 221.819L511.072 223.818ZM512.179 224.14C512.618 224.404 513.09 224.779 513.594 225.283L515.008 223.868C514.417 223.278 513.818 222.792 513.208 222.425L512.179 224.14ZM513.594 223.868L512.268 225.194L513.682 226.608L515.008 225.283L513.594 223.868ZM526.331 225.356L526.884 226.189L526.89 226.185L526.331 225.356ZM516.453 221.113L517.338 220.646L517.337 220.644L516.453 221.113ZM521.384 211.079L521.939 211.911L521.94 211.909L521.384 211.079ZM523.29 210.134L523.58 211.091L523.585 211.089L523.29 210.134ZM525.013 209.935L524.912 210.93L524.923 210.931L525.013 209.935ZM526.538 210.3L526.157 211.224L526.167 211.228L526.176 211.232L526.538 210.3ZM527.98 211.161L527.356 211.943L527.366 211.951L527.98 211.161ZM529.463 212.479L530.321 211.964L530.257 211.859L530.17 211.772L529.463 212.479ZM529.861 213.142L530.568 213.849L531.12 213.297L530.718 212.627L529.861 213.142ZM520.448 222.555L519.74 221.848L519.033 222.555L519.74 223.262L520.448 222.555ZM522.461 224.138L521.992 225.021L521.995 225.022L522.461 224.138ZM525.917 223.55L526.54 224.331L526.548 224.325L525.917 223.55ZM529.753 219.763L530.515 220.41L530.522 220.402L529.753 219.763ZM530.764 217.31L529.803 217.587L529.806 217.596L530.764 217.31ZM530.126 216.324L529.419 215.617L528.712 216.324L529.419 217.031L530.126 216.324ZM531.717 214.733L532.424 214.026L531.717 213.319L531.01 214.026L531.717 214.733ZM532.761 216.324L531.812 216.64L531.814 216.646L532.761 216.324ZM532.753 218.089L533.71 218.38L533.712 218.37L532.753 218.089ZM531.593 220.21L530.791 219.613L530.785 219.62L531.593 220.21ZM519.188 215.661L518.445 214.992L518.444 214.992L519.188 215.661ZM518.243 216.904L519.092 217.433L519.099 217.422L518.243 216.904ZM517.771 218.023L518.745 218.247L518.747 218.239L518.749 218.23L517.771 218.023ZM517.73 219.058L516.743 219.223L516.744 219.228L517.73 219.058ZM518.235 220.16L517.408 220.723L517.415 220.733L518.235 220.16ZM519.387 221.495L518.68 222.202L519.387 222.909L520.094 222.202L519.387 221.495ZM527.342 213.54L528.049 214.247L528.756 213.54L528.049 212.832L527.342 213.54ZM525.618 212.23L525.203 213.14L525.207 213.142L525.618 212.23ZM528.541 222.163C527.508 223.195 526.586 223.977 525.771 224.527L526.89 226.185C527.844 225.541 528.866 224.666 529.955 223.577L528.541 222.163ZM525.777 224.523C524.981 225.053 524.269 225.327 523.636 225.408L523.889 227.392C524.902 227.263 525.902 226.841 526.884 226.189L525.777 224.523ZM523.636 225.408C523.021 225.486 522.398 225.384 521.744 225.069L520.874 226.87C521.845 227.338 522.857 227.524 523.889 227.392L523.636 225.408ZM521.744 225.069C521.066 224.741 520.294 224.17 519.431 223.306L518.017 224.721C518.976 225.68 519.928 226.413 520.874 226.87L521.744 225.069ZM519.431 223.306C518.428 222.303 517.744 221.416 517.338 220.646L515.569 221.58C516.102 222.589 516.932 223.636 518.017 224.721L519.431 223.306ZM517.337 220.644C516.935 219.887 516.784 219.191 516.83 218.54L514.834 218.4C514.759 219.483 515.022 220.55 515.57 221.582L517.337 220.644ZM516.83 218.54C516.876 217.875 517.124 217.151 517.634 216.36L515.953 215.277C515.302 216.286 514.909 217.33 514.834 218.4L516.83 218.54ZM517.634 216.36C518.164 215.538 518.933 214.612 519.961 213.584L518.547 212.17C517.455 213.262 516.583 214.298 515.953 215.277L517.634 216.36ZM519.961 213.584C520.686 212.859 521.345 212.306 521.939 211.911L520.829 210.246C520.097 210.735 519.336 211.381 518.547 212.17L519.961 213.584ZM521.94 211.909C522.548 211.503 523.094 211.238 523.58 211.091L523 209.177C522.281 209.394 521.557 209.76 520.828 210.248L521.94 211.909ZM523.585 211.089C524.086 210.934 524.525 210.89 524.912 210.93L525.115 208.94C524.419 208.869 523.709 208.958 522.994 209.178L523.585 211.089ZM524.923 210.931C525.378 210.972 525.788 211.072 526.157 211.224L526.919 209.375C526.349 209.14 525.742 208.997 525.104 208.939L524.923 210.931ZM526.176 211.232C526.531 211.37 526.925 211.599 527.356 211.943L528.604 210.38C528.052 209.939 527.484 209.594 526.9 209.367L526.176 211.232ZM527.366 211.951C527.827 212.31 528.291 212.721 528.756 213.186L530.17 211.772C529.652 211.254 529.127 210.787 528.594 210.372L527.366 211.951ZM528.606 212.993L529.003 213.656L530.718 212.627L530.321 211.964L528.606 212.993ZM529.154 212.435L519.74 221.848L521.155 223.262L530.568 213.849L529.154 212.435ZM519.74 223.262C520.509 224.031 521.26 224.632 521.992 225.021L522.93 223.255C522.436 222.992 521.844 222.538 521.155 221.848L519.74 223.262ZM521.995 225.022C522.76 225.426 523.576 225.598 524.4 225.423L523.985 223.466C523.716 223.523 523.377 223.49 522.928 223.253L521.995 225.022ZM524.4 225.423C525.146 225.265 525.86 224.874 526.54 224.331L525.293 222.768C524.769 223.186 524.334 223.392 523.985 223.466L524.4 225.423ZM526.548 224.325C527.18 223.81 527.902 223.144 528.712 222.334L527.298 220.92C526.516 221.701 525.846 222.317 525.285 222.774L526.548 224.325ZM528.712 222.334C529.451 221.595 530.055 220.952 530.515 220.41L528.991 219.115C528.579 219.601 528.017 220.201 527.298 220.92L528.712 222.334ZM530.522 220.402C530.99 219.84 531.36 219.291 531.579 218.763L529.733 217.994C529.622 218.262 529.39 218.636 528.984 219.123L530.522 220.402ZM531.579 218.763C531.806 218.22 531.9 217.62 531.722 217.024L529.806 217.596C529.816 217.629 529.838 217.742 529.733 217.994L531.579 218.763ZM531.725 217.033C531.57 216.494 531.241 216.024 530.833 215.617L529.419 217.031C529.674 217.286 529.771 217.474 529.803 217.587L531.725 217.033ZM530.833 217.031L532.424 215.44L531.01 214.026L529.419 215.617L530.833 217.031ZM531.01 215.44C531.442 215.872 531.69 216.274 531.812 216.64L533.71 216.008C533.467 215.28 533.02 214.621 532.424 214.026L531.01 215.44ZM531.814 216.646C531.919 216.954 531.934 217.328 531.793 217.808L533.712 218.37C533.948 217.568 533.968 216.766 533.708 216.002L531.814 216.646ZM531.796 217.798C531.648 218.284 531.331 218.888 530.791 219.613L532.395 220.807C533.015 219.975 533.471 219.164 533.71 218.38L531.796 217.798ZM530.785 219.62C530.257 220.343 529.513 221.19 528.541 222.163L529.955 223.577C530.971 222.561 531.791 221.635 532.4 220.8L530.785 219.62ZM519.873 213.495C519.333 214.035 518.857 214.534 518.445 214.992L519.931 216.33C520.315 215.904 520.766 215.431 521.287 214.91L519.873 213.495ZM518.444 214.992C518.021 215.463 517.665 215.928 517.388 216.386L519.099 217.422C519.296 217.096 519.57 216.731 519.932 216.329L518.444 214.992ZM517.395 216.375C517.108 216.835 516.899 217.316 516.793 217.815L518.749 218.23C518.798 218 518.904 217.735 519.092 217.433L517.395 216.375ZM516.797 217.798C516.687 218.272 516.664 218.75 516.743 219.223L518.716 218.894C518.684 218.704 518.689 218.491 518.745 218.247L516.797 217.798ZM516.744 219.228C516.833 219.745 517.085 220.248 517.408 220.723L519.062 219.598C518.821 219.244 518.737 219.013 518.715 218.888L516.744 219.228ZM517.415 220.733C517.741 221.199 518.167 221.689 518.68 222.202L520.094 220.787C519.634 220.328 519.293 219.928 519.055 219.588L517.415 220.733ZM520.094 222.202L528.049 214.247L526.635 212.832L518.68 220.787L520.094 222.202ZM528.049 212.832C527.366 212.149 526.691 211.617 526.029 211.319L525.207 213.142C525.551 213.297 526.025 213.637 526.635 214.247L528.049 212.832ZM526.034 211.321C525.366 211.016 524.662 210.898 523.939 210.98L524.165 212.967C524.514 212.928 524.854 212.981 525.203 213.14L526.034 211.321ZM523.939 210.98C523.206 211.063 522.506 211.36 521.847 211.811L522.976 213.462C523.432 213.15 523.827 213.005 524.165 212.967L523.939 210.98ZM521.847 211.811C521.223 212.237 520.564 212.804 519.873 213.495L521.287 214.91C521.922 214.275 522.484 213.798 522.976 213.462L521.847 211.811Z" fill="white" mask="url(#path-10-outside-1_319_2)"/>
<path d="M571.883 169.984L544.577 197.29L547.473 191.912L564.476 174.909L550.39 179.893L553.955 176.328L571.883 169.984Z" stroke="white" stroke-width="0.75"/>
<path d="M572.711 170.808L545.405 198.114L550.784 195.218L567.786 178.215L562.802 192.302L566.367 188.736L572.711 170.808Z" stroke="white" stroke-width="0.75"/>
<g filter="url(#filter0_d_319_2)">
<path d="M538.785 82.5953V12.127H351.487L342.215 21.3991V279.165L538.785 82.5953Z" fill="white"/>
<path d="M538.785 82.5953V12.127H351.487L342.215 21.3991V279.165L538.785 82.5953Z" stroke="white" stroke-width="0.75"/>
</g>
<g filter="url(#filter1_d_319_2)">
<path d="M510.968 127.101L549.911 86.3034V17.6895L575.873 43.6515V91.8667L525.804 141.936L510.968 127.101Z" fill="white"/>
<path d="M510.968 127.101L549.911 86.3034V17.6895L575.873 43.6515V91.8667L525.804 141.936L510.968 127.101Z" stroke="white" stroke-width="0.75"/>
</g>
<path d="M433.082 234.658L418.247 219.822L357.051 282.873H384.867L433.082 234.658Z" fill="white" stroke="white" stroke-width="0.75"/>
<g filter="url(#filter2_d_319_2)">
<path d="M54.4845 56.6321L78.2981 34.3789H180.88H318.266L323.761 39.9422L331.089 47.3599V145.645V242.868L323.761 249.493L315.815 256.911H45.3254L37.9982 249.493L30.6709 240.221L30.6709 145.645V80.7397L54.4845 56.6321Z" fill="white" fill-opacity="0.11" shape-rendering="crispEdges"/>
<path d="M54.4845 56.6321L78.2981 34.3789H180.88H318.266L323.761 39.9422L331.089 47.3599V145.645V242.868L323.761 249.493L315.815 256.911H45.3254L37.9982 249.493L30.6709 240.221L30.6709 145.645V80.7397L54.4845 56.6321Z" stroke="white" stroke-width="0.24" shape-rendering="crispEdges"/>
</g>
<mask id="path-18-outside-2_319_2" maskUnits="userSpaceOnUse" x="65.0507" y="160.52" width="225" height="50" fill="black">
<rect fill="white" x="65.0507" y="160.52" width="225" height="50"/>
<path d="M118.426 162.52V167.207H95.9257V207.52H90.3007V167.207H67.8007V162.52H118.426ZM136.613 208.164C132.863 208.164 129.68 207.91 127.062 207.402C124.445 206.875 122.316 205.977 120.676 204.707C119.035 203.438 117.844 201.738 117.101 199.609C116.359 197.48 115.988 194.805 115.988 191.582C115.988 187.891 116.359 184.844 117.101 182.441C117.844 180.02 119.035 178.096 120.676 176.67C122.316 175.244 124.445 174.248 127.062 173.682C129.68 173.115 132.863 172.832 136.613 172.832C139.289 172.832 141.603 173.027 143.557 173.418C145.529 173.809 147.209 174.375 148.596 175.117C150.002 175.859 151.135 176.758 151.994 177.812C152.873 178.867 153.557 179.98 154.045 181.152C154.553 182.305 154.894 183.662 155.07 185.225C155.266 186.787 155.363 188.438 155.363 190.176L154.894 192.051H121.613C121.613 194.629 121.867 196.748 122.375 198.408C122.883 200.049 123.723 201.25 124.894 202.012C126.066 202.773 127.609 203.262 129.523 203.477C131.437 203.672 133.801 203.77 136.613 203.77C139.191 203.77 141.32 203.701 143 203.564C144.699 203.408 146.047 203.125 147.043 202.715C148.039 202.305 148.732 201.738 149.123 201.016C149.533 200.273 149.738 199.316 149.738 198.145H155.363C155.363 199.961 155.041 201.514 154.396 202.803C153.771 204.072 152.726 205.107 151.262 205.908C149.797 206.689 147.863 207.256 145.461 207.607C143.078 207.979 140.129 208.164 136.613 208.164ZM136.613 177.52C134.738 177.52 133.058 177.559 131.574 177.637C130.109 177.715 128.82 177.891 127.707 178.164C126.613 178.418 125.676 178.799 124.894 179.307C124.113 179.795 123.478 180.381 122.99 181.064C122.521 181.729 122.17 182.676 121.935 183.906C121.721 185.117 121.613 186.582 121.613 188.301H149.738C149.738 186.016 149.494 184.229 149.006 182.939C148.517 181.631 147.746 180.557 146.691 179.717C145.637 178.877 144.279 178.301 142.619 177.988C140.959 177.676 138.957 177.52 136.613 177.52ZM202.467 202.891C202.408 203.125 201.969 203.711 201.148 204.648C200.562 205.352 199.781 205.977 198.805 206.523C197.828 207.051 196.519 207.461 194.879 207.754C193.258 208.066 191.119 208.223 188.463 208.223C184.928 208.223 181.91 208.037 179.41 207.666C176.91 207.314 174.869 206.768 173.287 206.025C171.705 205.264 170.543 204.297 169.801 203.125C169.078 201.953 168.717 200.557 168.717 198.936C168.717 197.236 168.912 195.801 169.303 194.629C169.713 193.438 170.299 192.441 171.06 191.641C171.842 190.84 172.779 190.215 173.873 189.766C174.967 189.316 176.207 188.975 177.594 188.74C179 188.506 180.533 188.359 182.193 188.301C183.853 188.242 185.621 188.213 187.496 188.213C190.172 188.213 192.408 188.33 194.205 188.564C196.002 188.779 197.467 189.062 198.599 189.414C199.752 189.746 200.621 190.107 201.207 190.498C201.793 190.889 202.213 191.25 202.467 191.582C202.467 189.395 202.369 187.529 202.174 185.986C201.998 184.443 201.695 183.154 201.266 182.119C200.855 181.084 200.318 180.264 199.654 179.658C198.99 179.033 198.17 178.564 197.193 178.252C196.236 177.939 195.113 177.744 193.824 177.666C192.535 177.568 191.06 177.52 189.4 177.52C186.822 177.52 184.683 177.588 182.984 177.725C181.285 177.842 179.937 178.086 178.941 178.457C177.945 178.828 177.242 179.346 176.832 180.01C176.422 180.654 176.217 181.504 176.217 182.559H170.592C170.592 180.781 170.904 179.277 171.529 178.047C172.174 176.816 173.228 175.82 174.693 175.059C176.178 174.277 178.121 173.711 180.523 173.359C182.926 173.008 185.885 172.832 189.4 172.832C192.838 172.832 195.748 173.115 198.131 173.682C200.514 174.248 202.437 175.244 203.902 176.67C205.387 178.096 206.451 180.02 207.096 182.441C207.76 184.844 208.092 187.891 208.092 191.582V207.52H202.467V202.891ZM189.4 203.77C191.881 203.77 193.951 203.652 195.611 203.418C197.291 203.184 198.639 202.832 199.654 202.363C200.67 201.895 201.392 201.309 201.822 200.605C202.252 199.902 202.467 199.082 202.467 198.145C202.467 197.207 202.213 196.416 201.705 195.771C201.217 195.107 200.387 194.57 199.215 194.16C198.062 193.75 196.529 193.457 194.615 193.281C192.701 193.086 190.338 192.988 187.525 192.988C184.713 192.988 182.437 193.037 180.699 193.135C178.98 193.232 177.652 193.457 176.715 193.809C175.777 194.16 175.142 194.678 174.81 195.361C174.498 196.045 174.342 196.973 174.342 198.145C174.342 199.316 174.508 200.273 174.84 201.016C175.191 201.738 175.894 202.305 176.949 202.715C178.004 203.125 179.517 203.408 181.49 203.564C183.482 203.701 186.119 203.77 189.4 203.77ZM257.246 207.52H251.621V188.477C251.621 186.445 251.484 184.736 251.211 183.35C250.957 181.943 250.42 180.811 249.599 179.951C248.799 179.092 247.656 178.477 246.172 178.105C244.707 177.715 242.773 177.52 240.371 177.52C237.734 177.52 235.566 177.744 233.867 178.193C232.168 178.623 230.83 179.238 229.853 180.039C228.877 180.82 228.193 181.768 227.803 182.881C227.432 183.994 227.246 185.234 227.246 186.602V207.52H221.621V173.77H227.246V179.102C227.266 179.043 227.353 178.848 227.51 178.516C227.666 178.184 227.939 177.793 228.33 177.344C228.74 176.875 229.287 176.377 229.971 175.85C230.674 175.322 231.572 174.834 232.666 174.385C233.779 173.936 235.117 173.564 236.68 173.271C238.242 172.979 240.098 172.832 242.246 172.832C244.355 172.832 246.182 172.969 247.724 173.242C249.287 173.496 250.615 173.887 251.709 174.414C252.822 174.922 253.721 175.566 254.404 176.348C255.107 177.109 255.664 177.988 256.074 178.984C256.406 178.457 256.924 177.842 257.627 177.139C258.33 176.436 259.307 175.762 260.557 175.117C261.826 174.473 263.408 173.936 265.303 173.506C267.197 173.057 269.512 172.832 272.246 172.832C274.492 172.832 276.416 172.988 278.017 173.301C279.639 173.594 281.006 174.043 282.119 174.648C283.232 175.234 284.121 175.967 284.785 176.846C285.469 177.725 285.986 178.75 286.338 179.922C286.709 181.074 286.953 182.373 287.07 183.818C287.187 185.244 287.246 186.797 287.246 188.477V207.52H281.621V188.477C281.621 186.445 281.484 184.736 281.211 183.35C280.957 181.943 280.42 180.811 279.599 179.951C278.799 179.092 277.656 178.477 276.172 178.105C274.707 177.715 272.773 177.52 270.371 177.52C267.734 177.52 265.566 177.744 263.867 178.193C262.168 178.623 260.83 179.238 259.853 180.039C258.877 180.82 258.193 181.768 257.803 182.881C257.432 183.994 257.246 185.234 257.246 186.602V207.52Z"/>
</mask>
<path d="M118.426 162.52H120.426V160.52H118.426V162.52ZM118.426 167.207V169.207H120.426V167.207H118.426ZM95.9257 167.207V165.207H93.9257V167.207H95.9257ZM95.9257 207.52V209.52H97.9257V207.52H95.9257ZM90.3007 207.52H88.3007V209.52H90.3007V207.52ZM90.3007 167.207H92.3007V165.207H90.3007V167.207ZM67.8007 167.207H65.8007V169.207H67.8007V167.207ZM67.8007 162.52V160.52H65.8007V162.52H67.8007ZM116.426 162.52V167.207H120.426V162.52H116.426ZM118.426 165.207H95.9257V169.207H118.426V165.207ZM93.9257 167.207V207.52H97.9257V167.207H93.9257ZM95.9257 205.52H90.3007V209.52H95.9257V205.52ZM92.3007 207.52V167.207H88.3007V207.52H92.3007ZM90.3007 165.207H67.8007V169.207H90.3007V165.207ZM69.8007 167.207V162.52H65.8007V167.207H69.8007ZM67.8007 164.52H118.426V160.52H67.8007V164.52ZM127.062 207.402L126.667 209.363L126.674 209.364L126.681 209.366L127.062 207.402ZM117.101 182.441L119.012 183.032L119.014 183.027L117.101 182.441ZM143.557 173.418L143.164 175.379L143.168 175.38L143.557 173.418ZM148.596 175.117L147.652 176.881L147.662 176.886L148.596 175.117ZM151.994 177.812L150.444 179.076L150.451 179.084L150.458 179.093L151.994 177.812ZM154.045 181.152L152.199 181.922L152.206 181.94L152.215 181.959L154.045 181.152ZM155.07 185.225L153.083 185.448L153.084 185.46L153.086 185.473L155.07 185.225ZM155.363 190.176L157.303 190.661L157.363 190.422V190.176H155.363ZM154.894 192.051V194.051H156.456L156.835 192.536L154.894 192.051ZM121.613 192.051V190.051H119.613V192.051H121.613ZM122.375 198.408L120.462 198.993L120.464 199L122.375 198.408ZM129.523 203.477L129.3 205.464L129.31 205.465L129.32 205.466L129.523 203.477ZM143 203.564L143.162 205.558L143.173 205.557L143.183 205.556L143 203.564ZM149.123 201.016L147.372 200.048L147.368 200.056L147.364 200.065L149.123 201.016ZM149.738 198.145V196.145H147.738V198.145H149.738ZM155.363 198.145H157.363V196.145H155.363V198.145ZM154.396 202.803L152.607 201.908L152.602 201.919L154.396 202.803ZM151.262 205.908L152.203 207.673L152.212 207.668L152.221 207.663L151.262 205.908ZM145.461 207.607L145.171 205.629L145.162 205.63L145.153 205.631L145.461 207.607ZM131.574 177.637L131.469 175.639L131.468 175.64L131.574 177.637ZM127.707 178.164L128.159 180.112L128.172 180.109L128.184 180.106L127.707 178.164ZM124.894 179.307L125.954 181.003L125.969 180.993L125.984 180.984L124.894 179.307ZM122.99 181.064L121.363 179.902L121.356 179.911L122.99 181.064ZM121.935 183.906L119.971 183.532L119.968 183.544L119.966 183.557L121.935 183.906ZM121.613 188.301H119.613V190.301H121.613V188.301ZM149.738 188.301V190.301H151.738V188.301H149.738ZM149.006 182.939L147.132 183.639L147.135 183.648L149.006 182.939ZM142.619 177.988L142.249 179.954L142.619 177.988ZM136.613 206.164C132.944 206.164 129.896 205.915 127.443 205.439L126.681 209.366C129.463 209.905 132.782 210.164 136.613 210.164V206.164ZM127.457 205.442C125.058 204.958 123.237 204.16 121.9 203.125L119.452 206.289C121.395 207.793 123.832 208.792 126.667 209.363L127.457 205.442ZM121.9 203.125C120.592 202.113 119.616 200.747 118.99 198.951L115.213 200.268C116.071 202.729 117.478 204.762 119.452 206.289L121.9 203.125ZM118.99 198.951C118.346 197.103 117.988 194.669 117.988 191.582H113.988C113.988 194.941 114.373 197.858 115.213 200.268L118.99 198.951ZM117.988 191.582C117.988 188.006 118.35 185.176 119.012 183.032L115.191 181.851C114.369 184.511 113.988 187.775 113.988 191.582H117.988ZM119.014 183.027C119.665 180.903 120.674 179.321 121.988 178.18L119.364 175.16C117.396 176.87 116.023 179.136 115.189 181.855L119.014 183.027ZM121.988 178.18C123.322 177.02 125.122 176.148 127.485 175.636L126.639 171.727C123.769 172.348 121.311 173.468 119.364 175.16L121.988 178.18ZM127.485 175.636C129.921 175.109 132.954 174.832 136.613 174.832V170.832C132.773 170.832 129.438 171.121 126.639 171.727L127.485 175.636ZM136.613 174.832C139.199 174.832 141.376 175.021 143.164 175.379L143.949 171.457C141.831 171.033 139.379 170.832 136.613 170.832V174.832ZM143.168 175.38C144.998 175.742 146.48 176.253 147.652 176.881L149.539 173.354C147.938 172.497 146.06 171.875 143.945 171.456L143.168 175.38ZM147.662 176.886C148.87 177.524 149.78 178.261 150.444 179.076L153.544 176.549C152.489 175.254 151.133 174.195 149.529 173.348L147.662 176.886ZM150.458 179.093C151.219 180.006 151.793 180.949 152.199 181.922L155.891 180.383C155.32 179.012 154.527 177.728 153.53 176.532L150.458 179.093ZM152.215 181.959C152.623 182.887 152.924 184.039 153.083 185.448L157.058 185.001C156.865 183.285 156.482 181.723 155.875 180.346L152.215 181.959ZM153.086 185.473C153.27 186.945 153.363 188.512 153.363 190.176H157.363C157.363 188.363 157.261 186.629 157.055 184.977L153.086 185.473ZM153.423 189.691L152.954 191.566L156.835 192.536L157.303 190.661L153.423 189.691ZM154.894 190.051H121.613V194.051H154.894V190.051ZM119.613 192.051C119.613 194.741 119.876 197.076 120.462 198.993L124.287 197.823C123.858 196.421 123.613 194.517 123.613 192.051H119.613ZM120.464 199C121.078 200.981 122.157 202.618 123.804 203.689L125.984 200.335C125.288 199.882 124.688 199.117 124.285 197.817L120.464 199ZM123.804 203.689C125.317 204.672 127.187 205.227 129.3 205.464L129.746 201.489C128.031 201.297 126.816 200.875 125.984 200.335L123.804 203.689ZM129.32 205.466C131.325 205.671 133.761 205.77 136.613 205.77V201.77C133.841 201.77 131.55 201.673 129.726 201.487L129.32 205.466ZM136.613 205.77C139.22 205.77 141.408 205.701 143.162 205.558L142.838 201.571C141.232 201.702 139.162 201.77 136.613 201.77V205.77ZM143.183 205.556C144.979 205.391 146.548 205.081 147.804 204.564L146.281 200.865C145.545 201.169 144.419 201.426 142.817 201.573L143.183 205.556ZM147.804 204.564C149.093 204.034 150.212 203.206 150.882 201.967L147.364 200.065C147.252 200.27 146.985 200.576 146.281 200.865L147.804 204.564ZM150.873 201.983C151.498 200.853 151.738 199.532 151.738 198.145H147.738C147.738 199.101 147.568 199.694 147.372 200.048L150.873 201.983ZM149.738 200.145H155.363V196.145H149.738V200.145ZM153.363 198.145C153.363 199.729 153.082 200.96 152.608 201.908L156.185 203.697C157 202.068 157.363 200.193 157.363 198.145H153.363ZM152.602 201.919C152.19 202.757 151.472 203.514 150.302 204.153L152.221 207.663C153.981 206.701 155.353 205.388 156.191 203.686L152.602 201.919ZM150.32 204.143C149.13 204.779 147.441 205.296 145.171 205.629L145.75 209.586C148.285 209.215 150.464 208.6 152.203 207.673L150.32 204.143ZM145.153 205.631C142.907 205.981 140.068 206.164 136.613 206.164V210.164C140.19 210.164 143.249 209.976 145.769 209.584L145.153 205.631ZM136.613 175.52C134.712 175.52 132.996 175.559 131.469 175.639L131.679 179.634C133.121 179.558 134.765 179.52 136.613 179.52V175.52ZM131.468 175.64C129.911 175.723 128.493 175.912 127.23 176.222L128.184 180.106C129.148 179.87 130.308 179.707 131.681 179.634L131.468 175.64ZM127.255 176.216C125.979 176.512 124.816 176.972 123.804 177.63L125.984 180.984C126.535 180.626 127.247 180.324 128.159 180.112L127.255 176.216ZM123.834 177.611C122.852 178.224 122.017 178.985 121.363 179.902L124.618 182.227C124.939 181.776 125.374 181.365 125.954 181.003L123.834 177.611ZM121.356 179.911C120.658 180.9 120.233 182.158 119.971 183.532L123.9 184.28C124.107 183.194 124.385 182.557 124.624 182.218L121.356 179.911ZM119.966 183.557C119.725 184.918 119.613 186.507 119.613 188.301H123.613C123.613 186.657 123.717 185.316 123.905 184.256L119.966 183.557ZM121.613 190.301H149.738V186.301H121.613V190.301ZM151.738 188.301C151.738 185.911 151.488 183.847 150.876 182.231L147.135 183.648C147.5 184.61 147.738 186.12 147.738 188.301H151.738ZM150.88 182.24C150.269 180.604 149.286 179.227 147.937 178.152L145.445 181.281C146.206 181.887 146.766 182.657 147.132 183.639L150.88 182.24ZM147.937 178.152C146.571 177.064 144.89 176.381 142.989 176.023L142.249 179.954C143.668 180.221 144.702 180.69 145.445 181.281L147.937 178.152ZM142.989 176.023C141.17 175.68 139.037 175.52 136.613 175.52V179.52C138.877 179.52 140.747 179.671 142.249 179.954L142.989 176.023ZM202.467 202.891H204.467L200.526 202.406L202.467 202.891ZM201.148 204.648L199.643 203.331L199.627 203.35L199.612 203.368L201.148 204.648ZM198.805 206.523L199.755 208.283L199.768 208.276L199.782 208.268L198.805 206.523ZM194.879 207.754L194.527 205.785L194.514 205.787L194.5 205.79L194.879 207.754ZM179.41 207.666L179.704 205.688L179.696 205.687L179.689 205.686L179.41 207.666ZM173.287 206.025L172.419 207.827L172.428 207.832L172.438 207.836L173.287 206.025ZM169.801 203.125L168.098 204.175L168.105 204.185L168.111 204.195L169.801 203.125ZM169.303 194.629L167.412 193.978L167.408 193.987L167.405 193.996L169.303 194.629ZM171.06 191.641L169.629 190.244L169.62 190.253L169.611 190.262L171.06 191.641ZM177.594 188.74L177.265 186.767L177.26 186.768L177.594 188.74ZM182.193 188.301L182.123 186.302L182.193 188.301ZM194.205 188.564L193.946 190.548L193.957 190.549L193.968 190.55L194.205 188.564ZM198.599 189.414L198.007 191.324L198.026 191.33L198.046 191.336L198.599 189.414ZM202.467 191.582L200.878 192.797L204.467 197.49V191.582H202.467ZM202.174 185.986L200.187 186.213L200.188 186.225L200.19 186.237L202.174 185.986ZM201.266 182.119L199.406 182.856L199.412 182.871L199.418 182.886L201.266 182.119ZM199.654 179.658L198.283 181.115L198.295 181.125L198.307 181.136L199.654 179.658ZM197.193 178.252L196.572 180.153L196.584 180.157L197.193 178.252ZM193.824 177.666L193.673 179.66L193.688 179.661L193.703 179.662L193.824 177.666ZM182.984 177.725L183.122 179.72L183.133 179.719L183.145 179.718L182.984 177.725ZM176.832 180.01L178.519 181.084L178.526 181.072L178.534 181.061L176.832 180.01ZM176.217 182.559V184.559H178.217V182.559H176.217ZM170.592 182.559H168.592V184.559H170.592V182.559ZM171.529 178.047L169.758 177.119L169.752 177.13L169.746 177.141L171.529 178.047ZM174.693 175.059L175.616 176.833L175.625 176.828L174.693 175.059ZM198.131 173.682L197.668 175.627L198.131 173.682ZM203.902 176.67L202.507 178.103L202.517 178.112L203.902 176.67ZM207.096 182.441L205.163 182.956L205.165 182.965L205.168 182.974L207.096 182.441ZM208.092 207.52V209.52H210.092V207.52H208.092ZM202.467 207.52H200.467V209.52H202.467V207.52ZM195.611 203.418L195.335 201.437L195.332 201.438L195.611 203.418ZM201.705 195.771L200.094 196.956L200.113 196.983L200.134 197.009L201.705 195.771ZM199.215 194.16L198.544 196.044L198.554 196.048L199.215 194.16ZM194.615 193.281L194.412 195.271L194.422 195.272L194.432 195.273L194.615 193.281ZM180.699 193.135L180.587 191.138L180.586 191.138L180.699 193.135ZM174.81 195.361L173.011 194.488L173.001 194.509L172.991 194.53L174.81 195.361ZM174.84 201.016L173.014 201.832L173.027 201.862L173.041 201.891L174.84 201.016ZM181.49 203.564L181.332 205.558L181.343 205.559L181.353 205.56L181.49 203.564ZM200.526 202.406C200.563 202.26 200.608 202.162 200.622 202.134C200.639 202.097 200.649 202.082 200.642 202.094C200.626 202.12 200.582 202.188 200.493 202.306C200.317 202.54 200.04 202.878 199.643 203.331L202.653 205.965C203.077 205.481 203.43 205.057 203.693 204.706C203.824 204.531 203.952 204.349 204.061 204.17C204.146 204.03 204.316 203.738 204.407 203.376L200.526 202.406ZM199.612 203.368C199.213 203.847 198.637 204.325 197.827 204.778L199.782 208.268C200.926 207.628 201.912 206.856 202.685 205.929L199.612 203.368ZM197.854 204.764C197.134 205.153 196.053 205.513 194.527 205.785L195.23 209.723C196.986 209.409 198.522 208.949 199.755 208.283L197.854 204.764ZM194.5 205.79C193.056 206.069 191.059 206.223 188.463 206.223V210.223C191.179 210.223 193.46 210.064 195.257 209.718L194.5 205.79ZM188.463 206.223C184.99 206.223 182.077 206.04 179.704 205.688L179.116 209.644C181.743 210.034 184.865 210.223 188.463 210.223V206.223ZM179.689 205.686C177.306 205.351 175.477 204.844 174.136 204.215L172.438 207.836C174.261 208.692 176.514 209.278 179.132 209.647L179.689 205.686ZM174.155 204.223C172.821 203.581 171.985 202.837 171.49 202.055L168.111 204.195C169.1 205.757 170.589 206.946 172.419 207.827L174.155 204.223ZM171.503 202.075C171.007 201.271 170.717 200.253 170.717 198.936H166.717C166.717 200.861 167.149 202.635 168.098 204.175L171.503 202.075ZM170.717 198.936C170.717 197.377 170.898 196.169 171.2 195.261L167.405 193.996C166.926 195.433 166.717 197.096 166.717 198.936H170.717ZM171.194 195.28C171.523 194.322 171.972 193.585 172.51 193.019L169.611 190.262C168.626 191.298 167.902 192.553 167.412 193.978L171.194 195.28ZM172.492 193.037C173.072 192.443 173.777 191.967 174.633 191.616L173.113 187.916C171.781 188.463 170.611 189.237 169.629 190.244L172.492 193.037ZM174.633 191.616C175.566 191.232 176.66 190.926 177.927 190.712L177.26 186.768C175.754 187.023 174.367 187.401 173.113 187.916L174.633 191.616ZM177.922 190.713C179.231 190.495 180.676 190.356 182.264 190.3L182.123 186.302C180.39 186.363 178.769 186.517 177.265 186.767L177.922 190.713ZM182.264 190.3C183.898 190.242 185.642 190.213 187.496 190.213V186.213C185.6 186.213 183.809 186.243 182.123 186.302L182.264 190.3ZM187.496 190.213C190.122 190.213 192.265 190.328 193.946 190.548L194.464 186.581C192.551 186.332 190.222 186.213 187.496 186.213V190.213ZM193.968 190.55C195.7 190.757 197.033 191.022 198.007 191.324L199.192 187.504C197.9 187.103 196.304 186.801 194.442 186.579L193.968 190.55ZM198.046 191.336C199.119 191.645 199.761 191.938 200.098 192.162L202.316 188.834C201.481 188.277 200.385 187.847 199.153 187.492L198.046 191.336ZM200.098 192.162C200.608 192.502 200.819 192.72 200.878 192.797L204.055 190.367C203.607 189.78 202.978 189.275 202.316 188.834L200.098 192.162ZM204.467 191.582C204.467 189.341 204.367 187.387 204.158 185.735L200.19 186.237C200.371 187.671 200.467 189.448 200.467 191.582H204.467ZM204.161 185.76C203.971 184.097 203.636 182.612 203.113 181.352L199.418 182.886C199.755 183.696 200.024 184.79 200.187 186.213L204.161 185.76ZM203.125 181.382C202.629 180.131 201.938 179.034 201.002 178.18L198.307 181.136C198.699 181.494 199.082 182.037 199.406 182.856L203.125 181.382ZM201.025 178.202C200.118 177.348 199.028 176.739 197.803 176.347L196.584 180.157C197.312 180.39 197.862 180.718 198.283 181.115L201.025 178.202ZM197.814 176.351C196.657 175.973 195.359 175.755 193.945 175.67L193.703 179.662C194.867 179.733 195.815 179.906 196.572 180.153L197.814 176.351ZM193.975 175.672C192.624 175.569 191.097 175.52 189.4 175.52V179.52C191.023 179.52 192.446 179.567 193.673 179.66L193.975 175.672ZM189.4 175.52C186.793 175.52 184.596 175.588 182.824 175.731L183.145 179.718C184.771 179.587 186.852 179.52 189.4 179.52V175.52ZM182.847 175.729C181.056 175.853 179.494 176.117 178.243 176.583L179.64 180.331C180.381 180.055 181.514 179.831 183.122 179.72L182.847 175.729ZM178.243 176.583C176.98 177.054 175.846 177.8 175.13 178.959L178.534 181.061C178.638 180.891 178.911 180.603 179.64 180.331L178.243 176.583ZM175.145 178.936C174.466 180.002 174.217 181.263 174.217 182.559H178.217C178.217 181.745 178.377 181.307 178.519 181.084L175.145 178.936ZM176.217 180.559H170.592V184.559H176.217V180.559ZM172.592 182.559C172.592 181.008 172.865 179.833 173.312 178.953L169.746 177.141C168.943 178.721 168.592 180.554 168.592 182.559H172.592ZM173.301 178.975C173.722 178.171 174.444 177.442 175.616 176.833L173.771 173.284C172.013 174.198 170.625 175.462 169.758 177.119L173.301 178.975ZM175.625 176.828C176.84 176.189 178.543 175.67 180.813 175.338L180.234 171.38C177.699 171.751 175.515 172.366 173.762 173.289L175.625 176.828ZM180.813 175.338C183.087 175.005 185.943 174.832 189.4 174.832V170.832C185.827 170.832 182.764 171.01 180.234 171.38L180.813 175.338ZM189.4 174.832C192.739 174.832 195.484 175.108 197.668 175.627L198.593 171.736C196.012 171.122 192.936 170.832 189.4 170.832V174.832ZM197.668 175.627C199.77 176.127 201.348 176.975 202.507 178.103L205.297 175.237C203.526 173.513 201.258 172.369 198.593 171.736L197.668 175.627ZM202.517 178.112C203.685 179.235 204.592 180.81 205.163 182.956L209.028 181.927C208.31 179.229 207.088 176.957 205.288 175.228L202.517 178.112ZM205.168 182.974C205.767 185.141 206.092 187.993 206.092 191.582H210.092C210.092 187.788 209.752 184.546 209.023 181.909L205.168 182.974ZM206.092 191.582V207.52H210.092V191.582H206.092ZM208.092 205.52H202.467V209.52H208.092V205.52ZM204.467 207.52V202.891H200.467V207.52H204.467ZM189.4 205.77C191.934 205.77 194.106 205.65 195.891 205.398L195.332 201.438C193.797 201.654 191.827 201.77 189.4 201.77V205.77ZM195.888 205.399C197.672 205.15 199.232 204.761 200.492 204.179L198.816 200.547C198.045 200.903 196.909 201.217 195.335 201.437L195.888 205.399ZM200.492 204.179C201.742 203.602 202.831 202.791 203.529 201.648L200.116 199.563C199.954 199.827 199.597 200.187 198.816 200.547L200.492 204.179ZM203.529 201.648C204.176 200.59 204.467 199.398 204.467 198.145H200.467C200.467 198.766 200.328 199.215 200.116 199.563L203.529 201.648ZM204.467 198.145C204.467 196.825 204.101 195.58 203.276 194.534L200.134 197.009C200.325 197.252 200.467 197.589 200.467 198.145H204.467ZM203.316 194.587C202.496 193.472 201.247 192.752 199.875 192.272L198.554 196.048C199.526 196.388 199.937 196.743 200.094 196.956L203.316 194.587ZM199.885 192.276C198.513 191.787 196.795 191.473 194.798 191.29L194.432 195.273C196.263 195.441 197.612 195.713 198.544 196.044L199.885 192.276ZM194.818 191.292C192.814 191.087 190.378 190.988 187.525 190.988V194.988C190.298 194.988 192.588 195.085 194.412 195.271L194.818 191.292ZM187.525 190.988C184.695 190.988 182.378 191.037 180.587 191.138L180.811 195.132C182.497 195.037 184.73 194.988 187.525 194.988V190.988ZM180.586 191.138C178.788 191.24 177.227 191.48 176.012 191.936L177.417 195.681C178.077 195.434 179.173 195.225 180.813 195.132L180.586 191.138ZM176.012 191.936C174.752 192.409 173.631 193.211 173.011 194.488L176.609 196.235C176.654 196.144 176.803 195.912 177.417 195.681L176.012 191.936ZM172.991 194.53C172.512 195.579 172.342 196.83 172.342 198.145H176.342C176.342 197.116 176.484 196.51 176.629 196.193L172.991 194.53ZM172.342 198.145C172.342 199.483 172.528 200.746 173.014 201.832L176.665 200.199C176.487 199.801 176.342 199.15 176.342 198.145H172.342ZM173.041 201.891C173.689 203.223 174.892 204.061 176.224 204.579L177.674 200.851C176.897 200.549 176.693 200.254 176.638 200.141L173.041 201.891ZM176.224 204.579C177.547 205.093 179.287 205.396 181.332 205.558L181.648 201.571C179.748 201.42 178.46 201.157 177.674 200.851L176.224 204.579ZM181.353 205.56C183.41 205.701 186.098 205.77 189.4 205.77V201.77C186.14 201.77 183.554 201.701 181.627 201.569L181.353 205.56ZM257.246 207.52V209.52H259.246V207.52H257.246ZM251.621 207.52H249.621V209.52H251.621V207.52ZM251.211 183.35L249.243 183.705L249.245 183.721L249.249 183.737L251.211 183.35ZM249.599 179.951L248.136 181.315L248.144 181.323L248.153 181.332L249.599 179.951ZM246.172 178.105L245.656 180.038L245.672 180.042L245.687 180.046L246.172 178.105ZM233.867 178.193L234.357 180.132L234.368 180.13L234.378 180.127L233.867 178.193ZM229.853 180.039L231.103 181.601L231.112 181.593L231.122 181.586L229.853 180.039ZM227.803 182.881L225.915 182.219L225.91 182.234L225.905 182.248L227.803 182.881ZM227.246 207.52V209.52H229.246V207.52H227.246ZM221.621 207.52H219.621V209.52H221.621V207.52ZM221.621 173.77V171.77H219.621V173.77H221.621ZM227.246 173.77H229.246V171.77H227.246V173.77ZM227.246 179.102H225.246L229.143 179.734L227.246 179.102ZM228.33 177.344L226.825 176.027L226.821 176.031L228.33 177.344ZM229.971 175.85L228.771 174.25L228.76 174.258L228.749 174.266L229.971 175.85ZM232.666 174.385L231.917 172.53L231.906 172.535L232.666 174.385ZM247.724 173.242L247.375 175.212L247.39 175.214L247.404 175.216L247.724 173.242ZM251.709 174.414L250.84 176.216L250.859 176.225L250.879 176.234L251.709 174.414ZM254.404 176.348L252.899 177.665L252.917 177.685L252.935 177.704L254.404 176.348ZM256.074 178.984L254.225 179.746L255.701 183.331L257.767 180.05L256.074 178.984ZM260.557 175.117L259.651 173.334L259.64 173.34L260.557 175.117ZM265.303 173.506L265.745 175.456L265.755 175.454L265.764 175.452L265.303 173.506ZM278.017 173.301L277.634 175.264L277.648 175.266L277.662 175.269L278.017 173.301ZM282.119 174.648L281.163 176.405L281.175 176.412L281.188 176.418L282.119 174.648ZM284.785 176.846L283.189 178.051L283.198 178.063L283.206 178.074L284.785 176.846ZM286.338 179.922L284.422 180.497L284.428 180.516L284.434 180.535L286.338 179.922ZM287.07 183.818L285.077 183.98L285.077 183.982L287.07 183.818ZM287.246 207.52V209.52H289.246V207.52H287.246ZM281.621 207.52H279.621V209.52H281.621V207.52ZM281.211 183.35L279.243 183.705L279.245 183.721L279.249 183.737L281.211 183.35ZM279.599 179.951L278.136 181.315L278.144 181.323L278.153 181.332L279.599 179.951ZM276.172 178.105L275.656 180.038L275.672 180.042L275.687 180.046L276.172 178.105ZM263.867 178.193L264.357 180.132L264.368 180.13L264.378 180.127L263.867 178.193ZM259.853 180.039L261.103 181.601L261.112 181.593L261.122 181.586L259.853 180.039ZM257.803 182.881L255.915 182.219L255.91 182.234L255.905 182.248L257.803 182.881ZM257.246 205.52H251.621V209.52H257.246V205.52ZM253.621 207.52V188.477H249.621V207.52H253.621ZM253.621 188.477C253.621 186.367 253.48 184.519 253.173 182.963L249.249 183.737C249.489 184.954 249.621 186.524 249.621 188.477H253.621ZM253.179 182.994C252.87 181.282 252.188 179.766 251.046 178.57L248.153 181.332C248.652 181.855 249.044 182.605 249.243 183.705L253.179 182.994ZM251.063 178.588C249.93 177.372 248.404 176.602 246.657 176.165L245.687 180.046C246.908 180.351 247.668 180.812 248.136 181.315L251.063 178.588ZM246.687 176.173C244.986 175.719 242.859 175.52 240.371 175.52V179.52C242.688 179.52 244.428 179.71 245.656 180.038L246.687 176.173ZM240.371 175.52C237.639 175.52 235.283 175.75 233.356 176.26L234.378 180.127C235.85 179.738 237.83 179.52 240.371 179.52V175.52ZM233.377 176.254C231.496 176.73 229.859 177.448 228.585 178.493L231.122 181.586C231.801 181.029 232.839 180.516 234.357 180.132L233.377 176.254ZM228.604 178.477C227.353 179.478 226.438 180.73 225.915 182.219L229.69 183.543C229.949 182.805 230.401 182.163 231.103 181.601L228.604 178.477ZM225.905 182.248C225.456 183.596 225.246 185.054 225.246 186.602H229.246C229.246 185.415 229.407 184.392 229.7 183.513L225.905 182.248ZM225.246 186.602V207.52H229.246V186.602H225.246ZM227.246 205.52H221.621V209.52H227.246V205.52ZM223.621 207.52V173.77H219.621V207.52H223.621ZM221.621 175.77H227.246V171.77H221.621V175.77ZM225.246 173.77V179.102H229.246V173.77H225.246ZM229.143 179.734C229.13 179.775 229.119 179.803 229.117 179.808C229.114 179.815 229.113 179.817 229.115 179.811C229.121 179.799 229.132 179.774 229.15 179.732C229.188 179.649 229.243 179.529 229.319 179.367L225.7 177.664C225.575 177.93 225.416 178.267 225.349 178.469L229.143 179.734ZM229.319 179.367C229.364 179.273 229.504 179.041 229.839 178.656L226.821 176.031C226.374 176.545 225.968 177.095 225.7 177.664L229.319 179.367ZM229.835 178.661C230.134 178.319 230.575 177.909 231.192 177.433L228.749 174.266C227.999 174.845 227.346 175.431 226.825 176.027L229.835 178.661ZM231.171 177.45C231.701 177.052 232.439 176.64 233.426 176.235L231.906 172.535C230.706 173.028 229.647 173.593 228.771 174.25L231.171 177.45ZM233.414 176.239C234.373 175.853 235.577 175.513 237.048 175.237L236.311 171.306C234.658 171.616 233.185 172.018 231.918 172.53L233.414 176.239ZM237.048 175.237C238.455 174.973 240.181 174.832 242.246 174.832V170.832C240.014 170.832 238.029 170.984 236.311 171.306L237.048 175.237ZM242.246 174.832C244.276 174.832 245.979 174.964 247.375 175.212L248.073 171.273C246.384 170.973 244.435 170.832 242.246 170.832V174.832ZM247.404 175.216C248.83 175.448 249.963 175.793 250.84 176.216L252.577 172.613C251.267 171.981 249.744 171.544 248.045 171.268L247.404 175.216ZM250.879 176.234C251.78 176.645 252.433 177.132 252.899 177.665L255.909 175.031C255.008 174.001 253.865 173.199 252.539 172.594L250.879 176.234ZM252.935 177.704C253.471 178.285 253.901 178.96 254.225 179.746L257.923 178.223C257.427 177.016 256.744 175.934 255.874 174.991L252.935 177.704ZM257.767 180.05C257.987 179.701 258.389 179.205 259.041 178.553L256.213 175.724C255.458 176.479 254.826 177.213 254.382 177.919L257.767 180.05ZM259.041 178.553C259.551 178.043 260.337 177.481 261.473 176.895L259.64 173.34C258.276 174.043 257.109 174.829 256.213 175.724L259.041 178.553ZM261.462 176.901C262.542 176.352 263.957 175.862 265.745 175.456L264.86 171.555C262.859 172.009 261.11 172.593 259.651 173.334L261.462 176.901ZM265.764 175.452C267.46 175.05 269.61 174.832 272.246 174.832V170.832C269.413 170.832 266.934 171.064 264.841 171.56L265.764 175.452ZM272.246 174.832C274.408 174.832 276.196 174.983 277.634 175.264L278.4 171.338C276.636 170.993 274.576 170.832 272.246 170.832V174.832ZM277.662 175.269C279.132 175.535 280.284 175.927 281.163 176.405L283.075 172.891C281.727 172.159 280.145 171.653 278.373 171.333L277.662 175.269ZM281.188 176.418C282.078 176.887 282.726 177.438 283.189 178.051L286.381 175.64C285.516 174.495 284.387 173.582 283.051 172.879L281.188 176.418ZM283.206 178.074C283.724 178.739 284.135 179.538 284.422 180.497L288.253 179.347C287.838 177.962 287.213 176.71 286.364 175.618L283.206 178.074ZM284.434 180.535C284.75 181.515 284.97 182.659 285.077 183.98L289.064 183.657C288.936 182.087 288.668 180.633 288.241 179.309L284.434 180.535ZM285.077 183.982C285.189 185.345 285.246 186.842 285.246 188.477H289.246C289.246 186.751 289.186 185.143 289.063 183.655L285.077 183.982ZM285.246 188.477V207.52H289.246V188.477H285.246ZM287.246 205.52H281.621V209.52H287.246V205.52ZM283.621 207.52V188.477H279.621V207.52H283.621ZM283.621 188.477C283.621 186.367 283.48 184.519 283.173 182.963L279.249 183.737C279.489 184.954 279.621 186.524 279.621 188.477H283.621ZM283.179 182.994C282.87 181.282 282.188 179.766 281.046 178.57L278.153 181.332C278.652 181.855 279.044 182.605 279.243 183.705L283.179 182.994ZM281.063 178.588C279.93 177.372 278.404 176.602 276.657 176.165L275.687 180.046C276.908 180.351 277.668 180.812 278.136 181.315L281.063 178.588ZM276.687 176.173C274.986 175.719 272.859 175.52 270.371 175.52V179.52C272.688 179.52 274.428 179.71 275.656 180.038L276.687 176.173ZM270.371 175.52C267.639 175.52 265.283 175.75 263.356 176.26L264.378 180.127C265.85 179.738 267.83 179.52 270.371 179.52V175.52ZM263.377 176.254C261.496 176.73 259.859 177.448 258.585 178.493L261.122 181.586C261.801 181.029 262.839 180.516 264.357 180.132L263.377 176.254ZM258.604 178.477C257.353 179.478 256.438 180.73 255.915 182.219L259.69 183.543C259.949 182.805 260.401 182.163 261.103 181.601L258.604 178.477ZM255.905 182.248C255.456 183.596 255.246 185.054 255.246 186.602H259.246C259.246 185.415 259.407 184.392 259.7 183.513L255.905 182.248ZM255.246 186.602V207.52H259.246V186.602H255.246Z" fill="white" mask="url(#path-18-outside-2_319_2)"/>
<mask id="path-20-outside-3_319_2" maskUnits="userSpaceOnUse" x="45" y="106" width="271" height="28" fill="black">
<rect fill="white" x="45" y="106" width="271" height="28"/>
<path d="M46.016 133V107.08H51.236L60.632 118.276L69.992 107.08H75.248V133H70.46V113.992L60.632 125.692L50.768 114.028V133H46.016ZM83.0864 133V112.084C83.0864 111.172 83.3144 110.344 83.7704 109.6C84.2264 108.832 84.8264 108.22 85.5704 107.764C86.3384 107.308 87.1784 107.08 88.0904 107.08H103.966C104.878 107.08 105.718 107.308 106.486 107.764C107.254 108.22 107.866 108.832 108.322 109.6C108.778 110.344 109.006 111.172 109.006 112.084V133H104.218V124.288H87.8384V133H83.0864ZM87.8384 119.536H104.218V112.3C104.218 112.18 104.17 112.084 104.074 112.012C103.978 111.916 103.87 111.868 103.75 111.868H88.2704C88.1504 111.868 88.0424 111.916 87.9464 112.012C87.8744 112.084 87.8384 112.18 87.8384 112.3V119.536ZM137.372 133L129.56 123.676H135.788L142.556 131.668V133H137.372ZM116.708 133V107.116H137.588C138.5 107.116 139.34 107.344 140.108 107.8C140.876 108.256 141.488 108.868 141.944 109.636C142.4 110.38 142.628 111.208 142.628 112.12V119.104C142.628 120.016 142.4 120.856 141.944 121.624C141.488 122.392 140.876 123.004 140.108 123.46C139.34 123.892 138.5 124.108 137.588 124.108L121.46 124.144V133H116.708ZM121.892 119.32H137.372C137.492 119.32 137.6 119.284 137.696 119.212C137.792 119.14 137.84 119.044 137.84 118.924V112.3C137.84 112.18 137.792 112.084 137.696 112.012C137.6 111.916 137.492 111.868 137.372 111.868H121.892C121.772 111.868 121.664 111.916 121.568 112.012C121.496 112.084 121.46 112.18 121.46 112.3V118.924C121.46 119.044 121.496 119.14 121.568 119.212C121.664 119.284 121.772 119.32 121.892 119.32ZM150.051 133V107.08H154.839V117.628H160.923L169.779 107.08H174.963V108.448L165.243 120.04L174.999 131.632V133H169.779L160.923 122.452H154.839V133H150.051ZM182.375 133V107.08H206.243V111.868H187.163V117.628H202.499V122.452H187.163V128.212H206.243V133H182.375ZM222.753 133V111.868H212.169V107.08H238.089V111.868H227.541V133H222.753ZM243.878 133V107.08H248.594V133H243.878ZM255.681 133V107.08H260.901L276.813 126.016V107.08H281.601V133H276.381L260.433 114.028V133H255.681ZM294.238 133C293.326 133 292.486 132.772 291.718 132.316C290.974 131.86 290.374 131.26 289.918 130.516C289.462 129.748 289.234 128.908 289.234 127.996V112.084C289.234 111.172 289.462 110.344 289.918 109.6C290.374 108.832 290.974 108.22 291.718 107.764C292.486 107.308 293.326 107.08 294.238 107.08H310.114C311.026 107.08 311.866 107.308 312.634 107.764C313.402 108.22 314.014 108.832 314.47 109.6C314.926 110.344 315.154 111.172 315.154 112.084V114.1H310.366V112.3C310.366 112.18 310.318 112.084 310.222 112.012C310.126 111.916 310.018 111.868 309.898 111.868H294.418C294.298 111.868 294.19 111.916 294.094 112.012C294.022 112.084 293.986 112.18 293.986 112.3V127.78C293.986 127.9 294.022 128.008 294.094 128.104C294.19 128.176 294.298 128.212 294.418 128.212H309.898C310.018 128.212 310.126 128.176 310.222 128.104C310.318 128.008 310.366 127.9 310.366 127.78V123.1H304.498V118.312H315.154V127.996C315.154 128.908 314.926 129.748 314.47 130.516C314.014 131.26 313.402 131.86 312.634 132.316C311.866 132.772 311.026 133 310.114 133H294.238Z"/>
</mask>
<path d="M46.016 133V107.08H51.236L60.632 118.276L69.992 107.08H75.248V133H70.46V113.992L60.632 125.692L50.768 114.028V133H46.016ZM83.0864 133V112.084C83.0864 111.172 83.3144 110.344 83.7704 109.6C84.2264 108.832 84.8264 108.22 85.5704 107.764C86.3384 107.308 87.1784 107.08 88.0904 107.08H103.966C104.878 107.08 105.718 107.308 106.486 107.764C107.254 108.22 107.866 108.832 108.322 109.6C108.778 110.344 109.006 111.172 109.006 112.084V133H104.218V124.288H87.8384V133H83.0864ZM87.8384 119.536H104.218V112.3C104.218 112.18 104.17 112.084 104.074 112.012C103.978 111.916 103.87 111.868 103.75 111.868H88.2704C88.1504 111.868 88.0424 111.916 87.9464 112.012C87.8744 112.084 87.8384 112.18 87.8384 112.3V119.536ZM137.372 133L129.56 123.676H135.788L142.556 131.668V133H137.372ZM116.708 133V107.116H137.588C138.5 107.116 139.34 107.344 140.108 107.8C140.876 108.256 141.488 108.868 141.944 109.636C142.4 110.38 142.628 111.208 142.628 112.12V119.104C142.628 120.016 142.4 120.856 141.944 121.624C141.488 122.392 140.876 123.004 140.108 123.46C139.34 123.892 138.5 124.108 137.588 124.108L121.46 124.144V133H116.708ZM121.892 119.32H137.372C137.492 119.32 137.6 119.284 137.696 119.212C137.792 119.14 137.84 119.044 137.84 118.924V112.3C137.84 112.18 137.792 112.084 137.696 112.012C137.6 111.916 137.492 111.868 137.372 111.868H121.892C121.772 111.868 121.664 111.916 121.568 112.012C121.496 112.084 121.46 112.18 121.46 112.3V118.924C121.46 119.044 121.496 119.14 121.568 119.212C121.664 119.284 121.772 119.32 121.892 119.32ZM150.051 133V107.08H154.839V117.628H160.923L169.779 107.08H174.963V108.448L165.243 120.04L174.999 131.632V133H169.779L160.923 122.452H154.839V133H150.051ZM182.375 133V107.08H206.243V111.868H187.163V117.628H202.499V122.452H187.163V128.212H206.243V133H182.375ZM222.753 133V111.868H212.169V107.08H238.089V111.868H227.541V133H222.753ZM243.878 133V107.08H248.594V133H243.878ZM255.681 133V107.08H260.901L276.813 126.016V107.08H281.601V133H276.381L260.433 114.028V133H255.681ZM294.238 133C293.326 133 292.486 132.772 291.718 132.316C290.974 131.86 290.374 131.26 289.918 130.516C289.462 129.748 289.234 128.908 289.234 127.996V112.084C289.234 111.172 289.462 110.344 289.918 109.6C290.374 108.832 290.974 108.22 291.718 107.764C292.486 107.308 293.326 107.08 294.238 107.08H310.114C311.026 107.08 311.866 107.308 312.634 107.764C313.402 108.22 314.014 108.832 314.47 109.6C314.926 110.344 315.154 111.172 315.154 112.084V114.1H310.366V112.3C310.366 112.18 310.318 112.084 310.222 112.012C310.126 111.916 310.018 111.868 309.898 111.868H294.418C294.298 111.868 294.19 111.916 294.094 112.012C294.022 112.084 293.986 112.18 293.986 112.3V127.78C293.986 127.9 294.022 128.008 294.094 128.104C294.19 128.176 294.298 128.212 294.418 128.212H309.898C310.018 128.212 310.126 128.176 310.222 128.104C310.318 128.008 310.366 127.9 310.366 127.78V123.1H304.498V118.312H315.154V127.996C315.154 128.908 314.926 129.748 314.47 130.516C314.014 131.26 313.402 131.86 312.634 132.316C311.866 132.772 311.026 133 310.114 133H294.238Z" fill="white"/>
<path d="M46.016 133H45.766V133.25H46.016V133ZM46.016 107.08V106.83H45.766V107.08H46.016ZM51.236 107.08L51.4275 106.919L51.3526 106.83H51.236V107.08ZM60.632 118.276L60.4405 118.437L60.6324 118.665L60.8238 118.436L60.632 118.276ZM69.992 107.08V106.83H69.8751L69.8002 106.92L69.992 107.08ZM75.248 107.08H75.498V106.83H75.248V107.08ZM75.248 133V133.25H75.498V133H75.248ZM70.46 133H70.21V133.25H70.46V133ZM70.46 113.992H70.71V113.306L70.2686 113.831L70.46 113.992ZM60.632 125.692L60.4411 125.853L60.6326 126.08L60.8234 125.853L60.632 125.692ZM50.768 114.028L50.9589 113.867L50.518 113.345V114.028H50.768ZM50.768 133V133.25H51.018V133H50.768ZM46.266 133V107.08H45.766V133H46.266ZM46.016 107.33H51.236V106.83H46.016V107.33ZM51.0445 107.241L60.4405 118.437L60.8235 118.115L51.4275 106.919L51.0445 107.241ZM60.8238 118.436L70.1838 107.24L69.8002 106.92L60.4402 118.116L60.8238 118.436ZM69.992 107.33H75.248V106.83H69.992V107.33ZM74.998 107.08V133H75.498V107.08H74.998ZM75.248 132.75H70.46V133.25H75.248V132.75ZM70.71 133V113.992H70.21V133H70.71ZM70.2686 113.831L60.4406 125.531L60.8234 125.853L70.6514 114.153L70.2686 113.831ZM60.8229 125.531L50.9589 113.867L50.5771 114.189L60.4411 125.853L60.8229 125.531ZM50.518 114.028V133H51.018V114.028H50.518ZM50.768 132.75H46.016V133.25H50.768V132.75ZM83.0864 133H82.8364V133.25H83.0864V133ZM83.7704 109.6L83.9836 109.731L83.9854 109.728L83.7704 109.6ZM85.5704 107.764L85.4428 107.549L85.4398 107.551L85.5704 107.764ZM106.486 107.764L106.359 107.979V107.979L106.486 107.764ZM108.322 109.6L108.107 109.728L108.109 109.731L108.322 109.6ZM109.006 133V133.25H109.256V133H109.006ZM104.218 133H103.968V133.25H104.218V133ZM104.218 124.288H104.468V124.038H104.218V124.288ZM87.8384 124.288V124.038H87.5884V124.288H87.8384ZM87.8384 133V133.25H88.0884V133H87.8384ZM87.8384 119.536H87.5884V119.786H87.8384V119.536ZM104.218 119.536V119.786H104.468V119.536H104.218ZM104.074 112.012L103.898 112.189L103.91 112.201L103.924 112.212L104.074 112.012ZM87.9464 112.012L88.1232 112.189L87.9464 112.012ZM83.3364 133V112.084H82.8364V133H83.3364ZM83.3364 112.084C83.3364 111.216 83.5528 110.434 83.9836 109.731L83.5573 109.469C83.0761 110.254 82.8364 111.128 82.8364 112.084H83.3364ZM83.9854 109.728C84.4212 108.994 84.9926 108.411 85.7011 107.977L85.4398 107.551C84.6603 108.029 84.0317 108.67 83.5555 109.472L83.9854 109.728ZM85.6981 107.979C86.4266 107.546 87.2224 107.33 88.0904 107.33V106.83C87.1345 106.83 86.2503 107.07 85.4428 107.549L85.6981 107.979ZM88.0904 107.33H103.966V106.83H88.0904V107.33ZM103.966 107.33C104.835 107.33 105.63 107.546 106.359 107.979L106.614 107.549C105.807 107.07 104.922 106.83 103.966 106.83V107.33ZM106.359 107.979C107.091 108.414 107.673 108.996 108.107 109.728L108.537 109.472C108.06 108.668 107.418 108.026 106.614 107.549L106.359 107.979ZM108.109 109.731C108.54 110.434 108.756 111.216 108.756 112.084H109.256C109.256 111.128 109.017 110.254 108.536 109.469L108.109 109.731ZM108.756 112.084V133H109.256V112.084H108.756ZM109.006 132.75H104.218V133.25H109.006V132.75ZM104.468 133V124.288H103.968V133H104.468ZM104.218 124.038H87.8384V124.538H104.218V124.038ZM87.5884 124.288V133H88.0884V124.288H87.5884ZM87.8384 132.75H83.0864V133.25H87.8384V132.75ZM87.8384 119.786H104.218V119.286H87.8384V119.786ZM104.468 119.536V112.3H103.968V119.536H104.468ZM104.468 112.3C104.468 112.101 104.383 111.931 104.224 111.812L103.924 112.212C103.957 112.237 103.968 112.259 103.968 112.3H104.468ZM104.251 111.835C104.115 111.699 103.946 111.618 103.75 111.618V112.118C103.795 112.118 103.842 112.133 103.898 112.189L104.251 111.835ZM103.75 111.618H88.2704V112.118H103.75V111.618ZM88.2704 111.618C88.0752 111.618 87.9058 111.699 87.7697 111.835L88.1232 112.189C88.179 112.133 88.2257 112.118 88.2704 112.118V111.618ZM87.7697 111.835C87.6425 111.962 87.5884 112.126 87.5884 112.3H88.0884C88.0884 112.234 88.1064 112.206 88.1232 112.189L87.7697 111.835ZM87.5884 112.3V119.536H88.0884V112.3H87.5884ZM137.372 133L137.181 133.161L137.255 133.25H137.372V133ZM129.56 123.676V123.426H129.025L129.369 123.837L129.56 123.676ZM135.788 123.676L135.979 123.514L135.904 123.426H135.788V123.676ZM142.556 131.668H142.806V131.576L142.747 131.506L142.556 131.668ZM142.556 133V133.25H142.806V133H142.556ZM116.708 133H116.458V133.25H116.708V133ZM116.708 107.116V106.866H116.458V107.116H116.708ZM141.944 109.636L141.729 109.764L141.731 109.767L141.944 109.636ZM140.108 123.46L140.231 123.678L140.236 123.675L140.108 123.46ZM137.588 124.108V123.858H137.588L137.588 124.108ZM121.46 124.144L121.46 123.894L121.21 123.895V124.144H121.46ZM121.46 133V133.25H121.71V133H121.46ZM137.696 119.212L137.846 119.412V119.412L137.696 119.212ZM137.696 112.012L137.519 112.189L137.532 112.201L137.546 112.212L137.696 112.012ZM121.568 112.012L121.745 112.189L121.745 112.189L121.568 112.012ZM121.568 119.212L121.391 119.389L121.404 119.401L121.418 119.412L121.568 119.212ZM137.564 132.839L129.752 123.515L129.369 123.837L137.181 133.161L137.564 132.839ZM129.56 123.926H135.788V123.426H129.56V123.926ZM135.597 123.838L142.365 131.83L142.747 131.506L135.979 123.514L135.597 123.838ZM142.306 131.668V133H142.806V131.668H142.306ZM142.556 132.75H137.372V133.25H142.556V132.75ZM116.958 133V107.116H116.458V133H116.958ZM116.708 107.366H137.588V106.866H116.708V107.366ZM137.588 107.366C138.456 107.366 139.252 107.582 139.981 108.015L140.236 107.585C139.428 107.106 138.544 106.866 137.588 106.866V107.366ZM139.981 108.015C140.713 108.45 141.295 109.032 141.729 109.764L142.159 109.508C141.682 108.704 141.04 108.062 140.236 107.585L139.981 108.015ZM141.731 109.767C142.162 110.47 142.378 111.252 142.378 112.12H142.878C142.878 111.164 142.639 110.29 142.157 109.505L141.731 109.767ZM142.378 112.12V119.104H142.878V112.12H142.378ZM142.378 119.104C142.378 119.972 142.162 120.768 141.729 121.496L142.159 121.752C142.639 120.944 142.878 120.06 142.878 119.104H142.378ZM141.729 121.496C141.295 122.228 140.713 122.81 139.981 123.245L140.236 123.675C141.04 123.198 141.682 122.556 142.159 121.752L141.729 121.496ZM139.986 123.242C139.256 123.652 138.459 123.858 137.588 123.858V124.358C138.542 124.358 139.424 124.132 140.231 123.678L139.986 123.242ZM137.588 123.858L121.46 123.894L121.461 124.394L137.589 124.358L137.588 123.858ZM121.21 124.144V133H121.71V124.144H121.21ZM121.46 132.75H116.708V133.25H121.46V132.75ZM121.892 119.57H137.372V119.07H121.892V119.57ZM137.372 119.57C137.546 119.57 137.707 119.516 137.846 119.412L137.546 119.012C137.493 119.052 137.438 119.07 137.372 119.07V119.57ZM137.846 119.412C138.005 119.293 138.09 119.123 138.09 118.924H137.59C137.59 118.965 137.579 118.987 137.546 119.012L137.846 119.412ZM138.09 118.924V112.3H137.59V118.924H138.09ZM138.09 112.3C138.09 112.101 138.005 111.931 137.846 111.812L137.546 112.212C137.579 112.237 137.59 112.259 137.59 112.3H138.09ZM137.873 111.835C137.737 111.699 137.567 111.618 137.372 111.618V112.118C137.417 112.118 137.464 112.133 137.519 112.189L137.873 111.835ZM137.372 111.618H121.892V112.118H137.372V111.618ZM121.892 111.618C121.697 111.618 121.528 111.699 121.391 111.835L121.745 112.189C121.801 112.133 121.847 112.118 121.892 112.118V111.618ZM121.391 111.835C121.264 111.962 121.21 112.126 121.21 112.3H121.71C121.71 112.234 121.728 112.206 121.745 112.189L121.391 111.835ZM121.21 112.3V118.924H121.71V112.3H121.21ZM121.21 118.924C121.21 119.098 121.264 119.262 121.391 119.389L121.745 119.035C121.728 119.018 121.71 118.99 121.71 118.924H121.21ZM121.418 119.412C121.557 119.516 121.718 119.57 121.892 119.57V119.07C121.826 119.07 121.771 119.052 121.718 119.012L121.418 119.412ZM150.051 133H149.801V133.25H150.051V133ZM150.051 107.08V106.83H149.801V107.08H150.051ZM154.839 107.08H155.089V106.83H154.839V107.08ZM154.839 117.628H154.589V117.878H154.839V117.628ZM160.923 117.628V117.878H161.04L161.115 117.789L160.923 117.628ZM169.779 107.08V106.83H169.663L169.588 106.919L169.779 107.08ZM174.963 107.08H175.213V106.83H174.963V107.08ZM174.963 108.448L175.155 108.609L175.213 108.539V108.448H174.963ZM165.243 120.04L165.052 119.879L164.917 120.04L165.052 120.201L165.243 120.04ZM174.999 131.632H175.249V131.541L175.19 131.471L174.999 131.632ZM174.999 133V133.25H175.249V133H174.999ZM169.779 133L169.588 133.161L169.663 133.25H169.779V133ZM160.923 122.452L161.115 122.291L161.04 122.202H160.923V122.452ZM154.839 122.452V122.202H154.589V122.452H154.839ZM154.839 133V133.25H155.089V133H154.839ZM150.301 133V107.08H149.801V133H150.301ZM150.051 107.33H154.839V106.83H150.051V107.33ZM154.589 107.08V117.628H155.089V107.08H154.589ZM154.839 117.878H160.923V117.378H154.839V117.878ZM161.115 117.789L169.971 107.241L169.588 106.919L160.732 117.467L161.115 117.789ZM169.779 107.33H174.963V106.83H169.779V107.33ZM174.713 107.08V108.448H175.213V107.08H174.713ZM174.772 108.287L165.052 119.879L165.435 120.201L175.155 108.609L174.772 108.287ZM165.052 120.201L174.808 131.793L175.19 131.471L165.434 119.879L165.052 120.201ZM174.749 131.632V133H175.249V131.632H174.749ZM174.999 132.75H169.779V133.25H174.999V132.75ZM169.971 132.839L161.115 122.291L160.732 122.613L169.588 133.161L169.971 132.839ZM160.923 122.202H154.839V122.702H160.923V122.202ZM154.589 122.452V133H155.089V122.452H154.589ZM154.839 132.75H150.051V133.25H154.839V132.75ZM182.375 133H182.125V133.25H182.375V133ZM182.375 107.08V106.83H182.125V107.08H182.375ZM206.243 107.08H206.493V106.83H206.243V107.08ZM206.243 111.868V112.118H206.493V111.868H206.243ZM187.163 111.868V111.618H186.913V111.868H187.163ZM187.163 117.628H186.913V117.878H187.163V117.628ZM202.499 117.628H202.749V117.378H202.499V117.628ZM202.499 122.452V122.702H202.749V122.452H202.499ZM187.163 122.452V122.202H186.913V122.452H187.163ZM187.163 128.212H186.913V128.462H187.163V128.212ZM206.243 128.212H206.493V127.962H206.243V128.212ZM206.243 133V133.25H206.493V133H206.243ZM182.625 133V107.08H182.125V133H182.625ZM182.375 107.33H206.243V106.83H182.375V107.33ZM205.993 107.08V111.868H206.493V107.08H205.993ZM206.243 111.618H187.163V112.118H206.243V111.618ZM186.913 111.868V117.628H187.413V111.868H186.913ZM187.163 117.878H202.499V117.378H187.163V117.878ZM202.249 117.628V122.452H202.749V117.628H202.249ZM202.499 122.202H187.163V122.702H202.499V122.202ZM186.913 122.452V128.212H187.413V122.452H186.913ZM187.163 128.462H206.243V127.962H187.163V128.462ZM205.993 128.212V133H206.493V128.212H205.993ZM206.243 132.75H182.375V133.25H206.243V132.75ZM222.753 133H222.503V133.25H222.753V133ZM222.753 111.868H223.003V111.618H222.753V111.868ZM212.169 111.868H211.919V112.118H212.169V111.868ZM212.169 107.08V106.83H211.919V107.08H212.169ZM238.089 107.08H238.339V106.83H238.089V107.08ZM238.089 111.868V112.118H238.339V111.868H238.089ZM227.541 111.868V111.618H227.291V111.868H227.541ZM227.541 133V133.25H227.791V133H227.541ZM223.003 133V111.868H222.503V133H223.003ZM222.753 111.618H212.169V112.118H222.753V111.618ZM212.419 111.868V107.08H211.919V111.868H212.419ZM212.169 107.33H238.089V106.83H212.169V107.33ZM237.839 107.08V111.868H238.339V107.08H237.839ZM238.089 111.618H227.541V112.118H238.089V111.618ZM227.291 111.868V133H227.791V111.868H227.291ZM227.541 132.75H222.753V133.25H227.541V132.75ZM243.878 133H243.628V133.25H243.878V133ZM243.878 107.08V106.83H243.628V107.08H243.878ZM248.594 107.08H248.844V106.83H248.594V107.08ZM248.594 133V133.25H248.844V133H248.594ZM244.128 133V107.08H243.628V133H244.128ZM243.878 107.33H248.594V106.83H243.878V107.33ZM248.344 107.08V133H248.844V107.08H248.344ZM248.594 132.75H243.878V133.25H248.594V132.75ZM255.681 133H255.431V133.25H255.681V133ZM255.681 107.08V106.83H255.431V107.08H255.681ZM260.901 107.08L261.092 106.919L261.017 106.83H260.901V107.08ZM276.813 126.016L276.621 126.177L277.063 126.702V126.016H276.813ZM276.813 107.08V106.83H276.563V107.08H276.813ZM281.601 107.08H281.851V106.83H281.601V107.08ZM281.601 133V133.25H281.851V133H281.601ZM276.381 133L276.189 133.161L276.264 133.25H276.381V133ZM260.433 114.028L260.624 113.867L260.183 113.342V114.028H260.433ZM260.433 133V133.25H260.683V133H260.433ZM255.931 133V107.08H255.431V133H255.931ZM255.681 107.33H260.901V106.83H255.681V107.33ZM260.709 107.241L276.621 126.177L277.004 125.855L261.092 106.919L260.709 107.241ZM277.063 126.016V107.08H276.563V126.016H277.063ZM276.813 107.33H281.601V106.83H276.813V107.33ZM281.351 107.08V133H281.851V107.08H281.351ZM281.601 132.75H276.381V133.25H281.601V132.75ZM276.572 132.839L260.624 113.867L260.241 114.189L276.189 133.161L276.572 132.839ZM260.183 114.028V133H260.683V114.028H260.183ZM260.433 132.75H255.681V133.25H260.433V132.75ZM291.718 132.316L291.587 132.529L291.59 132.531L291.718 132.316ZM289.918 130.516L289.703 130.644L289.705 130.647L289.918 130.516ZM289.918 109.6L290.131 109.731L290.133 109.728L289.918 109.6ZM291.718 107.764L291.59 107.549L291.587 107.551L291.718 107.764ZM314.47 109.6L314.255 109.728L314.257 109.731L314.47 109.6ZM315.154 114.1V114.35H315.404V114.1H315.154ZM310.366 114.1H310.116V114.35H310.366V114.1ZM310.222 112.012L310.045 112.189L310.058 112.201L310.072 112.212L310.222 112.012ZM294.094 112.012L294.271 112.189V112.189L294.094 112.012ZM294.094 128.104L293.894 128.254L293.915 128.283L293.944 128.304L294.094 128.104ZM310.222 128.104L310.372 128.304L310.386 128.293L310.399 128.281L310.222 128.104ZM310.366 123.1H310.616V122.85H310.366V123.1ZM304.498 123.1H304.248V123.35H304.498V123.1ZM304.498 118.312V118.062H304.248V118.312H304.498ZM315.154 118.312H315.404V118.062H315.154V118.312ZM314.47 130.516L314.683 130.647L314.685 130.644L314.47 130.516ZM312.634 132.316L312.506 132.101L312.634 132.316ZM294.238 132.75C293.37 132.75 292.574 132.534 291.846 132.101L291.59 132.531C292.398 133.01 293.282 133.25 294.238 133.25V132.75ZM291.849 132.103C291.138 131.667 290.567 131.096 290.131 130.385L289.705 130.647C290.181 131.424 290.81 132.053 291.587 132.529L291.849 132.103ZM290.133 130.388C289.7 129.66 289.484 128.864 289.484 127.996H288.984C288.984 128.952 289.224 129.836 289.703 130.644L290.133 130.388ZM289.484 127.996V112.084H288.984V127.996H289.484ZM289.484 112.084C289.484 111.216 289.7 110.434 290.131 109.731L289.705 109.469C289.224 110.254 288.984 111.128 288.984 112.084H289.484ZM290.133 109.728C290.569 108.994 291.14 108.411 291.849 107.977L291.587 107.551C290.808 108.029 290.179 108.67 289.703 109.472L290.133 109.728ZM291.846 107.979C292.574 107.546 293.37 107.33 294.238 107.33V106.83C293.282 106.83 292.398 107.07 291.59 107.549L291.846 107.979ZM294.238 107.33H310.114V106.83H294.238V107.33ZM310.114 107.33C310.982 107.33 311.778 107.546 312.506 107.979L312.762 107.549C311.954 107.07 311.07 106.83 310.114 106.83V107.33ZM312.506 107.979C313.238 108.414 313.82 108.996 314.255 109.728L314.685 109.472C314.208 108.668 313.566 108.026 312.762 107.549L312.506 107.979ZM314.257 109.731C314.688 110.434 314.904 111.216 314.904 112.084H315.404C315.404 111.128 315.164 110.254 314.683 109.469L314.257 109.731ZM314.904 112.084V114.1H315.404V112.084H314.904ZM315.154 113.85H310.366V114.35H315.154V113.85ZM310.616 114.1V112.3H310.116V114.1H310.616ZM310.616 112.3C310.616 112.101 310.531 111.931 310.372 111.812L310.072 112.212C310.105 112.237 310.116 112.259 310.116 112.3H310.616ZM310.399 111.835C310.263 111.699 310.093 111.618 309.898 111.618V112.118C309.943 112.118 309.989 112.133 310.045 112.189L310.399 111.835ZM309.898 111.618H294.418V112.118H309.898V111.618ZM294.418 111.618C294.223 111.618 294.053 111.699 293.917 111.835L294.271 112.189C294.327 112.133 294.373 112.118 294.418 112.118V111.618ZM293.917 111.835C293.79 111.962 293.736 112.126 293.736 112.3H294.236C294.236 112.234 294.254 112.206 294.271 112.189L293.917 111.835ZM293.736 112.3V127.78H294.236V112.3H293.736ZM293.736 127.78C293.736 127.954 293.79 128.115 293.894 128.254L294.294 127.954C294.254 127.901 294.236 127.846 294.236 127.78H293.736ZM293.944 128.304C294.083 128.408 294.244 128.462 294.418 128.462V127.962C294.352 127.962 294.297 127.944 294.244 127.904L293.944 128.304ZM294.418 128.462H309.898V127.962H294.418V128.462ZM309.898 128.462C310.072 128.462 310.233 128.408 310.372 128.304L310.072 127.904C310.019 127.944 309.964 127.962 309.898 127.962V128.462ZM310.399 128.281C310.535 128.145 310.616 127.975 310.616 127.78H310.116C310.116 127.825 310.101 127.871 310.045 127.927L310.399 128.281ZM310.616 127.78V123.1H310.116V127.78H310.616ZM310.366 122.85H304.498V123.35H310.366V122.85ZM304.748 123.1V118.312H304.248V123.1H304.748ZM304.498 118.562H315.154V118.062H304.498V118.562ZM314.904 118.312V127.996H315.404V118.312H314.904ZM314.904 127.996C314.904 128.864 314.688 129.66 314.255 130.388L314.685 130.644C315.164 129.836 315.404 128.952 315.404 127.996H314.904ZM314.257 130.385C313.823 131.094 313.24 131.665 312.506 132.101L312.762 132.531C313.564 132.055 314.205 131.426 314.683 130.647L314.257 130.385ZM312.506 132.101C311.778 132.534 310.982 132.75 310.114 132.75V133.25C311.07 133.25 311.954 133.01 312.762 132.531L312.506 132.101ZM310.114 132.75H294.238V133.25H310.114V132.75Z" fill="white" mask="url(#path-20-outside-3_319_2)"/>
<g filter="url(#filter3_d_319_2)">
<path d="M31 379.5H543" stroke="white" stroke-width="5" stroke-linecap="round"/>
</g>
<g filter="url(#filter4_f_319_2)">
<path d="M31 379.5H543" stroke="white" stroke-width="5" stroke-linecap="round"/>
</g>
<defs>
<filter id="filter0_d_319_2" x="337.84" y="11.752" width="205.32" height="276.318" filterUnits="userSpaceOnUse" color-interpolation-filters="sRGB">
<feFlood flood-opacity="0" result="BackgroundImageFix"/>
<feColorMatrix in="SourceAlpha" type="matrix" values="0 0 0 0 0 0 0 0 0 0 0 0 0 0 0 0 0 0 127 0" result="hardAlpha"/>
<feOffset dy="4"/>
<feGaussianBlur stdDeviation="2"/>
<feComposite in2="hardAlpha" operator="out"/>
<feColorMatrix type="matrix" values="0 0 0 0 0 0 0 0 0 0 0 0 0 0 0 0 0 0 0.25 0"/>
<feBlend mode="normal" in2="BackgroundImageFix" result="effect1_dropShadow_319_2"/>
<feBlend mode="normal" in="SourceGraphic" in2="effect1_dropShadow_319_2" result="shape"/>
</filter>
<filter id="filter1_d_319_2" x="506.444" y="16.7832" width="73.8042" height="133.684" filterUnits="userSpaceOnUse" color-interpolation-filters="sRGB">
<feFlood flood-opacity="0" result="BackgroundImageFix"/>
<feColorMatrix in="SourceAlpha" type="matrix" values="0 0 0 0 0 0 0 0 0 0 0 0 0 0 0 0 0 0 127 0" result="hardAlpha"/>
<feOffset dy="4"/>
<feGaussianBlur stdDeviation="2"/>
<feComposite in2="hardAlpha" operator="out"/>
<feColorMatrix type="matrix" values="0 0 0 0 0 0 0 0 0 0 0 0 0 0 0 0 0 0 0.25 0"/>
<feBlend mode="normal" in2="BackgroundImageFix" result="effect1_dropShadow_319_2"/>
<feBlend mode="normal" in="SourceGraphic" in2="effect1_dropShadow_319_2" result="shape"/>
</filter>
<filter id="filter2_d_319_2" x="14.3509" y="22.0598" width="333.058" height="255.171" filterUnits="userSpaceOnUse" color-interpolation-filters="sRGB">
<feFlood flood-opacity="0" result="BackgroundImageFix"/>
<feColorMatrix in="SourceAlpha" type="matrix" values="0 0 0 0 0 0 0 0 0 0 0 0 0 0 0 0 0 0 127 0" result="hardAlpha"/>
<feOffset dy="4"/>
<feGaussianBlur stdDeviation="8.1"/>
<feComposite in2="hardAlpha" operator="out"/>
<feColorMatrix type="matrix" values="0 0 0 0 0 0 0 0 0 0 0 0 0 0 0 0 0 0 0.25 0"/>
<feBlend mode="normal" in2="BackgroundImageFix" result="effect1_dropShadow_319_2"/>
<feBlend mode="normal" in="SourceGraphic" in2="effect1_dropShadow_319_2" result="shape"/>
</filter>
<filter id="filter3_d_319_2" x="24.5" y="377" width="525" height="13" filterUnits="userSpaceOnUse" color-interpolation-filters="sRGB">
<feFlood flood-opacity="0" result="BackgroundImageFix"/>
<feColorMatrix in="SourceAlpha" type="matrix" values="0 0 0 0 0 0 0 0 0 0 0 0 0 0 0 0 0 0 127 0" result="hardAlpha"/>
<feOffset dy="4"/>
<feGaussianBlur stdDeviation="2"/>
<feComposite in2="hardAlpha" operator="out"/>
<feColorMatrix type="matrix" values="0 0 0 0 0 0 0 0 0 0 0 0 0 0 0 0 0 0 0.25 0"/>
<feBlend mode="normal" in2="BackgroundImageFix" result="effect1_dropShadow_319_2"/>
<feBlend mode="normal" in="SourceGraphic" in2="effect1_dropShadow_319_2" result="shape"/>
</filter>
<filter id="filter4_f_319_2" x="13.5" y="362" width="547" height="35" filterUnits="userSpaceOnUse" color-interpolation-filters="sRGB">
<feFlood flood-opacity="0" result="BackgroundImageFix"/>
<feBlend mode="normal" in="SourceGraphic" in2="BackgroundImageFix" result="shape"/>
<feGaussianBlur stdDeviation="7.5" result="effect1_foregroundBlur_319_2"/>
</filter>
<linearGradient id="paint0_linear_319_2" x1="293.073" y1="1" x2="293.073" y2="294" gradientUnits="userSpaceOnUse">
<stop stop-color="#5E94BB"/>
<stop stop-color="#E5E5E5" stop-opacity="0.793978"/>
<stop offset="0.0002" stop-color="#F5F5F5" stop-opacity="0.951888"/>
<stop offset="0.0003" stop-color="#999999" stop-opacity="0.782014"/>
<stop offset="0.0004" stop-color="#707070"/>
<stop offset="0.424" stop-color="#5D5D5D" stop-opacity="0.576873"/>
<stop offset="0.834" stop-color="#282828" stop-opacity="0"/>
</linearGradient>
</defs>
</svg>
