<svg width="auto" height="auto" viewBox="0 0 999 120" fill="none" xmlns="http://www.w3.org/2000/svg">
<mask id="path-1-outside-1_3612_68" maskUnits="userSpaceOnUse" x="118" y="5" width="770" height="112" fill="black">
<rect fill="white" x="118" y="5" width="770" height="112"/>
<path d="M236.837 8.75V19.6094H184.712V113H171.68V19.6094H119.555V8.75H236.837ZM272.455 113V8.75H376.705V19.6094H285.487V54.3594H372.362V65.2188H285.487V102.141H376.705V113H272.455ZM510.059 89.1094H427.527L414.496 113H399.293L460.105 8.75H477.48L538.293 113H523.09L510.059 89.1094ZM503.543 78.25L468.793 17.4375L434.043 78.25H503.543ZM582.599 17.4375V113H569.568V8.75H591.287L652.031 99.9688L712.776 8.75H733.545V113H720.513V18.8628L658.615 113H645.448L582.599 17.4375ZM839.206 54.3594C846.355 54.3594 852.486 54.6535 857.599 55.2417C862.712 55.8299 867.011 56.7122 870.495 57.8887C874.024 59.0199 876.829 60.4451 878.911 62.1646C880.992 63.884 882.598 65.8522 883.73 68.0693C884.861 70.2412 885.585 72.6846 885.902 75.3994C886.264 78.1143 886.445 81.0553 886.445 84.2227C886.445 87.39 886.15 90.3763 885.562 93.1816C885.019 95.9417 884.024 98.4756 882.576 100.783C881.128 103.091 879.16 105.15 876.671 106.959C874.182 108.769 871.015 110.308 867.169 111.575C863.323 112.842 858.685 113.792 853.256 114.425C847.871 115.104 841.559 115.443 834.32 115.443H816.945C810.429 115.443 804.728 115.194 799.841 114.697C794.954 114.199 790.746 113.452 787.217 112.457C783.688 111.416 780.769 110.127 778.462 108.588C776.154 107.005 774.299 105.172 772.896 103.091C771.539 100.964 770.589 98.5661 770.046 95.8965C769.503 93.1816 769.231 90.1953 769.231 86.9375H782.262C782.262 91.0098 782.851 94.1997 784.027 96.5073C785.203 98.8149 787.149 100.557 789.864 101.733C792.579 102.865 796.131 103.589 800.52 103.905C804.954 104.177 810.429 104.312 816.945 104.312H834.32C841.921 104.312 848.233 103.951 853.256 103.227C858.278 102.503 862.282 101.349 865.269 99.7651C868.255 98.1815 870.359 96.1227 871.581 93.5889C872.802 91.0098 873.413 87.8877 873.413 84.2227C873.413 80.5576 872.983 77.5034 872.124 75.0601C871.309 72.6167 869.658 70.6711 867.169 69.2231C864.726 67.7752 861.264 66.7572 856.785 66.1689C852.305 65.5355 846.446 65.2188 839.206 65.2188H821.288C813.325 65.2188 806.492 64.9246 800.791 64.3364C795.135 63.7482 790.384 62.9111 786.538 61.8252C782.692 60.694 779.615 59.314 777.308 57.6851C775 56.0109 773.236 54.1105 772.014 51.9839C770.837 49.8573 770.068 47.5044 769.706 44.9253C769.344 42.3009 769.163 39.473 769.163 36.4414C769.163 33.2741 769.435 30.333 769.978 27.6182C770.566 24.9033 771.629 22.46 773.168 20.2881C774.706 18.071 776.81 16.1027 779.48 14.3833C782.149 12.6639 785.565 11.2386 789.728 10.1074C793.936 8.93099 798.981 8.04867 804.863 7.46045C810.746 6.87223 817.668 6.57812 825.632 6.57812H838.663C845.179 6.57812 850.88 6.82699 855.767 7.32471C860.654 7.77718 864.862 8.52376 868.391 9.56445C871.92 10.5599 874.839 11.8268 877.146 13.3652C879.499 14.8584 881.354 16.6683 882.712 18.7949C884.114 20.8763 885.087 23.2518 885.63 25.9214C886.173 28.591 886.445 31.5547 886.445 34.8125H873.413C873.413 30.7402 872.825 27.5503 871.649 25.2427C870.472 22.9351 868.527 21.2157 865.812 20.0845C863.097 18.908 859.522 18.1841 855.088 17.9126C850.654 17.5959 845.179 17.4375 838.663 17.4375H825.632C816.945 17.4375 809.795 17.7542 804.185 18.3877C798.574 18.9759 794.14 19.994 790.882 21.4419C787.624 22.8898 785.362 24.8354 784.095 27.2788C782.828 29.7222 782.195 32.7764 782.195 36.4414C782.195 38.7038 782.353 40.7173 782.67 42.4819C782.986 44.2466 783.62 45.8076 784.57 47.165C785.565 48.4772 786.945 49.5858 788.71 50.4907C790.475 51.3957 792.805 52.1423 795.701 52.7305C798.597 53.3187 802.126 53.7485 806.289 54.02C810.497 54.2463 815.497 54.3594 821.288 54.3594H839.206Z"/>
</mask>
<path d="M236.837 8.75H237.837V7.75H236.837V8.75ZM236.837 19.6094V20.6094H237.837V19.6094H236.837ZM184.712 19.6094V18.6094H183.712V19.6094H184.712ZM184.712 113V114H185.712V113H184.712ZM171.68 113H170.68V114H171.68V113ZM171.68 19.6094H172.68V18.6094H171.68V19.6094ZM119.555 19.6094H118.555V20.6094H119.555V19.6094ZM119.555 8.75V7.75H118.555V8.75H119.555ZM235.837 8.75V19.6094H237.837V8.75H235.837ZM236.837 18.6094H184.712V20.6094H236.837V18.6094ZM183.712 19.6094V113H185.712V19.6094H183.712ZM184.712 112H171.68V114H184.712V112ZM172.68 113V19.6094H170.68V113H172.68ZM171.68 18.6094H119.555V20.6094H171.68V18.6094ZM120.555 19.6094V8.75H118.555V19.6094H120.555ZM119.555 9.75H236.837V7.75H119.555V9.75ZM272.455 113H271.455V114H272.455V113ZM272.455 8.75V7.75H271.455V8.75H272.455ZM376.705 8.75H377.705V7.75H376.705V8.75ZM376.705 19.6094V20.6094H377.705V19.6094H376.705ZM285.487 19.6094V18.6094H284.487V19.6094H285.487ZM285.487 54.3594H284.487V55.3594H285.487V54.3594ZM372.362 54.3594H373.362V53.3594H372.362V54.3594ZM372.362 65.2188V66.2188H373.362V65.2188H372.362ZM285.487 65.2188V64.2188H284.487V65.2188H285.487ZM285.487 102.141H284.487V103.141H285.487V102.141ZM376.705 102.141H377.705V101.141H376.705V102.141ZM376.705 113V114H377.705V113H376.705ZM273.455 113V8.75H271.455V113H273.455ZM272.455 9.75H376.705V7.75H272.455V9.75ZM375.705 8.75V19.6094H377.705V8.75H375.705ZM376.705 18.6094H285.487V20.6094H376.705V18.6094ZM284.487 19.6094V54.3594H286.487V19.6094H284.487ZM285.487 55.3594H372.362V53.3594H285.487V55.3594ZM371.362 54.3594V65.2188H373.362V54.3594H371.362ZM372.362 64.2188H285.487V66.2188H372.362V64.2188ZM284.487 65.2188V102.141H286.487V65.2188H284.487ZM285.487 103.141H376.705V101.141H285.487V103.141ZM375.705 102.141V113H377.705V102.141H375.705ZM376.705 112H272.455V114H376.705V112ZM510.059 89.1094L510.936 88.6305L510.652 88.1094H510.059V89.1094ZM427.527 89.1094V88.1094H426.934L426.649 88.6305L427.527 89.1094ZM414.496 113V114H415.09L415.374 113.479L414.496 113ZM399.293 113L398.429 112.496L397.552 114H399.293V113ZM460.105 8.75V7.75H459.531L459.242 8.24613L460.105 8.75ZM477.48 8.75L478.344 8.24613L478.055 7.75H477.48V8.75ZM538.293 113V114H540.034L539.157 112.496L538.293 113ZM523.09 113L522.212 113.479L522.496 114H523.09V113ZM503.543 78.25V79.25H505.266L504.411 77.7539L503.543 78.25ZM468.793 17.4375L469.661 16.9414L468.793 15.4219L467.925 16.9414L468.793 17.4375ZM434.043 78.25L433.175 77.7539L432.32 79.25H434.043V78.25ZM510.059 88.1094H427.527V90.1094H510.059V88.1094ZM426.649 88.6305L413.618 112.521L415.374 113.479L428.405 89.5882L426.649 88.6305ZM414.496 112H399.293V114H414.496V112ZM400.157 113.504L460.969 9.25387L459.242 8.24613L398.429 112.496L400.157 113.504ZM460.105 9.75H477.48V7.75H460.105V9.75ZM476.617 9.25387L537.429 113.504L539.157 112.496L478.344 8.24613L476.617 9.25387ZM538.293 112H523.09V114H538.293V112ZM523.968 112.521L510.936 88.6305L509.181 89.5882L522.212 113.479L523.968 112.521ZM504.411 77.7539L469.661 16.9414L467.925 17.9336L502.675 78.7461L504.411 77.7539ZM467.925 16.9414L433.175 77.7539L434.911 78.7461L469.661 17.9336L467.925 16.9414ZM434.043 79.25H503.543V77.25H434.043V79.25ZM582.599 17.4375L583.435 16.888L581.599 14.0971V17.4375H582.599ZM582.599 113V114H583.599V113H582.599ZM569.568 113H568.568V114H569.568V113ZM569.568 8.75V7.75H568.568V8.75H569.568ZM591.287 8.75L592.119 8.19573L591.822 7.75H591.287V8.75ZM652.031 99.9688L651.199 100.523L652.031 101.773L652.864 100.523L652.031 99.9688ZM712.776 8.75V7.75H712.24L711.944 8.19573L712.776 8.75ZM733.545 8.75H734.545V7.75H733.545V8.75ZM733.545 113V114H734.545V113H733.545ZM720.513 113H719.513V114H720.513V113ZM720.513 18.8628H721.513V15.5218L719.678 18.3134L720.513 18.8628ZM658.615 113V114H659.154L659.45 113.549L658.615 113ZM645.448 113L644.612 113.549L644.909 114H645.448V113ZM581.599 17.4375V113H583.599V17.4375H581.599ZM582.599 112H569.568V114H582.599V112ZM570.568 113V8.75H568.568V113H570.568ZM569.568 9.75H591.287V7.75H569.568V9.75ZM590.454 9.30427L651.199 100.523L652.864 99.4145L592.119 8.19573L590.454 9.30427ZM652.864 100.523L713.608 9.30427L711.944 8.19573L651.199 99.4145L652.864 100.523ZM712.776 9.75H733.545V7.75H712.776V9.75ZM732.545 8.75V113H734.545V8.75H732.545ZM733.545 112H720.513V114H733.545V112ZM721.513 113V18.8628H719.513V113H721.513ZM719.678 18.3134L657.779 112.451L659.45 113.549L721.349 19.4122L719.678 18.3134ZM658.615 112H645.448V114H658.615V112ZM646.283 112.451L583.435 16.888L581.764 17.987L644.612 113.549L646.283 112.451ZM870.495 57.8887L870.175 58.8361L870.182 58.8386L870.19 58.841L870.495 57.8887ZM883.73 68.0693L882.839 68.5238L882.843 68.5313L883.73 68.0693ZM885.902 75.3994L884.908 75.5153L884.909 75.5234L884.91 75.5316L885.902 75.3994ZM885.562 93.1816L884.583 92.9764L884.581 92.9886L885.562 93.1816ZM853.256 114.425L853.14 113.432L853.13 113.433L853.256 114.425ZM787.217 112.457L786.934 113.416L786.945 113.419L787.217 112.457ZM778.462 108.588L777.896 109.413L777.907 109.42L778.462 108.588ZM772.896 103.091L772.053 103.629L772.06 103.639L772.067 103.65L772.896 103.091ZM770.046 95.8965L769.065 96.0926L769.066 96.0958L770.046 95.8965ZM769.231 86.9375V85.9375H768.231V86.9375H769.231ZM782.262 86.9375H783.262V85.9375H782.262V86.9375ZM789.864 101.733L789.466 102.651L789.479 102.656L789.864 101.733ZM800.52 103.905L800.448 104.903L800.459 104.903L800.52 103.905ZM871.581 93.5889L872.482 94.0232L872.484 94.017L871.581 93.5889ZM872.124 75.0601L871.175 75.3763L871.178 75.3841L871.18 75.392L872.124 75.0601ZM867.169 69.2231L866.659 70.0835L866.666 70.0875L867.169 69.2231ZM856.785 66.1689L856.645 67.1591L856.655 67.1604L856.785 66.1689ZM800.791 64.3364L800.688 65.3311L800.689 65.3311L800.791 64.3364ZM786.538 61.8252L786.256 62.7846L786.267 62.7876L786.538 61.8252ZM777.308 57.6851L776.721 58.4945L776.731 58.502L777.308 57.6851ZM772.014 51.9839L771.139 52.4679L771.143 52.475L771.147 52.482L772.014 51.9839ZM769.706 44.9253L768.716 45.0619L768.716 45.0643L769.706 44.9253ZM769.978 27.6182L769 27.4064L768.999 27.4142L768.997 27.422L769.978 27.6182ZM773.168 20.2881L773.984 20.8661L773.989 20.8582L773.168 20.2881ZM789.728 10.1074L789.99 11.0725L789.997 11.0705L789.728 10.1074ZM855.767 7.32471L855.665 8.3196L855.675 8.32045L855.767 7.32471ZM868.391 9.56445L868.108 10.5237L868.119 10.5269L868.391 9.56445ZM877.146 13.3652L876.591 14.1973L876.601 14.2035L876.61 14.2096L877.146 13.3652ZM882.712 18.7949L881.869 19.333L881.875 19.3435L881.882 19.3538L882.712 18.7949ZM886.445 34.8125V35.8125H887.445V34.8125H886.445ZM873.413 34.8125H872.413V35.8125H873.413V34.8125ZM865.812 20.0845L865.414 21.0021L865.427 21.0075L865.812 20.0845ZM855.088 17.9126L855.017 18.9101L855.027 18.9107L855.088 17.9126ZM804.185 18.3877L804.289 19.3823L804.297 19.3814L804.185 18.3877ZM784.57 47.165L783.751 47.7385L783.762 47.7542L783.773 47.7694L784.57 47.165ZM806.289 54.02L806.224 55.018L806.235 55.0186L806.289 54.02ZM839.206 55.3594C846.331 55.3594 852.421 55.6526 857.485 56.2351L857.714 54.2483C852.551 53.6544 846.38 53.3594 839.206 53.3594V55.3594ZM857.485 56.2351C862.553 56.8182 866.778 57.6892 870.175 58.8361L870.815 56.9412C867.243 55.7353 862.871 54.8416 857.714 54.2483L857.485 56.2351ZM870.19 58.841C873.64 59.9468 876.32 61.3212 878.274 62.9355L879.548 61.3936C877.339 59.5691 874.408 58.0929 870.8 56.9364L870.19 58.841ZM878.274 62.9355C880.259 64.5753 881.775 66.4384 882.839 68.5238L884.62 67.6149C883.422 65.266 881.725 63.1926 879.548 61.3936L878.274 62.9355ZM882.843 68.5313C883.912 70.5834 884.604 72.9073 884.908 75.5153L886.895 75.2835C886.566 72.4618 885.81 69.899 884.617 67.6074L882.843 68.5313ZM884.91 75.5316C885.266 78.1965 885.445 81.0929 885.445 84.2227H887.445C887.445 81.0178 887.261 78.0321 886.893 75.2673L884.91 75.5316ZM885.445 84.2227C885.445 87.3281 885.156 90.2452 884.583 92.9764L886.541 93.3869C887.145 90.5074 887.445 87.4518 887.445 84.2227H885.445ZM884.581 92.9886C884.061 95.6326 883.11 98.0511 881.729 100.252L883.423 101.315C884.938 98.9 885.978 96.2509 886.543 93.3747L884.581 92.9886ZM881.729 100.252C880.357 102.438 878.482 104.406 876.083 106.151L877.259 107.768C879.838 105.893 881.899 103.743 883.423 101.315L881.729 100.252ZM876.083 106.151C873.7 107.884 870.633 109.381 866.856 110.625L867.482 112.525C871.397 111.235 874.665 109.655 877.259 107.768L876.083 106.151ZM866.856 110.625C863.092 111.865 858.524 112.804 853.14 113.432L853.371 115.419C858.846 114.78 863.554 113.818 867.482 112.525L866.856 110.625ZM853.13 113.433C847.799 114.105 841.53 114.443 834.32 114.443V116.443C841.588 116.443 847.944 116.103 853.381 115.417L853.13 113.433ZM834.32 114.443H816.945V116.443H834.32V114.443ZM816.945 114.443C810.453 114.443 804.787 114.195 799.942 113.702L799.74 115.692C804.669 116.194 810.405 116.443 816.945 116.443V114.443ZM799.942 113.702C795.095 113.208 790.947 112.47 787.488 111.495L786.945 113.419C790.546 114.435 794.813 115.19 799.74 115.692L799.942 113.702ZM787.5 111.498C784.038 110.477 781.218 109.224 779.016 107.756L777.907 109.42C780.32 111.029 783.338 112.356 786.934 113.416L787.5 111.498ZM779.027 107.764C776.812 106.243 775.05 104.498 773.725 102.532L772.067 103.65C773.548 105.847 775.496 107.766 777.896 109.413L779.027 107.764ZM773.739 102.553C772.453 100.538 771.546 98.2561 771.026 95.6972L769.066 96.0958C769.631 98.8761 770.625 101.391 772.053 103.629L773.739 102.553ZM771.026 95.7004C770.498 93.0602 770.231 90.1407 770.231 86.9375H768.231C768.231 90.25 768.507 93.3031 769.065 96.0926L771.026 95.7004ZM769.231 87.9375H782.262V85.9375H769.231V87.9375ZM781.262 86.9375C781.262 91.0864 781.858 94.4553 783.136 96.9615L784.918 96.0531C783.843 93.9441 783.262 90.9332 783.262 86.9375H781.262ZM783.136 96.9615C784.433 99.5054 786.57 101.396 789.466 102.651L790.262 100.816C787.728 99.7179 785.974 98.1245 784.918 96.0531L783.136 96.9615ZM789.479 102.656C792.33 103.844 795.999 104.582 800.448 104.903L800.592 102.908C796.262 102.595 792.828 101.885 790.249 100.81L789.479 102.656ZM800.459 104.903C804.92 105.177 810.417 105.312 816.945 105.312V103.312C810.441 103.312 804.988 103.177 800.581 102.907L800.459 104.903ZM816.945 105.312H834.32V103.312H816.945V105.312ZM834.32 105.312C841.948 105.312 848.311 104.95 853.398 104.216L853.113 102.237C848.155 102.951 841.894 103.312 834.32 103.312V105.312ZM853.398 104.216C858.483 103.483 862.612 102.306 865.737 100.649L864.8 98.8817C861.953 100.392 858.073 101.522 853.113 102.237L853.398 104.216ZM865.737 100.649C868.873 98.9857 871.15 96.7852 872.482 94.0232L870.68 93.1546C869.568 95.4602 867.637 97.3772 864.8 98.8817L865.737 100.649ZM872.484 94.017C873.785 91.2716 874.413 87.9952 874.413 84.2227H872.413C872.413 87.7802 871.82 90.7479 870.677 93.1608L872.484 94.017ZM874.413 84.2227C874.413 80.4877 873.976 77.3124 873.067 74.7281L871.18 75.392C871.991 77.6945 872.413 80.6276 872.413 84.2227H874.413ZM873.072 74.7438C872.172 72.042 870.344 69.9136 867.672 68.3588L866.666 70.0875C868.971 71.4285 870.447 73.1914 871.175 75.3763L873.072 74.7438ZM867.679 68.3629C865.071 66.8173 861.458 65.7741 856.915 65.1775L856.655 67.1604C861.07 67.7403 864.381 68.7332 866.659 70.0834L867.679 68.3629ZM856.925 65.1788C852.38 64.5361 846.468 64.2188 839.206 64.2188V66.2188C846.423 66.2188 852.231 66.5349 856.645 67.1591L856.925 65.1788ZM839.206 64.2188H821.288V66.2188H839.206V64.2188ZM821.288 64.2188C813.347 64.2188 806.551 63.9254 800.894 63.3417L800.689 65.3311C806.434 65.9239 813.303 66.2188 821.288 66.2188V64.2188ZM800.895 63.3418C795.274 62.7572 790.583 61.9282 786.81 60.8628L786.267 62.7876C790.185 63.894 794.997 64.7392 800.688 65.3311L800.895 63.3418ZM786.82 60.8658C783.039 59.7537 780.073 58.4132 777.884 56.8681L776.731 58.502C779.157 60.2147 782.345 61.6343 786.256 62.7846L786.82 60.8658ZM777.895 56.8756C775.683 55.271 774.022 53.4717 772.881 51.4858L771.147 52.482C772.449 54.7493 774.317 56.7508 776.721 58.4945L777.895 56.8756ZM772.889 51.4998C771.776 49.4877 771.043 47.253 770.697 44.7863L768.716 45.0643C769.094 47.7558 769.899 50.2269 771.139 52.4679L772.889 51.4998ZM770.697 44.7887C770.342 42.2155 770.163 39.4337 770.163 36.4414H768.163C768.163 39.5123 768.347 42.3864 768.716 45.0619L770.697 44.7887ZM770.163 36.4414C770.163 33.3307 770.43 30.4561 770.958 27.8143L768.997 27.422C768.44 30.2099 768.163 33.2174 768.163 36.4414H770.163ZM770.955 27.8299C771.516 25.2409 772.527 22.9232 773.984 20.8661L772.352 19.7101C770.732 21.9967 769.616 24.5657 769 27.4064L770.955 27.8299ZM773.989 20.8582C775.441 18.766 777.443 16.8848 780.021 15.224L778.938 13.5426C776.178 15.3206 773.971 17.3759 772.346 19.718L773.989 20.8582ZM780.021 15.224C782.58 13.576 785.894 12.1857 789.99 11.0724L789.466 9.14242C785.237 10.2915 781.719 11.7518 778.938 13.5426L780.021 15.224ZM789.997 11.0705C794.134 9.91393 799.12 9.03982 804.963 8.45549L804.764 6.46541C798.843 7.05751 793.738 7.94805 789.459 9.14435L789.997 11.0705ZM804.963 8.45549C810.803 7.87148 817.691 7.57812 825.632 7.57812V5.57812C817.646 5.57812 810.688 5.87298 804.764 6.46541L804.963 8.45549ZM825.632 7.57812H838.663V5.57812H825.632V7.57812ZM838.663 7.57812C845.155 7.57812 850.821 7.82616 855.665 8.31956L855.868 6.32985C850.939 5.82781 845.203 5.57812 838.663 5.57812V7.57812ZM855.675 8.32045C860.517 8.76879 864.658 9.50618 868.108 10.5236L868.674 8.60528C865.065 7.54134 860.79 6.78557 855.859 6.32897L855.675 8.32045ZM868.119 10.5269C871.578 11.5025 874.394 12.7321 876.591 14.1973L877.701 12.5332C875.283 10.9215 872.262 9.61726 868.662 8.602L868.119 10.5269ZM876.61 14.2096C878.853 15.6326 880.598 17.3421 881.869 19.333L883.555 18.2569C882.11 15.9945 880.145 14.0842 877.682 12.5209L876.61 14.2096ZM881.882 19.3538C883.206 21.3174 884.131 23.5686 884.65 26.1207L886.61 25.7221C886.043 22.935 885.023 20.4352 883.541 18.2361L881.882 19.3538ZM884.65 26.1207C885.177 28.7134 885.445 31.6091 885.445 34.8125H887.445C887.445 31.5003 887.169 28.4685 886.61 25.7221L884.65 26.1207ZM886.445 33.8125H873.413V35.8125H886.445V33.8125ZM874.413 34.8125C874.413 30.6636 873.817 27.2947 872.54 24.7885L870.758 25.6969C871.833 27.8059 872.413 30.8168 872.413 34.8125H874.413ZM872.54 24.7885C871.241 22.2409 869.099 20.3707 866.196 19.1614L865.427 21.0075C867.954 22.0606 869.704 23.6292 870.758 25.6969L872.54 24.7885ZM866.209 19.1669C863.349 17.9272 859.647 17.1898 855.149 16.9145L855.027 18.9107C859.398 19.1783 862.845 19.8888 865.414 21.002L866.209 19.1669ZM855.159 16.9151C850.693 16.5961 845.193 16.4375 838.663 16.4375V18.4375C845.165 18.4375 850.614 18.5956 855.017 18.9101L855.159 16.9151ZM838.663 16.4375H825.632V18.4375H838.663V16.4375ZM825.632 16.4375C816.925 16.4375 809.735 16.7547 804.073 17.394L804.297 19.3814C809.856 18.7537 816.964 18.4375 825.632 18.4375V16.4375ZM804.081 17.3931C798.419 17.9867 793.868 19.0203 790.476 20.5281L791.288 22.3557C794.411 20.9677 798.729 19.9651 804.289 19.3822L804.081 17.3931ZM790.476 20.5281C787.073 22.0406 784.606 24.1208 783.207 26.8185L784.983 27.7391C786.118 25.5501 788.176 23.739 791.288 22.3557L790.476 20.5281ZM783.207 26.8185C781.846 29.4433 781.195 32.6671 781.195 36.4414H783.195C783.195 32.8856 783.81 30.001 784.983 27.7391L783.207 26.8185ZM781.195 36.4414C781.195 38.7484 781.356 40.8228 781.685 42.6586L783.654 42.3053C783.35 40.6117 783.195 38.6591 783.195 36.4414H781.195ZM781.685 42.6586C782.026 44.554 782.711 46.2528 783.751 47.7385L785.389 46.5916C784.529 45.3624 783.947 43.9391 783.654 42.3053L781.685 42.6586ZM783.773 47.7694C784.876 49.223 786.383 50.4209 788.254 51.3805L789.166 49.6009C787.508 48.7506 786.255 47.7315 785.367 46.5607L783.773 47.7694ZM788.254 51.3805C790.129 52.3421 792.556 53.112 795.502 53.7105L795.9 51.7505C793.054 51.1725 790.821 50.4492 789.166 49.6009L788.254 51.3805ZM795.502 53.7105C798.456 54.3105 802.033 54.7446 806.224 55.0179L806.354 53.0221C802.219 52.7525 798.738 52.3269 795.9 51.7505L795.502 53.7105ZM806.235 55.0186C810.466 55.2461 815.485 55.3594 821.288 55.3594V53.3594C815.508 53.3594 810.527 53.2465 806.342 53.0215L806.235 55.0186ZM821.288 55.3594H839.206V53.3594H821.288V55.3594Z" fill="white" mask="url(#path-1-outside-1_3612_68)"/>
<path d="M229.837 12.75V23.6094H177.712V117H164.68V23.6094H112.555V12.75H229.837ZM265.455 117V12.75H369.705V23.6094H278.487V58.3594H365.362V69.2188H278.487V106.141H369.705V117H265.455ZM503.059 93.1094H420.527L407.496 117H392.293L453.105 12.75H470.48L531.293 117H516.09L503.059 93.1094ZM496.543 82.25L461.793 21.4375L427.043 82.25H496.543ZM575.599 21.4375V117H562.568V12.75H584.287L645.031 103.969L705.776 12.75H726.545V117H713.513V22.8628L651.615 117H638.448L575.599 21.4375ZM832.206 58.3594C839.355 58.3594 845.486 58.6535 850.599 59.2417C855.712 59.8299 860.011 60.7122 863.495 61.8887C867.024 63.0199 869.829 64.4451 871.911 66.1646C873.992 67.884 875.598 69.8522 876.73 72.0693C877.861 74.2412 878.585 76.6846 878.902 79.3994C879.264 82.1143 879.445 85.0553 879.445 88.2227C879.445 91.39 879.15 94.3763 878.562 97.1816C878.019 99.9417 877.024 102.476 875.576 104.783C874.128 107.091 872.16 109.15 869.671 110.959C867.182 112.769 864.015 114.308 860.169 115.575C856.323 116.842 851.685 117.792 846.256 118.425C840.871 119.104 834.559 119.443 827.32 119.443H809.945C803.429 119.443 797.728 119.194 792.841 118.697C787.954 118.199 783.746 117.452 780.217 116.457C776.688 115.416 773.769 114.127 771.462 112.588C769.154 111.005 767.299 109.172 765.896 107.091C764.539 104.964 763.589 102.566 763.046 99.8965C762.503 97.1816 762.231 94.1953 762.231 90.9375H775.262C775.262 95.0098 775.851 98.1997 777.027 100.507C778.203 102.815 780.149 104.557 782.864 105.733C785.579 106.865 789.131 107.589 793.52 107.905C797.954 108.177 803.429 108.312 809.945 108.312H827.32C834.921 108.312 841.233 107.951 846.256 107.227C851.278 106.503 855.282 105.349 858.269 103.765C861.255 102.181 863.359 100.123 864.581 97.5889C865.802 95.0098 866.413 91.8877 866.413 88.2227C866.413 84.5576 865.983 81.5034 865.124 79.0601C864.309 76.6167 862.658 74.6711 860.169 73.2231C857.726 71.7752 854.264 70.7572 849.785 70.1689C845.305 69.5355 839.446 69.2188 832.206 69.2188H814.288C806.325 69.2188 799.492 68.9246 793.791 68.3364C788.135 67.7482 783.384 66.9111 779.538 65.8252C775.692 64.694 772.615 63.314 770.308 61.6851C768 60.0109 766.236 58.1105 765.014 55.9839C763.837 53.8573 763.068 51.5044 762.706 48.9253C762.344 46.3009 762.163 43.473 762.163 40.4414C762.163 37.2741 762.435 34.333 762.978 31.6182C763.566 28.9033 764.629 26.46 766.168 24.2881C767.706 22.071 769.81 20.1027 772.48 18.3833C775.149 16.6639 778.565 15.2386 782.728 14.1074C786.936 12.931 791.981 12.0487 797.863 11.4604C803.746 10.8722 810.668 10.5781 818.632 10.5781H831.663C838.179 10.5781 843.88 10.827 848.767 11.3247C853.654 11.7772 857.862 12.5238 861.391 13.5645C864.92 14.5599 867.839 15.8268 870.146 17.3652C872.499 18.8584 874.354 20.6683 875.712 22.7949C877.114 24.8763 878.087 27.2518 878.63 29.9214C879.173 32.591 879.445 35.5547 879.445 38.8125H866.413C866.413 34.7402 865.825 31.5503 864.649 29.2427C863.472 26.9351 861.527 25.2157 858.812 24.0845C856.097 22.908 852.522 22.1841 848.088 21.9126C843.654 21.5959 838.179 21.4375 831.663 21.4375H818.632C809.945 21.4375 802.795 21.7542 797.185 22.3877C791.574 22.9759 787.14 23.994 783.882 25.4419C780.624 26.8898 778.362 28.8354 777.095 31.2788C775.828 33.7222 775.195 36.7764 775.195 40.4414C775.195 42.7038 775.353 44.7173 775.67 46.4819C775.986 48.2466 776.62 49.8076 777.57 51.165C778.565 52.4772 779.945 53.5858 781.71 54.4907C783.475 55.3957 785.805 56.1423 788.701 56.7305C791.597 57.3187 795.126 57.7485 799.289 58.02C803.497 58.2463 808.497 58.3594 814.288 58.3594H832.206Z" fill="white"/>
</svg>
