<svg width="1053" height="1291" viewBox="0 0 1053 1291" fill="none" xmlns="http://www.w3.org/2000/svg">
<g filter="url(#filter0_b_1707_224)">
<path d="M1048 784.435V65C1048 31.8629 1021.14 5 988 5H802.717C792.571 5 782.592 7.57253 773.711 12.4771L670.414 69.5229C661.533 74.4275 651.554 77 641.408 77H526.5H411.592C401.446 77 391.467 74.4275 382.586 69.5229L279.289 12.4771C270.408 7.57253 260.429 5 250.283 5H65C31.8629 5 5 31.8629 5 65V1226C5 1259.14 31.8629 1286 65 1286H526.5H988C1021.14 1286 1048 1259.14 1048 1226V784.435Z" fill="white" fill-opacity="0.08"/>
<path d="M1048 784.435V65C1048 31.8629 1021.14 5 988 5H802.717C792.571 5 782.592 7.57253 773.711 12.4771L670.414 69.5229C661.533 74.4275 651.554 77 641.408 77H526.5H411.592C401.446 77 391.467 74.4275 382.586 69.5229L279.289 12.4771C270.408 7.57253 260.429 5 250.283 5H65C31.8629 5 5 31.8629 5 65V1226C5 1259.14 31.8629 1286 65 1286H526.5H988C1021.14 1286 1048 1259.14 1048 1226V784.435Z" stroke="white" stroke-width="10"/>
</g>
<defs>
<filter id="filter0_b_1707_224" x="-43.5" y="-43.5" width="1140" height="1378" filterUnits="userSpaceOnUse" color-interpolation-filters="sRGB">
<feFlood flood-opacity="0" result="BackgroundImageFix"/>
<feGaussianBlur in="BackgroundImageFix" stdDeviation="21.75"/>
<feComposite in2="SourceAlpha" operator="in" result="effect1_backgroundBlur_1707_224"/>
<feBlend mode="normal" in="SourceGraphic" in2="effect1_backgroundBlur_1707_224" result="shape"/>
</filter>
</defs>
</svg>
